%TF.GenerationSoftware,KiCad,Pcbnew,6.0.1+dfsg-1*%
%TF.CreationDate,2022-09-02T19:09:09-04:00*%
%TF.ProjectId,CH340-testing,43483334-302d-4746-9573-74696e672e6b,rev?*%
%TF.SameCoordinates,Original*%
%TF.FileFunction,Legend,Bot*%
%TF.FilePolarity,Positive*%
%FSLAX46Y46*%
G04 Gerber Fmt 4.6, Leading zero omitted, Abs format (unit mm)*
G04 Created by KiCad (PCBNEW 6.0.1+dfsg-1) date 2022-09-02 19:09:09*
%MOMM*%
%LPD*%
G01*
G04 APERTURE LIST*
%ADD10C,0.150000*%
G04 APERTURE END LIST*
D10*
X159119047Y-121772571D02*
X158785714Y-121772571D01*
X158642857Y-122296380D02*
X159119047Y-122296380D01*
X159119047Y-121296380D01*
X158642857Y-121296380D01*
X158261904Y-122248761D02*
X158119047Y-122296380D01*
X157880952Y-122296380D01*
X157785714Y-122248761D01*
X157738095Y-122201142D01*
X157690476Y-122105904D01*
X157690476Y-122010666D01*
X157738095Y-121915428D01*
X157785714Y-121867809D01*
X157880952Y-121820190D01*
X158071428Y-121772571D01*
X158166666Y-121724952D01*
X158214285Y-121677333D01*
X158261904Y-121582095D01*
X158261904Y-121486857D01*
X158214285Y-121391619D01*
X158166666Y-121344000D01*
X158071428Y-121296380D01*
X157833333Y-121296380D01*
X157690476Y-121344000D01*
X157261904Y-122296380D02*
X157261904Y-121296380D01*
X156880952Y-121296380D01*
X156785714Y-121344000D01*
X156738095Y-121391619D01*
X156690476Y-121486857D01*
X156690476Y-121629714D01*
X156738095Y-121724952D01*
X156785714Y-121772571D01*
X156880952Y-121820190D01*
X157261904Y-121820190D01*
X156261904Y-121915428D02*
X155500000Y-121915428D01*
X155023809Y-122296380D02*
X155023809Y-121296380D01*
X154690476Y-122010666D01*
X154357142Y-121296380D01*
X154357142Y-122296380D01*
X153976190Y-121296380D02*
X153357142Y-121296380D01*
X153690476Y-121677333D01*
X153547619Y-121677333D01*
X153452380Y-121724952D01*
X153404761Y-121772571D01*
X153357142Y-121867809D01*
X153357142Y-122105904D01*
X153404761Y-122201142D01*
X153452380Y-122248761D01*
X153547619Y-122296380D01*
X153833333Y-122296380D01*
X153928571Y-122248761D01*
X153976190Y-122201142D01*
X151785714Y-122248761D02*
X151880952Y-122296380D01*
X152071428Y-122296380D01*
X152166666Y-122248761D01*
X152214285Y-122153523D01*
X152214285Y-121772571D01*
X152166666Y-121677333D01*
X152071428Y-121629714D01*
X151880952Y-121629714D01*
X151785714Y-121677333D01*
X151738095Y-121772571D01*
X151738095Y-121867809D01*
X152214285Y-121963047D01*
X150880952Y-122296380D02*
X150880952Y-121296380D01*
X150880952Y-122248761D02*
X150976190Y-122296380D01*
X151166666Y-122296380D01*
X151261904Y-122248761D01*
X151309523Y-122201142D01*
X151357142Y-122105904D01*
X151357142Y-121820190D01*
X151309523Y-121724952D01*
X151261904Y-121677333D01*
X151166666Y-121629714D01*
X150976190Y-121629714D01*
X150880952Y-121677333D01*
X150404761Y-122296380D02*
X150404761Y-121629714D01*
X150404761Y-121296380D02*
X150452380Y-121344000D01*
X150404761Y-121391619D01*
X150357142Y-121344000D01*
X150404761Y-121296380D01*
X150404761Y-121391619D01*
X150071428Y-121629714D02*
X149690476Y-121629714D01*
X149928571Y-121296380D02*
X149928571Y-122153523D01*
X149880952Y-122248761D01*
X149785714Y-122296380D01*
X149690476Y-122296380D01*
X149357142Y-122296380D02*
X149357142Y-121629714D01*
X149357142Y-121296380D02*
X149404761Y-121344000D01*
X149357142Y-121391619D01*
X149309523Y-121344000D01*
X149357142Y-121296380D01*
X149357142Y-121391619D01*
X148738095Y-122296380D02*
X148833333Y-122248761D01*
X148880952Y-122201142D01*
X148928571Y-122105904D01*
X148928571Y-121820190D01*
X148880952Y-121724952D01*
X148833333Y-121677333D01*
X148738095Y-121629714D01*
X148595238Y-121629714D01*
X148500000Y-121677333D01*
X148452380Y-121724952D01*
X148404761Y-121820190D01*
X148404761Y-122105904D01*
X148452380Y-122201142D01*
X148500000Y-122248761D01*
X148595238Y-122296380D01*
X148738095Y-122296380D01*
X147976190Y-121629714D02*
X147976190Y-122296380D01*
X147976190Y-121724952D02*
X147928571Y-121677333D01*
X147833333Y-121629714D01*
X147690476Y-121629714D01*
X147595238Y-121677333D01*
X147547619Y-121772571D01*
X147547619Y-122296380D01*
X146023809Y-122677333D02*
X146071428Y-122629714D01*
X146166666Y-122486857D01*
X146214285Y-122391619D01*
X146261904Y-122248761D01*
X146309523Y-122010666D01*
X146309523Y-121820190D01*
X146261904Y-121582095D01*
X146214285Y-121439238D01*
X146166666Y-121344000D01*
X146071428Y-121201142D01*
X146023809Y-121153523D01*
X145738095Y-121629714D02*
X145500000Y-122296380D01*
X145261904Y-121629714D01*
X144690476Y-121296380D02*
X144595238Y-121296380D01*
X144500000Y-121344000D01*
X144452380Y-121391619D01*
X144404761Y-121486857D01*
X144357142Y-121677333D01*
X144357142Y-121915428D01*
X144404761Y-122105904D01*
X144452380Y-122201142D01*
X144500000Y-122248761D01*
X144595238Y-122296380D01*
X144690476Y-122296380D01*
X144785714Y-122248761D01*
X144833333Y-122201142D01*
X144880952Y-122105904D01*
X144928571Y-121915428D01*
X144928571Y-121677333D01*
X144880952Y-121486857D01*
X144833333Y-121391619D01*
X144785714Y-121344000D01*
X144690476Y-121296380D01*
X143928571Y-122201142D02*
X143880952Y-122248761D01*
X143928571Y-122296380D01*
X143976190Y-122248761D01*
X143928571Y-122201142D01*
X143928571Y-122296380D01*
X143500000Y-121391619D02*
X143452380Y-121344000D01*
X143357142Y-121296380D01*
X143119047Y-121296380D01*
X143023809Y-121344000D01*
X142976190Y-121391619D01*
X142928571Y-121486857D01*
X142928571Y-121582095D01*
X142976190Y-121724952D01*
X143547619Y-122296380D01*
X142928571Y-122296380D01*
X142500000Y-122201142D02*
X142452380Y-122248761D01*
X142500000Y-122296380D01*
X142547619Y-122248761D01*
X142500000Y-122201142D01*
X142500000Y-122296380D01*
X141833333Y-121296380D02*
X141738095Y-121296380D01*
X141642857Y-121344000D01*
X141595238Y-121391619D01*
X141547619Y-121486857D01*
X141500000Y-121677333D01*
X141500000Y-121915428D01*
X141547619Y-122105904D01*
X141595238Y-122201142D01*
X141642857Y-122248761D01*
X141738095Y-122296380D01*
X141833333Y-122296380D01*
X141928571Y-122248761D01*
X141976190Y-122201142D01*
X142023809Y-122105904D01*
X142071428Y-121915428D01*
X142071428Y-121677333D01*
X142023809Y-121486857D01*
X141976190Y-121391619D01*
X141928571Y-121344000D01*
X141833333Y-121296380D01*
X141166666Y-122677333D02*
X141119047Y-122629714D01*
X141023809Y-122486857D01*
X140976190Y-122391619D01*
X140928571Y-122248761D01*
X140880952Y-122010666D01*
X140880952Y-121820190D01*
X140928571Y-121582095D01*
X140976190Y-121439238D01*
X141023809Y-121344000D01*
X141119047Y-121201142D01*
X141166666Y-121153523D01*
X157309523Y-120772380D02*
X157309523Y-119772380D01*
X156976190Y-120486666D01*
X156642857Y-119772380D01*
X156642857Y-120772380D01*
X156023809Y-120772380D02*
X156119047Y-120724761D01*
X156166666Y-120677142D01*
X156214285Y-120581904D01*
X156214285Y-120296190D01*
X156166666Y-120200952D01*
X156119047Y-120153333D01*
X156023809Y-120105714D01*
X155880952Y-120105714D01*
X155785714Y-120153333D01*
X155738095Y-120200952D01*
X155690476Y-120296190D01*
X155690476Y-120581904D01*
X155738095Y-120677142D01*
X155785714Y-120724761D01*
X155880952Y-120772380D01*
X156023809Y-120772380D01*
X154833333Y-120772380D02*
X154833333Y-119772380D01*
X154833333Y-120724761D02*
X154928571Y-120772380D01*
X155119047Y-120772380D01*
X155214285Y-120724761D01*
X155261904Y-120677142D01*
X155309523Y-120581904D01*
X155309523Y-120296190D01*
X155261904Y-120200952D01*
X155214285Y-120153333D01*
X155119047Y-120105714D01*
X154928571Y-120105714D01*
X154833333Y-120153333D01*
X153928571Y-120105714D02*
X153928571Y-120772380D01*
X154357142Y-120105714D02*
X154357142Y-120629523D01*
X154309523Y-120724761D01*
X154214285Y-120772380D01*
X154071428Y-120772380D01*
X153976190Y-120724761D01*
X153928571Y-120677142D01*
X153309523Y-120772380D02*
X153404761Y-120724761D01*
X153452380Y-120629523D01*
X153452380Y-119772380D01*
X152547619Y-120724761D02*
X152642857Y-120772380D01*
X152833333Y-120772380D01*
X152928571Y-120724761D01*
X152976190Y-120629523D01*
X152976190Y-120248571D01*
X152928571Y-120153333D01*
X152833333Y-120105714D01*
X152642857Y-120105714D01*
X152547619Y-120153333D01*
X152500000Y-120248571D01*
X152500000Y-120343809D01*
X152976190Y-120439047D01*
X151309523Y-120772380D02*
X151309523Y-119772380D01*
X150928571Y-119772380D01*
X150833333Y-119820000D01*
X150785714Y-119867619D01*
X150738095Y-119962857D01*
X150738095Y-120105714D01*
X150785714Y-120200952D01*
X150833333Y-120248571D01*
X150928571Y-120296190D01*
X151309523Y-120296190D01*
X150309523Y-120772380D02*
X150309523Y-120105714D01*
X150309523Y-120296190D02*
X150261904Y-120200952D01*
X150214285Y-120153333D01*
X150119047Y-120105714D01*
X150023809Y-120105714D01*
X149547619Y-120772380D02*
X149642857Y-120724761D01*
X149690476Y-120677142D01*
X149738095Y-120581904D01*
X149738095Y-120296190D01*
X149690476Y-120200952D01*
X149642857Y-120153333D01*
X149547619Y-120105714D01*
X149404761Y-120105714D01*
X149309523Y-120153333D01*
X149261904Y-120200952D01*
X149214285Y-120296190D01*
X149214285Y-120581904D01*
X149261904Y-120677142D01*
X149309523Y-120724761D01*
X149404761Y-120772380D01*
X149547619Y-120772380D01*
X148357142Y-120105714D02*
X148357142Y-120915238D01*
X148404761Y-121010476D01*
X148452380Y-121058095D01*
X148547619Y-121105714D01*
X148690476Y-121105714D01*
X148785714Y-121058095D01*
X148357142Y-120724761D02*
X148452380Y-120772380D01*
X148642857Y-120772380D01*
X148738095Y-120724761D01*
X148785714Y-120677142D01*
X148833333Y-120581904D01*
X148833333Y-120296190D01*
X148785714Y-120200952D01*
X148738095Y-120153333D01*
X148642857Y-120105714D01*
X148452380Y-120105714D01*
X148357142Y-120153333D01*
X147880952Y-120772380D02*
X147880952Y-120105714D01*
X147880952Y-120296190D02*
X147833333Y-120200952D01*
X147785714Y-120153333D01*
X147690476Y-120105714D01*
X147595238Y-120105714D01*
X146833333Y-120772380D02*
X146833333Y-120248571D01*
X146880952Y-120153333D01*
X146976190Y-120105714D01*
X147166666Y-120105714D01*
X147261904Y-120153333D01*
X146833333Y-120724761D02*
X146928571Y-120772380D01*
X147166666Y-120772380D01*
X147261904Y-120724761D01*
X147309523Y-120629523D01*
X147309523Y-120534285D01*
X147261904Y-120439047D01*
X147166666Y-120391428D01*
X146928571Y-120391428D01*
X146833333Y-120343809D01*
X146357142Y-120772380D02*
X146357142Y-120105714D01*
X146357142Y-120200952D02*
X146309523Y-120153333D01*
X146214285Y-120105714D01*
X146071428Y-120105714D01*
X145976190Y-120153333D01*
X145928571Y-120248571D01*
X145928571Y-120772380D01*
X145928571Y-120248571D02*
X145880952Y-120153333D01*
X145785714Y-120105714D01*
X145642857Y-120105714D01*
X145547619Y-120153333D01*
X145500000Y-120248571D01*
X145500000Y-120772380D01*
X145023809Y-120772380D02*
X145023809Y-120105714D01*
X145023809Y-120200952D02*
X144976190Y-120153333D01*
X144880952Y-120105714D01*
X144738095Y-120105714D01*
X144642857Y-120153333D01*
X144595238Y-120248571D01*
X144595238Y-120772380D01*
X144595238Y-120248571D02*
X144547619Y-120153333D01*
X144452380Y-120105714D01*
X144309523Y-120105714D01*
X144214285Y-120153333D01*
X144166666Y-120248571D01*
X144166666Y-120772380D01*
X143309523Y-120724761D02*
X143404761Y-120772380D01*
X143595238Y-120772380D01*
X143690476Y-120724761D01*
X143738095Y-120629523D01*
X143738095Y-120248571D01*
X143690476Y-120153333D01*
X143595238Y-120105714D01*
X143404761Y-120105714D01*
X143309523Y-120153333D01*
X143261904Y-120248571D01*
X143261904Y-120343809D01*
X143738095Y-120439047D01*
X142833333Y-120772380D02*
X142833333Y-120105714D01*
X142833333Y-120296190D02*
X142785714Y-120200952D01*
X142738095Y-120153333D01*
X142642857Y-120105714D01*
X142547619Y-120105714D01*
X156309523Y-124404761D02*
X156166666Y-124452380D01*
X155928571Y-124452380D01*
X155833333Y-124404761D01*
X155785714Y-124357142D01*
X155738095Y-124261904D01*
X155738095Y-124166666D01*
X155785714Y-124071428D01*
X155833333Y-124023809D01*
X155928571Y-123976190D01*
X156119047Y-123928571D01*
X156214285Y-123880952D01*
X156261904Y-123833333D01*
X156309523Y-123738095D01*
X156309523Y-123642857D01*
X156261904Y-123547619D01*
X156214285Y-123500000D01*
X156119047Y-123452380D01*
X155880952Y-123452380D01*
X155738095Y-123500000D01*
X155309523Y-124357142D02*
X155261904Y-124404761D01*
X155309523Y-124452380D01*
X155357142Y-124404761D01*
X155309523Y-124357142D01*
X155309523Y-124452380D01*
X154119047Y-124166666D02*
X153642857Y-124166666D01*
X154214285Y-124452380D02*
X153880952Y-123452380D01*
X153547619Y-124452380D01*
X153214285Y-124357142D02*
X153166666Y-124404761D01*
X153214285Y-124452380D01*
X153261904Y-124404761D01*
X153214285Y-124357142D01*
X153214285Y-124452380D01*
X151976190Y-124452380D02*
X151976190Y-123452380D01*
X151642857Y-124166666D01*
X151309523Y-123452380D01*
X151309523Y-124452380D01*
X150833333Y-124452380D02*
X150833333Y-123785714D01*
X150833333Y-123452380D02*
X150880952Y-123500000D01*
X150833333Y-123547619D01*
X150785714Y-123500000D01*
X150833333Y-123452380D01*
X150833333Y-123547619D01*
X150214285Y-124452380D02*
X150309523Y-124404761D01*
X150357142Y-124309523D01*
X150357142Y-123452380D01*
X149690476Y-124452380D02*
X149785714Y-124404761D01*
X149833333Y-124309523D01*
X149833333Y-123452380D01*
X148928571Y-124404761D02*
X149023809Y-124452380D01*
X149214285Y-124452380D01*
X149309523Y-124404761D01*
X149357142Y-124309523D01*
X149357142Y-123928571D01*
X149309523Y-123833333D01*
X149214285Y-123785714D01*
X149023809Y-123785714D01*
X148928571Y-123833333D01*
X148880952Y-123928571D01*
X148880952Y-124023809D01*
X149357142Y-124119047D01*
X148452380Y-124452380D02*
X148452380Y-123785714D01*
X148452380Y-123976190D02*
X148404761Y-123880952D01*
X148357142Y-123833333D01*
X148261904Y-123785714D01*
X148166666Y-123785714D01*
X147119047Y-123547619D02*
X147071428Y-123500000D01*
X146976190Y-123452380D01*
X146738095Y-123452380D01*
X146642857Y-123500000D01*
X146595238Y-123547619D01*
X146547619Y-123642857D01*
X146547619Y-123738095D01*
X146595238Y-123880952D01*
X147166666Y-124452380D01*
X146547619Y-124452380D01*
X145928571Y-123452380D02*
X145833333Y-123452380D01*
X145738095Y-123500000D01*
X145690476Y-123547619D01*
X145642857Y-123642857D01*
X145595238Y-123833333D01*
X145595238Y-124071428D01*
X145642857Y-124261904D01*
X145690476Y-124357142D01*
X145738095Y-124404761D01*
X145833333Y-124452380D01*
X145928571Y-124452380D01*
X146023809Y-124404761D01*
X146071428Y-124357142D01*
X146119047Y-124261904D01*
X146166666Y-124071428D01*
X146166666Y-123833333D01*
X146119047Y-123642857D01*
X146071428Y-123547619D01*
X146023809Y-123500000D01*
X145928571Y-123452380D01*
X145214285Y-123547619D02*
X145166666Y-123500000D01*
X145071428Y-123452380D01*
X144833333Y-123452380D01*
X144738095Y-123500000D01*
X144690476Y-123547619D01*
X144642857Y-123642857D01*
X144642857Y-123738095D01*
X144690476Y-123880952D01*
X145261904Y-124452380D01*
X144642857Y-124452380D01*
X144261904Y-123547619D02*
X144214285Y-123500000D01*
X144119047Y-123452380D01*
X143880952Y-123452380D01*
X143785714Y-123500000D01*
X143738095Y-123547619D01*
X143690476Y-123642857D01*
X143690476Y-123738095D01*
X143738095Y-123880952D01*
X144309523Y-124452380D01*
X143690476Y-124452380D01*
%TO.C,G\u002A\u002A\u002A*%
G36*
X141840250Y-95998334D02*
G01*
X141838479Y-96028271D01*
X141834387Y-96086231D01*
X141829603Y-96143381D01*
X141824586Y-96194440D01*
X141819795Y-96234128D01*
X141815756Y-96263277D01*
X141811400Y-96295739D01*
X141808431Y-96319149D01*
X141807333Y-96329783D01*
X141808197Y-96330467D01*
X141821011Y-96332444D01*
X141847266Y-96334147D01*
X141884527Y-96335483D01*
X141930361Y-96336354D01*
X141982333Y-96336666D01*
X142157333Y-96336666D01*
X142157333Y-96378333D01*
X141976959Y-96378333D01*
X141918360Y-96378372D01*
X141874259Y-96378635D01*
X141842533Y-96379339D01*
X141821057Y-96380701D01*
X141807705Y-96382939D01*
X141800355Y-96386270D01*
X141796882Y-96390912D01*
X141796345Y-96392838D01*
X141795160Y-96397083D01*
X141791935Y-96411727D01*
X141785944Y-96439025D01*
X141778102Y-96474805D01*
X141769278Y-96515108D01*
X141760492Y-96554228D01*
X141751980Y-96590189D01*
X141744987Y-96617761D01*
X141740482Y-96632987D01*
X141739096Y-96636825D01*
X141738166Y-96644088D01*
X141742894Y-96649195D01*
X141756006Y-96653146D01*
X141780228Y-96656946D01*
X141818288Y-96661597D01*
X141824202Y-96662301D01*
X141867211Y-96667681D01*
X141919596Y-96674556D01*
X141969368Y-96681314D01*
X141975275Y-96682116D01*
X142028167Y-96689552D01*
X142153167Y-96707500D01*
X142155833Y-96730721D01*
X142156635Y-96742045D01*
X142152766Y-96750657D01*
X142139166Y-96749746D01*
X142116301Y-96745345D01*
X142080370Y-96739413D01*
X142036538Y-96732837D01*
X141987515Y-96725957D01*
X141936011Y-96719114D01*
X141884737Y-96712648D01*
X141836402Y-96706900D01*
X141793716Y-96702210D01*
X141759390Y-96698919D01*
X141736134Y-96697368D01*
X141726657Y-96697898D01*
X141726624Y-96697933D01*
X141722432Y-96707278D01*
X141714229Y-96729168D01*
X141703186Y-96760375D01*
X141690473Y-96797671D01*
X141684568Y-96815062D01*
X141648285Y-96913705D01*
X141608042Y-97010917D01*
X141565091Y-97104223D01*
X141520685Y-97191148D01*
X141476076Y-97269216D01*
X141432518Y-97335952D01*
X141391263Y-97388881D01*
X141363940Y-97420000D01*
X141109324Y-97420000D01*
X141048199Y-97348796D01*
X141031998Y-97329744D01*
X140951303Y-97228335D01*
X140878982Y-97125006D01*
X140811795Y-97014858D01*
X140746498Y-96892996D01*
X140701259Y-96803562D01*
X140696852Y-96880531D01*
X140694058Y-96917773D01*
X140687325Y-96964541D01*
X140676932Y-96999155D01*
X140661967Y-97024287D01*
X140641518Y-97042612D01*
X140637008Y-97045392D01*
X140604015Y-97057281D01*
X140563941Y-97062031D01*
X140523711Y-97059352D01*
X140490253Y-97048952D01*
X140487861Y-97047726D01*
X140472110Y-97040342D01*
X140465667Y-97038600D01*
X140465561Y-97039753D01*
X140461690Y-97054060D01*
X140453321Y-97079112D01*
X140441934Y-97110935D01*
X140429007Y-97145560D01*
X140416016Y-97179012D01*
X140404439Y-97207321D01*
X140395755Y-97226515D01*
X140378267Y-97255202D01*
X140350058Y-97288153D01*
X140319296Y-97312853D01*
X140289984Y-97325553D01*
X140280509Y-97328371D01*
X140267218Y-97341131D01*
X140267809Y-97362528D01*
X140282242Y-97392916D01*
X140298755Y-97420000D01*
X140232032Y-97420000D01*
X140210801Y-97419906D01*
X140185271Y-97418873D01*
X140170226Y-97415830D01*
X140161761Y-97409725D01*
X140155972Y-97399506D01*
X140153605Y-97394630D01*
X140144287Y-97384228D01*
X140131699Y-97387006D01*
X140130636Y-97387539D01*
X140111308Y-97392826D01*
X140086669Y-97395000D01*
X140070477Y-97393032D01*
X140043006Y-97380184D01*
X140023247Y-97358710D01*
X140015667Y-97332541D01*
X140011258Y-97311183D01*
X139997769Y-97287221D01*
X139979275Y-97268942D01*
X139959957Y-97261666D01*
X139952158Y-97263140D01*
X139931521Y-97273195D01*
X139909441Y-97289630D01*
X139901937Y-97296212D01*
X139866361Y-97322783D01*
X139837040Y-97335327D01*
X139812350Y-97334261D01*
X139790667Y-97320000D01*
X139776425Y-97299543D01*
X139775191Y-97277086D01*
X139788367Y-97251746D01*
X139816423Y-97221723D01*
X139823368Y-97215368D01*
X139859414Y-97185481D01*
X139890626Y-97166626D01*
X139921263Y-97156720D01*
X139955582Y-97153682D01*
X139955656Y-97153682D01*
X140006823Y-97160444D01*
X140050123Y-97181838D01*
X140086363Y-97218260D01*
X140099433Y-97235334D01*
X140109063Y-97244687D01*
X140115910Y-97243598D01*
X140123863Y-97233664D01*
X140134439Y-97215390D01*
X140144833Y-97191017D01*
X140148294Y-97182830D01*
X140166167Y-97162964D01*
X140190307Y-97154170D01*
X140216045Y-97156352D01*
X140238713Y-97169415D01*
X140253641Y-97193261D01*
X140262449Y-97220332D01*
X140279663Y-97201416D01*
X140283971Y-97196129D01*
X140300181Y-97168566D01*
X140317406Y-97129711D01*
X140334369Y-97083566D01*
X140349789Y-97034135D01*
X140362387Y-96985422D01*
X140370884Y-96941432D01*
X140374000Y-96906166D01*
X140374441Y-96895995D01*
X140383136Y-96864534D01*
X140401629Y-96844008D01*
X140428167Y-96836666D01*
X140436485Y-96837694D01*
X140457910Y-96847697D01*
X140475216Y-96864236D01*
X140482333Y-96882210D01*
X140483569Y-96887312D01*
X140492967Y-96904119D01*
X140508577Y-96924310D01*
X140518712Y-96935103D01*
X140537850Y-96949097D01*
X140556167Y-96951683D01*
X140562242Y-96950325D01*
X140574835Y-96940779D01*
X140583290Y-96921245D01*
X140587902Y-96890116D01*
X140588971Y-96845791D01*
X140586793Y-96786666D01*
X140585455Y-96761409D01*
X140583049Y-96718643D01*
X140579911Y-96689078D01*
X140574410Y-96670412D01*
X140565903Y-96661390D01*
X140776364Y-96661390D01*
X140792684Y-96713612D01*
X140794164Y-96718273D01*
X140820595Y-96787568D01*
X140857197Y-96864958D01*
X140902061Y-96947429D01*
X140953274Y-97031963D01*
X141008927Y-97115545D01*
X141067110Y-97195158D01*
X141125911Y-97267787D01*
X141183420Y-97330416D01*
X141190015Y-97336982D01*
X141212339Y-97358048D01*
X141229788Y-97372785D01*
X141239041Y-97378333D01*
X141244760Y-97376384D01*
X141261287Y-97363469D01*
X141283599Y-97340634D01*
X141309440Y-97310437D01*
X141336552Y-97275436D01*
X141362678Y-97238191D01*
X141415001Y-97152416D01*
X141474520Y-97037177D01*
X141531464Y-96907305D01*
X141585337Y-96763855D01*
X141614068Y-96681314D01*
X141496117Y-96670942D01*
X141481908Y-96669804D01*
X141440893Y-96667235D01*
X141389757Y-96664745D01*
X141330731Y-96662381D01*
X141266046Y-96660192D01*
X141197934Y-96658223D01*
X141128626Y-96656522D01*
X141060353Y-96655137D01*
X140995346Y-96654115D01*
X140935837Y-96653504D01*
X140884057Y-96653350D01*
X140842237Y-96653702D01*
X140812609Y-96654606D01*
X140797403Y-96656110D01*
X140776364Y-96661390D01*
X140565903Y-96661390D01*
X140564914Y-96660341D01*
X140549795Y-96656563D01*
X140527421Y-96656776D01*
X140496162Y-96658676D01*
X140472857Y-96660098D01*
X140411659Y-96664752D01*
X140338242Y-96671323D01*
X140255539Y-96679528D01*
X140166482Y-96689081D01*
X140074000Y-96699697D01*
X140053846Y-96702163D01*
X140006741Y-96708903D01*
X139971561Y-96715914D01*
X139944817Y-96723986D01*
X139923020Y-96733909D01*
X139894602Y-96746787D01*
X139867919Y-96751962D01*
X139850846Y-96745935D01*
X139844833Y-96728798D01*
X139846178Y-96720271D01*
X139852669Y-96710583D01*
X139866836Y-96699581D01*
X139891171Y-96685389D01*
X139928167Y-96666134D01*
X139960028Y-96649191D01*
X140092928Y-96649191D01*
X140097023Y-96651955D01*
X140115667Y-96651879D01*
X140121664Y-96651574D01*
X140147698Y-96649283D01*
X140182360Y-96645387D01*
X140219833Y-96640522D01*
X140242524Y-96637637D01*
X140290199Y-96632590D01*
X140342181Y-96628044D01*
X140390667Y-96624721D01*
X140423707Y-96622848D01*
X140472030Y-96619837D01*
X140507033Y-96616909D01*
X140530861Y-96613569D01*
X140545661Y-96609320D01*
X140553576Y-96603665D01*
X140556752Y-96596109D01*
X140557333Y-96586156D01*
X140560031Y-96568891D01*
X140566558Y-96561666D01*
X140570552Y-96560031D01*
X140571149Y-96549591D01*
X140570057Y-96542854D01*
X140577748Y-96541825D01*
X140588921Y-96541886D01*
X140596422Y-96530858D01*
X140594810Y-96511592D01*
X140588721Y-96502860D01*
X140575716Y-96495813D01*
X140563037Y-96495009D01*
X140557333Y-96502127D01*
X140556257Y-96503616D01*
X140543635Y-96509343D01*
X140519817Y-96516574D01*
X140488583Y-96524102D01*
X140477055Y-96526718D01*
X140439158Y-96536230D01*
X140392208Y-96548914D01*
X140341085Y-96563432D01*
X140290667Y-96578442D01*
X140263365Y-96586756D01*
X140220166Y-96599771D01*
X140183152Y-96610752D01*
X140155570Y-96618739D01*
X140140667Y-96622772D01*
X140125083Y-96628094D01*
X140103167Y-96640206D01*
X140101288Y-96641632D01*
X140092928Y-96649191D01*
X139960028Y-96649191D01*
X139967668Y-96645128D01*
X140015845Y-96617991D01*
X140065828Y-96588628D01*
X140111500Y-96560561D01*
X140128818Y-96549958D01*
X140215667Y-96549958D01*
X140216241Y-96551672D01*
X140222363Y-96552409D01*
X140237776Y-96548722D01*
X140265667Y-96539976D01*
X140274262Y-96537304D01*
X140301968Y-96529298D01*
X140340074Y-96518755D01*
X140384718Y-96506737D01*
X140432036Y-96494303D01*
X140460128Y-96486953D01*
X140476763Y-96482500D01*
X140691937Y-96482500D01*
X140710642Y-96530858D01*
X140716918Y-96547083D01*
X140741898Y-96611666D01*
X140976699Y-96612025D01*
X141029754Y-96612272D01*
X141101897Y-96613056D01*
X141173511Y-96614284D01*
X141240561Y-96615873D01*
X141299013Y-96617737D01*
X141344833Y-96619790D01*
X141363345Y-96620835D01*
X141416921Y-96624024D01*
X141469515Y-96627364D01*
X141515909Y-96630517D01*
X141550879Y-96633144D01*
X141586832Y-96635585D01*
X141609926Y-96635628D01*
X141622566Y-96632996D01*
X141627806Y-96627463D01*
X141628526Y-96625359D01*
X141633880Y-96606621D01*
X141641404Y-96577285D01*
X141650208Y-96541175D01*
X141659403Y-96502115D01*
X141668103Y-96463927D01*
X141675416Y-96430436D01*
X141680456Y-96405466D01*
X141682333Y-96392838D01*
X141682231Y-96390082D01*
X141678630Y-96382581D01*
X141666840Y-96380255D01*
X141642750Y-96381974D01*
X141622954Y-96383726D01*
X141588446Y-96386186D01*
X141546799Y-96388745D01*
X141503167Y-96391069D01*
X141430380Y-96395282D01*
X141348736Y-96401183D01*
X141261953Y-96408433D01*
X141172751Y-96416742D01*
X141083855Y-96425819D01*
X140997985Y-96435374D01*
X140917864Y-96445117D01*
X140846214Y-96454757D01*
X140833112Y-96456761D01*
X140785759Y-96464004D01*
X140739219Y-96472567D01*
X140691937Y-96482500D01*
X140476763Y-96482500D01*
X140500609Y-96476117D01*
X140533359Y-96467048D01*
X140555569Y-96460528D01*
X140564436Y-96457342D01*
X140564810Y-96456761D01*
X140564400Y-96445242D01*
X140559845Y-96425116D01*
X140552947Y-96402406D01*
X140545506Y-96383138D01*
X140539323Y-96373336D01*
X140538071Y-96373256D01*
X140525300Y-96377868D01*
X140501448Y-96389013D01*
X140469106Y-96405275D01*
X140430866Y-96425242D01*
X140389318Y-96447500D01*
X140347054Y-96470633D01*
X140306664Y-96493229D01*
X140270739Y-96513873D01*
X140241871Y-96531152D01*
X140222650Y-96543652D01*
X140215667Y-96549958D01*
X140128818Y-96549958D01*
X140248599Y-96476622D01*
X140446835Y-96365245D01*
X140467814Y-96353639D01*
X140497194Y-96335565D01*
X140513050Y-96323727D01*
X140647265Y-96323727D01*
X140647873Y-96337147D01*
X140652441Y-96354059D01*
X140659366Y-96376250D01*
X140661458Y-96383285D01*
X140670714Y-96412002D01*
X140680004Y-96428433D01*
X140693421Y-96434910D01*
X140715055Y-96433766D01*
X140749000Y-96427333D01*
X140749981Y-96427137D01*
X140795580Y-96419180D01*
X140854959Y-96410521D01*
X140925337Y-96401469D01*
X141003932Y-96392333D01*
X141087961Y-96383422D01*
X141174642Y-96375045D01*
X141261194Y-96367512D01*
X141344833Y-96361132D01*
X141351797Y-96360643D01*
X141416494Y-96356018D01*
X141478197Y-96351475D01*
X141534180Y-96347226D01*
X141581715Y-96343480D01*
X141618077Y-96340447D01*
X141640537Y-96338338D01*
X141694573Y-96332500D01*
X141704267Y-96274166D01*
X141706850Y-96256966D01*
X141712045Y-96214834D01*
X141717520Y-96162504D01*
X141722901Y-96104144D01*
X141727814Y-96043924D01*
X141731885Y-95986014D01*
X141734740Y-95934583D01*
X141735269Y-95910603D01*
X141733321Y-95886451D01*
X141728042Y-95878333D01*
X141723843Y-95879023D01*
X141705801Y-95883891D01*
X141678116Y-95892400D01*
X141644822Y-95903337D01*
X141627195Y-95909162D01*
X141596411Y-95918643D01*
X141573350Y-95924826D01*
X141562009Y-95926588D01*
X141553420Y-95927344D01*
X141536500Y-95933895D01*
X141533180Y-95935401D01*
X141514858Y-95942223D01*
X141484208Y-95952761D01*
X141443794Y-95966159D01*
X141396178Y-95981563D01*
X141343925Y-95998117D01*
X141295278Y-96013780D01*
X141126108Y-96075070D01*
X140959518Y-96146576D01*
X140790238Y-96230511D01*
X140759740Y-96246524D01*
X140716498Y-96269263D01*
X140685233Y-96286568D01*
X140664341Y-96300223D01*
X140652220Y-96312014D01*
X140647265Y-96323727D01*
X140513050Y-96323727D01*
X140516747Y-96320967D01*
X140523853Y-96311666D01*
X140523852Y-96311557D01*
X140521854Y-96298659D01*
X140516549Y-96273305D01*
X140508732Y-96239112D01*
X140499201Y-96199697D01*
X140490624Y-96163492D01*
X140478017Y-96105903D01*
X140465909Y-96046293D01*
X140456042Y-95992990D01*
X140437550Y-95885752D01*
X140418448Y-95971626D01*
X140409604Y-96009049D01*
X140381537Y-96105277D01*
X140348478Y-96190834D01*
X140311081Y-96264539D01*
X140270003Y-96325210D01*
X140225898Y-96371666D01*
X140179421Y-96402726D01*
X140151368Y-96412664D01*
X140106156Y-96419444D01*
X140059999Y-96418081D01*
X140020486Y-96408309D01*
X140019484Y-96407887D01*
X139972842Y-96379561D01*
X139928541Y-96335936D01*
X139887168Y-96278260D01*
X139849314Y-96207785D01*
X139815565Y-96125758D01*
X139786511Y-96033429D01*
X139762739Y-95932049D01*
X139748861Y-95847405D01*
X139828173Y-95847405D01*
X139829283Y-95869885D01*
X139834226Y-95903252D01*
X139842546Y-95944930D01*
X139853787Y-95992343D01*
X139867490Y-96042916D01*
X139869146Y-96048572D01*
X139878130Y-96076371D01*
X139885864Y-96095936D01*
X139890827Y-96103333D01*
X139905565Y-96097357D01*
X139924357Y-96079258D01*
X139942759Y-96052819D01*
X139957614Y-96021893D01*
X139966413Y-95992161D01*
X139972801Y-95947823D01*
X139973016Y-95902645D01*
X139967562Y-95860047D01*
X139956943Y-95823450D01*
X139941664Y-95796273D01*
X139922229Y-95781937D01*
X139908497Y-95782505D01*
X139887259Y-95789841D01*
X139865125Y-95801350D01*
X139847719Y-95814062D01*
X139840667Y-95825006D01*
X139840154Y-95828511D01*
X139831231Y-95838423D01*
X139828173Y-95847405D01*
X139748861Y-95847405D01*
X139744838Y-95822867D01*
X139744132Y-95817318D01*
X139738390Y-95755600D01*
X139734595Y-95682472D01*
X139734192Y-95665049D01*
X139807333Y-95665049D01*
X139840027Y-95633124D01*
X139841003Y-95632173D01*
X139859922Y-95615188D01*
X139876851Y-95605382D01*
X139898008Y-95600274D01*
X139929611Y-95597384D01*
X139934885Y-95597037D01*
X139964345Y-95595923D01*
X139984284Y-95598210D01*
X140000884Y-95605360D01*
X140020328Y-95618836D01*
X140025513Y-95622947D01*
X140054079Y-95653485D01*
X140078474Y-95692170D01*
X140085685Y-95706894D01*
X140093604Y-95726195D01*
X140098899Y-95746169D01*
X140102266Y-95770813D01*
X140104402Y-95804126D01*
X140106004Y-95850107D01*
X140106105Y-95853611D01*
X140107040Y-95900759D01*
X140107011Y-95902645D01*
X140106494Y-95935693D01*
X140104112Y-95962566D01*
X140099538Y-95985530D01*
X140092416Y-96008738D01*
X140085308Y-96029989D01*
X140074259Y-96065038D01*
X140065838Y-96094092D01*
X140059135Y-96115101D01*
X140029996Y-96170479D01*
X139987028Y-96218419D01*
X139956412Y-96245299D01*
X139974635Y-96270890D01*
X139980296Y-96278108D01*
X140001847Y-96300351D01*
X140026346Y-96320741D01*
X140036746Y-96327664D01*
X140076397Y-96343296D01*
X140116340Y-96342568D01*
X140155990Y-96325699D01*
X140194760Y-96292905D01*
X140232065Y-96244404D01*
X140242266Y-96227997D01*
X140284129Y-96145218D01*
X140319450Y-96047985D01*
X140347967Y-95937125D01*
X140369416Y-95813463D01*
X140373262Y-95780616D01*
X140378512Y-95710205D01*
X140381414Y-95630875D01*
X140381968Y-95547532D01*
X140380173Y-95465085D01*
X140376028Y-95388442D01*
X140369531Y-95322510D01*
X140353533Y-95223040D01*
X140332433Y-95130036D01*
X140306959Y-95045749D01*
X140277692Y-94971315D01*
X140245214Y-94907869D01*
X140210107Y-94856545D01*
X140172954Y-94818480D01*
X140134335Y-94794809D01*
X140094833Y-94786666D01*
X140082181Y-94787480D01*
X140042595Y-94800552D01*
X140004468Y-94828588D01*
X139968287Y-94870307D01*
X139934540Y-94924427D01*
X139903712Y-94989670D01*
X139876292Y-95064753D01*
X139852765Y-95148395D01*
X139833619Y-95239317D01*
X139819341Y-95336238D01*
X139810416Y-95437876D01*
X139807333Y-95542951D01*
X139807333Y-95665049D01*
X139734192Y-95665049D01*
X139732748Y-95602594D01*
X139732849Y-95520628D01*
X139734898Y-95441233D01*
X139738894Y-95369070D01*
X139744838Y-95308798D01*
X139745150Y-95306430D01*
X139763180Y-95197399D01*
X139787069Y-95096196D01*
X139816229Y-95004072D01*
X139850070Y-94922275D01*
X139888005Y-94852056D01*
X139929444Y-94794663D01*
X139973801Y-94751347D01*
X140020486Y-94723356D01*
X140048363Y-94715383D01*
X140093474Y-94711776D01*
X140139689Y-94716384D01*
X140179421Y-94728940D01*
X140220744Y-94755831D01*
X140264687Y-94800414D01*
X140305834Y-94859222D01*
X140343539Y-94931007D01*
X140377155Y-95014522D01*
X140406037Y-95108520D01*
X140429538Y-95211754D01*
X140436931Y-95247243D01*
X140443671Y-95270903D01*
X140450338Y-95283165D01*
X140457929Y-95286666D01*
X140458170Y-95286667D01*
X140470858Y-95289097D01*
X140480492Y-95297659D01*
X140487675Y-95314459D01*
X140493011Y-95341605D01*
X140497105Y-95381203D01*
X140500561Y-95435361D01*
X140502768Y-95472344D01*
X140508866Y-95547532D01*
X140512344Y-95590406D01*
X140525777Y-95713991D01*
X140542436Y-95838664D01*
X140561693Y-95959990D01*
X140582918Y-96073535D01*
X140605482Y-96174862D01*
X140628167Y-96267225D01*
X140749000Y-96202162D01*
X140773159Y-96189254D01*
X140870513Y-96139489D01*
X140966431Y-96094451D01*
X141064493Y-96052673D01*
X141168278Y-96012688D01*
X141281365Y-95973028D01*
X141407333Y-95932224D01*
X141437025Y-95922918D01*
X141499624Y-95903282D01*
X141557678Y-95885053D01*
X141608915Y-95868944D01*
X141651062Y-95855670D01*
X141681848Y-95845946D01*
X141699000Y-95840486D01*
X141736500Y-95828392D01*
X141734153Y-95747112D01*
X141731576Y-95691690D01*
X141724126Y-95600007D01*
X141712965Y-95502202D01*
X141698792Y-95404134D01*
X141682304Y-95311666D01*
X141650524Y-95173065D01*
X141591897Y-94980483D01*
X141517365Y-94791733D01*
X141427256Y-94607532D01*
X141321894Y-94428596D01*
X141201607Y-94255641D01*
X141172712Y-94216830D01*
X141151183Y-94186532D01*
X141137045Y-94164102D01*
X141128800Y-94146870D01*
X141124951Y-94132169D01*
X141124000Y-94117330D01*
X141123594Y-94105646D01*
X141119319Y-94085755D01*
X141108179Y-94065919D01*
X141087478Y-94040463D01*
X141046059Y-94000511D01*
X140992301Y-93967409D01*
X140933141Y-93949849D01*
X140868007Y-93947673D01*
X140796330Y-93960725D01*
X140749552Y-93976175D01*
X140690157Y-94000930D01*
X140628879Y-94031006D01*
X140571584Y-94063712D01*
X140540001Y-94083323D01*
X140588251Y-94102715D01*
X140610467Y-94111968D01*
X140671769Y-94141014D01*
X140726613Y-94172130D01*
X140772588Y-94203717D01*
X140807286Y-94234179D01*
X140828296Y-94261916D01*
X140839764Y-94298309D01*
X140836733Y-94335371D01*
X140819336Y-94368935D01*
X140788746Y-94396795D01*
X140746133Y-94416744D01*
X140732546Y-94420250D01*
X140694829Y-94426272D01*
X140646090Y-94430894D01*
X140590060Y-94433998D01*
X140530471Y-94435465D01*
X140471051Y-94435175D01*
X140415533Y-94433009D01*
X140367647Y-94428847D01*
X140354787Y-94427182D01*
X140306470Y-94419428D01*
X140256170Y-94409414D01*
X140207583Y-94398053D01*
X140164409Y-94386259D01*
X140130345Y-94374943D01*
X140109090Y-94365020D01*
X140098730Y-94356449D01*
X140092376Y-94341869D01*
X140092295Y-94317621D01*
X140098134Y-94290014D01*
X140112882Y-94272701D01*
X140137481Y-94268018D01*
X140173063Y-94275375D01*
X140209282Y-94286416D01*
X140266921Y-94301388D01*
X140323133Y-94311993D01*
X140382414Y-94318845D01*
X140449260Y-94322555D01*
X140528167Y-94323736D01*
X140561883Y-94323630D01*
X140616237Y-94322684D01*
X140659859Y-94320848D01*
X140690773Y-94318219D01*
X140707005Y-94314895D01*
X140712464Y-94312408D01*
X140719315Y-94307494D01*
X140717419Y-94301305D01*
X140705048Y-94291216D01*
X140680474Y-94274603D01*
X140671961Y-94269112D01*
X140619726Y-94240084D01*
X140551400Y-94208472D01*
X140466896Y-94174239D01*
X140366125Y-94137350D01*
X140249000Y-94097767D01*
X140208450Y-94084415D01*
X140157229Y-94067224D01*
X140112654Y-94051892D01*
X140077030Y-94039228D01*
X140052663Y-94030041D01*
X140041859Y-94025138D01*
X140038979Y-94022198D01*
X140033779Y-94005231D01*
X140034539Y-93974975D01*
X140037224Y-93955532D01*
X140045342Y-93932605D01*
X140060430Y-93916005D01*
X140069812Y-93907960D01*
X140080521Y-93892573D01*
X140077081Y-93877203D01*
X140059417Y-93857560D01*
X140053102Y-93852097D01*
X140014327Y-93829629D01*
X139962430Y-93813082D01*
X139899635Y-93803011D01*
X139828167Y-93799968D01*
X139729865Y-93807371D01*
X139617935Y-93830316D01*
X139502274Y-93868415D01*
X139383612Y-93921297D01*
X139262678Y-93988594D01*
X139140199Y-94069938D01*
X139016906Y-94164958D01*
X138893527Y-94273285D01*
X138869446Y-94295325D01*
X138844977Y-94316745D01*
X138827066Y-94331299D01*
X138818462Y-94336666D01*
X138814425Y-94341602D01*
X138805938Y-94359500D01*
X138794853Y-94387407D01*
X138782532Y-94422083D01*
X138780807Y-94427130D01*
X138757150Y-94488834D01*
X138726427Y-94558941D01*
X138691006Y-94632698D01*
X138653255Y-94705351D01*
X138615540Y-94772147D01*
X138580229Y-94828333D01*
X138569124Y-94844691D01*
X138548705Y-94873745D01*
X138533698Y-94892346D01*
X138521550Y-94902964D01*
X138509705Y-94908066D01*
X138495610Y-94910121D01*
X138466726Y-94909066D01*
X138446866Y-94898626D01*
X138439705Y-94878237D01*
X138445239Y-94847686D01*
X138463469Y-94806760D01*
X138494392Y-94755244D01*
X138561386Y-94643812D01*
X138634688Y-94493338D01*
X138693397Y-94335283D01*
X138737267Y-94170331D01*
X138766053Y-93999166D01*
X138767068Y-93990163D01*
X138770895Y-93940190D01*
X138773387Y-93879038D01*
X138774547Y-93811166D01*
X138774375Y-93741034D01*
X138772874Y-93673101D01*
X138770046Y-93611825D01*
X138765891Y-93561666D01*
X138765138Y-93555005D01*
X138734374Y-93355721D01*
X138687660Y-93154613D01*
X138625396Y-92952980D01*
X138547980Y-92752120D01*
X138455813Y-92553333D01*
X138437993Y-92517884D01*
X138419129Y-92480166D01*
X138404152Y-92449999D01*
X138394273Y-92429824D01*
X138390702Y-92422083D01*
X138390977Y-92421886D01*
X138401238Y-92420928D01*
X138423347Y-92420254D01*
X138453238Y-92420000D01*
X138515809Y-92420000D01*
X138569244Y-92530416D01*
X138630622Y-92663392D01*
X138710114Y-92860340D01*
X138774770Y-93055374D01*
X138825205Y-93250421D01*
X138862034Y-93447407D01*
X138866366Y-93478534D01*
X138874974Y-93563288D01*
X138880587Y-93655931D01*
X138883197Y-93752415D01*
X138882794Y-93848696D01*
X138879370Y-93940728D01*
X138872916Y-94024466D01*
X138863424Y-94095863D01*
X138852498Y-94159226D01*
X138911166Y-94108223D01*
X138955061Y-94070978D01*
X139092598Y-93965876D01*
X139231929Y-93876714D01*
X139372719Y-93803669D01*
X139514633Y-93746925D01*
X139657333Y-93706660D01*
X139679401Y-93702413D01*
X139731401Y-93695971D01*
X139789652Y-93692371D01*
X139849619Y-93691614D01*
X139906769Y-93693705D01*
X139956566Y-93698645D01*
X139994478Y-93706439D01*
X140044908Y-93724745D01*
X140097456Y-93751513D01*
X140140200Y-93782246D01*
X140170864Y-93815260D01*
X140187172Y-93848875D01*
X140188789Y-93858275D01*
X140189452Y-93887912D01*
X140186176Y-93919971D01*
X140179695Y-93945000D01*
X140179346Y-93946087D01*
X140181726Y-93952155D01*
X140192596Y-93959363D01*
X140213846Y-93968548D01*
X140247366Y-93980550D01*
X140295045Y-93996207D01*
X140415731Y-94034915D01*
X140483888Y-93989296D01*
X140541253Y-93952907D01*
X140634938Y-93902873D01*
X140729977Y-93864270D01*
X140749375Y-93857813D01*
X140779416Y-93849597D01*
X140809229Y-93844645D01*
X140844438Y-93842154D01*
X140890667Y-93841321D01*
X140913996Y-93841253D01*
X140949540Y-93841795D01*
X140975570Y-93843918D01*
X140996822Y-93848448D01*
X141018031Y-93856211D01*
X141043929Y-93868030D01*
X141056399Y-93874224D01*
X141105338Y-93905517D01*
X141152262Y-93948259D01*
X141155837Y-93952071D01*
X141177836Y-93978298D01*
X141203044Y-94011927D01*
X141229568Y-94050000D01*
X141255515Y-94089559D01*
X141278991Y-94127648D01*
X141298104Y-94161308D01*
X141310961Y-94187583D01*
X141315667Y-94203514D01*
X141316656Y-94207402D01*
X141324935Y-94224512D01*
X141340256Y-94251241D01*
X141360973Y-94284784D01*
X141385439Y-94322334D01*
X141438500Y-94404595D01*
X141533564Y-94569844D01*
X141615858Y-94740013D01*
X141687860Y-94920000D01*
X141722998Y-95025984D01*
X141755914Y-95144352D01*
X141784481Y-95267404D01*
X141807968Y-95391277D01*
X141825648Y-95512111D01*
X141836791Y-95626045D01*
X141840667Y-95729216D01*
X141840766Y-95745171D01*
X141841572Y-95774990D01*
X141843013Y-95795624D01*
X141844878Y-95803333D01*
X141846325Y-95803141D01*
X141860378Y-95800499D01*
X141886651Y-95795237D01*
X141922087Y-95787973D01*
X141963628Y-95779325D01*
X141972056Y-95777566D01*
X142017476Y-95768303D01*
X142059840Y-95759995D01*
X142094736Y-95753494D01*
X142117750Y-95749648D01*
X142135185Y-95747336D01*
X142150370Y-95747189D01*
X142156313Y-95752502D01*
X142157333Y-95764945D01*
X142155810Y-95776951D01*
X142146964Y-95785961D01*
X142126084Y-95791458D01*
X142114741Y-95793506D01*
X142079569Y-95800135D01*
X142038755Y-95808120D01*
X141995440Y-95816813D01*
X141952768Y-95825565D01*
X141913883Y-95833726D01*
X141881927Y-95840648D01*
X141860044Y-95845682D01*
X141851377Y-95848178D01*
X141850158Y-95855128D01*
X141848157Y-95876344D01*
X141845703Y-95909102D01*
X141845605Y-95910603D01*
X141843000Y-95950674D01*
X141840250Y-95998334D01*
G37*
G36*
X138101930Y-95727608D02*
G01*
X138081108Y-95760642D01*
X138057088Y-95788559D01*
X138029875Y-95813284D01*
X138024670Y-95818013D01*
X138016865Y-95824535D01*
X137986254Y-95848846D01*
X137957398Y-95870067D01*
X137935653Y-95884214D01*
X137903167Y-95902595D01*
X137996917Y-95902964D01*
X138038112Y-95903442D01*
X138066889Y-95904862D01*
X138085750Y-95907744D01*
X138098097Y-95912615D01*
X138107333Y-95920000D01*
X138120370Y-95938241D01*
X138122886Y-95961331D01*
X138111313Y-95988122D01*
X138101168Y-96000714D01*
X138085240Y-96020485D01*
X138084584Y-96021187D01*
X138065840Y-96042212D01*
X138053365Y-96058033D01*
X138049829Y-96065273D01*
X138053883Y-96066559D01*
X138071927Y-96070377D01*
X138101757Y-96075949D01*
X138140531Y-96082752D01*
X138185407Y-96090261D01*
X138214163Y-96095059D01*
X138256407Y-96102473D01*
X138291171Y-96109024D01*
X138315460Y-96114138D01*
X138326278Y-96117241D01*
X138327315Y-96117801D01*
X138342512Y-96122189D01*
X138364877Y-96125621D01*
X138370518Y-96126291D01*
X138398095Y-96131010D01*
X138433141Y-96138471D01*
X138471689Y-96147657D01*
X138509774Y-96157550D01*
X138543432Y-96167130D01*
X138568698Y-96175380D01*
X138581605Y-96181281D01*
X138587770Y-96185290D01*
X138589499Y-96182500D01*
X138581764Y-96165606D01*
X138567162Y-96130883D01*
X138555715Y-96097638D01*
X138545500Y-96059893D01*
X138534596Y-96011666D01*
X138533783Y-96007810D01*
X138523246Y-95943579D01*
X138515304Y-95867709D01*
X138510086Y-95784739D01*
X138507725Y-95699203D01*
X138507725Y-95699166D01*
X138586791Y-95699166D01*
X138586995Y-95743553D01*
X138588288Y-95815161D01*
X138591176Y-95875460D01*
X138596141Y-95927920D01*
X138603664Y-95976010D01*
X138614227Y-96023201D01*
X138628310Y-96072963D01*
X138646397Y-96128764D01*
X138647976Y-96133442D01*
X138659020Y-96165082D01*
X138667775Y-96184926D01*
X138676944Y-96196551D01*
X138689229Y-96203536D01*
X138707333Y-96209460D01*
X138712016Y-96210886D01*
X138737412Y-96218860D01*
X138773378Y-96230375D01*
X138815811Y-96244111D01*
X138860612Y-96258750D01*
X138869976Y-96261845D01*
X138916931Y-96277894D01*
X138962267Y-96294162D01*
X139001225Y-96308910D01*
X139029044Y-96320393D01*
X139081698Y-96344017D01*
X139115307Y-96301806D01*
X139130448Y-96280714D01*
X139147583Y-96251305D01*
X139157753Y-96226776D01*
X139159389Y-96220778D01*
X139166135Y-96197460D01*
X139171187Y-96181978D01*
X139170920Y-96175051D01*
X139160404Y-96171092D01*
X139136292Y-96170000D01*
X139134016Y-96169994D01*
X139108020Y-96167867D01*
X139089288Y-96159405D01*
X139069405Y-96140950D01*
X139043806Y-96108976D01*
X139018615Y-96062116D01*
X138999466Y-96004524D01*
X138985244Y-95933454D01*
X138982997Y-95918011D01*
X138977386Y-95847722D01*
X139099167Y-95847722D01*
X139100218Y-95876123D01*
X139104335Y-95918269D01*
X139110829Y-95960408D01*
X139118909Y-95998381D01*
X139127785Y-96028026D01*
X139136667Y-96045184D01*
X139155532Y-96058674D01*
X139179642Y-96059986D01*
X139204619Y-96046816D01*
X139228831Y-96020087D01*
X139250645Y-95980722D01*
X139250851Y-95980255D01*
X139259477Y-95957754D01*
X139263877Y-95936074D01*
X139264681Y-95909441D01*
X139262520Y-95872079D01*
X139259811Y-95843934D01*
X139251053Y-95795309D01*
X139237792Y-95761857D01*
X139219463Y-95742837D01*
X139195500Y-95737510D01*
X139165336Y-95745136D01*
X139160490Y-95747255D01*
X139126626Y-95771067D01*
X139106022Y-95804809D01*
X139099167Y-95847722D01*
X138977386Y-95847722D01*
X138976308Y-95834225D01*
X138980964Y-95761647D01*
X138997229Y-95699177D01*
X139025368Y-95645720D01*
X139065645Y-95600177D01*
X139105380Y-95573825D01*
X139148529Y-95562687D01*
X139192268Y-95567367D01*
X139234253Y-95588033D01*
X139259770Y-95606203D01*
X139253848Y-95544351D01*
X139249897Y-95508998D01*
X139233795Y-95412585D01*
X139210730Y-95317896D01*
X139182012Y-95229818D01*
X139148954Y-95153241D01*
X139117752Y-95097366D01*
X139074782Y-95038133D01*
X139029532Y-94994343D01*
X138982442Y-94966243D01*
X138933951Y-94954075D01*
X138884500Y-94958085D01*
X138834527Y-94978517D01*
X138829673Y-94981387D01*
X138781761Y-95019569D01*
X138737269Y-95073304D01*
X138696597Y-95141818D01*
X138660144Y-95224342D01*
X138628310Y-95320104D01*
X138601494Y-95428333D01*
X138599919Y-95436015D01*
X138595185Y-95463691D01*
X138591671Y-95494136D01*
X138589226Y-95530127D01*
X138587698Y-95574444D01*
X138586937Y-95629864D01*
X138586791Y-95699166D01*
X138507725Y-95699166D01*
X138508349Y-95615639D01*
X138512090Y-95538582D01*
X138519079Y-95472570D01*
X138520077Y-95465850D01*
X138543567Y-95341554D01*
X138574706Y-95231228D01*
X138613893Y-95133879D01*
X138661522Y-95048513D01*
X138717992Y-94974137D01*
X138726810Y-94964522D01*
X138778726Y-94920877D01*
X138835505Y-94892238D01*
X138895128Y-94878605D01*
X138955575Y-94879979D01*
X139014828Y-94896359D01*
X139070868Y-94927745D01*
X139121675Y-94974137D01*
X139139646Y-94995462D01*
X139198223Y-95081092D01*
X139246311Y-95179435D01*
X139283838Y-95290243D01*
X139310732Y-95413270D01*
X139326921Y-95548271D01*
X139329058Y-95606203D01*
X139332333Y-95695000D01*
X139332218Y-95717077D01*
X139325259Y-95861387D01*
X139318881Y-95909441D01*
X139307612Y-95994340D01*
X139279376Y-96115498D01*
X139240649Y-96224423D01*
X139191530Y-96320678D01*
X139159188Y-96374166D01*
X139174142Y-96382035D01*
X139216368Y-96404255D01*
X139216894Y-96404532D01*
X139249698Y-96422929D01*
X139280927Y-96442273D01*
X139303887Y-96458422D01*
X139312229Y-96464966D01*
X139332991Y-96480659D01*
X139347523Y-96490833D01*
X139371544Y-96506181D01*
X139433756Y-96549649D01*
X139471147Y-96580309D01*
X139487176Y-96593453D01*
X139495684Y-96601083D01*
X139516169Y-96620743D01*
X139527147Y-96635391D01*
X139527980Y-96638273D01*
X139531176Y-96649331D01*
X139530812Y-96666865D01*
X139526980Y-96685015D01*
X139515889Y-96700653D01*
X139500980Y-96703109D01*
X139485396Y-96690731D01*
X139481298Y-96686121D01*
X139474282Y-96682959D01*
X139462671Y-96683294D01*
X139443673Y-96687602D01*
X139414495Y-96696360D01*
X139372345Y-96710046D01*
X139333526Y-96722618D01*
X139281608Y-96738973D01*
X139231690Y-96754264D01*
X139190667Y-96766353D01*
X139166594Y-96773380D01*
X139108369Y-96791889D01*
X139049415Y-96813045D01*
X138986267Y-96838201D01*
X138915461Y-96868711D01*
X138833533Y-96905929D01*
X138809709Y-96917123D01*
X138761045Y-96940803D01*
X138708764Y-96967113D01*
X138654926Y-96994933D01*
X138601588Y-97023143D01*
X138550808Y-97050622D01*
X138504646Y-97076251D01*
X138465159Y-97098910D01*
X138434406Y-97117477D01*
X138414445Y-97130834D01*
X138407333Y-97137861D01*
X138407736Y-97141729D01*
X138415316Y-97161997D01*
X138429860Y-97187405D01*
X138447893Y-97212406D01*
X138465941Y-97231451D01*
X138480804Y-97243082D01*
X138496934Y-97252217D01*
X138503524Y-97250334D01*
X138499293Y-97237214D01*
X138496890Y-97232213D01*
X138492138Y-97204272D01*
X138500063Y-97178892D01*
X138518305Y-97160453D01*
X138544502Y-97153333D01*
X138548312Y-97153678D01*
X138569819Y-97163400D01*
X138596060Y-97184496D01*
X138624410Y-97214273D01*
X138652240Y-97250036D01*
X138676922Y-97289092D01*
X138708533Y-97345685D01*
X138726683Y-97319025D01*
X138745712Y-97294598D01*
X138771707Y-97273524D01*
X138804218Y-97261286D01*
X138848108Y-97255331D01*
X138907073Y-97251112D01*
X138940537Y-97284575D01*
X138954303Y-97299728D01*
X138971227Y-97328729D01*
X138972194Y-97354688D01*
X138957333Y-97378333D01*
X138935677Y-97391979D01*
X138907969Y-97392511D01*
X138878701Y-97377264D01*
X138868303Y-97369746D01*
X138852665Y-97364188D01*
X138835788Y-97368808D01*
X138820645Y-97379521D01*
X138805873Y-97399043D01*
X138800956Y-97408155D01*
X138791789Y-97415894D01*
X138775634Y-97419263D01*
X138747663Y-97420000D01*
X138719095Y-97418795D01*
X138697369Y-97413689D01*
X138682333Y-97403333D01*
X138670926Y-97390654D01*
X138665667Y-97382000D01*
X138663471Y-97377237D01*
X138653638Y-97362089D01*
X138638583Y-97341225D01*
X138628425Y-97327599D01*
X138611935Y-97305143D01*
X138600871Y-97289642D01*
X138597159Y-97284813D01*
X138593459Y-97284341D01*
X138592929Y-97295879D01*
X138595169Y-97321671D01*
X138600097Y-97369176D01*
X138547465Y-97371671D01*
X138515935Y-97371159D01*
X138458513Y-97358550D01*
X138407909Y-97331132D01*
X138365193Y-97289583D01*
X138331434Y-97234583D01*
X138323893Y-97219580D01*
X138313231Y-97201894D01*
X138306355Y-97195000D01*
X138305513Y-97195078D01*
X138291603Y-97200830D01*
X138265694Y-97215042D01*
X138229287Y-97236794D01*
X138183886Y-97265169D01*
X138130995Y-97299248D01*
X138072116Y-97338113D01*
X138068961Y-97340217D01*
X138023919Y-97369908D01*
X137989903Y-97391341D01*
X137964468Y-97405792D01*
X137945172Y-97414535D01*
X137929573Y-97418846D01*
X137915227Y-97420000D01*
X137881055Y-97420000D01*
X137904611Y-97400324D01*
X137917002Y-97390871D01*
X137942681Y-97372664D01*
X137977463Y-97348772D01*
X138018630Y-97320993D01*
X138063469Y-97291122D01*
X138109264Y-97260957D01*
X138153298Y-97232295D01*
X138192858Y-97206933D01*
X138225226Y-97186668D01*
X138247689Y-97173296D01*
X138266471Y-97161664D01*
X138282417Y-97148986D01*
X138287215Y-97140833D01*
X138285536Y-97135363D01*
X138280468Y-97115862D01*
X138273303Y-97086514D01*
X138265014Y-97051250D01*
X138259311Y-97027806D01*
X138251052Y-96997996D01*
X138244088Y-96977575D01*
X138239503Y-96970000D01*
X138238771Y-96970124D01*
X138230215Y-96978333D01*
X138219604Y-96995443D01*
X138196842Y-97028995D01*
X138168638Y-97049161D01*
X138136291Y-97053213D01*
X138099692Y-97041191D01*
X138093149Y-97037160D01*
X138078123Y-97021328D01*
X138065137Y-96996143D01*
X138053557Y-96959778D01*
X138042752Y-96910406D01*
X138032087Y-96846202D01*
X138031498Y-96842279D01*
X138025491Y-96803461D01*
X138020221Y-96771474D01*
X138016238Y-96749540D01*
X138014091Y-96740880D01*
X138014021Y-96740833D01*
X138004399Y-96741890D01*
X137980971Y-96746679D01*
X137945935Y-96754644D01*
X137901488Y-96765225D01*
X137849828Y-96777867D01*
X137793155Y-96792012D01*
X137733664Y-96807102D01*
X137673556Y-96822580D01*
X137615027Y-96837889D01*
X137560276Y-96852471D01*
X137511500Y-96865769D01*
X137470898Y-96877226D01*
X137440667Y-96886285D01*
X137388245Y-96903312D01*
X137287303Y-96938297D01*
X137183046Y-96976901D01*
X137081994Y-97016675D01*
X136990667Y-97055174D01*
X136980863Y-97059506D01*
X136914676Y-97089757D01*
X136841447Y-97124694D01*
X136763956Y-97162875D01*
X136684983Y-97202859D01*
X136607308Y-97243206D01*
X136533710Y-97282474D01*
X136466971Y-97319223D01*
X136409869Y-97352011D01*
X136365184Y-97379398D01*
X136358299Y-97383813D01*
X136327415Y-97402480D01*
X136304150Y-97413441D01*
X136283639Y-97418584D01*
X136261017Y-97419796D01*
X136219833Y-97419592D01*
X136303167Y-97365426D01*
X136307708Y-97362494D01*
X136351761Y-97335378D01*
X136407773Y-97302710D01*
X136473022Y-97265983D01*
X136544790Y-97226687D01*
X136620359Y-97186314D01*
X136697008Y-97146355D01*
X136772019Y-97108302D01*
X136847740Y-97071477D01*
X137043951Y-96984472D01*
X137246198Y-96906096D01*
X137449531Y-96838187D01*
X137649000Y-96782585D01*
X137665281Y-96778522D01*
X137710150Y-96767286D01*
X137750531Y-96757120D01*
X137782528Y-96749006D01*
X137802246Y-96743929D01*
X137834658Y-96735398D01*
X137813140Y-96722312D01*
X138127969Y-96722312D01*
X138128756Y-96733103D01*
X138131159Y-96755315D01*
X138134640Y-96784632D01*
X138138662Y-96816739D01*
X138142686Y-96847324D01*
X138146174Y-96872071D01*
X138148588Y-96886666D01*
X138149039Y-96886544D01*
X138153930Y-96877119D01*
X138162955Y-96856603D01*
X138174623Y-96828333D01*
X138180635Y-96813753D01*
X138196749Y-96779891D01*
X138211706Y-96758825D01*
X138227692Y-96748036D01*
X138246896Y-96745000D01*
X138249745Y-96745179D01*
X138270699Y-96754300D01*
X138292707Y-96774091D01*
X138311763Y-96800215D01*
X138323860Y-96828333D01*
X138328903Y-96847704D01*
X138342177Y-96900431D01*
X138354986Y-96953497D01*
X138366028Y-97001427D01*
X138373997Y-97038750D01*
X138378785Y-97059885D01*
X138384698Y-97079212D01*
X138389230Y-97086666D01*
X138397080Y-97083402D01*
X138416681Y-97073372D01*
X138444767Y-97058194D01*
X138478223Y-97039520D01*
X138517210Y-97018088D01*
X138569974Y-96990290D01*
X138630061Y-96959565D01*
X138694712Y-96927250D01*
X138761168Y-96894682D01*
X138826672Y-96863200D01*
X138888465Y-96834140D01*
X138943790Y-96808839D01*
X138989888Y-96788636D01*
X139024000Y-96774868D01*
X139063472Y-96760886D01*
X139112848Y-96744409D01*
X139165683Y-96727545D01*
X139215667Y-96712352D01*
X139220481Y-96710934D01*
X139292740Y-96689210D01*
X139349310Y-96671257D01*
X139390664Y-96656900D01*
X139417276Y-96645964D01*
X139429618Y-96638273D01*
X139428165Y-96633652D01*
X139427408Y-96633405D01*
X139412024Y-96631506D01*
X139382784Y-96630093D01*
X139342205Y-96629152D01*
X139292806Y-96628667D01*
X139237103Y-96628623D01*
X139177614Y-96629005D01*
X139116857Y-96629798D01*
X139057350Y-96630986D01*
X139001609Y-96632555D01*
X138952153Y-96634489D01*
X138911500Y-96636772D01*
X138883015Y-96638762D01*
X138765423Y-96647417D01*
X138660821Y-96655938D01*
X138566211Y-96664615D01*
X138478596Y-96673735D01*
X138394979Y-96683587D01*
X138312363Y-96694460D01*
X138287621Y-96697895D01*
X138236977Y-96705050D01*
X138193314Y-96711385D01*
X138159014Y-96716544D01*
X138136462Y-96720172D01*
X138128041Y-96721914D01*
X138127969Y-96722312D01*
X137813140Y-96722312D01*
X137809915Y-96720351D01*
X137796047Y-96710532D01*
X137794979Y-96709314D01*
X137928407Y-96709314D01*
X137938290Y-96710813D01*
X137957443Y-96708273D01*
X137980856Y-96703312D01*
X138001414Y-96697603D01*
X138012308Y-96692802D01*
X138012475Y-96692585D01*
X138014108Y-96681728D01*
X138014646Y-96659152D01*
X138013969Y-96629429D01*
X138011500Y-96570184D01*
X137977051Y-96622175D01*
X137975974Y-96623802D01*
X137957711Y-96651990D01*
X137942311Y-96676760D01*
X137933008Y-96692916D01*
X137929560Y-96700098D01*
X137928407Y-96709314D01*
X137794979Y-96709314D01*
X137781915Y-96694417D01*
X137772707Y-96672683D01*
X137767769Y-96642607D01*
X137766447Y-96601468D01*
X137767261Y-96574166D01*
X137872815Y-96574166D01*
X137902138Y-96528333D01*
X137915758Y-96507268D01*
X137937920Y-96473631D01*
X137957221Y-96445000D01*
X137966346Y-96431548D01*
X137986025Y-96402049D01*
X138009323Y-96366721D01*
X138032935Y-96330560D01*
X138050036Y-96305091D01*
X138070777Y-96276465D01*
X138087860Y-96255377D01*
X138098731Y-96245144D01*
X138112137Y-96239544D01*
X138140918Y-96238766D01*
X138166466Y-96254132D01*
X138175057Y-96265629D01*
X138180262Y-96284761D01*
X138178502Y-96310992D01*
X138169537Y-96346884D01*
X138153122Y-96395000D01*
X138144123Y-96421298D01*
X138136696Y-96449567D01*
X138131683Y-96480262D01*
X138128336Y-96518129D01*
X138125908Y-96567916D01*
X138125709Y-96573121D01*
X138124333Y-96617314D01*
X138124240Y-96647466D01*
X138125092Y-96659152D01*
X138125587Y-96665936D01*
X138128533Y-96675080D01*
X138133235Y-96677254D01*
X138134179Y-96677153D01*
X138148387Y-96675298D01*
X138175914Y-96671521D01*
X138214068Y-96666196D01*
X138260160Y-96659698D01*
X138311500Y-96652403D01*
X138445339Y-96634818D01*
X138701501Y-96608982D01*
X138959293Y-96592765D01*
X139211500Y-96586693D01*
X139271716Y-96586433D01*
X139321675Y-96585998D01*
X139358171Y-96585287D01*
X139382858Y-96584181D01*
X139397395Y-96582561D01*
X139403436Y-96580309D01*
X139402640Y-96577306D01*
X139396663Y-96573433D01*
X139387647Y-96568119D01*
X139364658Y-96553401D01*
X139334850Y-96533484D01*
X139302392Y-96511124D01*
X139285662Y-96499655D01*
X139247545Y-96474860D01*
X139210702Y-96452421D01*
X139181209Y-96436098D01*
X139131127Y-96410817D01*
X139097476Y-96441218D01*
X139062370Y-96468590D01*
X139004956Y-96497755D01*
X138944930Y-96511506D01*
X138884211Y-96509975D01*
X138824719Y-96493295D01*
X138768372Y-96461598D01*
X138717088Y-96415016D01*
X138696297Y-96389837D01*
X138669640Y-96353403D01*
X138648182Y-96319719D01*
X138633373Y-96293751D01*
X138617479Y-96265959D01*
X138611518Y-96255586D01*
X138699737Y-96255586D01*
X138711369Y-96278078D01*
X138731072Y-96310062D01*
X138763305Y-96350211D01*
X138799477Y-96385845D01*
X138834527Y-96411482D01*
X138862653Y-96425318D01*
X138909891Y-96436824D01*
X138956651Y-96432191D01*
X139005250Y-96411419D01*
X139025133Y-96399545D01*
X139042368Y-96388104D01*
X139049000Y-96382035D01*
X139048825Y-96381405D01*
X139039221Y-96374500D01*
X139016903Y-96363682D01*
X138984609Y-96349998D01*
X138945078Y-96334492D01*
X138901051Y-96318213D01*
X138855267Y-96302207D01*
X138810464Y-96287520D01*
X138769381Y-96275200D01*
X138699737Y-96255586D01*
X138611518Y-96255586D01*
X138606122Y-96246196D01*
X138601750Y-96239476D01*
X138588735Y-96227166D01*
X138568055Y-96217387D01*
X138535289Y-96207737D01*
X138512474Y-96201911D01*
X138465648Y-96190240D01*
X138419529Y-96179070D01*
X138377976Y-96169317D01*
X138344847Y-96161892D01*
X138324000Y-96157710D01*
X138318952Y-96156860D01*
X138297364Y-96153212D01*
X138264383Y-96147633D01*
X138223490Y-96140712D01*
X138178167Y-96133038D01*
X138157111Y-96129513D01*
X138113788Y-96122533D01*
X138076697Y-96116912D01*
X138049232Y-96113156D01*
X138034789Y-96111767D01*
X138030124Y-96112291D01*
X138017411Y-96119658D01*
X138002328Y-96137575D01*
X137982709Y-96168395D01*
X137946804Y-96236687D01*
X137914747Y-96320603D01*
X137892221Y-96412496D01*
X137878183Y-96515833D01*
X137872815Y-96574166D01*
X137767261Y-96574166D01*
X137768084Y-96546544D01*
X137768632Y-96535544D01*
X137778829Y-96428764D01*
X137798102Y-96331600D01*
X137827625Y-96239383D01*
X137868575Y-96147446D01*
X137898844Y-96087392D01*
X137871839Y-96082709D01*
X137867763Y-96082028D01*
X137828661Y-96076970D01*
X137777716Y-96072229D01*
X137719186Y-96068073D01*
X137657330Y-96064771D01*
X137596404Y-96062592D01*
X137540667Y-96061804D01*
X137448248Y-96064269D01*
X137284359Y-96080682D01*
X137117157Y-96112692D01*
X137115674Y-96113041D01*
X137065453Y-96124211D01*
X137029838Y-96130632D01*
X137007547Y-96132489D01*
X136997301Y-96129967D01*
X136993070Y-96124966D01*
X136990757Y-96114609D01*
X136999447Y-96104793D01*
X137020511Y-96094771D01*
X137055321Y-96083796D01*
X137105246Y-96071121D01*
X137126944Y-96066103D01*
X137260544Y-96040997D01*
X137394007Y-96025376D01*
X137423261Y-96024139D01*
X137791786Y-96024139D01*
X137794833Y-96028113D01*
X137804355Y-96030717D01*
X137828621Y-96035148D01*
X137857661Y-96038829D01*
X137874164Y-96040260D01*
X137895666Y-96040038D01*
X137910045Y-96034808D01*
X137923371Y-96023121D01*
X137930927Y-96014416D01*
X137937583Y-96000714D01*
X137931515Y-95995745D01*
X137913571Y-96001392D01*
X137896681Y-96006677D01*
X137868807Y-96012102D01*
X137836500Y-96016294D01*
X137834493Y-96016493D01*
X137804929Y-96020287D01*
X137791786Y-96024139D01*
X137423261Y-96024139D01*
X137521144Y-96020000D01*
X137622952Y-96020000D01*
X137618255Y-95991054D01*
X137617370Y-95984882D01*
X137617793Y-95967353D01*
X137625779Y-95951673D01*
X137644008Y-95931658D01*
X137674458Y-95901208D01*
X137657563Y-95866306D01*
X137656151Y-95863338D01*
X137644665Y-95832791D01*
X137640628Y-95808110D01*
X137644127Y-95792264D01*
X137655250Y-95788224D01*
X137664457Y-95793465D01*
X137672417Y-95809063D01*
X137673249Y-95813675D01*
X137681607Y-95832197D01*
X137694013Y-95839554D01*
X137706785Y-95833160D01*
X137709391Y-95829611D01*
X137710777Y-95818356D01*
X137699558Y-95803890D01*
X137685159Y-95785747D01*
X137684635Y-95774050D01*
X137698528Y-95770000D01*
X137703487Y-95770644D01*
X137720971Y-95781462D01*
X137734950Y-95801012D01*
X137740667Y-95823281D01*
X137740456Y-95826617D01*
X137732717Y-95846344D01*
X137717854Y-95862992D01*
X137701383Y-95870000D01*
X137696468Y-95870992D01*
X137694818Y-95878308D01*
X137695666Y-95879264D01*
X137706730Y-95879497D01*
X137724074Y-95872478D01*
X137742314Y-95861393D01*
X137756064Y-95849429D01*
X137759940Y-95839771D01*
X137760160Y-95836371D01*
X137793184Y-95836371D01*
X137798626Y-95833736D01*
X137812943Y-95825954D01*
X137819194Y-95822205D01*
X137826184Y-95813284D01*
X137820121Y-95800926D01*
X137812706Y-95792537D01*
X137807031Y-95794919D01*
X137800362Y-95811343D01*
X137799734Y-95813155D01*
X137794445Y-95829726D01*
X137793184Y-95836371D01*
X137760160Y-95836371D01*
X137760715Y-95827787D01*
X137768916Y-95810069D01*
X137776075Y-95793274D01*
X137776640Y-95779231D01*
X137839304Y-95779231D01*
X137844134Y-95788547D01*
X137849157Y-95794468D01*
X137857094Y-95797325D01*
X137869696Y-95792412D01*
X137891438Y-95778805D01*
X137901821Y-95771736D01*
X137933190Y-95748442D01*
X137961500Y-95725153D01*
X137994833Y-95695625D01*
X137959003Y-95695312D01*
X137953077Y-95695100D01*
X137922986Y-95690475D01*
X137897629Y-95681790D01*
X137882763Y-95675267D01*
X137868477Y-95675189D01*
X137859405Y-95687629D01*
X137858031Y-95693182D01*
X137852717Y-95714660D01*
X137851227Y-95722953D01*
X137849638Y-95738888D01*
X137854103Y-95743525D01*
X137866652Y-95740651D01*
X137880432Y-95734335D01*
X137893164Y-95723075D01*
X137894071Y-95721650D01*
X137905860Y-95712971D01*
X137918256Y-95713239D01*
X137924000Y-95722573D01*
X137918811Y-95740247D01*
X137899543Y-95757529D01*
X137868363Y-95768015D01*
X137862496Y-95769078D01*
X137844432Y-95773583D01*
X137839304Y-95779231D01*
X137776640Y-95779231D01*
X137776932Y-95771976D01*
X137776237Y-95769503D01*
X137768360Y-95757926D01*
X137752216Y-95758483D01*
X137751376Y-95758690D01*
X137736512Y-95759309D01*
X137732333Y-95749808D01*
X137733853Y-95742787D01*
X137745133Y-95731232D01*
X137751341Y-95728219D01*
X137753288Y-95721268D01*
X137745133Y-95706786D01*
X137740832Y-95698112D01*
X137781307Y-95698112D01*
X137784342Y-95708462D01*
X137796443Y-95727330D01*
X137799886Y-95732402D01*
X137813759Y-95752186D01*
X137820936Y-95759383D01*
X137823644Y-95755023D01*
X137824114Y-95740138D01*
X137825384Y-95719971D01*
X137829253Y-95697083D01*
X137830076Y-95693182D01*
X137826753Y-95680479D01*
X137813126Y-95678538D01*
X137791686Y-95687964D01*
X137786728Y-95691228D01*
X137781307Y-95698112D01*
X137740832Y-95698112D01*
X137736835Y-95690050D01*
X137732333Y-95670293D01*
X137733607Y-95662829D01*
X137742014Y-95654208D01*
X137752371Y-95655683D01*
X137757633Y-95667916D01*
X137758579Y-95674288D01*
X137763971Y-95673841D01*
X137776383Y-95660707D01*
X137796075Y-95643762D01*
X137817750Y-95633465D01*
X137826609Y-95630979D01*
X137835982Y-95624519D01*
X137839886Y-95611133D01*
X137840667Y-95585960D01*
X137841000Y-95583333D01*
X137865667Y-95583333D01*
X137866488Y-95595882D01*
X137874567Y-95618252D01*
X137894000Y-95641666D01*
X137904947Y-95651881D01*
X137927401Y-95666010D01*
X137951694Y-95670000D01*
X137966545Y-95668448D01*
X137998513Y-95654416D01*
X138024610Y-95628490D01*
X138040939Y-95593987D01*
X138045336Y-95572902D01*
X138043335Y-95553890D01*
X138032168Y-95532232D01*
X138007195Y-95498865D01*
X137981846Y-95480163D01*
X137957354Y-95478011D01*
X137933822Y-95492450D01*
X137932654Y-95493649D01*
X137930132Y-95499691D01*
X137939078Y-95502588D01*
X137962070Y-95503333D01*
X137987974Y-95505460D01*
X138009265Y-95515515D01*
X138020311Y-95536176D01*
X138023470Y-95570000D01*
X138021669Y-95596192D01*
X138011899Y-95621470D01*
X137991391Y-95636169D01*
X137957624Y-95643088D01*
X137951822Y-95643621D01*
X137929182Y-95644524D01*
X137918407Y-95641460D01*
X137915667Y-95633560D01*
X137918937Y-95625061D01*
X137934417Y-95619886D01*
X137963087Y-95616646D01*
X137987341Y-95603795D01*
X137998121Y-95581141D01*
X137995451Y-95548660D01*
X137992077Y-95538497D01*
X137982662Y-95530188D01*
X137963298Y-95529910D01*
X137957318Y-95530636D01*
X137940303Y-95537035D01*
X137933837Y-95551250D01*
X137929342Y-95562906D01*
X137918157Y-95570000D01*
X137911100Y-95567829D01*
X137907993Y-95557344D01*
X137909826Y-95534583D01*
X137910946Y-95525870D01*
X137912241Y-95509683D01*
X137909740Y-95506930D01*
X137902590Y-95515342D01*
X137895302Y-95527521D01*
X137890667Y-95542426D01*
X137889233Y-95547483D01*
X137878167Y-95553333D01*
X137876461Y-95553454D01*
X137868224Y-95561433D01*
X137865667Y-95583333D01*
X137841000Y-95583333D01*
X137845888Y-95544815D01*
X137864273Y-95503723D01*
X137894330Y-95472373D01*
X137934416Y-95453098D01*
X137965665Y-95444358D01*
X137917042Y-95371762D01*
X137874982Y-95307193D01*
X137772233Y-95131314D01*
X137683861Y-94950597D01*
X137609351Y-94763655D01*
X137548187Y-94569104D01*
X137499855Y-94365557D01*
X137463840Y-94151627D01*
X137463437Y-94148592D01*
X137459360Y-94105456D01*
X137456241Y-94048880D01*
X137454063Y-93981803D01*
X137452808Y-93907166D01*
X137452457Y-93827909D01*
X137452993Y-93746972D01*
X137454397Y-93667296D01*
X137456652Y-93591820D01*
X137459739Y-93523486D01*
X137463640Y-93465232D01*
X137468337Y-93420000D01*
X137493036Y-93261092D01*
X137535934Y-93052895D01*
X137589285Y-92854607D01*
X137652730Y-92667517D01*
X137725912Y-92492916D01*
X137759751Y-92420000D01*
X137888136Y-92420000D01*
X137847610Y-92498597D01*
X137804501Y-92588538D01*
X137750053Y-92722166D01*
X137700721Y-92867032D01*
X137657300Y-93020258D01*
X137620585Y-93178967D01*
X137591371Y-93340282D01*
X137570454Y-93501326D01*
X137567441Y-93534480D01*
X137562894Y-93605227D01*
X137559722Y-93684542D01*
X137557960Y-93768230D01*
X137557643Y-93852100D01*
X137558807Y-93931958D01*
X137561486Y-94003611D01*
X137565717Y-94062867D01*
X137569097Y-94095442D01*
X137591802Y-94257051D01*
X137623999Y-94419782D01*
X137664457Y-94578052D01*
X137711946Y-94726280D01*
X137721031Y-94750681D01*
X137747273Y-94814890D01*
X137779532Y-94887545D01*
X137815863Y-94964681D01*
X137854324Y-95042331D01*
X137892970Y-95116527D01*
X137929857Y-95183304D01*
X137963042Y-95238694D01*
X137968848Y-95247783D01*
X137994602Y-95286959D01*
X138022804Y-95328366D01*
X138051780Y-95369707D01*
X138079857Y-95408685D01*
X138105361Y-95443001D01*
X138126619Y-95470357D01*
X138141957Y-95488456D01*
X138149702Y-95495000D01*
X138151746Y-95495949D01*
X138161268Y-95506634D01*
X138173608Y-95525373D01*
X138185271Y-95552217D01*
X138188083Y-95572902D01*
X138189431Y-95582815D01*
X138183587Y-95608396D01*
X138167984Y-95624627D01*
X138164805Y-95626735D01*
X138150819Y-95642455D01*
X138133502Y-95668758D01*
X138118818Y-95695625D01*
X138115334Y-95701999D01*
X138101930Y-95727608D01*
G37*
G36*
X139752451Y-97055086D02*
G01*
X139742838Y-97135460D01*
X139735416Y-97183902D01*
X139718661Y-97246498D01*
X139694551Y-97295752D01*
X139662065Y-97333079D01*
X139620182Y-97359890D01*
X139567880Y-97377599D01*
X139548935Y-97380874D01*
X139516219Y-97384208D01*
X139481809Y-97385829D01*
X139452656Y-97385666D01*
X139432608Y-97382891D01*
X139418317Y-97375799D01*
X139404182Y-97362726D01*
X139382740Y-97332234D01*
X139364206Y-97283579D01*
X139352854Y-97221900D01*
X139349087Y-97150088D01*
X139428585Y-97150088D01*
X139429433Y-97189651D01*
X139432293Y-97222502D01*
X139437907Y-97248299D01*
X139447039Y-97272083D01*
X139459099Y-97295305D01*
X139470722Y-97307799D01*
X139484121Y-97310699D01*
X139497901Y-97309892D01*
X139514683Y-97307107D01*
X139524872Y-97299890D01*
X139530114Y-97285181D01*
X139532053Y-97259922D01*
X139532333Y-97221055D01*
X139532334Y-97220626D01*
X139533210Y-97177572D01*
X139536447Y-97148543D01*
X139542997Y-97130978D01*
X139553809Y-97122317D01*
X139569833Y-97120000D01*
X139577133Y-97120385D01*
X139592056Y-97125989D01*
X139601304Y-97140308D01*
X139606016Y-97165943D01*
X139607333Y-97205491D01*
X139608327Y-97240250D01*
X139611744Y-97260260D01*
X139618039Y-97264240D01*
X139627665Y-97252457D01*
X139641075Y-97225174D01*
X139647326Y-97208187D01*
X139655615Y-97177326D01*
X139662862Y-97141841D01*
X139668448Y-97105885D01*
X139671758Y-97073614D01*
X139672173Y-97049182D01*
X139669076Y-97036742D01*
X139667423Y-97035420D01*
X139650919Y-97028309D01*
X139622911Y-97020351D01*
X139587535Y-97012600D01*
X139548923Y-97006111D01*
X139534057Y-97005089D01*
X139513090Y-97010098D01*
X139489386Y-97025566D01*
X139481511Y-97031616D01*
X139459716Y-97047614D01*
X139443629Y-97058421D01*
X139438712Y-97062107D01*
X139433279Y-97070866D01*
X139430147Y-97086212D01*
X139428766Y-97111501D01*
X139428585Y-97150088D01*
X139349087Y-97150088D01*
X139349000Y-97148424D01*
X139349000Y-97061666D01*
X139324290Y-97061666D01*
X139313204Y-97060354D01*
X139281502Y-97048169D01*
X139240966Y-97023651D01*
X139192580Y-96987355D01*
X139185575Y-96981432D01*
X139163528Y-96955985D01*
X139157388Y-96933108D01*
X139167333Y-96913333D01*
X139167442Y-96913225D01*
X139183838Y-96904459D01*
X139205863Y-96906647D01*
X139235283Y-96920332D01*
X139273867Y-96946056D01*
X139296665Y-96962438D01*
X139318855Y-96976711D01*
X139335922Y-96984001D01*
X139352494Y-96986115D01*
X139373197Y-96984860D01*
X139375210Y-96984657D01*
X139412753Y-96975547D01*
X139445885Y-96954637D01*
X139463759Y-96941087D01*
X139481098Y-96932761D01*
X139502553Y-96929130D01*
X139534385Y-96928333D01*
X139566608Y-96930156D01*
X139612198Y-96936515D01*
X139655403Y-96946057D01*
X139703706Y-96959039D01*
X139739638Y-96967639D01*
X139766341Y-96972175D01*
X139787183Y-96973028D01*
X139805532Y-96970580D01*
X139824759Y-96965210D01*
X139835359Y-96961411D01*
X139861969Y-96948946D01*
X139881054Y-96936069D01*
X139882351Y-96934822D01*
X139900085Y-96912003D01*
X139918553Y-96880033D01*
X139934419Y-96845333D01*
X139944342Y-96814325D01*
X139951738Y-96792847D01*
X139961532Y-96778307D01*
X139966704Y-96775052D01*
X139988044Y-96771239D01*
X140010878Y-96775902D01*
X140026683Y-96787797D01*
X140029682Y-96799877D01*
X140026516Y-96826314D01*
X140015810Y-96861387D01*
X139998545Y-96902063D01*
X139975703Y-96945309D01*
X139962859Y-96966413D01*
X139944842Y-96990122D01*
X139924473Y-97007345D01*
X139896294Y-97023451D01*
X139857179Y-97039901D01*
X139812101Y-97049182D01*
X139800196Y-97051633D01*
X139752451Y-97055086D01*
G37*
G36*
X139810356Y-96515982D02*
G01*
X139779670Y-96557232D01*
X139744710Y-96594642D01*
X139711500Y-96620988D01*
X139709160Y-96622370D01*
X139681946Y-96632528D01*
X139651733Y-96636635D01*
X139641905Y-96636434D01*
X139622721Y-96632966D01*
X139606557Y-96622557D01*
X139587150Y-96601833D01*
X139575603Y-96587379D01*
X139562453Y-96567552D01*
X139557333Y-96554703D01*
X139556911Y-96551686D01*
X139549737Y-96535266D01*
X139536500Y-96515092D01*
X139531897Y-96508898D01*
X139520308Y-96491459D01*
X139515667Y-96481324D01*
X139513306Y-96476442D01*
X139502056Y-96462050D01*
X139484662Y-96443117D01*
X139482502Y-96440833D01*
X139589690Y-96440833D01*
X139623512Y-96486088D01*
X139640274Y-96509971D01*
X139652618Y-96530446D01*
X139657333Y-96542338D01*
X139657850Y-96546675D01*
X139663583Y-96553020D01*
X139664248Y-96552936D01*
X139676160Y-96546350D01*
X139693650Y-96532394D01*
X139711991Y-96515414D01*
X139726461Y-96499757D01*
X139732334Y-96489770D01*
X139734300Y-96483094D01*
X139744833Y-96470000D01*
X139751495Y-96462842D01*
X139757333Y-96449106D01*
X139757117Y-96447848D01*
X139747176Y-96440928D01*
X139725374Y-96435750D01*
X139695807Y-96432762D01*
X139662571Y-96432412D01*
X139629762Y-96435149D01*
X139589690Y-96440833D01*
X139482502Y-96440833D01*
X139467818Y-96425304D01*
X139459624Y-96412892D01*
X139460046Y-96402370D01*
X139467466Y-96388599D01*
X139473682Y-96379381D01*
X139482590Y-96371680D01*
X139496469Y-96366995D01*
X139519214Y-96364135D01*
X139554721Y-96361908D01*
X139565957Y-96361362D01*
X139612687Y-96359811D01*
X139664172Y-96358943D01*
X139711163Y-96358932D01*
X139718481Y-96359019D01*
X139754299Y-96359802D01*
X139777879Y-96361636D01*
X139793028Y-96365384D01*
X139803548Y-96371909D01*
X139813246Y-96382072D01*
X139826137Y-96403621D01*
X139833053Y-96439402D01*
X139831735Y-96449106D01*
X139827760Y-96478386D01*
X139810356Y-96515982D01*
G37*
G36*
X138543479Y-93837696D02*
G01*
X138541655Y-93909611D01*
X138539362Y-93977008D01*
X138536611Y-94037927D01*
X138533412Y-94090411D01*
X138529775Y-94132500D01*
X138508852Y-94312394D01*
X138477024Y-94538684D01*
X138438838Y-94764155D01*
X138393438Y-94993772D01*
X138339968Y-95232500D01*
X138331097Y-95269449D01*
X138319846Y-95314541D01*
X138309780Y-95352975D01*
X138301740Y-95381555D01*
X138296570Y-95397083D01*
X138285899Y-95412699D01*
X138271003Y-95420000D01*
X138253395Y-95412891D01*
X138229756Y-95392365D01*
X138201452Y-95360117D01*
X138169684Y-95317846D01*
X138135655Y-95267251D01*
X138100567Y-95210029D01*
X138065624Y-95147879D01*
X138032026Y-95082500D01*
X137963372Y-94924231D01*
X137908410Y-94757010D01*
X137868690Y-94584964D01*
X137844220Y-94409078D01*
X137835008Y-94230338D01*
X137838167Y-94136084D01*
X137878042Y-94136084D01*
X137878809Y-94313009D01*
X137895522Y-94486666D01*
X137907680Y-94560579D01*
X137940758Y-94708111D01*
X137984546Y-94852423D01*
X138037927Y-94990456D01*
X138099785Y-95119152D01*
X138169003Y-95235453D01*
X138187967Y-95263619D01*
X138210708Y-95296519D01*
X138229971Y-95323453D01*
X138242940Y-95340425D01*
X138263436Y-95365016D01*
X138298305Y-95220883D01*
X138321819Y-95120816D01*
X138371668Y-94886757D01*
X138414991Y-94650905D01*
X138451155Y-94417205D01*
X138479524Y-94189600D01*
X138499461Y-93972037D01*
X138500840Y-93951149D01*
X138503655Y-93888864D01*
X138505408Y-93817199D01*
X138506147Y-93739048D01*
X138505923Y-93657301D01*
X138504785Y-93574854D01*
X138502783Y-93494597D01*
X138499967Y-93419425D01*
X138496386Y-93352229D01*
X138492090Y-93295903D01*
X138487128Y-93253340D01*
X138477073Y-93192345D01*
X138456166Y-93091426D01*
X138432338Y-93006248D01*
X138405659Y-92937047D01*
X138376199Y-92884056D01*
X138375580Y-92883159D01*
X138360513Y-92863978D01*
X138348011Y-92856468D01*
X138333145Y-92857597D01*
X138332983Y-92857638D01*
X138313964Y-92867548D01*
X138291851Y-92885989D01*
X138270849Y-92908465D01*
X138255163Y-92930481D01*
X138249000Y-92947541D01*
X138248804Y-92949286D01*
X138243287Y-92965127D01*
X138231323Y-92991483D01*
X138214445Y-93025127D01*
X138194185Y-93062835D01*
X138106776Y-93234059D01*
X138030652Y-93413773D01*
X137969527Y-93594736D01*
X137923591Y-93776044D01*
X137893032Y-93956795D01*
X137878042Y-94136084D01*
X137838167Y-94136084D01*
X137841061Y-94049730D01*
X137862387Y-93868239D01*
X137898994Y-93686853D01*
X137950890Y-93506555D01*
X138018083Y-93328333D01*
X138029877Y-93300471D01*
X138047327Y-93259269D01*
X138063016Y-93222251D01*
X138074577Y-93195000D01*
X138083616Y-93174388D01*
X138093134Y-93154350D01*
X138098605Y-93144962D01*
X138098913Y-93144632D01*
X138105416Y-93134276D01*
X138116942Y-93113584D01*
X138131213Y-93086629D01*
X138145558Y-93059483D01*
X138176556Y-93003647D01*
X138210284Y-92945984D01*
X138245526Y-92888308D01*
X138281068Y-92832434D01*
X138315695Y-92780178D01*
X138348190Y-92733353D01*
X138377338Y-92693774D01*
X138401925Y-92663257D01*
X138420734Y-92643616D01*
X138432551Y-92636666D01*
X138442643Y-92638611D01*
X138448252Y-92648642D01*
X138443105Y-92667995D01*
X138426916Y-92697548D01*
X138399398Y-92738176D01*
X138381634Y-92763311D01*
X138366390Y-92786496D01*
X138359251Y-92800836D01*
X138359060Y-92808817D01*
X138364661Y-92812925D01*
X138379065Y-92822153D01*
X138400169Y-92843447D01*
X138421758Y-92871657D01*
X138440104Y-92902362D01*
X138445174Y-92913134D01*
X138458484Y-92947415D01*
X138472458Y-92990402D01*
X138486373Y-93039023D01*
X138499507Y-93090206D01*
X138511139Y-93140882D01*
X138520546Y-93187979D01*
X138527006Y-93228426D01*
X138529798Y-93259151D01*
X138528200Y-93277085D01*
X138527476Y-93285562D01*
X138534273Y-93301500D01*
X138537025Y-93310336D01*
X138539902Y-93334771D01*
X138542214Y-93372316D01*
X138543972Y-93421013D01*
X138545186Y-93478904D01*
X138545868Y-93544029D01*
X138546028Y-93614429D01*
X138545676Y-93688146D01*
X138545097Y-93739048D01*
X138544822Y-93763222D01*
X138543479Y-93837696D01*
G37*
G36*
X140221780Y-94473498D02*
G01*
X140273273Y-94478855D01*
X140314039Y-94488751D01*
X140361744Y-94511393D01*
X140414972Y-94552854D01*
X140459424Y-94607912D01*
X140494426Y-94675865D01*
X140496716Y-94681751D01*
X140508590Y-94717866D01*
X140521587Y-94764706D01*
X140534591Y-94817529D01*
X140546483Y-94871594D01*
X140556146Y-94922162D01*
X140562462Y-94964491D01*
X140562922Y-94968443D01*
X140565434Y-94993825D01*
X140564621Y-95006801D01*
X140559357Y-95011068D01*
X140548519Y-95010324D01*
X140540940Y-95008308D01*
X140534445Y-95002792D01*
X140528725Y-94991266D01*
X140522847Y-94971132D01*
X140515875Y-94939792D01*
X140506874Y-94894649D01*
X140502517Y-94872817D01*
X140483595Y-94789653D01*
X140463349Y-94721006D01*
X140440820Y-94665138D01*
X140415051Y-94620308D01*
X140385084Y-94584777D01*
X140349962Y-94556805D01*
X140308728Y-94534653D01*
X140265418Y-94521352D01*
X140210285Y-94514472D01*
X140150282Y-94515050D01*
X140090667Y-94523359D01*
X140080224Y-94525560D01*
X140040764Y-94533158D01*
X140014570Y-94536322D01*
X139999300Y-94534922D01*
X139992614Y-94528830D01*
X139992171Y-94517916D01*
X139992507Y-94515914D01*
X139996764Y-94506560D01*
X140007461Y-94499262D01*
X140027929Y-94492408D01*
X140061500Y-94484388D01*
X140107963Y-94476768D01*
X140164898Y-94472772D01*
X140221780Y-94473498D01*
G37*
G36*
X139091847Y-94440152D02*
G01*
X139129000Y-94447844D01*
X139163191Y-94457367D01*
X139197749Y-94471281D01*
X139217631Y-94486440D01*
X139224000Y-94503525D01*
X139222287Y-94512714D01*
X139211830Y-94519186D01*
X139190780Y-94515440D01*
X139157881Y-94501436D01*
X139153351Y-94499283D01*
X139126337Y-94489417D01*
X139095962Y-94484475D01*
X139055676Y-94483292D01*
X139054274Y-94483302D01*
X139019063Y-94484550D01*
X138991644Y-94488870D01*
X138964640Y-94498070D01*
X138930676Y-94513961D01*
X138894233Y-94533292D01*
X138848062Y-94563670D01*
X138808835Y-94598930D01*
X138770803Y-94643739D01*
X138756043Y-94664490D01*
X138736834Y-94694308D01*
X138716593Y-94727850D01*
X138697339Y-94761574D01*
X138681088Y-94791936D01*
X138669858Y-94815392D01*
X138665667Y-94828400D01*
X138665453Y-94830055D01*
X138661149Y-94843982D01*
X138653055Y-94864815D01*
X138639867Y-94887111D01*
X138623888Y-94895000D01*
X138617503Y-94894063D01*
X138609102Y-94884783D01*
X138609191Y-94864906D01*
X138617963Y-94833618D01*
X138635612Y-94790106D01*
X138662333Y-94733554D01*
X138685348Y-94690677D01*
X138738069Y-94613389D01*
X138798357Y-94549165D01*
X138865246Y-94498802D01*
X138937768Y-94463097D01*
X139014959Y-94442845D01*
X139024947Y-94441365D01*
X139060396Y-94438135D01*
X139091847Y-94440152D01*
G37*
%TD*%
M02*
