%TF.GenerationSoftware,KiCad,Pcbnew,6.0.1+dfsg-1*%
%TF.CreationDate,2022-09-02T19:09:09-04:00*%
%TF.ProjectId,CH340-testing,43483334-302d-4746-9573-74696e672e6b,rev?*%
%TF.SameCoordinates,Original*%
%TF.FileFunction,Paste,Top*%
%TF.FilePolarity,Positive*%
%FSLAX46Y46*%
G04 Gerber Fmt 4.6, Leading zero omitted, Abs format (unit mm)*
G04 Created by KiCad (PCBNEW 6.0.1+dfsg-1) date 2022-09-02 19:09:09*
%MOMM*%
%LPD*%
G01*
G04 APERTURE LIST*
G04 Aperture macros list*
%AMRoundRect*
0 Rectangle with rounded corners*
0 $1 Rounding radius*
0 $2 $3 $4 $5 $6 $7 $8 $9 X,Y pos of 4 corners*
0 Add a 4 corners polygon primitive as box body*
4,1,4,$2,$3,$4,$5,$6,$7,$8,$9,$2,$3,0*
0 Add four circle primitives for the rounded corners*
1,1,$1+$1,$2,$3*
1,1,$1+$1,$4,$5*
1,1,$1+$1,$6,$7*
1,1,$1+$1,$8,$9*
0 Add four rect primitives between the rounded corners*
20,1,$1+$1,$2,$3,$4,$5,0*
20,1,$1+$1,$4,$5,$6,$7,0*
20,1,$1+$1,$6,$7,$8,$9,0*
20,1,$1+$1,$8,$9,$2,$3,0*%
G04 Aperture macros list end*
%ADD10RoundRect,0.237500X0.300000X0.237500X-0.300000X0.237500X-0.300000X-0.237500X0.300000X-0.237500X0*%
%ADD11RoundRect,0.250000X-0.875000X-0.925000X0.875000X-0.925000X0.875000X0.925000X-0.875000X0.925000X0*%
%ADD12R,0.600000X1.200000*%
%ADD13RoundRect,0.250000X0.450000X-0.350000X0.450000X0.350000X-0.450000X0.350000X-0.450000X-0.350000X0*%
%ADD14R,2.400000X2.000000*%
%ADD15R,0.800000X1.900000*%
%ADD16O,0.890000X1.550000*%
%ADD17O,1.250000X0.950000*%
%ADD18R,0.400000X2.350000*%
%ADD19R,3.200000X1.550000*%
%ADD20RoundRect,0.237500X0.237500X-0.300000X0.237500X0.300000X-0.237500X0.300000X-0.237500X-0.300000X0*%
%ADD21RoundRect,0.150000X-0.150000X0.825000X-0.150000X-0.825000X0.150000X-0.825000X0.150000X0.825000X0*%
%ADD22R,1.500000X2.000000*%
%ADD23R,3.800000X2.000000*%
G04 APERTURE END LIST*
D10*
%TO.C,C2*%
X139686500Y-124892000D03*
X137961500Y-124892000D03*
%TD*%
D11*
%TO.C,C5*%
X159642000Y-119812000D03*
X164742000Y-119812000D03*
%TD*%
D12*
%TO.C,SW1*%
X162129194Y-105054000D03*
X162129194Y-108154000D03*
X163829194Y-105054000D03*
X163829194Y-108154000D03*
%TD*%
D13*
%TO.C,R2*%
X143650000Y-117256000D03*
X143650000Y-115256000D03*
%TD*%
D14*
%TO.C,Y1*%
X142380000Y-129027999D03*
X142380000Y-125327999D03*
%TD*%
D15*
%TO.C,Q1*%
X151590000Y-119280000D03*
X153490000Y-119280000D03*
X152540000Y-116280000D03*
%TD*%
D16*
%TO.C,J2*%
X153500000Y-140416000D03*
X146500000Y-140416000D03*
D17*
X147500000Y-137716000D03*
X152500000Y-137716000D03*
D18*
X148700000Y-137216000D03*
X149350000Y-137216000D03*
X150000000Y-137216000D03*
X150650000Y-137216000D03*
X151300000Y-137216000D03*
D19*
X153500000Y-137316000D03*
X146100000Y-140416000D03*
X146500000Y-137316000D03*
X153900000Y-140416000D03*
%TD*%
D20*
%TO.C,C4*%
X156604000Y-128802500D03*
X156604000Y-127077500D03*
%TD*%
D21*
%TO.C,U1*%
X154445000Y-125465000D03*
X153175000Y-125465000D03*
X151905000Y-125465000D03*
X150635000Y-125465000D03*
X149365000Y-125465000D03*
X148095000Y-125465000D03*
X146825000Y-125465000D03*
X145555000Y-125465000D03*
X145555000Y-130415000D03*
X146825000Y-130415000D03*
X148095000Y-130415000D03*
X149365000Y-130415000D03*
X150635000Y-130415000D03*
X151905000Y-130415000D03*
X153175000Y-130415000D03*
X154445000Y-130415000D03*
%TD*%
D15*
%TO.C,Q2*%
X146510000Y-119280000D03*
X148410000Y-119280000D03*
X147460000Y-116280000D03*
%TD*%
D10*
%TO.C,C1*%
X139686500Y-129464000D03*
X137961500Y-129464000D03*
%TD*%
D22*
%TO.C,U2*%
X159511000Y-130582000D03*
X161811000Y-130582000D03*
D23*
X161811000Y-124282000D03*
D22*
X164111000Y-130582000D03*
%TD*%
D10*
%TO.C,C3*%
X150460000Y-122860000D03*
X148735000Y-122860000D03*
%TD*%
D13*
%TO.C,R1*%
X156350000Y-117256000D03*
X156350000Y-115256000D03*
%TD*%
M02*
