M48
; DRILL file {KiCad 6.0.1+dfsg-1} date Fri 02 Sep 2022 07:09:14 PM
; FORMAT={-:-/ absolute / inch / decimal}
; #@! TF.CreationDate,2022-09-02T19:09:14-04:00
; #@! TF.GenerationSoftware,Kicad,Pcbnew,6.0.1+dfsg-1
; #@! TF.FileFunction,Plated,1,2,PTH
FMAT,2
INCH
; #@! TA.AperFunction,Plated,PTH,ViaDrill
T1C0.0118
; #@! TA.AperFunction,Plated,PTH,ViaDrill
T2C0.0157
; #@! TA.AperFunction,Plated,PTH,ComponentDrill
T3C0.0197
; #@! TA.AperFunction,Plated,PTH,ComponentDrill
T4C0.0217
; #@! TA.AperFunction,Plated,PTH,ComponentDrill
T5C0.0236
; #@! TA.AperFunction,Plated,PTH,ComponentDrill
T6C0.0256
; #@! TA.AperFunction,Plated,PTH,ComponentDrill
T7C0.0394
%
G90
G05
T1
X5.8799Y-5.417
X5.9055Y-5.417
T2
X5.4255Y-5.007
X5.8055Y-4.577
X5.8305Y-4.977
X5.8497Y-4.837
X5.8805Y-4.977
X5.9055Y-4.6961
X5.9055Y-5.077
X5.9255Y-4.637
X5.9655Y-5.077
X5.9805Y-4.917
X6.0055Y-5.017
X6.0255Y-4.817
X6.1255Y-4.957
X6.2705Y-5.137
X6.4565Y-4.157
X6.4565Y-4.237
X6.4655Y-4.717
T5
X5.5305Y-3.8976
X5.5305Y-3.9976
X5.5305Y-4.0976
X5.6555Y-4.4047
X5.7555Y-4.4047
X5.8555Y-4.4047
X5.9555Y-4.4047
X6.0555Y-4.4047
X6.1555Y-4.4047
X6.2776Y-3.8976
X6.2805Y-3.9976
X6.2805Y-4.0976
T6
X5.6555Y-4.2807
X6.1555Y-4.2807
T7
X5.6555Y-5.257
X5.7555Y-5.257
X5.8555Y-5.257
X5.8661Y-5.5282
X5.9449Y-5.5282
X5.9555Y-5.257
X6.0555Y-5.257
X6.1555Y-5.257
T3
G00X5.7677Y-5.5154
M15
G01X5.7677Y-5.541
M16
G05
G00X6.0433Y-5.5154
M15
G01X6.0433Y-5.541
M16
G05
T4
G00X5.8012Y-5.4219
M15
G01X5.813Y-5.4219
M16
G05
G00X5.998Y-5.4219
M15
G01X6.0098Y-5.4219
M16
G05
T6
G00X5.5709Y-3.8976
M15
G01X5.6122Y-3.8976
M16
G05
G00X5.5709Y-3.9976
M15
G01X5.6122Y-3.9976
M16
G05
G00X5.5709Y-4.0976
M15
G01X5.6122Y-4.0976
M16
G05
G00X5.6555Y-4.3644
M15
G01X5.6555Y-4.323
M16
G05
G00X5.7555Y-4.3644
M15
G01X5.7555Y-4.323
M16
G05
G00X5.8555Y-4.3644
M15
G01X5.8555Y-4.323
M16
G05
G00X5.9555Y-4.3644
M15
G01X5.9555Y-4.323
M16
G05
G00X6.0555Y-4.3644
M15
G01X6.0555Y-4.323
M16
G05
G00X6.1555Y-4.3644
M15
G01X6.1555Y-4.323
M16
G05
G00X6.2372Y-3.8976
M15
G01X6.1959Y-3.8976
M16
G05
G00X6.2402Y-3.9976
M15
G01X6.1988Y-3.9976
M16
G05
G00X6.2402Y-4.0976
M15
G01X6.1988Y-4.0976
M16
G05
T0
M30
