%TF.GenerationSoftware,KiCad,Pcbnew,6.0.1+dfsg-1*%
%TF.CreationDate,2022-09-02T19:09:08-04:00*%
%TF.ProjectId,CH340-testing,43483334-302d-4746-9573-74696e672e6b,rev?*%
%TF.SameCoordinates,Original*%
%TF.FileFunction,Copper,L1,Top*%
%TF.FilePolarity,Positive*%
%FSLAX46Y46*%
G04 Gerber Fmt 4.6, Leading zero omitted, Abs format (unit mm)*
G04 Created by KiCad (PCBNEW 6.0.1+dfsg-1) date 2022-09-02 19:09:08*
%MOMM*%
%LPD*%
G01*
G04 APERTURE LIST*
G04 Aperture macros list*
%AMRoundRect*
0 Rectangle with rounded corners*
0 $1 Rounding radius*
0 $2 $3 $4 $5 $6 $7 $8 $9 X,Y pos of 4 corners*
0 Add a 4 corners polygon primitive as box body*
4,1,4,$2,$3,$4,$5,$6,$7,$8,$9,$2,$3,0*
0 Add four circle primitives for the rounded corners*
1,1,$1+$1,$2,$3*
1,1,$1+$1,$4,$5*
1,1,$1+$1,$6,$7*
1,1,$1+$1,$8,$9*
0 Add four rect primitives between the rounded corners*
20,1,$1+$1,$2,$3,$4,$5,0*
20,1,$1+$1,$4,$5,$6,$7,0*
20,1,$1+$1,$6,$7,$8,$9,0*
20,1,$1+$1,$8,$9,$2,$3,0*%
G04 Aperture macros list end*
%TA.AperFunction,SMDPad,CuDef*%
%ADD10RoundRect,0.237500X0.300000X0.237500X-0.300000X0.237500X-0.300000X-0.237500X0.300000X-0.237500X0*%
%TD*%
%TA.AperFunction,SMDPad,CuDef*%
%ADD11RoundRect,0.250000X-0.875000X-0.925000X0.875000X-0.925000X0.875000X0.925000X-0.875000X0.925000X0*%
%TD*%
%TA.AperFunction,SMDPad,CuDef*%
%ADD12R,0.600000X1.200000*%
%TD*%
%TA.AperFunction,SMDPad,CuDef*%
%ADD13RoundRect,0.250000X0.450000X-0.350000X0.450000X0.350000X-0.450000X0.350000X-0.450000X-0.350000X0*%
%TD*%
%TA.AperFunction,SMDPad,CuDef*%
%ADD14R,2.400000X2.000000*%
%TD*%
%TA.AperFunction,SMDPad,CuDef*%
%ADD15R,0.800000X1.900000*%
%TD*%
%TA.AperFunction,SMDPad,CuDef*%
%ADD16R,0.400000X2.350000*%
%TD*%
%TA.AperFunction,ComponentPad*%
%ADD17O,0.890000X1.550000*%
%TD*%
%TA.AperFunction,ComponentPad*%
%ADD18O,1.250000X0.950000*%
%TD*%
%TA.AperFunction,SMDPad,CuDef*%
%ADD19R,3.200000X1.550000*%
%TD*%
%TA.AperFunction,ComponentPad*%
%ADD20R,1.500000X1.550000*%
%TD*%
%TA.AperFunction,SMDPad,CuDef*%
%ADD21RoundRect,0.237500X0.237500X-0.300000X0.237500X0.300000X-0.237500X0.300000X-0.237500X-0.300000X0*%
%TD*%
%TA.AperFunction,SMDPad,CuDef*%
%ADD22RoundRect,0.150000X-0.150000X0.825000X-0.150000X-0.825000X0.150000X-0.825000X0.150000X0.825000X0*%
%TD*%
%TA.AperFunction,ComponentPad*%
%ADD23R,1.700000X1.700000*%
%TD*%
%TA.AperFunction,ComponentPad*%
%ADD24O,1.700000X1.700000*%
%TD*%
%TA.AperFunction,SMDPad,CuDef*%
%ADD25R,1.500000X2.000000*%
%TD*%
%TA.AperFunction,SMDPad,CuDef*%
%ADD26R,3.800000X2.000000*%
%TD*%
%TA.AperFunction,ComponentPad*%
%ADD27O,0.950000X2.000000*%
%TD*%
%TA.AperFunction,ComponentPad*%
%ADD28O,2.000000X0.950000*%
%TD*%
%TA.AperFunction,ComponentPad*%
%ADD29R,1.300000X0.900000*%
%TD*%
%TA.AperFunction,ComponentPad*%
%ADD30R,0.900000X1.300000*%
%TD*%
%TA.AperFunction,ComponentPad*%
%ADD31O,1.000000X1.000000*%
%TD*%
%TA.AperFunction,ViaPad*%
%ADD32C,0.800000*%
%TD*%
%TA.AperFunction,ViaPad*%
%ADD33C,0.400000*%
%TD*%
%TA.AperFunction,Conductor*%
%ADD34C,0.250000*%
%TD*%
G04 APERTURE END LIST*
D10*
%TO.P,C2,1*%
%TO.N,Net-(C2-Pad1)*%
X139686500Y-124892000D03*
%TO.P,C2,2*%
%TO.N,GND*%
X137961500Y-124892000D03*
%TD*%
D11*
%TO.P,C5,1*%
%TO.N,+3V3*%
X159642000Y-119812000D03*
%TO.P,C5,2*%
%TO.N,GND*%
X164742000Y-119812000D03*
%TD*%
D12*
%TO.P,SW1,1,1*%
%TO.N,RST*%
X162129194Y-105054000D03*
X162129194Y-108154000D03*
%TO.P,SW1,2,2*%
%TO.N,GND*%
X163829194Y-105054000D03*
X163829194Y-108154000D03*
%TD*%
D13*
%TO.P,R2,1*%
%TO.N,+3V3*%
X143650000Y-117256000D03*
%TO.P,R2,2*%
%TO.N,EN*%
X143650000Y-115256000D03*
%TD*%
D14*
%TO.P,Y1,1,1*%
%TO.N,Net-(C1-Pad1)*%
X142380000Y-129027999D03*
%TO.P,Y1,2,2*%
%TO.N,Net-(C2-Pad1)*%
X142380000Y-125327999D03*
%TD*%
D15*
%TO.P,Q1,1,B*%
%TO.N,DTR*%
X151590000Y-119280000D03*
%TO.P,Q1,2,E*%
%TO.N,RTS*%
X153490000Y-119280000D03*
%TO.P,Q1,3,C*%
%TO.N,RST*%
X152540000Y-116280000D03*
%TD*%
D16*
%TO.P,J2,1,VBUS*%
%TO.N,Vcc*%
X148700000Y-137216000D03*
%TO.P,J2,2,D-*%
%TO.N,UD-*%
X149350000Y-137216000D03*
%TO.P,J2,3,D+*%
%TO.N,UD+*%
X150000000Y-137216000D03*
%TO.P,J2,4,ID*%
%TO.N,unconnected-(J2-Pad4)*%
X150650000Y-137216000D03*
%TO.P,J2,5,GND*%
%TO.N,GND*%
X151300000Y-137216000D03*
D17*
%TO.P,J2,6,Shield*%
X146500000Y-140416000D03*
D18*
X152500000Y-137716000D03*
D19*
X153500000Y-137316000D03*
D17*
X153500000Y-140416000D03*
D20*
X149000000Y-140416000D03*
D19*
X146100000Y-140416000D03*
X146500000Y-137316000D03*
X153900000Y-140416000D03*
D20*
X151000000Y-140416000D03*
D18*
X147500000Y-137716000D03*
%TD*%
D21*
%TO.P,C4,1*%
%TO.N,Vcc*%
X156604000Y-128802500D03*
%TO.P,C4,2*%
%TO.N,GND*%
X156604000Y-127077500D03*
%TD*%
D22*
%TO.P,U1,1,GND*%
%TO.N,GND*%
X154445000Y-125465000D03*
%TO.P,U1,2,TXD*%
%TO.N,RxD*%
X153175000Y-125465000D03*
%TO.P,U1,3,RXD*%
%TO.N,TxD*%
X151905000Y-125465000D03*
%TO.P,U1,4,V3*%
%TO.N,+3V3*%
X150635000Y-125465000D03*
%TO.P,U1,5,UD+*%
%TO.N,UD+*%
X149365000Y-125465000D03*
%TO.P,U1,6,UD-*%
%TO.N,UD-*%
X148095000Y-125465000D03*
%TO.P,U1,7,XI*%
%TO.N,Net-(C1-Pad1)*%
X146825000Y-125465000D03*
%TO.P,U1,8,XO*%
%TO.N,Net-(C2-Pad1)*%
X145555000Y-125465000D03*
%TO.P,U1,9,~{CTS}*%
%TO.N,CTS*%
X145555000Y-130415000D03*
%TO.P,U1,10,~{DSR}*%
%TO.N,DSR*%
X146825000Y-130415000D03*
%TO.P,U1,11,~{RI}*%
%TO.N,RI*%
X148095000Y-130415000D03*
%TO.P,U1,12,~{DCD}*%
%TO.N,DCD*%
X149365000Y-130415000D03*
%TO.P,U1,13,~{DTR}*%
%TO.N,DTR*%
X150635000Y-130415000D03*
%TO.P,U1,14,~{RTS}*%
%TO.N,RTS*%
X151905000Y-130415000D03*
%TO.P,U1,15,R232*%
%TO.N,unconnected-(U1-Pad15)*%
X153175000Y-130415000D03*
%TO.P,U1,16,VCC*%
%TO.N,Vcc*%
X154445000Y-130415000D03*
%TD*%
D23*
%TO.P,J1,1,Pin_1*%
%TO.N,+3V3*%
X143650000Y-133528000D03*
D24*
%TO.P,J1,2,Pin_2*%
%TO.N,RxD*%
X146190000Y-133528000D03*
%TO.P,J1,3,Pin_3*%
%TO.N,TxD*%
X148730000Y-133528000D03*
%TO.P,J1,4,Pin_4*%
%TO.N,GND*%
X151270000Y-133528000D03*
%TO.P,J1,5,Pin_5*%
%TO.N,DTR*%
X153810000Y-133528000D03*
%TO.P,J1,6,Pin_6*%
%TO.N,RTS*%
X156350000Y-133528000D03*
%TD*%
D15*
%TO.P,Q2,1,B*%
%TO.N,RTS*%
X146510000Y-119280000D03*
%TO.P,Q2,2,E*%
%TO.N,DTR*%
X148410000Y-119280000D03*
%TO.P,Q2,3,C*%
%TO.N,io0*%
X147460000Y-116280000D03*
%TD*%
D10*
%TO.P,C1,1*%
%TO.N,Net-(C1-Pad1)*%
X139686500Y-129464000D03*
%TO.P,C1,2*%
%TO.N,GND*%
X137961500Y-129464000D03*
%TD*%
D25*
%TO.P,U2,1,GND*%
%TO.N,GND*%
X159511000Y-130582000D03*
%TO.P,U2,2,VO*%
%TO.N,+3V3*%
X161811000Y-130582000D03*
D26*
X161811000Y-124282000D03*
D25*
%TO.P,U2,3,VI*%
%TO.N,Vcc*%
X164111000Y-130582000D03*
%TD*%
D10*
%TO.P,C3,1*%
%TO.N,+3V3*%
X150460000Y-122860000D03*
%TO.P,C3,2*%
%TO.N,GND*%
X148735000Y-122860000D03*
%TD*%
D27*
%TO.P,Um1,*%
%TO.N,*%
X146190000Y-110330000D03*
X148730000Y-110330000D03*
D28*
X142025000Y-104080000D03*
X142025000Y-99000000D03*
X157975000Y-104080000D03*
D27*
X153810000Y-110330000D03*
X143650000Y-110330000D03*
X156350000Y-110330000D03*
D28*
X157900000Y-99000000D03*
X142025000Y-101540000D03*
D27*
X151270000Y-110330000D03*
D28*
X157975000Y-101540000D03*
D29*
%TO.P,Um1,1,(XPD_DCDC)_GPIO16*%
%TO.N,io16*%
X140175000Y-99000000D03*
%TO.P,Um1,2,(MTMS)_GPIO14*%
%TO.N,io14*%
X140175000Y-101540000D03*
%TO.P,Um1,3,(MTCK)_GPIO13*%
%TO.N,io13*%
X140175000Y-104080000D03*
D30*
%TO.P,Um1,4,EN_(CHIP_PU)*%
%TO.N,EN*%
X143650000Y-112180000D03*
D31*
X143650000Y-108730000D03*
D30*
%TO.P,Um1,5,Vcc*%
%TO.N,+3V3*%
X146190000Y-112180000D03*
%TO.P,Um1,6,GND*%
%TO.N,GND*%
X148730000Y-112180000D03*
%TO.P,Um1,7,(U0TXD)_GPIO1*%
%TO.N,TxD*%
X151270000Y-112180000D03*
%TO.P,Um1,8,(U0RXD)_GPIO3*%
%TO.N,RxD*%
X153810000Y-112180000D03*
%TO.P,Um1,9,~{RST}_(EXT_RSTB)*%
%TO.N,RST*%
X156350000Y-112180000D03*
D31*
X156350000Y-108730000D03*
D29*
%TO.P,Um1,10,GPIO2*%
%TO.N,io2*%
X159825000Y-104080000D03*
%TO.P,Um1,11,GPIO0*%
%TO.N,io0*%
X159825000Y-101540000D03*
%TO.P,Um1,12,GPIO4*%
%TO.N,io4*%
X159750000Y-99000000D03*
%TD*%
D13*
%TO.P,R1,1*%
%TO.N,+3V3*%
X156350000Y-117256000D03*
%TO.P,R1,2*%
%TO.N,RST*%
X156350000Y-115256000D03*
%TD*%
D32*
%TO.N,GND*%
X148581500Y-122860000D03*
X163995194Y-105588000D03*
X155588000Y-125908000D03*
X137808000Y-127177999D03*
X159271000Y-130480000D03*
X163995194Y-107620000D03*
X164224000Y-119812000D03*
%TO.N,TxD*%
X151905000Y-124892000D03*
%TO.N,RxD*%
X153048000Y-122352000D03*
X152540000Y-127432000D03*
%TO.N,io0*%
X147460000Y-116256000D03*
%TO.N,DTR*%
X150000000Y-128956000D03*
X150000000Y-119280000D03*
%TO.N,RTS*%
X150508000Y-117780000D03*
X151524000Y-128956000D03*
%TO.N,UD+*%
X149365000Y-126416000D03*
D33*
X150000000Y-137592000D03*
%TO.N,UD-*%
X149350000Y-137592000D03*
D32*
X148095000Y-126416000D03*
%TD*%
D34*
%TO.N,RxD*%
X153175000Y-125465000D02*
X153175000Y-126797000D01*
X153175000Y-126797000D02*
X152540000Y-127432000D01*
%TO.N,GND*%
X154445000Y-125465000D02*
X155166500Y-125465000D01*
X151300000Y-137716000D02*
X152500000Y-137716000D01*
X153400000Y-137216000D02*
X153500000Y-137316000D01*
X137961500Y-127331499D02*
X137808000Y-127177999D01*
X155166500Y-125465000D02*
X156604000Y-126902500D01*
X137961500Y-124892000D02*
X137961500Y-127024499D01*
X151300000Y-137216000D02*
X153400000Y-137216000D01*
X137961500Y-129464000D02*
X137961500Y-127331499D01*
X137961500Y-127024499D02*
X137808000Y-127177999D01*
%TO.N,Net-(C1-Pad1)*%
X140122501Y-129027999D02*
X142380000Y-129027999D01*
X145680999Y-127176999D02*
X146825000Y-126032999D01*
X146825000Y-126032999D02*
X146825000Y-125465000D01*
X143651001Y-127176999D02*
X145680999Y-127176999D01*
X142380000Y-128448000D02*
X143651001Y-127176999D01*
X139686500Y-129464000D02*
X140122501Y-129027999D01*
X142380000Y-129027999D02*
X142380000Y-128448000D01*
%TO.N,Net-(C2-Pad1)*%
X139686500Y-124892000D02*
X140122499Y-125327999D01*
X145417999Y-125327999D02*
X145555000Y-125465000D01*
X140122499Y-125327999D02*
X142380000Y-125327999D01*
X142380000Y-125327999D02*
X145417999Y-125327999D01*
%TO.N,RxD*%
X153175000Y-122479000D02*
X153048000Y-122352000D01*
X153175000Y-125465000D02*
X153175000Y-122479000D01*
%TO.N,RST*%
X152540000Y-116256000D02*
X152540000Y-116280000D01*
X153556000Y-115240000D02*
X152540000Y-116256000D01*
X156350000Y-108730000D02*
X161553194Y-108730000D01*
X153572000Y-115256000D02*
X153556000Y-115240000D01*
X156350000Y-115256000D02*
X156350000Y-111880000D01*
X161553194Y-108730000D02*
X162129194Y-108154000D01*
X156350000Y-115256000D02*
X153572000Y-115256000D01*
X162129194Y-108154000D02*
X162129194Y-105054000D01*
%TO.N,DTR*%
X150635000Y-130415000D02*
X150635000Y-129591000D01*
X150635000Y-129591000D02*
X150000000Y-128956000D01*
X150635000Y-131299072D02*
X151431964Y-132096036D01*
X151590000Y-119280000D02*
X148410000Y-119280000D01*
X151939964Y-132096036D02*
X151431964Y-132096036D01*
X150635000Y-130415000D02*
X150635000Y-131299072D01*
X153810000Y-133528000D02*
X153371928Y-133528000D01*
X153371928Y-133528000D02*
X151939964Y-132096036D01*
%TO.N,RTS*%
X151905000Y-131369000D02*
X151905000Y-130415000D01*
X156350000Y-133528000D02*
X154826000Y-132004000D01*
X154826000Y-132004000D02*
X152540000Y-132004000D01*
X151905000Y-130415000D02*
X151905000Y-129337000D01*
X153490000Y-118730000D02*
X153490000Y-119280000D01*
X151905000Y-129337000D02*
X151524000Y-128956000D01*
X149365000Y-117780000D02*
X152540000Y-117780000D01*
X147460000Y-117780000D02*
X149365000Y-117780000D01*
X146510000Y-118730000D02*
X147460000Y-117780000D01*
X152540000Y-117780000D02*
X153490000Y-118730000D01*
X152540000Y-132004000D02*
X151905000Y-131369000D01*
X146510000Y-119280000D02*
X146510000Y-118730000D01*
%TO.N,Vcc*%
X154445000Y-130415000D02*
X155166500Y-130415000D01*
X155166500Y-130415000D02*
X156604000Y-128977500D01*
%TO.N,+3V3*%
X150635000Y-125465000D02*
X150635000Y-122860000D01*
X161811000Y-130582000D02*
X161811000Y-124282000D01*
%TO.N,EN*%
X143650000Y-115256000D02*
X143650000Y-111880000D01*
%TD*%
%TA.AperFunction,Conductor*%
%TO.N,Vcc*%
G36*
X155671121Y-128468002D02*
G01*
X155717614Y-128521658D01*
X155729000Y-128574000D01*
X155729000Y-128584385D01*
X155733475Y-128599624D01*
X155734865Y-128600829D01*
X155742548Y-128602500D01*
X157460884Y-128602500D01*
X157476123Y-128598025D01*
X157477328Y-128596635D01*
X157478999Y-128588952D01*
X157478999Y-128574000D01*
X157499001Y-128505879D01*
X157552657Y-128459386D01*
X157604999Y-128448000D01*
X161159500Y-128448000D01*
X161227621Y-128468002D01*
X161274114Y-128521658D01*
X161285500Y-128574000D01*
X161285500Y-129055501D01*
X161265498Y-129123622D01*
X161211842Y-129170115D01*
X161159500Y-129181501D01*
X161029482Y-129181501D01*
X161024589Y-129182276D01*
X161024588Y-129182276D01*
X160945494Y-129194802D01*
X160945492Y-129194803D01*
X160935696Y-129196354D01*
X160926859Y-129200857D01*
X160926858Y-129200857D01*
X160904105Y-129212451D01*
X160822658Y-129253950D01*
X160750095Y-129326513D01*
X160687783Y-129360539D01*
X160616968Y-129355474D01*
X160571905Y-129326513D01*
X160499342Y-129253950D01*
X160386304Y-129196354D01*
X160376515Y-129194804D01*
X160376513Y-129194803D01*
X160349151Y-129190470D01*
X160292519Y-129181500D01*
X159511158Y-129181500D01*
X158729482Y-129181501D01*
X158724589Y-129182276D01*
X158724588Y-129182276D01*
X158645494Y-129194802D01*
X158645492Y-129194803D01*
X158635696Y-129196354D01*
X158626859Y-129200857D01*
X158626858Y-129200857D01*
X158604105Y-129212451D01*
X158522658Y-129253950D01*
X158432950Y-129343658D01*
X158375354Y-129456696D01*
X158373804Y-129466485D01*
X158373803Y-129466487D01*
X158370156Y-129489513D01*
X158360500Y-129550481D01*
X158360501Y-131613518D01*
X158375354Y-131707304D01*
X158432950Y-131820342D01*
X158522658Y-131910050D01*
X158635696Y-131967646D01*
X158645485Y-131969196D01*
X158645487Y-131969197D01*
X158672849Y-131973530D01*
X158729481Y-131982500D01*
X159510842Y-131982500D01*
X160292518Y-131982499D01*
X160297412Y-131981724D01*
X160376506Y-131969198D01*
X160376508Y-131969197D01*
X160386304Y-131967646D01*
X160499342Y-131910050D01*
X160571905Y-131837487D01*
X160634217Y-131803461D01*
X160705032Y-131808526D01*
X160750095Y-131837487D01*
X160822658Y-131910050D01*
X160935696Y-131967646D01*
X160945485Y-131969196D01*
X160945487Y-131969197D01*
X160972849Y-131973530D01*
X161029481Y-131982500D01*
X161810842Y-131982500D01*
X162592518Y-131982499D01*
X162597412Y-131981724D01*
X162676506Y-131969198D01*
X162676508Y-131969197D01*
X162686304Y-131967646D01*
X162799342Y-131910050D01*
X162872258Y-131837134D01*
X162934570Y-131803108D01*
X163005385Y-131808173D01*
X163050448Y-131837134D01*
X163115944Y-131902630D01*
X163131787Y-131914141D01*
X163227018Y-131962664D01*
X163245645Y-131968716D01*
X163324627Y-131981225D01*
X163334473Y-131982000D01*
X163892885Y-131982000D01*
X163908124Y-131977525D01*
X163909329Y-131976135D01*
X163911000Y-131968452D01*
X163911000Y-131963884D01*
X164311000Y-131963884D01*
X164315475Y-131979123D01*
X164316865Y-131980328D01*
X164324548Y-131981999D01*
X164887525Y-131981999D01*
X164897374Y-131981224D01*
X164976351Y-131968717D01*
X164994986Y-131962662D01*
X165090213Y-131914141D01*
X165106056Y-131902630D01*
X165181630Y-131827056D01*
X165193141Y-131811213D01*
X165241664Y-131715982D01*
X165247716Y-131697355D01*
X165260225Y-131618373D01*
X165261000Y-131608527D01*
X165261000Y-130800115D01*
X165256525Y-130784876D01*
X165255135Y-130783671D01*
X165247452Y-130782000D01*
X164329115Y-130782000D01*
X164313876Y-130786475D01*
X164312671Y-130787865D01*
X164311000Y-130795548D01*
X164311000Y-131963884D01*
X163911000Y-131963884D01*
X163911000Y-130363885D01*
X164311000Y-130363885D01*
X164315475Y-130379124D01*
X164316865Y-130380329D01*
X164324548Y-130382000D01*
X165242884Y-130382000D01*
X165258123Y-130377525D01*
X165259328Y-130376135D01*
X165260999Y-130368452D01*
X165260999Y-129555475D01*
X165260224Y-129545626D01*
X165247717Y-129466649D01*
X165241662Y-129448014D01*
X165193141Y-129352787D01*
X165181630Y-129336944D01*
X165106056Y-129261370D01*
X165090213Y-129249859D01*
X164994982Y-129201336D01*
X164976355Y-129195284D01*
X164897373Y-129182775D01*
X164887527Y-129182000D01*
X164329115Y-129182000D01*
X164313876Y-129186475D01*
X164312671Y-129187865D01*
X164311000Y-129195548D01*
X164311000Y-130363885D01*
X163911000Y-130363885D01*
X163911000Y-129200116D01*
X163906525Y-129184877D01*
X163905135Y-129183672D01*
X163897452Y-129182001D01*
X163334475Y-129182001D01*
X163324626Y-129182776D01*
X163245649Y-129195283D01*
X163227014Y-129201338D01*
X163131787Y-129249859D01*
X163115944Y-129261370D01*
X163050448Y-129326866D01*
X162988136Y-129360892D01*
X162917321Y-129355827D01*
X162872258Y-129326866D01*
X162799342Y-129253950D01*
X162686304Y-129196354D01*
X162676515Y-129194804D01*
X162676513Y-129194803D01*
X162649151Y-129190470D01*
X162592519Y-129181500D01*
X162462500Y-129181500D01*
X162394379Y-129161498D01*
X162347886Y-129107842D01*
X162336500Y-129055500D01*
X162336500Y-128574000D01*
X162356502Y-128505879D01*
X162410158Y-128459386D01*
X162462500Y-128448000D01*
X165984000Y-128448000D01*
X166052121Y-128468002D01*
X166098614Y-128521658D01*
X166110000Y-128574000D01*
X166110000Y-137550601D01*
X166108449Y-137570310D01*
X166105014Y-137591999D01*
X166106863Y-137603677D01*
X166108280Y-137629197D01*
X166098177Y-137847737D01*
X166093014Y-137959407D01*
X166091940Y-137970996D01*
X166041930Y-138329502D01*
X166039791Y-138340941D01*
X165998546Y-138516304D01*
X165964397Y-138661502D01*
X165956919Y-138693295D01*
X165953737Y-138704481D01*
X165924739Y-138790999D01*
X165838701Y-139047698D01*
X165834497Y-139058550D01*
X165688287Y-139389686D01*
X165683099Y-139400104D01*
X165506967Y-139716322D01*
X165500841Y-139726217D01*
X165296272Y-140024850D01*
X165289258Y-140034138D01*
X165058007Y-140312623D01*
X165050166Y-140321223D01*
X164794224Y-140577165D01*
X164785624Y-140585006D01*
X164507139Y-140816257D01*
X164497851Y-140823271D01*
X164199218Y-141027840D01*
X164189323Y-141033966D01*
X163873105Y-141210098D01*
X163862687Y-141215286D01*
X163531551Y-141361496D01*
X163520699Y-141365700D01*
X163357182Y-141420506D01*
X163177482Y-141480736D01*
X163166300Y-141483917D01*
X163016922Y-141519050D01*
X162813942Y-141566790D01*
X162802503Y-141568929D01*
X162640706Y-141591499D01*
X162457919Y-141616997D01*
X162443997Y-141618939D01*
X162432409Y-141620013D01*
X162102198Y-141635279D01*
X162076678Y-141633862D01*
X162065000Y-141632013D01*
X162043311Y-141635448D01*
X162023602Y-141636999D01*
X155922549Y-141636999D01*
X155854428Y-141616997D01*
X155807935Y-141563341D01*
X155797831Y-141493067D01*
X155820615Y-141436935D01*
X155821035Y-141436357D01*
X155828050Y-141429342D01*
X155885646Y-141316304D01*
X155900500Y-141222519D01*
X155900499Y-139609482D01*
X155895450Y-139577601D01*
X155887198Y-139525494D01*
X155887197Y-139525492D01*
X155885646Y-139515696D01*
X155828050Y-139402658D01*
X155738342Y-139312950D01*
X155625304Y-139255354D01*
X155615515Y-139253804D01*
X155615513Y-139253803D01*
X155588151Y-139249470D01*
X155531519Y-139240500D01*
X154896972Y-139240500D01*
X153579948Y-139240501D01*
X153559369Y-139238809D01*
X153547475Y-139236840D01*
X153540659Y-139237197D01*
X153540655Y-139237197D01*
X153480925Y-139240328D01*
X153474330Y-139240501D01*
X152268482Y-139240501D01*
X152263589Y-139241276D01*
X152263588Y-139241276D01*
X152184494Y-139253802D01*
X152184492Y-139253803D01*
X152174696Y-139255354D01*
X152111595Y-139287506D01*
X152082203Y-139302482D01*
X152012427Y-139315586D01*
X151967797Y-139302482D01*
X151875304Y-139255354D01*
X151865515Y-139253804D01*
X151865513Y-139253803D01*
X151838151Y-139249470D01*
X151781519Y-139240500D01*
X151000158Y-139240500D01*
X150218482Y-139240501D01*
X150213589Y-139241276D01*
X150213588Y-139241276D01*
X150134494Y-139253802D01*
X150134492Y-139253803D01*
X150124696Y-139255354D01*
X150115857Y-139259858D01*
X150115856Y-139259858D01*
X150057204Y-139289743D01*
X149987427Y-139302848D01*
X149942796Y-139289743D01*
X149884139Y-139259855D01*
X149884135Y-139259854D01*
X149875304Y-139255354D01*
X149865515Y-139253804D01*
X149865513Y-139253803D01*
X149838151Y-139249470D01*
X149781519Y-139240500D01*
X149000158Y-139240500D01*
X148218482Y-139240501D01*
X148213589Y-139241276D01*
X148213588Y-139241276D01*
X148134494Y-139253802D01*
X148134492Y-139253803D01*
X148124696Y-139255354D01*
X148061595Y-139287506D01*
X148032203Y-139302482D01*
X147962427Y-139315586D01*
X147917797Y-139302482D01*
X147825304Y-139255354D01*
X147815515Y-139253804D01*
X147815513Y-139253803D01*
X147788151Y-139249470D01*
X147731519Y-139240500D01*
X146579942Y-139240500D01*
X146559365Y-139238808D01*
X146557119Y-139238436D01*
X146547475Y-139236840D01*
X146540658Y-139237197D01*
X146540654Y-139237197D01*
X146480930Y-139240327D01*
X146474337Y-139240500D01*
X146062000Y-139240500D01*
X145993879Y-139220498D01*
X145947386Y-139166842D01*
X145936000Y-139114500D01*
X145936000Y-138617499D01*
X145956002Y-138549378D01*
X146009658Y-138502885D01*
X146061998Y-138491499D01*
X146913494Y-138491499D01*
X146966744Y-138503304D01*
X147066193Y-138549678D01*
X147148721Y-138568125D01*
X147246790Y-138590047D01*
X147246796Y-138590048D01*
X147251834Y-138591174D01*
X147257665Y-138591500D01*
X147697517Y-138591500D01*
X147839109Y-138576118D01*
X147845574Y-138573942D01*
X147845580Y-138573941D01*
X147997481Y-138522821D01*
X148068423Y-138520051D01*
X148129601Y-138556075D01*
X148149936Y-138585038D01*
X148167857Y-138620210D01*
X148179370Y-138636056D01*
X148254944Y-138711630D01*
X148270787Y-138723141D01*
X148366018Y-138771664D01*
X148384645Y-138777716D01*
X148463627Y-138790225D01*
X148473473Y-138791000D01*
X148481885Y-138791000D01*
X148497124Y-138786525D01*
X148498329Y-138785135D01*
X148500000Y-138777452D01*
X148500000Y-138128873D01*
X148500167Y-138124622D01*
X148500500Y-138122519D01*
X148500500Y-137949419D01*
X148502192Y-137928840D01*
X148506750Y-137901308D01*
X148526518Y-137781901D01*
X148557376Y-137717963D01*
X148617905Y-137680858D01*
X148688885Y-137682367D01*
X148747782Y-137722011D01*
X148767234Y-137754262D01*
X148825464Y-137894841D01*
X148837161Y-137910085D01*
X148873463Y-137957395D01*
X148899063Y-138023616D01*
X148899500Y-138034099D01*
X148899500Y-138415674D01*
X148899833Y-138417348D01*
X148900000Y-138420752D01*
X148900000Y-138772884D01*
X148904475Y-138788123D01*
X148905865Y-138789328D01*
X148913548Y-138790999D01*
X148926525Y-138790999D01*
X148936374Y-138790224D01*
X149015351Y-138777717D01*
X149033986Y-138771662D01*
X149129213Y-138723141D01*
X149145056Y-138711630D01*
X149178281Y-138678405D01*
X149240593Y-138644379D01*
X149267376Y-138641500D01*
X149431918Y-138641500D01*
X149500039Y-138661502D01*
X149521013Y-138678405D01*
X149561658Y-138719050D01*
X149674696Y-138776646D01*
X149684485Y-138778196D01*
X149684487Y-138778197D01*
X149711849Y-138782530D01*
X149768481Y-138791500D01*
X149999953Y-138791500D01*
X150231518Y-138791499D01*
X150236412Y-138790724D01*
X150305289Y-138779816D01*
X150344708Y-138779816D01*
X150410425Y-138790224D01*
X150418481Y-138791500D01*
X150649953Y-138791500D01*
X150881518Y-138791499D01*
X150886412Y-138790724D01*
X150955289Y-138779816D01*
X150994708Y-138779816D01*
X151060425Y-138790224D01*
X151068481Y-138791500D01*
X151299953Y-138791500D01*
X151531518Y-138791499D01*
X151536412Y-138790724D01*
X151615506Y-138778198D01*
X151615508Y-138778197D01*
X151625304Y-138776646D01*
X151738342Y-138719050D01*
X151828050Y-138629342D01*
X151834085Y-138617499D01*
X151851327Y-138583659D01*
X151900075Y-138532043D01*
X151968990Y-138514977D01*
X152016842Y-138526666D01*
X152066193Y-138549678D01*
X152148721Y-138568125D01*
X152246790Y-138590047D01*
X152246796Y-138590048D01*
X152251834Y-138591174D01*
X152257665Y-138591500D01*
X152697517Y-138591500D01*
X152839109Y-138576118D01*
X153019396Y-138515445D01*
X153025243Y-138511932D01*
X153025247Y-138511930D01*
X153029297Y-138509496D01*
X153094191Y-138491500D01*
X154874159Y-138491499D01*
X155131518Y-138491499D01*
X155136412Y-138490724D01*
X155215506Y-138478198D01*
X155215508Y-138478197D01*
X155225304Y-138476646D01*
X155338342Y-138419050D01*
X155428050Y-138329342D01*
X155485646Y-138216304D01*
X155500500Y-138122519D01*
X155500500Y-137560497D01*
X160059637Y-137560497D01*
X160059881Y-137564932D01*
X160059881Y-137564936D01*
X160070901Y-137765160D01*
X160075205Y-137843370D01*
X160130474Y-138121226D01*
X160131950Y-138125429D01*
X160160425Y-138206513D01*
X160224342Y-138388524D01*
X160226395Y-138392477D01*
X160226398Y-138392483D01*
X160270118Y-138476646D01*
X160354936Y-138639928D01*
X160357519Y-138643543D01*
X160357523Y-138643549D01*
X160406175Y-138711630D01*
X160519651Y-138870424D01*
X160522729Y-138873651D01*
X160522731Y-138873653D01*
X160699114Y-139058550D01*
X160715199Y-139075412D01*
X160937680Y-139250801D01*
X161027286Y-139302848D01*
X161178807Y-139390859D01*
X161178813Y-139390862D01*
X161182654Y-139393093D01*
X161186777Y-139394763D01*
X161228077Y-139411491D01*
X161445232Y-139499448D01*
X161449545Y-139500519D01*
X161449550Y-139500521D01*
X161715856Y-139566672D01*
X161715861Y-139566673D01*
X161720177Y-139567745D01*
X161724605Y-139568199D01*
X161724607Y-139568199D01*
X161800307Y-139575955D01*
X161961790Y-139592500D01*
X162137170Y-139592500D01*
X162347593Y-139577601D01*
X162351948Y-139576663D01*
X162351951Y-139576663D01*
X162620200Y-139518911D01*
X162620202Y-139518911D01*
X162624547Y-139517975D01*
X162890337Y-139419920D01*
X163107310Y-139302848D01*
X163135744Y-139287506D01*
X163139660Y-139285393D01*
X163367540Y-139117078D01*
X163426995Y-139058550D01*
X163566249Y-138921465D01*
X163569430Y-138918334D01*
X163572131Y-138914794D01*
X163572137Y-138914788D01*
X163738602Y-138696667D01*
X163738605Y-138696663D01*
X163741304Y-138693126D01*
X163798259Y-138591425D01*
X163877552Y-138449837D01*
X163877555Y-138449832D01*
X163879730Y-138445947D01*
X163884304Y-138434126D01*
X163980341Y-138185885D01*
X163980343Y-138185879D01*
X163981948Y-138181730D01*
X163995673Y-138122519D01*
X164018597Y-138023616D01*
X164045918Y-137905747D01*
X164070363Y-137623503D01*
X164070119Y-137619064D01*
X164055040Y-137345073D01*
X164055039Y-137345066D01*
X164054795Y-137340630D01*
X163999526Y-137062774D01*
X163978279Y-137002270D01*
X163907136Y-136799684D01*
X163907135Y-136799681D01*
X163905658Y-136795476D01*
X163903605Y-136791523D01*
X163903602Y-136791517D01*
X163777116Y-136548023D01*
X163775064Y-136544072D01*
X163772481Y-136540457D01*
X163772477Y-136540451D01*
X163677009Y-136406858D01*
X163610349Y-136313576D01*
X163568028Y-136269212D01*
X163417876Y-136111811D01*
X163417873Y-136111808D01*
X163414801Y-136108588D01*
X163192320Y-135933199D01*
X163082073Y-135869163D01*
X162951193Y-135793141D01*
X162951187Y-135793138D01*
X162947346Y-135790907D01*
X162855227Y-135753595D01*
X162688894Y-135686223D01*
X162688891Y-135686222D01*
X162684768Y-135684552D01*
X162680455Y-135683481D01*
X162680450Y-135683479D01*
X162414144Y-135617328D01*
X162414139Y-135617327D01*
X162409823Y-135616255D01*
X162405395Y-135615801D01*
X162405393Y-135615801D01*
X162310552Y-135606084D01*
X162168210Y-135591500D01*
X161992830Y-135591500D01*
X161782407Y-135606399D01*
X161778052Y-135607337D01*
X161778049Y-135607337D01*
X161509800Y-135665089D01*
X161509798Y-135665089D01*
X161505453Y-135666025D01*
X161239663Y-135764080D01*
X160990340Y-135898607D01*
X160762460Y-136066922D01*
X160759281Y-136070051D01*
X160759278Y-136070054D01*
X160687717Y-136140500D01*
X160560570Y-136265666D01*
X160557869Y-136269206D01*
X160557863Y-136269212D01*
X160391398Y-136487333D01*
X160388696Y-136490874D01*
X160250270Y-136738053D01*
X160248662Y-136742211D01*
X160248659Y-136742216D01*
X160149659Y-136998115D01*
X160148052Y-137002270D01*
X160084082Y-137278253D01*
X160059637Y-137560497D01*
X155500500Y-137560497D01*
X155500499Y-136509482D01*
X155485646Y-136415696D01*
X155428050Y-136302658D01*
X155338342Y-136212950D01*
X155225304Y-136155354D01*
X155215515Y-136153804D01*
X155215513Y-136153803D01*
X155188151Y-136149470D01*
X155131519Y-136140500D01*
X155009313Y-136140500D01*
X152026499Y-136140501D01*
X151958378Y-136120499D01*
X151911885Y-136066843D01*
X151901546Y-136019315D01*
X151900887Y-136019367D01*
X151900507Y-136014538D01*
X151900499Y-136014501D01*
X151900499Y-136009482D01*
X151899724Y-136004588D01*
X151887198Y-135925494D01*
X151887197Y-135925492D01*
X151885646Y-135915696D01*
X151828050Y-135802658D01*
X151738342Y-135712950D01*
X151625304Y-135655354D01*
X151615515Y-135653804D01*
X151615513Y-135653803D01*
X151588151Y-135649470D01*
X151531519Y-135640500D01*
X151300047Y-135640500D01*
X151068482Y-135640501D01*
X151063589Y-135641276D01*
X151063588Y-135641276D01*
X150994711Y-135652184D01*
X150955292Y-135652184D01*
X150886412Y-135641275D01*
X150881519Y-135640500D01*
X150650047Y-135640500D01*
X150418482Y-135640501D01*
X150413589Y-135641276D01*
X150413588Y-135641276D01*
X150344711Y-135652184D01*
X150305292Y-135652184D01*
X150236412Y-135641275D01*
X150231519Y-135640500D01*
X150000047Y-135640500D01*
X149768482Y-135640501D01*
X149763589Y-135641276D01*
X149763588Y-135641276D01*
X149684494Y-135653802D01*
X149684492Y-135653803D01*
X149674696Y-135655354D01*
X149561658Y-135712950D01*
X149521013Y-135753595D01*
X149458701Y-135787621D01*
X149431918Y-135790500D01*
X149267376Y-135790500D01*
X149199255Y-135770498D01*
X149178281Y-135753595D01*
X149145056Y-135720370D01*
X149129213Y-135708859D01*
X149033982Y-135660336D01*
X149015355Y-135654284D01*
X148936373Y-135641775D01*
X148926527Y-135641000D01*
X148918115Y-135641000D01*
X148902876Y-135645475D01*
X148901671Y-135646865D01*
X148900000Y-135654548D01*
X148900000Y-136011248D01*
X148899833Y-136014652D01*
X148899500Y-136016326D01*
X148899500Y-137149901D01*
X148879498Y-137218022D01*
X148873463Y-137226605D01*
X148825464Y-137289159D01*
X148764956Y-137435238D01*
X148763878Y-137443426D01*
X148754255Y-137516521D01*
X148725533Y-137581448D01*
X148666268Y-137620540D01*
X148595276Y-137621385D01*
X148535097Y-137583715D01*
X148507857Y-137533535D01*
X148505024Y-137523250D01*
X148500500Y-137489790D01*
X148500499Y-136514437D01*
X148500499Y-136509482D01*
X148500166Y-136507382D01*
X148500000Y-136503141D01*
X148500000Y-135659116D01*
X148495525Y-135643877D01*
X148494135Y-135642672D01*
X148486452Y-135641001D01*
X148473475Y-135641001D01*
X148463626Y-135641776D01*
X148384649Y-135654283D01*
X148366014Y-135660338D01*
X148270787Y-135708859D01*
X148254944Y-135720370D01*
X148179370Y-135795944D01*
X148167859Y-135811787D01*
X148119336Y-135907018D01*
X148113284Y-135925645D01*
X148100775Y-136004627D01*
X148100000Y-136014473D01*
X148100000Y-136014500D01*
X148099997Y-136014510D01*
X148099612Y-136019404D01*
X148098584Y-136019323D01*
X148079998Y-136082621D01*
X148026342Y-136129114D01*
X147974000Y-136140500D01*
X147751078Y-136140500D01*
X146061999Y-136140501D01*
X145993879Y-136120499D01*
X145947386Y-136066843D01*
X145936000Y-136014501D01*
X145936000Y-134898560D01*
X145956002Y-134830439D01*
X146009658Y-134783946D01*
X146072980Y-134773039D01*
X146190000Y-134783277D01*
X146407977Y-134764207D01*
X146548255Y-134726620D01*
X146614020Y-134708998D01*
X146614022Y-134708997D01*
X146619330Y-134707575D01*
X146624312Y-134705252D01*
X146812652Y-134617428D01*
X146812657Y-134617425D01*
X146817639Y-134615102D01*
X146822148Y-134611945D01*
X146992366Y-134492757D01*
X146992369Y-134492755D01*
X146996877Y-134489598D01*
X147151598Y-134334877D01*
X147277102Y-134155638D01*
X147345805Y-134008305D01*
X147392723Y-133955020D01*
X147461000Y-133935559D01*
X147528960Y-133956101D01*
X147574195Y-134008305D01*
X147642898Y-134155638D01*
X147768402Y-134334877D01*
X147923123Y-134489598D01*
X147927631Y-134492755D01*
X147927634Y-134492757D01*
X148097852Y-134611945D01*
X148102361Y-134615102D01*
X148107343Y-134617425D01*
X148107348Y-134617428D01*
X148295688Y-134705252D01*
X148300670Y-134707575D01*
X148305978Y-134708997D01*
X148305980Y-134708998D01*
X148371745Y-134726620D01*
X148512023Y-134764207D01*
X148730000Y-134783277D01*
X148947977Y-134764207D01*
X149088255Y-134726620D01*
X149154020Y-134708998D01*
X149154022Y-134708997D01*
X149159330Y-134707575D01*
X149164312Y-134705252D01*
X149352652Y-134617428D01*
X149352657Y-134617425D01*
X149357639Y-134615102D01*
X149362148Y-134611945D01*
X149532366Y-134492757D01*
X149532369Y-134492755D01*
X149536877Y-134489598D01*
X149691598Y-134334877D01*
X149817102Y-134155638D01*
X149885805Y-134008305D01*
X149932723Y-133955020D01*
X150001000Y-133935559D01*
X150068960Y-133956101D01*
X150114195Y-134008305D01*
X150182898Y-134155638D01*
X150308402Y-134334877D01*
X150463123Y-134489598D01*
X150467631Y-134492755D01*
X150467634Y-134492757D01*
X150637852Y-134611945D01*
X150642361Y-134615102D01*
X150647343Y-134617425D01*
X150647348Y-134617428D01*
X150835688Y-134705252D01*
X150840670Y-134707575D01*
X150845978Y-134708997D01*
X150845980Y-134708998D01*
X150911745Y-134726620D01*
X151052023Y-134764207D01*
X151270000Y-134783277D01*
X151487977Y-134764207D01*
X151628255Y-134726620D01*
X151694020Y-134708998D01*
X151694022Y-134708997D01*
X151699330Y-134707575D01*
X151704312Y-134705252D01*
X151892652Y-134617428D01*
X151892657Y-134617425D01*
X151897639Y-134615102D01*
X151902148Y-134611945D01*
X152072366Y-134492757D01*
X152072369Y-134492755D01*
X152076877Y-134489598D01*
X152231598Y-134334877D01*
X152357102Y-134155638D01*
X152425805Y-134008305D01*
X152472723Y-133955020D01*
X152541000Y-133935559D01*
X152608960Y-133956101D01*
X152654195Y-134008305D01*
X152722898Y-134155638D01*
X152848402Y-134334877D01*
X153003123Y-134489598D01*
X153007631Y-134492755D01*
X153007634Y-134492757D01*
X153177852Y-134611945D01*
X153182361Y-134615102D01*
X153187343Y-134617425D01*
X153187348Y-134617428D01*
X153375688Y-134705252D01*
X153380670Y-134707575D01*
X153385978Y-134708997D01*
X153385980Y-134708998D01*
X153451745Y-134726620D01*
X153592023Y-134764207D01*
X153810000Y-134783277D01*
X154027977Y-134764207D01*
X154168255Y-134726620D01*
X154234020Y-134708998D01*
X154234022Y-134708997D01*
X154239330Y-134707575D01*
X154244312Y-134705252D01*
X154432652Y-134617428D01*
X154432657Y-134617425D01*
X154437639Y-134615102D01*
X154442148Y-134611945D01*
X154612366Y-134492757D01*
X154612369Y-134492755D01*
X154616877Y-134489598D01*
X154771598Y-134334877D01*
X154897102Y-134155638D01*
X154965805Y-134008305D01*
X155012723Y-133955020D01*
X155081000Y-133935559D01*
X155148960Y-133956101D01*
X155194195Y-134008305D01*
X155262898Y-134155638D01*
X155388402Y-134334877D01*
X155543123Y-134489598D01*
X155547631Y-134492755D01*
X155547634Y-134492757D01*
X155717852Y-134611945D01*
X155722361Y-134615102D01*
X155727343Y-134617425D01*
X155727348Y-134617428D01*
X155915688Y-134705252D01*
X155920670Y-134707575D01*
X155925978Y-134708997D01*
X155925980Y-134708998D01*
X155991745Y-134726620D01*
X156132023Y-134764207D01*
X156350000Y-134783277D01*
X156567977Y-134764207D01*
X156708255Y-134726620D01*
X156774020Y-134708998D01*
X156774022Y-134708997D01*
X156779330Y-134707575D01*
X156784312Y-134705252D01*
X156972652Y-134617428D01*
X156972657Y-134617425D01*
X156977639Y-134615102D01*
X156982148Y-134611945D01*
X157152366Y-134492757D01*
X157152369Y-134492755D01*
X157156877Y-134489598D01*
X157311598Y-134334877D01*
X157437102Y-134155638D01*
X157529575Y-133957330D01*
X157586207Y-133745977D01*
X157605277Y-133528000D01*
X157586207Y-133310023D01*
X157529575Y-133098670D01*
X157437102Y-132900362D01*
X157311598Y-132721123D01*
X157156877Y-132566402D01*
X157152369Y-132563245D01*
X157152366Y-132563243D01*
X156982148Y-132444055D01*
X156982145Y-132444053D01*
X156977639Y-132440898D01*
X156972657Y-132438575D01*
X156972652Y-132438572D01*
X156784312Y-132350748D01*
X156784311Y-132350747D01*
X156779330Y-132348425D01*
X156774022Y-132347003D01*
X156774020Y-132347002D01*
X156682002Y-132322346D01*
X156567977Y-132291793D01*
X156350000Y-132272723D01*
X156132023Y-132291793D01*
X155985354Y-132331093D01*
X155914380Y-132329403D01*
X155863650Y-132298481D01*
X155207805Y-131642636D01*
X155204152Y-131638827D01*
X155169934Y-131601615D01*
X155164116Y-131595288D01*
X155156812Y-131590759D01*
X155150196Y-131585286D01*
X155151433Y-131583791D01*
X155111388Y-131539055D01*
X155100153Y-131468953D01*
X155107991Y-131438489D01*
X155131165Y-131379956D01*
X155135119Y-131364388D01*
X155144544Y-131286498D01*
X155145000Y-131278943D01*
X155145000Y-130633115D01*
X155140525Y-130617876D01*
X155139135Y-130616671D01*
X155131452Y-130615000D01*
X154371000Y-130615000D01*
X154302879Y-130594998D01*
X154256386Y-130541342D01*
X154245000Y-130489000D01*
X154245000Y-130196885D01*
X154645000Y-130196885D01*
X154649475Y-130212124D01*
X154650865Y-130213329D01*
X154658548Y-130215000D01*
X155126885Y-130215000D01*
X155142124Y-130210525D01*
X155143329Y-130209135D01*
X155145000Y-130201452D01*
X155145000Y-129551057D01*
X155144544Y-129543502D01*
X155135119Y-129465612D01*
X155131166Y-129450047D01*
X155081835Y-129325451D01*
X155073478Y-129310620D01*
X154992757Y-129204275D01*
X154980725Y-129192243D01*
X154944057Y-129164410D01*
X155729001Y-129164410D01*
X155729195Y-129169345D01*
X155731339Y-129196602D01*
X155733640Y-129209203D01*
X155774569Y-129350081D01*
X155780816Y-129364517D01*
X155854738Y-129489513D01*
X155864378Y-129501940D01*
X155967060Y-129604622D01*
X155979487Y-129614262D01*
X156104483Y-129688184D01*
X156118919Y-129694431D01*
X156259803Y-129735362D01*
X156272390Y-129737660D01*
X156299660Y-129739807D01*
X156304586Y-129740000D01*
X156385885Y-129740000D01*
X156401124Y-129735525D01*
X156402329Y-129734135D01*
X156404000Y-129726452D01*
X156404000Y-129721884D01*
X156804000Y-129721884D01*
X156808475Y-129737123D01*
X156809865Y-129738328D01*
X156817548Y-129739999D01*
X156903410Y-129739999D01*
X156908345Y-129739805D01*
X156935602Y-129737661D01*
X156948203Y-129735360D01*
X157089081Y-129694431D01*
X157103517Y-129688184D01*
X157228513Y-129614262D01*
X157240940Y-129604622D01*
X157343622Y-129501940D01*
X157353262Y-129489513D01*
X157427184Y-129364517D01*
X157433431Y-129350081D01*
X157474362Y-129209197D01*
X157476660Y-129196610D01*
X157478807Y-129169340D01*
X157479000Y-129164414D01*
X157479000Y-129020615D01*
X157474525Y-129005376D01*
X157473135Y-129004171D01*
X157465452Y-129002500D01*
X156822115Y-129002500D01*
X156806876Y-129006975D01*
X156805671Y-129008365D01*
X156804000Y-129016048D01*
X156804000Y-129721884D01*
X156404000Y-129721884D01*
X156404000Y-129020615D01*
X156399525Y-129005376D01*
X156398135Y-129004171D01*
X156390452Y-129002500D01*
X155747116Y-129002500D01*
X155731877Y-129006975D01*
X155730672Y-129008365D01*
X155729001Y-129016048D01*
X155729001Y-129164410D01*
X154944057Y-129164410D01*
X154874380Y-129111522D01*
X154859549Y-129103165D01*
X154734949Y-129053832D01*
X154719397Y-129049882D01*
X154662983Y-129043056D01*
X154648610Y-129045452D01*
X154645000Y-129058277D01*
X154645000Y-130196885D01*
X154245000Y-130196885D01*
X154245000Y-129058995D01*
X154240894Y-129045013D01*
X154227731Y-129042970D01*
X154170603Y-129049882D01*
X154155051Y-129053832D01*
X154030451Y-129103165D01*
X154015620Y-129111522D01*
X153909280Y-129192239D01*
X153899456Y-129202064D01*
X153837145Y-129236091D01*
X153766329Y-129231028D01*
X153722132Y-129202624D01*
X153717922Y-129197078D01*
X153597783Y-129105887D01*
X153496499Y-129065786D01*
X153465077Y-129053345D01*
X153465075Y-129053344D01*
X153457547Y-129050364D01*
X153367772Y-129039500D01*
X152982228Y-129039500D01*
X152892453Y-129050364D01*
X152884925Y-129053344D01*
X152884923Y-129053345D01*
X152853501Y-129065786D01*
X152752217Y-129105887D01*
X152632078Y-129197078D01*
X152628187Y-129202204D01*
X152566783Y-129235734D01*
X152495968Y-129230669D01*
X152451945Y-129202378D01*
X152447922Y-129197078D01*
X152434593Y-129186961D01*
X152403274Y-129145223D01*
X152400210Y-129146908D01*
X152380330Y-129110747D01*
X152375107Y-129100086D01*
X152360264Y-129065786D01*
X152351567Y-128995324D01*
X152382345Y-128931346D01*
X152429104Y-128898758D01*
X153533470Y-128457012D01*
X153580265Y-128448000D01*
X155603000Y-128448000D01*
X155671121Y-128468002D01*
G37*
%TD.AperFunction*%
%TD*%
%TA.AperFunction,Conductor*%
%TO.N,+3V3*%
G36*
X165944122Y-97275002D02*
G01*
X165990615Y-97328658D01*
X166002001Y-97381000D01*
X166002000Y-118040994D01*
X165981998Y-118109115D01*
X165928342Y-118155608D01*
X165858068Y-118165712D01*
X165836333Y-118160587D01*
X165778389Y-118141368D01*
X165778387Y-118141368D01*
X165771861Y-118139203D01*
X165765025Y-118138503D01*
X165765022Y-118138502D01*
X165721969Y-118134091D01*
X165667400Y-118128500D01*
X163816600Y-118128500D01*
X163813354Y-118128837D01*
X163813350Y-118128837D01*
X163717692Y-118138762D01*
X163717688Y-118138763D01*
X163710834Y-118139474D01*
X163704298Y-118141655D01*
X163704296Y-118141655D01*
X163632189Y-118165712D01*
X163543054Y-118195450D01*
X163392652Y-118288522D01*
X163267695Y-118413697D01*
X163174885Y-118564262D01*
X163119203Y-118732139D01*
X163108500Y-118836600D01*
X163108500Y-120787400D01*
X163108837Y-120790646D01*
X163108837Y-120790650D01*
X163118752Y-120886206D01*
X163119474Y-120893166D01*
X163175450Y-121060946D01*
X163268522Y-121211348D01*
X163393697Y-121336305D01*
X163399927Y-121340145D01*
X163399928Y-121340146D01*
X163537288Y-121424816D01*
X163544262Y-121429115D01*
X163587632Y-121443500D01*
X163705611Y-121482632D01*
X163705613Y-121482632D01*
X163712139Y-121484797D01*
X163718975Y-121485497D01*
X163718978Y-121485498D01*
X163762031Y-121489909D01*
X163816600Y-121495500D01*
X165667400Y-121495500D01*
X165670646Y-121495163D01*
X165670650Y-121495163D01*
X165766308Y-121485238D01*
X165766312Y-121485237D01*
X165773166Y-121484526D01*
X165779701Y-121482346D01*
X165779709Y-121482344D01*
X165836123Y-121463522D01*
X165907072Y-121460936D01*
X165968157Y-121497120D01*
X165999982Y-121560584D01*
X166002000Y-121583045D01*
X166002000Y-127306000D01*
X165981998Y-127374121D01*
X165928342Y-127420614D01*
X165876000Y-127432000D01*
X157713500Y-127432000D01*
X157645379Y-127411998D01*
X157598886Y-127358342D01*
X157587500Y-127306000D01*
X157587500Y-126727928D01*
X157587163Y-126724678D01*
X157577419Y-126630765D01*
X157577418Y-126630761D01*
X157576707Y-126623907D01*
X157557487Y-126566296D01*
X157523972Y-126465841D01*
X157521654Y-126458893D01*
X157430116Y-126310969D01*
X157424934Y-126305796D01*
X157312184Y-126193242D01*
X157312179Y-126193238D01*
X157307003Y-126188071D01*
X157158920Y-126096791D01*
X156993809Y-126042026D01*
X156986973Y-126041326D01*
X156986970Y-126041325D01*
X156926765Y-126035157D01*
X156891072Y-126031500D01*
X156681094Y-126031500D01*
X156612973Y-126011498D01*
X156591999Y-125994595D01*
X156532597Y-125935193D01*
X156498571Y-125872881D01*
X156496382Y-125859268D01*
X156482232Y-125724635D01*
X156482232Y-125724633D01*
X156481542Y-125718072D01*
X156422527Y-125536444D01*
X156327040Y-125371056D01*
X156293216Y-125333490D01*
X156287074Y-125326669D01*
X159403001Y-125326669D01*
X159403371Y-125333490D01*
X159408895Y-125384352D01*
X159412521Y-125399604D01*
X159457676Y-125520054D01*
X159466214Y-125535649D01*
X159542715Y-125637724D01*
X159555276Y-125650285D01*
X159657351Y-125726786D01*
X159672946Y-125735324D01*
X159793394Y-125780478D01*
X159808649Y-125784105D01*
X159859514Y-125789631D01*
X159866328Y-125790000D01*
X161538885Y-125790000D01*
X161554124Y-125785525D01*
X161555329Y-125784135D01*
X161557000Y-125776452D01*
X161557000Y-125771884D01*
X162065000Y-125771884D01*
X162069475Y-125787123D01*
X162070865Y-125788328D01*
X162078548Y-125789999D01*
X163755669Y-125789999D01*
X163762490Y-125789629D01*
X163813352Y-125784105D01*
X163828604Y-125780479D01*
X163949054Y-125735324D01*
X163964649Y-125726786D01*
X164066724Y-125650285D01*
X164079285Y-125637724D01*
X164155786Y-125535649D01*
X164164324Y-125520054D01*
X164209478Y-125399606D01*
X164213105Y-125384351D01*
X164218631Y-125333486D01*
X164219000Y-125326672D01*
X164219000Y-124554115D01*
X164214525Y-124538876D01*
X164213135Y-124537671D01*
X164205452Y-124536000D01*
X162083115Y-124536000D01*
X162067876Y-124540475D01*
X162066671Y-124541865D01*
X162065000Y-124549548D01*
X162065000Y-125771884D01*
X161557000Y-125771884D01*
X161557000Y-124554115D01*
X161552525Y-124538876D01*
X161551135Y-124537671D01*
X161543452Y-124536000D01*
X159421116Y-124536000D01*
X159405877Y-124540475D01*
X159404672Y-124541865D01*
X159403001Y-124549548D01*
X159403001Y-125326669D01*
X156287074Y-125326669D01*
X156203675Y-125234045D01*
X156203674Y-125234044D01*
X156199253Y-125229134D01*
X156044752Y-125116882D01*
X156038724Y-125114198D01*
X156038722Y-125114197D01*
X155876319Y-125041891D01*
X155876318Y-125041891D01*
X155870288Y-125039206D01*
X155776887Y-125019353D01*
X155689944Y-125000872D01*
X155689939Y-125000872D01*
X155683487Y-124999500D01*
X155646109Y-124999500D01*
X155577988Y-124979498D01*
X155559856Y-124965350D01*
X155547600Y-124953841D01*
X155541821Y-124948414D01*
X155534875Y-124944595D01*
X155534872Y-124944593D01*
X155524066Y-124938652D01*
X155507547Y-124927801D01*
X155507083Y-124927441D01*
X155491541Y-124915386D01*
X155484272Y-124912241D01*
X155484268Y-124912238D01*
X155450963Y-124897826D01*
X155440313Y-124892609D01*
X155401560Y-124871305D01*
X155381937Y-124866267D01*
X155363234Y-124859863D01*
X155360060Y-124858489D01*
X155344645Y-124851819D01*
X155342274Y-124851443D01*
X155284510Y-124814552D01*
X155254834Y-124750055D01*
X155253500Y-124731770D01*
X155253500Y-124573498D01*
X155253307Y-124571042D01*
X155251067Y-124542579D01*
X155251066Y-124542574D01*
X155250562Y-124536169D01*
X155204145Y-124376399D01*
X155145046Y-124276468D01*
X155123491Y-124240020D01*
X155123489Y-124240017D01*
X155119453Y-124233193D01*
X155001807Y-124115547D01*
X154994983Y-124111511D01*
X154994980Y-124111509D01*
X154865427Y-124034892D01*
X154865428Y-124034892D01*
X154858601Y-124030855D01*
X154850990Y-124028644D01*
X154850988Y-124028643D01*
X154786421Y-124009885D01*
X159403000Y-124009885D01*
X159407475Y-124025124D01*
X159408865Y-124026329D01*
X159416548Y-124028000D01*
X161538885Y-124028000D01*
X161554124Y-124023525D01*
X161555329Y-124022135D01*
X161557000Y-124014452D01*
X161557000Y-124009885D01*
X162065000Y-124009885D01*
X162069475Y-124025124D01*
X162070865Y-124026329D01*
X162078548Y-124028000D01*
X164200884Y-124028000D01*
X164216123Y-124023525D01*
X164217328Y-124022135D01*
X164218999Y-124014452D01*
X164218999Y-123237331D01*
X164218629Y-123230510D01*
X164213105Y-123179648D01*
X164209479Y-123164396D01*
X164164324Y-123043946D01*
X164155786Y-123028351D01*
X164079285Y-122926276D01*
X164066724Y-122913715D01*
X163964649Y-122837214D01*
X163949054Y-122828676D01*
X163828606Y-122783522D01*
X163813351Y-122779895D01*
X163762486Y-122774369D01*
X163755672Y-122774000D01*
X162083115Y-122774000D01*
X162067876Y-122778475D01*
X162066671Y-122779865D01*
X162065000Y-122787548D01*
X162065000Y-124009885D01*
X161557000Y-124009885D01*
X161557000Y-122792116D01*
X161552525Y-122776877D01*
X161551135Y-122775672D01*
X161543452Y-122774001D01*
X159866331Y-122774001D01*
X159859510Y-122774371D01*
X159808648Y-122779895D01*
X159793396Y-122783521D01*
X159672946Y-122828676D01*
X159657351Y-122837214D01*
X159555276Y-122913715D01*
X159542715Y-122926276D01*
X159466214Y-123028351D01*
X159457676Y-123043946D01*
X159412522Y-123164394D01*
X159408895Y-123179649D01*
X159403369Y-123230514D01*
X159403000Y-123237328D01*
X159403000Y-124009885D01*
X154786421Y-124009885D01*
X154698831Y-123984438D01*
X154692426Y-123983934D01*
X154692421Y-123983933D01*
X154663958Y-123981693D01*
X154663950Y-123981693D01*
X154661502Y-123981500D01*
X154228498Y-123981500D01*
X154226050Y-123981693D01*
X154226042Y-123981693D01*
X154197579Y-123983933D01*
X154197574Y-123983934D01*
X154191169Y-123984438D01*
X154103579Y-124009885D01*
X154039012Y-124028643D01*
X154039010Y-124028644D01*
X154031399Y-124030855D01*
X153998637Y-124050231D01*
X153929822Y-124067689D01*
X153862491Y-124045172D01*
X153818022Y-123989827D01*
X153808500Y-123941776D01*
X153808500Y-122885535D01*
X153825381Y-122822535D01*
X153879223Y-122729279D01*
X153879224Y-122729278D01*
X153882527Y-122723556D01*
X153941542Y-122541928D01*
X153961504Y-122352000D01*
X153941542Y-122162072D01*
X153882527Y-121980444D01*
X153787040Y-121815056D01*
X153659253Y-121673134D01*
X153504752Y-121560882D01*
X153498724Y-121558198D01*
X153498722Y-121558197D01*
X153336319Y-121485891D01*
X153336318Y-121485891D01*
X153330288Y-121483206D01*
X153236887Y-121463353D01*
X153149944Y-121444872D01*
X153149939Y-121444872D01*
X153143487Y-121443500D01*
X152952513Y-121443500D01*
X152946061Y-121444872D01*
X152946056Y-121444872D01*
X152859113Y-121463353D01*
X152765712Y-121483206D01*
X152759682Y-121485891D01*
X152759681Y-121485891D01*
X152597278Y-121558197D01*
X152597276Y-121558198D01*
X152591248Y-121560882D01*
X152436747Y-121673134D01*
X152308960Y-121815056D01*
X152213473Y-121980444D01*
X152154458Y-122162072D01*
X152134496Y-122352000D01*
X152154458Y-122541928D01*
X152213473Y-122723556D01*
X152308960Y-122888944D01*
X152436747Y-123030866D01*
X152477427Y-123060422D01*
X152489561Y-123069238D01*
X152532915Y-123125461D01*
X152541500Y-123171174D01*
X152541500Y-123941776D01*
X152521498Y-124009897D01*
X152467842Y-124056390D01*
X152397568Y-124066494D01*
X152351364Y-124050231D01*
X152318601Y-124030855D01*
X152310990Y-124028644D01*
X152310988Y-124028643D01*
X152246421Y-124009885D01*
X152158831Y-123984438D01*
X152152426Y-123983934D01*
X152152421Y-123983933D01*
X152123958Y-123981693D01*
X152123950Y-123981693D01*
X152121502Y-123981500D01*
X151688498Y-123981500D01*
X151686050Y-123981693D01*
X151686042Y-123981693D01*
X151657579Y-123983933D01*
X151657574Y-123983934D01*
X151651169Y-123984438D01*
X151563579Y-124009885D01*
X151499012Y-124028643D01*
X151499010Y-124028644D01*
X151491399Y-124030855D01*
X151348193Y-124115547D01*
X151345253Y-124118487D01*
X151280729Y-124143821D01*
X151211106Y-124129920D01*
X151192360Y-124117871D01*
X151184677Y-124111911D01*
X151055221Y-124035352D01*
X151033513Y-124025958D01*
X151034538Y-124023588D01*
X150985339Y-123992173D01*
X150955657Y-123927680D01*
X150965554Y-123857376D01*
X151011890Y-123803584D01*
X151040443Y-123789859D01*
X151071450Y-123779514D01*
X151084615Y-123773347D01*
X151219992Y-123689574D01*
X151231390Y-123680540D01*
X151343863Y-123567871D01*
X151352875Y-123556460D01*
X151436412Y-123420937D01*
X151442556Y-123407759D01*
X151492815Y-123256234D01*
X151495681Y-123242868D01*
X151505172Y-123150230D01*
X151505500Y-123143815D01*
X151505500Y-123132115D01*
X151501025Y-123116876D01*
X151499635Y-123115671D01*
X151491952Y-123114000D01*
X150332000Y-123114000D01*
X150263879Y-123093998D01*
X150217386Y-123040342D01*
X150206000Y-122988000D01*
X150206000Y-122587885D01*
X150714000Y-122587885D01*
X150718475Y-122603124D01*
X150719865Y-122604329D01*
X150727548Y-122606000D01*
X151487385Y-122606000D01*
X151502624Y-122601525D01*
X151503829Y-122600135D01*
X151505500Y-122592452D01*
X151505500Y-122576234D01*
X151505163Y-122569718D01*
X151495425Y-122475868D01*
X151492532Y-122462472D01*
X151442012Y-122311047D01*
X151435847Y-122297885D01*
X151352074Y-122162508D01*
X151343040Y-122151110D01*
X151230371Y-122038637D01*
X151218960Y-122029625D01*
X151083437Y-121946088D01*
X151070259Y-121939944D01*
X150918734Y-121889685D01*
X150905368Y-121886819D01*
X150812730Y-121877328D01*
X150806315Y-121877000D01*
X150732115Y-121877000D01*
X150716876Y-121881475D01*
X150715671Y-121882865D01*
X150714000Y-121890548D01*
X150714000Y-122587885D01*
X150206000Y-122587885D01*
X150206000Y-121895115D01*
X150201525Y-121879876D01*
X150200135Y-121878671D01*
X150192452Y-121877000D01*
X150113734Y-121877000D01*
X150107218Y-121877337D01*
X150013368Y-121887075D01*
X149999972Y-121889968D01*
X149848547Y-121940488D01*
X149835385Y-121946653D01*
X149700008Y-122030426D01*
X149688606Y-122039464D01*
X149686933Y-122041139D01*
X149685507Y-122041919D01*
X149682873Y-122044007D01*
X149682516Y-122043556D01*
X149624651Y-122075219D01*
X149553831Y-122070216D01*
X149508746Y-122041299D01*
X149505685Y-122038244D01*
X149500503Y-122033071D01*
X149352420Y-121941791D01*
X149187309Y-121887026D01*
X149180473Y-121886326D01*
X149180470Y-121886325D01*
X149128974Y-121881049D01*
X149084572Y-121876500D01*
X148385428Y-121876500D01*
X148382182Y-121876837D01*
X148382178Y-121876837D01*
X148288265Y-121886581D01*
X148288261Y-121886582D01*
X148281407Y-121887293D01*
X148274871Y-121889474D01*
X148274869Y-121889474D01*
X148142105Y-121933768D01*
X148116393Y-121942346D01*
X147968469Y-122033884D01*
X147963296Y-122039066D01*
X147850742Y-122151816D01*
X147850738Y-122151821D01*
X147845571Y-122156997D01*
X147754291Y-122305080D01*
X147699526Y-122470191D01*
X147689000Y-122572928D01*
X147689000Y-122655246D01*
X147687448Y-122670018D01*
X147687958Y-122670072D01*
X147667996Y-122860000D01*
X147668686Y-122866565D01*
X147687958Y-123049928D01*
X147687448Y-123049982D01*
X147689000Y-123064754D01*
X147689000Y-123147072D01*
X147689337Y-123150318D01*
X147689337Y-123150322D01*
X147698940Y-123242868D01*
X147699793Y-123251093D01*
X147754846Y-123416107D01*
X147846384Y-123564031D01*
X147851566Y-123569204D01*
X147964316Y-123681758D01*
X147964321Y-123681762D01*
X147969497Y-123686929D01*
X147975727Y-123690769D01*
X147975728Y-123690770D01*
X148068961Y-123748240D01*
X148116455Y-123801013D01*
X148127878Y-123871084D01*
X148099604Y-123936208D01*
X148040609Y-123975708D01*
X148002845Y-123981500D01*
X147878498Y-123981500D01*
X147876050Y-123981693D01*
X147876042Y-123981693D01*
X147847579Y-123983933D01*
X147847574Y-123983934D01*
X147841169Y-123984438D01*
X147753579Y-124009885D01*
X147689012Y-124028643D01*
X147689010Y-124028644D01*
X147681399Y-124030855D01*
X147538193Y-124115547D01*
X147535511Y-124118229D01*
X147471139Y-124143502D01*
X147401516Y-124129600D01*
X147385688Y-124119428D01*
X147381807Y-124115547D01*
X147238601Y-124030855D01*
X147230990Y-124028644D01*
X147230988Y-124028643D01*
X147166421Y-124009885D01*
X147078831Y-123984438D01*
X147072426Y-123983934D01*
X147072421Y-123983933D01*
X147043958Y-123981693D01*
X147043950Y-123981693D01*
X147041502Y-123981500D01*
X146608498Y-123981500D01*
X146606050Y-123981693D01*
X146606042Y-123981693D01*
X146577579Y-123983933D01*
X146577574Y-123983934D01*
X146571169Y-123984438D01*
X146483579Y-124009885D01*
X146419012Y-124028643D01*
X146419010Y-124028644D01*
X146411399Y-124030855D01*
X146268193Y-124115547D01*
X146265511Y-124118229D01*
X146201139Y-124143502D01*
X146131516Y-124129600D01*
X146115688Y-124119428D01*
X146111807Y-124115547D01*
X145968601Y-124030855D01*
X145960990Y-124028644D01*
X145960988Y-124028643D01*
X145896421Y-124009885D01*
X145808831Y-123984438D01*
X145802426Y-123983934D01*
X145802421Y-123983933D01*
X145773958Y-123981693D01*
X145773950Y-123981693D01*
X145771502Y-123981500D01*
X145338498Y-123981500D01*
X145336050Y-123981693D01*
X145336042Y-123981693D01*
X145307579Y-123983933D01*
X145307574Y-123983934D01*
X145301169Y-123984438D01*
X145213579Y-124009885D01*
X145149012Y-124028643D01*
X145149010Y-124028644D01*
X145141399Y-124030855D01*
X145134572Y-124034892D01*
X145134573Y-124034892D01*
X145005020Y-124111509D01*
X145005017Y-124111511D01*
X144998193Y-124115547D01*
X144880547Y-124233193D01*
X144876511Y-124240017D01*
X144876509Y-124240020D01*
X144854954Y-124276468D01*
X144795855Y-124376399D01*
X144749438Y-124536169D01*
X144748934Y-124542574D01*
X144748933Y-124542579D01*
X144747773Y-124557317D01*
X144746500Y-124573498D01*
X144746500Y-124573739D01*
X144723938Y-124640728D01*
X144668498Y-124685079D01*
X144620696Y-124694499D01*
X144214500Y-124694499D01*
X144146379Y-124674497D01*
X144099886Y-124620841D01*
X144088500Y-124568499D01*
X144088500Y-124279865D01*
X144081745Y-124217683D01*
X144030615Y-124081294D01*
X143943261Y-123964738D01*
X143826705Y-123877384D01*
X143690316Y-123826254D01*
X143628134Y-123819499D01*
X141131866Y-123819499D01*
X141069684Y-123826254D01*
X140933295Y-123877384D01*
X140816739Y-123964738D01*
X140729385Y-124081294D01*
X140726233Y-124089702D01*
X140721923Y-124097574D01*
X140720310Y-124096691D01*
X140684257Y-124144679D01*
X140617694Y-124169375D01*
X140548346Y-124154164D01*
X140519906Y-124132856D01*
X140452003Y-124065071D01*
X140437920Y-124056390D01*
X140310150Y-123977631D01*
X140310148Y-123977630D01*
X140303920Y-123973791D01*
X140138809Y-123919026D01*
X140131973Y-123918326D01*
X140131970Y-123918325D01*
X140080474Y-123913049D01*
X140036072Y-123908500D01*
X139336928Y-123908500D01*
X139333682Y-123908837D01*
X139333678Y-123908837D01*
X139239765Y-123918581D01*
X139239761Y-123918582D01*
X139232907Y-123919293D01*
X139226371Y-123921474D01*
X139226369Y-123921474D01*
X139106403Y-123961498D01*
X139067893Y-123974346D01*
X139048684Y-123986233D01*
X138927490Y-124061230D01*
X138919969Y-124065884D01*
X138913077Y-124072788D01*
X138911613Y-124073589D01*
X138909062Y-124075611D01*
X138908716Y-124075174D01*
X138850796Y-124106866D01*
X138779976Y-124101863D01*
X138734890Y-124072944D01*
X138732184Y-124070243D01*
X138732183Y-124070242D01*
X138727003Y-124065071D01*
X138712920Y-124056390D01*
X138585150Y-123977631D01*
X138585148Y-123977630D01*
X138578920Y-123973791D01*
X138413809Y-123919026D01*
X138406973Y-123918326D01*
X138406970Y-123918325D01*
X138355474Y-123913049D01*
X138311072Y-123908500D01*
X137611928Y-123908500D01*
X137608682Y-123908837D01*
X137608678Y-123908837D01*
X137514765Y-123918581D01*
X137514761Y-123918582D01*
X137507907Y-123919293D01*
X137501371Y-123921474D01*
X137501369Y-123921474D01*
X137381403Y-123961498D01*
X137342893Y-123974346D01*
X137194969Y-124065884D01*
X137189796Y-124071066D01*
X137077242Y-124183816D01*
X137077238Y-124183821D01*
X137072071Y-124188997D01*
X137068231Y-124195227D01*
X137068230Y-124195228D01*
X137013953Y-124283282D01*
X136980791Y-124337080D01*
X136926026Y-124502191D01*
X136925326Y-124509027D01*
X136925325Y-124509030D01*
X136921961Y-124541865D01*
X136915500Y-124604928D01*
X136915500Y-125179072D01*
X136915837Y-125182318D01*
X136915837Y-125182322D01*
X136924266Y-125263556D01*
X136926293Y-125283093D01*
X136981346Y-125448107D01*
X137072884Y-125596031D01*
X137078066Y-125601204D01*
X137190816Y-125713758D01*
X137190821Y-125713762D01*
X137195997Y-125718929D01*
X137202227Y-125722769D01*
X137202228Y-125722770D01*
X137268116Y-125763384D01*
X137315609Y-125816156D01*
X137328000Y-125870644D01*
X137328000Y-126339572D01*
X137307998Y-126407693D01*
X137276061Y-126441508D01*
X137252133Y-126458893D01*
X137196747Y-126499133D01*
X137192326Y-126504043D01*
X137192325Y-126504044D01*
X137128703Y-126574704D01*
X137068960Y-126641055D01*
X136973473Y-126806443D01*
X136914458Y-126988071D01*
X136913768Y-126994632D01*
X136913768Y-126994634D01*
X136900377Y-127122040D01*
X136894496Y-127177999D01*
X136895186Y-127184564D01*
X136913451Y-127358342D01*
X136914458Y-127367927D01*
X136973473Y-127549555D01*
X137068960Y-127714943D01*
X137073378Y-127719850D01*
X137073379Y-127719851D01*
X137185191Y-127844031D01*
X137196747Y-127856865D01*
X137202089Y-127860746D01*
X137202091Y-127860748D01*
X137276061Y-127914490D01*
X137319415Y-127970712D01*
X137328000Y-128016426D01*
X137328000Y-128485360D01*
X137307998Y-128553481D01*
X137268304Y-128592503D01*
X137194969Y-128637884D01*
X137189796Y-128643066D01*
X137077242Y-128755816D01*
X137077238Y-128755821D01*
X137072071Y-128760997D01*
X137068231Y-128767227D01*
X137068230Y-128767228D01*
X137064897Y-128772636D01*
X136980791Y-128909080D01*
X136926026Y-129074191D01*
X136915500Y-129176928D01*
X136915500Y-129751072D01*
X136926293Y-129855093D01*
X136981346Y-130020107D01*
X137072884Y-130168031D01*
X137078066Y-130173204D01*
X137190816Y-130285758D01*
X137190821Y-130285762D01*
X137195997Y-130290929D01*
X137344080Y-130382209D01*
X137509191Y-130436974D01*
X137516027Y-130437674D01*
X137516030Y-130437675D01*
X137567526Y-130442951D01*
X137611928Y-130447500D01*
X138311072Y-130447500D01*
X138314318Y-130447163D01*
X138314322Y-130447163D01*
X138408235Y-130437419D01*
X138408239Y-130437418D01*
X138415093Y-130436707D01*
X138421629Y-130434526D01*
X138421631Y-130434526D01*
X138554395Y-130390232D01*
X138580107Y-130381654D01*
X138637605Y-130346073D01*
X138721805Y-130293969D01*
X138721806Y-130293968D01*
X138728031Y-130290116D01*
X138734923Y-130283212D01*
X138736387Y-130282411D01*
X138738938Y-130280389D01*
X138739284Y-130280826D01*
X138797204Y-130249134D01*
X138868024Y-130254137D01*
X138913110Y-130283056D01*
X138915616Y-130285557D01*
X138920997Y-130290929D01*
X139069080Y-130382209D01*
X139234191Y-130436974D01*
X139241027Y-130437674D01*
X139241030Y-130437675D01*
X139292526Y-130442951D01*
X139336928Y-130447500D01*
X140036072Y-130447500D01*
X140039318Y-130447163D01*
X140039322Y-130447163D01*
X140133235Y-130437419D01*
X140133239Y-130437418D01*
X140140093Y-130436707D01*
X140146629Y-130434526D01*
X140146631Y-130434526D01*
X140279395Y-130390232D01*
X140305107Y-130381654D01*
X140453031Y-130290116D01*
X140458204Y-130284934D01*
X140458209Y-130284930D01*
X140519744Y-130223287D01*
X140582026Y-130189207D01*
X140652846Y-130194210D01*
X140709719Y-130236707D01*
X140721686Y-130258554D01*
X140721923Y-130258424D01*
X140726233Y-130266296D01*
X140729385Y-130274704D01*
X140816739Y-130391260D01*
X140933295Y-130478614D01*
X141069684Y-130529744D01*
X141131866Y-130536499D01*
X143628134Y-130536499D01*
X143690316Y-130529744D01*
X143826705Y-130478614D01*
X143943261Y-130391260D01*
X144030615Y-130274704D01*
X144081745Y-130138315D01*
X144088500Y-130076133D01*
X144088500Y-127979865D01*
X144085267Y-127950107D01*
X144097795Y-127880225D01*
X144146115Y-127828209D01*
X144210530Y-127810499D01*
X145602231Y-127810499D01*
X145613414Y-127811026D01*
X145620907Y-127812701D01*
X145628833Y-127812452D01*
X145628834Y-127812452D01*
X145688997Y-127810561D01*
X145692955Y-127810499D01*
X145720855Y-127810499D01*
X145724846Y-127809995D01*
X145736679Y-127809063D01*
X145780888Y-127807673D01*
X145788502Y-127805461D01*
X145788507Y-127805460D01*
X145800340Y-127802022D01*
X145819703Y-127798011D01*
X145839796Y-127795473D01*
X145847163Y-127792556D01*
X145847168Y-127792555D01*
X145880907Y-127779197D01*
X145892134Y-127775353D01*
X145899438Y-127773231D01*
X145934592Y-127763017D01*
X145952027Y-127752706D01*
X145969775Y-127744011D01*
X145988616Y-127736551D01*
X146024386Y-127710563D01*
X146034306Y-127704047D01*
X146065534Y-127685579D01*
X146065537Y-127685577D01*
X146072361Y-127681541D01*
X146086682Y-127667220D01*
X146101716Y-127654379D01*
X146111693Y-127647130D01*
X146118106Y-127642471D01*
X146123156Y-127636367D01*
X146123161Y-127636362D01*
X146146292Y-127608401D01*
X146154282Y-127599620D01*
X146768499Y-126985404D01*
X146830811Y-126951379D01*
X146857594Y-126948500D01*
X147041502Y-126948500D01*
X147043950Y-126948307D01*
X147043958Y-126948307D01*
X147072421Y-126946067D01*
X147072426Y-126946066D01*
X147078831Y-126945562D01*
X147085003Y-126943769D01*
X147085008Y-126943768D01*
X147157284Y-126922770D01*
X147218899Y-126904869D01*
X147289893Y-126905072D01*
X147349510Y-126943626D01*
X147353460Y-126948615D01*
X147355960Y-126952944D01*
X147360382Y-126957855D01*
X147360384Y-126957858D01*
X147471690Y-127081475D01*
X147483747Y-127094866D01*
X147638248Y-127207118D01*
X147644276Y-127209802D01*
X147644278Y-127209803D01*
X147702662Y-127235797D01*
X147812712Y-127284794D01*
X147906112Y-127304647D01*
X147993056Y-127323128D01*
X147993061Y-127323128D01*
X147999513Y-127324500D01*
X148190487Y-127324500D01*
X148196939Y-127323128D01*
X148196944Y-127323128D01*
X148283888Y-127304647D01*
X148377288Y-127284794D01*
X148487338Y-127235797D01*
X148545722Y-127209803D01*
X148545724Y-127209802D01*
X148551752Y-127207118D01*
X148655940Y-127131421D01*
X148722806Y-127107563D01*
X148791958Y-127123643D01*
X148804056Y-127131418D01*
X148908248Y-127207118D01*
X148914276Y-127209802D01*
X148914278Y-127209803D01*
X148972662Y-127235797D01*
X149082712Y-127284794D01*
X149176112Y-127304647D01*
X149263056Y-127323128D01*
X149263061Y-127323128D01*
X149269513Y-127324500D01*
X149460487Y-127324500D01*
X149466939Y-127323128D01*
X149466944Y-127323128D01*
X149553888Y-127304647D01*
X149647288Y-127284794D01*
X149757338Y-127235797D01*
X149815722Y-127209803D01*
X149815724Y-127209802D01*
X149821752Y-127207118D01*
X149976253Y-127094866D01*
X149988310Y-127081475D01*
X150099621Y-126957852D01*
X150099622Y-126957851D01*
X150104040Y-126952944D01*
X150105442Y-126950516D01*
X150160546Y-126908022D01*
X150231282Y-126901945D01*
X150241416Y-126904439D01*
X150363605Y-126939939D01*
X150377706Y-126939899D01*
X150381000Y-126932630D01*
X150381000Y-125337000D01*
X150401002Y-125268879D01*
X150454658Y-125222386D01*
X150507000Y-125211000D01*
X150763000Y-125211000D01*
X150831121Y-125231002D01*
X150877614Y-125284658D01*
X150889000Y-125337000D01*
X150889000Y-126926878D01*
X150892973Y-126940409D01*
X150900871Y-126941544D01*
X151040790Y-126900893D01*
X151055221Y-126894648D01*
X151184676Y-126818090D01*
X151192364Y-126812126D01*
X151258449Y-126786179D01*
X151328072Y-126800080D01*
X151344158Y-126810418D01*
X151348193Y-126814453D01*
X151355021Y-126818491D01*
X151355024Y-126818493D01*
X151375491Y-126830597D01*
X151491399Y-126899145D01*
X151610037Y-126933612D01*
X151669873Y-126971824D01*
X151699551Y-127036320D01*
X151694718Y-127093544D01*
X151646458Y-127242072D01*
X151645768Y-127248633D01*
X151645768Y-127248635D01*
X151634238Y-127358342D01*
X151626496Y-127432000D01*
X151646458Y-127621928D01*
X151705473Y-127803556D01*
X151708776Y-127809278D01*
X151708777Y-127809279D01*
X151737750Y-127859461D01*
X151754488Y-127928456D01*
X151731268Y-127995548D01*
X151675461Y-128039435D01*
X151619487Y-128047212D01*
X151619487Y-128047500D01*
X151428513Y-128047500D01*
X151422061Y-128048872D01*
X151422056Y-128048872D01*
X151335112Y-128067353D01*
X151241712Y-128087206D01*
X151235682Y-128089891D01*
X151235681Y-128089891D01*
X151073278Y-128162197D01*
X151073276Y-128162198D01*
X151067248Y-128164882D01*
X150912747Y-128277134D01*
X150855635Y-128340564D01*
X150795190Y-128377802D01*
X150724206Y-128376450D01*
X150668366Y-128340564D01*
X150611253Y-128277134D01*
X150456752Y-128164882D01*
X150450724Y-128162198D01*
X150450722Y-128162197D01*
X150288319Y-128089891D01*
X150288318Y-128089891D01*
X150282288Y-128087206D01*
X150188888Y-128067353D01*
X150101944Y-128048872D01*
X150101939Y-128048872D01*
X150095487Y-128047500D01*
X149904513Y-128047500D01*
X149898061Y-128048872D01*
X149898056Y-128048872D01*
X149811112Y-128067353D01*
X149717712Y-128087206D01*
X149711682Y-128089891D01*
X149711681Y-128089891D01*
X149549278Y-128162197D01*
X149549276Y-128162198D01*
X149543248Y-128164882D01*
X149388747Y-128277134D01*
X149384329Y-128282041D01*
X149384325Y-128282045D01*
X149280527Y-128397325D01*
X149260960Y-128419056D01*
X149247725Y-128441980D01*
X149183350Y-128553481D01*
X149165473Y-128584444D01*
X149106458Y-128766072D01*
X149105768Y-128772635D01*
X149105768Y-128772636D01*
X149096906Y-128856949D01*
X149069892Y-128922606D01*
X149006748Y-128964775D01*
X148992720Y-128968850D01*
X148959015Y-128978642D01*
X148959012Y-128978643D01*
X148951399Y-128980855D01*
X148808193Y-129065547D01*
X148805511Y-129068229D01*
X148741139Y-129093502D01*
X148671516Y-129079600D01*
X148655688Y-129069428D01*
X148651807Y-129065547D01*
X148508601Y-128980855D01*
X148500990Y-128978644D01*
X148500988Y-128978643D01*
X148448769Y-128963472D01*
X148348831Y-128934438D01*
X148342426Y-128933934D01*
X148342421Y-128933933D01*
X148313958Y-128931693D01*
X148313950Y-128931693D01*
X148311502Y-128931500D01*
X147878498Y-128931500D01*
X147876050Y-128931693D01*
X147876042Y-128931693D01*
X147847579Y-128933933D01*
X147847574Y-128933934D01*
X147841169Y-128934438D01*
X147741231Y-128963472D01*
X147689012Y-128978643D01*
X147689010Y-128978644D01*
X147681399Y-128980855D01*
X147538193Y-129065547D01*
X147535511Y-129068229D01*
X147471139Y-129093502D01*
X147401516Y-129079600D01*
X147385688Y-129069428D01*
X147381807Y-129065547D01*
X147238601Y-128980855D01*
X147230990Y-128978644D01*
X147230988Y-128978643D01*
X147178769Y-128963472D01*
X147078831Y-128934438D01*
X147072426Y-128933934D01*
X147072421Y-128933933D01*
X147043958Y-128931693D01*
X147043950Y-128931693D01*
X147041502Y-128931500D01*
X146608498Y-128931500D01*
X146606050Y-128931693D01*
X146606042Y-128931693D01*
X146577579Y-128933933D01*
X146577574Y-128933934D01*
X146571169Y-128934438D01*
X146471231Y-128963472D01*
X146419012Y-128978643D01*
X146419010Y-128978644D01*
X146411399Y-128980855D01*
X146268193Y-129065547D01*
X146265511Y-129068229D01*
X146201139Y-129093502D01*
X146131516Y-129079600D01*
X146115688Y-129069428D01*
X146111807Y-129065547D01*
X145968601Y-128980855D01*
X145960990Y-128978644D01*
X145960988Y-128978643D01*
X145908769Y-128963472D01*
X145808831Y-128934438D01*
X145802426Y-128933934D01*
X145802421Y-128933933D01*
X145773958Y-128931693D01*
X145773950Y-128931693D01*
X145771502Y-128931500D01*
X145338498Y-128931500D01*
X145336050Y-128931693D01*
X145336042Y-128931693D01*
X145307579Y-128933933D01*
X145307574Y-128933934D01*
X145301169Y-128934438D01*
X145201231Y-128963472D01*
X145149012Y-128978643D01*
X145149010Y-128978644D01*
X145141399Y-128980855D01*
X145134572Y-128984892D01*
X145134573Y-128984892D01*
X145005020Y-129061509D01*
X145005017Y-129061511D01*
X144998193Y-129065547D01*
X144880547Y-129183193D01*
X144876511Y-129190017D01*
X144876509Y-129190020D01*
X144859525Y-129218739D01*
X144795855Y-129326399D01*
X144749438Y-129486169D01*
X144746500Y-129523498D01*
X144746500Y-131306502D01*
X144749438Y-131343831D01*
X144751233Y-131350008D01*
X144792766Y-131492967D01*
X144795855Y-131503601D01*
X144799892Y-131510427D01*
X144876509Y-131639980D01*
X144876511Y-131639983D01*
X144880547Y-131646807D01*
X144998193Y-131764453D01*
X145005017Y-131768489D01*
X145005020Y-131768491D01*
X145106837Y-131828705D01*
X145141399Y-131849145D01*
X145149010Y-131851356D01*
X145149012Y-131851357D01*
X145201231Y-131866528D01*
X145301169Y-131895562D01*
X145307576Y-131896066D01*
X145307580Y-131896067D01*
X145311092Y-131896343D01*
X145311881Y-131896405D01*
X145378223Y-131921687D01*
X145420365Y-131978824D01*
X145428000Y-132022017D01*
X145428000Y-132338283D01*
X145407998Y-132406404D01*
X145377653Y-132439043D01*
X145284965Y-132508635D01*
X145281393Y-132512373D01*
X145203898Y-132593466D01*
X145142374Y-132628895D01*
X145071462Y-132625438D01*
X145013676Y-132584192D01*
X144994823Y-132550644D01*
X144953324Y-132439946D01*
X144944786Y-132424351D01*
X144868285Y-132322276D01*
X144855724Y-132309715D01*
X144753649Y-132233214D01*
X144738054Y-132224676D01*
X144617606Y-132179522D01*
X144602351Y-132175895D01*
X144551486Y-132170369D01*
X144544672Y-132170000D01*
X143922115Y-132170000D01*
X143906876Y-132174475D01*
X143905671Y-132175865D01*
X143904000Y-132183548D01*
X143904000Y-134867884D01*
X143908475Y-134883123D01*
X143909865Y-134884328D01*
X143917548Y-134885999D01*
X144544669Y-134885999D01*
X144551490Y-134885629D01*
X144602352Y-134880105D01*
X144617604Y-134876479D01*
X144738054Y-134831324D01*
X144753649Y-134822786D01*
X144855724Y-134746285D01*
X144868285Y-134733724D01*
X144944786Y-134631649D01*
X144953324Y-134616054D01*
X144994225Y-134506952D01*
X145036867Y-134450188D01*
X145103428Y-134425488D01*
X145172777Y-134440696D01*
X145207444Y-134468684D01*
X145232865Y-134498031D01*
X145232869Y-134498035D01*
X145236250Y-134501938D01*
X145382485Y-134623344D01*
X145422120Y-134682246D01*
X145428000Y-134720288D01*
X145428000Y-135906500D01*
X145407998Y-135974621D01*
X145354342Y-136021114D01*
X145302000Y-136032500D01*
X144851866Y-136032500D01*
X144789684Y-136039255D01*
X144653295Y-136090385D01*
X144536739Y-136177739D01*
X144449385Y-136294295D01*
X144398255Y-136430684D01*
X144391500Y-136492866D01*
X144391500Y-138139134D01*
X144398255Y-138201316D01*
X144449385Y-138337705D01*
X144536739Y-138454261D01*
X144653295Y-138541615D01*
X144789684Y-138592745D01*
X144851866Y-138599500D01*
X145302000Y-138599500D01*
X145370121Y-138619502D01*
X145416614Y-138673158D01*
X145428000Y-138725500D01*
X145428000Y-139006500D01*
X145407998Y-139074621D01*
X145354342Y-139121114D01*
X145302000Y-139132500D01*
X144451866Y-139132500D01*
X144389684Y-139139255D01*
X144253295Y-139190385D01*
X144136739Y-139277739D01*
X144049385Y-139394295D01*
X143998255Y-139530684D01*
X143991500Y-139592866D01*
X143991500Y-141239134D01*
X143998255Y-141301316D01*
X144001027Y-141308712D01*
X144001029Y-141308718D01*
X144019793Y-141358770D01*
X144024976Y-141429577D01*
X143991055Y-141491946D01*
X143928799Y-141526075D01*
X143901811Y-141528999D01*
X137984328Y-141528999D01*
X137964943Y-141527499D01*
X137950142Y-141525194D01*
X137950139Y-141525194D01*
X137941270Y-141523813D01*
X137922105Y-141526319D01*
X137921374Y-141526415D01*
X137899216Y-141527345D01*
X137577557Y-141512474D01*
X137565968Y-141511400D01*
X137217342Y-141462768D01*
X137205903Y-141460629D01*
X137012512Y-141415144D01*
X136863256Y-141380040D01*
X136852074Y-141376859D01*
X136648771Y-141308718D01*
X136518315Y-141264993D01*
X136507463Y-141260789D01*
X136185453Y-141118608D01*
X136175048Y-141113428D01*
X135867513Y-140942132D01*
X135857636Y-140936016D01*
X135567233Y-140737085D01*
X135557945Y-140730071D01*
X135287135Y-140505193D01*
X135278535Y-140497352D01*
X135029647Y-140248464D01*
X135021806Y-140239864D01*
X134796928Y-139969054D01*
X134789914Y-139959766D01*
X134590983Y-139669363D01*
X134584867Y-139659486D01*
X134413571Y-139351951D01*
X134408391Y-139341546D01*
X134266210Y-139019536D01*
X134262006Y-139008684D01*
X134176731Y-138754261D01*
X134150140Y-138674925D01*
X134146958Y-138663739D01*
X134141728Y-138641500D01*
X134066370Y-138321096D01*
X134064231Y-138309657D01*
X134015599Y-137961031D01*
X134014525Y-137949442D01*
X134004135Y-137724703D01*
X135825743Y-137724703D01*
X135863268Y-138009734D01*
X135939129Y-138287036D01*
X135940813Y-138290984D01*
X136045420Y-138536229D01*
X136051923Y-138551476D01*
X136199561Y-138798161D01*
X136379313Y-139022528D01*
X136495199Y-139132500D01*
X136556198Y-139190385D01*
X136587851Y-139220423D01*
X136821317Y-139388186D01*
X136825112Y-139390195D01*
X136825113Y-139390196D01*
X136846869Y-139401715D01*
X137075392Y-139522712D01*
X137345373Y-139621511D01*
X137626264Y-139682755D01*
X137654841Y-139685004D01*
X137849282Y-139700307D01*
X137849291Y-139700307D01*
X137851739Y-139700500D01*
X138007271Y-139700500D01*
X138009407Y-139700354D01*
X138009418Y-139700354D01*
X138217548Y-139686165D01*
X138217554Y-139686164D01*
X138221825Y-139685873D01*
X138226020Y-139685004D01*
X138226022Y-139685004D01*
X138362584Y-139656723D01*
X138503342Y-139627574D01*
X138774343Y-139531607D01*
X139029812Y-139399750D01*
X139033313Y-139397289D01*
X139033317Y-139397287D01*
X139203416Y-139277739D01*
X139265023Y-139234441D01*
X139475622Y-139038740D01*
X139657713Y-138816268D01*
X139807927Y-138571142D01*
X139820889Y-138541615D01*
X139921757Y-138311830D01*
X139923483Y-138307898D01*
X140002244Y-138031406D01*
X140042751Y-137746784D01*
X140042845Y-137728951D01*
X140044235Y-137463583D01*
X140044235Y-137463576D01*
X140044257Y-137459297D01*
X140006732Y-137174266D01*
X139930871Y-136896964D01*
X139818077Y-136632524D01*
X139670439Y-136385839D01*
X139490687Y-136161472D01*
X139354779Y-136032500D01*
X139285258Y-135966527D01*
X139285255Y-135966525D01*
X139282149Y-135963577D01*
X139048683Y-135795814D01*
X139026843Y-135784250D01*
X138825678Y-135677739D01*
X138794608Y-135661288D01*
X138659618Y-135611889D01*
X138528658Y-135563964D01*
X138528656Y-135563963D01*
X138524627Y-135562489D01*
X138243736Y-135501245D01*
X138212685Y-135498801D01*
X138020718Y-135483693D01*
X138020709Y-135483693D01*
X138018261Y-135483500D01*
X137862729Y-135483500D01*
X137860593Y-135483646D01*
X137860582Y-135483646D01*
X137652452Y-135497835D01*
X137652446Y-135497836D01*
X137648175Y-135498127D01*
X137643980Y-135498996D01*
X137643978Y-135498996D01*
X137507417Y-135527276D01*
X137366658Y-135556426D01*
X137095657Y-135652393D01*
X136840188Y-135784250D01*
X136836687Y-135786711D01*
X136836683Y-135786713D01*
X136831295Y-135790500D01*
X136604977Y-135949559D01*
X136589892Y-135963577D01*
X136492646Y-136053944D01*
X136394378Y-136145260D01*
X136212287Y-136367732D01*
X136062073Y-136612858D01*
X135946517Y-136876102D01*
X135867756Y-137152594D01*
X135827249Y-137437216D01*
X135827227Y-137441505D01*
X135827226Y-137441512D01*
X135825765Y-137720417D01*
X135825743Y-137724703D01*
X134004135Y-137724703D01*
X133999997Y-137635183D01*
X134001362Y-137609984D01*
X134001805Y-137607141D01*
X134001805Y-137607139D01*
X134003186Y-137598269D01*
X133999035Y-137566526D01*
X133997972Y-137550284D01*
X133997972Y-137549489D01*
X133995856Y-134422669D01*
X142292001Y-134422669D01*
X142292371Y-134429490D01*
X142297895Y-134480352D01*
X142301521Y-134495604D01*
X142346676Y-134616054D01*
X142355214Y-134631649D01*
X142431715Y-134733724D01*
X142444276Y-134746285D01*
X142546351Y-134822786D01*
X142561946Y-134831324D01*
X142682394Y-134876478D01*
X142697649Y-134880105D01*
X142748514Y-134885631D01*
X142755328Y-134886000D01*
X143377885Y-134886000D01*
X143393124Y-134881525D01*
X143394329Y-134880135D01*
X143396000Y-134872452D01*
X143396000Y-133800115D01*
X143391525Y-133784876D01*
X143390135Y-133783671D01*
X143382452Y-133782000D01*
X142310116Y-133782000D01*
X142294877Y-133786475D01*
X142293672Y-133787865D01*
X142292001Y-133795548D01*
X142292001Y-134422669D01*
X133995856Y-134422669D01*
X133995066Y-133255885D01*
X142292000Y-133255885D01*
X142296475Y-133271124D01*
X142297865Y-133272329D01*
X142305548Y-133274000D01*
X143377885Y-133274000D01*
X143393124Y-133269525D01*
X143394329Y-133268135D01*
X143396000Y-133260452D01*
X143396000Y-132188116D01*
X143391525Y-132172877D01*
X143390135Y-132171672D01*
X143382452Y-132170001D01*
X142755331Y-132170001D01*
X142748510Y-132170371D01*
X142697648Y-132175895D01*
X142682396Y-132179521D01*
X142561946Y-132224676D01*
X142546351Y-132233214D01*
X142444276Y-132309715D01*
X142431715Y-132322276D01*
X142355214Y-132424351D01*
X142346676Y-132439946D01*
X142301522Y-132560394D01*
X142297895Y-132575649D01*
X142292369Y-132626514D01*
X142292000Y-132633328D01*
X142292000Y-133255885D01*
X133995066Y-133255885D01*
X133986625Y-120784095D01*
X158009001Y-120784095D01*
X158009338Y-120790614D01*
X158019257Y-120886206D01*
X158022149Y-120899600D01*
X158073588Y-121053784D01*
X158079761Y-121066962D01*
X158165063Y-121204807D01*
X158174099Y-121216208D01*
X158288829Y-121330739D01*
X158300240Y-121339751D01*
X158438243Y-121424816D01*
X158451424Y-121430963D01*
X158605710Y-121482138D01*
X158619086Y-121485005D01*
X158713438Y-121494672D01*
X158719854Y-121495000D01*
X159369885Y-121495000D01*
X159385124Y-121490525D01*
X159386329Y-121489135D01*
X159388000Y-121481452D01*
X159388000Y-121476884D01*
X159896000Y-121476884D01*
X159900475Y-121492123D01*
X159901865Y-121493328D01*
X159909548Y-121494999D01*
X160564095Y-121494999D01*
X160570614Y-121494662D01*
X160666206Y-121484743D01*
X160679600Y-121481851D01*
X160833784Y-121430412D01*
X160846962Y-121424239D01*
X160984807Y-121338937D01*
X160996208Y-121329901D01*
X161110739Y-121215171D01*
X161119751Y-121203760D01*
X161204816Y-121065757D01*
X161210963Y-121052576D01*
X161262138Y-120898290D01*
X161265005Y-120884914D01*
X161274672Y-120790562D01*
X161275000Y-120784146D01*
X161275000Y-120084115D01*
X161270525Y-120068876D01*
X161269135Y-120067671D01*
X161261452Y-120066000D01*
X159914115Y-120066000D01*
X159898876Y-120070475D01*
X159897671Y-120071865D01*
X159896000Y-120079548D01*
X159896000Y-121476884D01*
X159388000Y-121476884D01*
X159388000Y-120084115D01*
X159383525Y-120068876D01*
X159382135Y-120067671D01*
X159374452Y-120066000D01*
X158027116Y-120066000D01*
X158011877Y-120070475D01*
X158010672Y-120071865D01*
X158009001Y-120079548D01*
X158009001Y-120784095D01*
X133986625Y-120784095D01*
X133986283Y-120278134D01*
X145601500Y-120278134D01*
X145608255Y-120340316D01*
X145659385Y-120476705D01*
X145746739Y-120593261D01*
X145863295Y-120680615D01*
X145999684Y-120731745D01*
X146061866Y-120738500D01*
X146958134Y-120738500D01*
X147020316Y-120731745D01*
X147156705Y-120680615D01*
X147273261Y-120593261D01*
X147278643Y-120586080D01*
X147359174Y-120478628D01*
X147416033Y-120436113D01*
X147486852Y-120431087D01*
X147549145Y-120465147D01*
X147560826Y-120478628D01*
X147641357Y-120586080D01*
X147646739Y-120593261D01*
X147763295Y-120680615D01*
X147899684Y-120731745D01*
X147961866Y-120738500D01*
X148858134Y-120738500D01*
X148920316Y-120731745D01*
X149056705Y-120680615D01*
X149173261Y-120593261D01*
X149260615Y-120476705D01*
X149311745Y-120340316D01*
X149318500Y-120278134D01*
X149318500Y-120155118D01*
X149338502Y-120086997D01*
X149392158Y-120040504D01*
X149462432Y-120030400D01*
X149518561Y-120053182D01*
X149537906Y-120067237D01*
X149543248Y-120071118D01*
X149549276Y-120073802D01*
X149549278Y-120073803D01*
X149599848Y-120096318D01*
X149717712Y-120148794D01*
X149811112Y-120168647D01*
X149898056Y-120187128D01*
X149898061Y-120187128D01*
X149904513Y-120188500D01*
X150095487Y-120188500D01*
X150101939Y-120187128D01*
X150101944Y-120187128D01*
X150188888Y-120168647D01*
X150282288Y-120148794D01*
X150400152Y-120096318D01*
X150450722Y-120073803D01*
X150450724Y-120073802D01*
X150456752Y-120071118D01*
X150462094Y-120067237D01*
X150481439Y-120053182D01*
X150548307Y-120029323D01*
X150617459Y-120045404D01*
X150666939Y-120096318D01*
X150681500Y-120155118D01*
X150681500Y-120278134D01*
X150688255Y-120340316D01*
X150739385Y-120476705D01*
X150826739Y-120593261D01*
X150943295Y-120680615D01*
X151079684Y-120731745D01*
X151141866Y-120738500D01*
X152038134Y-120738500D01*
X152100316Y-120731745D01*
X152236705Y-120680615D01*
X152353261Y-120593261D01*
X152358643Y-120586080D01*
X152439174Y-120478628D01*
X152496033Y-120436113D01*
X152566852Y-120431087D01*
X152629145Y-120465147D01*
X152640826Y-120478628D01*
X152721357Y-120586080D01*
X152726739Y-120593261D01*
X152843295Y-120680615D01*
X152979684Y-120731745D01*
X153041866Y-120738500D01*
X153938134Y-120738500D01*
X154000316Y-120731745D01*
X154136705Y-120680615D01*
X154253261Y-120593261D01*
X154340615Y-120476705D01*
X154391745Y-120340316D01*
X154398500Y-120278134D01*
X154398500Y-119539885D01*
X158009000Y-119539885D01*
X158013475Y-119555124D01*
X158014865Y-119556329D01*
X158022548Y-119558000D01*
X159369885Y-119558000D01*
X159385124Y-119553525D01*
X159386329Y-119552135D01*
X159388000Y-119544452D01*
X159388000Y-119539885D01*
X159896000Y-119539885D01*
X159900475Y-119555124D01*
X159901865Y-119556329D01*
X159909548Y-119558000D01*
X161256884Y-119558000D01*
X161272123Y-119553525D01*
X161273328Y-119552135D01*
X161274999Y-119544452D01*
X161274999Y-118839905D01*
X161274662Y-118833386D01*
X161264743Y-118737794D01*
X161261851Y-118724400D01*
X161210412Y-118570216D01*
X161204239Y-118557038D01*
X161118937Y-118419193D01*
X161109901Y-118407792D01*
X160995171Y-118293261D01*
X160983760Y-118284249D01*
X160845757Y-118199184D01*
X160832576Y-118193037D01*
X160678290Y-118141862D01*
X160664914Y-118138995D01*
X160570562Y-118129328D01*
X160564145Y-118129000D01*
X159914115Y-118129000D01*
X159898876Y-118133475D01*
X159897671Y-118134865D01*
X159896000Y-118142548D01*
X159896000Y-119539885D01*
X159388000Y-119539885D01*
X159388000Y-118147116D01*
X159383525Y-118131877D01*
X159382135Y-118130672D01*
X159374452Y-118129001D01*
X158719905Y-118129001D01*
X158713386Y-118129338D01*
X158617794Y-118139257D01*
X158604400Y-118142149D01*
X158450216Y-118193588D01*
X158437038Y-118199761D01*
X158299193Y-118285063D01*
X158287792Y-118294099D01*
X158173261Y-118408829D01*
X158164249Y-118420240D01*
X158079184Y-118558243D01*
X158073037Y-118571424D01*
X158021862Y-118725710D01*
X158018995Y-118739086D01*
X158009328Y-118833438D01*
X158009000Y-118839855D01*
X158009000Y-119539885D01*
X154398500Y-119539885D01*
X154398500Y-118281866D01*
X154391745Y-118219684D01*
X154340615Y-118083295D01*
X154253261Y-117966739D01*
X154136705Y-117879385D01*
X154000316Y-117828255D01*
X153938134Y-117821500D01*
X153529595Y-117821500D01*
X153461474Y-117801498D01*
X153440500Y-117784595D01*
X153357332Y-117701427D01*
X153330940Y-117653095D01*
X155142001Y-117653095D01*
X155142338Y-117659614D01*
X155152257Y-117755206D01*
X155155149Y-117768600D01*
X155206588Y-117922784D01*
X155212761Y-117935962D01*
X155298063Y-118073807D01*
X155307099Y-118085208D01*
X155421829Y-118199739D01*
X155433240Y-118208751D01*
X155571243Y-118293816D01*
X155584424Y-118299963D01*
X155738710Y-118351138D01*
X155752086Y-118354005D01*
X155846438Y-118363672D01*
X155852854Y-118364000D01*
X156077885Y-118364000D01*
X156093124Y-118359525D01*
X156094329Y-118358135D01*
X156096000Y-118350452D01*
X156096000Y-118345884D01*
X156604000Y-118345884D01*
X156608475Y-118361123D01*
X156609865Y-118362328D01*
X156617548Y-118363999D01*
X156847095Y-118363999D01*
X156853614Y-118363662D01*
X156949206Y-118353743D01*
X156962600Y-118350851D01*
X157116784Y-118299412D01*
X157129962Y-118293239D01*
X157267807Y-118207937D01*
X157279208Y-118198901D01*
X157393739Y-118084171D01*
X157402751Y-118072760D01*
X157487816Y-117934757D01*
X157493963Y-117921576D01*
X157545138Y-117767290D01*
X157548005Y-117753914D01*
X157557672Y-117659562D01*
X157558000Y-117653146D01*
X157558000Y-117528115D01*
X157553525Y-117512876D01*
X157552135Y-117511671D01*
X157544452Y-117510000D01*
X156622115Y-117510000D01*
X156606876Y-117514475D01*
X156605671Y-117515865D01*
X156604000Y-117523548D01*
X156604000Y-118345884D01*
X156096000Y-118345884D01*
X156096000Y-117528115D01*
X156091525Y-117512876D01*
X156090135Y-117511671D01*
X156082452Y-117510000D01*
X155160116Y-117510000D01*
X155144877Y-117514475D01*
X155143672Y-117515865D01*
X155142001Y-117523548D01*
X155142001Y-117653095D01*
X153330940Y-117653095D01*
X153323306Y-117639115D01*
X153328371Y-117568300D01*
X153345601Y-117536767D01*
X153385229Y-117483891D01*
X153390615Y-117476705D01*
X153441745Y-117340316D01*
X153448500Y-117278134D01*
X153448500Y-116295595D01*
X153468502Y-116227474D01*
X153485405Y-116206499D01*
X153765501Y-115926404D01*
X153827813Y-115892379D01*
X153854596Y-115889500D01*
X155113219Y-115889500D01*
X155181340Y-115909502D01*
X155220363Y-115949197D01*
X155301522Y-116080348D01*
X155306704Y-116085521D01*
X155388463Y-116167138D01*
X155422542Y-116229421D01*
X155417539Y-116300241D01*
X155388618Y-116345329D01*
X155306261Y-116427829D01*
X155297249Y-116439240D01*
X155212184Y-116577243D01*
X155206037Y-116590424D01*
X155154862Y-116744710D01*
X155151995Y-116758086D01*
X155142328Y-116852438D01*
X155142000Y-116858855D01*
X155142000Y-116983885D01*
X155146475Y-116999124D01*
X155147865Y-117000329D01*
X155155548Y-117002000D01*
X157539884Y-117002000D01*
X157555123Y-116997525D01*
X157556328Y-116996135D01*
X157557999Y-116988452D01*
X157557999Y-116858905D01*
X157557662Y-116852386D01*
X157547743Y-116756794D01*
X157544851Y-116743400D01*
X157493412Y-116589216D01*
X157487239Y-116576038D01*
X157401937Y-116438193D01*
X157392901Y-116426792D01*
X157311538Y-116345570D01*
X157277459Y-116283287D01*
X157282462Y-116212467D01*
X157311383Y-116167380D01*
X157394130Y-116084488D01*
X157394134Y-116084483D01*
X157399305Y-116079303D01*
X157444217Y-116006443D01*
X157488275Y-115934968D01*
X157488276Y-115934966D01*
X157492115Y-115928738D01*
X157518564Y-115848995D01*
X157545632Y-115767389D01*
X157545632Y-115767387D01*
X157547797Y-115760861D01*
X157558500Y-115656400D01*
X157558500Y-114855600D01*
X157555663Y-114828255D01*
X157548238Y-114756692D01*
X157548237Y-114756688D01*
X157547526Y-114749834D01*
X157544672Y-114741278D01*
X157498971Y-114604298D01*
X157491550Y-114582054D01*
X157398478Y-114431652D01*
X157273303Y-114306695D01*
X157122738Y-114213885D01*
X157069832Y-114196337D01*
X157011473Y-114155906D01*
X156989371Y-114102703D01*
X159955743Y-114102703D01*
X159993268Y-114387734D01*
X160069129Y-114665036D01*
X160070813Y-114668984D01*
X160162855Y-114884771D01*
X160181923Y-114929476D01*
X160329561Y-115176161D01*
X160509313Y-115400528D01*
X160717851Y-115598423D01*
X160802985Y-115659598D01*
X160945723Y-115762166D01*
X160951317Y-115766186D01*
X160955112Y-115768195D01*
X160955113Y-115768196D01*
X160976869Y-115779715D01*
X161205392Y-115900712D01*
X161475373Y-115999511D01*
X161756264Y-116060755D01*
X161784841Y-116063004D01*
X161979282Y-116078307D01*
X161979291Y-116078307D01*
X161981739Y-116078500D01*
X162137271Y-116078500D01*
X162139407Y-116078354D01*
X162139418Y-116078354D01*
X162347548Y-116064165D01*
X162347554Y-116064164D01*
X162351825Y-116063873D01*
X162356020Y-116063004D01*
X162356022Y-116063004D01*
X162492584Y-116034723D01*
X162633342Y-116005574D01*
X162904343Y-115909607D01*
X163159812Y-115777750D01*
X163163313Y-115775289D01*
X163163317Y-115775287D01*
X163327925Y-115659598D01*
X163395023Y-115612441D01*
X163605622Y-115416740D01*
X163787713Y-115194268D01*
X163937927Y-114949142D01*
X164053483Y-114685898D01*
X164057710Y-114671061D01*
X164131068Y-114413534D01*
X164132244Y-114409406D01*
X164166643Y-114167702D01*
X164172146Y-114129036D01*
X164172146Y-114129034D01*
X164172751Y-114124784D01*
X164172845Y-114106951D01*
X164174235Y-113841583D01*
X164174235Y-113841576D01*
X164174257Y-113837297D01*
X164136732Y-113552266D01*
X164060871Y-113274964D01*
X164028164Y-113198285D01*
X163949763Y-113014476D01*
X163949761Y-113014472D01*
X163948077Y-113010524D01*
X163800439Y-112763839D01*
X163620687Y-112539472D01*
X163412149Y-112341577D01*
X163178683Y-112173814D01*
X163156843Y-112162250D01*
X163133654Y-112149972D01*
X162924608Y-112039288D01*
X162654627Y-111940489D01*
X162373736Y-111879245D01*
X162342685Y-111876801D01*
X162150718Y-111861693D01*
X162150709Y-111861693D01*
X162148261Y-111861500D01*
X161992729Y-111861500D01*
X161990593Y-111861646D01*
X161990582Y-111861646D01*
X161782452Y-111875835D01*
X161782446Y-111875836D01*
X161778175Y-111876127D01*
X161773980Y-111876996D01*
X161773978Y-111876996D01*
X161637416Y-111905277D01*
X161496658Y-111934426D01*
X161225657Y-112030393D01*
X160970188Y-112162250D01*
X160966687Y-112164711D01*
X160966683Y-112164713D01*
X160956594Y-112171804D01*
X160734977Y-112327559D01*
X160719892Y-112341577D01*
X160614122Y-112439865D01*
X160524378Y-112523260D01*
X160342287Y-112745732D01*
X160192073Y-112990858D01*
X160076517Y-113254102D01*
X160075342Y-113258229D01*
X160075341Y-113258230D01*
X160038252Y-113388433D01*
X159997756Y-113530594D01*
X159957249Y-113815216D01*
X159957227Y-113819505D01*
X159957226Y-113819512D01*
X159955765Y-114098417D01*
X159955743Y-114102703D01*
X156989371Y-114102703D01*
X156984236Y-114090342D01*
X156983500Y-114076744D01*
X156983500Y-113388433D01*
X157003502Y-113320312D01*
X157045678Y-113281000D01*
X157046705Y-113280615D01*
X157163261Y-113193261D01*
X157250615Y-113076705D01*
X157301745Y-112940316D01*
X157308500Y-112878134D01*
X157308500Y-111481866D01*
X157301745Y-111419684D01*
X157250615Y-111283295D01*
X157163261Y-111166739D01*
X157046705Y-111079385D01*
X157020768Y-111069662D01*
X156964005Y-111027022D01*
X156939304Y-110960460D01*
X156940076Y-110935234D01*
X156944962Y-110898122D01*
X156944962Y-110898121D01*
X156945500Y-110894035D01*
X156945500Y-109765965D01*
X156930173Y-109649543D01*
X156883853Y-109537716D01*
X156876264Y-109467129D01*
X156908043Y-109403642D01*
X156969101Y-109367414D01*
X157000262Y-109363500D01*
X161474427Y-109363500D01*
X161485610Y-109364027D01*
X161493103Y-109365702D01*
X161501029Y-109365453D01*
X161501030Y-109365453D01*
X161561180Y-109363562D01*
X161565139Y-109363500D01*
X161593050Y-109363500D01*
X161596985Y-109363003D01*
X161597050Y-109362995D01*
X161608887Y-109362062D01*
X161641145Y-109361048D01*
X161645164Y-109360922D01*
X161653083Y-109360673D01*
X161672537Y-109355021D01*
X161691894Y-109351013D01*
X161704124Y-109349468D01*
X161704125Y-109349468D01*
X161711991Y-109348474D01*
X161719362Y-109345555D01*
X161719364Y-109345555D01*
X161753106Y-109332196D01*
X161764336Y-109328351D01*
X161799177Y-109318229D01*
X161799178Y-109318229D01*
X161806787Y-109316018D01*
X161813606Y-109311985D01*
X161813611Y-109311983D01*
X161824222Y-109305707D01*
X161841970Y-109297012D01*
X161860811Y-109289552D01*
X161867228Y-109284890D01*
X161874173Y-109281072D01*
X161875332Y-109283181D01*
X161938985Y-109262500D01*
X162477328Y-109262500D01*
X162539510Y-109255745D01*
X162675899Y-109204615D01*
X162792455Y-109117261D01*
X162850815Y-109039392D01*
X162878368Y-109002628D01*
X162935227Y-108960113D01*
X163006046Y-108955087D01*
X163068339Y-108989147D01*
X163080020Y-109002628D01*
X163107573Y-109039392D01*
X163165933Y-109117261D01*
X163282489Y-109204615D01*
X163418878Y-109255745D01*
X163481060Y-109262500D01*
X164177328Y-109262500D01*
X164239510Y-109255745D01*
X164375899Y-109204615D01*
X164492455Y-109117261D01*
X164579809Y-109000705D01*
X164630939Y-108864316D01*
X164637694Y-108802134D01*
X164637694Y-108312529D01*
X164657696Y-108244408D01*
X164670058Y-108228219D01*
X164729815Y-108161852D01*
X164729816Y-108161851D01*
X164734234Y-108156944D01*
X164829721Y-107991556D01*
X164888736Y-107809928D01*
X164908698Y-107620000D01*
X164896345Y-107502469D01*
X164889426Y-107436635D01*
X164889426Y-107436633D01*
X164888736Y-107430072D01*
X164829721Y-107248444D01*
X164734234Y-107083056D01*
X164606447Y-106941134D01*
X164451946Y-106828882D01*
X164445918Y-106826198D01*
X164445916Y-106826197D01*
X164283513Y-106753891D01*
X164283512Y-106753891D01*
X164277482Y-106751206D01*
X164164764Y-106727247D01*
X164102291Y-106693518D01*
X164067969Y-106631369D01*
X164072697Y-106560530D01*
X164114973Y-106503492D01*
X164164764Y-106480753D01*
X164277482Y-106456794D01*
X164283513Y-106454109D01*
X164445916Y-106381803D01*
X164445918Y-106381802D01*
X164451946Y-106379118D01*
X164606447Y-106266866D01*
X164734234Y-106124944D01*
X164829721Y-105959556D01*
X164888736Y-105777928D01*
X164890993Y-105756460D01*
X164908008Y-105594565D01*
X164908698Y-105588000D01*
X164888736Y-105398072D01*
X164829721Y-105216444D01*
X164734234Y-105051056D01*
X164717615Y-105032598D01*
X164670058Y-104979781D01*
X164639340Y-104915774D01*
X164637694Y-104895471D01*
X164637694Y-104405866D01*
X164630939Y-104343684D01*
X164579809Y-104207295D01*
X164492455Y-104090739D01*
X164375899Y-104003385D01*
X164239510Y-103952255D01*
X164177328Y-103945500D01*
X163481060Y-103945500D01*
X163418878Y-103952255D01*
X163282489Y-104003385D01*
X163165933Y-104090739D01*
X163160552Y-104097919D01*
X163160551Y-104097920D01*
X163080020Y-104205372D01*
X163023161Y-104247887D01*
X162952342Y-104252913D01*
X162890049Y-104218853D01*
X162878368Y-104205372D01*
X162797837Y-104097920D01*
X162797836Y-104097919D01*
X162792455Y-104090739D01*
X162675899Y-104003385D01*
X162539510Y-103952255D01*
X162477328Y-103945500D01*
X161781060Y-103945500D01*
X161718878Y-103952255D01*
X161582489Y-104003385D01*
X161465933Y-104090739D01*
X161378579Y-104207295D01*
X161327449Y-104343684D01*
X161320694Y-104405866D01*
X161320694Y-105702134D01*
X161327449Y-105764316D01*
X161378579Y-105900705D01*
X161426975Y-105965279D01*
X161465933Y-106017261D01*
X161464329Y-106018463D01*
X161492815Y-106070630D01*
X161495694Y-106097413D01*
X161495694Y-107110587D01*
X161475692Y-107178708D01*
X161466092Y-107190620D01*
X161465933Y-107190739D01*
X161378579Y-107307295D01*
X161327449Y-107443684D01*
X161320694Y-107505866D01*
X161320694Y-107970500D01*
X161300692Y-108038621D01*
X161247036Y-108085114D01*
X161194694Y-108096500D01*
X156310144Y-108096500D01*
X156253432Y-108103665D01*
X156199068Y-108110532D01*
X156199065Y-108110533D01*
X156191203Y-108111526D01*
X156042383Y-108170448D01*
X156035972Y-108175106D01*
X156035970Y-108175107D01*
X155977638Y-108217488D01*
X155912893Y-108264528D01*
X155810867Y-108387856D01*
X155807494Y-108395023D01*
X155807492Y-108395027D01*
X155795455Y-108420608D01*
X155742717Y-108532682D01*
X155712725Y-108689906D01*
X155722775Y-108849650D01*
X155725224Y-108857186D01*
X155725224Y-108857188D01*
X155769124Y-108992297D01*
X155772236Y-109001875D01*
X155858000Y-109137018D01*
X155919667Y-109194927D01*
X155924159Y-109199145D01*
X155960124Y-109260357D01*
X155957287Y-109331297D01*
X155928333Y-109377945D01*
X155925284Y-109380284D01*
X155829831Y-109504681D01*
X155769827Y-109649543D01*
X155754500Y-109765965D01*
X155754500Y-110894035D01*
X155755038Y-110898121D01*
X155755038Y-110898122D01*
X155759924Y-110935234D01*
X155748985Y-111005382D01*
X155701857Y-111058481D01*
X155679236Y-111069660D01*
X155653295Y-111079385D01*
X155536739Y-111166739D01*
X155449385Y-111283295D01*
X155398255Y-111419684D01*
X155391500Y-111481866D01*
X155391500Y-112878134D01*
X155398255Y-112940316D01*
X155449385Y-113076705D01*
X155536739Y-113193261D01*
X155653295Y-113280615D01*
X155653951Y-113280861D01*
X155701157Y-113328175D01*
X155716500Y-113388433D01*
X155716500Y-114076803D01*
X155696498Y-114144924D01*
X155642842Y-114191417D01*
X155630377Y-114196326D01*
X155582998Y-114212133D01*
X155582996Y-114212134D01*
X155576054Y-114214450D01*
X155425652Y-114307522D01*
X155300695Y-114432697D01*
X155296855Y-114438927D01*
X155296854Y-114438928D01*
X155220611Y-114562616D01*
X155167838Y-114610110D01*
X155113351Y-114622500D01*
X153716794Y-114622500D01*
X153697080Y-114620948D01*
X153678672Y-114618032D01*
X153670913Y-114616552D01*
X153616091Y-114604298D01*
X153608167Y-114604547D01*
X153608122Y-114604548D01*
X153607857Y-114604557D01*
X153584186Y-114603067D01*
X153583890Y-114603020D01*
X153583885Y-114603020D01*
X153576057Y-114601780D01*
X153568165Y-114602526D01*
X153520153Y-114607064D01*
X153512255Y-114607561D01*
X153478985Y-114608607D01*
X153456111Y-114609326D01*
X153448202Y-114611624D01*
X153424904Y-114616068D01*
X153424627Y-114616094D01*
X153416708Y-114616843D01*
X153363864Y-114635868D01*
X153356336Y-114638314D01*
X153310016Y-114651771D01*
X153310014Y-114651772D01*
X153302407Y-114653982D01*
X153295587Y-114658015D01*
X153295581Y-114658018D01*
X153295312Y-114658177D01*
X153273868Y-114668267D01*
X153273577Y-114668372D01*
X153273569Y-114668376D01*
X153266111Y-114671061D01*
X153219635Y-114702646D01*
X153213004Y-114706855D01*
X153164638Y-114735458D01*
X153158818Y-114741278D01*
X153140547Y-114756394D01*
X153140290Y-114756569D01*
X153133729Y-114761028D01*
X153115540Y-114781659D01*
X153055489Y-114819528D01*
X153007421Y-114823595D01*
X152991533Y-114821869D01*
X152991529Y-114821869D01*
X152988134Y-114821500D01*
X152091866Y-114821500D01*
X152029684Y-114828255D01*
X151893295Y-114879385D01*
X151776739Y-114966739D01*
X151689385Y-115083295D01*
X151638255Y-115219684D01*
X151631500Y-115281866D01*
X151631500Y-117020500D01*
X151611498Y-117088621D01*
X151557842Y-117135114D01*
X151505500Y-117146500D01*
X151216200Y-117146500D01*
X151148079Y-117126498D01*
X151128853Y-117110157D01*
X151128580Y-117110460D01*
X151123668Y-117106037D01*
X151119253Y-117101134D01*
X151008270Y-117020500D01*
X150970094Y-116992763D01*
X150970093Y-116992762D01*
X150964752Y-116988882D01*
X150958724Y-116986198D01*
X150958722Y-116986197D01*
X150796319Y-116913891D01*
X150796318Y-116913891D01*
X150790288Y-116911206D01*
X150696887Y-116891353D01*
X150609944Y-116872872D01*
X150609939Y-116872872D01*
X150603487Y-116871500D01*
X150412513Y-116871500D01*
X150406061Y-116872872D01*
X150406056Y-116872872D01*
X150319113Y-116891353D01*
X150225712Y-116911206D01*
X150219682Y-116913891D01*
X150219681Y-116913891D01*
X150057278Y-116986197D01*
X150057276Y-116986198D01*
X150051248Y-116988882D01*
X150045907Y-116992762D01*
X150045906Y-116992763D01*
X150007730Y-117020500D01*
X149896747Y-117101134D01*
X149892332Y-117106037D01*
X149887420Y-117110460D01*
X149886295Y-117109211D01*
X149832986Y-117142051D01*
X149799800Y-117146500D01*
X148494500Y-117146500D01*
X148426379Y-117126498D01*
X148379886Y-117072842D01*
X148368500Y-117020500D01*
X148368500Y-116310216D01*
X148369190Y-116297045D01*
X148372814Y-116262565D01*
X148373504Y-116256000D01*
X148369190Y-116214955D01*
X148368500Y-116201784D01*
X148368500Y-115281866D01*
X148361745Y-115219684D01*
X148310615Y-115083295D01*
X148223261Y-114966739D01*
X148106705Y-114879385D01*
X147970316Y-114828255D01*
X147908134Y-114821500D01*
X147011866Y-114821500D01*
X146949684Y-114828255D01*
X146813295Y-114879385D01*
X146696739Y-114966739D01*
X146609385Y-115083295D01*
X146558255Y-115219684D01*
X146551500Y-115281866D01*
X146551500Y-116201784D01*
X146550810Y-116214955D01*
X146546496Y-116256000D01*
X146547186Y-116262565D01*
X146550810Y-116297045D01*
X146551500Y-116310216D01*
X146551500Y-117278134D01*
X146558255Y-117340316D01*
X146609385Y-117476705D01*
X146614771Y-117483891D01*
X146654399Y-117536767D01*
X146679247Y-117603273D01*
X146664194Y-117672656D01*
X146642668Y-117701427D01*
X146559500Y-117784595D01*
X146497188Y-117818621D01*
X146470405Y-117821500D01*
X146061866Y-117821500D01*
X145999684Y-117828255D01*
X145863295Y-117879385D01*
X145746739Y-117966739D01*
X145659385Y-118083295D01*
X145608255Y-118219684D01*
X145601500Y-118281866D01*
X145601500Y-120278134D01*
X133986283Y-120278134D01*
X133984506Y-117653095D01*
X142442001Y-117653095D01*
X142442338Y-117659614D01*
X142452257Y-117755206D01*
X142455149Y-117768600D01*
X142506588Y-117922784D01*
X142512761Y-117935962D01*
X142598063Y-118073807D01*
X142607099Y-118085208D01*
X142721829Y-118199739D01*
X142733240Y-118208751D01*
X142871243Y-118293816D01*
X142884424Y-118299963D01*
X143038710Y-118351138D01*
X143052086Y-118354005D01*
X143146438Y-118363672D01*
X143152854Y-118364000D01*
X143377885Y-118364000D01*
X143393124Y-118359525D01*
X143394329Y-118358135D01*
X143396000Y-118350452D01*
X143396000Y-118345884D01*
X143904000Y-118345884D01*
X143908475Y-118361123D01*
X143909865Y-118362328D01*
X143917548Y-118363999D01*
X144147095Y-118363999D01*
X144153614Y-118363662D01*
X144249206Y-118353743D01*
X144262600Y-118350851D01*
X144416784Y-118299412D01*
X144429962Y-118293239D01*
X144567807Y-118207937D01*
X144579208Y-118198901D01*
X144693739Y-118084171D01*
X144702751Y-118072760D01*
X144787816Y-117934757D01*
X144793963Y-117921576D01*
X144845138Y-117767290D01*
X144848005Y-117753914D01*
X144857672Y-117659562D01*
X144858000Y-117653146D01*
X144858000Y-117528115D01*
X144853525Y-117512876D01*
X144852135Y-117511671D01*
X144844452Y-117510000D01*
X143922115Y-117510000D01*
X143906876Y-117514475D01*
X143905671Y-117515865D01*
X143904000Y-117523548D01*
X143904000Y-118345884D01*
X143396000Y-118345884D01*
X143396000Y-117528115D01*
X143391525Y-117512876D01*
X143390135Y-117511671D01*
X143382452Y-117510000D01*
X142460116Y-117510000D01*
X142444877Y-117514475D01*
X142443672Y-117515865D01*
X142442001Y-117523548D01*
X142442001Y-117653095D01*
X133984506Y-117653095D01*
X133982103Y-114102703D01*
X135825743Y-114102703D01*
X135863268Y-114387734D01*
X135939129Y-114665036D01*
X135940813Y-114668984D01*
X136032855Y-114884771D01*
X136051923Y-114929476D01*
X136199561Y-115176161D01*
X136379313Y-115400528D01*
X136587851Y-115598423D01*
X136672985Y-115659598D01*
X136815723Y-115762166D01*
X136821317Y-115766186D01*
X136825112Y-115768195D01*
X136825113Y-115768196D01*
X136846869Y-115779715D01*
X137075392Y-115900712D01*
X137345373Y-115999511D01*
X137626264Y-116060755D01*
X137654841Y-116063004D01*
X137849282Y-116078307D01*
X137849291Y-116078307D01*
X137851739Y-116078500D01*
X138007271Y-116078500D01*
X138009407Y-116078354D01*
X138009418Y-116078354D01*
X138217548Y-116064165D01*
X138217554Y-116064164D01*
X138221825Y-116063873D01*
X138226020Y-116063004D01*
X138226022Y-116063004D01*
X138362584Y-116034723D01*
X138503342Y-116005574D01*
X138774343Y-115909607D01*
X139029812Y-115777750D01*
X139033313Y-115775289D01*
X139033317Y-115775287D01*
X139197925Y-115659598D01*
X139202475Y-115656400D01*
X142441500Y-115656400D01*
X142452474Y-115762166D01*
X142454655Y-115768702D01*
X142454655Y-115768704D01*
X142457673Y-115777750D01*
X142508450Y-115929946D01*
X142601522Y-116080348D01*
X142606704Y-116085521D01*
X142688463Y-116167138D01*
X142722542Y-116229421D01*
X142717539Y-116300241D01*
X142688618Y-116345329D01*
X142606261Y-116427829D01*
X142597249Y-116439240D01*
X142512184Y-116577243D01*
X142506037Y-116590424D01*
X142454862Y-116744710D01*
X142451995Y-116758086D01*
X142442328Y-116852438D01*
X142442000Y-116858855D01*
X142442000Y-116983885D01*
X142446475Y-116999124D01*
X142447865Y-117000329D01*
X142455548Y-117002000D01*
X144839884Y-117002000D01*
X144855123Y-116997525D01*
X144856328Y-116996135D01*
X144857999Y-116988452D01*
X144857999Y-116858905D01*
X144857662Y-116852386D01*
X144847743Y-116756794D01*
X144844851Y-116743400D01*
X144793412Y-116589216D01*
X144787239Y-116576038D01*
X144701937Y-116438193D01*
X144692901Y-116426792D01*
X144611538Y-116345570D01*
X144577459Y-116283287D01*
X144582462Y-116212467D01*
X144611383Y-116167380D01*
X144694130Y-116084488D01*
X144694134Y-116084483D01*
X144699305Y-116079303D01*
X144744217Y-116006443D01*
X144788275Y-115934968D01*
X144788276Y-115934966D01*
X144792115Y-115928738D01*
X144818564Y-115848995D01*
X144845632Y-115767389D01*
X144845632Y-115767387D01*
X144847797Y-115760861D01*
X144858500Y-115656400D01*
X144858500Y-114855600D01*
X144855663Y-114828255D01*
X144848238Y-114756692D01*
X144848237Y-114756688D01*
X144847526Y-114749834D01*
X144844672Y-114741278D01*
X144798971Y-114604298D01*
X144791550Y-114582054D01*
X144698478Y-114431652D01*
X144573303Y-114306695D01*
X144422738Y-114213885D01*
X144369832Y-114196337D01*
X144311473Y-114155906D01*
X144284236Y-114090342D01*
X144283500Y-114076744D01*
X144283500Y-113388433D01*
X144303502Y-113320312D01*
X144345678Y-113281000D01*
X144346705Y-113280615D01*
X144463261Y-113193261D01*
X144550615Y-113076705D01*
X144601745Y-112940316D01*
X144608500Y-112878134D01*
X144608500Y-112874669D01*
X145232001Y-112874669D01*
X145232371Y-112881490D01*
X145237895Y-112932352D01*
X145241521Y-112947604D01*
X145286676Y-113068054D01*
X145295214Y-113083649D01*
X145371715Y-113185724D01*
X145384276Y-113198285D01*
X145486351Y-113274786D01*
X145501946Y-113283324D01*
X145622394Y-113328478D01*
X145637649Y-113332105D01*
X145688514Y-113337631D01*
X145695328Y-113338000D01*
X145917885Y-113338000D01*
X145933124Y-113333525D01*
X145934329Y-113332135D01*
X145936000Y-113324452D01*
X145936000Y-113319884D01*
X146444000Y-113319884D01*
X146448475Y-113335123D01*
X146449865Y-113336328D01*
X146457548Y-113337999D01*
X146684669Y-113337999D01*
X146691490Y-113337629D01*
X146742352Y-113332105D01*
X146757604Y-113328479D01*
X146878054Y-113283324D01*
X146893649Y-113274786D01*
X146995724Y-113198285D01*
X147008285Y-113185724D01*
X147084786Y-113083649D01*
X147093324Y-113068054D01*
X147138478Y-112947606D01*
X147142105Y-112932351D01*
X147147631Y-112881486D01*
X147148000Y-112874672D01*
X147148000Y-112452115D01*
X147143525Y-112436876D01*
X147142135Y-112435671D01*
X147134452Y-112434000D01*
X146462115Y-112434000D01*
X146446876Y-112438475D01*
X146445671Y-112439865D01*
X146444000Y-112447548D01*
X146444000Y-113319884D01*
X145936000Y-113319884D01*
X145936000Y-112452115D01*
X145931525Y-112436876D01*
X145930135Y-112435671D01*
X145922452Y-112434000D01*
X145250116Y-112434000D01*
X145234877Y-112438475D01*
X145233672Y-112439865D01*
X145232001Y-112447548D01*
X145232001Y-112874669D01*
X144608500Y-112874669D01*
X144608500Y-111481866D01*
X144601745Y-111419684D01*
X144550615Y-111283295D01*
X144463261Y-111166739D01*
X144346705Y-111079385D01*
X144320768Y-111069662D01*
X144264005Y-111027022D01*
X144239304Y-110960460D01*
X144240076Y-110935234D01*
X144244065Y-110904934D01*
X145206500Y-110904934D01*
X145206823Y-110908113D01*
X145219438Y-111032306D01*
X145221619Y-111053780D01*
X145231331Y-111084771D01*
X145278938Y-111236683D01*
X145280223Y-111307668D01*
X145276686Y-111318592D01*
X145241522Y-111412391D01*
X145237895Y-111427649D01*
X145232369Y-111478514D01*
X145232000Y-111485328D01*
X145232000Y-111907885D01*
X145236475Y-111923124D01*
X145237865Y-111924329D01*
X145245548Y-111926000D01*
X147129884Y-111926000D01*
X147145123Y-111921525D01*
X147146328Y-111920135D01*
X147147999Y-111912452D01*
X147147999Y-111485331D01*
X147147629Y-111478510D01*
X147142105Y-111427648D01*
X147138479Y-111412397D01*
X147101536Y-111313852D01*
X147096353Y-111243045D01*
X147103881Y-111219581D01*
X147129762Y-111159774D01*
X147132298Y-111153914D01*
X147173156Y-110958334D01*
X147173500Y-110951771D01*
X147173500Y-110904934D01*
X147746500Y-110904934D01*
X147746823Y-110908113D01*
X147759438Y-111032306D01*
X147761619Y-111053780D01*
X147763526Y-111059865D01*
X147763527Y-111059870D01*
X147818695Y-111235909D01*
X147819979Y-111306894D01*
X147816444Y-111317816D01*
X147778255Y-111419684D01*
X147771500Y-111481866D01*
X147771500Y-112878134D01*
X147778255Y-112940316D01*
X147829385Y-113076705D01*
X147916739Y-113193261D01*
X148033295Y-113280615D01*
X148169684Y-113331745D01*
X148231866Y-113338500D01*
X149228134Y-113338500D01*
X149290316Y-113331745D01*
X149426705Y-113280615D01*
X149543261Y-113193261D01*
X149630615Y-113076705D01*
X149681745Y-112940316D01*
X149688500Y-112878134D01*
X149688500Y-111481866D01*
X149681745Y-111419684D01*
X149641822Y-111313189D01*
X149636639Y-111242384D01*
X149644167Y-111218920D01*
X149669762Y-111159774D01*
X149672298Y-111153914D01*
X149713156Y-110958334D01*
X149713500Y-110951771D01*
X149713500Y-110904934D01*
X150286500Y-110904934D01*
X150286823Y-110908113D01*
X150299438Y-111032306D01*
X150301619Y-111053780D01*
X150303526Y-111059865D01*
X150303527Y-111059870D01*
X150358695Y-111235909D01*
X150359979Y-111306894D01*
X150356444Y-111317816D01*
X150318255Y-111419684D01*
X150311500Y-111481866D01*
X150311500Y-112878134D01*
X150318255Y-112940316D01*
X150369385Y-113076705D01*
X150456739Y-113193261D01*
X150573295Y-113280615D01*
X150709684Y-113331745D01*
X150771866Y-113338500D01*
X151768134Y-113338500D01*
X151830316Y-113331745D01*
X151966705Y-113280615D01*
X152083261Y-113193261D01*
X152170615Y-113076705D01*
X152221745Y-112940316D01*
X152228500Y-112878134D01*
X152228500Y-111481866D01*
X152221745Y-111419684D01*
X152181822Y-111313189D01*
X152176639Y-111242384D01*
X152184167Y-111218920D01*
X152209762Y-111159774D01*
X152212298Y-111153914D01*
X152253156Y-110958334D01*
X152253500Y-110951771D01*
X152253500Y-110904934D01*
X152826500Y-110904934D01*
X152826823Y-110908113D01*
X152839438Y-111032306D01*
X152841619Y-111053780D01*
X152843526Y-111059865D01*
X152843527Y-111059870D01*
X152898695Y-111235909D01*
X152899979Y-111306894D01*
X152896444Y-111317816D01*
X152858255Y-111419684D01*
X152851500Y-111481866D01*
X152851500Y-112878134D01*
X152858255Y-112940316D01*
X152909385Y-113076705D01*
X152996739Y-113193261D01*
X153113295Y-113280615D01*
X153249684Y-113331745D01*
X153311866Y-113338500D01*
X154308134Y-113338500D01*
X154370316Y-113331745D01*
X154506705Y-113280615D01*
X154623261Y-113193261D01*
X154710615Y-113076705D01*
X154761745Y-112940316D01*
X154768500Y-112878134D01*
X154768500Y-111481866D01*
X154761745Y-111419684D01*
X154721822Y-111313189D01*
X154716639Y-111242384D01*
X154724167Y-111218920D01*
X154749762Y-111159774D01*
X154752298Y-111153914D01*
X154793156Y-110958334D01*
X154793500Y-110951771D01*
X154793500Y-109755066D01*
X154778381Y-109606220D01*
X154718631Y-109415560D01*
X154702709Y-109386835D01*
X154661217Y-109311983D01*
X154621765Y-109240809D01*
X154561666Y-109170690D01*
X154495891Y-109093948D01*
X154495890Y-109093947D01*
X154491739Y-109089104D01*
X154427651Y-109039392D01*
X154338907Y-108970555D01*
X154338904Y-108970553D01*
X154333863Y-108966643D01*
X154328137Y-108963825D01*
X154328133Y-108963823D01*
X154160318Y-108881248D01*
X154154589Y-108878429D01*
X154044254Y-108849689D01*
X153967420Y-108829675D01*
X153967417Y-108829675D01*
X153961238Y-108828065D01*
X153867744Y-108823165D01*
X153768089Y-108817942D01*
X153768085Y-108817942D01*
X153761708Y-108817608D01*
X153564152Y-108847486D01*
X153558165Y-108849689D01*
X153558164Y-108849689D01*
X153472389Y-108881248D01*
X153376639Y-108916477D01*
X153295730Y-108966643D01*
X153228108Y-109008571D01*
X153206828Y-109021765D01*
X153061656Y-109159047D01*
X152947054Y-109322716D01*
X152867702Y-109506086D01*
X152826844Y-109701666D01*
X152826500Y-109708229D01*
X152826500Y-110904934D01*
X152253500Y-110904934D01*
X152253500Y-109755066D01*
X152238381Y-109606220D01*
X152178631Y-109415560D01*
X152162709Y-109386835D01*
X152121217Y-109311983D01*
X152081765Y-109240809D01*
X152021666Y-109170690D01*
X151955891Y-109093948D01*
X151955890Y-109093947D01*
X151951739Y-109089104D01*
X151887651Y-109039392D01*
X151798907Y-108970555D01*
X151798904Y-108970553D01*
X151793863Y-108966643D01*
X151788137Y-108963825D01*
X151788133Y-108963823D01*
X151620318Y-108881248D01*
X151614589Y-108878429D01*
X151504254Y-108849689D01*
X151427420Y-108829675D01*
X151427417Y-108829675D01*
X151421238Y-108828065D01*
X151327744Y-108823165D01*
X151228089Y-108817942D01*
X151228085Y-108817942D01*
X151221708Y-108817608D01*
X151024152Y-108847486D01*
X151018165Y-108849689D01*
X151018164Y-108849689D01*
X150932389Y-108881248D01*
X150836639Y-108916477D01*
X150755730Y-108966643D01*
X150688108Y-109008571D01*
X150666828Y-109021765D01*
X150521656Y-109159047D01*
X150407054Y-109322716D01*
X150327702Y-109506086D01*
X150286844Y-109701666D01*
X150286500Y-109708229D01*
X150286500Y-110904934D01*
X149713500Y-110904934D01*
X149713500Y-109755066D01*
X149698381Y-109606220D01*
X149638631Y-109415560D01*
X149622709Y-109386835D01*
X149581217Y-109311983D01*
X149541765Y-109240809D01*
X149481666Y-109170690D01*
X149415891Y-109093948D01*
X149415890Y-109093947D01*
X149411739Y-109089104D01*
X149347651Y-109039392D01*
X149258907Y-108970555D01*
X149258904Y-108970553D01*
X149253863Y-108966643D01*
X149248137Y-108963825D01*
X149248133Y-108963823D01*
X149080318Y-108881248D01*
X149074589Y-108878429D01*
X148964254Y-108849689D01*
X148887420Y-108829675D01*
X148887417Y-108829675D01*
X148881238Y-108828065D01*
X148787744Y-108823165D01*
X148688089Y-108817942D01*
X148688085Y-108817942D01*
X148681708Y-108817608D01*
X148484152Y-108847486D01*
X148478165Y-108849689D01*
X148478164Y-108849689D01*
X148392389Y-108881248D01*
X148296639Y-108916477D01*
X148215730Y-108966643D01*
X148148108Y-109008571D01*
X148126828Y-109021765D01*
X147981656Y-109159047D01*
X147867054Y-109322716D01*
X147787702Y-109506086D01*
X147746844Y-109701666D01*
X147746500Y-109708229D01*
X147746500Y-110904934D01*
X147173500Y-110904934D01*
X147173500Y-109755066D01*
X147158381Y-109606220D01*
X147098631Y-109415560D01*
X147082709Y-109386835D01*
X147041217Y-109311983D01*
X147001765Y-109240809D01*
X146941666Y-109170690D01*
X146875891Y-109093948D01*
X146875890Y-109093947D01*
X146871739Y-109089104D01*
X146807651Y-109039392D01*
X146718907Y-108970555D01*
X146718904Y-108970553D01*
X146713863Y-108966643D01*
X146708137Y-108963825D01*
X146708133Y-108963823D01*
X146540318Y-108881248D01*
X146534589Y-108878429D01*
X146424254Y-108849689D01*
X146347420Y-108829675D01*
X146347417Y-108829675D01*
X146341238Y-108828065D01*
X146247744Y-108823165D01*
X146148089Y-108817942D01*
X146148085Y-108817942D01*
X146141708Y-108817608D01*
X145944152Y-108847486D01*
X145938165Y-108849689D01*
X145938164Y-108849689D01*
X145852389Y-108881248D01*
X145756639Y-108916477D01*
X145675730Y-108966643D01*
X145608108Y-109008571D01*
X145586828Y-109021765D01*
X145441656Y-109159047D01*
X145327054Y-109322716D01*
X145247702Y-109506086D01*
X145206844Y-109701666D01*
X145206500Y-109708229D01*
X145206500Y-110904934D01*
X144244065Y-110904934D01*
X144244962Y-110898122D01*
X144244962Y-110898121D01*
X144245500Y-110894035D01*
X144245500Y-109765965D01*
X144230173Y-109649543D01*
X144170169Y-109504681D01*
X144101784Y-109415560D01*
X144079743Y-109386835D01*
X144079742Y-109386834D01*
X144074716Y-109380284D01*
X144062113Y-109370613D01*
X144020247Y-109313280D01*
X144016023Y-109242409D01*
X144050785Y-109180505D01*
X144062113Y-109170690D01*
X144071732Y-109163309D01*
X144071736Y-109163305D01*
X144078282Y-109158282D01*
X144174536Y-109032841D01*
X144235044Y-108886762D01*
X144240972Y-108841738D01*
X144254604Y-108738188D01*
X144255682Y-108730000D01*
X144235044Y-108573238D01*
X144174536Y-108427159D01*
X144078282Y-108301718D01*
X143952841Y-108205464D01*
X143806762Y-108144956D01*
X143650000Y-108124318D01*
X143493238Y-108144956D01*
X143347159Y-108205464D01*
X143221718Y-108301718D01*
X143125464Y-108427159D01*
X143064956Y-108573238D01*
X143044318Y-108730000D01*
X143045396Y-108738188D01*
X143059029Y-108841738D01*
X143064956Y-108886762D01*
X143125464Y-109032841D01*
X143221718Y-109158282D01*
X143228264Y-109163305D01*
X143228267Y-109163308D01*
X143237885Y-109170688D01*
X143279753Y-109228026D01*
X143283975Y-109298897D01*
X143249211Y-109360800D01*
X143237887Y-109370613D01*
X143237882Y-109370617D01*
X143225284Y-109380284D01*
X143129831Y-109504681D01*
X143069827Y-109649543D01*
X143054500Y-109765965D01*
X143054500Y-110894035D01*
X143055038Y-110898121D01*
X143055038Y-110898122D01*
X143059924Y-110935234D01*
X143048985Y-111005382D01*
X143001857Y-111058481D01*
X142979236Y-111069660D01*
X142953295Y-111079385D01*
X142836739Y-111166739D01*
X142749385Y-111283295D01*
X142698255Y-111419684D01*
X142691500Y-111481866D01*
X142691500Y-112878134D01*
X142698255Y-112940316D01*
X142749385Y-113076705D01*
X142836739Y-113193261D01*
X142953295Y-113280615D01*
X142953951Y-113280861D01*
X143001157Y-113328175D01*
X143016500Y-113388433D01*
X143016500Y-114076803D01*
X142996498Y-114144924D01*
X142942842Y-114191417D01*
X142930377Y-114196326D01*
X142882998Y-114212133D01*
X142882996Y-114212134D01*
X142876054Y-114214450D01*
X142725652Y-114307522D01*
X142600695Y-114432697D01*
X142507885Y-114583262D01*
X142489992Y-114637209D01*
X142455544Y-114741067D01*
X142452203Y-114751139D01*
X142451503Y-114757975D01*
X142451502Y-114757978D01*
X142449076Y-114781658D01*
X142441500Y-114855600D01*
X142441500Y-115656400D01*
X139202475Y-115656400D01*
X139265023Y-115612441D01*
X139475622Y-115416740D01*
X139657713Y-115194268D01*
X139807927Y-114949142D01*
X139923483Y-114685898D01*
X139927710Y-114671061D01*
X140001068Y-114413534D01*
X140002244Y-114409406D01*
X140036643Y-114167702D01*
X140042146Y-114129036D01*
X140042146Y-114129034D01*
X140042751Y-114124784D01*
X140042845Y-114106951D01*
X140044235Y-113841583D01*
X140044235Y-113841576D01*
X140044257Y-113837297D01*
X140006732Y-113552266D01*
X139930871Y-113274964D01*
X139898164Y-113198285D01*
X139819763Y-113014476D01*
X139819761Y-113014472D01*
X139818077Y-113010524D01*
X139670439Y-112763839D01*
X139490687Y-112539472D01*
X139282149Y-112341577D01*
X139048683Y-112173814D01*
X139026843Y-112162250D01*
X139003654Y-112149972D01*
X138794608Y-112039288D01*
X138524627Y-111940489D01*
X138243736Y-111879245D01*
X138212685Y-111876801D01*
X138020718Y-111861693D01*
X138020709Y-111861693D01*
X138018261Y-111861500D01*
X137862729Y-111861500D01*
X137860593Y-111861646D01*
X137860582Y-111861646D01*
X137652452Y-111875835D01*
X137652446Y-111875836D01*
X137648175Y-111876127D01*
X137643980Y-111876996D01*
X137643978Y-111876996D01*
X137507416Y-111905277D01*
X137366658Y-111934426D01*
X137095657Y-112030393D01*
X136840188Y-112162250D01*
X136836687Y-112164711D01*
X136836683Y-112164713D01*
X136826594Y-112171804D01*
X136604977Y-112327559D01*
X136589892Y-112341577D01*
X136484122Y-112439865D01*
X136394378Y-112523260D01*
X136212287Y-112745732D01*
X136062073Y-112990858D01*
X135946517Y-113254102D01*
X135945342Y-113258229D01*
X135945341Y-113258230D01*
X135908252Y-113388433D01*
X135867756Y-113530594D01*
X135827249Y-113815216D01*
X135827227Y-113819505D01*
X135827226Y-113819512D01*
X135825765Y-114098417D01*
X135825743Y-114102703D01*
X133982103Y-114102703D01*
X133975656Y-104578134D01*
X139016500Y-104578134D01*
X139023255Y-104640316D01*
X139074385Y-104776705D01*
X139161739Y-104893261D01*
X139278295Y-104980615D01*
X139414684Y-105031745D01*
X139476866Y-105038500D01*
X140873134Y-105038500D01*
X140935316Y-105031745D01*
X141041811Y-104991822D01*
X141112616Y-104986639D01*
X141136079Y-104994167D01*
X141201086Y-105022298D01*
X141396666Y-105063156D01*
X141401522Y-105063411D01*
X141401561Y-105063413D01*
X141401577Y-105063413D01*
X141403229Y-105063500D01*
X142599934Y-105063500D01*
X142629230Y-105060524D01*
X142742434Y-105049026D01*
X142742438Y-105049025D01*
X142748780Y-105048381D01*
X142921775Y-104994167D01*
X142933349Y-104990540D01*
X142933350Y-104990539D01*
X142939440Y-104988631D01*
X142953902Y-104980615D01*
X143028464Y-104939284D01*
X143114191Y-104891765D01*
X143265896Y-104761739D01*
X143269805Y-104756700D01*
X143384445Y-104608907D01*
X143384447Y-104608904D01*
X143388357Y-104603863D01*
X143401018Y-104578134D01*
X143473752Y-104430318D01*
X143476571Y-104424589D01*
X143521289Y-104252913D01*
X143525325Y-104237420D01*
X143525325Y-104237417D01*
X143526935Y-104231238D01*
X143532330Y-104128292D01*
X156462608Y-104128292D01*
X156492486Y-104325848D01*
X156561477Y-104513361D01*
X156666765Y-104683172D01*
X156804047Y-104828344D01*
X156967716Y-104942946D01*
X157151086Y-105022298D01*
X157346666Y-105063156D01*
X157351522Y-105063411D01*
X157351561Y-105063413D01*
X157351577Y-105063413D01*
X157353229Y-105063500D01*
X158549934Y-105063500D01*
X158579230Y-105060524D01*
X158692434Y-105049026D01*
X158692438Y-105049025D01*
X158698780Y-105048381D01*
X158704865Y-105046474D01*
X158704870Y-105046473D01*
X158880909Y-104991305D01*
X158951894Y-104990021D01*
X158962816Y-104993556D01*
X159064684Y-105031745D01*
X159126866Y-105038500D01*
X160523134Y-105038500D01*
X160585316Y-105031745D01*
X160721705Y-104980615D01*
X160838261Y-104893261D01*
X160925615Y-104776705D01*
X160976745Y-104640316D01*
X160983500Y-104578134D01*
X160983500Y-103581866D01*
X160976745Y-103519684D01*
X160925615Y-103383295D01*
X160838261Y-103266739D01*
X160721705Y-103179385D01*
X160585316Y-103128255D01*
X160523134Y-103121500D01*
X159126866Y-103121500D01*
X159064684Y-103128255D01*
X158958189Y-103168178D01*
X158887384Y-103173361D01*
X158863920Y-103165833D01*
X158804774Y-103140238D01*
X158804775Y-103140238D01*
X158798914Y-103137702D01*
X158603334Y-103096844D01*
X158598478Y-103096589D01*
X158598439Y-103096587D01*
X158598423Y-103096587D01*
X158596771Y-103096500D01*
X157400066Y-103096500D01*
X157386933Y-103097834D01*
X157257566Y-103110974D01*
X157257562Y-103110975D01*
X157251220Y-103111619D01*
X157159898Y-103140238D01*
X157066651Y-103169460D01*
X157066650Y-103169461D01*
X157060560Y-103171369D01*
X157054978Y-103174463D01*
X157054976Y-103174464D01*
X157036382Y-103184771D01*
X156885809Y-103268235D01*
X156734104Y-103398261D01*
X156730197Y-103403298D01*
X156730195Y-103403300D01*
X156615555Y-103551093D01*
X156615553Y-103551096D01*
X156611643Y-103556137D01*
X156608825Y-103561863D01*
X156608823Y-103561867D01*
X156597301Y-103585283D01*
X156523429Y-103735411D01*
X156473065Y-103928762D01*
X156469319Y-104000233D01*
X156464200Y-104097920D01*
X156462608Y-104128292D01*
X143532330Y-104128292D01*
X143534298Y-104090739D01*
X143537058Y-104038089D01*
X143537058Y-104038085D01*
X143537392Y-104031708D01*
X143507514Y-103834152D01*
X143438523Y-103646639D01*
X143333235Y-103476828D01*
X143195953Y-103331656D01*
X143032284Y-103217054D01*
X142848914Y-103137702D01*
X142653334Y-103096844D01*
X142648478Y-103096589D01*
X142648439Y-103096587D01*
X142648423Y-103096587D01*
X142646771Y-103096500D01*
X141450066Y-103096500D01*
X141436933Y-103097834D01*
X141307566Y-103110974D01*
X141307562Y-103110975D01*
X141301220Y-103111619D01*
X141295135Y-103113526D01*
X141295130Y-103113527D01*
X141119091Y-103168695D01*
X141048106Y-103169979D01*
X141037182Y-103166443D01*
X141035555Y-103165833D01*
X140935316Y-103128255D01*
X140873134Y-103121500D01*
X139476866Y-103121500D01*
X139414684Y-103128255D01*
X139278295Y-103179385D01*
X139161739Y-103266739D01*
X139074385Y-103383295D01*
X139023255Y-103519684D01*
X139016500Y-103581866D01*
X139016500Y-104578134D01*
X133975656Y-104578134D01*
X133973937Y-102038134D01*
X139016500Y-102038134D01*
X139023255Y-102100316D01*
X139074385Y-102236705D01*
X139161739Y-102353261D01*
X139278295Y-102440615D01*
X139414684Y-102491745D01*
X139476866Y-102498500D01*
X140873134Y-102498500D01*
X140935316Y-102491745D01*
X141041811Y-102451822D01*
X141112616Y-102446639D01*
X141136079Y-102454167D01*
X141201086Y-102482298D01*
X141396666Y-102523156D01*
X141401522Y-102523411D01*
X141401561Y-102523413D01*
X141401577Y-102523413D01*
X141403229Y-102523500D01*
X142599934Y-102523500D01*
X142629230Y-102520524D01*
X142742434Y-102509026D01*
X142742438Y-102509025D01*
X142748780Y-102508381D01*
X142921775Y-102454167D01*
X142933349Y-102450540D01*
X142933350Y-102450539D01*
X142939440Y-102448631D01*
X142953902Y-102440615D01*
X143028464Y-102399284D01*
X143114191Y-102351765D01*
X143265896Y-102221739D01*
X143269805Y-102216700D01*
X143384445Y-102068907D01*
X143384447Y-102068904D01*
X143388357Y-102063863D01*
X143401018Y-102038134D01*
X143473752Y-101890318D01*
X143476571Y-101884589D01*
X143526935Y-101691238D01*
X143532330Y-101588292D01*
X156462608Y-101588292D01*
X156492486Y-101785848D01*
X156561477Y-101973361D01*
X156666765Y-102143172D01*
X156804047Y-102288344D01*
X156967716Y-102402946D01*
X157151086Y-102482298D01*
X157346666Y-102523156D01*
X157351522Y-102523411D01*
X157351561Y-102523413D01*
X157351577Y-102523413D01*
X157353229Y-102523500D01*
X158549934Y-102523500D01*
X158579230Y-102520524D01*
X158692434Y-102509026D01*
X158692438Y-102509025D01*
X158698780Y-102508381D01*
X158704865Y-102506474D01*
X158704870Y-102506473D01*
X158880909Y-102451305D01*
X158951894Y-102450021D01*
X158962816Y-102453556D01*
X159064684Y-102491745D01*
X159126866Y-102498500D01*
X160523134Y-102498500D01*
X160585316Y-102491745D01*
X160721705Y-102440615D01*
X160838261Y-102353261D01*
X160925615Y-102236705D01*
X160976745Y-102100316D01*
X160983500Y-102038134D01*
X160983500Y-101041866D01*
X160976745Y-100979684D01*
X160925615Y-100843295D01*
X160838261Y-100726739D01*
X160721705Y-100639385D01*
X160585316Y-100588255D01*
X160523134Y-100581500D01*
X159126866Y-100581500D01*
X159064684Y-100588255D01*
X158958189Y-100628178D01*
X158887384Y-100633361D01*
X158863920Y-100625833D01*
X158804774Y-100600238D01*
X158804775Y-100600238D01*
X158798914Y-100597702D01*
X158603334Y-100556844D01*
X158598478Y-100556589D01*
X158598439Y-100556587D01*
X158598423Y-100556587D01*
X158596771Y-100556500D01*
X157400066Y-100556500D01*
X157386933Y-100557834D01*
X157257566Y-100570974D01*
X157257562Y-100570975D01*
X157251220Y-100571619D01*
X157159898Y-100600238D01*
X157066651Y-100629460D01*
X157066650Y-100629461D01*
X157060560Y-100631369D01*
X157054978Y-100634463D01*
X157054976Y-100634464D01*
X157036382Y-100644771D01*
X156885809Y-100728235D01*
X156734104Y-100858261D01*
X156730197Y-100863298D01*
X156730195Y-100863300D01*
X156615555Y-101011093D01*
X156615553Y-101011096D01*
X156611643Y-101016137D01*
X156608825Y-101021863D01*
X156608823Y-101021867D01*
X156597301Y-101045283D01*
X156523429Y-101195411D01*
X156473065Y-101388762D01*
X156462608Y-101588292D01*
X143532330Y-101588292D01*
X143537392Y-101491708D01*
X143507514Y-101294152D01*
X143438523Y-101106639D01*
X143333235Y-100936828D01*
X143195953Y-100791656D01*
X143032284Y-100677054D01*
X142848914Y-100597702D01*
X142653334Y-100556844D01*
X142648478Y-100556589D01*
X142648439Y-100556587D01*
X142648423Y-100556587D01*
X142646771Y-100556500D01*
X141450066Y-100556500D01*
X141436933Y-100557834D01*
X141307566Y-100570974D01*
X141307562Y-100570975D01*
X141301220Y-100571619D01*
X141295135Y-100573526D01*
X141295130Y-100573527D01*
X141119091Y-100628695D01*
X141048106Y-100629979D01*
X141037182Y-100626443D01*
X141035555Y-100625833D01*
X140935316Y-100588255D01*
X140873134Y-100581500D01*
X139476866Y-100581500D01*
X139414684Y-100588255D01*
X139278295Y-100639385D01*
X139161739Y-100726739D01*
X139074385Y-100843295D01*
X139023255Y-100979684D01*
X139016500Y-101041866D01*
X139016500Y-102038134D01*
X133973937Y-102038134D01*
X133972218Y-99498134D01*
X139016500Y-99498134D01*
X139023255Y-99560316D01*
X139074385Y-99696705D01*
X139161739Y-99813261D01*
X139278295Y-99900615D01*
X139414684Y-99951745D01*
X139476866Y-99958500D01*
X140873134Y-99958500D01*
X140935316Y-99951745D01*
X141041811Y-99911822D01*
X141112616Y-99906639D01*
X141136079Y-99914167D01*
X141201086Y-99942298D01*
X141396666Y-99983156D01*
X141401522Y-99983411D01*
X141401561Y-99983413D01*
X141401577Y-99983413D01*
X141403229Y-99983500D01*
X142599934Y-99983500D01*
X142629230Y-99980524D01*
X142742434Y-99969026D01*
X142742438Y-99969025D01*
X142748780Y-99968381D01*
X142921775Y-99914167D01*
X142933349Y-99910540D01*
X142933350Y-99910539D01*
X142939440Y-99908631D01*
X142953902Y-99900615D01*
X143028464Y-99859284D01*
X143114191Y-99811765D01*
X143265896Y-99681739D01*
X143269805Y-99676700D01*
X143384445Y-99528907D01*
X143384447Y-99528904D01*
X143388357Y-99523863D01*
X143401018Y-99498134D01*
X143473752Y-99350318D01*
X143476571Y-99344589D01*
X143526935Y-99151238D01*
X143532330Y-99048292D01*
X156387608Y-99048292D01*
X156417486Y-99245848D01*
X156486477Y-99433361D01*
X156591765Y-99603172D01*
X156729047Y-99748344D01*
X156892716Y-99862946D01*
X157076086Y-99942298D01*
X157271666Y-99983156D01*
X157276522Y-99983411D01*
X157276561Y-99983413D01*
X157276577Y-99983413D01*
X157278229Y-99983500D01*
X158474934Y-99983500D01*
X158504230Y-99980524D01*
X158617434Y-99969026D01*
X158617438Y-99969025D01*
X158623780Y-99968381D01*
X158629865Y-99966474D01*
X158629870Y-99966473D01*
X158805909Y-99911305D01*
X158876894Y-99910021D01*
X158887816Y-99913556D01*
X158989684Y-99951745D01*
X159051866Y-99958500D01*
X160448134Y-99958500D01*
X160510316Y-99951745D01*
X160646705Y-99900615D01*
X160763261Y-99813261D01*
X160850615Y-99696705D01*
X160901745Y-99560316D01*
X160908500Y-99498134D01*
X160908500Y-98501866D01*
X160901745Y-98439684D01*
X160850615Y-98303295D01*
X160763261Y-98186739D01*
X160646705Y-98099385D01*
X160510316Y-98048255D01*
X160448134Y-98041500D01*
X159051866Y-98041500D01*
X158989684Y-98048255D01*
X158883189Y-98088178D01*
X158812384Y-98093361D01*
X158788920Y-98085833D01*
X158729774Y-98060238D01*
X158729775Y-98060238D01*
X158723914Y-98057702D01*
X158528334Y-98016844D01*
X158523478Y-98016589D01*
X158523439Y-98016587D01*
X158523423Y-98016587D01*
X158521771Y-98016500D01*
X157325066Y-98016500D01*
X157311933Y-98017834D01*
X157182566Y-98030974D01*
X157182562Y-98030975D01*
X157176220Y-98031619D01*
X157084898Y-98060238D01*
X156991651Y-98089460D01*
X156991650Y-98089461D01*
X156985560Y-98091369D01*
X156979978Y-98094463D01*
X156979976Y-98094464D01*
X156961382Y-98104771D01*
X156810809Y-98188235D01*
X156659104Y-98318261D01*
X156655197Y-98323298D01*
X156655195Y-98323300D01*
X156540555Y-98471093D01*
X156540553Y-98471096D01*
X156536643Y-98476137D01*
X156533825Y-98481863D01*
X156533823Y-98481867D01*
X156522301Y-98505283D01*
X156448429Y-98655411D01*
X156398065Y-98848762D01*
X156387608Y-99048292D01*
X143532330Y-99048292D01*
X143537392Y-98951708D01*
X143507514Y-98754152D01*
X143438523Y-98566639D01*
X143333235Y-98396828D01*
X143195953Y-98251656D01*
X143032284Y-98137054D01*
X142848914Y-98057702D01*
X142653334Y-98016844D01*
X142648478Y-98016589D01*
X142648439Y-98016587D01*
X142648423Y-98016587D01*
X142646771Y-98016500D01*
X141450066Y-98016500D01*
X141436933Y-98017834D01*
X141307566Y-98030974D01*
X141307562Y-98030975D01*
X141301220Y-98031619D01*
X141295135Y-98033526D01*
X141295130Y-98033527D01*
X141119091Y-98088695D01*
X141048106Y-98089979D01*
X141037182Y-98086443D01*
X141035555Y-98085833D01*
X140935316Y-98048255D01*
X140873134Y-98041500D01*
X139476866Y-98041500D01*
X139414684Y-98048255D01*
X139278295Y-98099385D01*
X139161739Y-98186739D01*
X139074385Y-98303295D01*
X139023255Y-98439684D01*
X139016500Y-98501866D01*
X139016500Y-99498134D01*
X133972218Y-99498134D01*
X133970785Y-97381084D01*
X133990741Y-97312951D01*
X134044365Y-97266422D01*
X134096785Y-97255000D01*
X165876001Y-97255000D01*
X165944122Y-97275002D01*
G37*
%TD.AperFunction*%
%TD*%
M02*
