%TF.GenerationSoftware,KiCad,Pcbnew,6.0.1+dfsg-1*%
%TF.CreationDate,2022-09-02T19:09:10-04:00*%
%TF.ProjectId,CH340-testing,43483334-302d-4746-9573-74696e672e6b,rev?*%
%TF.SameCoordinates,Original*%
%TF.FileFunction,Soldermask,Bot*%
%TF.FilePolarity,Negative*%
%FSLAX46Y46*%
G04 Gerber Fmt 4.6, Leading zero omitted, Abs format (unit mm)*
G04 Created by KiCad (PCBNEW 6.0.1+dfsg-1) date 2022-09-02 19:09:10*
%MOMM*%
%LPD*%
G01*
G04 APERTURE LIST*
%ADD10C,3.200000*%
%ADD11O,0.890000X1.550000*%
%ADD12O,1.250000X0.950000*%
%ADD13R,3.200000X1.550000*%
%ADD14R,1.500000X1.550000*%
%ADD15R,1.700000X1.700000*%
%ADD16O,1.700000X1.700000*%
%ADD17O,0.950000X2.000000*%
%ADD18O,2.000000X0.950000*%
%ADD19R,1.300000X0.900000*%
%ADD20R,0.900000X1.300000*%
%ADD21O,1.000000X1.000000*%
G04 APERTURE END LIST*
D10*
%TO.C,REF\u002A\u002A*%
X162065000Y-90348000D03*
%TD*%
%TO.C,REF\u002A\u002A*%
X137935000Y-137592000D03*
%TD*%
%TO.C,REF\u002A\u002A*%
X162065000Y-137592000D03*
%TD*%
%TO.C,REF\u002A\u002A*%
X137935000Y-113970000D03*
%TD*%
D11*
%TO.C,J2*%
X146500000Y-140416000D03*
D12*
X152500000Y-137716000D03*
D13*
X153900000Y-140416000D03*
D11*
X153500000Y-140416000D03*
D14*
X149000000Y-140416000D03*
D13*
X146100000Y-140416000D03*
X146500000Y-137316000D03*
D14*
X151000000Y-140416000D03*
D12*
X147500000Y-137716000D03*
D13*
X153500000Y-137316000D03*
%TD*%
D10*
%TO.C,REF\u002A\u002A*%
X137935000Y-90348000D03*
%TD*%
D15*
%TO.C,J1*%
X143650000Y-133528000D03*
D16*
X146190000Y-133528000D03*
X148730000Y-133528000D03*
X151270000Y-133528000D03*
X153810000Y-133528000D03*
X156350000Y-133528000D03*
%TD*%
D17*
%TO.C,Um1*%
X146190000Y-110330000D03*
X148730000Y-110330000D03*
D18*
X142025000Y-104080000D03*
X142025000Y-99000000D03*
X157975000Y-104080000D03*
D17*
X153810000Y-110330000D03*
X143650000Y-110330000D03*
X156350000Y-110330000D03*
D18*
X157900000Y-99000000D03*
X142025000Y-101540000D03*
D17*
X151270000Y-110330000D03*
D18*
X157975000Y-101540000D03*
D19*
X140175000Y-99000000D03*
X140175000Y-101540000D03*
X140175000Y-104080000D03*
D20*
X143650000Y-112180000D03*
D21*
X143650000Y-108730000D03*
D20*
X146190000Y-112180000D03*
X148730000Y-112180000D03*
X151270000Y-112180000D03*
X153810000Y-112180000D03*
X156350000Y-112180000D03*
D21*
X156350000Y-108730000D03*
D19*
X159825000Y-104080000D03*
X159825000Y-101540000D03*
X159750000Y-99000000D03*
%TD*%
D10*
%TO.C,REF\u002A\u002A*%
X162065000Y-113970000D03*
%TD*%
M02*
