%TF.GenerationSoftware,KiCad,Pcbnew,6.0.1+dfsg-1*%
%TF.CreationDate,2022-09-02T19:09:09-04:00*%
%TF.ProjectId,CH340-testing,43483334-302d-4746-9573-74696e672e6b,rev?*%
%TF.SameCoordinates,Original*%
%TF.FileFunction,Copper,L2,Bot*%
%TF.FilePolarity,Positive*%
%FSLAX46Y46*%
G04 Gerber Fmt 4.6, Leading zero omitted, Abs format (unit mm)*
G04 Created by KiCad (PCBNEW 6.0.1+dfsg-1) date 2022-09-02 19:09:09*
%MOMM*%
%LPD*%
G01*
G04 APERTURE LIST*
%TA.AperFunction,ComponentPad*%
%ADD10O,0.890000X1.550000*%
%TD*%
%TA.AperFunction,ComponentPad*%
%ADD11O,1.250000X0.950000*%
%TD*%
%TA.AperFunction,SMDPad,CuDef*%
%ADD12R,3.200000X1.550000*%
%TD*%
%TA.AperFunction,ComponentPad*%
%ADD13R,1.500000X1.550000*%
%TD*%
%TA.AperFunction,ComponentPad*%
%ADD14R,1.700000X1.700000*%
%TD*%
%TA.AperFunction,ComponentPad*%
%ADD15O,1.700000X1.700000*%
%TD*%
%TA.AperFunction,ComponentPad*%
%ADD16O,0.950000X2.000000*%
%TD*%
%TA.AperFunction,ComponentPad*%
%ADD17O,2.000000X0.950000*%
%TD*%
%TA.AperFunction,ComponentPad*%
%ADD18R,1.300000X0.900000*%
%TD*%
%TA.AperFunction,ComponentPad*%
%ADD19R,0.900000X1.300000*%
%TD*%
%TA.AperFunction,ComponentPad*%
%ADD20O,1.000000X1.000000*%
%TD*%
%TA.AperFunction,ViaPad*%
%ADD21C,0.800000*%
%TD*%
%TA.AperFunction,ViaPad*%
%ADD22C,0.400000*%
%TD*%
%TA.AperFunction,Conductor*%
%ADD23C,0.250000*%
%TD*%
%TA.AperFunction,Conductor*%
%ADD24C,0.200000*%
%TD*%
G04 APERTURE END LIST*
D10*
%TO.P,J2,6,Shield*%
%TO.N,GND*%
X146500000Y-140416000D03*
D11*
X152500000Y-137716000D03*
D12*
X153900000Y-140416000D03*
D10*
X153500000Y-140416000D03*
D13*
X149000000Y-140416000D03*
D12*
X146100000Y-140416000D03*
X146500000Y-137316000D03*
D13*
X151000000Y-140416000D03*
D11*
X147500000Y-137716000D03*
D12*
X153500000Y-137316000D03*
%TD*%
D14*
%TO.P,J1,1,Pin_1*%
%TO.N,+3V3*%
X143650000Y-133528000D03*
D15*
%TO.P,J1,2,Pin_2*%
%TO.N,RxD*%
X146190000Y-133528000D03*
%TO.P,J1,3,Pin_3*%
%TO.N,TxD*%
X148730000Y-133528000D03*
%TO.P,J1,4,Pin_4*%
%TO.N,GND*%
X151270000Y-133528000D03*
%TO.P,J1,5,Pin_5*%
%TO.N,DTR*%
X153810000Y-133528000D03*
%TO.P,J1,6,Pin_6*%
%TO.N,RTS*%
X156350000Y-133528000D03*
%TD*%
D16*
%TO.P,Um1,*%
%TO.N,*%
X146190000Y-110330000D03*
X148730000Y-110330000D03*
D17*
X142025000Y-104080000D03*
X142025000Y-99000000D03*
X157975000Y-104080000D03*
D16*
X153810000Y-110330000D03*
X143650000Y-110330000D03*
X156350000Y-110330000D03*
D17*
X157900000Y-99000000D03*
X142025000Y-101540000D03*
D16*
X151270000Y-110330000D03*
D17*
X157975000Y-101540000D03*
D18*
%TO.P,Um1,1,(XPD_DCDC)_GPIO16*%
%TO.N,io16*%
X140175000Y-99000000D03*
%TO.P,Um1,2,(MTMS)_GPIO14*%
%TO.N,io14*%
X140175000Y-101540000D03*
%TO.P,Um1,3,(MTCK)_GPIO13*%
%TO.N,io13*%
X140175000Y-104080000D03*
D19*
%TO.P,Um1,4,EN_(CHIP_PU)*%
%TO.N,EN*%
X143650000Y-112180000D03*
D20*
X143650000Y-108730000D03*
D19*
%TO.P,Um1,5,Vcc*%
%TO.N,+3V3*%
X146190000Y-112180000D03*
%TO.P,Um1,6,GND*%
%TO.N,GND*%
X148730000Y-112180000D03*
%TO.P,Um1,7,(U0TXD)_GPIO1*%
%TO.N,TxD*%
X151270000Y-112180000D03*
%TO.P,Um1,8,(U0RXD)_GPIO3*%
%TO.N,RxD*%
X153810000Y-112180000D03*
%TO.P,Um1,9,~{RST}_(EXT_RSTB)*%
%TO.N,RST*%
X156350000Y-112180000D03*
D20*
X156350000Y-108730000D03*
D18*
%TO.P,Um1,10,GPIO2*%
%TO.N,io2*%
X159825000Y-104080000D03*
%TO.P,Um1,11,GPIO0*%
%TO.N,io0*%
X159825000Y-101540000D03*
%TO.P,Um1,12,GPIO4*%
%TO.N,io4*%
X159750000Y-99000000D03*
%TD*%
D21*
%TO.N,GND*%
X148581500Y-122860000D03*
X163995194Y-105588000D03*
X155588000Y-125908000D03*
X137808000Y-127177999D03*
X159271000Y-130480000D03*
X163995194Y-107620000D03*
X164224000Y-119812000D03*
%TO.N,TxD*%
X151905000Y-124892000D03*
%TO.N,RxD*%
X153048000Y-122352000D03*
X152540000Y-127432000D03*
%TO.N,io0*%
X147460000Y-116256000D03*
%TO.N,DTR*%
X150000000Y-128956000D03*
X150000000Y-119280000D03*
%TO.N,RTS*%
X150508000Y-117780000D03*
X151524000Y-128956000D03*
%TO.N,UD+*%
X149365000Y-126416000D03*
D22*
X150000000Y-137592000D03*
%TO.N,UD-*%
X149350000Y-137592000D03*
D21*
X148095000Y-126416000D03*
%TD*%
D23*
%TO.N,TxD*%
X151905000Y-124892000D02*
X152032000Y-124892000D01*
X152032000Y-124892000D02*
X153556000Y-126416000D01*
X152032000Y-130988000D02*
X151270000Y-130988000D01*
X153556000Y-126416000D02*
X153556000Y-129464000D01*
X153556000Y-129464000D02*
X152032000Y-130988000D01*
X151270000Y-130988000D02*
X148730000Y-133528000D01*
%TO.N,RxD*%
X152540000Y-127432000D02*
X152540000Y-129389022D01*
X152540000Y-129389022D02*
X151449022Y-130480000D01*
X151449022Y-130480000D02*
X149238000Y-130480000D01*
X149238000Y-130480000D02*
X146190000Y-133528000D01*
%TO.N,TxD*%
X151905000Y-124892000D02*
X151905000Y-112515000D01*
X151905000Y-112515000D02*
X151270000Y-111880000D01*
%TO.N,RxD*%
X153048000Y-122352000D02*
X153048000Y-112642000D01*
X153048000Y-112642000D02*
X153810000Y-111880000D01*
%TO.N,RST*%
X156698000Y-108730000D02*
X157069520Y-109101520D01*
X157069520Y-109101520D02*
X157069520Y-111160480D01*
X156350000Y-108730000D02*
X156698000Y-108730000D01*
X157069520Y-111160480D02*
X156350000Y-111880000D01*
%TO.N,io0*%
X147460000Y-106604000D02*
X151724480Y-102339520D01*
X159525000Y-102159000D02*
X159525000Y-101540000D01*
X159344480Y-102339520D02*
X159525000Y-102159000D01*
X147460000Y-116256000D02*
X147460000Y-106604000D01*
X151724480Y-102339520D02*
X159344480Y-102339520D01*
%TO.N,DTR*%
X150000000Y-119280000D02*
X150089511Y-119369511D01*
X150089511Y-119369511D02*
X150089511Y-128866489D01*
X150089511Y-128866489D02*
X150000000Y-128956000D01*
%TO.N,RTS*%
X151016000Y-118288000D02*
X151016000Y-128448000D01*
X151016000Y-128448000D02*
X151524000Y-128956000D01*
X150508000Y-117780000D02*
X151016000Y-118288000D01*
D24*
%TO.N,UD+*%
X150000000Y-137208978D02*
X150000000Y-137592000D01*
X142380000Y-135560000D02*
X148351022Y-135560000D01*
X141872000Y-132512000D02*
X141872000Y-135052000D01*
X149365000Y-126416000D02*
X143904000Y-131877000D01*
X143904000Y-131877000D02*
X142507000Y-131877000D01*
X141872000Y-135052000D02*
X142380000Y-135560000D01*
X148351022Y-135560000D02*
X150000000Y-137208978D01*
X142507000Y-131877000D02*
X141872000Y-132512000D01*
%TO.N,UD-*%
X141472480Y-132346514D02*
X141472480Y-135725486D01*
X141843497Y-136096503D02*
X141872000Y-136068000D01*
X142830994Y-130988000D02*
X141472480Y-132346514D01*
X149350000Y-137123984D02*
X149350000Y-137592000D01*
X141872000Y-136068000D02*
X148294016Y-136068000D01*
X143904000Y-130988000D02*
X142830994Y-130988000D01*
X148095000Y-126797000D02*
X143904000Y-130988000D01*
X148095000Y-126416000D02*
X148095000Y-126797000D01*
X148294016Y-136068000D02*
X149350000Y-137123984D01*
X141472480Y-135725486D02*
X141843497Y-136096503D01*
D23*
%TO.N,EN*%
X142888000Y-111118000D02*
X143650000Y-111880000D01*
X143302000Y-108730000D02*
X142888000Y-109144000D01*
X143650000Y-108730000D02*
X143302000Y-108730000D01*
X142888000Y-109144000D02*
X142888000Y-111118000D01*
%TD*%
%TA.AperFunction,Conductor*%
%TO.N,GND*%
G36*
X165944122Y-97275002D02*
G01*
X165990615Y-97328658D01*
X166002001Y-97381000D01*
X166002000Y-117583794D01*
X166002000Y-137542671D01*
X166000500Y-137562056D01*
X165998350Y-137575865D01*
X165996814Y-137585729D01*
X165999274Y-137604538D01*
X165999416Y-137605625D01*
X166000346Y-137627783D01*
X165985475Y-137949442D01*
X165984401Y-137961031D01*
X165935769Y-138309657D01*
X165933630Y-138321096D01*
X165904083Y-138446724D01*
X165854128Y-138659123D01*
X165853042Y-138663739D01*
X165849860Y-138674925D01*
X165843198Y-138694801D01*
X165737994Y-139008684D01*
X165733790Y-139019536D01*
X165591609Y-139341546D01*
X165586429Y-139351951D01*
X165415133Y-139659486D01*
X165409017Y-139669363D01*
X165210086Y-139959766D01*
X165203072Y-139969054D01*
X164978194Y-140239864D01*
X164970353Y-140248464D01*
X164721465Y-140497352D01*
X164712865Y-140505193D01*
X164442055Y-140730071D01*
X164432767Y-140737085D01*
X164142364Y-140936016D01*
X164132487Y-140942132D01*
X163824952Y-141113428D01*
X163814547Y-141118608D01*
X163492537Y-141260789D01*
X163481685Y-141264993D01*
X163351563Y-141308606D01*
X163147926Y-141376859D01*
X163136744Y-141380040D01*
X162987488Y-141415144D01*
X162794097Y-141460629D01*
X162782658Y-141462768D01*
X162434032Y-141511400D01*
X162422444Y-141512474D01*
X162397391Y-141513632D01*
X162108184Y-141527002D01*
X162082985Y-141525637D01*
X162080142Y-141525194D01*
X162080140Y-141525194D01*
X162071270Y-141523813D01*
X162062368Y-141524977D01*
X162062365Y-141524977D01*
X162039749Y-141527935D01*
X162023411Y-141528999D01*
X156097655Y-141528999D01*
X156029534Y-141508997D01*
X155983041Y-141455341D01*
X155972937Y-141385067D01*
X155979673Y-141358770D01*
X155998478Y-141308609D01*
X156002105Y-141293351D01*
X156007631Y-141242486D01*
X156008000Y-141235672D01*
X156008000Y-140688115D01*
X156003525Y-140672876D01*
X156002135Y-140671671D01*
X155994452Y-140670000D01*
X144010116Y-140670000D01*
X143994877Y-140674475D01*
X143993672Y-140675865D01*
X143992001Y-140683548D01*
X143992001Y-141235669D01*
X143992371Y-141242490D01*
X143997895Y-141293352D01*
X144001522Y-141308606D01*
X144020327Y-141358770D01*
X144025510Y-141429577D01*
X143991589Y-141491946D01*
X143929334Y-141526075D01*
X143902345Y-141528999D01*
X137984328Y-141528999D01*
X137964943Y-141527499D01*
X137950142Y-141525194D01*
X137950139Y-141525194D01*
X137941270Y-141523813D01*
X137922105Y-141526319D01*
X137921374Y-141526415D01*
X137899216Y-141527345D01*
X137577557Y-141512474D01*
X137565968Y-141511400D01*
X137217342Y-141462768D01*
X137205903Y-141460629D01*
X137012512Y-141415144D01*
X136863256Y-141380040D01*
X136852074Y-141376859D01*
X136648437Y-141308606D01*
X136518315Y-141264993D01*
X136507463Y-141260789D01*
X136185453Y-141118608D01*
X136175048Y-141113428D01*
X135867513Y-140942132D01*
X135857636Y-140936016D01*
X135567233Y-140737085D01*
X135557945Y-140730071D01*
X135287135Y-140505193D01*
X135278535Y-140497352D01*
X135029647Y-140248464D01*
X135021806Y-140239864D01*
X134942106Y-140143885D01*
X143992000Y-140143885D01*
X143996475Y-140159124D01*
X143997865Y-140160329D01*
X144005548Y-140162000D01*
X145827885Y-140162000D01*
X145843124Y-140157525D01*
X145844329Y-140156135D01*
X145846000Y-140148452D01*
X145846000Y-140143885D01*
X146754000Y-140143885D01*
X146758475Y-140159124D01*
X146759865Y-140160329D01*
X146767548Y-140162000D01*
X148727885Y-140162000D01*
X148743124Y-140157525D01*
X148744329Y-140156135D01*
X148746000Y-140148452D01*
X148746000Y-140143885D01*
X149254000Y-140143885D01*
X149258475Y-140159124D01*
X149259865Y-140160329D01*
X149267548Y-140162000D01*
X150727885Y-140162000D01*
X150743124Y-140157525D01*
X150744329Y-140156135D01*
X150746000Y-140148452D01*
X150746000Y-140143885D01*
X151254000Y-140143885D01*
X151258475Y-140159124D01*
X151259865Y-140160329D01*
X151267548Y-140162000D01*
X153227885Y-140162000D01*
X153243124Y-140157525D01*
X153244329Y-140156135D01*
X153246000Y-140148452D01*
X153246000Y-140143885D01*
X154154000Y-140143885D01*
X154158475Y-140159124D01*
X154159865Y-140160329D01*
X154167548Y-140162000D01*
X155989884Y-140162000D01*
X156005123Y-140157525D01*
X156006328Y-140156135D01*
X156007999Y-140148452D01*
X156007999Y-139596331D01*
X156007629Y-139589510D01*
X156002105Y-139538648D01*
X155998479Y-139523396D01*
X155953324Y-139402946D01*
X155944786Y-139387351D01*
X155868285Y-139285276D01*
X155855724Y-139272715D01*
X155753649Y-139196214D01*
X155738054Y-139187676D01*
X155617606Y-139142522D01*
X155602351Y-139138895D01*
X155551486Y-139133369D01*
X155544672Y-139133000D01*
X154172115Y-139133001D01*
X154156876Y-139137476D01*
X154155671Y-139138866D01*
X154154000Y-139146549D01*
X154154000Y-140143885D01*
X153246000Y-140143885D01*
X153246000Y-139151116D01*
X153241525Y-139135877D01*
X153240135Y-139134672D01*
X153232452Y-139133001D01*
X152255331Y-139133001D01*
X152248510Y-139133371D01*
X152197648Y-139138895D01*
X152182394Y-139142522D01*
X152069229Y-139184945D01*
X151998422Y-139190128D01*
X151980771Y-139184945D01*
X151867609Y-139142522D01*
X151852351Y-139138895D01*
X151801486Y-139133369D01*
X151794672Y-139133000D01*
X151272115Y-139133000D01*
X151256876Y-139137475D01*
X151255671Y-139138865D01*
X151254000Y-139146548D01*
X151254000Y-140143885D01*
X150746000Y-140143885D01*
X150746000Y-139151116D01*
X150741525Y-139135877D01*
X150740135Y-139134672D01*
X150732452Y-139133001D01*
X150205331Y-139133001D01*
X150198510Y-139133371D01*
X150147648Y-139138895D01*
X150132396Y-139142521D01*
X150044230Y-139175573D01*
X149973422Y-139180756D01*
X149955770Y-139175573D01*
X149867606Y-139142522D01*
X149852351Y-139138895D01*
X149801486Y-139133369D01*
X149794672Y-139133000D01*
X149272115Y-139133000D01*
X149256876Y-139137475D01*
X149255671Y-139138865D01*
X149254000Y-139146548D01*
X149254000Y-140143885D01*
X148746000Y-140143885D01*
X148746000Y-139151116D01*
X148741525Y-139135877D01*
X148740135Y-139134672D01*
X148732452Y-139133001D01*
X148205331Y-139133001D01*
X148198510Y-139133371D01*
X148147648Y-139138895D01*
X148132394Y-139142522D01*
X148019229Y-139184945D01*
X147948422Y-139190128D01*
X147930771Y-139184945D01*
X147817609Y-139142522D01*
X147802351Y-139138895D01*
X147751486Y-139133369D01*
X147744672Y-139133000D01*
X146772115Y-139133000D01*
X146756876Y-139137475D01*
X146755671Y-139138865D01*
X146754000Y-139146548D01*
X146754000Y-140143885D01*
X145846000Y-140143885D01*
X145846000Y-139151115D01*
X145841525Y-139135876D01*
X145840135Y-139134671D01*
X145832452Y-139133000D01*
X144455331Y-139133001D01*
X144448510Y-139133371D01*
X144397648Y-139138895D01*
X144382396Y-139142521D01*
X144261946Y-139187676D01*
X144246351Y-139196214D01*
X144144276Y-139272715D01*
X144131715Y-139285276D01*
X144055214Y-139387351D01*
X144046676Y-139402946D01*
X144001522Y-139523394D01*
X143997895Y-139538649D01*
X143992369Y-139589514D01*
X143992000Y-139596328D01*
X143992000Y-140143885D01*
X134942106Y-140143885D01*
X134796928Y-139969054D01*
X134789914Y-139959766D01*
X134590983Y-139669363D01*
X134584867Y-139659486D01*
X134413571Y-139351951D01*
X134408391Y-139341546D01*
X134266210Y-139019536D01*
X134262006Y-139008684D01*
X134156802Y-138694801D01*
X134150140Y-138674925D01*
X134146958Y-138663739D01*
X134145873Y-138659123D01*
X134095917Y-138446724D01*
X134066370Y-138321096D01*
X134064231Y-138309657D01*
X134015599Y-137961031D01*
X134014525Y-137949442D01*
X134004135Y-137724703D01*
X135825743Y-137724703D01*
X135826302Y-137728947D01*
X135826302Y-137728951D01*
X135842810Y-137854340D01*
X135863268Y-138009734D01*
X135864401Y-138013874D01*
X135864401Y-138013876D01*
X135878484Y-138065353D01*
X135939129Y-138287036D01*
X135940813Y-138290984D01*
X136045231Y-138535786D01*
X136051923Y-138551476D01*
X136199561Y-138798161D01*
X136379313Y-139022528D01*
X136396397Y-139038740D01*
X136555927Y-139190128D01*
X136587851Y-139220423D01*
X136821317Y-139388186D01*
X136825112Y-139390195D01*
X136825113Y-139390196D01*
X136846869Y-139401715D01*
X137075392Y-139522712D01*
X137345373Y-139621511D01*
X137626264Y-139682755D01*
X137654841Y-139685004D01*
X137849282Y-139700307D01*
X137849291Y-139700307D01*
X137851739Y-139700500D01*
X138007271Y-139700500D01*
X138009407Y-139700354D01*
X138009418Y-139700354D01*
X138217548Y-139686165D01*
X138217554Y-139686164D01*
X138221825Y-139685873D01*
X138226020Y-139685004D01*
X138226022Y-139685004D01*
X138362584Y-139656723D01*
X138503342Y-139627574D01*
X138774343Y-139531607D01*
X139029812Y-139399750D01*
X139033313Y-139397289D01*
X139033317Y-139397287D01*
X139192692Y-139285276D01*
X139265023Y-139234441D01*
X139359607Y-139146548D01*
X139472479Y-139041661D01*
X139472481Y-139041658D01*
X139475622Y-139038740D01*
X139657713Y-138816268D01*
X139807927Y-138571142D01*
X139859833Y-138452898D01*
X139921757Y-138311830D01*
X139923483Y-138307898D01*
X139935645Y-138265205D01*
X139972544Y-138135669D01*
X144392001Y-138135669D01*
X144392371Y-138142490D01*
X144397895Y-138193352D01*
X144401521Y-138208604D01*
X144446676Y-138329054D01*
X144455214Y-138344649D01*
X144531715Y-138446724D01*
X144544276Y-138459285D01*
X144646351Y-138535786D01*
X144661946Y-138544324D01*
X144782394Y-138589478D01*
X144797649Y-138593105D01*
X144848514Y-138598631D01*
X144855328Y-138599000D01*
X146227885Y-138598999D01*
X146243124Y-138594524D01*
X146244329Y-138593134D01*
X146246000Y-138585451D01*
X146246000Y-138580884D01*
X146754000Y-138580884D01*
X146758475Y-138596123D01*
X146759865Y-138597328D01*
X146767548Y-138598999D01*
X146889222Y-138598999D01*
X146939263Y-138609362D01*
X147045382Y-138655284D01*
X147057485Y-138659123D01*
X147228264Y-138694801D01*
X147242325Y-138693678D01*
X147246000Y-138683571D01*
X147246000Y-137988115D01*
X147241525Y-137972876D01*
X147240135Y-137971671D01*
X147232452Y-137970000D01*
X146772115Y-137970000D01*
X146756876Y-137974475D01*
X146755671Y-137975865D01*
X146754000Y-137983548D01*
X146754000Y-138580884D01*
X146246000Y-138580884D01*
X146246000Y-137588115D01*
X146241525Y-137572876D01*
X146240135Y-137571671D01*
X146232452Y-137570000D01*
X144410116Y-137570000D01*
X144394877Y-137574475D01*
X144393672Y-137575865D01*
X144392001Y-137583548D01*
X144392001Y-138135669D01*
X139972544Y-138135669D01*
X139988579Y-138079378D01*
X140002244Y-138031406D01*
X140042751Y-137746784D01*
X140042845Y-137728951D01*
X140044235Y-137463583D01*
X140044235Y-137463576D01*
X140044257Y-137459297D01*
X140006732Y-137174266D01*
X139930871Y-136896964D01*
X139892458Y-136806906D01*
X139819763Y-136636476D01*
X139819761Y-136636472D01*
X139818077Y-136632524D01*
X139702045Y-136438648D01*
X139672643Y-136389521D01*
X139672640Y-136389517D01*
X139670439Y-136385839D01*
X139490687Y-136161472D01*
X139355697Y-136033371D01*
X139285258Y-135966527D01*
X139285255Y-135966525D01*
X139282149Y-135963577D01*
X139048683Y-135795814D01*
X139026843Y-135784250D01*
X138931323Y-135733675D01*
X138915857Y-135725486D01*
X140858730Y-135725486D01*
X140863980Y-135765366D01*
X140863980Y-135765371D01*
X140877089Y-135864943D01*
X140879642Y-135884337D01*
X140940956Y-136032362D01*
X140945983Y-136038913D01*
X140945984Y-136038915D01*
X141014000Y-136127555D01*
X141014006Y-136127561D01*
X141038493Y-136159473D01*
X141045048Y-136164503D01*
X141063859Y-136178938D01*
X141076250Y-136189805D01*
X141379178Y-136492733D01*
X141390045Y-136505124D01*
X141404484Y-136523941D01*
X141404487Y-136523944D01*
X141409510Y-136530490D01*
X141441423Y-136554978D01*
X141441425Y-136554980D01*
X141470188Y-136577051D01*
X141536621Y-136628027D01*
X141544247Y-136631186D01*
X141544249Y-136631187D01*
X141610633Y-136658684D01*
X141684646Y-136689341D01*
X141692833Y-136690419D01*
X141692834Y-136690419D01*
X141835308Y-136709175D01*
X141843497Y-136710253D01*
X141851686Y-136709175D01*
X141994160Y-136690419D01*
X141994161Y-136690419D01*
X142002348Y-136689341D01*
X142009978Y-136686180D01*
X142009980Y-136686180D01*
X142010193Y-136686092D01*
X142010645Y-136686002D01*
X142017957Y-136684043D01*
X142018085Y-136684522D01*
X142058412Y-136676500D01*
X144266000Y-136676500D01*
X144334121Y-136696502D01*
X144380614Y-136750158D01*
X144392000Y-136802500D01*
X144392000Y-137043885D01*
X144396475Y-137059124D01*
X144397865Y-137060329D01*
X144405548Y-137062000D01*
X146628000Y-137062000D01*
X146696121Y-137082002D01*
X146742614Y-137135658D01*
X146754000Y-137188000D01*
X146754000Y-137443885D01*
X146758475Y-137459124D01*
X146759865Y-137460329D01*
X146767548Y-137462000D01*
X147628000Y-137462000D01*
X147696121Y-137482002D01*
X147742614Y-137535658D01*
X147754000Y-137588000D01*
X147754000Y-138675390D01*
X147758216Y-138689750D01*
X147770695Y-138691809D01*
X147842331Y-138684533D01*
X147854770Y-138681979D01*
X148033143Y-138626080D01*
X148044828Y-138621072D01*
X148056151Y-138614796D01*
X148117236Y-138598999D01*
X148144669Y-138598999D01*
X148151490Y-138598629D01*
X148202352Y-138593105D01*
X148217604Y-138589479D01*
X148338054Y-138544324D01*
X148353649Y-138535786D01*
X148455724Y-138459285D01*
X148468285Y-138446724D01*
X148544786Y-138344649D01*
X148553324Y-138329054D01*
X148598478Y-138208606D01*
X148602106Y-138193350D01*
X148607364Y-138144941D01*
X148634605Y-138079378D01*
X148692968Y-138038951D01*
X148763922Y-138036495D01*
X148817426Y-138065353D01*
X148930944Y-138168646D01*
X148930948Y-138168649D01*
X148936565Y-138173760D01*
X149087268Y-138255585D01*
X149253139Y-138299101D01*
X149340586Y-138300474D01*
X149417003Y-138301675D01*
X149417006Y-138301675D01*
X149424602Y-138301794D01*
X149432006Y-138300098D01*
X149432008Y-138300098D01*
X149507111Y-138282897D01*
X149591759Y-138263510D01*
X149603687Y-138257511D01*
X149616029Y-138251304D01*
X149685873Y-138238567D01*
X149723141Y-138250149D01*
X149723531Y-138249165D01*
X149730594Y-138251962D01*
X149737268Y-138255585D01*
X149903139Y-138299101D01*
X149990586Y-138300474D01*
X150067003Y-138301675D01*
X150067006Y-138301675D01*
X150074602Y-138301794D01*
X150082006Y-138300098D01*
X150082008Y-138300098D01*
X150157111Y-138282897D01*
X150241759Y-138263510D01*
X150394958Y-138186459D01*
X150400729Y-138181530D01*
X150400732Y-138181528D01*
X150454425Y-138135669D01*
X151392001Y-138135669D01*
X151392371Y-138142490D01*
X151397895Y-138193352D01*
X151401521Y-138208604D01*
X151446676Y-138329054D01*
X151455214Y-138344649D01*
X151531715Y-138446724D01*
X151544276Y-138459285D01*
X151646351Y-138535786D01*
X151661946Y-138544324D01*
X151782394Y-138589478D01*
X151797649Y-138593105D01*
X151848514Y-138598631D01*
X151855328Y-138599000D01*
X151889224Y-138599000D01*
X151939265Y-138609363D01*
X152045382Y-138655284D01*
X152057485Y-138659123D01*
X152228264Y-138694801D01*
X152242325Y-138693678D01*
X152246000Y-138683571D01*
X152246000Y-138675390D01*
X152754000Y-138675390D01*
X152758216Y-138689750D01*
X152770695Y-138691809D01*
X152842331Y-138684533D01*
X152854770Y-138681979D01*
X153033147Y-138626079D01*
X153044826Y-138621074D01*
X153056150Y-138614797D01*
X153117235Y-138599000D01*
X153227885Y-138599000D01*
X153243124Y-138594525D01*
X153244329Y-138593135D01*
X153246000Y-138585452D01*
X153246000Y-138580885D01*
X153754000Y-138580885D01*
X153758475Y-138596124D01*
X153759865Y-138597329D01*
X153767548Y-138599000D01*
X155144669Y-138598999D01*
X155151490Y-138598629D01*
X155202352Y-138593105D01*
X155217604Y-138589479D01*
X155338054Y-138544324D01*
X155353649Y-138535786D01*
X155455724Y-138459285D01*
X155468285Y-138446724D01*
X155544786Y-138344649D01*
X155553324Y-138329054D01*
X155598478Y-138208606D01*
X155602105Y-138193351D01*
X155607631Y-138142486D01*
X155608000Y-138135672D01*
X155608000Y-137724703D01*
X159955743Y-137724703D01*
X159956302Y-137728947D01*
X159956302Y-137728951D01*
X159972810Y-137854340D01*
X159993268Y-138009734D01*
X159994401Y-138013874D01*
X159994401Y-138013876D01*
X160008484Y-138065353D01*
X160069129Y-138287036D01*
X160070813Y-138290984D01*
X160175231Y-138535786D01*
X160181923Y-138551476D01*
X160329561Y-138798161D01*
X160509313Y-139022528D01*
X160526397Y-139038740D01*
X160685927Y-139190128D01*
X160717851Y-139220423D01*
X160951317Y-139388186D01*
X160955112Y-139390195D01*
X160955113Y-139390196D01*
X160976869Y-139401715D01*
X161205392Y-139522712D01*
X161475373Y-139621511D01*
X161756264Y-139682755D01*
X161784841Y-139685004D01*
X161979282Y-139700307D01*
X161979291Y-139700307D01*
X161981739Y-139700500D01*
X162137271Y-139700500D01*
X162139407Y-139700354D01*
X162139418Y-139700354D01*
X162347548Y-139686165D01*
X162347554Y-139686164D01*
X162351825Y-139685873D01*
X162356020Y-139685004D01*
X162356022Y-139685004D01*
X162492584Y-139656723D01*
X162633342Y-139627574D01*
X162904343Y-139531607D01*
X163159812Y-139399750D01*
X163163313Y-139397289D01*
X163163317Y-139397287D01*
X163322692Y-139285276D01*
X163395023Y-139234441D01*
X163489607Y-139146548D01*
X163602479Y-139041661D01*
X163602481Y-139041658D01*
X163605622Y-139038740D01*
X163787713Y-138816268D01*
X163937927Y-138571142D01*
X163989833Y-138452898D01*
X164051757Y-138311830D01*
X164053483Y-138307898D01*
X164065645Y-138265205D01*
X164118579Y-138079378D01*
X164132244Y-138031406D01*
X164172751Y-137746784D01*
X164172845Y-137728951D01*
X164174235Y-137463583D01*
X164174235Y-137463576D01*
X164174257Y-137459297D01*
X164136732Y-137174266D01*
X164060871Y-136896964D01*
X164022458Y-136806906D01*
X163949763Y-136636476D01*
X163949761Y-136636472D01*
X163948077Y-136632524D01*
X163832045Y-136438648D01*
X163802643Y-136389521D01*
X163802640Y-136389517D01*
X163800439Y-136385839D01*
X163620687Y-136161472D01*
X163485697Y-136033371D01*
X163415258Y-135966527D01*
X163415255Y-135966525D01*
X163412149Y-135963577D01*
X163178683Y-135795814D01*
X163156843Y-135784250D01*
X163061323Y-135733675D01*
X162924608Y-135661288D01*
X162654627Y-135562489D01*
X162373736Y-135501245D01*
X162342685Y-135498801D01*
X162150718Y-135483693D01*
X162150709Y-135483693D01*
X162148261Y-135483500D01*
X161992729Y-135483500D01*
X161990593Y-135483646D01*
X161990582Y-135483646D01*
X161782452Y-135497835D01*
X161782446Y-135497836D01*
X161778175Y-135498127D01*
X161773980Y-135498996D01*
X161773978Y-135498996D01*
X161637417Y-135527276D01*
X161496658Y-135556426D01*
X161225657Y-135652393D01*
X161221848Y-135654359D01*
X161068176Y-135733675D01*
X160970188Y-135784250D01*
X160966687Y-135786711D01*
X160966683Y-135786713D01*
X160956594Y-135793804D01*
X160734977Y-135949559D01*
X160719892Y-135963577D01*
X160543428Y-136127558D01*
X160524378Y-136145260D01*
X160342287Y-136367732D01*
X160192073Y-136612858D01*
X160190347Y-136616791D01*
X160190346Y-136616792D01*
X160131651Y-136750503D01*
X160076517Y-136876102D01*
X159997756Y-137152594D01*
X159957249Y-137437216D01*
X159957227Y-137441505D01*
X159957226Y-137441512D01*
X159955765Y-137720417D01*
X159955743Y-137724703D01*
X155608000Y-137724703D01*
X155608000Y-137588115D01*
X155603525Y-137572876D01*
X155602135Y-137571671D01*
X155594452Y-137570000D01*
X153772115Y-137570000D01*
X153756876Y-137574475D01*
X153755671Y-137575865D01*
X153754000Y-137583548D01*
X153754000Y-138580885D01*
X153246000Y-138580885D01*
X153246000Y-137988115D01*
X153241525Y-137972876D01*
X153240135Y-137971671D01*
X153232452Y-137970000D01*
X152772115Y-137970000D01*
X152756876Y-137974475D01*
X152755671Y-137975865D01*
X152754000Y-137983548D01*
X152754000Y-138675390D01*
X152246000Y-138675390D01*
X152246000Y-137988115D01*
X152241525Y-137972876D01*
X152240135Y-137971671D01*
X152232452Y-137970000D01*
X151410116Y-137970000D01*
X151394877Y-137974475D01*
X151393672Y-137975865D01*
X151392001Y-137983548D01*
X151392001Y-138135669D01*
X150454425Y-138135669D01*
X150519578Y-138080023D01*
X150525355Y-138075089D01*
X150625424Y-137935830D01*
X150689385Y-137776720D01*
X150693040Y-137751036D01*
X150712966Y-137611031D01*
X150712966Y-137611027D01*
X150713547Y-137606947D01*
X150713704Y-137592000D01*
X150708656Y-137550284D01*
X150694015Y-137429299D01*
X150694014Y-137429296D01*
X150693102Y-137421758D01*
X150657397Y-137327266D01*
X150635173Y-137268451D01*
X150635171Y-137268448D01*
X150632487Y-137261344D01*
X150628183Y-137255082D01*
X150627011Y-137252840D01*
X150616159Y-137208661D01*
X150613750Y-137208978D01*
X150608500Y-137169098D01*
X150608500Y-137169093D01*
X150593916Y-137058314D01*
X150593915Y-137058312D01*
X150592838Y-137050128D01*
X150584815Y-137030758D01*
X150531524Y-136902102D01*
X150511574Y-136876102D01*
X150458483Y-136806914D01*
X150458477Y-136806906D01*
X150458474Y-136806903D01*
X150433987Y-136774991D01*
X150427432Y-136769961D01*
X150408621Y-136755526D01*
X150396230Y-136744659D01*
X150147899Y-136496328D01*
X151392000Y-136496328D01*
X151392001Y-137043885D01*
X151396476Y-137059124D01*
X151397866Y-137060329D01*
X151405549Y-137062000D01*
X153227885Y-137062000D01*
X153243124Y-137057525D01*
X153244329Y-137056135D01*
X153246000Y-137048452D01*
X153246000Y-137043885D01*
X153754000Y-137043885D01*
X153758475Y-137059124D01*
X153759865Y-137060329D01*
X153767548Y-137062000D01*
X155589884Y-137062000D01*
X155605123Y-137057525D01*
X155606328Y-137056135D01*
X155607999Y-137048452D01*
X155607999Y-136496331D01*
X155607629Y-136489510D01*
X155602105Y-136438648D01*
X155598479Y-136423396D01*
X155553324Y-136302946D01*
X155544786Y-136287351D01*
X155468285Y-136185276D01*
X155455724Y-136172715D01*
X155353649Y-136096214D01*
X155338054Y-136087676D01*
X155217606Y-136042522D01*
X155202351Y-136038895D01*
X155151486Y-136033369D01*
X155144672Y-136033000D01*
X153772115Y-136033000D01*
X153756876Y-136037475D01*
X153755671Y-136038865D01*
X153754000Y-136046548D01*
X153754000Y-137043885D01*
X153246000Y-137043885D01*
X153246000Y-136051116D01*
X153241525Y-136035877D01*
X153240135Y-136034672D01*
X153232452Y-136033001D01*
X151855331Y-136033001D01*
X151848510Y-136033371D01*
X151797648Y-136038895D01*
X151782396Y-136042521D01*
X151661946Y-136087676D01*
X151646351Y-136096214D01*
X151544276Y-136172715D01*
X151531715Y-136185276D01*
X151455214Y-136287351D01*
X151446676Y-136302946D01*
X151401522Y-136423394D01*
X151397895Y-136438649D01*
X151392369Y-136489514D01*
X151392000Y-136496328D01*
X150147899Y-136496328D01*
X148815337Y-135163766D01*
X148804470Y-135151375D01*
X148790035Y-135132563D01*
X148785009Y-135126013D01*
X148764660Y-135110399D01*
X148722794Y-135053062D01*
X148718573Y-134982191D01*
X148753338Y-134920288D01*
X148816051Y-134887007D01*
X148825353Y-134885459D01*
X149005415Y-134862393D01*
X149008288Y-134862025D01*
X149008289Y-134862025D01*
X149013416Y-134861368D01*
X149018366Y-134859883D01*
X149222429Y-134798661D01*
X149222434Y-134798659D01*
X149227384Y-134797174D01*
X149427994Y-134698896D01*
X149609860Y-134569173D01*
X149768096Y-134411489D01*
X149898453Y-134230077D01*
X149899640Y-134230930D01*
X149946960Y-134187362D01*
X150016897Y-134175145D01*
X150082338Y-134202678D01*
X150110166Y-134234511D01*
X150167694Y-134328388D01*
X150173777Y-134336699D01*
X150313213Y-134497667D01*
X150320580Y-134504883D01*
X150484434Y-134640916D01*
X150492881Y-134646831D01*
X150676756Y-134754279D01*
X150686042Y-134758729D01*
X150885001Y-134834703D01*
X150894899Y-134837579D01*
X150998250Y-134858606D01*
X151012299Y-134857410D01*
X151016000Y-134847065D01*
X151016000Y-134846517D01*
X151524000Y-134846517D01*
X151528064Y-134860359D01*
X151541478Y-134862393D01*
X151548184Y-134861534D01*
X151558262Y-134859392D01*
X151762255Y-134798191D01*
X151771842Y-134794433D01*
X151963095Y-134700739D01*
X151971945Y-134695464D01*
X152145328Y-134571792D01*
X152153200Y-134565139D01*
X152304052Y-134414812D01*
X152310730Y-134406965D01*
X152438022Y-134229819D01*
X152439279Y-134230722D01*
X152486373Y-134187362D01*
X152556311Y-134175145D01*
X152621751Y-134202678D01*
X152649579Y-134234511D01*
X152709987Y-134333088D01*
X152856250Y-134501938D01*
X153028126Y-134644632D01*
X153221000Y-134757338D01*
X153429692Y-134837030D01*
X153434760Y-134838061D01*
X153434763Y-134838062D01*
X153529862Y-134857410D01*
X153648597Y-134881567D01*
X153653772Y-134881757D01*
X153653774Y-134881757D01*
X153866673Y-134889564D01*
X153866677Y-134889564D01*
X153871837Y-134889753D01*
X153876957Y-134889097D01*
X153876959Y-134889097D01*
X154088288Y-134862025D01*
X154088289Y-134862025D01*
X154093416Y-134861368D01*
X154098366Y-134859883D01*
X154302429Y-134798661D01*
X154302434Y-134798659D01*
X154307384Y-134797174D01*
X154507994Y-134698896D01*
X154689860Y-134569173D01*
X154848096Y-134411489D01*
X154978453Y-134230077D01*
X154979776Y-134231028D01*
X155026645Y-134187857D01*
X155096580Y-134175625D01*
X155162026Y-134203144D01*
X155189875Y-134234994D01*
X155249987Y-134333088D01*
X155396250Y-134501938D01*
X155568126Y-134644632D01*
X155761000Y-134757338D01*
X155969692Y-134837030D01*
X155974760Y-134838061D01*
X155974763Y-134838062D01*
X156069862Y-134857410D01*
X156188597Y-134881567D01*
X156193772Y-134881757D01*
X156193774Y-134881757D01*
X156406673Y-134889564D01*
X156406677Y-134889564D01*
X156411837Y-134889753D01*
X156416957Y-134889097D01*
X156416959Y-134889097D01*
X156628288Y-134862025D01*
X156628289Y-134862025D01*
X156633416Y-134861368D01*
X156638366Y-134859883D01*
X156842429Y-134798661D01*
X156842434Y-134798659D01*
X156847384Y-134797174D01*
X157047994Y-134698896D01*
X157229860Y-134569173D01*
X157388096Y-134411489D01*
X157518453Y-134230077D01*
X157531995Y-134202678D01*
X157615136Y-134034453D01*
X157615137Y-134034451D01*
X157617430Y-134029811D01*
X157682370Y-133816069D01*
X157711529Y-133594590D01*
X157713156Y-133528000D01*
X157694852Y-133305361D01*
X157640431Y-133088702D01*
X157551354Y-132883840D01*
X157430014Y-132696277D01*
X157279670Y-132531051D01*
X157275619Y-132527852D01*
X157275615Y-132527848D01*
X157108414Y-132395800D01*
X157108410Y-132395798D01*
X157104359Y-132392598D01*
X157093121Y-132386394D01*
X157035710Y-132354702D01*
X156908789Y-132284638D01*
X156903920Y-132282914D01*
X156903916Y-132282912D01*
X156703087Y-132211795D01*
X156703083Y-132211794D01*
X156698212Y-132210069D01*
X156693119Y-132209162D01*
X156693116Y-132209161D01*
X156483373Y-132171800D01*
X156483367Y-132171799D01*
X156478284Y-132170894D01*
X156404452Y-132169992D01*
X156260081Y-132168228D01*
X156260079Y-132168228D01*
X156254911Y-132168165D01*
X156034091Y-132201955D01*
X155821756Y-132271357D01*
X155623607Y-132374507D01*
X155619474Y-132377610D01*
X155619471Y-132377612D01*
X155449100Y-132505530D01*
X155444965Y-132508635D01*
X155441393Y-132512373D01*
X155333729Y-132625037D01*
X155290629Y-132670138D01*
X155183201Y-132827621D01*
X155128293Y-132872621D01*
X155057768Y-132880792D01*
X154994021Y-132849538D01*
X154973324Y-132825054D01*
X154892822Y-132700617D01*
X154892820Y-132700614D01*
X154890014Y-132696277D01*
X154739670Y-132531051D01*
X154735619Y-132527852D01*
X154735615Y-132527848D01*
X154568414Y-132395800D01*
X154568410Y-132395798D01*
X154564359Y-132392598D01*
X154553121Y-132386394D01*
X154495710Y-132354702D01*
X154368789Y-132284638D01*
X154363920Y-132282914D01*
X154363916Y-132282912D01*
X154163087Y-132211795D01*
X154163083Y-132211794D01*
X154158212Y-132210069D01*
X154153119Y-132209162D01*
X154153116Y-132209161D01*
X153943373Y-132171800D01*
X153943367Y-132171799D01*
X153938284Y-132170894D01*
X153864452Y-132169992D01*
X153720081Y-132168228D01*
X153720079Y-132168228D01*
X153714911Y-132168165D01*
X153494091Y-132201955D01*
X153281756Y-132271357D01*
X153083607Y-132374507D01*
X153079474Y-132377610D01*
X153079471Y-132377612D01*
X152909100Y-132505530D01*
X152904965Y-132508635D01*
X152901393Y-132512373D01*
X152793729Y-132625037D01*
X152750629Y-132670138D01*
X152643204Y-132827618D01*
X152642898Y-132828066D01*
X152587987Y-132873069D01*
X152517462Y-132881240D01*
X152453715Y-132849986D01*
X152433018Y-132825502D01*
X152352426Y-132700926D01*
X152346136Y-132692757D01*
X152202806Y-132535240D01*
X152195273Y-132528215D01*
X152028139Y-132396222D01*
X152019552Y-132390517D01*
X151833117Y-132287599D01*
X151823705Y-132283369D01*
X151622959Y-132212280D01*
X151612988Y-132209646D01*
X151541837Y-132196972D01*
X151528540Y-132198432D01*
X151524000Y-132212989D01*
X151524000Y-134846517D01*
X151016000Y-134846517D01*
X151016000Y-132192987D01*
X151020447Y-132192987D01*
X151020440Y-132155275D01*
X151052248Y-132101656D01*
X151495499Y-131658405D01*
X151557811Y-131624379D01*
X151584594Y-131621500D01*
X151953233Y-131621500D01*
X151964416Y-131622027D01*
X151971909Y-131623702D01*
X151979835Y-131623453D01*
X151979836Y-131623453D01*
X152039986Y-131621562D01*
X152043945Y-131621500D01*
X152071856Y-131621500D01*
X152075791Y-131621003D01*
X152075856Y-131620995D01*
X152087693Y-131620062D01*
X152119951Y-131619048D01*
X152123970Y-131618922D01*
X152131889Y-131618673D01*
X152151343Y-131613021D01*
X152170700Y-131609013D01*
X152182930Y-131607468D01*
X152182931Y-131607468D01*
X152190797Y-131606474D01*
X152198168Y-131603555D01*
X152198170Y-131603555D01*
X152231912Y-131590196D01*
X152243142Y-131586351D01*
X152277983Y-131576229D01*
X152277984Y-131576229D01*
X152285593Y-131574018D01*
X152292412Y-131569985D01*
X152292417Y-131569983D01*
X152303028Y-131563707D01*
X152320776Y-131555012D01*
X152339617Y-131547552D01*
X152375387Y-131521564D01*
X152385307Y-131515048D01*
X152416535Y-131496580D01*
X152416538Y-131496578D01*
X152423362Y-131492542D01*
X152437683Y-131478221D01*
X152452717Y-131465380D01*
X152462694Y-131458131D01*
X152469107Y-131453472D01*
X152497298Y-131419395D01*
X152505288Y-131410616D01*
X153948247Y-129967657D01*
X153956537Y-129960113D01*
X153963018Y-129956000D01*
X154009659Y-129906332D01*
X154012413Y-129903491D01*
X154032134Y-129883770D01*
X154034612Y-129880575D01*
X154042318Y-129871553D01*
X154051734Y-129861526D01*
X154072586Y-129839321D01*
X154078732Y-129828142D01*
X154082346Y-129821568D01*
X154093199Y-129805045D01*
X154100753Y-129795306D01*
X154105613Y-129789041D01*
X154123176Y-129748457D01*
X154128383Y-129737827D01*
X154149695Y-129699060D01*
X154151666Y-129691383D01*
X154151668Y-129691378D01*
X154154732Y-129679442D01*
X154161138Y-129660730D01*
X154166034Y-129649417D01*
X154169181Y-129642145D01*
X154176097Y-129598481D01*
X154178504Y-129586860D01*
X154187528Y-129551711D01*
X154187528Y-129551710D01*
X154189500Y-129544030D01*
X154189500Y-129523769D01*
X154191051Y-129504058D01*
X154192979Y-129491885D01*
X154194219Y-129484057D01*
X154190059Y-129440046D01*
X154189500Y-129428189D01*
X154189500Y-126494763D01*
X154190027Y-126483579D01*
X154191701Y-126476091D01*
X154189562Y-126408032D01*
X154189500Y-126404075D01*
X154189500Y-126376144D01*
X154188994Y-126372138D01*
X154188061Y-126360292D01*
X154186922Y-126324037D01*
X154186673Y-126316110D01*
X154181022Y-126296658D01*
X154177014Y-126277306D01*
X154175468Y-126265068D01*
X154175467Y-126265066D01*
X154174474Y-126257203D01*
X154158194Y-126216086D01*
X154154359Y-126204885D01*
X154142018Y-126162406D01*
X154137985Y-126155587D01*
X154137983Y-126155582D01*
X154131707Y-126144971D01*
X154123010Y-126127221D01*
X154115552Y-126108383D01*
X154089571Y-126072623D01*
X154083053Y-126062701D01*
X154064578Y-126031460D01*
X154064574Y-126031455D01*
X154060542Y-126024637D01*
X154046218Y-126010313D01*
X154033376Y-125995278D01*
X154021472Y-125978893D01*
X153987406Y-125950711D01*
X153978627Y-125942722D01*
X152837206Y-124801301D01*
X152803180Y-124738989D01*
X152800991Y-124725375D01*
X152799232Y-124708635D01*
X152799232Y-124708633D01*
X152798542Y-124702072D01*
X152739527Y-124520444D01*
X152644040Y-124355056D01*
X152570863Y-124273785D01*
X152540147Y-124209779D01*
X152538500Y-124189476D01*
X152538500Y-123313656D01*
X152558502Y-123245535D01*
X152612158Y-123199042D01*
X152682432Y-123188938D01*
X152715748Y-123198549D01*
X152765712Y-123220794D01*
X152859113Y-123240647D01*
X152946056Y-123259128D01*
X152946061Y-123259128D01*
X152952513Y-123260500D01*
X153143487Y-123260500D01*
X153149939Y-123259128D01*
X153149944Y-123259128D01*
X153236887Y-123240647D01*
X153330288Y-123220794D01*
X153379144Y-123199042D01*
X153498722Y-123145803D01*
X153498724Y-123145802D01*
X153504752Y-123143118D01*
X153659253Y-123030866D01*
X153787040Y-122888944D01*
X153882527Y-122723556D01*
X153941542Y-122541928D01*
X153961504Y-122352000D01*
X153941542Y-122162072D01*
X153882527Y-121980444D01*
X153787040Y-121815056D01*
X153713863Y-121733785D01*
X153683147Y-121669779D01*
X153681500Y-121649476D01*
X153681500Y-114102703D01*
X159955743Y-114102703D01*
X159993268Y-114387734D01*
X160069129Y-114665036D01*
X160181923Y-114929476D01*
X160329561Y-115176161D01*
X160509313Y-115400528D01*
X160526397Y-115416740D01*
X160691882Y-115573779D01*
X160717851Y-115598423D01*
X160951317Y-115766186D01*
X160955112Y-115768195D01*
X160955113Y-115768196D01*
X160976869Y-115779715D01*
X161205392Y-115900712D01*
X161475373Y-115999511D01*
X161756264Y-116060755D01*
X161784841Y-116063004D01*
X161979282Y-116078307D01*
X161979291Y-116078307D01*
X161981739Y-116078500D01*
X162137271Y-116078500D01*
X162139407Y-116078354D01*
X162139418Y-116078354D01*
X162347548Y-116064165D01*
X162347554Y-116064164D01*
X162351825Y-116063873D01*
X162356020Y-116063004D01*
X162356022Y-116063004D01*
X162492584Y-116034723D01*
X162633342Y-116005574D01*
X162904343Y-115909607D01*
X163159812Y-115777750D01*
X163163313Y-115775289D01*
X163163317Y-115775287D01*
X163381995Y-115621597D01*
X163395023Y-115612441D01*
X163605622Y-115416740D01*
X163787713Y-115194268D01*
X163937927Y-114949142D01*
X164053483Y-114685898D01*
X164132244Y-114409406D01*
X164172751Y-114124784D01*
X164172845Y-114106951D01*
X164174235Y-113841583D01*
X164174235Y-113841576D01*
X164174257Y-113837297D01*
X164136732Y-113552266D01*
X164060871Y-113274964D01*
X164028164Y-113198285D01*
X163949763Y-113014476D01*
X163949761Y-113014472D01*
X163948077Y-113010524D01*
X163800439Y-112763839D01*
X163620687Y-112539472D01*
X163412149Y-112341577D01*
X163178683Y-112173814D01*
X163156843Y-112162250D01*
X163111699Y-112138348D01*
X162924608Y-112039288D01*
X162761230Y-111979500D01*
X162658658Y-111941964D01*
X162658656Y-111941963D01*
X162654627Y-111940489D01*
X162373736Y-111879245D01*
X162342685Y-111876801D01*
X162150718Y-111861693D01*
X162150709Y-111861693D01*
X162148261Y-111861500D01*
X161992729Y-111861500D01*
X161990593Y-111861646D01*
X161990582Y-111861646D01*
X161782452Y-111875835D01*
X161782446Y-111875836D01*
X161778175Y-111876127D01*
X161773980Y-111876996D01*
X161773978Y-111876996D01*
X161637416Y-111905277D01*
X161496658Y-111934426D01*
X161225657Y-112030393D01*
X161221848Y-112032359D01*
X161086334Y-112102303D01*
X160970188Y-112162250D01*
X160966687Y-112164711D01*
X160966683Y-112164713D01*
X160852582Y-112244905D01*
X160734977Y-112327559D01*
X160719892Y-112341577D01*
X160614122Y-112439865D01*
X160524378Y-112523260D01*
X160342287Y-112745732D01*
X160192073Y-112990858D01*
X160076517Y-113254102D01*
X160075342Y-113258229D01*
X160075341Y-113258230D01*
X160049566Y-113348714D01*
X159997756Y-113530594D01*
X159957249Y-113815216D01*
X159957227Y-113819505D01*
X159957226Y-113819512D01*
X159955765Y-114098417D01*
X159955743Y-114102703D01*
X153681500Y-114102703D01*
X153681500Y-113464500D01*
X153701502Y-113396379D01*
X153755158Y-113349886D01*
X153807500Y-113338500D01*
X154308134Y-113338500D01*
X154370316Y-113331745D01*
X154506705Y-113280615D01*
X154623261Y-113193261D01*
X154710615Y-113076705D01*
X154761745Y-112940316D01*
X154768500Y-112878134D01*
X155391500Y-112878134D01*
X155398255Y-112940316D01*
X155449385Y-113076705D01*
X155536739Y-113193261D01*
X155653295Y-113280615D01*
X155789684Y-113331745D01*
X155851866Y-113338500D01*
X156848134Y-113338500D01*
X156910316Y-113331745D01*
X157046705Y-113280615D01*
X157163261Y-113193261D01*
X157250615Y-113076705D01*
X157301745Y-112940316D01*
X157308500Y-112878134D01*
X157308500Y-111869594D01*
X157328502Y-111801474D01*
X157345405Y-111780500D01*
X157461773Y-111664132D01*
X157470059Y-111656592D01*
X157476538Y-111652480D01*
X157523164Y-111602828D01*
X157525918Y-111599987D01*
X157545655Y-111580250D01*
X157548135Y-111577053D01*
X157555840Y-111568031D01*
X157563232Y-111560160D01*
X157586106Y-111535801D01*
X157595867Y-111518046D01*
X157606718Y-111501527D01*
X157619134Y-111485521D01*
X157625285Y-111471307D01*
X157636694Y-111444943D01*
X157641911Y-111434293D01*
X157663215Y-111395540D01*
X157668253Y-111375917D01*
X157674657Y-111357214D01*
X157679553Y-111345900D01*
X157679553Y-111345899D01*
X157682701Y-111338625D01*
X157683940Y-111330802D01*
X157683943Y-111330792D01*
X157689619Y-111294956D01*
X157692025Y-111283336D01*
X157701048Y-111248191D01*
X157701048Y-111248190D01*
X157703020Y-111240510D01*
X157703020Y-111220256D01*
X157704571Y-111200545D01*
X157706500Y-111188366D01*
X157707740Y-111180537D01*
X157703579Y-111136518D01*
X157703020Y-111124661D01*
X157703020Y-109180288D01*
X157703547Y-109169105D01*
X157705222Y-109161612D01*
X157703082Y-109093521D01*
X157703020Y-109089564D01*
X157703020Y-109061664D01*
X157702516Y-109057673D01*
X157701583Y-109045831D01*
X157700965Y-109026147D01*
X157700194Y-109001631D01*
X157694541Y-108982172D01*
X157690532Y-108962813D01*
X157689997Y-108958580D01*
X157687994Y-108942723D01*
X157685078Y-108935357D01*
X157685076Y-108935351D01*
X157671720Y-108901618D01*
X157667875Y-108890388D01*
X157657750Y-108855537D01*
X157657750Y-108855536D01*
X157655539Y-108847927D01*
X157645225Y-108830486D01*
X157636528Y-108812733D01*
X157631992Y-108801278D01*
X157629072Y-108793903D01*
X157603083Y-108758132D01*
X157596567Y-108748212D01*
X157574062Y-108710158D01*
X157568458Y-108704553D01*
X157559740Y-108695835D01*
X157546899Y-108680801D01*
X157539651Y-108670825D01*
X157539650Y-108670824D01*
X157534992Y-108664413D01*
X157500927Y-108636232D01*
X157492146Y-108628242D01*
X157201647Y-108337742D01*
X157194113Y-108329463D01*
X157190000Y-108322982D01*
X157140347Y-108276355D01*
X157137506Y-108273601D01*
X157117770Y-108253865D01*
X157114573Y-108251385D01*
X157105551Y-108243680D01*
X157092116Y-108231064D01*
X157073321Y-108213414D01*
X157066375Y-108209595D01*
X157066372Y-108209593D01*
X157055566Y-108203652D01*
X157039047Y-108192801D01*
X157038583Y-108192441D01*
X157023041Y-108180386D01*
X157015772Y-108177241D01*
X157015768Y-108177238D01*
X156982463Y-108162826D01*
X156971813Y-108157609D01*
X156933060Y-108136305D01*
X156913437Y-108131267D01*
X156894734Y-108124863D01*
X156883420Y-108119967D01*
X156883419Y-108119967D01*
X156876145Y-108116819D01*
X156868322Y-108115580D01*
X156868312Y-108115577D01*
X156832476Y-108109901D01*
X156820856Y-108107495D01*
X156785711Y-108098472D01*
X156785710Y-108098472D01*
X156778030Y-108096500D01*
X156757776Y-108096500D01*
X156738065Y-108094949D01*
X156735534Y-108094548D01*
X156718057Y-108091780D01*
X156710165Y-108092526D01*
X156674039Y-108095941D01*
X156662181Y-108096500D01*
X156310144Y-108096500D01*
X156253432Y-108103665D01*
X156199068Y-108110532D01*
X156199065Y-108110533D01*
X156191203Y-108111526D01*
X156183836Y-108114443D01*
X156183835Y-108114443D01*
X156150374Y-108127691D01*
X156042383Y-108170448D01*
X156035972Y-108175106D01*
X156035970Y-108175107D01*
X155988499Y-108209597D01*
X155912893Y-108264528D01*
X155810867Y-108387856D01*
X155807494Y-108395023D01*
X155807492Y-108395027D01*
X155780952Y-108451429D01*
X155742717Y-108532682D01*
X155712725Y-108689906D01*
X155722775Y-108849650D01*
X155725224Y-108857186D01*
X155725224Y-108857188D01*
X155758169Y-108958580D01*
X155772236Y-109001875D01*
X155858000Y-109137018D01*
X155897249Y-109173875D01*
X155924159Y-109199145D01*
X155960124Y-109260357D01*
X155957287Y-109331297D01*
X155928333Y-109377945D01*
X155925284Y-109380284D01*
X155829831Y-109504681D01*
X155769827Y-109649543D01*
X155754500Y-109765965D01*
X155754500Y-110894035D01*
X155755038Y-110898121D01*
X155755038Y-110898122D01*
X155759924Y-110935234D01*
X155748985Y-111005382D01*
X155701857Y-111058481D01*
X155679236Y-111069660D01*
X155653295Y-111079385D01*
X155536739Y-111166739D01*
X155449385Y-111283295D01*
X155398255Y-111419684D01*
X155391500Y-111481866D01*
X155391500Y-112878134D01*
X154768500Y-112878134D01*
X154768500Y-111481866D01*
X154761745Y-111419684D01*
X154721822Y-111313189D01*
X154716639Y-111242384D01*
X154724167Y-111218920D01*
X154749762Y-111159774D01*
X154752298Y-111153914D01*
X154793156Y-110958334D01*
X154793500Y-110951771D01*
X154793500Y-109755066D01*
X154778381Y-109606220D01*
X154718631Y-109415560D01*
X154700555Y-109382949D01*
X154647132Y-109286572D01*
X154621765Y-109240809D01*
X154562329Y-109171463D01*
X154495891Y-109093948D01*
X154495890Y-109093947D01*
X154491739Y-109089104D01*
X154477744Y-109078248D01*
X154338907Y-108970555D01*
X154338904Y-108970553D01*
X154333863Y-108966643D01*
X154328137Y-108963825D01*
X154328133Y-108963823D01*
X154160318Y-108881248D01*
X154154589Y-108878429D01*
X154044254Y-108849689D01*
X153967420Y-108829675D01*
X153967417Y-108829675D01*
X153961238Y-108828065D01*
X153867744Y-108823165D01*
X153768089Y-108817942D01*
X153768085Y-108817942D01*
X153761708Y-108817608D01*
X153564152Y-108847486D01*
X153558165Y-108849689D01*
X153558164Y-108849689D01*
X153415989Y-108901999D01*
X153376639Y-108916477D01*
X153297001Y-108965855D01*
X153226571Y-109009524D01*
X153206828Y-109021765D01*
X153061656Y-109159047D01*
X152947054Y-109322716D01*
X152867702Y-109506086D01*
X152826844Y-109701666D01*
X152826500Y-109708229D01*
X152826500Y-110904934D01*
X152826823Y-110908113D01*
X152839438Y-111032306D01*
X152841619Y-111053780D01*
X152843526Y-111059865D01*
X152843527Y-111059870D01*
X152898695Y-111235909D01*
X152899979Y-111306894D01*
X152896444Y-111317816D01*
X152858255Y-111419684D01*
X152851500Y-111481866D01*
X152851500Y-111890405D01*
X152831498Y-111958526D01*
X152814595Y-111979500D01*
X152655747Y-112138348D01*
X152647461Y-112145888D01*
X152640982Y-112150000D01*
X152635556Y-112155778D01*
X152635555Y-112155779D01*
X152623416Y-112168705D01*
X152562203Y-112204669D01*
X152491263Y-112201830D01*
X152433120Y-112161088D01*
X152423123Y-112146602D01*
X152409542Y-112123638D01*
X152395221Y-112109317D01*
X152382380Y-112094283D01*
X152375132Y-112084307D01*
X152370472Y-112077893D01*
X152336401Y-112049707D01*
X152327622Y-112041718D01*
X152265405Y-111979501D01*
X152231379Y-111917189D01*
X152228500Y-111890406D01*
X152228500Y-111481866D01*
X152221745Y-111419684D01*
X152181822Y-111313189D01*
X152176639Y-111242384D01*
X152184167Y-111218920D01*
X152209762Y-111159774D01*
X152212298Y-111153914D01*
X152253156Y-110958334D01*
X152253500Y-110951771D01*
X152253500Y-109755066D01*
X152238381Y-109606220D01*
X152178631Y-109415560D01*
X152160555Y-109382949D01*
X152107132Y-109286572D01*
X152081765Y-109240809D01*
X152022329Y-109171463D01*
X151955891Y-109093948D01*
X151955890Y-109093947D01*
X151951739Y-109089104D01*
X151937744Y-109078248D01*
X151798907Y-108970555D01*
X151798904Y-108970553D01*
X151793863Y-108966643D01*
X151788137Y-108963825D01*
X151788133Y-108963823D01*
X151620318Y-108881248D01*
X151614589Y-108878429D01*
X151504254Y-108849689D01*
X151427420Y-108829675D01*
X151427417Y-108829675D01*
X151421238Y-108828065D01*
X151327744Y-108823165D01*
X151228089Y-108817942D01*
X151228085Y-108817942D01*
X151221708Y-108817608D01*
X151024152Y-108847486D01*
X151018165Y-108849689D01*
X151018164Y-108849689D01*
X150875989Y-108901999D01*
X150836639Y-108916477D01*
X150757001Y-108965855D01*
X150686571Y-109009524D01*
X150666828Y-109021765D01*
X150521656Y-109159047D01*
X150407054Y-109322716D01*
X150327702Y-109506086D01*
X150286844Y-109701666D01*
X150286500Y-109708229D01*
X150286500Y-110904934D01*
X150286823Y-110908113D01*
X150299438Y-111032306D01*
X150301619Y-111053780D01*
X150303526Y-111059865D01*
X150303527Y-111059870D01*
X150358695Y-111235909D01*
X150359979Y-111306894D01*
X150356444Y-111317816D01*
X150318255Y-111419684D01*
X150311500Y-111481866D01*
X150311500Y-112878134D01*
X150318255Y-112940316D01*
X150369385Y-113076705D01*
X150456739Y-113193261D01*
X150573295Y-113280615D01*
X150709684Y-113331745D01*
X150771866Y-113338500D01*
X151145500Y-113338500D01*
X151213621Y-113358502D01*
X151260114Y-113412158D01*
X151271500Y-113464500D01*
X151271500Y-116964459D01*
X151251498Y-117032580D01*
X151197842Y-117079073D01*
X151127568Y-117089177D01*
X151071439Y-117066395D01*
X150970094Y-116992763D01*
X150970093Y-116992762D01*
X150964752Y-116988882D01*
X150958724Y-116986198D01*
X150958722Y-116986197D01*
X150796319Y-116913891D01*
X150796318Y-116913891D01*
X150790288Y-116911206D01*
X150696887Y-116891353D01*
X150609944Y-116872872D01*
X150609939Y-116872872D01*
X150603487Y-116871500D01*
X150412513Y-116871500D01*
X150406061Y-116872872D01*
X150406056Y-116872872D01*
X150319113Y-116891353D01*
X150225712Y-116911206D01*
X150219682Y-116913891D01*
X150219681Y-116913891D01*
X150057278Y-116986197D01*
X150057276Y-116986198D01*
X150051248Y-116988882D01*
X149896747Y-117101134D01*
X149768960Y-117243056D01*
X149673473Y-117408444D01*
X149614458Y-117590072D01*
X149594496Y-117780000D01*
X149614458Y-117969928D01*
X149673473Y-118151556D01*
X149676776Y-118157278D01*
X149676777Y-118157279D01*
X149731805Y-118252590D01*
X149748543Y-118321585D01*
X149725323Y-118388677D01*
X149673934Y-118430697D01*
X149549281Y-118486195D01*
X149549274Y-118486199D01*
X149543248Y-118488882D01*
X149388747Y-118601134D01*
X149260960Y-118743056D01*
X149165473Y-118908444D01*
X149106458Y-119090072D01*
X149086496Y-119280000D01*
X149106458Y-119469928D01*
X149165473Y-119651556D01*
X149260960Y-119816944D01*
X149388747Y-119958866D01*
X149404072Y-119970000D01*
X149447425Y-120026221D01*
X149456011Y-120071936D01*
X149456011Y-125381500D01*
X149436009Y-125449621D01*
X149382353Y-125496114D01*
X149330011Y-125507500D01*
X149269513Y-125507500D01*
X149263061Y-125508872D01*
X149263056Y-125508872D01*
X149176113Y-125527353D01*
X149082712Y-125547206D01*
X149076682Y-125549891D01*
X149076681Y-125549891D01*
X148914278Y-125622197D01*
X148914276Y-125622198D01*
X148908248Y-125624882D01*
X148804060Y-125700579D01*
X148737194Y-125724437D01*
X148668042Y-125708357D01*
X148655944Y-125700582D01*
X148551752Y-125624882D01*
X148545724Y-125622198D01*
X148545722Y-125622197D01*
X148383319Y-125549891D01*
X148383318Y-125549891D01*
X148377288Y-125547206D01*
X148283887Y-125527353D01*
X148196944Y-125508872D01*
X148196939Y-125508872D01*
X148190487Y-125507500D01*
X147999513Y-125507500D01*
X147993061Y-125508872D01*
X147993056Y-125508872D01*
X147906113Y-125527353D01*
X147812712Y-125547206D01*
X147806682Y-125549891D01*
X147806681Y-125549891D01*
X147644278Y-125622197D01*
X147644276Y-125622198D01*
X147638248Y-125624882D01*
X147483747Y-125737134D01*
X147479326Y-125742044D01*
X147479325Y-125742045D01*
X147428189Y-125798838D01*
X147355960Y-125879056D01*
X147352659Y-125884774D01*
X147271909Y-126024637D01*
X147260473Y-126044444D01*
X147201458Y-126226072D01*
X147200768Y-126232633D01*
X147200768Y-126232635D01*
X147187351Y-126360292D01*
X147181496Y-126416000D01*
X147182186Y-126422565D01*
X147196824Y-126561834D01*
X147201458Y-126605928D01*
X147203498Y-126612206D01*
X147232547Y-126701611D01*
X147234574Y-126772579D01*
X147201809Y-126829642D01*
X143688856Y-130342595D01*
X143626544Y-130376621D01*
X143599761Y-130379500D01*
X142879130Y-130379500D01*
X142862687Y-130378422D01*
X142830994Y-130374250D01*
X142822805Y-130375328D01*
X142791120Y-130379499D01*
X142791111Y-130379500D01*
X142791109Y-130379500D01*
X142791103Y-130379501D01*
X142791101Y-130379501D01*
X142691537Y-130392609D01*
X142680330Y-130394084D01*
X142680328Y-130394085D01*
X142672143Y-130395162D01*
X142598131Y-130425819D01*
X142531746Y-130453316D01*
X142531744Y-130453317D01*
X142524118Y-130456476D01*
X142467323Y-130500057D01*
X142397007Y-130554013D01*
X142391981Y-130560563D01*
X142391978Y-130560566D01*
X142377542Y-130579380D01*
X142366675Y-130591771D01*
X141076246Y-131882199D01*
X141063855Y-131893066D01*
X141038493Y-131912527D01*
X141014006Y-131944439D01*
X141014003Y-131944442D01*
X141013997Y-131944450D01*
X140952886Y-132024091D01*
X140940956Y-132039638D01*
X140917526Y-132096204D01*
X140884991Y-132174750D01*
X140881211Y-132183875D01*
X140879642Y-132187664D01*
X140878564Y-132195852D01*
X140877761Y-132201955D01*
X140863980Y-132306629D01*
X140863980Y-132306634D01*
X140858730Y-132346514D01*
X140859808Y-132354702D01*
X140862902Y-132378204D01*
X140863980Y-132394650D01*
X140863980Y-135677350D01*
X140862902Y-135693793D01*
X140858730Y-135725486D01*
X138915857Y-135725486D01*
X138794608Y-135661288D01*
X138524627Y-135562489D01*
X138243736Y-135501245D01*
X138212685Y-135498801D01*
X138020718Y-135483693D01*
X138020709Y-135483693D01*
X138018261Y-135483500D01*
X137862729Y-135483500D01*
X137860593Y-135483646D01*
X137860582Y-135483646D01*
X137652452Y-135497835D01*
X137652446Y-135497836D01*
X137648175Y-135498127D01*
X137643980Y-135498996D01*
X137643978Y-135498996D01*
X137507417Y-135527276D01*
X137366658Y-135556426D01*
X137095657Y-135652393D01*
X137091848Y-135654359D01*
X136938176Y-135733675D01*
X136840188Y-135784250D01*
X136836687Y-135786711D01*
X136836683Y-135786713D01*
X136826594Y-135793804D01*
X136604977Y-135949559D01*
X136589892Y-135963577D01*
X136413428Y-136127558D01*
X136394378Y-136145260D01*
X136212287Y-136367732D01*
X136062073Y-136612858D01*
X136060347Y-136616791D01*
X136060346Y-136616792D01*
X136001651Y-136750503D01*
X135946517Y-136876102D01*
X135867756Y-137152594D01*
X135827249Y-137437216D01*
X135827227Y-137441505D01*
X135827226Y-137441512D01*
X135825765Y-137720417D01*
X135825743Y-137724703D01*
X134004135Y-137724703D01*
X133999997Y-137635183D01*
X134001362Y-137609984D01*
X134001805Y-137607141D01*
X134001805Y-137607139D01*
X134003186Y-137598269D01*
X133999035Y-137566526D01*
X133997972Y-137550284D01*
X133997972Y-137549489D01*
X133982103Y-114102703D01*
X135825743Y-114102703D01*
X135863268Y-114387734D01*
X135939129Y-114665036D01*
X136051923Y-114929476D01*
X136199561Y-115176161D01*
X136379313Y-115400528D01*
X136396397Y-115416740D01*
X136561882Y-115573779D01*
X136587851Y-115598423D01*
X136821317Y-115766186D01*
X136825112Y-115768195D01*
X136825113Y-115768196D01*
X136846869Y-115779715D01*
X137075392Y-115900712D01*
X137345373Y-115999511D01*
X137626264Y-116060755D01*
X137654841Y-116063004D01*
X137849282Y-116078307D01*
X137849291Y-116078307D01*
X137851739Y-116078500D01*
X138007271Y-116078500D01*
X138009407Y-116078354D01*
X138009418Y-116078354D01*
X138217548Y-116064165D01*
X138217554Y-116064164D01*
X138221825Y-116063873D01*
X138226020Y-116063004D01*
X138226022Y-116063004D01*
X138362584Y-116034723D01*
X138503342Y-116005574D01*
X138774343Y-115909607D01*
X139029812Y-115777750D01*
X139033313Y-115775289D01*
X139033317Y-115775287D01*
X139251995Y-115621597D01*
X139265023Y-115612441D01*
X139475622Y-115416740D01*
X139657713Y-115194268D01*
X139807927Y-114949142D01*
X139923483Y-114685898D01*
X140002244Y-114409406D01*
X140042751Y-114124784D01*
X140042845Y-114106951D01*
X140044235Y-113841583D01*
X140044235Y-113841576D01*
X140044257Y-113837297D01*
X140006732Y-113552266D01*
X139930871Y-113274964D01*
X139898164Y-113198285D01*
X139819763Y-113014476D01*
X139819761Y-113014472D01*
X139818077Y-113010524D01*
X139670439Y-112763839D01*
X139490687Y-112539472D01*
X139282149Y-112341577D01*
X139048683Y-112173814D01*
X139026843Y-112162250D01*
X138981699Y-112138348D01*
X138794608Y-112039288D01*
X138631230Y-111979500D01*
X138528658Y-111941964D01*
X138528656Y-111941963D01*
X138524627Y-111940489D01*
X138243736Y-111879245D01*
X138212685Y-111876801D01*
X138020718Y-111861693D01*
X138020709Y-111861693D01*
X138018261Y-111861500D01*
X137862729Y-111861500D01*
X137860593Y-111861646D01*
X137860582Y-111861646D01*
X137652452Y-111875835D01*
X137652446Y-111875836D01*
X137648175Y-111876127D01*
X137643980Y-111876996D01*
X137643978Y-111876996D01*
X137507416Y-111905277D01*
X137366658Y-111934426D01*
X137095657Y-112030393D01*
X137091848Y-112032359D01*
X136956334Y-112102303D01*
X136840188Y-112162250D01*
X136836687Y-112164711D01*
X136836683Y-112164713D01*
X136722582Y-112244905D01*
X136604977Y-112327559D01*
X136589892Y-112341577D01*
X136484122Y-112439865D01*
X136394378Y-112523260D01*
X136212287Y-112745732D01*
X136062073Y-112990858D01*
X135946517Y-113254102D01*
X135945342Y-113258229D01*
X135945341Y-113258230D01*
X135919566Y-113348714D01*
X135867756Y-113530594D01*
X135827249Y-113815216D01*
X135827227Y-113819505D01*
X135827226Y-113819512D01*
X135825765Y-114098417D01*
X135825743Y-114102703D01*
X133982103Y-114102703D01*
X133978733Y-109123943D01*
X142249780Y-109123943D01*
X142250526Y-109131835D01*
X142253941Y-109167961D01*
X142254500Y-109179819D01*
X142254500Y-111039233D01*
X142253973Y-111050416D01*
X142252298Y-111057909D01*
X142252547Y-111065835D01*
X142252547Y-111065836D01*
X142254438Y-111125986D01*
X142254500Y-111129945D01*
X142254500Y-111157856D01*
X142254997Y-111161790D01*
X142254997Y-111161791D01*
X142255005Y-111161856D01*
X142255938Y-111173693D01*
X142257327Y-111217889D01*
X142262978Y-111237339D01*
X142266987Y-111256700D01*
X142269526Y-111276797D01*
X142272445Y-111284168D01*
X142272445Y-111284170D01*
X142285804Y-111317912D01*
X142289649Y-111329142D01*
X142299771Y-111363983D01*
X142301982Y-111371593D01*
X142306015Y-111378412D01*
X142306017Y-111378417D01*
X142312293Y-111389028D01*
X142320988Y-111406776D01*
X142328448Y-111425617D01*
X142333110Y-111432033D01*
X142333110Y-111432034D01*
X142354436Y-111461387D01*
X142360952Y-111471307D01*
X142378485Y-111500953D01*
X142383458Y-111509362D01*
X142397779Y-111523683D01*
X142410619Y-111538716D01*
X142422528Y-111555107D01*
X142428636Y-111560160D01*
X142456598Y-111583292D01*
X142465378Y-111591282D01*
X142654595Y-111780499D01*
X142688621Y-111842811D01*
X142691500Y-111869594D01*
X142691500Y-112878134D01*
X142698255Y-112940316D01*
X142749385Y-113076705D01*
X142836739Y-113193261D01*
X142953295Y-113280615D01*
X143089684Y-113331745D01*
X143151866Y-113338500D01*
X144148134Y-113338500D01*
X144210316Y-113331745D01*
X144346705Y-113280615D01*
X144463261Y-113193261D01*
X144550615Y-113076705D01*
X144601745Y-112940316D01*
X144608500Y-112878134D01*
X144608500Y-111481866D01*
X144601745Y-111419684D01*
X144550615Y-111283295D01*
X144463261Y-111166739D01*
X144346705Y-111079385D01*
X144320768Y-111069662D01*
X144264005Y-111027022D01*
X144239304Y-110960460D01*
X144240076Y-110935234D01*
X144244065Y-110904934D01*
X145206500Y-110904934D01*
X145206823Y-110908113D01*
X145219438Y-111032306D01*
X145221619Y-111053780D01*
X145223526Y-111059865D01*
X145223527Y-111059870D01*
X145278695Y-111235909D01*
X145279979Y-111306894D01*
X145276444Y-111317816D01*
X145238255Y-111419684D01*
X145231500Y-111481866D01*
X145231500Y-112878134D01*
X145238255Y-112940316D01*
X145289385Y-113076705D01*
X145376739Y-113193261D01*
X145493295Y-113280615D01*
X145629684Y-113331745D01*
X145691866Y-113338500D01*
X146688134Y-113338500D01*
X146691520Y-113338132D01*
X146693683Y-113338015D01*
X146762786Y-113354302D01*
X146812114Y-113405364D01*
X146826500Y-113463830D01*
X146826500Y-115553476D01*
X146806498Y-115621597D01*
X146794142Y-115637779D01*
X146720960Y-115719056D01*
X146625473Y-115884444D01*
X146566458Y-116066072D01*
X146546496Y-116256000D01*
X146566458Y-116445928D01*
X146625473Y-116627556D01*
X146720960Y-116792944D01*
X146848747Y-116934866D01*
X147003248Y-117047118D01*
X147009276Y-117049802D01*
X147009278Y-117049803D01*
X147171681Y-117122109D01*
X147177712Y-117124794D01*
X147271113Y-117144647D01*
X147358056Y-117163128D01*
X147358061Y-117163128D01*
X147364513Y-117164500D01*
X147555487Y-117164500D01*
X147561939Y-117163128D01*
X147561944Y-117163128D01*
X147648887Y-117144647D01*
X147742288Y-117124794D01*
X147748319Y-117122109D01*
X147910722Y-117049803D01*
X147910724Y-117049802D01*
X147916752Y-117047118D01*
X148071253Y-116934866D01*
X148199040Y-116792944D01*
X148294527Y-116627556D01*
X148353542Y-116445928D01*
X148373504Y-116256000D01*
X148353542Y-116066072D01*
X148294527Y-115884444D01*
X148199040Y-115719056D01*
X148125863Y-115637785D01*
X148095147Y-115573779D01*
X148093500Y-115553476D01*
X148093500Y-113463328D01*
X148113502Y-113395207D01*
X148167158Y-113348714D01*
X148226312Y-113337512D01*
X148235325Y-113338000D01*
X148457885Y-113338000D01*
X148473124Y-113333525D01*
X148474329Y-113332135D01*
X148476000Y-113324452D01*
X148476000Y-113319884D01*
X148984000Y-113319884D01*
X148988475Y-113335123D01*
X148989865Y-113336328D01*
X148997548Y-113337999D01*
X149224669Y-113337999D01*
X149231490Y-113337629D01*
X149282352Y-113332105D01*
X149297604Y-113328479D01*
X149418054Y-113283324D01*
X149433649Y-113274786D01*
X149535724Y-113198285D01*
X149548285Y-113185724D01*
X149624786Y-113083649D01*
X149633324Y-113068054D01*
X149678478Y-112947606D01*
X149682105Y-112932351D01*
X149687631Y-112881486D01*
X149688000Y-112874672D01*
X149688000Y-112452115D01*
X149683525Y-112436876D01*
X149682135Y-112435671D01*
X149674452Y-112434000D01*
X149002115Y-112434000D01*
X148986876Y-112438475D01*
X148985671Y-112439865D01*
X148984000Y-112447548D01*
X148984000Y-113319884D01*
X148476000Y-113319884D01*
X148476000Y-112052000D01*
X148496002Y-111983879D01*
X148549658Y-111937386D01*
X148602000Y-111926000D01*
X149669884Y-111926000D01*
X149685123Y-111921525D01*
X149686328Y-111920135D01*
X149687999Y-111912452D01*
X149687999Y-111485331D01*
X149687629Y-111478510D01*
X149682105Y-111427648D01*
X149678479Y-111412397D01*
X149641536Y-111313852D01*
X149636353Y-111243045D01*
X149643881Y-111219581D01*
X149669762Y-111159774D01*
X149672298Y-111153914D01*
X149713156Y-110958334D01*
X149713500Y-110951771D01*
X149713500Y-109755066D01*
X149698381Y-109606220D01*
X149638631Y-109415560D01*
X149620555Y-109382949D01*
X149567132Y-109286572D01*
X149541765Y-109240809D01*
X149482329Y-109171463D01*
X149415891Y-109093948D01*
X149415890Y-109093947D01*
X149411739Y-109089104D01*
X149397744Y-109078248D01*
X149258907Y-108970555D01*
X149258904Y-108970553D01*
X149253863Y-108966643D01*
X149248137Y-108963825D01*
X149248133Y-108963823D01*
X149080318Y-108881248D01*
X149074589Y-108878429D01*
X148964254Y-108849689D01*
X148887420Y-108829675D01*
X148887417Y-108829675D01*
X148881238Y-108828065D01*
X148787744Y-108823165D01*
X148688089Y-108817942D01*
X148688085Y-108817942D01*
X148681708Y-108817608D01*
X148484152Y-108847486D01*
X148478165Y-108849689D01*
X148478164Y-108849689D01*
X148335989Y-108901999D01*
X148296639Y-108916477D01*
X148291215Y-108919840D01*
X148285894Y-108923139D01*
X148217458Y-108942034D01*
X148149671Y-108920931D01*
X148104053Y-108866529D01*
X148093500Y-108816051D01*
X148093500Y-106918594D01*
X148113502Y-106850473D01*
X148130405Y-106829499D01*
X151949979Y-103009925D01*
X152012291Y-102975899D01*
X152039074Y-102973020D01*
X156931185Y-102973020D01*
X156999306Y-102993022D01*
X157045799Y-103046678D01*
X157055903Y-103116952D01*
X157026409Y-103181532D01*
X156992271Y-103209222D01*
X156950055Y-103232623D01*
X156885809Y-103268235D01*
X156734104Y-103398261D01*
X156730197Y-103403298D01*
X156730195Y-103403300D01*
X156615555Y-103551093D01*
X156615553Y-103551096D01*
X156611643Y-103556137D01*
X156608825Y-103561863D01*
X156608823Y-103561867D01*
X156597301Y-103585283D01*
X156523429Y-103735411D01*
X156473065Y-103928762D01*
X156462608Y-104128292D01*
X156492486Y-104325848D01*
X156561477Y-104513361D01*
X156666765Y-104683172D01*
X156804047Y-104828344D01*
X156967716Y-104942946D01*
X157151086Y-105022298D01*
X157346666Y-105063156D01*
X157351522Y-105063411D01*
X157351561Y-105063413D01*
X157351577Y-105063413D01*
X157353229Y-105063500D01*
X158549934Y-105063500D01*
X158579230Y-105060524D01*
X158692434Y-105049026D01*
X158692438Y-105049025D01*
X158698780Y-105048381D01*
X158704865Y-105046474D01*
X158704870Y-105046473D01*
X158880909Y-104991305D01*
X158951894Y-104990021D01*
X158962816Y-104993556D01*
X159064684Y-105031745D01*
X159126866Y-105038500D01*
X160523134Y-105038500D01*
X160585316Y-105031745D01*
X160721705Y-104980615D01*
X160838261Y-104893261D01*
X160925615Y-104776705D01*
X160976745Y-104640316D01*
X160983500Y-104578134D01*
X160983500Y-103581866D01*
X160976745Y-103519684D01*
X160925615Y-103383295D01*
X160838261Y-103266739D01*
X160721705Y-103179385D01*
X160585316Y-103128255D01*
X160523134Y-103121500D01*
X159733740Y-103121500D01*
X159665619Y-103101498D01*
X159619126Y-103047842D01*
X159609022Y-102977568D01*
X159638516Y-102912988D01*
X159659679Y-102893564D01*
X159687866Y-102873085D01*
X159697787Y-102866568D01*
X159729015Y-102848100D01*
X159729018Y-102848098D01*
X159735842Y-102844062D01*
X159750166Y-102829738D01*
X159765193Y-102816903D01*
X159781587Y-102804992D01*
X159809772Y-102770923D01*
X159817760Y-102762145D01*
X159917256Y-102662648D01*
X159925538Y-102655112D01*
X159932018Y-102651000D01*
X159978645Y-102601347D01*
X159981399Y-102598506D01*
X160001135Y-102578770D01*
X160003615Y-102575573D01*
X160011320Y-102566551D01*
X160037899Y-102538247D01*
X160099111Y-102502282D01*
X160129749Y-102498500D01*
X160523134Y-102498500D01*
X160585316Y-102491745D01*
X160721705Y-102440615D01*
X160838261Y-102353261D01*
X160925615Y-102236705D01*
X160976745Y-102100316D01*
X160983500Y-102038134D01*
X160983500Y-101041866D01*
X160976745Y-100979684D01*
X160925615Y-100843295D01*
X160838261Y-100726739D01*
X160721705Y-100639385D01*
X160585316Y-100588255D01*
X160523134Y-100581500D01*
X159126866Y-100581500D01*
X159064684Y-100588255D01*
X158958189Y-100628178D01*
X158887384Y-100633361D01*
X158863920Y-100625833D01*
X158804774Y-100600238D01*
X158804775Y-100600238D01*
X158798914Y-100597702D01*
X158603334Y-100556844D01*
X158598478Y-100556589D01*
X158598439Y-100556587D01*
X158598423Y-100556587D01*
X158596771Y-100556500D01*
X157400066Y-100556500D01*
X157386933Y-100557834D01*
X157257566Y-100570974D01*
X157257562Y-100570975D01*
X157251220Y-100571619D01*
X157159898Y-100600238D01*
X157066651Y-100629460D01*
X157066650Y-100629461D01*
X157060560Y-100631369D01*
X157054978Y-100634463D01*
X157054976Y-100634464D01*
X157036382Y-100644771D01*
X156885809Y-100728235D01*
X156734104Y-100858261D01*
X156730197Y-100863298D01*
X156730195Y-100863300D01*
X156615555Y-101011093D01*
X156615553Y-101011096D01*
X156611643Y-101016137D01*
X156608825Y-101021863D01*
X156608823Y-101021867D01*
X156597301Y-101045283D01*
X156523429Y-101195411D01*
X156473065Y-101388762D01*
X156462696Y-101586614D01*
X156439157Y-101653595D01*
X156383141Y-101697216D01*
X156336869Y-101706020D01*
X151803243Y-101706020D01*
X151792059Y-101705493D01*
X151784571Y-101703819D01*
X151776648Y-101704068D01*
X151716513Y-101705958D01*
X151712555Y-101706020D01*
X151684624Y-101706020D01*
X151680709Y-101706515D01*
X151680705Y-101706515D01*
X151680647Y-101706523D01*
X151680618Y-101706526D01*
X151668776Y-101707459D01*
X151624590Y-101708847D01*
X151607224Y-101713892D01*
X151605138Y-101714498D01*
X151585786Y-101718506D01*
X151573548Y-101720052D01*
X151573546Y-101720053D01*
X151565683Y-101721046D01*
X151524566Y-101737326D01*
X151513365Y-101741161D01*
X151470886Y-101753502D01*
X151464067Y-101757535D01*
X151464062Y-101757537D01*
X151453451Y-101763813D01*
X151435701Y-101772510D01*
X151416863Y-101779968D01*
X151410447Y-101784629D01*
X151410446Y-101784630D01*
X151381105Y-101805948D01*
X151371181Y-101812467D01*
X151339940Y-101830942D01*
X151339935Y-101830946D01*
X151333117Y-101834978D01*
X151318793Y-101849302D01*
X151303761Y-101862141D01*
X151287373Y-101874048D01*
X151259192Y-101908113D01*
X151251202Y-101916893D01*
X147067747Y-106100348D01*
X147059461Y-106107888D01*
X147052982Y-106112000D01*
X147047557Y-106117777D01*
X147006357Y-106161651D01*
X147003602Y-106164493D01*
X146983865Y-106184230D01*
X146981385Y-106187427D01*
X146973682Y-106196447D01*
X146943414Y-106228679D01*
X146939595Y-106235625D01*
X146939593Y-106235628D01*
X146933652Y-106246434D01*
X146922801Y-106262953D01*
X146910386Y-106278959D01*
X146907241Y-106286228D01*
X146907238Y-106286232D01*
X146892826Y-106319537D01*
X146887609Y-106330187D01*
X146866305Y-106368940D01*
X146864334Y-106376615D01*
X146864334Y-106376616D01*
X146861267Y-106388562D01*
X146854863Y-106407266D01*
X146846819Y-106425855D01*
X146845580Y-106433678D01*
X146845577Y-106433688D01*
X146839901Y-106469524D01*
X146837495Y-106481144D01*
X146826500Y-106523970D01*
X146826500Y-106544224D01*
X146824949Y-106563934D01*
X146821780Y-106583943D01*
X146822526Y-106591835D01*
X146825941Y-106627961D01*
X146826500Y-106639819D01*
X146826500Y-108819640D01*
X146806498Y-108887761D01*
X146752842Y-108934254D01*
X146682568Y-108944358D01*
X146644875Y-108932696D01*
X146534589Y-108878429D01*
X146424254Y-108849689D01*
X146347420Y-108829675D01*
X146347417Y-108829675D01*
X146341238Y-108828065D01*
X146247744Y-108823165D01*
X146148089Y-108817942D01*
X146148085Y-108817942D01*
X146141708Y-108817608D01*
X145944152Y-108847486D01*
X145938165Y-108849689D01*
X145938164Y-108849689D01*
X145795989Y-108901999D01*
X145756639Y-108916477D01*
X145677001Y-108965855D01*
X145606571Y-109009524D01*
X145586828Y-109021765D01*
X145441656Y-109159047D01*
X145327054Y-109322716D01*
X145247702Y-109506086D01*
X145206844Y-109701666D01*
X145206500Y-109708229D01*
X145206500Y-110904934D01*
X144244065Y-110904934D01*
X144244962Y-110898122D01*
X144244962Y-110898121D01*
X144245500Y-110894035D01*
X144245500Y-109765965D01*
X144230173Y-109649543D01*
X144170169Y-109504681D01*
X144074716Y-109380284D01*
X144074177Y-109379870D01*
X144041832Y-109320637D01*
X144046897Y-109249822D01*
X144078702Y-109202002D01*
X144080694Y-109200131D01*
X144087107Y-109195472D01*
X144189133Y-109072144D01*
X144192506Y-109064977D01*
X144192508Y-109064973D01*
X144225899Y-108994013D01*
X144257283Y-108927318D01*
X144287275Y-108770094D01*
X144280626Y-108664413D01*
X144277723Y-108618262D01*
X144277723Y-108618260D01*
X144277225Y-108610350D01*
X144274776Y-108602812D01*
X144230215Y-108465667D01*
X144230214Y-108465664D01*
X144227764Y-108458125D01*
X144142000Y-108322982D01*
X144025321Y-108213414D01*
X143885060Y-108136305D01*
X143730030Y-108096500D01*
X143380763Y-108096500D01*
X143369579Y-108095973D01*
X143362091Y-108094299D01*
X143354168Y-108094548D01*
X143294033Y-108096438D01*
X143290075Y-108096500D01*
X143262144Y-108096500D01*
X143258229Y-108096995D01*
X143258225Y-108096995D01*
X143258167Y-108097003D01*
X143258138Y-108097006D01*
X143246296Y-108097939D01*
X143202110Y-108099327D01*
X143184744Y-108104372D01*
X143182658Y-108104978D01*
X143163306Y-108108986D01*
X143151068Y-108110532D01*
X143151066Y-108110533D01*
X143143203Y-108111526D01*
X143102086Y-108127806D01*
X143090885Y-108131641D01*
X143048406Y-108143982D01*
X143041587Y-108148015D01*
X143041582Y-108148017D01*
X143030971Y-108154293D01*
X143013221Y-108162990D01*
X142994383Y-108170448D01*
X142987967Y-108175109D01*
X142987966Y-108175110D01*
X142958625Y-108196428D01*
X142948701Y-108202947D01*
X142917460Y-108221422D01*
X142917455Y-108221426D01*
X142910637Y-108225458D01*
X142896313Y-108239782D01*
X142881281Y-108252621D01*
X142864893Y-108264528D01*
X142836712Y-108298593D01*
X142828722Y-108307373D01*
X142495747Y-108640348D01*
X142487461Y-108647888D01*
X142480982Y-108652000D01*
X142475557Y-108657777D01*
X142434357Y-108701651D01*
X142431602Y-108704493D01*
X142411865Y-108724230D01*
X142409385Y-108727427D01*
X142401682Y-108736447D01*
X142371414Y-108768679D01*
X142367595Y-108775625D01*
X142367593Y-108775628D01*
X142361652Y-108786434D01*
X142350801Y-108802953D01*
X142338386Y-108818959D01*
X142335241Y-108826228D01*
X142335238Y-108826232D01*
X142320826Y-108859537D01*
X142315609Y-108870187D01*
X142294305Y-108908940D01*
X142292334Y-108916615D01*
X142292334Y-108916616D01*
X142289267Y-108928562D01*
X142282863Y-108947266D01*
X142281426Y-108950588D01*
X142274819Y-108965855D01*
X142273580Y-108973678D01*
X142273577Y-108973688D01*
X142267901Y-109009524D01*
X142265495Y-109021144D01*
X142254500Y-109063970D01*
X142254500Y-109084224D01*
X142252949Y-109103934D01*
X142249780Y-109123943D01*
X133978733Y-109123943D01*
X133975656Y-104578134D01*
X139016500Y-104578134D01*
X139023255Y-104640316D01*
X139074385Y-104776705D01*
X139161739Y-104893261D01*
X139278295Y-104980615D01*
X139414684Y-105031745D01*
X139476866Y-105038500D01*
X140873134Y-105038500D01*
X140935316Y-105031745D01*
X141041811Y-104991822D01*
X141112616Y-104986639D01*
X141136079Y-104994167D01*
X141201086Y-105022298D01*
X141396666Y-105063156D01*
X141401522Y-105063411D01*
X141401561Y-105063413D01*
X141401577Y-105063413D01*
X141403229Y-105063500D01*
X142599934Y-105063500D01*
X142629230Y-105060524D01*
X142742434Y-105049026D01*
X142742438Y-105049025D01*
X142748780Y-105048381D01*
X142921775Y-104994167D01*
X142933349Y-104990540D01*
X142933350Y-104990539D01*
X142939440Y-104988631D01*
X142953902Y-104980615D01*
X143028464Y-104939284D01*
X143114191Y-104891765D01*
X143265896Y-104761739D01*
X143269805Y-104756700D01*
X143384445Y-104608907D01*
X143384447Y-104608904D01*
X143388357Y-104603863D01*
X143401018Y-104578134D01*
X143473752Y-104430318D01*
X143476571Y-104424589D01*
X143526935Y-104231238D01*
X143537392Y-104031708D01*
X143507514Y-103834152D01*
X143438523Y-103646639D01*
X143333235Y-103476828D01*
X143195953Y-103331656D01*
X143032284Y-103217054D01*
X142848914Y-103137702D01*
X142653334Y-103096844D01*
X142648478Y-103096589D01*
X142648439Y-103096587D01*
X142648423Y-103096587D01*
X142646771Y-103096500D01*
X141450066Y-103096500D01*
X141436933Y-103097834D01*
X141307566Y-103110974D01*
X141307562Y-103110975D01*
X141301220Y-103111619D01*
X141295135Y-103113526D01*
X141295130Y-103113527D01*
X141119091Y-103168695D01*
X141048106Y-103169979D01*
X141037182Y-103166443D01*
X140935316Y-103128255D01*
X140873134Y-103121500D01*
X139476866Y-103121500D01*
X139414684Y-103128255D01*
X139278295Y-103179385D01*
X139161739Y-103266739D01*
X139074385Y-103383295D01*
X139023255Y-103519684D01*
X139016500Y-103581866D01*
X139016500Y-104578134D01*
X133975656Y-104578134D01*
X133973937Y-102038134D01*
X139016500Y-102038134D01*
X139023255Y-102100316D01*
X139074385Y-102236705D01*
X139161739Y-102353261D01*
X139278295Y-102440615D01*
X139414684Y-102491745D01*
X139476866Y-102498500D01*
X140873134Y-102498500D01*
X140935316Y-102491745D01*
X141041811Y-102451822D01*
X141112616Y-102446639D01*
X141136079Y-102454167D01*
X141201086Y-102482298D01*
X141396666Y-102523156D01*
X141401522Y-102523411D01*
X141401561Y-102523413D01*
X141401577Y-102523413D01*
X141403229Y-102523500D01*
X142599934Y-102523500D01*
X142629230Y-102520524D01*
X142742434Y-102509026D01*
X142742438Y-102509025D01*
X142748780Y-102508381D01*
X142929258Y-102451822D01*
X142933349Y-102450540D01*
X142933350Y-102450539D01*
X142939440Y-102448631D01*
X142953902Y-102440615D01*
X143026816Y-102400198D01*
X143114191Y-102351765D01*
X143265896Y-102221739D01*
X143354342Y-102107715D01*
X143384445Y-102068907D01*
X143384447Y-102068904D01*
X143388357Y-102063863D01*
X143401018Y-102038134D01*
X143473752Y-101890318D01*
X143476571Y-101884589D01*
X143503823Y-101779968D01*
X143525325Y-101697420D01*
X143525325Y-101697417D01*
X143526935Y-101691238D01*
X143537392Y-101491708D01*
X143507514Y-101294152D01*
X143438523Y-101106639D01*
X143333235Y-100936828D01*
X143195953Y-100791656D01*
X143032284Y-100677054D01*
X142848914Y-100597702D01*
X142653334Y-100556844D01*
X142648478Y-100556589D01*
X142648439Y-100556587D01*
X142648423Y-100556587D01*
X142646771Y-100556500D01*
X141450066Y-100556500D01*
X141436933Y-100557834D01*
X141307566Y-100570974D01*
X141307562Y-100570975D01*
X141301220Y-100571619D01*
X141295135Y-100573526D01*
X141295130Y-100573527D01*
X141119091Y-100628695D01*
X141048106Y-100629979D01*
X141037182Y-100626443D01*
X141035555Y-100625833D01*
X140935316Y-100588255D01*
X140873134Y-100581500D01*
X139476866Y-100581500D01*
X139414684Y-100588255D01*
X139278295Y-100639385D01*
X139161739Y-100726739D01*
X139074385Y-100843295D01*
X139023255Y-100979684D01*
X139016500Y-101041866D01*
X139016500Y-102038134D01*
X133973937Y-102038134D01*
X133972218Y-99498134D01*
X139016500Y-99498134D01*
X139023255Y-99560316D01*
X139074385Y-99696705D01*
X139161739Y-99813261D01*
X139278295Y-99900615D01*
X139414684Y-99951745D01*
X139476866Y-99958500D01*
X140873134Y-99958500D01*
X140935316Y-99951745D01*
X141041811Y-99911822D01*
X141112616Y-99906639D01*
X141136079Y-99914167D01*
X141201086Y-99942298D01*
X141396666Y-99983156D01*
X141401522Y-99983411D01*
X141401561Y-99983413D01*
X141401577Y-99983413D01*
X141403229Y-99983500D01*
X142599934Y-99983500D01*
X142629230Y-99980524D01*
X142742434Y-99969026D01*
X142742438Y-99969025D01*
X142748780Y-99968381D01*
X142921775Y-99914167D01*
X142933349Y-99910540D01*
X142933350Y-99910539D01*
X142939440Y-99908631D01*
X142953902Y-99900615D01*
X143028464Y-99859284D01*
X143114191Y-99811765D01*
X143265896Y-99681739D01*
X143269805Y-99676700D01*
X143384445Y-99528907D01*
X143384447Y-99528904D01*
X143388357Y-99523863D01*
X143401018Y-99498134D01*
X143473752Y-99350318D01*
X143476571Y-99344589D01*
X143526935Y-99151238D01*
X143532330Y-99048292D01*
X156387608Y-99048292D01*
X156417486Y-99245848D01*
X156486477Y-99433361D01*
X156591765Y-99603172D01*
X156729047Y-99748344D01*
X156892716Y-99862946D01*
X157076086Y-99942298D01*
X157271666Y-99983156D01*
X157276522Y-99983411D01*
X157276561Y-99983413D01*
X157276577Y-99983413D01*
X157278229Y-99983500D01*
X158474934Y-99983500D01*
X158504230Y-99980524D01*
X158617434Y-99969026D01*
X158617438Y-99969025D01*
X158623780Y-99968381D01*
X158629865Y-99966474D01*
X158629870Y-99966473D01*
X158805909Y-99911305D01*
X158876894Y-99910021D01*
X158887816Y-99913556D01*
X158989684Y-99951745D01*
X159051866Y-99958500D01*
X160448134Y-99958500D01*
X160510316Y-99951745D01*
X160646705Y-99900615D01*
X160763261Y-99813261D01*
X160850615Y-99696705D01*
X160901745Y-99560316D01*
X160908500Y-99498134D01*
X160908500Y-98501866D01*
X160901745Y-98439684D01*
X160850615Y-98303295D01*
X160763261Y-98186739D01*
X160646705Y-98099385D01*
X160510316Y-98048255D01*
X160448134Y-98041500D01*
X159051866Y-98041500D01*
X158989684Y-98048255D01*
X158883189Y-98088178D01*
X158812384Y-98093361D01*
X158788920Y-98085833D01*
X158729774Y-98060238D01*
X158729775Y-98060238D01*
X158723914Y-98057702D01*
X158528334Y-98016844D01*
X158523478Y-98016589D01*
X158523439Y-98016587D01*
X158523423Y-98016587D01*
X158521771Y-98016500D01*
X157325066Y-98016500D01*
X157311933Y-98017834D01*
X157182566Y-98030974D01*
X157182562Y-98030975D01*
X157176220Y-98031619D01*
X157084898Y-98060238D01*
X156991651Y-98089460D01*
X156991650Y-98089461D01*
X156985560Y-98091369D01*
X156979978Y-98094463D01*
X156979976Y-98094464D01*
X156961382Y-98104771D01*
X156810809Y-98188235D01*
X156659104Y-98318261D01*
X156655197Y-98323298D01*
X156655195Y-98323300D01*
X156540555Y-98471093D01*
X156540553Y-98471096D01*
X156536643Y-98476137D01*
X156533825Y-98481863D01*
X156533823Y-98481867D01*
X156522301Y-98505283D01*
X156448429Y-98655411D01*
X156398065Y-98848762D01*
X156387608Y-99048292D01*
X143532330Y-99048292D01*
X143537392Y-98951708D01*
X143507514Y-98754152D01*
X143438523Y-98566639D01*
X143333235Y-98396828D01*
X143195953Y-98251656D01*
X143032284Y-98137054D01*
X142848914Y-98057702D01*
X142653334Y-98016844D01*
X142648478Y-98016589D01*
X142648439Y-98016587D01*
X142648423Y-98016587D01*
X142646771Y-98016500D01*
X141450066Y-98016500D01*
X141436933Y-98017834D01*
X141307566Y-98030974D01*
X141307562Y-98030975D01*
X141301220Y-98031619D01*
X141295135Y-98033526D01*
X141295130Y-98033527D01*
X141119091Y-98088695D01*
X141048106Y-98089979D01*
X141037182Y-98086443D01*
X141035555Y-98085833D01*
X140935316Y-98048255D01*
X140873134Y-98041500D01*
X139476866Y-98041500D01*
X139414684Y-98048255D01*
X139278295Y-98099385D01*
X139161739Y-98186739D01*
X139074385Y-98303295D01*
X139023255Y-98439684D01*
X139016500Y-98501866D01*
X139016500Y-99498134D01*
X133972218Y-99498134D01*
X133970785Y-97381084D01*
X133990741Y-97312951D01*
X134044365Y-97266422D01*
X134096785Y-97255000D01*
X165876001Y-97255000D01*
X165944122Y-97275002D01*
G37*
%TD.AperFunction*%
%TD*%
M02*
