%TF.GenerationSoftware,KiCad,Pcbnew,6.0.11+dfsg-1~bpo11+1*%
%TF.CreationDate,2023-07-14T01:26:02-04:00*%
%TF.ProjectId,ESP12,45535031-322e-46b6-9963-61645f706362,1.0.0*%
%TF.SameCoordinates,Original*%
%TF.FileFunction,Profile,NP*%
%FSLAX46Y46*%
G04 Gerber Fmt 4.6, Leading zero omitted, Abs format (unit mm)*
G04 Created by KiCad (PCBNEW 6.0.11+dfsg-1~bpo11+1) date 2023-07-14 01:26:02*
%MOMM*%
%LPD*%
G01*
G04 APERTURE LIST*
%TA.AperFunction,Profile*%
%ADD10C,0.100000*%
%TD*%
G04 APERTURE END LIST*
D10*
X163108000Y-63569635D02*
X136892001Y-63569636D01*
X136892001Y-63569700D02*
G75*
G03*
X132447000Y-68014637I-1J-4445000D01*
G01*
X199288000Y-124584400D02*
G75*
G03*
X203733000Y-120139454I100J4444900D01*
G01*
X173072001Y-63569600D02*
G75*
G03*
X168627000Y-68014637I99J-4445100D01*
G01*
X203733065Y-68014636D02*
G75*
G03*
X199288000Y-63569635I-4445065J-64D01*
G01*
X168626946Y-120139454D02*
G75*
G03*
X173072000Y-124584454I4445054J54D01*
G01*
X163108000Y-124584500D02*
G75*
G03*
X167553000Y-120139454I0J4445000D01*
G01*
X203733000Y-120139454D02*
X203733001Y-68014636D01*
X167553000Y-92463000D02*
G75*
G03*
X168627000Y-92463000I537000J0D01*
G01*
X168627000Y-95000000D02*
G75*
G03*
X167553000Y-95000000I-537000J0D01*
G01*
X167552965Y-68014636D02*
G75*
G03*
X163108000Y-63569635I-4444965J36D01*
G01*
X168627000Y-70000000D02*
G75*
G03*
X167553000Y-70000000I-537000J0D01*
G01*
X168627000Y-120139454D02*
G75*
G03*
X167553000Y-120139454I-537000J0D01*
G01*
X168627000Y-95000000D02*
X168627000Y-117463000D01*
X136892000Y-124584454D02*
X163108000Y-124584454D01*
X167553000Y-117463000D02*
G75*
G03*
X168627000Y-117463000I537000J0D01*
G01*
X199288000Y-63569635D02*
X173072001Y-63569636D01*
X173072000Y-124584454D02*
X199288000Y-124584454D01*
X167553000Y-68014637D02*
G75*
G03*
X168627000Y-68014637I537000J0D01*
G01*
X132447000Y-68014637D02*
X132447000Y-120139454D01*
X167553000Y-92463000D02*
X167553000Y-70000000D01*
X132447046Y-120139454D02*
G75*
G03*
X136892000Y-124584454I4444954J-46D01*
G01*
X167553000Y-95000000D02*
X167553000Y-117463000D01*
X168627000Y-70000000D02*
X168627000Y-92463000D01*
M02*
