%TF.GenerationSoftware,KiCad,Pcbnew,6.0.11+dfsg-1~bpo11+1*%
%TF.CreationDate,2023-07-14T01:26:02-04:00*%
%TF.ProjectId,ESP12,45535031-322e-46b6-9963-61645f706362,1.0.0*%
%TF.SameCoordinates,Original*%
%TF.FileFunction,Legend,Bot*%
%TF.FilePolarity,Positive*%
%FSLAX46Y46*%
G04 Gerber Fmt 4.6, Leading zero omitted, Abs format (unit mm)*
G04 Created by KiCad (PCBNEW 6.0.11+dfsg-1~bpo11+1) date 2023-07-14 01:26:02*
%MOMM*%
%LPD*%
G01*
G04 APERTURE LIST*
%ADD10C,0.150000*%
%ADD11C,0.125000*%
%ADD12C,0.300000*%
%ADD13C,0.100000*%
G04 APERTURE END LIST*
D10*
X156928571Y-103825010D02*
X156595238Y-103825010D01*
X156452380Y-104348819D02*
X156928571Y-104348819D01*
X156928571Y-103348819D01*
X156452380Y-103348819D01*
X156071428Y-104301200D02*
X155928571Y-104348819D01*
X155690476Y-104348819D01*
X155595238Y-104301200D01*
X155547619Y-104253581D01*
X155500000Y-104158343D01*
X155500000Y-104063105D01*
X155547619Y-103967867D01*
X155595238Y-103920248D01*
X155690476Y-103872629D01*
X155880952Y-103825010D01*
X155976190Y-103777391D01*
X156023809Y-103729772D01*
X156071428Y-103634534D01*
X156071428Y-103539296D01*
X156023809Y-103444058D01*
X155976190Y-103396439D01*
X155880952Y-103348819D01*
X155642857Y-103348819D01*
X155500000Y-103396439D01*
X155071428Y-104348819D02*
X155071428Y-103348819D01*
X154690476Y-103348819D01*
X154595238Y-103396439D01*
X154547619Y-103444058D01*
X154500000Y-103539296D01*
X154500000Y-103682153D01*
X154547619Y-103777391D01*
X154595238Y-103825010D01*
X154690476Y-103872629D01*
X155071428Y-103872629D01*
X153119047Y-103348819D02*
X153023809Y-103348819D01*
X152928571Y-103396439D01*
X152880952Y-103444058D01*
X152833333Y-103539296D01*
X152785714Y-103729772D01*
X152785714Y-103967867D01*
X152833333Y-104158343D01*
X152880952Y-104253581D01*
X152928571Y-104301200D01*
X153023809Y-104348819D01*
X153119047Y-104348819D01*
X153214285Y-104301200D01*
X153261904Y-104253581D01*
X153309523Y-104158343D01*
X153357142Y-103967867D01*
X153357142Y-103729772D01*
X153309523Y-103539296D01*
X153261904Y-103444058D01*
X153214285Y-103396439D01*
X153119047Y-103348819D01*
X152452380Y-103348819D02*
X151785714Y-103348819D01*
X152214285Y-104348819D01*
X150690476Y-103301200D02*
X151547619Y-104586915D01*
X149833333Y-104348819D02*
X150404761Y-104348819D01*
X150119047Y-104348819D02*
X150119047Y-103348819D01*
X150214285Y-103491677D01*
X150309523Y-103586915D01*
X150404761Y-103634534D01*
X149452380Y-103444058D02*
X149404761Y-103396439D01*
X149309523Y-103348819D01*
X149071428Y-103348819D01*
X148976190Y-103396439D01*
X148928571Y-103444058D01*
X148880952Y-103539296D01*
X148880952Y-103634534D01*
X148928571Y-103777391D01*
X149500000Y-104348819D01*
X148880952Y-104348819D01*
X147309523Y-104301200D02*
X147404761Y-104348819D01*
X147595238Y-104348819D01*
X147690476Y-104301200D01*
X147738095Y-104205962D01*
X147738095Y-103825010D01*
X147690476Y-103729772D01*
X147595238Y-103682153D01*
X147404761Y-103682153D01*
X147309523Y-103729772D01*
X147261904Y-103825010D01*
X147261904Y-103920248D01*
X147738095Y-104015486D01*
X146404761Y-104348819D02*
X146404761Y-103348819D01*
X146404761Y-104301200D02*
X146500000Y-104348819D01*
X146690476Y-104348819D01*
X146785714Y-104301200D01*
X146833333Y-104253581D01*
X146880952Y-104158343D01*
X146880952Y-103872629D01*
X146833333Y-103777391D01*
X146785714Y-103729772D01*
X146690476Y-103682153D01*
X146500000Y-103682153D01*
X146404761Y-103729772D01*
X145928571Y-104348819D02*
X145928571Y-103682153D01*
X145928571Y-103348819D02*
X145976190Y-103396439D01*
X145928571Y-103444058D01*
X145880952Y-103396439D01*
X145928571Y-103348819D01*
X145928571Y-103444058D01*
X145595238Y-103682153D02*
X145214285Y-103682153D01*
X145452380Y-103348819D02*
X145452380Y-104205962D01*
X145404761Y-104301200D01*
X145309523Y-104348819D01*
X145214285Y-104348819D01*
X144880952Y-104348819D02*
X144880952Y-103682153D01*
X144880952Y-103348819D02*
X144928571Y-103396439D01*
X144880952Y-103444058D01*
X144833333Y-103396439D01*
X144880952Y-103348819D01*
X144880952Y-103444058D01*
X144261904Y-104348819D02*
X144357142Y-104301200D01*
X144404761Y-104253581D01*
X144452380Y-104158343D01*
X144452380Y-103872629D01*
X144404761Y-103777391D01*
X144357142Y-103729772D01*
X144261904Y-103682153D01*
X144119047Y-103682153D01*
X144023809Y-103729772D01*
X143976190Y-103777391D01*
X143928571Y-103872629D01*
X143928571Y-104158343D01*
X143976190Y-104253581D01*
X144023809Y-104301200D01*
X144119047Y-104348819D01*
X144261904Y-104348819D01*
X143500000Y-103682153D02*
X143500000Y-104348819D01*
X143500000Y-103777391D02*
X143452380Y-103729772D01*
X143357142Y-103682153D01*
X143214285Y-103682153D01*
X143119047Y-103729772D01*
X143071428Y-103825010D01*
X143071428Y-104348819D01*
X157309523Y-100779835D02*
X157309523Y-99779835D01*
X156976190Y-100494121D01*
X156642857Y-99779835D01*
X156642857Y-100779835D01*
X156023809Y-100779835D02*
X156119047Y-100732216D01*
X156166666Y-100684597D01*
X156214285Y-100589359D01*
X156214285Y-100303645D01*
X156166666Y-100208407D01*
X156119047Y-100160788D01*
X156023809Y-100113169D01*
X155880952Y-100113169D01*
X155785714Y-100160788D01*
X155738095Y-100208407D01*
X155690476Y-100303645D01*
X155690476Y-100589359D01*
X155738095Y-100684597D01*
X155785714Y-100732216D01*
X155880952Y-100779835D01*
X156023809Y-100779835D01*
X154833333Y-100779835D02*
X154833333Y-99779835D01*
X154833333Y-100732216D02*
X154928571Y-100779835D01*
X155119047Y-100779835D01*
X155214285Y-100732216D01*
X155261904Y-100684597D01*
X155309523Y-100589359D01*
X155309523Y-100303645D01*
X155261904Y-100208407D01*
X155214285Y-100160788D01*
X155119047Y-100113169D01*
X154928571Y-100113169D01*
X154833333Y-100160788D01*
X153928571Y-100113169D02*
X153928571Y-100779835D01*
X154357142Y-100113169D02*
X154357142Y-100636978D01*
X154309523Y-100732216D01*
X154214285Y-100779835D01*
X154071428Y-100779835D01*
X153976190Y-100732216D01*
X153928571Y-100684597D01*
X153309523Y-100779835D02*
X153404761Y-100732216D01*
X153452380Y-100636978D01*
X153452380Y-99779835D01*
X152547619Y-100732216D02*
X152642857Y-100779835D01*
X152833333Y-100779835D01*
X152928571Y-100732216D01*
X152976190Y-100636978D01*
X152976190Y-100256026D01*
X152928571Y-100160788D01*
X152833333Y-100113169D01*
X152642857Y-100113169D01*
X152547619Y-100160788D01*
X152500000Y-100256026D01*
X152500000Y-100351264D01*
X152976190Y-100446502D01*
X151309523Y-100779835D02*
X151309523Y-99779835D01*
X150928571Y-99779835D01*
X150833333Y-99827455D01*
X150785714Y-99875074D01*
X150738095Y-99970312D01*
X150738095Y-100113169D01*
X150785714Y-100208407D01*
X150833333Y-100256026D01*
X150928571Y-100303645D01*
X151309523Y-100303645D01*
X150309523Y-100779835D02*
X150309523Y-100113169D01*
X150309523Y-100303645D02*
X150261904Y-100208407D01*
X150214285Y-100160788D01*
X150119047Y-100113169D01*
X150023809Y-100113169D01*
X149547619Y-100779835D02*
X149642857Y-100732216D01*
X149690476Y-100684597D01*
X149738095Y-100589359D01*
X149738095Y-100303645D01*
X149690476Y-100208407D01*
X149642857Y-100160788D01*
X149547619Y-100113169D01*
X149404761Y-100113169D01*
X149309523Y-100160788D01*
X149261904Y-100208407D01*
X149214285Y-100303645D01*
X149214285Y-100589359D01*
X149261904Y-100684597D01*
X149309523Y-100732216D01*
X149404761Y-100779835D01*
X149547619Y-100779835D01*
X148357142Y-100113169D02*
X148357142Y-100922693D01*
X148404761Y-101017931D01*
X148452380Y-101065550D01*
X148547619Y-101113169D01*
X148690476Y-101113169D01*
X148785714Y-101065550D01*
X148357142Y-100732216D02*
X148452380Y-100779835D01*
X148642857Y-100779835D01*
X148738095Y-100732216D01*
X148785714Y-100684597D01*
X148833333Y-100589359D01*
X148833333Y-100303645D01*
X148785714Y-100208407D01*
X148738095Y-100160788D01*
X148642857Y-100113169D01*
X148452380Y-100113169D01*
X148357142Y-100160788D01*
X147880952Y-100779835D02*
X147880952Y-100113169D01*
X147880952Y-100303645D02*
X147833333Y-100208407D01*
X147785714Y-100160788D01*
X147690476Y-100113169D01*
X147595238Y-100113169D01*
X146833333Y-100779835D02*
X146833333Y-100256026D01*
X146880952Y-100160788D01*
X146976190Y-100113169D01*
X147166666Y-100113169D01*
X147261904Y-100160788D01*
X146833333Y-100732216D02*
X146928571Y-100779835D01*
X147166666Y-100779835D01*
X147261904Y-100732216D01*
X147309523Y-100636978D01*
X147309523Y-100541740D01*
X147261904Y-100446502D01*
X147166666Y-100398883D01*
X146928571Y-100398883D01*
X146833333Y-100351264D01*
X146357142Y-100779835D02*
X146357142Y-100113169D01*
X146357142Y-100208407D02*
X146309523Y-100160788D01*
X146214285Y-100113169D01*
X146071428Y-100113169D01*
X145976190Y-100160788D01*
X145928571Y-100256026D01*
X145928571Y-100779835D01*
X145928571Y-100256026D02*
X145880952Y-100160788D01*
X145785714Y-100113169D01*
X145642857Y-100113169D01*
X145547619Y-100160788D01*
X145500000Y-100256026D01*
X145500000Y-100779835D01*
X145023809Y-100779835D02*
X145023809Y-100113169D01*
X145023809Y-100208407D02*
X144976190Y-100160788D01*
X144880952Y-100113169D01*
X144738095Y-100113169D01*
X144642857Y-100160788D01*
X144595238Y-100256026D01*
X144595238Y-100779835D01*
X144595238Y-100256026D02*
X144547619Y-100160788D01*
X144452380Y-100113169D01*
X144309523Y-100113169D01*
X144214285Y-100160788D01*
X144166666Y-100256026D01*
X144166666Y-100779835D01*
X143309523Y-100732216D02*
X143404761Y-100779835D01*
X143595238Y-100779835D01*
X143690476Y-100732216D01*
X143738095Y-100636978D01*
X143738095Y-100256026D01*
X143690476Y-100160788D01*
X143595238Y-100113169D01*
X143404761Y-100113169D01*
X143309523Y-100160788D01*
X143261904Y-100256026D01*
X143261904Y-100351264D01*
X143738095Y-100446502D01*
X142833333Y-100779835D02*
X142833333Y-100113169D01*
X142833333Y-100303645D02*
X142785714Y-100208407D01*
X142738095Y-100160788D01*
X142642857Y-100113169D01*
X142547619Y-100113169D01*
D11*
X154761904Y-118822015D02*
X154476190Y-118822015D01*
X154619047Y-119322015D02*
X154619047Y-118822015D01*
X154309523Y-119322015D02*
X154309523Y-118822015D01*
X154095238Y-119322015D02*
X154095238Y-119060110D01*
X154119047Y-119012491D01*
X154166666Y-118988682D01*
X154238095Y-118988682D01*
X154285714Y-119012491D01*
X154309523Y-119036301D01*
X153857142Y-119322015D02*
X153857142Y-118988682D01*
X153857142Y-118822015D02*
X153880952Y-118845825D01*
X153857142Y-118869634D01*
X153833333Y-118845825D01*
X153857142Y-118822015D01*
X153857142Y-118869634D01*
X153642857Y-119298205D02*
X153595238Y-119322015D01*
X153500000Y-119322015D01*
X153452380Y-119298205D01*
X153428571Y-119250586D01*
X153428571Y-119226777D01*
X153452380Y-119179158D01*
X153500000Y-119155348D01*
X153571428Y-119155348D01*
X153619047Y-119131539D01*
X153642857Y-119083920D01*
X153642857Y-119060110D01*
X153619047Y-119012491D01*
X153571428Y-118988682D01*
X153500000Y-118988682D01*
X153452380Y-119012491D01*
X152833333Y-119322015D02*
X152833333Y-118988682D01*
X152833333Y-118822015D02*
X152857142Y-118845825D01*
X152833333Y-118869634D01*
X152809523Y-118845825D01*
X152833333Y-118822015D01*
X152833333Y-118869634D01*
X152619047Y-119298205D02*
X152571428Y-119322015D01*
X152476190Y-119322015D01*
X152428571Y-119298205D01*
X152404761Y-119250586D01*
X152404761Y-119226777D01*
X152428571Y-119179158D01*
X152476190Y-119155348D01*
X152547619Y-119155348D01*
X152595238Y-119131539D01*
X152619047Y-119083920D01*
X152619047Y-119060110D01*
X152595238Y-119012491D01*
X152547619Y-118988682D01*
X152476190Y-118988682D01*
X152428571Y-119012491D01*
X151809523Y-119322015D02*
X151809523Y-118822015D01*
X151523809Y-119322015D01*
X151523809Y-118822015D01*
X151214285Y-119322015D02*
X151261904Y-119298205D01*
X151285714Y-119274396D01*
X151309523Y-119226777D01*
X151309523Y-119083920D01*
X151285714Y-119036301D01*
X151261904Y-119012491D01*
X151214285Y-118988682D01*
X151142857Y-118988682D01*
X151095238Y-119012491D01*
X151071428Y-119036301D01*
X151047619Y-119083920D01*
X151047619Y-119226777D01*
X151071428Y-119274396D01*
X151095238Y-119298205D01*
X151142857Y-119322015D01*
X151214285Y-119322015D01*
X150904761Y-118988682D02*
X150714285Y-118988682D01*
X150833333Y-118822015D02*
X150833333Y-119250586D01*
X150809523Y-119298205D01*
X150761904Y-119322015D01*
X150714285Y-119322015D01*
X150166666Y-119322015D02*
X150166666Y-118988682D01*
X150166666Y-119083920D02*
X150142857Y-119036301D01*
X150119047Y-119012491D01*
X150071428Y-118988682D01*
X150023809Y-118988682D01*
X149666666Y-119298205D02*
X149714285Y-119322015D01*
X149809523Y-119322015D01*
X149857142Y-119298205D01*
X149880952Y-119250586D01*
X149880952Y-119060110D01*
X149857142Y-119012491D01*
X149809523Y-118988682D01*
X149714285Y-118988682D01*
X149666666Y-119012491D01*
X149642857Y-119060110D01*
X149642857Y-119107729D01*
X149880952Y-119155348D01*
X149214285Y-119322015D02*
X149214285Y-119060110D01*
X149238095Y-119012491D01*
X149285714Y-118988682D01*
X149380952Y-118988682D01*
X149428571Y-119012491D01*
X149214285Y-119298205D02*
X149261904Y-119322015D01*
X149380952Y-119322015D01*
X149428571Y-119298205D01*
X149452380Y-119250586D01*
X149452380Y-119202967D01*
X149428571Y-119155348D01*
X149380952Y-119131539D01*
X149261904Y-119131539D01*
X149214285Y-119107729D01*
X148904761Y-119322015D02*
X148952380Y-119298205D01*
X148976190Y-119250586D01*
X148976190Y-118822015D01*
X148642857Y-119322015D02*
X148690476Y-119298205D01*
X148714285Y-119250586D01*
X148714285Y-118822015D01*
X148500000Y-118988682D02*
X148380952Y-119322015D01*
X148261904Y-118988682D02*
X148380952Y-119322015D01*
X148428571Y-119441063D01*
X148452380Y-119464872D01*
X148500000Y-119488682D01*
X147690476Y-118822015D02*
X147690476Y-119226777D01*
X147666666Y-119274396D01*
X147642857Y-119298205D01*
X147595238Y-119322015D01*
X147500000Y-119322015D01*
X147452380Y-119298205D01*
X147428571Y-119274396D01*
X147404761Y-119226777D01*
X147404761Y-118822015D01*
X147190476Y-119298205D02*
X147119047Y-119322015D01*
X147000000Y-119322015D01*
X146952380Y-119298205D01*
X146928571Y-119274396D01*
X146904761Y-119226777D01*
X146904761Y-119179158D01*
X146928571Y-119131539D01*
X146952380Y-119107729D01*
X147000000Y-119083920D01*
X147095238Y-119060110D01*
X147142857Y-119036301D01*
X147166666Y-119012491D01*
X147190476Y-118964872D01*
X147190476Y-118917253D01*
X147166666Y-118869634D01*
X147142857Y-118845825D01*
X147095238Y-118822015D01*
X146976190Y-118822015D01*
X146904761Y-118845825D01*
X146523809Y-119060110D02*
X146452380Y-119083920D01*
X146428571Y-119107729D01*
X146404761Y-119155348D01*
X146404761Y-119226777D01*
X146428571Y-119274396D01*
X146452380Y-119298205D01*
X146500000Y-119322015D01*
X146690476Y-119322015D01*
X146690476Y-118822015D01*
X146523809Y-118822015D01*
X146476190Y-118845825D01*
X146452380Y-118869634D01*
X146428571Y-118917253D01*
X146428571Y-118964872D01*
X146452380Y-119012491D01*
X146476190Y-119036301D01*
X146523809Y-119060110D01*
X146690476Y-119060110D01*
X146190476Y-119131539D02*
X145809523Y-119131539D01*
X145285714Y-119274396D02*
X145309523Y-119298205D01*
X145380952Y-119322015D01*
X145428571Y-119322015D01*
X145500000Y-119298205D01*
X145547619Y-119250586D01*
X145571428Y-119202967D01*
X145595238Y-119107729D01*
X145595238Y-119036301D01*
X145571428Y-118941063D01*
X145547619Y-118893444D01*
X145500000Y-118845825D01*
X145428571Y-118822015D01*
X145380952Y-118822015D01*
X145309523Y-118845825D01*
X145285714Y-118869634D01*
D10*
X156309523Y-109945916D02*
X156166666Y-109993535D01*
X155928571Y-109993535D01*
X155833333Y-109945916D01*
X155785714Y-109898297D01*
X155738095Y-109803059D01*
X155738095Y-109707821D01*
X155785714Y-109612583D01*
X155833333Y-109564964D01*
X155928571Y-109517345D01*
X156119047Y-109469726D01*
X156214285Y-109422107D01*
X156261904Y-109374488D01*
X156309523Y-109279250D01*
X156309523Y-109184012D01*
X156261904Y-109088774D01*
X156214285Y-109041155D01*
X156119047Y-108993535D01*
X155880952Y-108993535D01*
X155738095Y-109041155D01*
X155309523Y-109898297D02*
X155261904Y-109945916D01*
X155309523Y-109993535D01*
X155357142Y-109945916D01*
X155309523Y-109898297D01*
X155309523Y-109993535D01*
X154119047Y-109707821D02*
X153642857Y-109707821D01*
X154214285Y-109993535D02*
X153880952Y-108993535D01*
X153547619Y-109993535D01*
X153214285Y-109898297D02*
X153166666Y-109945916D01*
X153214285Y-109993535D01*
X153261904Y-109945916D01*
X153214285Y-109898297D01*
X153214285Y-109993535D01*
X151976190Y-109993535D02*
X151976190Y-108993535D01*
X151642857Y-109707821D01*
X151309523Y-108993535D01*
X151309523Y-109993535D01*
X150833333Y-109993535D02*
X150833333Y-109326869D01*
X150833333Y-108993535D02*
X150880952Y-109041155D01*
X150833333Y-109088774D01*
X150785714Y-109041155D01*
X150833333Y-108993535D01*
X150833333Y-109088774D01*
X150214285Y-109993535D02*
X150309523Y-109945916D01*
X150357142Y-109850678D01*
X150357142Y-108993535D01*
X149690476Y-109993535D02*
X149785714Y-109945916D01*
X149833333Y-109850678D01*
X149833333Y-108993535D01*
X148928571Y-109945916D02*
X149023809Y-109993535D01*
X149214285Y-109993535D01*
X149309523Y-109945916D01*
X149357142Y-109850678D01*
X149357142Y-109469726D01*
X149309523Y-109374488D01*
X149214285Y-109326869D01*
X149023809Y-109326869D01*
X148928571Y-109374488D01*
X148880952Y-109469726D01*
X148880952Y-109564964D01*
X149357142Y-109660202D01*
X148452380Y-109993535D02*
X148452380Y-109326869D01*
X148452380Y-109517345D02*
X148404761Y-109422107D01*
X148357142Y-109374488D01*
X148261904Y-109326869D01*
X148166666Y-109326869D01*
X147119047Y-109088774D02*
X147071428Y-109041155D01*
X146976190Y-108993535D01*
X146738095Y-108993535D01*
X146642857Y-109041155D01*
X146595238Y-109088774D01*
X146547619Y-109184012D01*
X146547619Y-109279250D01*
X146595238Y-109422107D01*
X147166666Y-109993535D01*
X146547619Y-109993535D01*
X145928571Y-108993535D02*
X145833333Y-108993535D01*
X145738095Y-109041155D01*
X145690476Y-109088774D01*
X145642857Y-109184012D01*
X145595238Y-109374488D01*
X145595238Y-109612583D01*
X145642857Y-109803059D01*
X145690476Y-109898297D01*
X145738095Y-109945916D01*
X145833333Y-109993535D01*
X145928571Y-109993535D01*
X146023809Y-109945916D01*
X146071428Y-109898297D01*
X146119047Y-109803059D01*
X146166666Y-109612583D01*
X146166666Y-109374488D01*
X146119047Y-109184012D01*
X146071428Y-109088774D01*
X146023809Y-109041155D01*
X145928571Y-108993535D01*
X145214285Y-109088774D02*
X145166666Y-109041155D01*
X145071428Y-108993535D01*
X144833333Y-108993535D01*
X144738095Y-109041155D01*
X144690476Y-109088774D01*
X144642857Y-109184012D01*
X144642857Y-109279250D01*
X144690476Y-109422107D01*
X145261904Y-109993535D01*
X144642857Y-109993535D01*
X144309523Y-108993535D02*
X143690476Y-108993535D01*
X144023809Y-109374488D01*
X143880952Y-109374488D01*
X143785714Y-109422107D01*
X143738095Y-109469726D01*
X143690476Y-109564964D01*
X143690476Y-109803059D01*
X143738095Y-109898297D01*
X143785714Y-109945916D01*
X143880952Y-109993535D01*
X144166666Y-109993535D01*
X144261904Y-109945916D01*
X144309523Y-109898297D01*
D12*
X179942269Y-77526877D02*
X180656555Y-77526877D01*
X179156555Y-77026877D02*
X179942269Y-77526877D01*
X179156555Y-78026877D01*
X180656555Y-78741163D02*
X180585126Y-78598306D01*
X180513698Y-78526877D01*
X180370841Y-78455448D01*
X179942269Y-78455448D01*
X179799412Y-78526877D01*
X179727984Y-78598306D01*
X179656555Y-78741163D01*
X179656555Y-78955448D01*
X179727984Y-79098306D01*
X179799412Y-79169734D01*
X179942269Y-79241163D01*
X180370841Y-79241163D01*
X180513698Y-79169734D01*
X180585126Y-79098306D01*
X180656555Y-78955448D01*
X180656555Y-78741163D01*
X179656555Y-80526877D02*
X180656555Y-80526877D01*
X179656555Y-79884020D02*
X180442269Y-79884020D01*
X180585126Y-79955448D01*
X180656555Y-80098306D01*
X180656555Y-80312591D01*
X180585126Y-80455448D01*
X180513698Y-80526877D01*
X180585126Y-83026877D02*
X180656555Y-82884020D01*
X180656555Y-82598306D01*
X180585126Y-82455448D01*
X180513698Y-82384020D01*
X180370841Y-82312591D01*
X179942269Y-82312591D01*
X179799412Y-82384020D01*
X179727984Y-82455448D01*
X179656555Y-82598306D01*
X179656555Y-82884020D01*
X179727984Y-83026877D01*
X180656555Y-84312591D02*
X179870841Y-84312591D01*
X179727984Y-84241163D01*
X179656555Y-84098306D01*
X179656555Y-83812591D01*
X179727984Y-83669734D01*
X180585126Y-84312591D02*
X180656555Y-84169734D01*
X180656555Y-83812591D01*
X180585126Y-83669734D01*
X180442269Y-83598306D01*
X180299412Y-83598306D01*
X180156555Y-83669734D01*
X180085126Y-83812591D01*
X180085126Y-84169734D01*
X180013698Y-84312591D01*
X179656555Y-85026877D02*
X180656555Y-85026877D01*
X179799412Y-85026877D02*
X179727984Y-85098306D01*
X179656555Y-85241163D01*
X179656555Y-85455448D01*
X179727984Y-85598306D01*
X179870841Y-85669734D01*
X180656555Y-85669734D01*
X179656555Y-87526877D02*
X181156555Y-87526877D01*
X179727984Y-87526877D02*
X179656555Y-87669734D01*
X179656555Y-87955448D01*
X179727984Y-88098306D01*
X179799412Y-88169734D01*
X179942269Y-88241163D01*
X180370841Y-88241163D01*
X180513698Y-88169734D01*
X180585126Y-88098306D01*
X180656555Y-87955448D01*
X180656555Y-87669734D01*
X180585126Y-87526877D01*
X179656555Y-89526877D02*
X180656555Y-89526877D01*
X179656555Y-88884020D02*
X180442269Y-88884020D01*
X180585126Y-88955448D01*
X180656555Y-89098306D01*
X180656555Y-89312591D01*
X180585126Y-89455448D01*
X180513698Y-89526877D01*
X179656555Y-90026877D02*
X179656555Y-90598306D01*
X179156555Y-90241163D02*
X180442269Y-90241163D01*
X180585126Y-90312591D01*
X180656555Y-90455448D01*
X180656555Y-90598306D01*
X180585126Y-92169734D02*
X180656555Y-92312591D01*
X180656555Y-92598306D01*
X180585126Y-92741163D01*
X180442269Y-92812591D01*
X180370841Y-92812591D01*
X180227984Y-92741163D01*
X180156555Y-92598306D01*
X180156555Y-92384020D01*
X180085126Y-92241163D01*
X179942269Y-92169734D01*
X179870841Y-92169734D01*
X179727984Y-92241163D01*
X179656555Y-92384020D01*
X179656555Y-92598306D01*
X179727984Y-92741163D01*
X179656555Y-93241163D02*
X179656555Y-93812591D01*
X179156555Y-93455448D02*
X180442269Y-93455448D01*
X180585126Y-93526877D01*
X180656555Y-93669734D01*
X180656555Y-93812591D01*
X180656555Y-94312591D02*
X179656555Y-94312591D01*
X179156555Y-94312591D02*
X179227984Y-94241163D01*
X179299412Y-94312591D01*
X179227984Y-94384020D01*
X179156555Y-94312591D01*
X179299412Y-94312591D01*
X180585126Y-95669734D02*
X180656555Y-95526877D01*
X180656555Y-95241163D01*
X180585126Y-95098306D01*
X180513698Y-95026877D01*
X180370841Y-94955448D01*
X179942269Y-94955448D01*
X179799412Y-95026877D01*
X179727984Y-95098306D01*
X179656555Y-95241163D01*
X179656555Y-95526877D01*
X179727984Y-95669734D01*
X180656555Y-96312591D02*
X179156555Y-96312591D01*
X180085126Y-96455448D02*
X180656555Y-96884020D01*
X179656555Y-96884020D02*
X180227984Y-96312591D01*
X179656555Y-97384020D02*
X180656555Y-97741163D01*
X179656555Y-98098306D02*
X180656555Y-97741163D01*
X181013698Y-97598306D01*
X181085126Y-97526877D01*
X181156555Y-97384020D01*
X180585126Y-99741163D02*
X180656555Y-99884020D01*
X180656555Y-100169734D01*
X180585126Y-100312591D01*
X180442269Y-100384020D01*
X180370841Y-100384020D01*
X180227984Y-100312591D01*
X180156555Y-100169734D01*
X180156555Y-99955448D01*
X180085126Y-99812591D01*
X179942269Y-99741163D01*
X179870841Y-99741163D01*
X179727984Y-99812591D01*
X179656555Y-99955448D01*
X179656555Y-100169734D01*
X179727984Y-100312591D01*
X179656555Y-100812591D02*
X179656555Y-101384020D01*
X179156555Y-101026877D02*
X180442269Y-101026877D01*
X180585126Y-101098306D01*
X180656555Y-101241163D01*
X180656555Y-101384020D01*
X179656555Y-102526877D02*
X180656555Y-102526877D01*
X179656555Y-101884020D02*
X180442269Y-101884020D01*
X180585126Y-101955448D01*
X180656555Y-102098306D01*
X180656555Y-102312591D01*
X180585126Y-102455448D01*
X180513698Y-102526877D01*
X179656555Y-103026877D02*
X179656555Y-103598306D01*
X180656555Y-103241163D02*
X179370841Y-103241163D01*
X179227984Y-103312591D01*
X179156555Y-103455448D01*
X179156555Y-103598306D01*
X179656555Y-103884020D02*
X179656555Y-104455448D01*
X180656555Y-104098306D02*
X179370841Y-104098306D01*
X179227984Y-104169734D01*
X179156555Y-104312591D01*
X179156555Y-104455448D01*
X180656555Y-106098306D02*
X179156555Y-106098306D01*
X180656555Y-106741163D02*
X179870841Y-106741163D01*
X179727984Y-106669734D01*
X179656555Y-106526877D01*
X179656555Y-106312591D01*
X179727984Y-106169734D01*
X179799412Y-106098306D01*
X180585126Y-108026877D02*
X180656555Y-107884020D01*
X180656555Y-107598306D01*
X180585126Y-107455448D01*
X180442269Y-107384020D01*
X179870841Y-107384020D01*
X179727984Y-107455448D01*
X179656555Y-107598306D01*
X179656555Y-107884020D01*
X179727984Y-108026877D01*
X179870841Y-108098306D01*
X180013698Y-108098306D01*
X180156555Y-107384020D01*
X180656555Y-108741163D02*
X179656555Y-108741163D01*
X179942269Y-108741163D02*
X179799412Y-108812591D01*
X179727984Y-108884020D01*
X179656555Y-109026877D01*
X179656555Y-109169734D01*
X180585126Y-110241163D02*
X180656555Y-110098306D01*
X180656555Y-109812591D01*
X180585126Y-109669734D01*
X180442269Y-109598306D01*
X179870841Y-109598306D01*
X179727984Y-109669734D01*
X179656555Y-109812591D01*
X179656555Y-110098306D01*
X179727984Y-110241163D01*
X179870841Y-110312591D01*
X180013698Y-110312591D01*
X180156555Y-109598306D01*
X180513698Y-110955448D02*
X180585126Y-111026877D01*
X180656555Y-110955448D01*
X180585126Y-110884020D01*
X180513698Y-110955448D01*
X180656555Y-110955448D01*
X181571555Y-75491163D02*
X181571555Y-75776877D01*
X181642984Y-75919734D01*
X181785841Y-76062591D01*
X182071555Y-76134020D01*
X182571555Y-76134020D01*
X182857269Y-76062591D01*
X183000126Y-75919734D01*
X183071555Y-75776877D01*
X183071555Y-75491163D01*
X183000126Y-75348306D01*
X182857269Y-75205448D01*
X182571555Y-75134020D01*
X182071555Y-75134020D01*
X181785841Y-75205448D01*
X181642984Y-75348306D01*
X181571555Y-75491163D01*
X183071555Y-76776877D02*
X182071555Y-76776877D01*
X182357269Y-76776877D02*
X182214412Y-76848306D01*
X182142984Y-76919734D01*
X182071555Y-77062591D01*
X182071555Y-77205448D01*
X183000126Y-79419734D02*
X183071555Y-79276877D01*
X183071555Y-78991163D01*
X183000126Y-78848306D01*
X182857269Y-78776877D01*
X182285841Y-78776877D01*
X182142984Y-78848306D01*
X182071555Y-78991163D01*
X182071555Y-79276877D01*
X182142984Y-79419734D01*
X182285841Y-79491163D01*
X182428698Y-79491163D01*
X182571555Y-78776877D01*
X182071555Y-79991163D02*
X183071555Y-80348306D01*
X182071555Y-80705448D01*
X183000126Y-81848306D02*
X183071555Y-81705448D01*
X183071555Y-81419734D01*
X183000126Y-81276877D01*
X182857269Y-81205448D01*
X182285841Y-81205448D01*
X182142984Y-81276877D01*
X182071555Y-81419734D01*
X182071555Y-81705448D01*
X182142984Y-81848306D01*
X182285841Y-81919734D01*
X182428698Y-81919734D01*
X182571555Y-81205448D01*
X182071555Y-82562591D02*
X183071555Y-82562591D01*
X182214412Y-82562591D02*
X182142984Y-82634020D01*
X182071555Y-82776877D01*
X182071555Y-82991163D01*
X182142984Y-83134020D01*
X182285841Y-83205448D01*
X183071555Y-83205448D01*
X183000126Y-83991163D02*
X183071555Y-83991163D01*
X183214412Y-83919734D01*
X183285841Y-83848306D01*
X183071555Y-85776877D02*
X182071555Y-85776877D01*
X181571555Y-85776877D02*
X181642984Y-85705448D01*
X181714412Y-85776877D01*
X181642984Y-85848306D01*
X181571555Y-85776877D01*
X181714412Y-85776877D01*
X182071555Y-86276877D02*
X182071555Y-86848306D01*
X183071555Y-86491163D02*
X181785841Y-86491163D01*
X181642984Y-86562591D01*
X181571555Y-86705448D01*
X181571555Y-86848306D01*
X182071555Y-88348306D02*
X183071555Y-88705448D01*
X182071555Y-89062591D02*
X183071555Y-88705448D01*
X183428698Y-88562591D01*
X183500126Y-88491163D01*
X183571555Y-88348306D01*
X183071555Y-89848306D02*
X183000126Y-89705448D01*
X182928698Y-89634020D01*
X182785841Y-89562591D01*
X182357269Y-89562591D01*
X182214412Y-89634020D01*
X182142984Y-89705448D01*
X182071555Y-89848306D01*
X182071555Y-90062591D01*
X182142984Y-90205448D01*
X182214412Y-90276877D01*
X182357269Y-90348306D01*
X182785841Y-90348306D01*
X182928698Y-90276877D01*
X183000126Y-90205448D01*
X183071555Y-90062591D01*
X183071555Y-89848306D01*
X182071555Y-91634020D02*
X183071555Y-91634020D01*
X182071555Y-90991163D02*
X182857269Y-90991163D01*
X183000126Y-91062591D01*
X183071555Y-91205448D01*
X183071555Y-91419734D01*
X183000126Y-91562591D01*
X182928698Y-91634020D01*
X183071555Y-93491163D02*
X182071555Y-93491163D01*
X182357269Y-93491163D02*
X182214412Y-93562591D01*
X182142984Y-93634020D01*
X182071555Y-93776877D01*
X182071555Y-93919734D01*
X183000126Y-94991163D02*
X183071555Y-94848306D01*
X183071555Y-94562591D01*
X183000126Y-94419734D01*
X182857269Y-94348306D01*
X182285841Y-94348306D01*
X182142984Y-94419734D01*
X182071555Y-94562591D01*
X182071555Y-94848306D01*
X182142984Y-94991163D01*
X182285841Y-95062591D01*
X182428698Y-95062591D01*
X182571555Y-94348306D01*
X183071555Y-96348306D02*
X182285841Y-96348306D01*
X182142984Y-96276877D01*
X182071555Y-96134020D01*
X182071555Y-95848306D01*
X182142984Y-95705448D01*
X183000126Y-96348306D02*
X183071555Y-96205448D01*
X183071555Y-95848306D01*
X183000126Y-95705448D01*
X182857269Y-95634020D01*
X182714412Y-95634020D01*
X182571555Y-95705448D01*
X182500126Y-95848306D01*
X182500126Y-96205448D01*
X182428698Y-96348306D01*
X183071555Y-97276877D02*
X183000126Y-97134020D01*
X182857269Y-97062591D01*
X181571555Y-97062591D01*
X183071555Y-98062591D02*
X183000126Y-97919734D01*
X182857269Y-97848306D01*
X181571555Y-97848306D01*
X182071555Y-98491163D02*
X183071555Y-98848306D01*
X182071555Y-99205448D02*
X183071555Y-98848306D01*
X183428698Y-98705448D01*
X183500126Y-98634020D01*
X183571555Y-98491163D01*
X182071555Y-100705448D02*
X182071555Y-101276877D01*
X183071555Y-100919734D02*
X181785841Y-100919734D01*
X181642984Y-100991163D01*
X181571555Y-101134020D01*
X181571555Y-101276877D01*
X183000126Y-102348306D02*
X183071555Y-102205448D01*
X183071555Y-101919734D01*
X183000126Y-101776877D01*
X182857269Y-101705448D01*
X182285841Y-101705448D01*
X182142984Y-101776877D01*
X182071555Y-101919734D01*
X182071555Y-102205448D01*
X182142984Y-102348306D01*
X182285841Y-102419734D01*
X182428698Y-102419734D01*
X182571555Y-101705448D01*
X183000126Y-103634020D02*
X183071555Y-103491163D01*
X183071555Y-103205448D01*
X183000126Y-103062591D01*
X182857269Y-102991163D01*
X182285841Y-102991163D01*
X182142984Y-103062591D01*
X182071555Y-103205448D01*
X182071555Y-103491163D01*
X182142984Y-103634020D01*
X182285841Y-103705448D01*
X182428698Y-103705448D01*
X182571555Y-102991163D01*
X183071555Y-104562591D02*
X183000126Y-104419734D01*
X182857269Y-104348306D01*
X181571555Y-104348306D01*
X183071555Y-106491163D02*
X183000126Y-106348306D01*
X182857269Y-106276877D01*
X181571555Y-106276877D01*
X183071555Y-107062591D02*
X182071555Y-107062591D01*
X181571555Y-107062591D02*
X181642984Y-106991163D01*
X181714412Y-107062591D01*
X181642984Y-107134020D01*
X181571555Y-107062591D01*
X181714412Y-107062591D01*
X183071555Y-107776877D02*
X181571555Y-107776877D01*
X182500126Y-107919734D02*
X183071555Y-108348306D01*
X182071555Y-108348306D02*
X182642984Y-107776877D01*
X183000126Y-109562591D02*
X183071555Y-109419734D01*
X183071555Y-109134020D01*
X183000126Y-108991163D01*
X182857269Y-108919734D01*
X182285841Y-108919734D01*
X182142984Y-108991163D01*
X182071555Y-109134020D01*
X182071555Y-109419734D01*
X182142984Y-109562591D01*
X182285841Y-109634020D01*
X182428698Y-109634020D01*
X182571555Y-108919734D01*
X183071555Y-111419734D02*
X182071555Y-111419734D01*
X181571555Y-111419734D02*
X181642984Y-111348306D01*
X181714412Y-111419734D01*
X181642984Y-111491163D01*
X181571555Y-111419734D01*
X181714412Y-111419734D01*
X182071555Y-111919734D02*
X182071555Y-112491163D01*
X181571555Y-112134020D02*
X182857269Y-112134020D01*
X183000126Y-112205448D01*
X183071555Y-112348306D01*
X183071555Y-112491163D01*
X183000126Y-113062591D02*
X183071555Y-113062591D01*
X183214412Y-112991163D01*
X183285841Y-112919734D01*
X185486555Y-78562591D02*
X183986555Y-78562591D01*
X185415126Y-78562591D02*
X185486555Y-78419734D01*
X185486555Y-78134020D01*
X185415126Y-77991163D01*
X185343698Y-77919734D01*
X185200841Y-77848306D01*
X184772269Y-77848306D01*
X184629412Y-77919734D01*
X184557984Y-77991163D01*
X184486555Y-78134020D01*
X184486555Y-78419734D01*
X184557984Y-78562591D01*
X185486555Y-79276877D02*
X184486555Y-79276877D01*
X184772269Y-79276877D02*
X184629412Y-79348306D01*
X184557984Y-79419734D01*
X184486555Y-79562591D01*
X184486555Y-79705448D01*
X185486555Y-80205448D02*
X184486555Y-80205448D01*
X183986555Y-80205448D02*
X184057984Y-80134020D01*
X184129412Y-80205448D01*
X184057984Y-80276877D01*
X183986555Y-80205448D01*
X184129412Y-80205448D01*
X185486555Y-81134020D02*
X185415126Y-80991163D01*
X185272269Y-80919734D01*
X183986555Y-80919734D01*
X185486555Y-81919734D02*
X185415126Y-81776877D01*
X185272269Y-81705448D01*
X183986555Y-81705448D01*
X185486555Y-83634020D02*
X183986555Y-83634020D01*
X185486555Y-84276877D02*
X184700841Y-84276877D01*
X184557984Y-84205448D01*
X184486555Y-84062591D01*
X184486555Y-83848306D01*
X184557984Y-83705448D01*
X184629412Y-83634020D01*
X185486555Y-85205448D02*
X185415126Y-85062591D01*
X185343698Y-84991163D01*
X185200841Y-84919734D01*
X184772269Y-84919734D01*
X184629412Y-84991163D01*
X184557984Y-85062591D01*
X184486555Y-85205448D01*
X184486555Y-85419734D01*
X184557984Y-85562591D01*
X184629412Y-85634020D01*
X184772269Y-85705448D01*
X185200841Y-85705448D01*
X185343698Y-85634020D01*
X185415126Y-85562591D01*
X185486555Y-85419734D01*
X185486555Y-85205448D01*
X185486555Y-86562591D02*
X185415126Y-86419734D01*
X185272269Y-86348306D01*
X183986555Y-86348306D01*
X185415126Y-87705448D02*
X185486555Y-87562591D01*
X185486555Y-87276877D01*
X185415126Y-87134020D01*
X185272269Y-87062591D01*
X184700841Y-87062591D01*
X184557984Y-87134020D01*
X184486555Y-87276877D01*
X184486555Y-87562591D01*
X184557984Y-87705448D01*
X184700841Y-87776877D01*
X184843698Y-87776877D01*
X184986555Y-87062591D01*
X185415126Y-88348306D02*
X185486555Y-88491163D01*
X185486555Y-88776877D01*
X185415126Y-88919734D01*
X185272269Y-88991163D01*
X185200841Y-88991163D01*
X185057984Y-88919734D01*
X184986555Y-88776877D01*
X184986555Y-88562591D01*
X184915126Y-88419734D01*
X184772269Y-88348306D01*
X184700841Y-88348306D01*
X184557984Y-88419734D01*
X184486555Y-88562591D01*
X184486555Y-88776877D01*
X184557984Y-88919734D01*
X184486555Y-90562591D02*
X184486555Y-91134020D01*
X183986555Y-90776877D02*
X185272269Y-90776877D01*
X185415126Y-90848306D01*
X185486555Y-90991163D01*
X185486555Y-91134020D01*
X185486555Y-91634020D02*
X183986555Y-91634020D01*
X185486555Y-92276877D02*
X184700841Y-92276877D01*
X184557984Y-92205448D01*
X184486555Y-92062591D01*
X184486555Y-91848306D01*
X184557984Y-91705448D01*
X184629412Y-91634020D01*
X185486555Y-92991163D02*
X184486555Y-92991163D01*
X184772269Y-92991163D02*
X184629412Y-93062591D01*
X184557984Y-93134020D01*
X184486555Y-93276877D01*
X184486555Y-93419734D01*
X185486555Y-94134020D02*
X185415126Y-93991163D01*
X185343698Y-93919734D01*
X185200841Y-93848306D01*
X184772269Y-93848306D01*
X184629412Y-93919734D01*
X184557984Y-93991163D01*
X184486555Y-94134020D01*
X184486555Y-94348306D01*
X184557984Y-94491163D01*
X184629412Y-94562591D01*
X184772269Y-94634020D01*
X185200841Y-94634020D01*
X185343698Y-94562591D01*
X185415126Y-94491163D01*
X185486555Y-94348306D01*
X185486555Y-94134020D01*
X184486555Y-95919734D02*
X185486555Y-95919734D01*
X184486555Y-95276877D02*
X185272269Y-95276877D01*
X185415126Y-95348306D01*
X185486555Y-95491163D01*
X185486555Y-95705448D01*
X185415126Y-95848306D01*
X185343698Y-95919734D01*
X184486555Y-97276877D02*
X185700841Y-97276877D01*
X185843698Y-97205448D01*
X185915126Y-97134020D01*
X185986555Y-96991163D01*
X185986555Y-96776877D01*
X185915126Y-96634020D01*
X185415126Y-97276877D02*
X185486555Y-97134020D01*
X185486555Y-96848306D01*
X185415126Y-96705448D01*
X185343698Y-96634020D01*
X185200841Y-96562591D01*
X184772269Y-96562591D01*
X184629412Y-96634020D01*
X184557984Y-96705448D01*
X184486555Y-96848306D01*
X184486555Y-97134020D01*
X184557984Y-97276877D01*
X185486555Y-97991163D02*
X183986555Y-97991163D01*
X185486555Y-98634020D02*
X184700841Y-98634020D01*
X184557984Y-98562591D01*
X184486555Y-98419734D01*
X184486555Y-98205448D01*
X184557984Y-98062591D01*
X184629412Y-97991163D01*
X184486555Y-100276877D02*
X184486555Y-100848306D01*
X183986555Y-100491163D02*
X185272269Y-100491163D01*
X185415126Y-100562591D01*
X185486555Y-100705448D01*
X185486555Y-100848306D01*
X185486555Y-101348306D02*
X183986555Y-101348306D01*
X185486555Y-101991163D02*
X184700841Y-101991163D01*
X184557984Y-101919734D01*
X184486555Y-101776877D01*
X184486555Y-101562591D01*
X184557984Y-101419734D01*
X184629412Y-101348306D01*
X185486555Y-102705448D02*
X184486555Y-102705448D01*
X183986555Y-102705448D02*
X184057984Y-102634020D01*
X184129412Y-102705448D01*
X184057984Y-102776877D01*
X183986555Y-102705448D01*
X184129412Y-102705448D01*
X185415126Y-103348306D02*
X185486555Y-103491163D01*
X185486555Y-103776877D01*
X185415126Y-103919734D01*
X185272269Y-103991163D01*
X185200841Y-103991163D01*
X185057984Y-103919734D01*
X184986555Y-103776877D01*
X184986555Y-103562591D01*
X184915126Y-103419734D01*
X184772269Y-103348306D01*
X184700841Y-103348306D01*
X184557984Y-103419734D01*
X184486555Y-103562591D01*
X184486555Y-103776877D01*
X184557984Y-103919734D01*
X184486555Y-105776877D02*
X185986555Y-105776877D01*
X184557984Y-105776877D02*
X184486555Y-105919734D01*
X184486555Y-106205448D01*
X184557984Y-106348306D01*
X184629412Y-106419734D01*
X184772269Y-106491163D01*
X185200841Y-106491163D01*
X185343698Y-106419734D01*
X185415126Y-106348306D01*
X185486555Y-106205448D01*
X185486555Y-105919734D01*
X185415126Y-105776877D01*
X185486555Y-107776877D02*
X184700841Y-107776877D01*
X184557984Y-107705448D01*
X184486555Y-107562591D01*
X184486555Y-107276877D01*
X184557984Y-107134020D01*
X185415126Y-107776877D02*
X185486555Y-107634020D01*
X185486555Y-107276877D01*
X185415126Y-107134020D01*
X185272269Y-107062591D01*
X185129412Y-107062591D01*
X184986555Y-107134020D01*
X184915126Y-107276877D01*
X184915126Y-107634020D01*
X184843698Y-107776877D01*
X185486555Y-108491163D02*
X184486555Y-108491163D01*
X184772269Y-108491163D02*
X184629412Y-108562591D01*
X184557984Y-108634020D01*
X184486555Y-108776877D01*
X184486555Y-108919734D01*
X184486555Y-109205448D02*
X184486555Y-109776877D01*
X183986555Y-109419734D02*
X185272269Y-109419734D01*
X185415126Y-109491163D01*
X185486555Y-109634020D01*
X185486555Y-109776877D01*
X185343698Y-110276877D02*
X185415126Y-110348306D01*
X185486555Y-110276877D01*
X185415126Y-110205448D01*
X185343698Y-110276877D01*
X185486555Y-110276877D01*
X188472984Y-68276877D02*
X188401555Y-68205448D01*
X188187269Y-68062591D01*
X188044412Y-67991163D01*
X187830126Y-67919734D01*
X187472984Y-67848306D01*
X187187269Y-67848306D01*
X186830126Y-67919734D01*
X186615841Y-67991163D01*
X186472984Y-68062591D01*
X186258698Y-68205448D01*
X186187269Y-68276877D01*
X187901555Y-68848306D02*
X186401555Y-68848306D01*
X186401555Y-69634020D02*
X186687269Y-69491163D01*
X187901555Y-70919734D02*
X186401555Y-70919734D01*
X187830126Y-70919734D02*
X187901555Y-70776877D01*
X187901555Y-70491163D01*
X187830126Y-70348306D01*
X187758698Y-70276877D01*
X187615841Y-70205448D01*
X187187269Y-70205448D01*
X187044412Y-70276877D01*
X186972984Y-70348306D01*
X186901555Y-70491163D01*
X186901555Y-70776877D01*
X186972984Y-70919734D01*
X187830126Y-72705448D02*
X187901555Y-72848306D01*
X187901555Y-73134020D01*
X187830126Y-73276877D01*
X187687269Y-73348306D01*
X187615841Y-73348306D01*
X187472984Y-73276877D01*
X187401555Y-73134020D01*
X187401555Y-72919734D01*
X187330126Y-72776877D01*
X187187269Y-72705448D01*
X187115841Y-72705448D01*
X186972984Y-72776877D01*
X186901555Y-72919734D01*
X186901555Y-73134020D01*
X186972984Y-73276877D01*
X186901555Y-74634020D02*
X187901555Y-74634020D01*
X186901555Y-73991163D02*
X187687269Y-73991163D01*
X187830126Y-74062591D01*
X187901555Y-74205448D01*
X187901555Y-74419734D01*
X187830126Y-74562591D01*
X187758698Y-74634020D01*
X186901555Y-75991163D02*
X188115841Y-75991163D01*
X188258698Y-75919734D01*
X188330126Y-75848306D01*
X188401555Y-75705448D01*
X188401555Y-75491163D01*
X188330126Y-75348306D01*
X187830126Y-75991163D02*
X187901555Y-75848306D01*
X187901555Y-75562591D01*
X187830126Y-75419734D01*
X187758698Y-75348306D01*
X187615841Y-75276877D01*
X187187269Y-75276877D01*
X187044412Y-75348306D01*
X186972984Y-75419734D01*
X186901555Y-75562591D01*
X186901555Y-75848306D01*
X186972984Y-75991163D01*
X186901555Y-77348306D02*
X188115841Y-77348306D01*
X188258698Y-77276877D01*
X188330126Y-77205448D01*
X188401555Y-77062591D01*
X188401555Y-76848306D01*
X188330126Y-76705448D01*
X187830126Y-77348306D02*
X187901555Y-77205448D01*
X187901555Y-76919734D01*
X187830126Y-76776877D01*
X187758698Y-76705448D01*
X187615841Y-76634020D01*
X187187269Y-76634020D01*
X187044412Y-76705448D01*
X186972984Y-76776877D01*
X186901555Y-76919734D01*
X186901555Y-77205448D01*
X186972984Y-77348306D01*
X187830126Y-78634020D02*
X187901555Y-78491163D01*
X187901555Y-78205448D01*
X187830126Y-78062591D01*
X187687269Y-77991163D01*
X187115841Y-77991163D01*
X186972984Y-78062591D01*
X186901555Y-78205448D01*
X186901555Y-78491163D01*
X186972984Y-78634020D01*
X187115841Y-78705448D01*
X187258698Y-78705448D01*
X187401555Y-77991163D01*
X187830126Y-79276877D02*
X187901555Y-79419734D01*
X187901555Y-79705448D01*
X187830126Y-79848306D01*
X187687269Y-79919734D01*
X187615841Y-79919734D01*
X187472984Y-79848306D01*
X187401555Y-79705448D01*
X187401555Y-79491163D01*
X187330126Y-79348306D01*
X187187269Y-79276877D01*
X187115841Y-79276877D01*
X186972984Y-79348306D01*
X186901555Y-79491163D01*
X186901555Y-79705448D01*
X186972984Y-79848306D01*
X186901555Y-80348306D02*
X186901555Y-80919734D01*
X186401555Y-80562591D02*
X187687269Y-80562591D01*
X187830126Y-80634020D01*
X187901555Y-80776877D01*
X187901555Y-80919734D01*
X186901555Y-82419734D02*
X187901555Y-82776877D01*
X186901555Y-83134020D01*
X187830126Y-84276877D02*
X187901555Y-84134020D01*
X187901555Y-83848306D01*
X187830126Y-83705448D01*
X187687269Y-83634020D01*
X187115841Y-83634020D01*
X186972984Y-83705448D01*
X186901555Y-83848306D01*
X186901555Y-84134020D01*
X186972984Y-84276877D01*
X187115841Y-84348306D01*
X187258698Y-84348306D01*
X187401555Y-83634020D01*
X187901555Y-84991163D02*
X186901555Y-84991163D01*
X187187269Y-84991163D02*
X187044412Y-85062591D01*
X186972984Y-85134020D01*
X186901555Y-85276877D01*
X186901555Y-85419734D01*
X187901555Y-85919734D02*
X186901555Y-85919734D01*
X186401555Y-85919734D02*
X186472984Y-85848306D01*
X186544412Y-85919734D01*
X186472984Y-85991163D01*
X186401555Y-85919734D01*
X186544412Y-85919734D01*
X186901555Y-86419734D02*
X186901555Y-86991163D01*
X187901555Y-86634020D02*
X186615841Y-86634020D01*
X186472984Y-86705448D01*
X186401555Y-86848306D01*
X186401555Y-86991163D01*
X186901555Y-87348306D02*
X187901555Y-87705448D01*
X186901555Y-88062591D02*
X187901555Y-87705448D01*
X188258698Y-87562591D01*
X188330126Y-87491163D01*
X188401555Y-87348306D01*
X187901555Y-88634020D02*
X186901555Y-88634020D01*
X186401555Y-88634020D02*
X186472984Y-88562591D01*
X186544412Y-88634020D01*
X186472984Y-88705448D01*
X186401555Y-88634020D01*
X186544412Y-88634020D01*
X186901555Y-89348306D02*
X187901555Y-89348306D01*
X187044412Y-89348306D02*
X186972984Y-89419734D01*
X186901555Y-89562591D01*
X186901555Y-89776877D01*
X186972984Y-89919734D01*
X187115841Y-89991163D01*
X187901555Y-89991163D01*
X186901555Y-91348306D02*
X188115841Y-91348306D01*
X188258698Y-91276877D01*
X188330126Y-91205448D01*
X188401555Y-91062591D01*
X188401555Y-90848306D01*
X188330126Y-90705448D01*
X187830126Y-91348306D02*
X187901555Y-91205448D01*
X187901555Y-90919734D01*
X187830126Y-90776877D01*
X187758698Y-90705448D01*
X187615841Y-90634020D01*
X187187269Y-90634020D01*
X187044412Y-90705448D01*
X186972984Y-90776877D01*
X186901555Y-90919734D01*
X186901555Y-91205448D01*
X186972984Y-91348306D01*
X186901555Y-92991163D02*
X186901555Y-93562591D01*
X186401555Y-93205448D02*
X187687269Y-93205448D01*
X187830126Y-93276877D01*
X187901555Y-93419734D01*
X187901555Y-93562591D01*
X187901555Y-94062591D02*
X186401555Y-94062591D01*
X187901555Y-94705448D02*
X187115841Y-94705448D01*
X186972984Y-94634020D01*
X186901555Y-94491163D01*
X186901555Y-94276877D01*
X186972984Y-94134020D01*
X187044412Y-94062591D01*
X187901555Y-96062591D02*
X187115841Y-96062591D01*
X186972984Y-95991163D01*
X186901555Y-95848306D01*
X186901555Y-95562591D01*
X186972984Y-95419734D01*
X187830126Y-96062591D02*
X187901555Y-95919734D01*
X187901555Y-95562591D01*
X187830126Y-95419734D01*
X187687269Y-95348306D01*
X187544412Y-95348306D01*
X187401555Y-95419734D01*
X187330126Y-95562591D01*
X187330126Y-95919734D01*
X187258698Y-96062591D01*
X186901555Y-96562591D02*
X186901555Y-97134020D01*
X186401555Y-96776877D02*
X187687269Y-96776877D01*
X187830126Y-96848306D01*
X187901555Y-96991163D01*
X187901555Y-97134020D01*
X186901555Y-98562591D02*
X186901555Y-99134020D01*
X186401555Y-98776877D02*
X187687269Y-98776877D01*
X187830126Y-98848306D01*
X187901555Y-98991163D01*
X187901555Y-99134020D01*
X187901555Y-99634020D02*
X186401555Y-99634020D01*
X187901555Y-100276877D02*
X187115841Y-100276877D01*
X186972984Y-100205448D01*
X186901555Y-100062591D01*
X186901555Y-99848306D01*
X186972984Y-99705448D01*
X187044412Y-99634020D01*
X187830126Y-101562591D02*
X187901555Y-101419734D01*
X187901555Y-101134020D01*
X187830126Y-100991163D01*
X187687269Y-100919734D01*
X187115841Y-100919734D01*
X186972984Y-100991163D01*
X186901555Y-101134020D01*
X186901555Y-101419734D01*
X186972984Y-101562591D01*
X187115841Y-101634020D01*
X187258698Y-101634020D01*
X187401555Y-100919734D01*
X186901555Y-103205448D02*
X186901555Y-103776877D01*
X187901555Y-103419734D02*
X186615841Y-103419734D01*
X186472984Y-103491163D01*
X186401555Y-103634020D01*
X186401555Y-103776877D01*
X187901555Y-104919734D02*
X187115841Y-104919734D01*
X186972984Y-104848306D01*
X186901555Y-104705448D01*
X186901555Y-104419734D01*
X186972984Y-104276877D01*
X187830126Y-104919734D02*
X187901555Y-104776877D01*
X187901555Y-104419734D01*
X187830126Y-104276877D01*
X187687269Y-104205448D01*
X187544412Y-104205448D01*
X187401555Y-104276877D01*
X187330126Y-104419734D01*
X187330126Y-104776877D01*
X187258698Y-104919734D01*
X187830126Y-105562591D02*
X187901555Y-105705448D01*
X187901555Y-105991163D01*
X187830126Y-106134020D01*
X187687269Y-106205448D01*
X187615841Y-106205448D01*
X187472984Y-106134020D01*
X187401555Y-105991163D01*
X187401555Y-105776877D01*
X187330126Y-105634020D01*
X187187269Y-105562591D01*
X187115841Y-105562591D01*
X186972984Y-105634020D01*
X186901555Y-105776877D01*
X186901555Y-105991163D01*
X186972984Y-106134020D01*
X186901555Y-106634020D02*
X186901555Y-107205448D01*
X186401555Y-106848306D02*
X187687269Y-106848306D01*
X187830126Y-106919734D01*
X187901555Y-107062591D01*
X187901555Y-107205448D01*
X187830126Y-108276877D02*
X187901555Y-108134020D01*
X187901555Y-107848306D01*
X187830126Y-107705448D01*
X187687269Y-107634020D01*
X187115841Y-107634020D01*
X186972984Y-107705448D01*
X186901555Y-107848306D01*
X186901555Y-108134020D01*
X186972984Y-108276877D01*
X187115841Y-108348306D01*
X187258698Y-108348306D01*
X187401555Y-107634020D01*
X186901555Y-108991163D02*
X187901555Y-108991163D01*
X187044412Y-108991163D02*
X186972984Y-109062591D01*
X186901555Y-109205448D01*
X186901555Y-109419734D01*
X186972984Y-109562591D01*
X187115841Y-109634020D01*
X187901555Y-109634020D01*
X187830126Y-110919734D02*
X187901555Y-110776877D01*
X187901555Y-110491163D01*
X187830126Y-110348306D01*
X187687269Y-110276877D01*
X187115841Y-110276877D01*
X186972984Y-110348306D01*
X186901555Y-110491163D01*
X186901555Y-110776877D01*
X186972984Y-110919734D01*
X187115841Y-110991163D01*
X187258698Y-110991163D01*
X187401555Y-110276877D01*
X187901555Y-111634020D02*
X186901555Y-111634020D01*
X187187269Y-111634020D02*
X187044412Y-111705448D01*
X186972984Y-111776877D01*
X186901555Y-111919734D01*
X186901555Y-112062591D01*
X187830126Y-112491163D02*
X187901555Y-112634020D01*
X187901555Y-112919734D01*
X187830126Y-113062591D01*
X187687269Y-113134020D01*
X187615841Y-113134020D01*
X187472984Y-113062591D01*
X187401555Y-112919734D01*
X187401555Y-112705448D01*
X187330126Y-112562591D01*
X187187269Y-112491163D01*
X187115841Y-112491163D01*
X186972984Y-112562591D01*
X186901555Y-112705448D01*
X186901555Y-112919734D01*
X186972984Y-113062591D01*
X186901555Y-115562591D02*
X188115841Y-115562591D01*
X188258698Y-115491163D01*
X188330126Y-115419734D01*
X188401555Y-115276877D01*
X188401555Y-115062591D01*
X188330126Y-114919734D01*
X187830126Y-115562591D02*
X187901555Y-115419734D01*
X187901555Y-115134020D01*
X187830126Y-114991163D01*
X187758698Y-114919734D01*
X187615841Y-114848306D01*
X187187269Y-114848306D01*
X187044412Y-114919734D01*
X186972984Y-114991163D01*
X186901555Y-115134020D01*
X186901555Y-115419734D01*
X186972984Y-115562591D01*
X187901555Y-116491163D02*
X187830126Y-116348306D01*
X187758698Y-116276877D01*
X187615841Y-116205448D01*
X187187269Y-116205448D01*
X187044412Y-116276877D01*
X186972984Y-116348306D01*
X186901555Y-116491163D01*
X186901555Y-116705448D01*
X186972984Y-116848306D01*
X187044412Y-116919734D01*
X187187269Y-116991163D01*
X187615841Y-116991163D01*
X187758698Y-116919734D01*
X187830126Y-116848306D01*
X187901555Y-116705448D01*
X187901555Y-116491163D01*
X187901555Y-117634020D02*
X186901555Y-117634020D01*
X186401555Y-117634020D02*
X186472984Y-117562591D01*
X186544412Y-117634020D01*
X186472984Y-117705448D01*
X186401555Y-117634020D01*
X186544412Y-117634020D01*
X186901555Y-118348306D02*
X187901555Y-118348306D01*
X187044412Y-118348306D02*
X186972984Y-118419734D01*
X186901555Y-118562591D01*
X186901555Y-118776877D01*
X186972984Y-118919734D01*
X187115841Y-118991163D01*
X187901555Y-118991163D01*
X186901555Y-120348306D02*
X188115841Y-120348306D01*
X188258698Y-120276877D01*
X188330126Y-120205448D01*
X188401555Y-120062591D01*
X188401555Y-119848306D01*
X188330126Y-119705448D01*
X187830126Y-120348306D02*
X187901555Y-120205448D01*
X187901555Y-119919734D01*
X187830126Y-119776877D01*
X187758698Y-119705448D01*
X187615841Y-119634020D01*
X187187269Y-119634020D01*
X187044412Y-119705448D01*
X186972984Y-119776877D01*
X186901555Y-119919734D01*
X186901555Y-120205448D01*
X186972984Y-120348306D01*
X189316555Y-66384020D02*
X189316555Y-66955448D01*
X188816555Y-66598306D02*
X190102269Y-66598306D01*
X190245126Y-66669734D01*
X190316555Y-66812591D01*
X190316555Y-66955448D01*
X190316555Y-67455448D02*
X188816555Y-67455448D01*
X190316555Y-68098306D02*
X189530841Y-68098306D01*
X189387984Y-68026877D01*
X189316555Y-67884020D01*
X189316555Y-67669734D01*
X189387984Y-67526877D01*
X189459412Y-67455448D01*
X190316555Y-68812591D02*
X189316555Y-68812591D01*
X189602269Y-68812591D02*
X189459412Y-68884020D01*
X189387984Y-68955448D01*
X189316555Y-69098306D01*
X189316555Y-69241163D01*
X190316555Y-69955448D02*
X190245126Y-69812591D01*
X190173698Y-69741163D01*
X190030841Y-69669734D01*
X189602269Y-69669734D01*
X189459412Y-69741163D01*
X189387984Y-69812591D01*
X189316555Y-69955448D01*
X189316555Y-70169734D01*
X189387984Y-70312591D01*
X189459412Y-70384020D01*
X189602269Y-70455448D01*
X190030841Y-70455448D01*
X190173698Y-70384020D01*
X190245126Y-70312591D01*
X190316555Y-70169734D01*
X190316555Y-69955448D01*
X189316555Y-71741163D02*
X190316555Y-71741163D01*
X189316555Y-71098306D02*
X190102269Y-71098306D01*
X190245126Y-71169734D01*
X190316555Y-71312591D01*
X190316555Y-71526877D01*
X190245126Y-71669734D01*
X190173698Y-71741163D01*
X189316555Y-73098306D02*
X190530841Y-73098306D01*
X190673698Y-73026877D01*
X190745126Y-72955448D01*
X190816555Y-72812591D01*
X190816555Y-72598306D01*
X190745126Y-72455448D01*
X190245126Y-73098306D02*
X190316555Y-72955448D01*
X190316555Y-72669734D01*
X190245126Y-72526877D01*
X190173698Y-72455448D01*
X190030841Y-72384020D01*
X189602269Y-72384020D01*
X189459412Y-72455448D01*
X189387984Y-72526877D01*
X189316555Y-72669734D01*
X189316555Y-72955448D01*
X189387984Y-73098306D01*
X190316555Y-73812591D02*
X188816555Y-73812591D01*
X190316555Y-74455448D02*
X189530841Y-74455448D01*
X189387984Y-74384020D01*
X189316555Y-74241163D01*
X189316555Y-74026877D01*
X189387984Y-73884020D01*
X189459412Y-73812591D01*
X189316555Y-76098306D02*
X189316555Y-76669734D01*
X188816555Y-76312591D02*
X190102269Y-76312591D01*
X190245126Y-76384020D01*
X190316555Y-76526877D01*
X190316555Y-76669734D01*
X190316555Y-77169734D02*
X188816555Y-77169734D01*
X190316555Y-77812591D02*
X189530841Y-77812591D01*
X189387984Y-77741163D01*
X189316555Y-77598306D01*
X189316555Y-77384020D01*
X189387984Y-77241163D01*
X189459412Y-77169734D01*
X190316555Y-78741163D02*
X190245126Y-78598306D01*
X190173698Y-78526877D01*
X190030841Y-78455448D01*
X189602269Y-78455448D01*
X189459412Y-78526877D01*
X189387984Y-78598306D01*
X189316555Y-78741163D01*
X189316555Y-78955448D01*
X189387984Y-79098306D01*
X189459412Y-79169734D01*
X189602269Y-79241163D01*
X190030841Y-79241163D01*
X190173698Y-79169734D01*
X190245126Y-79098306D01*
X190316555Y-78955448D01*
X190316555Y-78741163D01*
X190245126Y-79812591D02*
X190316555Y-79955448D01*
X190316555Y-80241163D01*
X190245126Y-80384020D01*
X190102269Y-80455448D01*
X190030841Y-80455448D01*
X189887984Y-80384020D01*
X189816555Y-80241163D01*
X189816555Y-80026877D01*
X189745126Y-79884020D01*
X189602269Y-79812591D01*
X189530841Y-79812591D01*
X189387984Y-79884020D01*
X189316555Y-80026877D01*
X189316555Y-80241163D01*
X189387984Y-80384020D01*
X190245126Y-81669734D02*
X190316555Y-81526877D01*
X190316555Y-81241163D01*
X190245126Y-81098306D01*
X190102269Y-81026877D01*
X189530841Y-81026877D01*
X189387984Y-81098306D01*
X189316555Y-81241163D01*
X189316555Y-81526877D01*
X189387984Y-81669734D01*
X189530841Y-81741163D01*
X189673698Y-81741163D01*
X189816555Y-81026877D01*
X190316555Y-83526877D02*
X188816555Y-83526877D01*
X190316555Y-84169734D02*
X189530841Y-84169734D01*
X189387984Y-84098306D01*
X189316555Y-83955448D01*
X189316555Y-83741163D01*
X189387984Y-83598306D01*
X189459412Y-83526877D01*
X190316555Y-85098306D02*
X190245126Y-84955448D01*
X190173698Y-84884020D01*
X190030841Y-84812591D01*
X189602269Y-84812591D01*
X189459412Y-84884020D01*
X189387984Y-84955448D01*
X189316555Y-85098306D01*
X189316555Y-85312591D01*
X189387984Y-85455448D01*
X189459412Y-85526877D01*
X189602269Y-85598306D01*
X190030841Y-85598306D01*
X190173698Y-85526877D01*
X190245126Y-85455448D01*
X190316555Y-85312591D01*
X190316555Y-85098306D01*
X190316555Y-86455448D02*
X190245126Y-86312591D01*
X190102269Y-86241163D01*
X188816555Y-86241163D01*
X190245126Y-87598306D02*
X190316555Y-87455448D01*
X190316555Y-87169734D01*
X190245126Y-87026877D01*
X190102269Y-86955448D01*
X189530841Y-86955448D01*
X189387984Y-87026877D01*
X189316555Y-87169734D01*
X189316555Y-87455448D01*
X189387984Y-87598306D01*
X189530841Y-87669734D01*
X189673698Y-87669734D01*
X189816555Y-86955448D01*
X190245126Y-88241163D02*
X190316555Y-88384020D01*
X190316555Y-88669734D01*
X190245126Y-88812591D01*
X190102269Y-88884020D01*
X190030841Y-88884020D01*
X189887984Y-88812591D01*
X189816555Y-88669734D01*
X189816555Y-88455448D01*
X189745126Y-88312591D01*
X189602269Y-88241163D01*
X189530841Y-88241163D01*
X189387984Y-88312591D01*
X189316555Y-88455448D01*
X189316555Y-88669734D01*
X189387984Y-88812591D01*
X190316555Y-90669734D02*
X188816555Y-90669734D01*
X190316555Y-91312591D02*
X189530841Y-91312591D01*
X189387984Y-91241163D01*
X189316555Y-91098306D01*
X189316555Y-90884020D01*
X189387984Y-90741163D01*
X189459412Y-90669734D01*
X190316555Y-92669734D02*
X189530841Y-92669734D01*
X189387984Y-92598306D01*
X189316555Y-92455448D01*
X189316555Y-92169734D01*
X189387984Y-92026877D01*
X190245126Y-92669734D02*
X190316555Y-92526877D01*
X190316555Y-92169734D01*
X190245126Y-92026877D01*
X190102269Y-91955448D01*
X189959412Y-91955448D01*
X189816555Y-92026877D01*
X189745126Y-92169734D01*
X189745126Y-92526877D01*
X189673698Y-92669734D01*
X189316555Y-93241163D02*
X190316555Y-93598306D01*
X189316555Y-93955448D01*
X190245126Y-95098306D02*
X190316555Y-94955448D01*
X190316555Y-94669734D01*
X190245126Y-94526877D01*
X190102269Y-94455448D01*
X189530841Y-94455448D01*
X189387984Y-94526877D01*
X189316555Y-94669734D01*
X189316555Y-94955448D01*
X189387984Y-95098306D01*
X189530841Y-95169734D01*
X189673698Y-95169734D01*
X189816555Y-94455448D01*
X190316555Y-96955448D02*
X188816555Y-96955448D01*
X190316555Y-97598306D02*
X189530841Y-97598306D01*
X189387984Y-97526877D01*
X189316555Y-97384020D01*
X189316555Y-97169734D01*
X189387984Y-97026877D01*
X189459412Y-96955448D01*
X190245126Y-98884020D02*
X190316555Y-98741163D01*
X190316555Y-98455448D01*
X190245126Y-98312591D01*
X190102269Y-98241163D01*
X189530841Y-98241163D01*
X189387984Y-98312591D01*
X189316555Y-98455448D01*
X189316555Y-98741163D01*
X189387984Y-98884020D01*
X189530841Y-98955448D01*
X189673698Y-98955448D01*
X189816555Y-98241163D01*
X190316555Y-100241163D02*
X189530841Y-100241163D01*
X189387984Y-100169734D01*
X189316555Y-100026877D01*
X189316555Y-99741163D01*
X189387984Y-99598306D01*
X190245126Y-100241163D02*
X190316555Y-100098306D01*
X190316555Y-99741163D01*
X190245126Y-99598306D01*
X190102269Y-99526877D01*
X189959412Y-99526877D01*
X189816555Y-99598306D01*
X189745126Y-99741163D01*
X189745126Y-100098306D01*
X189673698Y-100241163D01*
X190316555Y-101598306D02*
X188816555Y-101598306D01*
X190245126Y-101598306D02*
X190316555Y-101455448D01*
X190316555Y-101169734D01*
X190245126Y-101026877D01*
X190173698Y-100955448D01*
X190030841Y-100884020D01*
X189602269Y-100884020D01*
X189459412Y-100955448D01*
X189387984Y-101026877D01*
X189316555Y-101169734D01*
X189316555Y-101455448D01*
X189387984Y-101598306D01*
X190245126Y-102241163D02*
X190316555Y-102384020D01*
X190316555Y-102669734D01*
X190245126Y-102812591D01*
X190102269Y-102884020D01*
X190030841Y-102884020D01*
X189887984Y-102812591D01*
X189816555Y-102669734D01*
X189816555Y-102455448D01*
X189745126Y-102312591D01*
X189602269Y-102241163D01*
X189530841Y-102241163D01*
X189387984Y-102312591D01*
X189316555Y-102455448D01*
X189316555Y-102669734D01*
X189387984Y-102812591D01*
X189316555Y-104455448D02*
X189316555Y-105026877D01*
X188816555Y-104669734D02*
X190102269Y-104669734D01*
X190245126Y-104741163D01*
X190316555Y-104884020D01*
X190316555Y-105026877D01*
X190316555Y-105526877D02*
X188816555Y-105526877D01*
X190316555Y-106169734D02*
X189530841Y-106169734D01*
X189387984Y-106098306D01*
X189316555Y-105955448D01*
X189316555Y-105741163D01*
X189387984Y-105598306D01*
X189459412Y-105526877D01*
X190316555Y-107526877D02*
X189530841Y-107526877D01*
X189387984Y-107455448D01*
X189316555Y-107312591D01*
X189316555Y-107026877D01*
X189387984Y-106884020D01*
X190245126Y-107526877D02*
X190316555Y-107384020D01*
X190316555Y-107026877D01*
X190245126Y-106884020D01*
X190102269Y-106812591D01*
X189959412Y-106812591D01*
X189816555Y-106884020D01*
X189745126Y-107026877D01*
X189745126Y-107384020D01*
X189673698Y-107526877D01*
X189316555Y-108026877D02*
X189316555Y-108598306D01*
X188816555Y-108241163D02*
X190102269Y-108241163D01*
X190245126Y-108312591D01*
X190316555Y-108455448D01*
X190316555Y-108598306D01*
X190316555Y-110884020D02*
X188816555Y-110884020D01*
X190245126Y-110884020D02*
X190316555Y-110741163D01*
X190316555Y-110455448D01*
X190245126Y-110312591D01*
X190173698Y-110241163D01*
X190030841Y-110169734D01*
X189602269Y-110169734D01*
X189459412Y-110241163D01*
X189387984Y-110312591D01*
X189316555Y-110455448D01*
X189316555Y-110741163D01*
X189387984Y-110884020D01*
X190316555Y-111812591D02*
X190245126Y-111669734D01*
X190173698Y-111598306D01*
X190030841Y-111526877D01*
X189602269Y-111526877D01*
X189459412Y-111598306D01*
X189387984Y-111669734D01*
X189316555Y-111812591D01*
X189316555Y-112026877D01*
X189387984Y-112169734D01*
X189459412Y-112241163D01*
X189602269Y-112312591D01*
X190030841Y-112312591D01*
X190173698Y-112241163D01*
X190245126Y-112169734D01*
X190316555Y-112026877D01*
X190316555Y-111812591D01*
X189316555Y-112955448D02*
X190316555Y-112955448D01*
X189459412Y-112955448D02*
X189387984Y-113026877D01*
X189316555Y-113169734D01*
X189316555Y-113384020D01*
X189387984Y-113526877D01*
X189530841Y-113598306D01*
X190316555Y-113598306D01*
X188816555Y-114384020D02*
X189102269Y-114241163D01*
X189316555Y-114812591D02*
X189316555Y-115384020D01*
X188816555Y-115026877D02*
X190102269Y-115026877D01*
X190245126Y-115098306D01*
X190316555Y-115241163D01*
X190316555Y-115384020D01*
X190245126Y-116955448D02*
X190316555Y-117098306D01*
X190316555Y-117384020D01*
X190245126Y-117526877D01*
X190102269Y-117598306D01*
X190030841Y-117598306D01*
X189887984Y-117526877D01*
X189816555Y-117384020D01*
X189816555Y-117169734D01*
X189745126Y-117026877D01*
X189602269Y-116955448D01*
X189530841Y-116955448D01*
X189387984Y-117026877D01*
X189316555Y-117169734D01*
X189316555Y-117384020D01*
X189387984Y-117526877D01*
X189316555Y-118026877D02*
X189316555Y-118598306D01*
X188816555Y-118241163D02*
X190102269Y-118241163D01*
X190245126Y-118312591D01*
X190316555Y-118455448D01*
X190316555Y-118598306D01*
X190316555Y-119098306D02*
X189316555Y-119098306D01*
X188816555Y-119098306D02*
X188887984Y-119026877D01*
X188959412Y-119098306D01*
X188887984Y-119169734D01*
X188816555Y-119098306D01*
X188959412Y-119098306D01*
X190245126Y-120455448D02*
X190316555Y-120312591D01*
X190316555Y-120026877D01*
X190245126Y-119884020D01*
X190173698Y-119812591D01*
X190030841Y-119741163D01*
X189602269Y-119741163D01*
X189459412Y-119812591D01*
X189387984Y-119884020D01*
X189316555Y-120026877D01*
X189316555Y-120312591D01*
X189387984Y-120455448D01*
X190316555Y-121098306D02*
X188816555Y-121098306D01*
X189745126Y-121241163D02*
X190316555Y-121669734D01*
X189316555Y-121669734D02*
X189887984Y-121098306D01*
X191731555Y-72455448D02*
X192731555Y-72455448D01*
X191731555Y-71812591D02*
X192517269Y-71812591D01*
X192660126Y-71884020D01*
X192731555Y-72026877D01*
X192731555Y-72241163D01*
X192660126Y-72384020D01*
X192588698Y-72455448D01*
X191731555Y-73169734D02*
X193231555Y-73169734D01*
X191802984Y-73169734D02*
X191731555Y-73312591D01*
X191731555Y-73598305D01*
X191802984Y-73741163D01*
X191874412Y-73812591D01*
X192017269Y-73884020D01*
X192445841Y-73884020D01*
X192588698Y-73812591D01*
X192660126Y-73741163D01*
X192731555Y-73598305D01*
X192731555Y-73312591D01*
X192660126Y-73169734D01*
X191731555Y-75455448D02*
X191731555Y-76026877D01*
X192731555Y-75669734D02*
X191445841Y-75669734D01*
X191302984Y-75741163D01*
X191231555Y-75884020D01*
X191231555Y-76026877D01*
X192731555Y-77169734D02*
X191945841Y-77169734D01*
X191802984Y-77098305D01*
X191731555Y-76955448D01*
X191731555Y-76669734D01*
X191802984Y-76526877D01*
X192660126Y-77169734D02*
X192731555Y-77026877D01*
X192731555Y-76669734D01*
X192660126Y-76526877D01*
X192517269Y-76455448D01*
X192374412Y-76455448D01*
X192231555Y-76526877D01*
X192160126Y-76669734D01*
X192160126Y-77026877D01*
X192088698Y-77169734D01*
X192731555Y-77884020D02*
X191731555Y-77884020D01*
X192017269Y-77884020D02*
X191874412Y-77955448D01*
X191802984Y-78026877D01*
X191731555Y-78169734D01*
X191731555Y-78312591D01*
X192660126Y-80526877D02*
X192731555Y-80384020D01*
X192731555Y-80098305D01*
X192660126Y-79955448D01*
X192517269Y-79884020D01*
X191945841Y-79884020D01*
X191802984Y-79955448D01*
X191731555Y-80098305D01*
X191731555Y-80384020D01*
X191802984Y-80526877D01*
X191945841Y-80598305D01*
X192088698Y-80598305D01*
X192231555Y-79884020D01*
X191731555Y-81241163D02*
X192731555Y-81241163D01*
X191874412Y-81241163D02*
X191802984Y-81312591D01*
X191731555Y-81455448D01*
X191731555Y-81669734D01*
X191802984Y-81812591D01*
X191945841Y-81884020D01*
X192731555Y-81884020D01*
X192731555Y-82812591D02*
X192660126Y-82669734D01*
X192588698Y-82598305D01*
X192445841Y-82526877D01*
X192017269Y-82526877D01*
X191874412Y-82598305D01*
X191802984Y-82669734D01*
X191731555Y-82812591D01*
X191731555Y-83026877D01*
X191802984Y-83169734D01*
X191874412Y-83241163D01*
X192017269Y-83312591D01*
X192445841Y-83312591D01*
X192588698Y-83241163D01*
X192660126Y-83169734D01*
X192731555Y-83026877D01*
X192731555Y-82812591D01*
X191731555Y-84598305D02*
X192731555Y-84598305D01*
X191731555Y-83955448D02*
X192517269Y-83955448D01*
X192660126Y-84026877D01*
X192731555Y-84169734D01*
X192731555Y-84384020D01*
X192660126Y-84526877D01*
X192588698Y-84598305D01*
X191731555Y-85955448D02*
X192945841Y-85955448D01*
X193088698Y-85884020D01*
X193160126Y-85812591D01*
X193231555Y-85669734D01*
X193231555Y-85455448D01*
X193160126Y-85312591D01*
X192660126Y-85955448D02*
X192731555Y-85812591D01*
X192731555Y-85526877D01*
X192660126Y-85384020D01*
X192588698Y-85312591D01*
X192445841Y-85241163D01*
X192017269Y-85241163D01*
X191874412Y-85312591D01*
X191802984Y-85384020D01*
X191731555Y-85526877D01*
X191731555Y-85812591D01*
X191802984Y-85955448D01*
X192731555Y-86669734D02*
X191231555Y-86669734D01*
X192731555Y-87312591D02*
X191945841Y-87312591D01*
X191802984Y-87241163D01*
X191731555Y-87098305D01*
X191731555Y-86884020D01*
X191802984Y-86741163D01*
X191874412Y-86669734D01*
X191731555Y-88955448D02*
X191731555Y-89526877D01*
X191231555Y-89169734D02*
X192517269Y-89169734D01*
X192660126Y-89241163D01*
X192731555Y-89384020D01*
X192731555Y-89526877D01*
X192731555Y-90241163D02*
X192660126Y-90098305D01*
X192588698Y-90026877D01*
X192445841Y-89955448D01*
X192017269Y-89955448D01*
X191874412Y-90026877D01*
X191802984Y-90098305D01*
X191731555Y-90241163D01*
X191731555Y-90455448D01*
X191802984Y-90598305D01*
X191874412Y-90669734D01*
X192017269Y-90741163D01*
X192445841Y-90741163D01*
X192588698Y-90669734D01*
X192660126Y-90598305D01*
X192731555Y-90455448D01*
X192731555Y-90241163D01*
X192731555Y-92526877D02*
X191731555Y-92526877D01*
X191231555Y-92526877D02*
X191302984Y-92455448D01*
X191374412Y-92526877D01*
X191302984Y-92598305D01*
X191231555Y-92526877D01*
X191374412Y-92526877D01*
X191731555Y-93241163D02*
X192731555Y-93241163D01*
X191874412Y-93241163D02*
X191802984Y-93312591D01*
X191731555Y-93455448D01*
X191731555Y-93669734D01*
X191802984Y-93812591D01*
X191945841Y-93884020D01*
X192731555Y-93884020D01*
X191731555Y-94384020D02*
X191731555Y-94955448D01*
X191231555Y-94598305D02*
X192517269Y-94598305D01*
X192660126Y-94669734D01*
X192731555Y-94812591D01*
X192731555Y-94955448D01*
X192660126Y-96026877D02*
X192731555Y-95884020D01*
X192731555Y-95598305D01*
X192660126Y-95455448D01*
X192517269Y-95384020D01*
X191945841Y-95384020D01*
X191802984Y-95455448D01*
X191731555Y-95598305D01*
X191731555Y-95884020D01*
X191802984Y-96026877D01*
X191945841Y-96098305D01*
X192088698Y-96098305D01*
X192231555Y-95384020D01*
X192731555Y-96741163D02*
X191731555Y-96741163D01*
X192017269Y-96741163D02*
X191874412Y-96812591D01*
X191802984Y-96884020D01*
X191731555Y-97026877D01*
X191731555Y-97169734D01*
X191731555Y-97455448D02*
X191731555Y-98026877D01*
X192731555Y-97669734D02*
X191445841Y-97669734D01*
X191302984Y-97741163D01*
X191231555Y-97884020D01*
X191231555Y-98026877D01*
X192660126Y-99098306D02*
X192731555Y-98955448D01*
X192731555Y-98669734D01*
X192660126Y-98526877D01*
X192517269Y-98455448D01*
X191945841Y-98455448D01*
X191802984Y-98526877D01*
X191731555Y-98669734D01*
X191731555Y-98955448D01*
X191802984Y-99098306D01*
X191945841Y-99169734D01*
X192088698Y-99169734D01*
X192231555Y-98455448D01*
X192731555Y-99812591D02*
X191731555Y-99812591D01*
X192017269Y-99812591D02*
X191874412Y-99884020D01*
X191802984Y-99955448D01*
X191731555Y-100098306D01*
X191731555Y-100241163D01*
X192660126Y-101312591D02*
X192731555Y-101169734D01*
X192731555Y-100884020D01*
X192660126Y-100741163D01*
X192517269Y-100669734D01*
X191945841Y-100669734D01*
X191802984Y-100741163D01*
X191731555Y-100884020D01*
X191731555Y-101169734D01*
X191802984Y-101312591D01*
X191945841Y-101384020D01*
X192088698Y-101384020D01*
X192231555Y-100669734D01*
X191731555Y-103026877D02*
X192731555Y-103312591D01*
X192017269Y-103598306D01*
X192731555Y-103884020D01*
X191731555Y-104169734D01*
X192731555Y-104741163D02*
X191731555Y-104741163D01*
X191231555Y-104741163D02*
X191302984Y-104669734D01*
X191374412Y-104741163D01*
X191302984Y-104812591D01*
X191231555Y-104741163D01*
X191374412Y-104741163D01*
X191731555Y-105241163D02*
X191731555Y-105812591D01*
X191231555Y-105455448D02*
X192517269Y-105455448D01*
X192660126Y-105526877D01*
X192731555Y-105669734D01*
X192731555Y-105812591D01*
X192731555Y-106312591D02*
X191231555Y-106312591D01*
X192731555Y-106955448D02*
X191945841Y-106955448D01*
X191802984Y-106884020D01*
X191731555Y-106741163D01*
X191731555Y-106526877D01*
X191802984Y-106384020D01*
X191874412Y-106312591D01*
X192660126Y-108741163D02*
X192731555Y-108884020D01*
X192731555Y-109169734D01*
X192660126Y-109312591D01*
X192517269Y-109384020D01*
X192445841Y-109384020D01*
X192302984Y-109312591D01*
X192231555Y-109169734D01*
X192231555Y-108955448D01*
X192160126Y-108812591D01*
X192017269Y-108741163D01*
X191945841Y-108741163D01*
X191802984Y-108812591D01*
X191731555Y-108955448D01*
X191731555Y-109169734D01*
X191802984Y-109312591D01*
X191731555Y-109812591D02*
X191731555Y-110384020D01*
X191231555Y-110026877D02*
X192517269Y-110026877D01*
X192660126Y-110098306D01*
X192731555Y-110241163D01*
X192731555Y-110384020D01*
X191731555Y-111526877D02*
X192731555Y-111526877D01*
X191731555Y-110884020D02*
X192517269Y-110884020D01*
X192660126Y-110955448D01*
X192731555Y-111098306D01*
X192731555Y-111312591D01*
X192660126Y-111455448D01*
X192588698Y-111526877D01*
X191731555Y-112026877D02*
X191731555Y-112598306D01*
X192731555Y-112241163D02*
X191445841Y-112241163D01*
X191302984Y-112312591D01*
X191231555Y-112455448D01*
X191231555Y-112598306D01*
X191731555Y-112884020D02*
X191731555Y-113455448D01*
X192731555Y-113098306D02*
X191445841Y-113098306D01*
X191302984Y-113169734D01*
X191231555Y-113312591D01*
X191231555Y-113455448D01*
X192588698Y-113955448D02*
X192660126Y-114026877D01*
X192731555Y-113955448D01*
X192660126Y-113884020D01*
X192588698Y-113955448D01*
X192731555Y-113955448D01*
X192588698Y-114669734D02*
X192660126Y-114741163D01*
X192731555Y-114669734D01*
X192660126Y-114598306D01*
X192588698Y-114669734D01*
X192731555Y-114669734D01*
X192588698Y-115384020D02*
X192660126Y-115455448D01*
X192731555Y-115384020D01*
X192660126Y-115312591D01*
X192588698Y-115384020D01*
X192731555Y-115384020D01*
X193302984Y-115955448D02*
X193231555Y-116026877D01*
X193017269Y-116169734D01*
X192874412Y-116241163D01*
X192660126Y-116312591D01*
X192302984Y-116384020D01*
X192017269Y-116384020D01*
X191660126Y-116312591D01*
X191445841Y-116241163D01*
X191302984Y-116169734D01*
X191088698Y-116026877D01*
X191017269Y-115955448D01*
D10*
X152428571Y-102830788D02*
X152476190Y-102783169D01*
X152571428Y-102640312D01*
X152619047Y-102545074D01*
X152666666Y-102402216D01*
X152714285Y-102164121D01*
X152714285Y-101973645D01*
X152666666Y-101735550D01*
X152619047Y-101592693D01*
X152571428Y-101497455D01*
X152476190Y-101354597D01*
X152428571Y-101306978D01*
X152142857Y-101783169D02*
X151904761Y-102449835D01*
X151666666Y-101783169D01*
X150761904Y-102449835D02*
X151333333Y-102449835D01*
X151047619Y-102449835D02*
X151047619Y-101449835D01*
X151142857Y-101592693D01*
X151238095Y-101687931D01*
X151333333Y-101735550D01*
X150333333Y-102354597D02*
X150285714Y-102402216D01*
X150333333Y-102449835D01*
X150380952Y-102402216D01*
X150333333Y-102354597D01*
X150333333Y-102449835D01*
X149666666Y-101449835D02*
X149571428Y-101449835D01*
X149476190Y-101497455D01*
X149428571Y-101545074D01*
X149380952Y-101640312D01*
X149333333Y-101830788D01*
X149333333Y-102068883D01*
X149380952Y-102259359D01*
X149428571Y-102354597D01*
X149476190Y-102402216D01*
X149571428Y-102449835D01*
X149666666Y-102449835D01*
X149761904Y-102402216D01*
X149809523Y-102354597D01*
X149857142Y-102259359D01*
X149904761Y-102068883D01*
X149904761Y-101830788D01*
X149857142Y-101640312D01*
X149809523Y-101545074D01*
X149761904Y-101497455D01*
X149666666Y-101449835D01*
X148904761Y-102354597D02*
X148857142Y-102402216D01*
X148904761Y-102449835D01*
X148952380Y-102402216D01*
X148904761Y-102354597D01*
X148904761Y-102449835D01*
X148238095Y-101449835D02*
X148142857Y-101449835D01*
X148047619Y-101497455D01*
X148000000Y-101545074D01*
X147952380Y-101640312D01*
X147904761Y-101830788D01*
X147904761Y-102068883D01*
X147952380Y-102259359D01*
X148000000Y-102354597D01*
X148047619Y-102402216D01*
X148142857Y-102449835D01*
X148238095Y-102449835D01*
X148333333Y-102402216D01*
X148380952Y-102354597D01*
X148428571Y-102259359D01*
X148476190Y-102068883D01*
X148476190Y-101830788D01*
X148428571Y-101640312D01*
X148380952Y-101545074D01*
X148333333Y-101497455D01*
X148238095Y-101449835D01*
X147571428Y-102830788D02*
X147523809Y-102783169D01*
X147428571Y-102640312D01*
X147380952Y-102545074D01*
X147333333Y-102402216D01*
X147285714Y-102164121D01*
X147285714Y-101973645D01*
X147333333Y-101735550D01*
X147380952Y-101592693D01*
X147428571Y-101497455D01*
X147523809Y-101354597D01*
X147571428Y-101306978D01*
D13*
%TO.C,REF\u002A\u002A*%
X151696951Y-117469803D02*
X151696951Y-116969803D01*
X151577903Y-116969803D01*
X151506474Y-116993613D01*
X151458855Y-117041232D01*
X151435046Y-117088851D01*
X151411236Y-117184089D01*
X151411236Y-117255517D01*
X151435046Y-117350755D01*
X151458855Y-117398374D01*
X151506474Y-117445993D01*
X151577903Y-117469803D01*
X151696951Y-117469803D01*
X150982665Y-117469803D02*
X150982665Y-117207898D01*
X151006474Y-117160279D01*
X151054093Y-117136470D01*
X151149331Y-117136470D01*
X151196951Y-117160279D01*
X150982665Y-117445993D02*
X151030284Y-117469803D01*
X151149331Y-117469803D01*
X151196951Y-117445993D01*
X151220760Y-117398374D01*
X151220760Y-117350755D01*
X151196951Y-117303136D01*
X151149331Y-117279327D01*
X151030284Y-117279327D01*
X150982665Y-117255517D01*
X150530284Y-117136470D02*
X150530284Y-117541232D01*
X150554093Y-117588851D01*
X150577903Y-117612660D01*
X150625522Y-117636470D01*
X150696951Y-117636470D01*
X150744570Y-117612660D01*
X150530284Y-117445993D02*
X150577903Y-117469803D01*
X150673141Y-117469803D01*
X150720760Y-117445993D01*
X150744570Y-117422184D01*
X150768379Y-117374565D01*
X150768379Y-117231708D01*
X150744570Y-117184089D01*
X150720760Y-117160279D01*
X150673141Y-117136470D01*
X150577903Y-117136470D01*
X150530284Y-117160279D01*
X150292189Y-117136470D02*
X150292189Y-117469803D01*
X150292189Y-117184089D02*
X150268379Y-117160279D01*
X150220760Y-117136470D01*
X150149331Y-117136470D01*
X150101712Y-117160279D01*
X150077903Y-117207898D01*
X150077903Y-117469803D01*
X149625522Y-117469803D02*
X149625522Y-117207898D01*
X149649331Y-117160279D01*
X149696951Y-117136470D01*
X149792189Y-117136470D01*
X149839808Y-117160279D01*
X149625522Y-117445993D02*
X149673141Y-117469803D01*
X149792189Y-117469803D01*
X149839808Y-117445993D01*
X149863617Y-117398374D01*
X149863617Y-117350755D01*
X149839808Y-117303136D01*
X149792189Y-117279327D01*
X149673141Y-117279327D01*
X149625522Y-117255517D01*
X149387427Y-117469803D02*
X149387427Y-116969803D01*
X149387427Y-117160279D02*
X149339808Y-117136470D01*
X149244570Y-117136470D01*
X149196951Y-117160279D01*
X149173141Y-117184089D01*
X149149331Y-117231708D01*
X149149331Y-117374565D01*
X149173141Y-117422184D01*
X149196951Y-117445993D01*
X149244570Y-117469803D01*
X149339808Y-117469803D01*
X149387427Y-117445993D01*
X148935046Y-117469803D02*
X148935046Y-116969803D01*
X148935046Y-117160279D02*
X148887427Y-117136470D01*
X148792189Y-117136470D01*
X148744570Y-117160279D01*
X148720760Y-117184089D01*
X148696951Y-117231708D01*
X148696951Y-117374565D01*
X148720760Y-117422184D01*
X148744570Y-117445993D01*
X148792189Y-117469803D01*
X148887427Y-117469803D01*
X148935046Y-117445993D01*
X148482665Y-117469803D02*
X148482665Y-117136470D01*
X148482665Y-116969803D02*
X148506474Y-116993613D01*
X148482665Y-117017422D01*
X148458855Y-116993613D01*
X148482665Y-116969803D01*
X148482665Y-117017422D01*
X148315998Y-117136470D02*
X148125522Y-117136470D01*
X148244570Y-116969803D02*
X148244570Y-117398374D01*
X148220760Y-117445993D01*
X148173141Y-117469803D01*
X148125522Y-117469803D01*
X151089808Y-118274803D02*
X151256474Y-118036708D01*
X151375522Y-118274803D02*
X151375522Y-117774803D01*
X151185046Y-117774803D01*
X151137427Y-117798613D01*
X151113617Y-117822422D01*
X151089808Y-117870041D01*
X151089808Y-117941470D01*
X151113617Y-117989089D01*
X151137427Y-118012898D01*
X151185046Y-118036708D01*
X151375522Y-118036708D01*
X150661236Y-118274803D02*
X150661236Y-118012898D01*
X150685046Y-117965279D01*
X150732665Y-117941470D01*
X150827903Y-117941470D01*
X150875522Y-117965279D01*
X150661236Y-118250993D02*
X150708855Y-118274803D01*
X150827903Y-118274803D01*
X150875522Y-118250993D01*
X150899331Y-118203374D01*
X150899331Y-118155755D01*
X150875522Y-118108136D01*
X150827903Y-118084327D01*
X150708855Y-118084327D01*
X150661236Y-118060517D01*
X150423141Y-118274803D02*
X150423141Y-117774803D01*
X150423141Y-117965279D02*
X150375522Y-117941470D01*
X150280284Y-117941470D01*
X150232665Y-117965279D01*
X150208855Y-117989089D01*
X150185046Y-118036708D01*
X150185046Y-118179565D01*
X150208855Y-118227184D01*
X150232665Y-118250993D01*
X150280284Y-118274803D01*
X150375522Y-118274803D01*
X150423141Y-118250993D01*
X149970760Y-118274803D02*
X149970760Y-117774803D01*
X149970760Y-117965279D02*
X149923141Y-117941470D01*
X149827903Y-117941470D01*
X149780284Y-117965279D01*
X149756474Y-117989089D01*
X149732665Y-118036708D01*
X149732665Y-118179565D01*
X149756474Y-118227184D01*
X149780284Y-118250993D01*
X149827903Y-118274803D01*
X149923141Y-118274803D01*
X149970760Y-118250993D01*
X149518379Y-118274803D02*
X149518379Y-117941470D01*
X149518379Y-117774803D02*
X149542189Y-117798613D01*
X149518379Y-117822422D01*
X149494570Y-117798613D01*
X149518379Y-117774803D01*
X149518379Y-117822422D01*
X149351712Y-117941470D02*
X149161236Y-117941470D01*
X149280284Y-117774803D02*
X149280284Y-118203374D01*
X149256474Y-118250993D01*
X149208855Y-118274803D01*
X149161236Y-118274803D01*
X148994570Y-118227184D02*
X148970760Y-118250993D01*
X148994570Y-118274803D01*
X149018379Y-118250993D01*
X148994570Y-118227184D01*
X148994570Y-118274803D01*
X148994570Y-118084327D02*
X149018379Y-117798613D01*
X148994570Y-117774803D01*
X148970760Y-117798613D01*
X148994570Y-118084327D01*
X148994570Y-117774803D01*
X148756474Y-118227184D02*
X148732665Y-118250993D01*
X148756474Y-118274803D01*
X148780284Y-118250993D01*
X148756474Y-118227184D01*
X148756474Y-118274803D01*
X148756474Y-118084327D02*
X148780284Y-117798613D01*
X148756474Y-117774803D01*
X148732665Y-117798613D01*
X148756474Y-118084327D01*
X148756474Y-117774803D01*
X148518379Y-118227184D02*
X148494570Y-118250993D01*
X148518379Y-118274803D01*
X148542189Y-118250993D01*
X148518379Y-118227184D01*
X148518379Y-118274803D01*
X148518379Y-118084327D02*
X148542189Y-117798613D01*
X148518379Y-117774803D01*
X148494570Y-117798613D01*
X148518379Y-118084327D01*
X148518379Y-117774803D01*
G36*
X150378064Y-113924611D02*
G01*
X150429557Y-113929968D01*
X150470323Y-113939864D01*
X150518028Y-113962506D01*
X150571256Y-114003967D01*
X150615708Y-114059025D01*
X150650710Y-114126978D01*
X150653000Y-114132864D01*
X150664874Y-114168979D01*
X150677871Y-114215819D01*
X150690875Y-114268642D01*
X150702767Y-114322707D01*
X150712430Y-114373275D01*
X150718746Y-114415604D01*
X150719206Y-114419556D01*
X150721718Y-114444938D01*
X150720905Y-114457914D01*
X150715641Y-114462181D01*
X150704803Y-114461437D01*
X150697224Y-114459421D01*
X150690729Y-114453905D01*
X150685009Y-114442379D01*
X150679131Y-114422245D01*
X150672159Y-114390905D01*
X150663158Y-114345762D01*
X150658801Y-114323930D01*
X150639879Y-114240766D01*
X150619633Y-114172119D01*
X150597104Y-114116251D01*
X150571335Y-114071421D01*
X150541368Y-114035890D01*
X150506246Y-114007918D01*
X150465012Y-113985766D01*
X150421702Y-113972465D01*
X150366569Y-113965585D01*
X150306566Y-113966163D01*
X150246951Y-113974472D01*
X150236508Y-113976673D01*
X150197048Y-113984271D01*
X150170854Y-113987435D01*
X150155584Y-113986035D01*
X150148898Y-113979943D01*
X150148455Y-113969029D01*
X150148791Y-113967027D01*
X150153048Y-113957673D01*
X150163745Y-113950375D01*
X150184213Y-113943521D01*
X150217784Y-113935501D01*
X150264247Y-113927881D01*
X150321182Y-113923885D01*
X150378064Y-113924611D01*
G37*
G36*
X148258214Y-115178721D02*
G01*
X148237392Y-115211755D01*
X148213372Y-115239672D01*
X148186159Y-115264397D01*
X148180954Y-115269126D01*
X148173149Y-115275648D01*
X148142538Y-115299959D01*
X148113682Y-115321180D01*
X148091937Y-115335327D01*
X148059451Y-115353708D01*
X148153201Y-115354077D01*
X148194396Y-115354555D01*
X148223173Y-115355975D01*
X148242034Y-115358857D01*
X148254381Y-115363728D01*
X148263617Y-115371113D01*
X148276654Y-115389354D01*
X148279170Y-115412444D01*
X148267597Y-115439235D01*
X148257452Y-115451827D01*
X148241524Y-115471598D01*
X148240868Y-115472300D01*
X148222124Y-115493325D01*
X148209649Y-115509146D01*
X148206113Y-115516386D01*
X148210167Y-115517672D01*
X148228211Y-115521490D01*
X148258041Y-115527062D01*
X148296815Y-115533865D01*
X148341691Y-115541374D01*
X148370447Y-115546172D01*
X148412691Y-115553586D01*
X148447455Y-115560137D01*
X148471744Y-115565251D01*
X148482562Y-115568354D01*
X148483599Y-115568914D01*
X148498796Y-115573302D01*
X148521161Y-115576734D01*
X148526802Y-115577404D01*
X148554379Y-115582123D01*
X148589425Y-115589584D01*
X148627973Y-115598770D01*
X148666058Y-115608663D01*
X148699716Y-115618243D01*
X148724982Y-115626493D01*
X148737889Y-115632394D01*
X148744054Y-115636403D01*
X148745783Y-115633613D01*
X148738048Y-115616719D01*
X148723446Y-115581996D01*
X148711999Y-115548751D01*
X148701784Y-115511006D01*
X148690880Y-115462779D01*
X148690067Y-115458923D01*
X148679530Y-115394692D01*
X148671588Y-115318822D01*
X148666370Y-115235852D01*
X148664009Y-115150316D01*
X148664009Y-115150279D01*
X148743075Y-115150279D01*
X148743279Y-115194666D01*
X148744572Y-115266274D01*
X148747460Y-115326573D01*
X148752425Y-115379033D01*
X148759948Y-115427123D01*
X148770511Y-115474314D01*
X148784594Y-115524076D01*
X148802681Y-115579877D01*
X148804260Y-115584555D01*
X148815304Y-115616195D01*
X148824059Y-115636039D01*
X148833228Y-115647664D01*
X148845513Y-115654649D01*
X148863617Y-115660573D01*
X148868300Y-115661999D01*
X148893696Y-115669973D01*
X148929662Y-115681488D01*
X148972095Y-115695224D01*
X149016896Y-115709863D01*
X149026260Y-115712958D01*
X149073215Y-115729007D01*
X149118551Y-115745275D01*
X149157509Y-115760023D01*
X149185328Y-115771506D01*
X149237982Y-115795130D01*
X149271591Y-115752919D01*
X149286732Y-115731827D01*
X149303867Y-115702418D01*
X149314037Y-115677889D01*
X149315673Y-115671891D01*
X149322419Y-115648573D01*
X149327471Y-115633091D01*
X149327204Y-115626164D01*
X149316688Y-115622205D01*
X149292576Y-115621113D01*
X149290300Y-115621107D01*
X149264304Y-115618980D01*
X149245572Y-115610518D01*
X149225689Y-115592063D01*
X149200090Y-115560089D01*
X149174899Y-115513229D01*
X149155750Y-115455637D01*
X149141528Y-115384567D01*
X149139281Y-115369124D01*
X149133670Y-115298835D01*
X149255451Y-115298835D01*
X149256502Y-115327236D01*
X149260619Y-115369382D01*
X149267113Y-115411521D01*
X149275193Y-115449494D01*
X149284069Y-115479139D01*
X149292951Y-115496297D01*
X149311816Y-115509787D01*
X149335926Y-115511099D01*
X149360903Y-115497929D01*
X149385115Y-115471200D01*
X149406929Y-115431835D01*
X149407135Y-115431368D01*
X149415761Y-115408867D01*
X149420161Y-115387187D01*
X149420965Y-115360554D01*
X149418804Y-115323192D01*
X149416095Y-115295047D01*
X149407337Y-115246422D01*
X149394076Y-115212970D01*
X149375747Y-115193950D01*
X149351784Y-115188623D01*
X149321620Y-115196249D01*
X149316774Y-115198368D01*
X149282910Y-115222180D01*
X149262306Y-115255922D01*
X149255451Y-115298835D01*
X149133670Y-115298835D01*
X149132592Y-115285338D01*
X149137248Y-115212760D01*
X149153513Y-115150290D01*
X149181652Y-115096833D01*
X149221929Y-115051290D01*
X149261664Y-115024938D01*
X149304813Y-115013800D01*
X149348552Y-115018480D01*
X149390537Y-115039146D01*
X149416054Y-115057316D01*
X149410132Y-114995464D01*
X149406181Y-114960111D01*
X149390079Y-114863698D01*
X149367014Y-114769009D01*
X149338296Y-114680931D01*
X149305238Y-114604354D01*
X149274036Y-114548479D01*
X149231066Y-114489246D01*
X149185816Y-114445456D01*
X149138726Y-114417356D01*
X149090235Y-114405188D01*
X149040784Y-114409198D01*
X148990811Y-114429630D01*
X148985957Y-114432500D01*
X148938045Y-114470682D01*
X148893553Y-114524417D01*
X148852881Y-114592931D01*
X148816428Y-114675455D01*
X148784594Y-114771217D01*
X148757778Y-114879446D01*
X148756203Y-114887128D01*
X148751469Y-114914804D01*
X148747955Y-114945249D01*
X148745510Y-114981240D01*
X148743982Y-115025557D01*
X148743221Y-115080977D01*
X148743075Y-115150279D01*
X148664009Y-115150279D01*
X148664633Y-115066752D01*
X148668374Y-114989695D01*
X148675363Y-114923683D01*
X148676361Y-114916963D01*
X148699851Y-114792667D01*
X148730990Y-114682341D01*
X148770177Y-114584992D01*
X148817806Y-114499626D01*
X148874276Y-114425250D01*
X148883094Y-114415635D01*
X148935010Y-114371990D01*
X148991789Y-114343351D01*
X149051412Y-114329718D01*
X149111859Y-114331092D01*
X149171112Y-114347472D01*
X149227152Y-114378858D01*
X149277959Y-114425250D01*
X149295930Y-114446575D01*
X149354507Y-114532205D01*
X149402595Y-114630548D01*
X149440122Y-114741356D01*
X149467016Y-114864383D01*
X149483205Y-114999384D01*
X149485342Y-115057316D01*
X149488617Y-115146113D01*
X149488502Y-115168190D01*
X149481543Y-115312500D01*
X149475165Y-115360554D01*
X149463896Y-115445453D01*
X149435660Y-115566611D01*
X149396933Y-115675536D01*
X149347814Y-115771791D01*
X149315472Y-115825279D01*
X149330426Y-115833148D01*
X149372652Y-115855368D01*
X149373178Y-115855645D01*
X149405982Y-115874042D01*
X149437211Y-115893386D01*
X149460171Y-115909535D01*
X149468513Y-115916079D01*
X149489275Y-115931772D01*
X149503807Y-115941946D01*
X149527828Y-115957294D01*
X149590040Y-116000762D01*
X149627431Y-116031422D01*
X149643460Y-116044566D01*
X149651968Y-116052196D01*
X149672453Y-116071856D01*
X149683431Y-116086504D01*
X149684264Y-116089386D01*
X149687460Y-116100444D01*
X149687096Y-116117978D01*
X149683264Y-116136128D01*
X149672173Y-116151766D01*
X149657264Y-116154222D01*
X149641680Y-116141844D01*
X149637582Y-116137234D01*
X149630566Y-116134072D01*
X149618955Y-116134407D01*
X149599957Y-116138715D01*
X149570779Y-116147473D01*
X149528629Y-116161159D01*
X149489810Y-116173731D01*
X149437892Y-116190086D01*
X149387974Y-116205377D01*
X149346951Y-116217466D01*
X149322878Y-116224493D01*
X149264653Y-116243002D01*
X149205699Y-116264158D01*
X149142551Y-116289314D01*
X149071745Y-116319824D01*
X148989817Y-116357042D01*
X148965993Y-116368236D01*
X148917329Y-116391916D01*
X148865048Y-116418226D01*
X148811210Y-116446046D01*
X148757872Y-116474256D01*
X148707092Y-116501735D01*
X148660930Y-116527364D01*
X148621443Y-116550023D01*
X148590690Y-116568590D01*
X148570729Y-116581947D01*
X148563617Y-116588974D01*
X148564020Y-116592842D01*
X148571600Y-116613110D01*
X148586144Y-116638518D01*
X148604177Y-116663519D01*
X148622225Y-116682564D01*
X148637088Y-116694195D01*
X148653218Y-116703330D01*
X148659808Y-116701447D01*
X148655577Y-116688327D01*
X148653174Y-116683326D01*
X148648422Y-116655385D01*
X148656347Y-116630005D01*
X148674589Y-116611566D01*
X148700786Y-116604446D01*
X148704596Y-116604791D01*
X148726103Y-116614513D01*
X148752344Y-116635609D01*
X148780694Y-116665386D01*
X148808524Y-116701149D01*
X148833206Y-116740205D01*
X148864817Y-116796798D01*
X148882967Y-116770138D01*
X148901996Y-116745711D01*
X148927991Y-116724637D01*
X148960502Y-116712399D01*
X149004392Y-116706444D01*
X149063357Y-116702225D01*
X149096821Y-116735688D01*
X149110587Y-116750841D01*
X149127511Y-116779842D01*
X149128478Y-116805801D01*
X149113617Y-116829446D01*
X149091961Y-116843092D01*
X149064253Y-116843624D01*
X149034985Y-116828377D01*
X149024587Y-116820859D01*
X149008949Y-116815301D01*
X148992072Y-116819921D01*
X148976929Y-116830634D01*
X148962157Y-116850156D01*
X148957240Y-116859268D01*
X148948073Y-116867007D01*
X148931918Y-116870376D01*
X148903947Y-116871113D01*
X148875379Y-116869908D01*
X148853653Y-116864802D01*
X148838617Y-116854446D01*
X148827210Y-116841767D01*
X148821951Y-116833113D01*
X148819755Y-116828350D01*
X148809922Y-116813202D01*
X148794867Y-116792338D01*
X148784709Y-116778712D01*
X148768219Y-116756256D01*
X148757155Y-116740755D01*
X148753443Y-116735926D01*
X148749743Y-116735454D01*
X148749213Y-116746992D01*
X148751453Y-116772784D01*
X148756381Y-116820289D01*
X148703749Y-116822784D01*
X148672219Y-116822272D01*
X148614797Y-116809663D01*
X148564193Y-116782245D01*
X148521477Y-116740696D01*
X148487718Y-116685696D01*
X148480177Y-116670693D01*
X148469515Y-116653007D01*
X148462639Y-116646113D01*
X148461797Y-116646191D01*
X148447887Y-116651943D01*
X148421978Y-116666155D01*
X148385571Y-116687907D01*
X148340170Y-116716282D01*
X148287279Y-116750361D01*
X148228400Y-116789226D01*
X148225245Y-116791330D01*
X148180203Y-116821021D01*
X148146187Y-116842454D01*
X148120752Y-116856905D01*
X148101456Y-116865648D01*
X148085857Y-116869959D01*
X148071511Y-116871113D01*
X148037339Y-116871113D01*
X148060895Y-116851437D01*
X148073286Y-116841984D01*
X148098965Y-116823777D01*
X148133747Y-116799885D01*
X148174914Y-116772106D01*
X148219753Y-116742235D01*
X148265548Y-116712070D01*
X148309582Y-116683408D01*
X148349142Y-116658046D01*
X148381510Y-116637781D01*
X148403973Y-116624409D01*
X148422755Y-116612777D01*
X148438701Y-116600099D01*
X148443499Y-116591946D01*
X148441820Y-116586476D01*
X148436752Y-116566975D01*
X148429587Y-116537627D01*
X148421298Y-116502363D01*
X148415595Y-116478919D01*
X148407336Y-116449109D01*
X148400372Y-116428688D01*
X148395787Y-116421113D01*
X148395055Y-116421237D01*
X148386499Y-116429446D01*
X148375888Y-116446556D01*
X148353126Y-116480108D01*
X148324922Y-116500274D01*
X148292575Y-116504326D01*
X148255976Y-116492304D01*
X148249433Y-116488273D01*
X148234407Y-116472441D01*
X148221421Y-116447256D01*
X148209841Y-116410891D01*
X148199036Y-116361519D01*
X148188371Y-116297315D01*
X148187782Y-116293392D01*
X148181775Y-116254574D01*
X148176505Y-116222587D01*
X148172522Y-116200653D01*
X148170375Y-116191993D01*
X148170305Y-116191946D01*
X148160683Y-116193003D01*
X148137255Y-116197792D01*
X148102219Y-116205757D01*
X148057772Y-116216338D01*
X148006112Y-116228980D01*
X147949439Y-116243125D01*
X147889948Y-116258215D01*
X147829840Y-116273693D01*
X147771311Y-116289002D01*
X147716560Y-116303584D01*
X147667784Y-116316882D01*
X147627182Y-116328339D01*
X147596951Y-116337398D01*
X147544529Y-116354425D01*
X147443587Y-116389410D01*
X147339330Y-116428014D01*
X147238278Y-116467788D01*
X147146951Y-116506287D01*
X147137147Y-116510619D01*
X147070960Y-116540870D01*
X146997731Y-116575807D01*
X146920240Y-116613988D01*
X146841267Y-116653972D01*
X146763592Y-116694319D01*
X146689994Y-116733587D01*
X146623255Y-116770336D01*
X146566153Y-116803124D01*
X146521468Y-116830511D01*
X146514583Y-116834926D01*
X146483699Y-116853593D01*
X146460434Y-116864554D01*
X146439923Y-116869697D01*
X146417301Y-116870909D01*
X146376117Y-116870705D01*
X146459451Y-116816539D01*
X146463992Y-116813607D01*
X146508045Y-116786491D01*
X146564057Y-116753823D01*
X146629306Y-116717096D01*
X146701074Y-116677800D01*
X146776643Y-116637427D01*
X146853292Y-116597468D01*
X146928303Y-116559415D01*
X147004024Y-116522590D01*
X147200235Y-116435585D01*
X147402482Y-116357209D01*
X147605815Y-116289300D01*
X147805284Y-116233698D01*
X147821565Y-116229635D01*
X147866434Y-116218399D01*
X147906815Y-116208233D01*
X147938812Y-116200119D01*
X147958530Y-116195042D01*
X147990942Y-116186511D01*
X147969424Y-116173425D01*
X148284253Y-116173425D01*
X148285040Y-116184216D01*
X148287443Y-116206428D01*
X148290924Y-116235745D01*
X148294946Y-116267852D01*
X148298970Y-116298437D01*
X148302458Y-116323184D01*
X148304872Y-116337779D01*
X148305323Y-116337657D01*
X148310214Y-116328232D01*
X148319239Y-116307716D01*
X148330907Y-116279446D01*
X148336919Y-116264866D01*
X148353033Y-116231004D01*
X148367990Y-116209938D01*
X148383976Y-116199149D01*
X148403180Y-116196113D01*
X148406029Y-116196292D01*
X148426983Y-116205413D01*
X148448991Y-116225204D01*
X148468047Y-116251328D01*
X148480144Y-116279446D01*
X148485187Y-116298817D01*
X148498461Y-116351544D01*
X148511270Y-116404610D01*
X148522312Y-116452540D01*
X148530281Y-116489863D01*
X148535069Y-116510998D01*
X148540982Y-116530325D01*
X148545514Y-116537779D01*
X148553364Y-116534515D01*
X148572965Y-116524485D01*
X148601051Y-116509307D01*
X148634507Y-116490633D01*
X148673494Y-116469201D01*
X148726258Y-116441403D01*
X148786345Y-116410678D01*
X148850996Y-116378363D01*
X148917452Y-116345795D01*
X148982956Y-116314313D01*
X149044749Y-116285253D01*
X149100074Y-116259952D01*
X149146172Y-116239749D01*
X149180284Y-116225981D01*
X149219756Y-116211999D01*
X149269132Y-116195522D01*
X149321967Y-116178658D01*
X149371951Y-116163465D01*
X149376765Y-116162047D01*
X149449024Y-116140323D01*
X149505594Y-116122370D01*
X149546948Y-116108013D01*
X149573560Y-116097077D01*
X149585902Y-116089386D01*
X149584449Y-116084765D01*
X149583692Y-116084518D01*
X149568308Y-116082619D01*
X149539068Y-116081206D01*
X149498489Y-116080265D01*
X149449090Y-116079780D01*
X149393387Y-116079736D01*
X149333898Y-116080118D01*
X149273141Y-116080911D01*
X149213634Y-116082099D01*
X149157893Y-116083668D01*
X149108437Y-116085602D01*
X149067784Y-116087885D01*
X149039299Y-116089875D01*
X148921707Y-116098530D01*
X148817105Y-116107051D01*
X148722495Y-116115728D01*
X148634880Y-116124848D01*
X148551263Y-116134700D01*
X148468647Y-116145573D01*
X148443905Y-116149008D01*
X148393261Y-116156163D01*
X148349598Y-116162498D01*
X148315298Y-116167657D01*
X148292746Y-116171285D01*
X148284325Y-116173027D01*
X148284253Y-116173425D01*
X147969424Y-116173425D01*
X147966199Y-116171464D01*
X147952331Y-116161645D01*
X147951263Y-116160427D01*
X148084691Y-116160427D01*
X148094574Y-116161926D01*
X148113727Y-116159386D01*
X148137140Y-116154425D01*
X148157698Y-116148716D01*
X148168592Y-116143915D01*
X148168759Y-116143698D01*
X148170392Y-116132841D01*
X148170930Y-116110265D01*
X148170253Y-116080542D01*
X148167784Y-116021297D01*
X148133335Y-116073288D01*
X148132258Y-116074915D01*
X148113995Y-116103103D01*
X148098595Y-116127873D01*
X148089292Y-116144029D01*
X148085844Y-116151211D01*
X148084691Y-116160427D01*
X147951263Y-116160427D01*
X147938199Y-116145530D01*
X147928991Y-116123796D01*
X147924053Y-116093720D01*
X147922731Y-116052581D01*
X147923545Y-116025279D01*
X148029099Y-116025279D01*
X148058422Y-115979446D01*
X148072042Y-115958381D01*
X148094204Y-115924744D01*
X148113505Y-115896113D01*
X148122630Y-115882661D01*
X148142309Y-115853162D01*
X148165607Y-115817834D01*
X148189219Y-115781673D01*
X148206320Y-115756204D01*
X148227061Y-115727578D01*
X148244144Y-115706490D01*
X148255015Y-115696257D01*
X148268421Y-115690657D01*
X148297202Y-115689879D01*
X148322750Y-115705245D01*
X148331341Y-115716742D01*
X148336546Y-115735874D01*
X148334786Y-115762105D01*
X148325821Y-115797997D01*
X148309406Y-115846113D01*
X148300407Y-115872411D01*
X148292980Y-115900680D01*
X148287967Y-115931375D01*
X148284620Y-115969242D01*
X148282192Y-116019029D01*
X148281993Y-116024234D01*
X148280617Y-116068427D01*
X148280524Y-116098579D01*
X148281376Y-116110265D01*
X148281871Y-116117049D01*
X148284817Y-116126193D01*
X148289519Y-116128367D01*
X148290463Y-116128266D01*
X148304671Y-116126411D01*
X148332198Y-116122634D01*
X148370352Y-116117309D01*
X148416444Y-116110811D01*
X148467784Y-116103516D01*
X148601623Y-116085931D01*
X148857785Y-116060095D01*
X149115577Y-116043878D01*
X149367784Y-116037806D01*
X149428000Y-116037546D01*
X149477959Y-116037111D01*
X149514455Y-116036400D01*
X149539142Y-116035294D01*
X149553679Y-116033674D01*
X149559720Y-116031422D01*
X149558924Y-116028419D01*
X149552947Y-116024546D01*
X149543931Y-116019232D01*
X149520942Y-116004514D01*
X149491134Y-115984597D01*
X149458676Y-115962237D01*
X149441946Y-115950768D01*
X149403829Y-115925973D01*
X149366986Y-115903534D01*
X149337493Y-115887211D01*
X149287411Y-115861930D01*
X149253760Y-115892331D01*
X149218654Y-115919703D01*
X149161240Y-115948868D01*
X149101214Y-115962619D01*
X149040495Y-115961088D01*
X148981003Y-115944408D01*
X148924656Y-115912711D01*
X148873372Y-115866129D01*
X148852581Y-115840950D01*
X148825924Y-115804516D01*
X148804466Y-115770832D01*
X148789657Y-115744864D01*
X148773763Y-115717072D01*
X148767802Y-115706699D01*
X148856021Y-115706699D01*
X148867653Y-115729191D01*
X148887356Y-115761175D01*
X148919589Y-115801324D01*
X148955761Y-115836958D01*
X148990811Y-115862595D01*
X149018937Y-115876431D01*
X149066175Y-115887937D01*
X149112935Y-115883304D01*
X149161534Y-115862532D01*
X149181417Y-115850658D01*
X149198652Y-115839217D01*
X149205284Y-115833148D01*
X149205109Y-115832518D01*
X149195505Y-115825613D01*
X149173187Y-115814795D01*
X149140893Y-115801111D01*
X149101362Y-115785605D01*
X149057335Y-115769326D01*
X149011551Y-115753320D01*
X148966748Y-115738633D01*
X148925665Y-115726313D01*
X148856021Y-115706699D01*
X148767802Y-115706699D01*
X148762406Y-115697309D01*
X148758034Y-115690589D01*
X148745019Y-115678279D01*
X148724339Y-115668500D01*
X148691573Y-115658850D01*
X148668758Y-115653024D01*
X148621932Y-115641353D01*
X148575813Y-115630183D01*
X148534260Y-115620430D01*
X148501131Y-115613005D01*
X148480284Y-115608823D01*
X148475236Y-115607973D01*
X148453648Y-115604325D01*
X148420667Y-115598746D01*
X148379774Y-115591825D01*
X148334451Y-115584151D01*
X148313395Y-115580626D01*
X148270072Y-115573646D01*
X148232981Y-115568025D01*
X148205516Y-115564269D01*
X148191073Y-115562880D01*
X148186408Y-115563404D01*
X148173695Y-115570771D01*
X148158612Y-115588688D01*
X148138993Y-115619508D01*
X148103088Y-115687800D01*
X148071031Y-115771716D01*
X148048505Y-115863609D01*
X148034467Y-115966946D01*
X148029099Y-116025279D01*
X147923545Y-116025279D01*
X147924368Y-115997657D01*
X147924916Y-115986657D01*
X147935113Y-115879877D01*
X147954386Y-115782713D01*
X147983909Y-115690496D01*
X148024859Y-115598559D01*
X148055128Y-115538505D01*
X148028123Y-115533822D01*
X148024047Y-115533141D01*
X147984945Y-115528083D01*
X147934000Y-115523342D01*
X147875470Y-115519186D01*
X147813614Y-115515884D01*
X147752688Y-115513705D01*
X147696951Y-115512917D01*
X147604532Y-115515382D01*
X147440643Y-115531795D01*
X147273441Y-115563805D01*
X147271958Y-115564154D01*
X147221737Y-115575324D01*
X147186122Y-115581745D01*
X147163831Y-115583602D01*
X147153585Y-115581080D01*
X147149354Y-115576079D01*
X147147041Y-115565722D01*
X147155731Y-115555906D01*
X147176795Y-115545884D01*
X147211605Y-115534909D01*
X147261530Y-115522234D01*
X147283228Y-115517216D01*
X147416828Y-115492110D01*
X147550291Y-115476489D01*
X147579545Y-115475252D01*
X147948070Y-115475252D01*
X147951117Y-115479226D01*
X147960639Y-115481830D01*
X147984905Y-115486261D01*
X148013945Y-115489942D01*
X148030448Y-115491373D01*
X148051950Y-115491151D01*
X148066329Y-115485921D01*
X148079655Y-115474234D01*
X148087211Y-115465529D01*
X148093867Y-115451827D01*
X148087799Y-115446858D01*
X148069855Y-115452505D01*
X148052965Y-115457790D01*
X148025091Y-115463215D01*
X147992784Y-115467407D01*
X147990777Y-115467606D01*
X147961213Y-115471400D01*
X147948070Y-115475252D01*
X147579545Y-115475252D01*
X147677428Y-115471113D01*
X147779236Y-115471113D01*
X147774539Y-115442167D01*
X147773654Y-115435995D01*
X147774077Y-115418466D01*
X147782063Y-115402786D01*
X147800292Y-115382771D01*
X147830742Y-115352321D01*
X147813847Y-115317419D01*
X147812435Y-115314451D01*
X147800949Y-115283904D01*
X147796912Y-115259223D01*
X147800411Y-115243377D01*
X147811534Y-115239337D01*
X147820741Y-115244578D01*
X147828701Y-115260176D01*
X147829533Y-115264788D01*
X147837891Y-115283310D01*
X147850297Y-115290667D01*
X147863069Y-115284273D01*
X147865675Y-115280724D01*
X147867061Y-115269469D01*
X147855842Y-115255003D01*
X147841443Y-115236860D01*
X147840919Y-115225163D01*
X147854812Y-115221113D01*
X147859771Y-115221757D01*
X147877255Y-115232575D01*
X147891234Y-115252125D01*
X147896951Y-115274394D01*
X147896740Y-115277730D01*
X147889001Y-115297457D01*
X147874138Y-115314105D01*
X147857667Y-115321113D01*
X147852752Y-115322105D01*
X147851102Y-115329421D01*
X147851950Y-115330377D01*
X147863014Y-115330610D01*
X147880358Y-115323591D01*
X147898598Y-115312506D01*
X147912348Y-115300542D01*
X147916224Y-115290884D01*
X147916444Y-115287484D01*
X147949468Y-115287484D01*
X147954910Y-115284849D01*
X147969227Y-115277067D01*
X147975478Y-115273318D01*
X147982468Y-115264397D01*
X147976405Y-115252039D01*
X147968990Y-115243650D01*
X147963315Y-115246032D01*
X147956646Y-115262456D01*
X147956018Y-115264268D01*
X147950729Y-115280839D01*
X147949468Y-115287484D01*
X147916444Y-115287484D01*
X147916999Y-115278900D01*
X147925200Y-115261182D01*
X147932359Y-115244387D01*
X147932924Y-115230344D01*
X147995588Y-115230344D01*
X148000418Y-115239660D01*
X148005441Y-115245581D01*
X148013378Y-115248438D01*
X148025980Y-115243525D01*
X148047722Y-115229918D01*
X148058105Y-115222849D01*
X148089474Y-115199555D01*
X148117784Y-115176266D01*
X148151117Y-115146738D01*
X148115287Y-115146425D01*
X148109361Y-115146213D01*
X148079270Y-115141588D01*
X148053913Y-115132903D01*
X148039047Y-115126380D01*
X148024761Y-115126302D01*
X148015689Y-115138742D01*
X148014315Y-115144295D01*
X148009001Y-115165773D01*
X148007511Y-115174066D01*
X148005922Y-115190001D01*
X148010387Y-115194638D01*
X148022936Y-115191764D01*
X148036716Y-115185448D01*
X148049448Y-115174188D01*
X148050355Y-115172763D01*
X148062144Y-115164084D01*
X148074540Y-115164352D01*
X148080284Y-115173686D01*
X148075095Y-115191360D01*
X148055827Y-115208642D01*
X148024647Y-115219128D01*
X148018780Y-115220191D01*
X148000716Y-115224696D01*
X147995588Y-115230344D01*
X147932924Y-115230344D01*
X147933216Y-115223089D01*
X147932521Y-115220616D01*
X147924644Y-115209039D01*
X147908500Y-115209596D01*
X147907660Y-115209803D01*
X147892796Y-115210422D01*
X147888617Y-115200921D01*
X147890137Y-115193900D01*
X147901417Y-115182345D01*
X147907625Y-115179332D01*
X147909572Y-115172381D01*
X147901417Y-115157899D01*
X147897116Y-115149225D01*
X147937591Y-115149225D01*
X147940626Y-115159575D01*
X147952727Y-115178443D01*
X147956170Y-115183515D01*
X147970043Y-115203299D01*
X147977220Y-115210496D01*
X147979928Y-115206136D01*
X147980398Y-115191251D01*
X147981668Y-115171084D01*
X147985537Y-115148196D01*
X147986360Y-115144295D01*
X147983037Y-115131592D01*
X147969410Y-115129651D01*
X147947970Y-115139077D01*
X147943012Y-115142341D01*
X147937591Y-115149225D01*
X147897116Y-115149225D01*
X147893119Y-115141163D01*
X147888617Y-115121406D01*
X147889891Y-115113942D01*
X147898298Y-115105321D01*
X147908655Y-115106796D01*
X147913917Y-115119029D01*
X147914863Y-115125401D01*
X147920255Y-115124954D01*
X147932667Y-115111820D01*
X147952359Y-115094875D01*
X147974034Y-115084578D01*
X147982893Y-115082092D01*
X147992266Y-115075632D01*
X147996170Y-115062246D01*
X147996951Y-115037073D01*
X147997284Y-115034446D01*
X148021951Y-115034446D01*
X148022772Y-115046995D01*
X148030851Y-115069365D01*
X148050284Y-115092779D01*
X148061231Y-115102994D01*
X148083685Y-115117123D01*
X148107978Y-115121113D01*
X148122829Y-115119561D01*
X148154797Y-115105529D01*
X148180894Y-115079603D01*
X148197223Y-115045100D01*
X148201620Y-115024015D01*
X148199619Y-115005003D01*
X148188452Y-114983345D01*
X148163479Y-114949978D01*
X148138130Y-114931276D01*
X148113638Y-114929124D01*
X148090106Y-114943563D01*
X148088938Y-114944762D01*
X148086416Y-114950804D01*
X148095362Y-114953701D01*
X148118354Y-114954446D01*
X148144258Y-114956573D01*
X148165549Y-114966628D01*
X148176595Y-114987289D01*
X148179754Y-115021113D01*
X148177953Y-115047305D01*
X148168183Y-115072583D01*
X148147675Y-115087282D01*
X148113908Y-115094201D01*
X148108106Y-115094734D01*
X148085466Y-115095637D01*
X148074691Y-115092573D01*
X148071951Y-115084673D01*
X148075221Y-115076174D01*
X148090701Y-115070999D01*
X148119371Y-115067759D01*
X148143625Y-115054908D01*
X148154405Y-115032254D01*
X148151735Y-114999773D01*
X148148361Y-114989610D01*
X148138946Y-114981301D01*
X148119582Y-114981023D01*
X148113602Y-114981749D01*
X148096587Y-114988148D01*
X148090121Y-115002363D01*
X148085626Y-115014019D01*
X148074441Y-115021113D01*
X148067384Y-115018942D01*
X148064277Y-115008457D01*
X148066110Y-114985696D01*
X148067230Y-114976983D01*
X148068525Y-114960796D01*
X148066024Y-114958043D01*
X148058874Y-114966455D01*
X148051586Y-114978634D01*
X148046951Y-114993539D01*
X148045517Y-114998596D01*
X148034451Y-115004446D01*
X148032745Y-115004567D01*
X148024508Y-115012546D01*
X148021951Y-115034446D01*
X147997284Y-115034446D01*
X148002172Y-114995928D01*
X148020557Y-114954836D01*
X148050614Y-114923486D01*
X148090700Y-114904211D01*
X148121949Y-114895471D01*
X148073326Y-114822875D01*
X148031266Y-114758306D01*
X147928517Y-114582427D01*
X147840145Y-114401710D01*
X147765635Y-114214768D01*
X147704471Y-114020217D01*
X147656139Y-113816670D01*
X147620124Y-113602740D01*
X147619721Y-113599705D01*
X147615644Y-113556569D01*
X147612525Y-113499993D01*
X147610347Y-113432916D01*
X147609092Y-113358279D01*
X147608741Y-113279022D01*
X147609277Y-113198085D01*
X147610681Y-113118409D01*
X147612936Y-113042933D01*
X147616023Y-112974599D01*
X147619924Y-112916345D01*
X147624621Y-112871113D01*
X147649320Y-112712205D01*
X147692218Y-112504008D01*
X147745569Y-112305720D01*
X147809014Y-112118630D01*
X147882196Y-111944029D01*
X147916035Y-111871113D01*
X148044420Y-111871113D01*
X148003894Y-111949710D01*
X147960785Y-112039651D01*
X147906337Y-112173279D01*
X147857005Y-112318145D01*
X147813584Y-112471371D01*
X147776869Y-112630080D01*
X147747655Y-112791395D01*
X147726738Y-112952439D01*
X147723725Y-112985593D01*
X147719178Y-113056340D01*
X147716006Y-113135655D01*
X147714244Y-113219343D01*
X147713927Y-113303213D01*
X147715091Y-113383071D01*
X147717770Y-113454724D01*
X147722001Y-113513980D01*
X147725381Y-113546555D01*
X147748086Y-113708164D01*
X147780283Y-113870895D01*
X147820741Y-114029165D01*
X147868230Y-114177393D01*
X147877315Y-114201794D01*
X147903557Y-114266003D01*
X147935816Y-114338658D01*
X147972147Y-114415794D01*
X148010608Y-114493444D01*
X148049254Y-114567640D01*
X148086141Y-114634417D01*
X148119326Y-114689807D01*
X148125132Y-114698896D01*
X148150886Y-114738072D01*
X148179088Y-114779479D01*
X148208064Y-114820820D01*
X148236141Y-114859798D01*
X148261645Y-114894114D01*
X148282903Y-114921470D01*
X148298241Y-114939569D01*
X148305986Y-114946113D01*
X148308030Y-114947062D01*
X148317552Y-114957747D01*
X148329892Y-114976486D01*
X148341555Y-115003330D01*
X148344367Y-115024015D01*
X148345715Y-115033928D01*
X148339871Y-115059509D01*
X148324268Y-115075740D01*
X148321089Y-115077848D01*
X148307103Y-115093568D01*
X148289786Y-115119871D01*
X148275102Y-115146738D01*
X148271618Y-115153112D01*
X148258214Y-115178721D01*
G37*
G36*
X149248131Y-113891265D02*
G01*
X149285284Y-113898957D01*
X149319475Y-113908480D01*
X149354033Y-113922394D01*
X149373915Y-113937553D01*
X149380284Y-113954638D01*
X149378571Y-113963827D01*
X149368114Y-113970299D01*
X149347064Y-113966553D01*
X149314165Y-113952549D01*
X149309635Y-113950396D01*
X149282621Y-113940530D01*
X149252246Y-113935588D01*
X149211960Y-113934405D01*
X149210558Y-113934415D01*
X149175347Y-113935663D01*
X149147928Y-113939983D01*
X149120924Y-113949183D01*
X149086960Y-113965074D01*
X149050517Y-113984405D01*
X149004346Y-114014783D01*
X148965119Y-114050043D01*
X148927087Y-114094852D01*
X148912327Y-114115603D01*
X148893118Y-114145421D01*
X148872877Y-114178963D01*
X148853623Y-114212687D01*
X148837372Y-114243049D01*
X148826142Y-114266505D01*
X148821951Y-114279513D01*
X148821737Y-114281168D01*
X148817433Y-114295095D01*
X148809339Y-114315928D01*
X148796151Y-114338224D01*
X148780172Y-114346113D01*
X148773787Y-114345176D01*
X148765386Y-114335896D01*
X148765475Y-114316019D01*
X148774247Y-114284731D01*
X148791896Y-114241219D01*
X148818617Y-114184667D01*
X148841632Y-114141790D01*
X148894353Y-114064502D01*
X148954641Y-114000278D01*
X149021530Y-113949915D01*
X149094052Y-113914210D01*
X149171243Y-113893958D01*
X149181231Y-113892478D01*
X149216680Y-113889248D01*
X149248131Y-113891265D01*
G37*
G36*
X148699763Y-113288809D02*
G01*
X148697939Y-113360724D01*
X148695646Y-113428121D01*
X148692895Y-113489040D01*
X148689696Y-113541524D01*
X148686059Y-113583613D01*
X148665136Y-113763507D01*
X148633308Y-113989797D01*
X148595122Y-114215268D01*
X148549722Y-114444885D01*
X148496252Y-114683613D01*
X148487381Y-114720562D01*
X148476130Y-114765654D01*
X148466064Y-114804088D01*
X148458024Y-114832668D01*
X148452854Y-114848196D01*
X148442183Y-114863812D01*
X148427287Y-114871113D01*
X148409679Y-114864004D01*
X148386040Y-114843478D01*
X148357736Y-114811230D01*
X148325968Y-114768959D01*
X148291939Y-114718364D01*
X148256851Y-114661142D01*
X148221908Y-114598992D01*
X148188310Y-114533613D01*
X148119656Y-114375344D01*
X148064694Y-114208123D01*
X148024974Y-114036077D01*
X148000504Y-113860191D01*
X147991292Y-113681451D01*
X147994451Y-113587197D01*
X148034326Y-113587197D01*
X148035093Y-113764122D01*
X148051806Y-113937779D01*
X148063964Y-114011692D01*
X148097042Y-114159224D01*
X148140830Y-114303536D01*
X148194211Y-114441569D01*
X148256069Y-114570265D01*
X148325287Y-114686566D01*
X148344251Y-114714732D01*
X148366992Y-114747632D01*
X148386255Y-114774566D01*
X148399224Y-114791538D01*
X148419720Y-114816129D01*
X148454589Y-114671996D01*
X148478103Y-114571929D01*
X148527952Y-114337870D01*
X148571275Y-114102018D01*
X148607439Y-113868318D01*
X148635808Y-113640713D01*
X148655745Y-113423150D01*
X148657124Y-113402262D01*
X148659939Y-113339977D01*
X148661692Y-113268312D01*
X148662431Y-113190161D01*
X148662207Y-113108414D01*
X148661069Y-113025967D01*
X148659067Y-112945710D01*
X148656251Y-112870538D01*
X148652670Y-112803342D01*
X148648374Y-112747016D01*
X148643412Y-112704453D01*
X148633357Y-112643458D01*
X148612450Y-112542539D01*
X148588622Y-112457361D01*
X148561943Y-112388160D01*
X148532483Y-112335169D01*
X148531864Y-112334272D01*
X148516797Y-112315091D01*
X148504295Y-112307581D01*
X148489429Y-112308710D01*
X148489267Y-112308751D01*
X148470248Y-112318661D01*
X148448135Y-112337102D01*
X148427133Y-112359578D01*
X148411447Y-112381594D01*
X148405284Y-112398654D01*
X148405088Y-112400399D01*
X148399571Y-112416240D01*
X148387607Y-112442596D01*
X148370729Y-112476240D01*
X148350469Y-112513948D01*
X148263060Y-112685172D01*
X148186936Y-112864886D01*
X148125811Y-113045849D01*
X148079875Y-113227157D01*
X148049316Y-113407908D01*
X148034326Y-113587197D01*
X147994451Y-113587197D01*
X147997345Y-113500843D01*
X148018671Y-113319352D01*
X148055278Y-113137966D01*
X148107174Y-112957668D01*
X148174367Y-112779446D01*
X148186161Y-112751584D01*
X148203611Y-112710382D01*
X148219300Y-112673364D01*
X148230861Y-112646113D01*
X148239900Y-112625501D01*
X148249418Y-112605463D01*
X148254889Y-112596075D01*
X148255197Y-112595745D01*
X148261700Y-112585389D01*
X148273226Y-112564697D01*
X148287497Y-112537742D01*
X148301842Y-112510596D01*
X148332840Y-112454760D01*
X148366568Y-112397097D01*
X148401810Y-112339421D01*
X148437352Y-112283547D01*
X148471979Y-112231291D01*
X148504474Y-112184466D01*
X148533622Y-112144887D01*
X148558209Y-112114370D01*
X148577018Y-112094729D01*
X148588835Y-112087779D01*
X148598927Y-112089724D01*
X148604536Y-112099755D01*
X148599389Y-112119108D01*
X148583200Y-112148661D01*
X148555682Y-112189289D01*
X148537918Y-112214424D01*
X148522674Y-112237609D01*
X148515535Y-112251949D01*
X148515344Y-112259930D01*
X148520945Y-112264038D01*
X148535349Y-112273266D01*
X148556453Y-112294560D01*
X148578042Y-112322770D01*
X148596388Y-112353475D01*
X148601458Y-112364247D01*
X148614768Y-112398528D01*
X148628742Y-112441515D01*
X148642657Y-112490136D01*
X148655791Y-112541319D01*
X148667423Y-112591995D01*
X148676830Y-112639092D01*
X148683290Y-112679539D01*
X148686082Y-112710264D01*
X148684484Y-112728198D01*
X148683760Y-112736675D01*
X148690557Y-112752613D01*
X148693309Y-112761449D01*
X148696186Y-112785884D01*
X148698498Y-112823429D01*
X148700256Y-112872126D01*
X148701470Y-112930017D01*
X148702152Y-112995142D01*
X148702312Y-113065542D01*
X148701960Y-113139259D01*
X148701381Y-113190161D01*
X148701106Y-113214335D01*
X148699763Y-113288809D01*
G37*
G36*
X149908735Y-116506199D02*
G01*
X149899122Y-116586573D01*
X149891700Y-116635015D01*
X149874945Y-116697611D01*
X149850835Y-116746865D01*
X149818349Y-116784192D01*
X149776466Y-116811003D01*
X149724164Y-116828712D01*
X149705219Y-116831987D01*
X149672503Y-116835321D01*
X149638093Y-116836942D01*
X149608940Y-116836779D01*
X149588892Y-116834004D01*
X149574601Y-116826912D01*
X149560466Y-116813839D01*
X149539024Y-116783347D01*
X149520490Y-116734692D01*
X149509138Y-116673013D01*
X149505371Y-116601201D01*
X149584869Y-116601201D01*
X149585717Y-116640764D01*
X149588577Y-116673615D01*
X149594191Y-116699412D01*
X149603323Y-116723196D01*
X149615383Y-116746418D01*
X149627006Y-116758912D01*
X149640405Y-116761812D01*
X149654185Y-116761005D01*
X149670967Y-116758220D01*
X149681156Y-116751003D01*
X149686398Y-116736294D01*
X149688337Y-116711035D01*
X149688617Y-116672168D01*
X149688618Y-116671739D01*
X149689494Y-116628685D01*
X149692731Y-116599656D01*
X149699281Y-116582091D01*
X149710093Y-116573430D01*
X149726117Y-116571113D01*
X149733417Y-116571498D01*
X149748340Y-116577102D01*
X149757588Y-116591421D01*
X149762300Y-116617056D01*
X149763617Y-116656604D01*
X149764611Y-116691363D01*
X149768028Y-116711373D01*
X149774323Y-116715353D01*
X149783949Y-116703570D01*
X149797359Y-116676287D01*
X149803610Y-116659300D01*
X149811899Y-116628439D01*
X149819146Y-116592954D01*
X149824732Y-116556998D01*
X149828042Y-116524727D01*
X149828457Y-116500295D01*
X149825360Y-116487855D01*
X149823707Y-116486533D01*
X149807203Y-116479422D01*
X149779195Y-116471464D01*
X149743819Y-116463713D01*
X149705207Y-116457224D01*
X149690341Y-116456202D01*
X149669374Y-116461211D01*
X149645670Y-116476679D01*
X149637795Y-116482729D01*
X149616000Y-116498727D01*
X149599913Y-116509534D01*
X149594996Y-116513220D01*
X149589563Y-116521979D01*
X149586431Y-116537325D01*
X149585050Y-116562614D01*
X149584869Y-116601201D01*
X149505371Y-116601201D01*
X149505284Y-116599537D01*
X149505284Y-116512779D01*
X149480574Y-116512779D01*
X149469488Y-116511467D01*
X149437786Y-116499282D01*
X149397250Y-116474764D01*
X149348864Y-116438468D01*
X149341859Y-116432545D01*
X149319812Y-116407098D01*
X149313672Y-116384221D01*
X149323617Y-116364446D01*
X149323726Y-116364338D01*
X149340122Y-116355572D01*
X149362147Y-116357760D01*
X149391567Y-116371445D01*
X149430151Y-116397169D01*
X149452949Y-116413551D01*
X149475139Y-116427824D01*
X149492206Y-116435114D01*
X149508778Y-116437228D01*
X149529481Y-116435973D01*
X149531494Y-116435770D01*
X149569037Y-116426660D01*
X149602169Y-116405750D01*
X149620043Y-116392200D01*
X149637382Y-116383874D01*
X149658837Y-116380243D01*
X149690669Y-116379446D01*
X149722892Y-116381269D01*
X149768482Y-116387628D01*
X149811687Y-116397170D01*
X149859990Y-116410152D01*
X149895922Y-116418752D01*
X149922625Y-116423288D01*
X149943467Y-116424141D01*
X149961816Y-116421693D01*
X149981043Y-116416323D01*
X149991643Y-116412524D01*
X150018253Y-116400059D01*
X150037338Y-116387182D01*
X150038635Y-116385935D01*
X150056369Y-116363116D01*
X150074837Y-116331146D01*
X150090703Y-116296446D01*
X150100626Y-116265438D01*
X150108022Y-116243960D01*
X150117816Y-116229420D01*
X150122988Y-116226165D01*
X150144328Y-116222352D01*
X150167162Y-116227015D01*
X150182967Y-116238910D01*
X150185966Y-116250990D01*
X150182800Y-116277427D01*
X150172094Y-116312500D01*
X150154829Y-116353176D01*
X150131987Y-116396422D01*
X150119143Y-116417526D01*
X150101126Y-116441235D01*
X150080757Y-116458458D01*
X150052578Y-116474564D01*
X150013463Y-116491014D01*
X149968385Y-116500295D01*
X149956480Y-116502746D01*
X149908735Y-116506199D01*
G37*
G36*
X151996534Y-115449447D02*
G01*
X151994763Y-115479384D01*
X151990671Y-115537344D01*
X151985887Y-115594494D01*
X151980870Y-115645553D01*
X151976079Y-115685241D01*
X151972040Y-115714390D01*
X151967684Y-115746852D01*
X151964715Y-115770262D01*
X151963617Y-115780896D01*
X151964481Y-115781580D01*
X151977295Y-115783557D01*
X152003550Y-115785260D01*
X152040811Y-115786596D01*
X152086645Y-115787467D01*
X152138617Y-115787779D01*
X152313617Y-115787779D01*
X152313617Y-115829446D01*
X152133243Y-115829446D01*
X152074644Y-115829485D01*
X152030543Y-115829748D01*
X151998817Y-115830452D01*
X151977341Y-115831814D01*
X151963989Y-115834052D01*
X151956639Y-115837383D01*
X151953166Y-115842025D01*
X151952629Y-115843951D01*
X151951444Y-115848196D01*
X151948219Y-115862840D01*
X151942228Y-115890138D01*
X151934386Y-115925918D01*
X151925562Y-115966221D01*
X151916776Y-116005341D01*
X151908264Y-116041302D01*
X151901271Y-116068874D01*
X151896766Y-116084100D01*
X151895380Y-116087938D01*
X151894450Y-116095201D01*
X151899178Y-116100308D01*
X151912290Y-116104259D01*
X151936512Y-116108059D01*
X151974572Y-116112710D01*
X151980486Y-116113414D01*
X152023495Y-116118794D01*
X152075880Y-116125669D01*
X152125652Y-116132427D01*
X152131559Y-116133229D01*
X152184451Y-116140665D01*
X152309451Y-116158613D01*
X152312117Y-116181834D01*
X152312919Y-116193158D01*
X152309050Y-116201770D01*
X152295450Y-116200859D01*
X152272585Y-116196458D01*
X152236654Y-116190526D01*
X152192822Y-116183950D01*
X152143799Y-116177070D01*
X152092295Y-116170227D01*
X152041021Y-116163761D01*
X151992686Y-116158013D01*
X151950000Y-116153323D01*
X151915674Y-116150032D01*
X151892418Y-116148481D01*
X151882941Y-116149011D01*
X151882908Y-116149046D01*
X151878716Y-116158391D01*
X151870513Y-116180281D01*
X151859470Y-116211488D01*
X151846757Y-116248784D01*
X151840852Y-116266175D01*
X151804569Y-116364818D01*
X151764326Y-116462030D01*
X151721375Y-116555336D01*
X151676969Y-116642261D01*
X151632360Y-116720329D01*
X151588802Y-116787065D01*
X151547547Y-116839994D01*
X151520224Y-116871113D01*
X151265608Y-116871113D01*
X151204483Y-116799909D01*
X151188282Y-116780857D01*
X151107587Y-116679448D01*
X151035266Y-116576119D01*
X150968079Y-116465971D01*
X150902782Y-116344109D01*
X150857543Y-116254675D01*
X150853136Y-116331644D01*
X150850342Y-116368886D01*
X150843609Y-116415654D01*
X150833216Y-116450268D01*
X150818251Y-116475400D01*
X150797802Y-116493725D01*
X150793292Y-116496505D01*
X150760299Y-116508394D01*
X150720225Y-116513144D01*
X150679995Y-116510465D01*
X150646537Y-116500065D01*
X150644145Y-116498839D01*
X150628394Y-116491455D01*
X150621951Y-116489713D01*
X150621845Y-116490866D01*
X150617974Y-116505173D01*
X150609605Y-116530225D01*
X150598218Y-116562048D01*
X150585291Y-116596673D01*
X150572300Y-116630125D01*
X150560723Y-116658434D01*
X150552039Y-116677628D01*
X150534551Y-116706315D01*
X150506342Y-116739266D01*
X150475580Y-116763966D01*
X150446268Y-116776666D01*
X150436793Y-116779484D01*
X150423502Y-116792244D01*
X150424093Y-116813641D01*
X150438526Y-116844029D01*
X150455039Y-116871113D01*
X150388316Y-116871113D01*
X150367085Y-116871019D01*
X150341555Y-116869986D01*
X150326510Y-116866943D01*
X150318045Y-116860838D01*
X150312256Y-116850619D01*
X150309889Y-116845743D01*
X150300571Y-116835341D01*
X150287983Y-116838119D01*
X150286920Y-116838652D01*
X150267592Y-116843939D01*
X150242953Y-116846113D01*
X150226761Y-116844145D01*
X150199290Y-116831297D01*
X150179531Y-116809823D01*
X150171951Y-116783654D01*
X150167542Y-116762296D01*
X150154053Y-116738334D01*
X150135559Y-116720055D01*
X150116241Y-116712779D01*
X150108442Y-116714253D01*
X150087805Y-116724308D01*
X150065725Y-116740743D01*
X150058221Y-116747325D01*
X150022645Y-116773896D01*
X149993324Y-116786440D01*
X149968634Y-116785374D01*
X149946951Y-116771113D01*
X149932709Y-116750656D01*
X149931475Y-116728199D01*
X149944651Y-116702859D01*
X149972707Y-116672836D01*
X149979652Y-116666481D01*
X150015698Y-116636594D01*
X150046910Y-116617739D01*
X150077547Y-116607833D01*
X150111866Y-116604795D01*
X150111940Y-116604795D01*
X150163107Y-116611557D01*
X150206407Y-116632951D01*
X150242647Y-116669373D01*
X150255717Y-116686447D01*
X150265347Y-116695800D01*
X150272194Y-116694711D01*
X150280147Y-116684777D01*
X150290723Y-116666503D01*
X150301117Y-116642130D01*
X150304578Y-116633943D01*
X150322451Y-116614077D01*
X150346591Y-116605283D01*
X150372329Y-116607465D01*
X150394997Y-116620528D01*
X150409925Y-116644374D01*
X150418733Y-116671445D01*
X150435947Y-116652529D01*
X150440255Y-116647242D01*
X150456465Y-116619679D01*
X150473690Y-116580824D01*
X150490653Y-116534679D01*
X150506073Y-116485248D01*
X150518671Y-116436535D01*
X150527168Y-116392545D01*
X150530284Y-116357279D01*
X150530725Y-116347108D01*
X150539420Y-116315647D01*
X150557913Y-116295121D01*
X150584451Y-116287779D01*
X150592769Y-116288807D01*
X150614194Y-116298810D01*
X150631500Y-116315349D01*
X150638617Y-116333323D01*
X150639853Y-116338425D01*
X150649251Y-116355232D01*
X150664861Y-116375423D01*
X150674996Y-116386216D01*
X150694134Y-116400210D01*
X150712451Y-116402796D01*
X150718526Y-116401438D01*
X150731119Y-116391892D01*
X150739574Y-116372358D01*
X150744186Y-116341229D01*
X150745255Y-116296904D01*
X150743077Y-116237779D01*
X150741739Y-116212522D01*
X150739333Y-116169756D01*
X150736195Y-116140191D01*
X150730694Y-116121525D01*
X150722187Y-116112503D01*
X150932648Y-116112503D01*
X150948968Y-116164725D01*
X150950448Y-116169386D01*
X150976879Y-116238681D01*
X151013481Y-116316071D01*
X151058345Y-116398542D01*
X151109558Y-116483076D01*
X151165211Y-116566658D01*
X151223394Y-116646271D01*
X151282195Y-116718900D01*
X151339704Y-116781529D01*
X151346299Y-116788095D01*
X151368623Y-116809161D01*
X151386072Y-116823898D01*
X151395325Y-116829446D01*
X151401044Y-116827497D01*
X151417571Y-116814582D01*
X151439883Y-116791747D01*
X151465724Y-116761550D01*
X151492836Y-116726549D01*
X151518962Y-116689304D01*
X151571285Y-116603529D01*
X151630804Y-116488290D01*
X151687748Y-116358418D01*
X151741621Y-116214968D01*
X151770352Y-116132427D01*
X151652401Y-116122055D01*
X151638192Y-116120917D01*
X151597177Y-116118348D01*
X151546041Y-116115858D01*
X151487015Y-116113494D01*
X151422330Y-116111305D01*
X151354218Y-116109336D01*
X151284910Y-116107635D01*
X151216637Y-116106250D01*
X151151630Y-116105228D01*
X151092121Y-116104617D01*
X151040341Y-116104463D01*
X150998521Y-116104815D01*
X150968893Y-116105719D01*
X150953687Y-116107223D01*
X150932648Y-116112503D01*
X150722187Y-116112503D01*
X150721198Y-116111454D01*
X150706079Y-116107676D01*
X150683705Y-116107889D01*
X150652446Y-116109789D01*
X150629141Y-116111211D01*
X150567943Y-116115865D01*
X150494526Y-116122436D01*
X150411823Y-116130641D01*
X150322766Y-116140194D01*
X150230284Y-116150810D01*
X150210130Y-116153276D01*
X150163025Y-116160016D01*
X150127845Y-116167027D01*
X150101101Y-116175099D01*
X150079304Y-116185022D01*
X150050886Y-116197900D01*
X150024203Y-116203075D01*
X150007130Y-116197048D01*
X150001117Y-116179911D01*
X150002462Y-116171384D01*
X150008953Y-116161696D01*
X150023120Y-116150694D01*
X150047455Y-116136502D01*
X150084451Y-116117247D01*
X150116312Y-116100304D01*
X150249212Y-116100304D01*
X150253307Y-116103068D01*
X150271951Y-116102992D01*
X150277948Y-116102687D01*
X150303982Y-116100396D01*
X150338644Y-116096500D01*
X150376117Y-116091635D01*
X150398808Y-116088750D01*
X150446483Y-116083703D01*
X150498465Y-116079157D01*
X150546951Y-116075834D01*
X150579991Y-116073961D01*
X150628314Y-116070950D01*
X150663317Y-116068022D01*
X150687145Y-116064682D01*
X150701945Y-116060433D01*
X150709860Y-116054778D01*
X150713036Y-116047222D01*
X150713617Y-116037269D01*
X150716315Y-116020004D01*
X150722842Y-116012779D01*
X150726836Y-116011144D01*
X150727433Y-116000704D01*
X150726341Y-115993967D01*
X150734032Y-115992938D01*
X150745205Y-115992999D01*
X150752706Y-115981971D01*
X150751094Y-115962705D01*
X150745005Y-115953973D01*
X150732000Y-115946926D01*
X150719321Y-115946122D01*
X150713617Y-115953240D01*
X150712541Y-115954729D01*
X150699919Y-115960456D01*
X150676101Y-115967687D01*
X150644867Y-115975215D01*
X150633339Y-115977831D01*
X150595442Y-115987343D01*
X150548492Y-116000027D01*
X150497369Y-116014545D01*
X150446951Y-116029555D01*
X150419649Y-116037869D01*
X150376450Y-116050884D01*
X150339436Y-116061865D01*
X150311854Y-116069852D01*
X150296951Y-116073885D01*
X150281367Y-116079207D01*
X150259451Y-116091319D01*
X150257572Y-116092745D01*
X150249212Y-116100304D01*
X150116312Y-116100304D01*
X150123952Y-116096241D01*
X150172129Y-116069104D01*
X150222112Y-116039741D01*
X150267784Y-116011674D01*
X150285102Y-116001071D01*
X150371951Y-116001071D01*
X150372525Y-116002785D01*
X150378647Y-116003522D01*
X150394060Y-115999835D01*
X150421951Y-115991089D01*
X150430546Y-115988417D01*
X150458252Y-115980411D01*
X150496358Y-115969868D01*
X150541002Y-115957850D01*
X150588320Y-115945416D01*
X150616412Y-115938066D01*
X150633047Y-115933613D01*
X150848221Y-115933613D01*
X150866926Y-115981971D01*
X150873202Y-115998196D01*
X150898182Y-116062779D01*
X151132983Y-116063138D01*
X151186038Y-116063385D01*
X151258181Y-116064169D01*
X151329795Y-116065397D01*
X151396845Y-116066986D01*
X151455297Y-116068850D01*
X151501117Y-116070903D01*
X151519629Y-116071948D01*
X151573205Y-116075137D01*
X151625799Y-116078477D01*
X151672193Y-116081630D01*
X151707163Y-116084257D01*
X151743116Y-116086698D01*
X151766210Y-116086741D01*
X151778850Y-116084109D01*
X151784090Y-116078576D01*
X151784810Y-116076472D01*
X151790164Y-116057734D01*
X151797688Y-116028398D01*
X151806492Y-115992288D01*
X151815687Y-115953228D01*
X151824387Y-115915040D01*
X151831700Y-115881549D01*
X151836740Y-115856579D01*
X151838617Y-115843951D01*
X151838515Y-115841195D01*
X151834914Y-115833694D01*
X151823124Y-115831368D01*
X151799034Y-115833087D01*
X151779238Y-115834839D01*
X151744730Y-115837299D01*
X151703083Y-115839858D01*
X151659451Y-115842182D01*
X151586664Y-115846395D01*
X151505020Y-115852296D01*
X151418237Y-115859546D01*
X151329035Y-115867855D01*
X151240139Y-115876932D01*
X151154269Y-115886487D01*
X151074148Y-115896230D01*
X151002498Y-115905870D01*
X150989396Y-115907874D01*
X150942043Y-115915117D01*
X150895503Y-115923680D01*
X150848221Y-115933613D01*
X150633047Y-115933613D01*
X150656893Y-115927230D01*
X150689643Y-115918161D01*
X150711853Y-115911641D01*
X150720720Y-115908455D01*
X150721094Y-115907874D01*
X150720684Y-115896355D01*
X150716129Y-115876229D01*
X150709231Y-115853519D01*
X150701790Y-115834251D01*
X150695607Y-115824449D01*
X150694355Y-115824369D01*
X150681584Y-115828981D01*
X150657732Y-115840126D01*
X150625390Y-115856388D01*
X150587150Y-115876355D01*
X150545602Y-115898613D01*
X150503338Y-115921746D01*
X150462948Y-115944342D01*
X150427023Y-115964986D01*
X150398155Y-115982265D01*
X150378934Y-115994765D01*
X150371951Y-116001071D01*
X150285102Y-116001071D01*
X150404883Y-115927735D01*
X150603119Y-115816358D01*
X150624098Y-115804752D01*
X150653478Y-115786678D01*
X150669334Y-115774840D01*
X150803549Y-115774840D01*
X150804157Y-115788260D01*
X150808725Y-115805172D01*
X150815650Y-115827363D01*
X150817742Y-115834398D01*
X150826998Y-115863115D01*
X150836288Y-115879546D01*
X150849705Y-115886023D01*
X150871339Y-115884879D01*
X150905284Y-115878446D01*
X150906265Y-115878250D01*
X150951864Y-115870293D01*
X151011243Y-115861634D01*
X151081621Y-115852582D01*
X151160216Y-115843446D01*
X151244245Y-115834535D01*
X151330926Y-115826158D01*
X151417478Y-115818625D01*
X151501117Y-115812245D01*
X151508081Y-115811756D01*
X151572778Y-115807131D01*
X151634481Y-115802588D01*
X151690464Y-115798339D01*
X151737999Y-115794593D01*
X151774361Y-115791560D01*
X151796821Y-115789451D01*
X151850857Y-115783613D01*
X151860551Y-115725279D01*
X151863134Y-115708079D01*
X151868329Y-115665947D01*
X151873804Y-115613617D01*
X151879185Y-115555257D01*
X151884098Y-115495037D01*
X151888169Y-115437127D01*
X151891024Y-115385696D01*
X151891553Y-115361716D01*
X151889605Y-115337564D01*
X151884326Y-115329446D01*
X151880127Y-115330136D01*
X151862085Y-115335004D01*
X151834400Y-115343513D01*
X151801106Y-115354450D01*
X151783479Y-115360275D01*
X151752695Y-115369756D01*
X151729634Y-115375939D01*
X151718293Y-115377701D01*
X151709704Y-115378457D01*
X151692784Y-115385008D01*
X151689464Y-115386514D01*
X151671142Y-115393336D01*
X151640492Y-115403874D01*
X151600078Y-115417272D01*
X151552462Y-115432676D01*
X151500209Y-115449230D01*
X151451562Y-115464893D01*
X151282392Y-115526183D01*
X151115802Y-115597689D01*
X150946522Y-115681624D01*
X150916024Y-115697637D01*
X150872782Y-115720376D01*
X150841517Y-115737681D01*
X150820625Y-115751336D01*
X150808504Y-115763127D01*
X150803549Y-115774840D01*
X150669334Y-115774840D01*
X150673031Y-115772080D01*
X150680137Y-115762779D01*
X150680136Y-115762670D01*
X150678138Y-115749772D01*
X150672833Y-115724418D01*
X150665016Y-115690225D01*
X150655485Y-115650810D01*
X150646908Y-115614605D01*
X150634301Y-115557016D01*
X150622193Y-115497406D01*
X150612326Y-115444103D01*
X150593834Y-115336865D01*
X150574732Y-115422739D01*
X150565888Y-115460162D01*
X150537821Y-115556390D01*
X150504762Y-115641947D01*
X150467365Y-115715652D01*
X150426287Y-115776323D01*
X150382182Y-115822779D01*
X150335705Y-115853839D01*
X150307652Y-115863777D01*
X150262440Y-115870557D01*
X150216283Y-115869194D01*
X150176770Y-115859422D01*
X150175768Y-115859000D01*
X150129126Y-115830674D01*
X150084825Y-115787049D01*
X150043452Y-115729373D01*
X150005598Y-115658898D01*
X149971849Y-115576871D01*
X149942795Y-115484542D01*
X149919023Y-115383162D01*
X149905145Y-115298518D01*
X149984457Y-115298518D01*
X149985567Y-115320998D01*
X149990510Y-115354365D01*
X149998830Y-115396043D01*
X150010071Y-115443456D01*
X150023774Y-115494029D01*
X150025430Y-115499685D01*
X150034414Y-115527484D01*
X150042148Y-115547049D01*
X150047111Y-115554446D01*
X150061849Y-115548470D01*
X150080641Y-115530371D01*
X150099043Y-115503932D01*
X150113898Y-115473006D01*
X150122697Y-115443274D01*
X150129085Y-115398936D01*
X150129300Y-115353758D01*
X150123846Y-115311160D01*
X150113227Y-115274563D01*
X150097948Y-115247386D01*
X150078513Y-115233050D01*
X150064781Y-115233618D01*
X150043543Y-115240954D01*
X150021409Y-115252463D01*
X150004003Y-115265175D01*
X149996951Y-115276119D01*
X149996438Y-115279624D01*
X149987515Y-115289536D01*
X149984457Y-115298518D01*
X149905145Y-115298518D01*
X149901122Y-115273980D01*
X149900416Y-115268431D01*
X149894674Y-115206713D01*
X149890879Y-115133585D01*
X149890476Y-115116162D01*
X149963617Y-115116162D01*
X149996311Y-115084237D01*
X149997287Y-115083286D01*
X150016206Y-115066301D01*
X150033135Y-115056495D01*
X150054292Y-115051387D01*
X150085895Y-115048497D01*
X150091169Y-115048150D01*
X150120629Y-115047036D01*
X150140568Y-115049323D01*
X150157168Y-115056473D01*
X150176612Y-115069949D01*
X150181797Y-115074060D01*
X150210363Y-115104598D01*
X150234758Y-115143283D01*
X150241969Y-115158007D01*
X150249888Y-115177308D01*
X150255183Y-115197282D01*
X150258550Y-115221926D01*
X150260686Y-115255239D01*
X150262288Y-115301220D01*
X150262389Y-115304724D01*
X150263324Y-115351872D01*
X150263295Y-115353758D01*
X150262778Y-115386806D01*
X150260396Y-115413679D01*
X150255822Y-115436643D01*
X150248700Y-115459851D01*
X150241592Y-115481102D01*
X150230543Y-115516151D01*
X150222122Y-115545205D01*
X150215419Y-115566214D01*
X150186280Y-115621592D01*
X150143312Y-115669532D01*
X150112696Y-115696412D01*
X150130919Y-115722003D01*
X150136580Y-115729221D01*
X150158131Y-115751464D01*
X150182630Y-115771854D01*
X150193030Y-115778777D01*
X150232681Y-115794409D01*
X150272624Y-115793681D01*
X150312274Y-115776812D01*
X150351044Y-115744018D01*
X150388349Y-115695517D01*
X150398550Y-115679110D01*
X150440413Y-115596331D01*
X150475734Y-115499098D01*
X150504251Y-115388238D01*
X150525700Y-115264576D01*
X150529546Y-115231729D01*
X150534796Y-115161318D01*
X150537698Y-115081988D01*
X150538252Y-114998645D01*
X150536457Y-114916198D01*
X150532312Y-114839555D01*
X150525815Y-114773623D01*
X150509817Y-114674153D01*
X150488717Y-114581149D01*
X150463243Y-114496862D01*
X150433976Y-114422428D01*
X150401498Y-114358982D01*
X150366391Y-114307658D01*
X150329238Y-114269593D01*
X150290619Y-114245922D01*
X150251117Y-114237779D01*
X150238465Y-114238593D01*
X150198879Y-114251665D01*
X150160752Y-114279701D01*
X150124571Y-114321420D01*
X150090824Y-114375540D01*
X150059996Y-114440783D01*
X150032576Y-114515866D01*
X150009049Y-114599508D01*
X149989903Y-114690430D01*
X149975625Y-114787351D01*
X149966700Y-114888989D01*
X149963617Y-114994064D01*
X149963617Y-115116162D01*
X149890476Y-115116162D01*
X149889032Y-115053707D01*
X149889133Y-114971741D01*
X149891182Y-114892346D01*
X149895178Y-114820183D01*
X149901122Y-114759911D01*
X149901434Y-114757543D01*
X149919464Y-114648512D01*
X149943353Y-114547309D01*
X149972513Y-114455185D01*
X150006354Y-114373388D01*
X150044289Y-114303169D01*
X150085728Y-114245776D01*
X150130085Y-114202460D01*
X150176770Y-114174469D01*
X150204647Y-114166496D01*
X150249758Y-114162889D01*
X150295973Y-114167497D01*
X150335705Y-114180053D01*
X150377028Y-114206944D01*
X150420971Y-114251527D01*
X150462118Y-114310335D01*
X150499823Y-114382120D01*
X150533439Y-114465635D01*
X150562321Y-114559633D01*
X150585822Y-114662867D01*
X150593215Y-114698356D01*
X150599955Y-114722016D01*
X150606622Y-114734278D01*
X150614213Y-114737779D01*
X150614454Y-114737780D01*
X150627142Y-114740210D01*
X150636776Y-114748772D01*
X150643959Y-114765572D01*
X150649295Y-114792718D01*
X150653389Y-114832316D01*
X150656845Y-114886474D01*
X150659052Y-114923457D01*
X150665150Y-114998645D01*
X150668628Y-115041519D01*
X150682061Y-115165104D01*
X150698720Y-115289777D01*
X150717977Y-115411103D01*
X150739202Y-115524648D01*
X150761766Y-115625975D01*
X150784451Y-115718338D01*
X150905284Y-115653275D01*
X150929443Y-115640367D01*
X151026797Y-115590602D01*
X151122715Y-115545564D01*
X151220777Y-115503786D01*
X151324562Y-115463801D01*
X151437649Y-115424141D01*
X151563617Y-115383337D01*
X151593309Y-115374031D01*
X151655908Y-115354395D01*
X151713962Y-115336166D01*
X151765199Y-115320057D01*
X151807346Y-115306783D01*
X151838132Y-115297059D01*
X151855284Y-115291599D01*
X151892784Y-115279505D01*
X151890437Y-115198225D01*
X151887860Y-115142803D01*
X151880410Y-115051120D01*
X151869249Y-114953315D01*
X151855076Y-114855247D01*
X151838588Y-114762779D01*
X151806808Y-114624178D01*
X151748181Y-114431596D01*
X151673649Y-114242846D01*
X151583540Y-114058645D01*
X151478178Y-113879709D01*
X151357891Y-113706754D01*
X151328996Y-113667943D01*
X151307467Y-113637645D01*
X151293329Y-113615215D01*
X151285084Y-113597983D01*
X151281235Y-113583282D01*
X151280284Y-113568443D01*
X151279878Y-113556759D01*
X151275603Y-113536868D01*
X151264463Y-113517032D01*
X151243762Y-113491576D01*
X151202343Y-113451624D01*
X151148585Y-113418522D01*
X151089425Y-113400962D01*
X151024291Y-113398786D01*
X150952614Y-113411838D01*
X150905836Y-113427288D01*
X150846441Y-113452043D01*
X150785163Y-113482119D01*
X150727868Y-113514825D01*
X150696285Y-113534436D01*
X150744535Y-113553828D01*
X150766751Y-113563081D01*
X150828053Y-113592127D01*
X150882897Y-113623243D01*
X150928872Y-113654830D01*
X150963570Y-113685292D01*
X150984580Y-113713029D01*
X150996048Y-113749422D01*
X150993017Y-113786484D01*
X150975620Y-113820048D01*
X150945030Y-113847908D01*
X150902417Y-113867857D01*
X150888830Y-113871363D01*
X150851113Y-113877385D01*
X150802374Y-113882007D01*
X150746344Y-113885111D01*
X150686755Y-113886578D01*
X150627335Y-113886288D01*
X150571817Y-113884122D01*
X150523931Y-113879960D01*
X150511071Y-113878295D01*
X150462754Y-113870541D01*
X150412454Y-113860527D01*
X150363867Y-113849166D01*
X150320693Y-113837372D01*
X150286629Y-113826056D01*
X150265374Y-113816133D01*
X150255014Y-113807562D01*
X150248660Y-113792982D01*
X150248579Y-113768734D01*
X150254418Y-113741127D01*
X150269166Y-113723814D01*
X150293765Y-113719131D01*
X150329347Y-113726488D01*
X150365566Y-113737529D01*
X150423205Y-113752501D01*
X150479417Y-113763106D01*
X150538698Y-113769958D01*
X150605544Y-113773668D01*
X150684451Y-113774849D01*
X150718167Y-113774743D01*
X150772521Y-113773797D01*
X150816143Y-113771961D01*
X150847057Y-113769332D01*
X150863289Y-113766008D01*
X150868748Y-113763521D01*
X150875599Y-113758607D01*
X150873703Y-113752418D01*
X150861332Y-113742329D01*
X150836758Y-113725716D01*
X150828245Y-113720225D01*
X150776010Y-113691197D01*
X150707684Y-113659585D01*
X150623180Y-113625352D01*
X150522409Y-113588463D01*
X150405284Y-113548880D01*
X150364734Y-113535528D01*
X150313513Y-113518337D01*
X150268938Y-113503005D01*
X150233314Y-113490341D01*
X150208947Y-113481154D01*
X150198143Y-113476251D01*
X150195263Y-113473311D01*
X150190063Y-113456344D01*
X150190823Y-113426088D01*
X150193508Y-113406645D01*
X150201626Y-113383718D01*
X150216714Y-113367118D01*
X150226096Y-113359073D01*
X150236805Y-113343686D01*
X150233365Y-113328316D01*
X150215701Y-113308673D01*
X150209386Y-113303210D01*
X150170611Y-113280742D01*
X150118714Y-113264195D01*
X150055919Y-113254124D01*
X149984451Y-113251081D01*
X149886149Y-113258484D01*
X149774219Y-113281429D01*
X149658558Y-113319528D01*
X149539896Y-113372410D01*
X149418962Y-113439707D01*
X149296483Y-113521051D01*
X149173190Y-113616071D01*
X149049811Y-113724398D01*
X149025730Y-113746438D01*
X149001261Y-113767858D01*
X148983350Y-113782412D01*
X148974746Y-113787779D01*
X148970709Y-113792715D01*
X148962222Y-113810613D01*
X148951137Y-113838520D01*
X148938816Y-113873196D01*
X148937091Y-113878243D01*
X148913434Y-113939947D01*
X148882711Y-114010054D01*
X148847290Y-114083811D01*
X148809539Y-114156464D01*
X148771824Y-114223260D01*
X148736513Y-114279446D01*
X148725408Y-114295804D01*
X148704989Y-114324858D01*
X148689982Y-114343459D01*
X148677834Y-114354077D01*
X148665989Y-114359179D01*
X148651894Y-114361234D01*
X148623010Y-114360179D01*
X148603150Y-114349739D01*
X148595989Y-114329350D01*
X148601523Y-114298799D01*
X148619753Y-114257873D01*
X148650676Y-114206357D01*
X148717670Y-114094925D01*
X148790972Y-113944451D01*
X148849681Y-113786396D01*
X148893551Y-113621444D01*
X148922337Y-113450279D01*
X148923352Y-113441276D01*
X148927179Y-113391303D01*
X148929671Y-113330151D01*
X148930831Y-113262279D01*
X148930659Y-113192147D01*
X148929158Y-113124214D01*
X148926330Y-113062938D01*
X148922175Y-113012779D01*
X148921422Y-113006118D01*
X148890658Y-112806834D01*
X148843944Y-112605726D01*
X148781680Y-112404093D01*
X148704264Y-112203233D01*
X148612097Y-112004446D01*
X148594277Y-111968997D01*
X148575413Y-111931279D01*
X148560436Y-111901112D01*
X148550557Y-111880937D01*
X148546986Y-111873196D01*
X148547261Y-111872999D01*
X148557522Y-111872041D01*
X148579631Y-111871367D01*
X148609522Y-111871113D01*
X148672093Y-111871113D01*
X148725528Y-111981529D01*
X148786906Y-112114505D01*
X148866398Y-112311453D01*
X148931054Y-112506487D01*
X148981489Y-112701534D01*
X149018318Y-112898520D01*
X149022650Y-112929647D01*
X149031258Y-113014401D01*
X149036871Y-113107044D01*
X149039481Y-113203528D01*
X149039078Y-113299809D01*
X149035654Y-113391841D01*
X149029200Y-113475579D01*
X149019708Y-113546976D01*
X149008782Y-113610339D01*
X149067450Y-113559336D01*
X149111345Y-113522091D01*
X149248882Y-113416989D01*
X149388213Y-113327827D01*
X149529003Y-113254782D01*
X149670917Y-113198038D01*
X149813617Y-113157773D01*
X149835685Y-113153526D01*
X149887685Y-113147084D01*
X149945936Y-113143484D01*
X150005903Y-113142727D01*
X150063053Y-113144818D01*
X150112850Y-113149758D01*
X150150762Y-113157552D01*
X150201192Y-113175858D01*
X150253740Y-113202626D01*
X150296484Y-113233359D01*
X150327148Y-113266373D01*
X150343456Y-113299988D01*
X150345073Y-113309388D01*
X150345736Y-113339025D01*
X150342460Y-113371084D01*
X150335979Y-113396113D01*
X150335630Y-113397200D01*
X150338010Y-113403268D01*
X150348880Y-113410476D01*
X150370130Y-113419661D01*
X150403650Y-113431663D01*
X150451329Y-113447320D01*
X150572015Y-113486028D01*
X150640172Y-113440409D01*
X150697537Y-113404020D01*
X150791222Y-113353986D01*
X150886261Y-113315383D01*
X150905659Y-113308926D01*
X150935700Y-113300710D01*
X150965513Y-113295758D01*
X151000722Y-113293267D01*
X151046951Y-113292434D01*
X151070280Y-113292366D01*
X151105824Y-113292908D01*
X151131854Y-113295031D01*
X151153106Y-113299561D01*
X151174315Y-113307324D01*
X151200213Y-113319143D01*
X151212683Y-113325337D01*
X151261622Y-113356630D01*
X151308546Y-113399372D01*
X151312121Y-113403184D01*
X151334120Y-113429411D01*
X151359328Y-113463040D01*
X151385852Y-113501113D01*
X151411799Y-113540672D01*
X151435275Y-113578761D01*
X151454388Y-113612421D01*
X151467245Y-113638696D01*
X151471951Y-113654627D01*
X151472940Y-113658515D01*
X151481219Y-113675625D01*
X151496540Y-113702354D01*
X151517257Y-113735897D01*
X151541723Y-113773447D01*
X151594784Y-113855708D01*
X151689848Y-114020957D01*
X151772142Y-114191126D01*
X151844144Y-114371113D01*
X151879282Y-114477097D01*
X151912198Y-114595465D01*
X151940765Y-114718517D01*
X151964252Y-114842390D01*
X151981932Y-114963224D01*
X151993075Y-115077158D01*
X151996951Y-115180329D01*
X151997050Y-115196284D01*
X151997856Y-115226103D01*
X151999297Y-115246737D01*
X152001162Y-115254446D01*
X152002609Y-115254254D01*
X152016662Y-115251612D01*
X152042935Y-115246350D01*
X152078371Y-115239086D01*
X152119912Y-115230438D01*
X152128340Y-115228679D01*
X152173760Y-115219416D01*
X152216124Y-115211108D01*
X152251020Y-115204607D01*
X152274034Y-115200761D01*
X152291469Y-115198449D01*
X152306654Y-115198302D01*
X152312597Y-115203615D01*
X152313617Y-115216058D01*
X152312094Y-115228064D01*
X152303248Y-115237074D01*
X152282368Y-115242571D01*
X152271025Y-115244619D01*
X152235853Y-115251248D01*
X152195039Y-115259233D01*
X152151724Y-115267926D01*
X152109052Y-115276678D01*
X152070167Y-115284839D01*
X152038211Y-115291761D01*
X152016328Y-115296795D01*
X152007661Y-115299291D01*
X152006442Y-115306241D01*
X152004441Y-115327457D01*
X152001987Y-115360215D01*
X152001889Y-115361716D01*
X151999284Y-115401787D01*
X151996534Y-115449447D01*
G37*
G36*
X149966640Y-115967095D02*
G01*
X149935954Y-116008345D01*
X149900994Y-116045755D01*
X149867784Y-116072101D01*
X149865444Y-116073483D01*
X149838230Y-116083641D01*
X149808017Y-116087748D01*
X149798189Y-116087547D01*
X149779005Y-116084079D01*
X149762841Y-116073670D01*
X149743434Y-116052946D01*
X149731887Y-116038492D01*
X149718737Y-116018665D01*
X149713617Y-116005816D01*
X149713195Y-116002799D01*
X149706021Y-115986379D01*
X149692784Y-115966205D01*
X149688181Y-115960011D01*
X149676592Y-115942572D01*
X149671951Y-115932437D01*
X149669590Y-115927555D01*
X149658340Y-115913163D01*
X149640946Y-115894230D01*
X149638786Y-115891946D01*
X149745974Y-115891946D01*
X149779796Y-115937201D01*
X149796558Y-115961084D01*
X149808902Y-115981559D01*
X149813617Y-115993451D01*
X149814134Y-115997788D01*
X149819867Y-116004133D01*
X149820532Y-116004049D01*
X149832444Y-115997463D01*
X149849934Y-115983507D01*
X149868275Y-115966527D01*
X149882745Y-115950870D01*
X149888618Y-115940883D01*
X149890584Y-115934207D01*
X149901117Y-115921113D01*
X149907779Y-115913955D01*
X149913617Y-115900219D01*
X149913401Y-115898961D01*
X149903460Y-115892041D01*
X149881658Y-115886863D01*
X149852091Y-115883875D01*
X149818855Y-115883525D01*
X149786046Y-115886262D01*
X149745974Y-115891946D01*
X149638786Y-115891946D01*
X149624102Y-115876417D01*
X149615908Y-115864005D01*
X149616330Y-115853483D01*
X149623750Y-115839712D01*
X149629966Y-115830494D01*
X149638874Y-115822793D01*
X149652753Y-115818108D01*
X149675498Y-115815248D01*
X149711005Y-115813021D01*
X149722241Y-115812475D01*
X149768971Y-115810924D01*
X149820456Y-115810056D01*
X149867447Y-115810045D01*
X149874765Y-115810132D01*
X149910583Y-115810915D01*
X149934163Y-115812749D01*
X149949312Y-115816497D01*
X149959832Y-115823022D01*
X149969530Y-115833185D01*
X149982421Y-115854734D01*
X149989337Y-115890515D01*
X149988019Y-115900219D01*
X149984044Y-115929499D01*
X149966640Y-115967095D01*
G37*
%TD*%
M02*
