%TF.GenerationSoftware,KiCad,Pcbnew,6.0.11+dfsg-1~bpo11+1*%
%TF.CreationDate,2023-07-13T21:30:59-04:00*%
%TF.ProjectId,ESP12,45535031-322e-46b6-9963-61645f706362,rev?*%
%TF.SameCoordinates,Original*%
%TF.FileFunction,Copper,L1,Top*%
%TF.FilePolarity,Positive*%
%FSLAX46Y46*%
G04 Gerber Fmt 4.6, Leading zero omitted, Abs format (unit mm)*
G04 Created by KiCad (PCBNEW 6.0.11+dfsg-1~bpo11+1) date 2023-07-13 21:30:59*
%MOMM*%
%LPD*%
G01*
G04 APERTURE LIST*
G04 Aperture macros list*
%AMRoundRect*
0 Rectangle with rounded corners*
0 $1 Rounding radius*
0 $2 $3 $4 $5 $6 $7 $8 $9 X,Y pos of 4 corners*
0 Add a 4 corners polygon primitive as box body*
4,1,4,$2,$3,$4,$5,$6,$7,$8,$9,$2,$3,0*
0 Add four circle primitives for the rounded corners*
1,1,$1+$1,$2,$3*
1,1,$1+$1,$4,$5*
1,1,$1+$1,$6,$7*
1,1,$1+$1,$8,$9*
0 Add four rect primitives between the rounded corners*
20,1,$1+$1,$2,$3,$4,$5,0*
20,1,$1+$1,$4,$5,$6,$7,0*
20,1,$1+$1,$6,$7,$8,$9,0*
20,1,$1+$1,$8,$9,$2,$3,0*%
G04 Aperture macros list end*
%TA.AperFunction,SMDPad,CuDef*%
%ADD10RoundRect,0.237500X-0.237500X0.400000X-0.237500X-0.400000X0.237500X-0.400000X0.237500X0.400000X0*%
%TD*%
%TA.AperFunction,SMDPad,CuDef*%
%ADD11RoundRect,0.250000X0.875000X0.925000X-0.875000X0.925000X-0.875000X-0.925000X0.875000X-0.925000X0*%
%TD*%
%TA.AperFunction,SMDPad,CuDef*%
%ADD12R,0.600000X1.450000*%
%TD*%
%TA.AperFunction,SMDPad,CuDef*%
%ADD13R,0.300000X1.450000*%
%TD*%
%TA.AperFunction,ComponentPad*%
%ADD14O,1.000000X2.100000*%
%TD*%
%TA.AperFunction,SMDPad,CuDef*%
%ADD15RoundRect,0.525000X-0.725000X-0.525000X0.725000X-0.525000X0.725000X0.525000X-0.725000X0.525000X0*%
%TD*%
%TA.AperFunction,SMDPad,CuDef*%
%ADD16RoundRect,0.400000X-1.600000X-0.400000X1.600000X-0.400000X1.600000X0.400000X-1.600000X0.400000X0*%
%TD*%
%TA.AperFunction,ComponentPad*%
%ADD17O,1.000000X1.600000*%
%TD*%
%TA.AperFunction,ComponentPad*%
%ADD18RoundRect,1.000000X2.000000X1.000000X-2.000000X1.000000X-2.000000X-1.000000X2.000000X-1.000000X0*%
%TD*%
%TA.AperFunction,SMDPad,CuDef*%
%ADD19RoundRect,0.237500X0.237500X-0.400000X0.237500X0.400000X-0.237500X0.400000X-0.237500X-0.400000X0*%
%TD*%
%TA.AperFunction,ComponentPad*%
%ADD20R,1.600000X1.600000*%
%TD*%
%TA.AperFunction,ComponentPad*%
%ADD21O,1.600000X1.600000*%
%TD*%
%TA.AperFunction,SMDPad,CuDef*%
%ADD22R,2.400000X3.000000*%
%TD*%
%TA.AperFunction,SMDPad,CuDef*%
%ADD23R,1.900000X0.800000*%
%TD*%
%TA.AperFunction,SMDPad,CuDef*%
%ADD24RoundRect,0.150000X-0.150000X0.825000X-0.150000X-0.825000X0.150000X-0.825000X0.150000X0.825000X0*%
%TD*%
%TA.AperFunction,SMDPad,CuDef*%
%ADD25RoundRect,0.237500X0.400000X0.237500X-0.400000X0.237500X-0.400000X-0.237500X0.400000X-0.237500X0*%
%TD*%
%TA.AperFunction,SMDPad,CuDef*%
%ADD26R,0.600000X1.600000*%
%TD*%
%TA.AperFunction,SMDPad,CuDef*%
%ADD27RoundRect,0.237500X-0.400000X-0.237500X0.400000X-0.237500X0.400000X0.237500X-0.400000X0.237500X0*%
%TD*%
%TA.AperFunction,SMDPad,CuDef*%
%ADD28RoundRect,0.250000X0.325000X0.450000X-0.325000X0.450000X-0.325000X-0.450000X0.325000X-0.450000X0*%
%TD*%
%TA.AperFunction,SMDPad,CuDef*%
%ADD29RoundRect,0.250000X-0.325000X-0.450000X0.325000X-0.450000X0.325000X0.450000X-0.325000X0.450000X0*%
%TD*%
%TA.AperFunction,SMDPad,CuDef*%
%ADD30R,2.000000X1.500000*%
%TD*%
%TA.AperFunction,SMDPad,CuDef*%
%ADD31R,2.000000X3.800000*%
%TD*%
%TA.AperFunction,ComponentPad*%
%ADD32R,1.300000X0.900000*%
%TD*%
%TA.AperFunction,ComponentPad*%
%ADD33O,2.000000X0.950000*%
%TD*%
%TA.AperFunction,ComponentPad*%
%ADD34O,0.950000X2.000000*%
%TD*%
%TA.AperFunction,ComponentPad*%
%ADD35R,0.900000X1.300000*%
%TD*%
%TA.AperFunction,ViaPad*%
%ADD36C,0.800000*%
%TD*%
%TA.AperFunction,ViaPad*%
%ADD37C,0.400000*%
%TD*%
%TA.AperFunction,Conductor*%
%ADD38C,0.600000*%
%TD*%
%TA.AperFunction,Conductor*%
%ADD39C,0.250000*%
%TD*%
%TA.AperFunction,Conductor*%
%ADD40C,0.500000*%
%TD*%
%TA.AperFunction,Conductor*%
%ADD41C,0.200000*%
%TD*%
G04 APERTURE END LIST*
D10*
%TO.P,C2,1*%
%TO.N,Net-(C2-Pad1)*%
X136000000Y-108154955D03*
%TO.P,C2,2*%
%TO.N,GND*%
X136000000Y-110279955D03*
%TD*%
D11*
%TO.P,C5,1*%
%TO.N,+3.3V*%
X162055545Y-106722019D03*
%TO.P,C5,2*%
%TO.N,GND*%
X156955545Y-106722019D03*
%TD*%
D12*
%TO.P,J1,A1,GND*%
%TO.N,GND*%
X146750000Y-116502455D03*
%TO.P,J1,A4,VBUS*%
%TO.N,Vcc*%
X147550000Y-116502455D03*
D13*
%TO.P,J1,A5,CC1*%
%TO.N,CC1*%
X148750000Y-116502455D03*
%TO.P,J1,A6,D+*%
%TO.N,UD+*%
X149750000Y-116502455D03*
%TO.P,J1,A7,D-*%
%TO.N,UD-*%
X150250000Y-116502455D03*
%TO.P,J1,A8,SBU1*%
%TO.N,unconnected-(J1-PadA8)*%
X151250000Y-116502455D03*
D12*
%TO.P,J1,A9,VBUS*%
%TO.N,Vcc*%
X152450000Y-116502455D03*
%TO.P,J1,A12,GND*%
%TO.N,GND*%
X153250000Y-116502455D03*
%TO.P,J1,B1,GND*%
X153250000Y-116502455D03*
%TO.P,J1,B4,VBUS*%
%TO.N,Vcc*%
X152450000Y-116502455D03*
D13*
%TO.P,J1,B5,CC2*%
%TO.N,CC2*%
X151750000Y-116502455D03*
%TO.P,J1,B6,D+*%
%TO.N,UD+*%
X150750000Y-116502455D03*
%TO.P,J1,B7,D-*%
%TO.N,UD-*%
X149250000Y-116502455D03*
%TO.P,J1,B8,SBU2*%
%TO.N,unconnected-(J1-PadB8)*%
X148250000Y-116502455D03*
D12*
%TO.P,J1,B9,VBUS*%
%TO.N,Vcc*%
X147550000Y-116502455D03*
%TO.P,J1,B12,GND*%
%TO.N,GND*%
X146750000Y-116502455D03*
D14*
%TO.P,J1,S1,SHIELD*%
X154320000Y-117417455D03*
D15*
X155096965Y-117429250D03*
D16*
X144153035Y-121597455D03*
D17*
X154320000Y-121597455D03*
X145680000Y-121597455D03*
D14*
X145680000Y-117417455D03*
D16*
X155846965Y-121597455D03*
D18*
X150000000Y-121817455D03*
D15*
X144903035Y-117429250D03*
%TD*%
D19*
%TO.P,R2,1*%
%TO.N,+3.3V*%
X137000000Y-90062500D03*
%TO.P,R2,2*%
%TO.N,EN*%
X137000000Y-87937500D03*
%TD*%
D20*
%TO.P,SW2,1*%
%TO.N,GND*%
X153810000Y-97500000D03*
D21*
%TO.P,SW2,2*%
%TO.N,mGND*%
X146190000Y-97500000D03*
%TD*%
D22*
%TO.P,Y1,1,1*%
%TO.N,Net-(C1-Pad1)*%
X139500000Y-113317455D03*
%TO.P,Y1,2,2*%
%TO.N,Net-(C2-Pad1)*%
X139500000Y-108617455D03*
%TD*%
D23*
%TO.P,Q1,1,B*%
%TO.N,DTR*%
X150721453Y-102950000D03*
%TO.P,Q1,2,E*%
%TO.N,RTS*%
X150721453Y-101050000D03*
%TO.P,Q1,3,C*%
%TO.N,RST*%
X147721453Y-102000000D03*
%TD*%
D19*
%TO.P,R3,1*%
%TO.N,CC1*%
X142680000Y-119569955D03*
%TO.P,R3,2*%
%TO.N,GND*%
X142680000Y-117444955D03*
%TD*%
%TO.P,R4,1*%
%TO.N,CC2*%
X157320000Y-119569955D03*
%TO.P,R4,2*%
%TO.N,GND*%
X157320000Y-117444955D03*
%TD*%
D10*
%TO.P,R7,1*%
%TO.N,io15*%
X163000000Y-87937500D03*
%TO.P,R7,2*%
%TO.N,mGND*%
X163000000Y-90062500D03*
%TD*%
D19*
%TO.P,C4,1*%
%TO.N,Vcc*%
X154387518Y-112993433D03*
%TO.P,C4,2*%
%TO.N,GND*%
X154387518Y-110868433D03*
%TD*%
D24*
%TO.P,U1,1,GND*%
%TO.N,GND*%
X152450000Y-108012455D03*
%TO.P,U1,2,TXD*%
%TO.N,RxD*%
X151180000Y-108012455D03*
%TO.P,U1,3,RXD*%
%TO.N,TxD*%
X149910000Y-108012455D03*
%TO.P,U1,4,V3*%
%TO.N,+3.3V*%
X148640000Y-108012455D03*
%TO.P,U1,5,UD+*%
%TO.N,UD+*%
X147370000Y-108012455D03*
%TO.P,U1,6,UD-*%
%TO.N,UD-*%
X146100000Y-108012455D03*
%TO.P,U1,7,XI*%
%TO.N,Net-(C1-Pad1)*%
X144830000Y-108012455D03*
%TO.P,U1,8,XO*%
%TO.N,Net-(C2-Pad1)*%
X143560000Y-108012455D03*
%TO.P,U1,9,~{CTS}*%
%TO.N,CTS*%
X143560000Y-112962455D03*
%TO.P,U1,10,~{DSR}*%
%TO.N,DSR*%
X144830000Y-112962455D03*
%TO.P,U1,11,~{RI}*%
%TO.N,RI*%
X146100000Y-112962455D03*
%TO.P,U1,12,~{DCD}*%
%TO.N,DCD*%
X147370000Y-112962455D03*
%TO.P,U1,13,~{DTR}*%
%TO.N,DTR*%
X148640000Y-112962455D03*
%TO.P,U1,14,~{RTS}*%
%TO.N,RTS*%
X149910000Y-112962455D03*
%TO.P,U1,15,R232*%
%TO.N,unconnected-(U1-Pad15)*%
X151180000Y-112962455D03*
%TO.P,U1,16,VCC*%
%TO.N,Vcc*%
X152450000Y-112962455D03*
%TD*%
D25*
%TO.P,R5,1*%
%TO.N,Net-(D1-Pad1)*%
X158062500Y-95000000D03*
%TO.P,R5,2*%
%TO.N,GND*%
X155937500Y-95000000D03*
%TD*%
D26*
%TO.P,SW1,1,1*%
%TO.N,RST*%
X138150000Y-99740491D03*
X138150000Y-103440491D03*
%TO.P,SW1,2,2*%
%TO.N,GND*%
X136450000Y-99740491D03*
X136450000Y-103440491D03*
%TD*%
D23*
%TO.P,Q2,1,B*%
%TO.N,RTS*%
X153580000Y-101050000D03*
%TO.P,Q2,2,E*%
%TO.N,DTR*%
X153580000Y-102950000D03*
%TO.P,Q2,3,C*%
%TO.N,io0*%
X156580000Y-102000000D03*
%TD*%
D27*
%TO.P,R6,1*%
%TO.N,Net-(D2-Pad1)*%
X141937500Y-95000000D03*
%TO.P,R6,2*%
%TO.N,mGND*%
X144062500Y-95000000D03*
%TD*%
D28*
%TO.P,D1,1,K*%
%TO.N,Net-(D1-Pad1)*%
X158025000Y-97500000D03*
%TO.P,D1,2,A*%
%TO.N,+3.3V*%
X155975000Y-97500000D03*
%TD*%
D19*
%TO.P,C1,1*%
%TO.N,Net-(C1-Pad1)*%
X136000000Y-113779955D03*
%TO.P,C1,2*%
%TO.N,GND*%
X136000000Y-111654955D03*
%TD*%
D29*
%TO.P,D2,1,K*%
%TO.N,Net-(D2-Pad1)*%
X141975000Y-97500000D03*
%TO.P,D2,2,A*%
%TO.N,+3.3V*%
X144025000Y-97500000D03*
%TD*%
D30*
%TO.P,U2,1,GND*%
%TO.N,GND*%
X156955545Y-109973364D03*
%TO.P,U2,2,VO*%
%TO.N,+3.3V*%
X156955545Y-112273364D03*
D31*
X163255545Y-112273364D03*
D30*
%TO.P,U2,3,VI*%
%TO.N,Vcc*%
X156955545Y-114573364D03*
%TD*%
D32*
%TO.P,Um1,1,~{RST}_(EXT_RSTB)*%
%TO.N,RST*%
X140150000Y-72923046D03*
D33*
X142000000Y-72923046D03*
%TO.P,Um1,2,ADC_(TOUT)*%
%TO.N,unconnected-(Um1-Pad2)*%
X142000000Y-74923046D03*
D32*
X140150000Y-74923046D03*
%TO.P,Um1,3,EN_(CHIP_PU)*%
%TO.N,EN*%
X140150000Y-76923046D03*
D33*
X142000000Y-76923046D03*
D32*
%TO.P,Um1,4,(XPD_DCDC)_GPIO16*%
%TO.N,unconnected-(Um1-Pad4)*%
X140150000Y-78923046D03*
D33*
X142000000Y-78923046D03*
%TO.P,Um1,5,(MTMS)_GPIO14*%
%TO.N,unconnected-(Um1-Pad5)*%
X142000000Y-80923046D03*
D32*
X140150000Y-80923046D03*
%TO.P,Um1,6,(MTDI)_GPIO12*%
%TO.N,unconnected-(Um1-Pad6)*%
X140150000Y-82923046D03*
D33*
X142000000Y-82923046D03*
D32*
%TO.P,Um1,7,(MTCK)_GPIO13*%
%TO.N,unconnected-(Um1-Pad7)*%
X140150000Y-84923046D03*
D33*
X142000000Y-84923046D03*
%TO.P,Um1,8,Vcc*%
%TO.N,+3.3V*%
X142000000Y-86923046D03*
D32*
X140150000Y-86923046D03*
D33*
%TO.P,Um1,9,GND*%
%TO.N,mGND*%
X158000000Y-86923046D03*
D32*
X159850000Y-86923046D03*
%TO.P,Um1,10,(MTDO)_GPIO15*%
%TO.N,io15*%
X159850000Y-84923046D03*
D33*
X158000000Y-84923046D03*
D32*
%TO.P,Um1,11,GPIO2*%
%TO.N,unconnected-(Um1-Pad11)*%
X159850000Y-82923046D03*
D33*
X158000000Y-82923046D03*
D32*
%TO.P,Um1,12,GPIO0*%
%TO.N,io0*%
X159850000Y-80923046D03*
D33*
X158000000Y-80923046D03*
%TO.P,Um1,13,GPIO4*%
%TO.N,unconnected-(Um1-Pad13)*%
X158000000Y-78923046D03*
D32*
X159850000Y-78923046D03*
D33*
%TO.P,Um1,14,GPIO5*%
%TO.N,unconnected-(Um1-Pad14)*%
X158000000Y-76923046D03*
D32*
X159850000Y-76923046D03*
D33*
%TO.P,Um1,15,(U0RXD)_GPIO3*%
%TO.N,RxD*%
X158000000Y-74923046D03*
D32*
X159850000Y-74923046D03*
D33*
%TO.P,Um1,16,(U0TXD)_GPIO1*%
%TO.N,TxD*%
X158000000Y-72923046D03*
D32*
X159850000Y-72923046D03*
D34*
%TO.P,Um1,17,?_(SDIO_CMD)_GPIO11*%
%TO.N,unconnected-(Um1-Pad17)*%
X145000000Y-88408046D03*
D35*
X145000000Y-90258046D03*
D34*
%TO.P,Um1,18,?_(SDIO_DATA_0)_GPIO7*%
%TO.N,unconnected-(Um1-Pad18)*%
X147000000Y-88408046D03*
D35*
X147000000Y-90258046D03*
%TO.P,Um1,19,(SDIO_DATA_2)_GPIO9*%
%TO.N,unconnected-(Um1-Pad19)*%
X149000000Y-90258046D03*
D34*
X149000000Y-88358046D03*
%TO.P,Um1,20,(SDIO_DATA_3)_GPIO10*%
%TO.N,unconnected-(Um1-Pad20)*%
X151000000Y-88408046D03*
D35*
X151000000Y-90258046D03*
D34*
%TO.P,Um1,21,?_(SDIO_DATA_1)_GPIO8*%
%TO.N,unconnected-(Um1-Pad21)*%
X153000000Y-88408046D03*
D35*
X153000000Y-90258046D03*
%TO.P,Um1,22,?_(SDIO_CLK)_GPIO6*%
%TO.N,unconnected-(Um1-Pad22)*%
X155000000Y-90258046D03*
D34*
X155000000Y-88408046D03*
%TD*%
D25*
%TO.P,C3,1*%
%TO.N,+3.3V*%
X148636090Y-105773720D03*
%TO.P,C3,2*%
%TO.N,GND*%
X146511090Y-105773720D03*
%TD*%
D19*
%TO.P,R8,1*%
%TO.N,+3.3V*%
X165000000Y-90062500D03*
%TO.P,R8,2*%
%TO.N,io0*%
X165000000Y-87937500D03*
%TD*%
D27*
%TO.P,R1,1*%
%TO.N,+3.3V*%
X141937500Y-103000000D03*
%TO.P,R1,2*%
%TO.N,RST*%
X144062500Y-103000000D03*
%TD*%
D36*
%TO.N,GND*%
X146557590Y-105773720D03*
X142680000Y-117637455D03*
X136000000Y-110967455D03*
X156300000Y-106015601D03*
X156300000Y-107402273D03*
X157320000Y-117637455D03*
X136450000Y-101590491D03*
%TO.N,RxD*%
X151163498Y-107247455D03*
%TO.N,TxD*%
X149910000Y-107147455D03*
%TO.N,RST*%
X138150000Y-102000000D03*
%TO.N,io0*%
X157119480Y-101846154D03*
%TO.N,DTR*%
X148640000Y-112047455D03*
X154100000Y-102997589D03*
%TO.N,RTS*%
X154100000Y-101050536D03*
X149910000Y-112047455D03*
D37*
%TO.N,UD+*%
X149850000Y-115441595D03*
D36*
X147370000Y-111047455D03*
D37*
%TO.N,UD-*%
X149150000Y-115441595D03*
D36*
X146100000Y-111047455D03*
%TD*%
D38*
%TO.N,GND*%
X146595000Y-116502455D02*
X145680000Y-117417455D01*
X146750000Y-116502455D02*
X146595000Y-116502455D01*
X153250000Y-116502455D02*
X153405000Y-116502455D01*
D39*
X142680000Y-117637455D02*
X144694830Y-117637455D01*
D38*
X153405000Y-116502455D02*
X154320000Y-117417455D01*
D39*
X155080000Y-94920000D02*
X154890000Y-94920000D01*
X153810000Y-96000000D02*
X153810000Y-97500000D01*
X155937500Y-95000000D02*
X155160000Y-95000000D01*
X136450000Y-99740491D02*
X136450000Y-103440491D01*
X157320000Y-117637455D02*
X155305170Y-117637455D01*
X155160000Y-95000000D02*
X155080000Y-94920000D01*
X144694830Y-117637455D02*
X144903035Y-117429250D01*
X155305170Y-117637455D02*
X155096965Y-117429250D01*
X154890000Y-94920000D02*
X153810000Y-96000000D01*
%TO.N,Net-(C1-Pad1)*%
X136462500Y-113317455D02*
X139500000Y-113317455D01*
X139500000Y-113317455D02*
X142657455Y-110160000D01*
X142657455Y-110160000D02*
X143900523Y-110160000D01*
X144830000Y-109230523D02*
X143900523Y-110160000D01*
X136000000Y-113779955D02*
X136462500Y-113317455D01*
X144830000Y-108012455D02*
X144830000Y-109230523D01*
%TO.N,Net-(C2-Pad1)*%
X136462500Y-108617455D02*
X139500000Y-108617455D01*
X142955000Y-108617455D02*
X143560000Y-108012455D01*
X139500000Y-108617455D02*
X142955000Y-108617455D01*
X136000000Y-108154955D02*
X136462500Y-108617455D01*
%TO.N,RxD*%
X159550000Y-74923046D02*
X158000000Y-74923046D01*
%TO.N,TxD*%
X158000000Y-72923046D02*
X159550000Y-72923046D01*
%TO.N,RST*%
X145062500Y-102000000D02*
X144062500Y-103000000D01*
X138150000Y-101690000D02*
X138150000Y-103440491D01*
X138150000Y-99740491D02*
X138150000Y-101690000D01*
X147721453Y-102000000D02*
X145062500Y-102000000D01*
X142000000Y-72923046D02*
X140450000Y-72923046D01*
X147721453Y-102000000D02*
X138150000Y-102000000D01*
%TO.N,io0*%
X165000000Y-84520000D02*
X165000000Y-87937500D01*
X159550000Y-80923046D02*
X161403046Y-80923046D01*
X158000000Y-80923046D02*
X159550000Y-80923046D01*
X161403046Y-80923046D02*
X165000000Y-84520000D01*
%TO.N,DTR*%
X150721453Y-102940491D02*
X153576319Y-102940491D01*
%TO.N,RTS*%
X150721453Y-101040491D02*
X153576319Y-101040491D01*
D38*
%TO.N,Vcc*%
X152450000Y-114987602D02*
X152228502Y-114766104D01*
D40*
X148311351Y-114766104D02*
X151844585Y-114766104D01*
D38*
X147550000Y-114978677D02*
X147762573Y-114766104D01*
X152450000Y-115477455D02*
X152450000Y-114987602D01*
X152228502Y-114766104D02*
X151844585Y-114766104D01*
X152450000Y-114987602D02*
X152450000Y-113179455D01*
X152450000Y-116502455D02*
X152450000Y-115477455D01*
X152228502Y-114766104D02*
X152421242Y-114573364D01*
X154085909Y-114573364D02*
X156955545Y-114573364D01*
X147550000Y-116502455D02*
X147550000Y-114978677D01*
X152421242Y-114573364D02*
X154085909Y-114573364D01*
X147762573Y-114766104D02*
X148311351Y-114766104D01*
D41*
%TO.N,UD+*%
X149750000Y-115527455D02*
X149800000Y-115477455D01*
X147370000Y-108012455D02*
X147370000Y-111047455D01*
X149750000Y-116502455D02*
X149750000Y-115527455D01*
X150700000Y-115477455D02*
X150750000Y-115527455D01*
X149800000Y-115477455D02*
X150700000Y-115477455D01*
X150750000Y-115527455D02*
X150750000Y-116502455D01*
%TO.N,UD-*%
X149300000Y-117527455D02*
X150200000Y-117527455D01*
X150250000Y-117477455D02*
X150250000Y-116502455D01*
X149250000Y-115591595D02*
X149150000Y-115491595D01*
X149250000Y-117477455D02*
X149300000Y-117527455D01*
X149250000Y-116502455D02*
X149250000Y-115591595D01*
X149250000Y-116502455D02*
X149250000Y-117477455D01*
X150200000Y-117527455D02*
X150250000Y-117477455D01*
X146100000Y-108012455D02*
X146100000Y-111047455D01*
D39*
%TO.N,+3.3V*%
X148857000Y-105777630D02*
X148853090Y-105773720D01*
X140450000Y-86923046D02*
X142000000Y-86923046D01*
D38*
X148640000Y-108012455D02*
X148640000Y-105777630D01*
D39*
%TO.N,EN*%
X138605263Y-76923046D02*
X137000000Y-78528309D01*
X140450000Y-76923046D02*
X138605263Y-76923046D01*
X142000000Y-76923046D02*
X140450000Y-76923046D01*
X137000000Y-78528309D02*
X137000000Y-87937500D01*
%TO.N,CC1*%
X146707500Y-119569955D02*
X142680000Y-119569955D01*
X148725000Y-116527455D02*
X148725000Y-117552455D01*
X148725000Y-117552455D02*
X146707500Y-119569955D01*
X148750000Y-116502455D02*
X148725000Y-116527455D01*
%TO.N,CC2*%
X153052132Y-119569955D02*
X151750000Y-118267823D01*
X151750000Y-118267823D02*
X151750000Y-116502455D01*
X157320000Y-119569955D02*
X153052132Y-119569955D01*
%TO.N,Net-(D1-Pad1)*%
X158062500Y-95000000D02*
X158062500Y-97462500D01*
X158062500Y-97462500D02*
X158025000Y-97500000D01*
%TO.N,Net-(D2-Pad1)*%
X141937500Y-97462500D02*
X141975000Y-97500000D01*
X141937500Y-95000000D02*
X141937500Y-97462500D01*
%TO.N,unconnected-(Um1-Pad2)*%
X140450000Y-74923046D02*
X142000000Y-74923046D01*
%TO.N,unconnected-(Um1-Pad4)*%
X140450000Y-78923046D02*
X142000000Y-78923046D01*
%TO.N,unconnected-(Um1-Pad5)*%
X142000000Y-80923046D02*
X140450000Y-80923046D01*
%TO.N,unconnected-(Um1-Pad6)*%
X140450000Y-82923046D02*
X142000000Y-82923046D01*
%TO.N,unconnected-(Um1-Pad7)*%
X142000000Y-84923046D02*
X140450000Y-84923046D01*
%TO.N,unconnected-(Um1-Pad11)*%
X159550000Y-82923046D02*
X158000000Y-82923046D01*
%TO.N,unconnected-(Um1-Pad13)*%
X159550000Y-78923046D02*
X158000000Y-78923046D01*
%TO.N,unconnected-(Um1-Pad14)*%
X158000000Y-76923046D02*
X159550000Y-76923046D01*
%TO.N,unconnected-(Um1-Pad17)*%
X145000000Y-89958046D02*
X145000000Y-88408046D01*
%TO.N,unconnected-(Um1-Pad18)*%
X147000000Y-89958046D02*
X147000000Y-88408046D01*
%TO.N,unconnected-(Um1-Pad19)*%
X149000000Y-89958046D02*
X149000000Y-88358046D01*
%TO.N,unconnected-(Um1-Pad20)*%
X151000000Y-89958046D02*
X151000000Y-88408046D01*
%TO.N,unconnected-(Um1-Pad21)*%
X153000000Y-89958046D02*
X153000000Y-88408046D01*
%TO.N,unconnected-(Um1-Pad22)*%
X155000000Y-88408046D02*
X155000000Y-89958046D01*
%TO.N,io15*%
X159550000Y-84923046D02*
X161518991Y-84923046D01*
X161518991Y-84923046D02*
X163000000Y-86404055D01*
X159550000Y-84923046D02*
X158000000Y-84923046D01*
X163000000Y-86404055D02*
X163000000Y-87937500D01*
D40*
%TO.N,mGND*%
X163000000Y-90062500D02*
X160415016Y-90062500D01*
X144062500Y-95000000D02*
X145190000Y-95000000D01*
X160415016Y-90062500D02*
X159128758Y-91348758D01*
X146190000Y-96000000D02*
X146190000Y-97500000D01*
X158000000Y-86923046D02*
X159550000Y-86923046D01*
X157610615Y-92866901D02*
X149323099Y-92866901D01*
X159550000Y-86923046D02*
X159550000Y-90927516D01*
X145190000Y-95000000D02*
X146190000Y-96000000D01*
X159550000Y-90927516D02*
X159128758Y-91348758D01*
X159128758Y-91348758D02*
X157610615Y-92866901D01*
X149323099Y-92866901D02*
X146190000Y-96000000D01*
%TD*%
%TA.AperFunction,Conductor*%
%TO.N,Vcc*%
G36*
X153502950Y-112780086D02*
G01*
X153517341Y-112790859D01*
X153518383Y-112791762D01*
X153526066Y-112793433D01*
X155244402Y-112793433D01*
X155278194Y-112783511D01*
X155306703Y-112765188D01*
X155342203Y-112760084D01*
X155429046Y-112760084D01*
X155497167Y-112780086D01*
X155543660Y-112833742D01*
X155555046Y-112886084D01*
X155555046Y-113054882D01*
X155569899Y-113148668D01*
X155627495Y-113261706D01*
X155700411Y-113334622D01*
X155734437Y-113396934D01*
X155729372Y-113467749D01*
X155700411Y-113512812D01*
X155634915Y-113578308D01*
X155623404Y-113594151D01*
X155574881Y-113689382D01*
X155568829Y-113708009D01*
X155556320Y-113786991D01*
X155555545Y-113796837D01*
X155555545Y-114355249D01*
X155560020Y-114370488D01*
X155561410Y-114371693D01*
X155569093Y-114373364D01*
X158337429Y-114373364D01*
X158352668Y-114368889D01*
X158353873Y-114367499D01*
X158355544Y-114359816D01*
X158355544Y-113858232D01*
X158375546Y-113790111D01*
X158429202Y-113743618D01*
X158481993Y-113732233D01*
X161729495Y-113743797D01*
X161797544Y-113764041D01*
X161843845Y-113817862D01*
X161855046Y-113869796D01*
X161855046Y-114204882D01*
X161869899Y-114298668D01*
X161874400Y-114307501D01*
X161874402Y-114307506D01*
X161880349Y-114319178D01*
X161927495Y-114411706D01*
X162017203Y-114501414D01*
X162130241Y-114559010D01*
X162140030Y-114560560D01*
X162140032Y-114560561D01*
X162167394Y-114564894D01*
X162224026Y-114573864D01*
X163255336Y-114573864D01*
X164287063Y-114573863D01*
X164291957Y-114573088D01*
X164371051Y-114560562D01*
X164371053Y-114560561D01*
X164380849Y-114559010D01*
X164493887Y-114501414D01*
X164583595Y-114411706D01*
X164641191Y-114298668D01*
X164644983Y-114274730D01*
X164655270Y-114209776D01*
X164656045Y-114204883D01*
X164656045Y-113880667D01*
X164676047Y-113812546D01*
X164729703Y-113766053D01*
X164782494Y-113754668D01*
X167026949Y-113762660D01*
X167094998Y-113782904D01*
X167141299Y-113836725D01*
X167152500Y-113888659D01*
X167152500Y-117421564D01*
X167150949Y-117441274D01*
X167147508Y-117463000D01*
X167148714Y-117470614D01*
X167149059Y-117474117D01*
X167149059Y-117474166D01*
X167149079Y-117474322D01*
X167166065Y-117646782D01*
X167167860Y-117652700D01*
X167167861Y-117652704D01*
X167217875Y-117817579D01*
X167219672Y-117823502D01*
X167306726Y-117986367D01*
X167310657Y-117991157D01*
X167394021Y-118092736D01*
X167423880Y-118129120D01*
X167428665Y-118133047D01*
X167542079Y-118226123D01*
X167582048Y-118284800D01*
X167588145Y-118322944D01*
X167592513Y-119274771D01*
X167572825Y-119342980D01*
X167546453Y-119372741D01*
X167423880Y-119473334D01*
X167419953Y-119478119D01*
X167310657Y-119611297D01*
X167306726Y-119616087D01*
X167219672Y-119778952D01*
X167217876Y-119784872D01*
X167217875Y-119784875D01*
X167187892Y-119883718D01*
X167166065Y-119955672D01*
X167165458Y-119961835D01*
X167149079Y-120128132D01*
X167148327Y-120133996D01*
X167148282Y-120134566D01*
X167147508Y-120139454D01*
X167147508Y-120139458D01*
X167148283Y-120144350D01*
X167148283Y-120144353D01*
X167149361Y-120151158D01*
X167150779Y-120176688D01*
X167137998Y-120453202D01*
X167135520Y-120506823D01*
X167134446Y-120518409D01*
X167105651Y-120724850D01*
X167084445Y-120876876D01*
X167082307Y-120888313D01*
X166999458Y-121240581D01*
X166999449Y-121240618D01*
X166996264Y-121251812D01*
X166881242Y-121594998D01*
X166877045Y-121605833D01*
X166730846Y-121936952D01*
X166725671Y-121947342D01*
X166590951Y-122189215D01*
X166549550Y-122263546D01*
X166543425Y-122273438D01*
X166338882Y-122572039D01*
X166331880Y-122581311D01*
X166185757Y-122757282D01*
X166100661Y-122859760D01*
X166092821Y-122868361D01*
X165836897Y-123124288D01*
X165828296Y-123132129D01*
X165549852Y-123363348D01*
X165540564Y-123370362D01*
X165241971Y-123574904D01*
X165232077Y-123581030D01*
X164915879Y-123757153D01*
X164905480Y-123762331D01*
X164574369Y-123908532D01*
X164563537Y-123912728D01*
X164220360Y-124027751D01*
X164209170Y-124030935D01*
X163950185Y-124091848D01*
X163856856Y-124113799D01*
X163845416Y-124115938D01*
X163486953Y-124165942D01*
X163475364Y-124167016D01*
X163145460Y-124182268D01*
X163119934Y-124180851D01*
X163117800Y-124180513D01*
X163117792Y-124180513D01*
X163108000Y-124178962D01*
X163098207Y-124180513D01*
X163086274Y-124182403D01*
X163066564Y-124183954D01*
X152896950Y-124183954D01*
X152828829Y-124163952D01*
X152782336Y-124110296D01*
X152772232Y-124040022D01*
X152801726Y-123975442D01*
X152815706Y-123961645D01*
X152989812Y-123814774D01*
X152993884Y-123811339D01*
X153147134Y-123629671D01*
X153267583Y-123424779D01*
X153351789Y-123202522D01*
X153366263Y-123128408D01*
X153396506Y-122973541D01*
X153397343Y-122969255D01*
X153397672Y-122963185D01*
X153400409Y-122912649D01*
X153400409Y-122912634D01*
X153400500Y-122910961D01*
X153400500Y-122580077D01*
X153420502Y-122511956D01*
X153474158Y-122465463D01*
X153544432Y-122455359D01*
X153609012Y-122484853D01*
X153624971Y-122501468D01*
X153677345Y-122567075D01*
X153817699Y-122679119D01*
X153979388Y-122757282D01*
X153986249Y-122758866D01*
X154149177Y-122796481D01*
X154149180Y-122796481D01*
X154154376Y-122797681D01*
X154159128Y-122797955D01*
X154414646Y-122797955D01*
X157534801Y-122797954D01*
X157539554Y-122797681D01*
X157714542Y-122757282D01*
X157876231Y-122679119D01*
X158016585Y-122567075D01*
X158128629Y-122426721D01*
X158206792Y-122265032D01*
X158239108Y-122125056D01*
X158245991Y-122095243D01*
X158245991Y-122095240D01*
X158247191Y-122090044D01*
X158247465Y-122085292D01*
X158247464Y-121109619D01*
X158247191Y-121104866D01*
X158206792Y-120929878D01*
X158128629Y-120768189D01*
X158016585Y-120627835D01*
X158011080Y-120623440D01*
X158007325Y-120620442D01*
X157966569Y-120562309D01*
X157963712Y-120491370D01*
X157996844Y-120432880D01*
X158065626Y-120364098D01*
X158069657Y-120357282D01*
X158069660Y-120357278D01*
X158143646Y-120232172D01*
X158147681Y-120225349D01*
X158163483Y-120170958D01*
X158181789Y-120107952D01*
X161102637Y-120107952D01*
X161102881Y-120112387D01*
X161102881Y-120112391D01*
X161117488Y-120377796D01*
X161118205Y-120390825D01*
X161135561Y-120478081D01*
X161163879Y-120620442D01*
X161173474Y-120668681D01*
X161174950Y-120672884D01*
X161246587Y-120876876D01*
X161267342Y-120935979D01*
X161269395Y-120939932D01*
X161269398Y-120939938D01*
X161343360Y-121082320D01*
X161397936Y-121187383D01*
X161400519Y-121190998D01*
X161400523Y-121191004D01*
X161480142Y-121302418D01*
X161562651Y-121417879D01*
X161565729Y-121421106D01*
X161565731Y-121421108D01*
X161741966Y-121605850D01*
X161758199Y-121622867D01*
X161980680Y-121798256D01*
X162090927Y-121862292D01*
X162221807Y-121938314D01*
X162221813Y-121938317D01*
X162225654Y-121940548D01*
X162488232Y-122046903D01*
X162492545Y-122047974D01*
X162492550Y-122047976D01*
X162758856Y-122114127D01*
X162758861Y-122114128D01*
X162763177Y-122115200D01*
X162767605Y-122115654D01*
X162767607Y-122115654D01*
X162843307Y-122123410D01*
X163004790Y-122139955D01*
X163180170Y-122139955D01*
X163390593Y-122125056D01*
X163394948Y-122124118D01*
X163394951Y-122124118D01*
X163663200Y-122066366D01*
X163663202Y-122066366D01*
X163667547Y-122065430D01*
X163933337Y-121967375D01*
X163970456Y-121947347D01*
X164178744Y-121834961D01*
X164182660Y-121832848D01*
X164410540Y-121664533D01*
X164475575Y-121600512D01*
X164609249Y-121468920D01*
X164612430Y-121465789D01*
X164615131Y-121462249D01*
X164615137Y-121462243D01*
X164781602Y-121244122D01*
X164781605Y-121244118D01*
X164784304Y-121240581D01*
X164857646Y-121109619D01*
X164920552Y-120997292D01*
X164920555Y-120997287D01*
X164922730Y-120993402D01*
X164944652Y-120936739D01*
X165023341Y-120733340D01*
X165023343Y-120733334D01*
X165024948Y-120729185D01*
X165088918Y-120453202D01*
X165113363Y-120170958D01*
X165112395Y-120153362D01*
X165098040Y-119892528D01*
X165098039Y-119892521D01*
X165097795Y-119888085D01*
X165044778Y-119621550D01*
X165043396Y-119614601D01*
X165043395Y-119614596D01*
X165042526Y-119610229D01*
X165021279Y-119549725D01*
X164950136Y-119347139D01*
X164950135Y-119347136D01*
X164948658Y-119342931D01*
X164946605Y-119338978D01*
X164946602Y-119338972D01*
X164872640Y-119196590D01*
X164818064Y-119091527D01*
X164815481Y-119087912D01*
X164815477Y-119087906D01*
X164681315Y-118900166D01*
X164653349Y-118861031D01*
X164637800Y-118844731D01*
X164460876Y-118659266D01*
X164460873Y-118659263D01*
X164457801Y-118656043D01*
X164235320Y-118480654D01*
X164125073Y-118416618D01*
X163994193Y-118340596D01*
X163994187Y-118340593D01*
X163990346Y-118338362D01*
X163976157Y-118332615D01*
X163731894Y-118233678D01*
X163731891Y-118233677D01*
X163727768Y-118232007D01*
X163723455Y-118230936D01*
X163723450Y-118230934D01*
X163457144Y-118164783D01*
X163457139Y-118164782D01*
X163452823Y-118163710D01*
X163448395Y-118163256D01*
X163448393Y-118163256D01*
X163353552Y-118153539D01*
X163211210Y-118138955D01*
X163035830Y-118138955D01*
X162825407Y-118153854D01*
X162821052Y-118154792D01*
X162821049Y-118154792D01*
X162552800Y-118212544D01*
X162552798Y-118212544D01*
X162548453Y-118213480D01*
X162282663Y-118311535D01*
X162278745Y-118313649D01*
X162043480Y-118440591D01*
X162033340Y-118446062D01*
X161805460Y-118614377D01*
X161802281Y-118617506D01*
X161802278Y-118617509D01*
X161745955Y-118672955D01*
X161603570Y-118813121D01*
X161600869Y-118816661D01*
X161600863Y-118816667D01*
X161436095Y-119032565D01*
X161431696Y-119038329D01*
X161429521Y-119042213D01*
X161299283Y-119274771D01*
X161293270Y-119285508D01*
X161291662Y-119289666D01*
X161291659Y-119289671D01*
X161223572Y-119465666D01*
X161191052Y-119549725D01*
X161127082Y-119825708D01*
X161102637Y-120107952D01*
X158181789Y-120107952D01*
X158190860Y-120076729D01*
X158190861Y-120076726D01*
X158192654Y-120070553D01*
X158195500Y-120034390D01*
X158195499Y-119105521D01*
X158192654Y-119069357D01*
X158184768Y-119042213D01*
X158149893Y-118922174D01*
X158149892Y-118922173D01*
X158147681Y-118914561D01*
X158125674Y-118877349D01*
X158069660Y-118782632D01*
X158069657Y-118782628D01*
X158065626Y-118775812D01*
X157951643Y-118661829D01*
X157944822Y-118657795D01*
X157873996Y-118615909D01*
X157825543Y-118564016D01*
X157812838Y-118494165D01*
X157839913Y-118428534D01*
X157873996Y-118399001D01*
X157944822Y-118357115D01*
X157944823Y-118357115D01*
X157951643Y-118353081D01*
X158065626Y-118239098D01*
X158069657Y-118232282D01*
X158069660Y-118232278D01*
X158143646Y-118107172D01*
X158147681Y-118100349D01*
X158167559Y-118031931D01*
X158190860Y-117951729D01*
X158190861Y-117951726D01*
X158192654Y-117945553D01*
X158194683Y-117919767D01*
X158195307Y-117911847D01*
X158195307Y-117911838D01*
X158195500Y-117909390D01*
X158195499Y-116980521D01*
X158192654Y-116944357D01*
X158147681Y-116789561D01*
X158129414Y-116758672D01*
X158069660Y-116657632D01*
X158069657Y-116657628D01*
X158065626Y-116650812D01*
X157951643Y-116536829D01*
X157944827Y-116532798D01*
X157944823Y-116532795D01*
X157819717Y-116458809D01*
X157812894Y-116454774D01*
X157805282Y-116452563D01*
X157805281Y-116452562D01*
X157664274Y-116411595D01*
X157664271Y-116411594D01*
X157658098Y-116409801D01*
X157636420Y-116408095D01*
X157624392Y-116407148D01*
X157624383Y-116407148D01*
X157621935Y-116406955D01*
X157320245Y-116406955D01*
X157018066Y-116406956D01*
X156998858Y-116408467D01*
X156988320Y-116409296D01*
X156988319Y-116409296D01*
X156981902Y-116409801D01*
X156975721Y-116411597D01*
X156975720Y-116411597D01*
X156834719Y-116452562D01*
X156834718Y-116452563D01*
X156827106Y-116454774D01*
X156820281Y-116458810D01*
X156820277Y-116458812D01*
X156792407Y-116475294D01*
X156723591Y-116492754D01*
X156656260Y-116470237D01*
X156616002Y-116424045D01*
X156605429Y-116403295D01*
X156605427Y-116403292D01*
X156602430Y-116397410D01*
X156598277Y-116392281D01*
X156598274Y-116392277D01*
X156484152Y-116251349D01*
X156479997Y-116246218D01*
X156473446Y-116240913D01*
X156333938Y-116127941D01*
X156333934Y-116127938D01*
X156328805Y-116123785D01*
X156322927Y-116120790D01*
X156322924Y-116120788D01*
X156161338Y-116038456D01*
X156161334Y-116038455D01*
X156155461Y-116035462D01*
X156149096Y-116033756D01*
X156149092Y-116033755D01*
X156046669Y-116006311D01*
X155967543Y-115985109D01*
X155961793Y-115984656D01*
X155961790Y-115984656D01*
X155889200Y-115978943D01*
X155889191Y-115978943D01*
X155886743Y-115978750D01*
X154483382Y-115978750D01*
X154457186Y-115975997D01*
X154455981Y-115975741D01*
X154414646Y-115966955D01*
X154225354Y-115966955D01*
X154218901Y-115968327D01*
X154218897Y-115968327D01*
X154182814Y-115975997D01*
X154102694Y-115993027D01*
X154031905Y-115987625D01*
X153975273Y-115944808D01*
X153950779Y-115878171D01*
X153950499Y-115869780D01*
X153950499Y-115745937D01*
X153946659Y-115721692D01*
X153937198Y-115661949D01*
X153937197Y-115661947D01*
X153935646Y-115652151D01*
X153878050Y-115539113D01*
X153788342Y-115449405D01*
X153675304Y-115391809D01*
X153665515Y-115390259D01*
X153665513Y-115390258D01*
X153630293Y-115384680D01*
X153581519Y-115376955D01*
X153250067Y-115376955D01*
X152918482Y-115376956D01*
X152868113Y-115384933D01*
X152828694Y-115384933D01*
X152786371Y-115378230D01*
X152776527Y-115377455D01*
X152668115Y-115377455D01*
X152652876Y-115381930D01*
X152651671Y-115383320D01*
X152650000Y-115391003D01*
X152650000Y-115462205D01*
X152629998Y-115530326D01*
X152628400Y-115532663D01*
X152621950Y-115539113D01*
X152617448Y-115547949D01*
X152617447Y-115547950D01*
X152607017Y-115568420D01*
X152564354Y-115652151D01*
X152562804Y-115661940D01*
X152562803Y-115661942D01*
X152555944Y-115705248D01*
X152549500Y-115745936D01*
X152547267Y-115745582D01*
X152525283Y-115803165D01*
X152468121Y-115845272D01*
X152397268Y-115849792D01*
X152335220Y-115815288D01*
X152301676Y-115752715D01*
X152300701Y-115745905D01*
X152300499Y-115745937D01*
X152287198Y-115661949D01*
X152287197Y-115661947D01*
X152285646Y-115652151D01*
X152281143Y-115643313D01*
X152281142Y-115643310D01*
X152263733Y-115609143D01*
X152250000Y-115551941D01*
X152250000Y-115395571D01*
X152245525Y-115380332D01*
X152244135Y-115379127D01*
X152236452Y-115377456D01*
X152123476Y-115377456D01*
X152113624Y-115378231D01*
X152046306Y-115388892D01*
X152006887Y-115388892D01*
X151931519Y-115376955D01*
X151750055Y-115376955D01*
X151568482Y-115376956D01*
X151519709Y-115384680D01*
X151480295Y-115384680D01*
X151431519Y-115376955D01*
X151420484Y-115376955D01*
X151316299Y-115376956D01*
X151248179Y-115356955D01*
X151242056Y-115349889D01*
X155555546Y-115349889D01*
X155556321Y-115359738D01*
X155568828Y-115438715D01*
X155574883Y-115457350D01*
X155623404Y-115552577D01*
X155634915Y-115568420D01*
X155710489Y-115643994D01*
X155726332Y-115655505D01*
X155821563Y-115704028D01*
X155840190Y-115710080D01*
X155919172Y-115722589D01*
X155929018Y-115723364D01*
X156737430Y-115723364D01*
X156752669Y-115718889D01*
X156753874Y-115717499D01*
X156755545Y-115709816D01*
X156755545Y-115705248D01*
X157155545Y-115705248D01*
X157160020Y-115720487D01*
X157161410Y-115721692D01*
X157169093Y-115723363D01*
X157982070Y-115723363D01*
X157991919Y-115722588D01*
X158070896Y-115710081D01*
X158089531Y-115704026D01*
X158184758Y-115655505D01*
X158200601Y-115643994D01*
X158276175Y-115568420D01*
X158287686Y-115552577D01*
X158336209Y-115457346D01*
X158342261Y-115438719D01*
X158354770Y-115359737D01*
X158355545Y-115349891D01*
X158355545Y-114791479D01*
X158351070Y-114776240D01*
X158349680Y-114775035D01*
X158341997Y-114773364D01*
X157173660Y-114773364D01*
X157158421Y-114777839D01*
X157157216Y-114779229D01*
X157155545Y-114786912D01*
X157155545Y-115705248D01*
X156755545Y-115705248D01*
X156755545Y-114791479D01*
X156751070Y-114776240D01*
X156749680Y-114775035D01*
X156741997Y-114773364D01*
X155573661Y-114773364D01*
X155558422Y-114777839D01*
X155557217Y-114779229D01*
X155555546Y-114786912D01*
X155555546Y-115349889D01*
X151242056Y-115349889D01*
X151204191Y-115306189D01*
X151203723Y-115306438D01*
X151202638Y-115304398D01*
X151201686Y-115303299D01*
X151200473Y-115300325D01*
X151199507Y-115298508D01*
X151196460Y-115290068D01*
X151191165Y-115282820D01*
X151189389Y-115279480D01*
X151181726Y-115266366D01*
X151179697Y-115263194D01*
X151175984Y-115255027D01*
X151170129Y-115248232D01*
X151170127Y-115248229D01*
X151145613Y-115219780D01*
X151139324Y-115211859D01*
X151134352Y-115205053D01*
X151131478Y-115201119D01*
X151120735Y-115190376D01*
X151114377Y-115183529D01*
X151088262Y-115153221D01*
X151088261Y-115153221D01*
X151082400Y-115146418D01*
X151078319Y-115143773D01*
X151045399Y-115114699D01*
X151039713Y-115109354D01*
X151028494Y-115098135D01*
X151024905Y-115095445D01*
X151020316Y-115092005D01*
X151012477Y-115085623D01*
X150984339Y-115060773D01*
X150977612Y-115054832D01*
X150969489Y-115051018D01*
X150966336Y-115048947D01*
X150953324Y-115041128D01*
X150950005Y-115039311D01*
X150942824Y-115033929D01*
X150899261Y-115017598D01*
X150889947Y-115013672D01*
X150855966Y-114997718D01*
X150855963Y-114997717D01*
X150847837Y-114993902D01*
X150838963Y-114992520D01*
X150835350Y-114991416D01*
X150820693Y-114987570D01*
X150816990Y-114986756D01*
X150808580Y-114983603D01*
X150762157Y-114980153D01*
X150752144Y-114979003D01*
X150738991Y-114976955D01*
X150723796Y-114976955D01*
X150714459Y-114976609D01*
X150699036Y-114975463D01*
X150665608Y-114972979D01*
X150656832Y-114974852D01*
X150647875Y-114975463D01*
X150647875Y-114975457D01*
X150633682Y-114976955D01*
X150273671Y-114976955D01*
X150205550Y-114956953D01*
X150196967Y-114950918D01*
X150159392Y-114922086D01*
X150152841Y-114917059D01*
X150006762Y-114856551D01*
X149850000Y-114835913D01*
X149693238Y-114856551D01*
X149685611Y-114859710D01*
X149685608Y-114859711D01*
X149548218Y-114916620D01*
X149477628Y-114924209D01*
X149451782Y-114916620D01*
X149314392Y-114859711D01*
X149314389Y-114859710D01*
X149306762Y-114856551D01*
X149150000Y-114835913D01*
X148993238Y-114856551D01*
X148847159Y-114917059D01*
X148773416Y-114973644D01*
X148751105Y-114990764D01*
X148721718Y-115013313D01*
X148625464Y-115138754D01*
X148564956Y-115284833D01*
X148564672Y-115286990D01*
X148529185Y-115345207D01*
X148465324Y-115376227D01*
X148435281Y-115377551D01*
X148431519Y-115376955D01*
X148250074Y-115376955D01*
X148068482Y-115376956D01*
X148063589Y-115377731D01*
X148063588Y-115377731D01*
X147993114Y-115388892D01*
X147953695Y-115388892D01*
X147886373Y-115378230D01*
X147876527Y-115377455D01*
X147768115Y-115377455D01*
X147752876Y-115381930D01*
X147751671Y-115383320D01*
X147750000Y-115391003D01*
X147750000Y-115551941D01*
X147736267Y-115609143D01*
X147718859Y-115643310D01*
X147714354Y-115652151D01*
X147712804Y-115661940D01*
X147712803Y-115661942D01*
X147705944Y-115705248D01*
X147699500Y-115745936D01*
X147697267Y-115745582D01*
X147675283Y-115803165D01*
X147618121Y-115845272D01*
X147547268Y-115849792D01*
X147485220Y-115815288D01*
X147451676Y-115752715D01*
X147450701Y-115745905D01*
X147450499Y-115745937D01*
X147437198Y-115661949D01*
X147437197Y-115661947D01*
X147435646Y-115652151D01*
X147392983Y-115568420D01*
X147382553Y-115547950D01*
X147382552Y-115547949D01*
X147378050Y-115539113D01*
X147373433Y-115534496D01*
X147350206Y-115469400D01*
X147350000Y-115462205D01*
X147350000Y-115395571D01*
X147345525Y-115380332D01*
X147344135Y-115379127D01*
X147336452Y-115377456D01*
X147223476Y-115377456D01*
X147213627Y-115378231D01*
X147171309Y-115384933D01*
X147131890Y-115384933D01*
X147081519Y-115376955D01*
X146750034Y-115376955D01*
X146418482Y-115376956D01*
X146413589Y-115377731D01*
X146413588Y-115377731D01*
X146334494Y-115390257D01*
X146334492Y-115390258D01*
X146324696Y-115391809D01*
X146211658Y-115449405D01*
X146149519Y-115511544D01*
X146087207Y-115545570D01*
X146016392Y-115540505D01*
X145959556Y-115497958D01*
X145934745Y-115431438D01*
X145934424Y-115422483D01*
X145934385Y-115277205D01*
X145934169Y-114463987D01*
X145954153Y-114395862D01*
X146007796Y-114349355D01*
X146060169Y-114337955D01*
X146292772Y-114337955D01*
X146382547Y-114327091D01*
X146390075Y-114324111D01*
X146390077Y-114324110D01*
X146479083Y-114288870D01*
X146522783Y-114271568D01*
X146642922Y-114180377D01*
X146646813Y-114175251D01*
X146708217Y-114141721D01*
X146779032Y-114146786D01*
X146823058Y-114175080D01*
X146827078Y-114180377D01*
X146947217Y-114271568D01*
X146990917Y-114288870D01*
X147079923Y-114324110D01*
X147079925Y-114324111D01*
X147087453Y-114327091D01*
X147177228Y-114337955D01*
X147562772Y-114337955D01*
X147652547Y-114327091D01*
X147660075Y-114324111D01*
X147660077Y-114324110D01*
X147749083Y-114288870D01*
X147792783Y-114271568D01*
X147912922Y-114180377D01*
X147916813Y-114175251D01*
X147978217Y-114141721D01*
X148049032Y-114146786D01*
X148093058Y-114175080D01*
X148097078Y-114180377D01*
X148217217Y-114271568D01*
X148260917Y-114288870D01*
X148349923Y-114324110D01*
X148349925Y-114324111D01*
X148357453Y-114327091D01*
X148447228Y-114337955D01*
X148832772Y-114337955D01*
X148922547Y-114327091D01*
X148930075Y-114324111D01*
X148930077Y-114324110D01*
X149019083Y-114288870D01*
X149062783Y-114271568D01*
X149182922Y-114180377D01*
X149186813Y-114175251D01*
X149248217Y-114141721D01*
X149319032Y-114146786D01*
X149363058Y-114175080D01*
X149367078Y-114180377D01*
X149487217Y-114271568D01*
X149530917Y-114288870D01*
X149619923Y-114324110D01*
X149619925Y-114324111D01*
X149627453Y-114327091D01*
X149717228Y-114337955D01*
X150102772Y-114337955D01*
X150192547Y-114327091D01*
X150200075Y-114324111D01*
X150200077Y-114324110D01*
X150289083Y-114288870D01*
X150332783Y-114271568D01*
X150452922Y-114180377D01*
X150456813Y-114175251D01*
X150518217Y-114141721D01*
X150589032Y-114146786D01*
X150633058Y-114175080D01*
X150637078Y-114180377D01*
X150757217Y-114271568D01*
X150800917Y-114288870D01*
X150889923Y-114324110D01*
X150889925Y-114324111D01*
X150897453Y-114327091D01*
X150987228Y-114337955D01*
X151372772Y-114337955D01*
X151462547Y-114327091D01*
X151470075Y-114324111D01*
X151470077Y-114324110D01*
X151559083Y-114288870D01*
X151602783Y-114271568D01*
X151722922Y-114180377D01*
X151727024Y-114174972D01*
X151788579Y-114141364D01*
X151859394Y-114146431D01*
X151904453Y-114175390D01*
X151914275Y-114185212D01*
X152020620Y-114265933D01*
X152035451Y-114274290D01*
X152160051Y-114323623D01*
X152175603Y-114327573D01*
X152232017Y-114334399D01*
X152246390Y-114332003D01*
X152250000Y-114319178D01*
X152250000Y-114318460D01*
X152650000Y-114318460D01*
X152654106Y-114332442D01*
X152667269Y-114334485D01*
X152724397Y-114327573D01*
X152739949Y-114323623D01*
X152864549Y-114274290D01*
X152879380Y-114265933D01*
X152985725Y-114185212D01*
X152997757Y-114173180D01*
X153078478Y-114066835D01*
X153086835Y-114052004D01*
X153136166Y-113927408D01*
X153140119Y-113911843D01*
X153149544Y-113833953D01*
X153150000Y-113826398D01*
X153150000Y-113455343D01*
X153512519Y-113455343D01*
X153512713Y-113460278D01*
X153514857Y-113487535D01*
X153517158Y-113500136D01*
X153558087Y-113641013D01*
X153564334Y-113655450D01*
X153638256Y-113780446D01*
X153647896Y-113792873D01*
X153750578Y-113895555D01*
X153763005Y-113905195D01*
X153888001Y-113979117D01*
X153902437Y-113985364D01*
X154043321Y-114026295D01*
X154055908Y-114028593D01*
X154083178Y-114030740D01*
X154088104Y-114030933D01*
X154169403Y-114030933D01*
X154184642Y-114026458D01*
X154185847Y-114025068D01*
X154187518Y-114017385D01*
X154187518Y-114012817D01*
X154587518Y-114012817D01*
X154591993Y-114028056D01*
X154593383Y-114029261D01*
X154601066Y-114030932D01*
X154686928Y-114030932D01*
X154691863Y-114030738D01*
X154719120Y-114028594D01*
X154731721Y-114026293D01*
X154872599Y-113985364D01*
X154887035Y-113979117D01*
X155012031Y-113905195D01*
X155024458Y-113895555D01*
X155127140Y-113792873D01*
X155136780Y-113780446D01*
X155210702Y-113655450D01*
X155216949Y-113641013D01*
X155257880Y-113500130D01*
X155260178Y-113487543D01*
X155262325Y-113460273D01*
X155262518Y-113455347D01*
X155262518Y-113211548D01*
X155258043Y-113196309D01*
X155256653Y-113195104D01*
X155248970Y-113193433D01*
X154605633Y-113193433D01*
X154590394Y-113197908D01*
X154589189Y-113199298D01*
X154587518Y-113206981D01*
X154587518Y-114012817D01*
X154187518Y-114012817D01*
X154187518Y-113211548D01*
X154183043Y-113196309D01*
X154181653Y-113195104D01*
X154173970Y-113193433D01*
X153530634Y-113193433D01*
X153515395Y-113197908D01*
X153514190Y-113199298D01*
X153512519Y-113206981D01*
X153512519Y-113455343D01*
X153150000Y-113455343D01*
X153150000Y-113180570D01*
X153145525Y-113165331D01*
X153144135Y-113164126D01*
X153136452Y-113162455D01*
X152668115Y-113162455D01*
X152652876Y-113166930D01*
X152651671Y-113168320D01*
X152650000Y-113176003D01*
X152650000Y-114318460D01*
X152250000Y-114318460D01*
X152250000Y-112888455D01*
X152270002Y-112820334D01*
X152323658Y-112773841D01*
X152376000Y-112762455D01*
X153141585Y-112762455D01*
X153158075Y-112760084D01*
X153434829Y-112760084D01*
X153502950Y-112780086D01*
G37*
%TD.AperFunction*%
%TD*%
%TA.AperFunction,Conductor*%
%TO.N,+3.3V*%
G36*
X166986621Y-71045385D02*
G01*
X167033114Y-71099041D01*
X167044500Y-71151383D01*
X167044500Y-92413633D01*
X167043000Y-92433018D01*
X167040690Y-92447851D01*
X167040690Y-92447855D01*
X167039309Y-92456724D01*
X167040130Y-92463000D01*
X167040021Y-92463000D01*
X167040449Y-92467619D01*
X167040449Y-92467621D01*
X167052617Y-92598927D01*
X167057899Y-92655933D01*
X167110924Y-92842296D01*
X167197290Y-93015743D01*
X167314056Y-93170366D01*
X167457246Y-93300901D01*
X167462194Y-93303964D01*
X167462197Y-93303967D01*
X167490330Y-93321386D01*
X167537717Y-93374253D01*
X167549999Y-93428302D01*
X167550333Y-93629000D01*
X167551006Y-94033653D01*
X167531117Y-94101807D01*
X167491338Y-94140989D01*
X167464073Y-94157872D01*
X167457246Y-94162099D01*
X167314056Y-94292634D01*
X167197290Y-94447257D01*
X167110924Y-94620704D01*
X167057899Y-94807067D01*
X167057362Y-94812862D01*
X167042865Y-94969314D01*
X167041901Y-94977077D01*
X167039309Y-94993724D01*
X167040066Y-94999514D01*
X167040021Y-95000000D01*
X167040130Y-95000000D01*
X167041675Y-95011815D01*
X167043436Y-95025283D01*
X167044500Y-95041620D01*
X167044500Y-112338253D01*
X167024498Y-112406374D01*
X166970842Y-112452867D01*
X166918436Y-112464253D01*
X166337741Y-112463957D01*
X164821659Y-112463185D01*
X164821658Y-112463185D01*
X160606977Y-112461039D01*
X158521659Y-112459977D01*
X158521657Y-112459977D01*
X157888336Y-112459655D01*
X157886832Y-112019364D01*
X158445430Y-112019364D01*
X158460669Y-112014889D01*
X158461874Y-112013499D01*
X158463545Y-112005816D01*
X158463544Y-111478695D01*
X158463174Y-111471874D01*
X158457650Y-111421012D01*
X158454024Y-111405760D01*
X158408869Y-111285310D01*
X158400331Y-111269716D01*
X158347592Y-111199346D01*
X158322744Y-111132840D01*
X158337797Y-111063457D01*
X158347592Y-111048216D01*
X158349014Y-111046319D01*
X158406160Y-110970069D01*
X158457290Y-110833680D01*
X158464045Y-110771498D01*
X158464045Y-110328692D01*
X161747545Y-110328692D01*
X161747546Y-112001249D01*
X161752021Y-112016488D01*
X161753411Y-112017693D01*
X161761094Y-112019364D01*
X162983430Y-112019364D01*
X162998669Y-112014889D01*
X162999874Y-112013499D01*
X163001545Y-112005816D01*
X163001545Y-112001249D01*
X163509545Y-112001249D01*
X163514020Y-112016488D01*
X163515410Y-112017693D01*
X163523093Y-112019364D01*
X164745430Y-112019364D01*
X164760669Y-112014889D01*
X164761874Y-112013499D01*
X164763545Y-112005816D01*
X164763544Y-110328695D01*
X164763174Y-110321874D01*
X164757650Y-110271012D01*
X164754024Y-110255760D01*
X164708869Y-110135310D01*
X164700331Y-110119715D01*
X164623830Y-110017640D01*
X164611269Y-110005079D01*
X164509194Y-109928578D01*
X164493599Y-109920040D01*
X164373151Y-109874886D01*
X164357896Y-109871259D01*
X164307031Y-109865733D01*
X164300217Y-109865364D01*
X163527660Y-109865364D01*
X163512421Y-109869839D01*
X163511216Y-109871229D01*
X163509545Y-109878912D01*
X163509545Y-112001249D01*
X163001545Y-112001249D01*
X163001545Y-109883480D01*
X162997070Y-109868241D01*
X162995680Y-109867036D01*
X162987997Y-109865365D01*
X162210876Y-109865365D01*
X162204055Y-109865735D01*
X162153193Y-109871259D01*
X162137941Y-109874885D01*
X162017491Y-109920040D01*
X162001896Y-109928578D01*
X161899821Y-110005079D01*
X161887260Y-110017640D01*
X161810759Y-110119715D01*
X161802221Y-110135310D01*
X161757067Y-110255758D01*
X161753440Y-110271013D01*
X161747914Y-110321878D01*
X161747545Y-110328692D01*
X158464045Y-110328692D01*
X158464045Y-109175230D01*
X158457290Y-109113048D01*
X158406160Y-108976659D01*
X158318806Y-108860103D01*
X158202250Y-108772749D01*
X158065861Y-108721619D01*
X158003679Y-108714864D01*
X158000263Y-108714864D01*
X157996865Y-108714680D01*
X157996922Y-108713634D01*
X157932990Y-108694862D01*
X157886497Y-108641206D01*
X157875112Y-108589295D01*
X157874876Y-108520051D01*
X157894644Y-108451864D01*
X157948140Y-108405188D01*
X157974276Y-108396461D01*
X157979852Y-108395257D01*
X157986711Y-108394545D01*
X158154491Y-108338569D01*
X158304893Y-108245497D01*
X158429850Y-108120322D01*
X158522660Y-107969757D01*
X158578342Y-107801880D01*
X158589045Y-107697419D01*
X158589045Y-107694114D01*
X160422546Y-107694114D01*
X160422883Y-107700633D01*
X160432802Y-107796225D01*
X160435694Y-107809619D01*
X160487133Y-107963803D01*
X160493306Y-107976981D01*
X160578608Y-108114826D01*
X160587644Y-108126227D01*
X160702374Y-108240758D01*
X160713785Y-108249770D01*
X160851788Y-108334835D01*
X160864969Y-108340982D01*
X161019255Y-108392157D01*
X161032631Y-108395024D01*
X161126983Y-108404691D01*
X161133399Y-108405019D01*
X161783430Y-108405019D01*
X161798669Y-108400544D01*
X161799874Y-108399154D01*
X161801545Y-108391471D01*
X161801545Y-108386903D01*
X162309545Y-108386903D01*
X162314020Y-108402142D01*
X162315410Y-108403347D01*
X162323093Y-108405018D01*
X162977640Y-108405018D01*
X162984159Y-108404681D01*
X163079751Y-108394762D01*
X163093145Y-108391870D01*
X163247329Y-108340431D01*
X163260507Y-108334258D01*
X163398352Y-108248956D01*
X163409753Y-108239920D01*
X163524284Y-108125190D01*
X163533296Y-108113779D01*
X163618361Y-107975776D01*
X163624508Y-107962595D01*
X163675683Y-107808309D01*
X163678550Y-107794933D01*
X163688217Y-107700581D01*
X163688545Y-107694165D01*
X163688545Y-106994134D01*
X163684070Y-106978895D01*
X163682680Y-106977690D01*
X163674997Y-106976019D01*
X162327660Y-106976019D01*
X162312421Y-106980494D01*
X162311216Y-106981884D01*
X162309545Y-106989567D01*
X162309545Y-108386903D01*
X161801545Y-108386903D01*
X161801545Y-106994134D01*
X161797070Y-106978895D01*
X161795680Y-106977690D01*
X161787997Y-106976019D01*
X160440661Y-106976019D01*
X160425422Y-106980494D01*
X160424217Y-106981884D01*
X160422546Y-106989567D01*
X160422546Y-107694114D01*
X158589045Y-107694114D01*
X158589045Y-106449904D01*
X160422545Y-106449904D01*
X160427020Y-106465143D01*
X160428410Y-106466348D01*
X160436093Y-106468019D01*
X161783430Y-106468019D01*
X161798669Y-106463544D01*
X161799874Y-106462154D01*
X161801545Y-106454471D01*
X161801545Y-106449904D01*
X162309545Y-106449904D01*
X162314020Y-106465143D01*
X162315410Y-106466348D01*
X162323093Y-106468019D01*
X163670429Y-106468019D01*
X163685668Y-106463544D01*
X163686873Y-106462154D01*
X163688544Y-106454471D01*
X163688544Y-105749924D01*
X163688207Y-105743405D01*
X163678288Y-105647813D01*
X163675396Y-105634419D01*
X163623957Y-105480234D01*
X163617784Y-105467057D01*
X163532482Y-105329212D01*
X163523446Y-105317811D01*
X163408716Y-105203280D01*
X163397305Y-105194268D01*
X163259302Y-105109203D01*
X163246121Y-105103056D01*
X163091835Y-105051881D01*
X163078459Y-105049014D01*
X162984107Y-105039347D01*
X162977690Y-105039019D01*
X162327660Y-105039019D01*
X162312421Y-105043494D01*
X162311216Y-105044884D01*
X162309545Y-105052567D01*
X162309545Y-106449904D01*
X161801545Y-106449904D01*
X161801545Y-105057135D01*
X161797070Y-105041896D01*
X161795680Y-105040691D01*
X161787997Y-105039020D01*
X161133450Y-105039020D01*
X161126931Y-105039357D01*
X161031339Y-105049276D01*
X161017945Y-105052168D01*
X160863761Y-105103607D01*
X160850583Y-105109780D01*
X160712738Y-105195082D01*
X160701337Y-105204118D01*
X160586806Y-105318848D01*
X160577794Y-105330259D01*
X160492729Y-105468262D01*
X160486582Y-105481443D01*
X160435407Y-105635729D01*
X160432540Y-105649105D01*
X160422873Y-105743457D01*
X160422545Y-105749874D01*
X160422545Y-106449904D01*
X158589045Y-106449904D01*
X158589045Y-105746619D01*
X158588708Y-105743369D01*
X158578783Y-105647711D01*
X158578782Y-105647707D01*
X158578071Y-105640853D01*
X158522095Y-105473073D01*
X158429023Y-105322671D01*
X158303848Y-105197714D01*
X158297617Y-105193873D01*
X158159513Y-105108744D01*
X158159511Y-105108743D01*
X158153283Y-105104904D01*
X158050212Y-105070717D01*
X157991934Y-105051387D01*
X157991932Y-105051387D01*
X157985406Y-105049222D01*
X157978570Y-105048522D01*
X157978567Y-105048521D01*
X157935514Y-105044110D01*
X157880945Y-105038519D01*
X156030145Y-105038519D01*
X156026899Y-105038856D01*
X156026895Y-105038856D01*
X155931237Y-105048781D01*
X155931233Y-105048782D01*
X155924379Y-105049493D01*
X155917843Y-105051674D01*
X155917841Y-105051674D01*
X155821141Y-105083936D01*
X155756599Y-105105469D01*
X155606197Y-105198541D01*
X155481240Y-105323716D01*
X155477400Y-105329946D01*
X155477399Y-105329947D01*
X155444927Y-105382627D01*
X155388430Y-105474281D01*
X155332748Y-105642158D01*
X155322045Y-105746619D01*
X155322045Y-105791235D01*
X155302043Y-105859356D01*
X155248387Y-105905849D01*
X155195847Y-105917235D01*
X154951439Y-105916851D01*
X149287243Y-105907939D01*
X149287401Y-106027720D01*
X148908205Y-106027720D01*
X148892966Y-106032195D01*
X148891761Y-106033585D01*
X148890090Y-106041268D01*
X148890090Y-106475576D01*
X148894000Y-106502771D01*
X148894000Y-108140455D01*
X148873998Y-108208576D01*
X148820342Y-108255069D01*
X148768000Y-108266455D01*
X148512000Y-108266455D01*
X148443879Y-108246453D01*
X148397386Y-108192797D01*
X148386000Y-108140455D01*
X148386000Y-106810599D01*
X148382090Y-106783404D01*
X148382090Y-105501605D01*
X148890090Y-105501605D01*
X148894565Y-105516844D01*
X148895955Y-105518049D01*
X148903638Y-105519720D01*
X149763475Y-105519720D01*
X149778714Y-105515245D01*
X149779919Y-105513855D01*
X149781590Y-105506172D01*
X149781590Y-105489954D01*
X149781253Y-105483438D01*
X149771515Y-105389588D01*
X149768622Y-105376192D01*
X149718102Y-105224767D01*
X149711937Y-105211605D01*
X149628164Y-105076228D01*
X149619130Y-105064830D01*
X149506461Y-104952357D01*
X149495050Y-104943345D01*
X149359527Y-104859808D01*
X149346349Y-104853664D01*
X149194824Y-104803405D01*
X149181458Y-104800539D01*
X149088820Y-104791048D01*
X149082405Y-104790720D01*
X148908205Y-104790720D01*
X148892966Y-104795195D01*
X148891761Y-104796585D01*
X148890090Y-104804268D01*
X148890090Y-105501605D01*
X148382090Y-105501605D01*
X148382090Y-104808835D01*
X148377615Y-104793596D01*
X148376225Y-104792391D01*
X148368542Y-104790720D01*
X148189824Y-104790720D01*
X148183308Y-104791057D01*
X148089458Y-104800795D01*
X148076062Y-104803688D01*
X147924637Y-104854208D01*
X147911475Y-104860373D01*
X147776098Y-104944146D01*
X147764700Y-104953180D01*
X147663197Y-105054860D01*
X147600914Y-105088939D01*
X147530094Y-105083936D01*
X147485006Y-105055015D01*
X147479475Y-105049493D01*
X147376593Y-104946791D01*
X147228510Y-104855511D01*
X147063399Y-104800746D01*
X147056563Y-104800046D01*
X147056560Y-104800045D01*
X147005064Y-104794769D01*
X146960662Y-104790220D01*
X146061518Y-104790220D01*
X146058272Y-104790557D01*
X146058268Y-104790557D01*
X145964355Y-104800301D01*
X145964351Y-104800302D01*
X145957497Y-104801013D01*
X145950961Y-104803194D01*
X145950959Y-104803194D01*
X145818195Y-104847488D01*
X145792483Y-104856066D01*
X145644559Y-104947604D01*
X145639386Y-104952786D01*
X145526832Y-105065536D01*
X145526828Y-105065541D01*
X145521661Y-105070717D01*
X145517821Y-105076947D01*
X145517820Y-105076948D01*
X145439675Y-105203723D01*
X145430381Y-105218800D01*
X145375616Y-105383911D01*
X145365090Y-105486648D01*
X145365090Y-106060792D01*
X145375883Y-106164813D01*
X145430936Y-106329827D01*
X145505242Y-106449904D01*
X145512160Y-106461083D01*
X145530997Y-106529536D01*
X145509835Y-106597305D01*
X145455394Y-106642876D01*
X145384958Y-106651779D01*
X145340880Y-106635841D01*
X145243601Y-106578310D01*
X145235990Y-106576099D01*
X145235988Y-106576098D01*
X145183769Y-106560927D01*
X145083831Y-106531893D01*
X145077426Y-106531389D01*
X145077421Y-106531388D01*
X145048958Y-106529148D01*
X145048950Y-106529148D01*
X145046502Y-106528955D01*
X144613498Y-106528955D01*
X144611050Y-106529148D01*
X144611042Y-106529148D01*
X144582579Y-106531388D01*
X144582574Y-106531389D01*
X144576169Y-106531893D01*
X144476231Y-106560927D01*
X144424012Y-106576098D01*
X144424010Y-106576099D01*
X144416399Y-106578310D01*
X144273193Y-106663002D01*
X144270511Y-106665684D01*
X144206139Y-106690957D01*
X144136516Y-106677055D01*
X144120688Y-106666883D01*
X144116807Y-106663002D01*
X143973601Y-106578310D01*
X143965990Y-106576099D01*
X143965988Y-106576098D01*
X143913769Y-106560927D01*
X143813831Y-106531893D01*
X143807426Y-106531389D01*
X143807421Y-106531388D01*
X143778958Y-106529148D01*
X143778950Y-106529148D01*
X143776502Y-106528955D01*
X143343498Y-106528955D01*
X143341050Y-106529148D01*
X143341042Y-106529148D01*
X143312579Y-106531388D01*
X143312574Y-106531389D01*
X143306169Y-106531893D01*
X143206231Y-106560927D01*
X143154012Y-106576098D01*
X143154010Y-106576099D01*
X143146399Y-106578310D01*
X143139572Y-106582347D01*
X143139573Y-106582347D01*
X143010020Y-106658964D01*
X143010017Y-106658966D01*
X143003193Y-106663002D01*
X142885547Y-106780648D01*
X142881511Y-106787472D01*
X142881509Y-106787475D01*
X142867834Y-106810599D01*
X142800855Y-106923854D01*
X142754438Y-107083624D01*
X142751500Y-107120953D01*
X142751500Y-107857955D01*
X142731498Y-107926076D01*
X142677842Y-107972569D01*
X142625500Y-107983955D01*
X141334500Y-107983955D01*
X141266379Y-107963953D01*
X141219886Y-107910297D01*
X141208500Y-107857955D01*
X141208500Y-107069321D01*
X141201745Y-107007139D01*
X141150615Y-106870750D01*
X141063261Y-106754194D01*
X140946705Y-106666840D01*
X140810316Y-106615710D01*
X140748134Y-106608955D01*
X138251866Y-106608955D01*
X138189684Y-106615710D01*
X138053295Y-106666840D01*
X137936739Y-106754194D01*
X137849385Y-106870750D01*
X137798255Y-107007139D01*
X137791500Y-107069321D01*
X137791500Y-107857955D01*
X137771498Y-107926076D01*
X137717842Y-107972569D01*
X137665500Y-107983955D01*
X137109500Y-107983955D01*
X137041379Y-107963953D01*
X136994886Y-107910297D01*
X136983500Y-107857955D01*
X136983500Y-107705383D01*
X136983007Y-107700633D01*
X136973419Y-107608220D01*
X136973418Y-107608216D01*
X136972707Y-107601362D01*
X136960273Y-107564091D01*
X136919972Y-107443296D01*
X136917654Y-107436348D01*
X136826116Y-107288424D01*
X136820934Y-107283251D01*
X136708184Y-107170697D01*
X136708179Y-107170693D01*
X136703003Y-107165526D01*
X136634700Y-107123423D01*
X136561150Y-107078086D01*
X136561148Y-107078085D01*
X136554920Y-107074246D01*
X136389809Y-107019481D01*
X136382973Y-107018781D01*
X136382970Y-107018780D01*
X136331474Y-107013504D01*
X136287072Y-107008955D01*
X135712928Y-107008955D01*
X135709682Y-107009292D01*
X135709678Y-107009292D01*
X135615765Y-107019036D01*
X135615761Y-107019037D01*
X135608907Y-107019748D01*
X135602371Y-107021929D01*
X135602369Y-107021929D01*
X135470501Y-107065924D01*
X135443893Y-107074801D01*
X135295969Y-107166339D01*
X135290796Y-107171521D01*
X135178242Y-107284271D01*
X135178238Y-107284276D01*
X135173071Y-107289452D01*
X135169231Y-107295682D01*
X135169230Y-107295683D01*
X135086364Y-107430117D01*
X135081791Y-107437535D01*
X135027026Y-107602646D01*
X135016500Y-107705383D01*
X135016500Y-108604527D01*
X135016837Y-108607773D01*
X135016837Y-108607777D01*
X135020306Y-108641206D01*
X135027293Y-108708548D01*
X135029474Y-108715084D01*
X135029474Y-108715086D01*
X135048712Y-108772749D01*
X135082346Y-108873562D01*
X135173884Y-109021486D01*
X135179066Y-109026659D01*
X135280786Y-109128202D01*
X135314865Y-109190485D01*
X135309862Y-109261305D01*
X135280941Y-109306392D01*
X135178246Y-109409267D01*
X135178242Y-109409272D01*
X135173071Y-109414452D01*
X135169231Y-109420682D01*
X135169230Y-109420683D01*
X135096306Y-109538988D01*
X135081791Y-109562535D01*
X135027026Y-109727646D01*
X135016500Y-109830383D01*
X135016500Y-110729527D01*
X135016837Y-110732773D01*
X135016837Y-110732777D01*
X135026492Y-110825824D01*
X135027293Y-110833548D01*
X135029473Y-110840082D01*
X135029474Y-110840087D01*
X135058652Y-110927544D01*
X135061236Y-110998494D01*
X135058721Y-111007087D01*
X135047509Y-111040890D01*
X135027026Y-111102646D01*
X135016500Y-111205383D01*
X135016500Y-112104527D01*
X135016837Y-112107773D01*
X135016837Y-112107777D01*
X135018822Y-112126902D01*
X135027293Y-112208548D01*
X135082346Y-112373562D01*
X135173884Y-112521486D01*
X135179066Y-112526659D01*
X135280786Y-112628202D01*
X135314865Y-112690485D01*
X135309862Y-112761305D01*
X135280941Y-112806392D01*
X135178246Y-112909267D01*
X135178242Y-112909272D01*
X135173071Y-112914452D01*
X135081791Y-113062535D01*
X135027026Y-113227646D01*
X135016500Y-113330383D01*
X135016500Y-114229527D01*
X135016837Y-114232773D01*
X135016837Y-114232777D01*
X135025467Y-114315946D01*
X135027293Y-114333548D01*
X135029474Y-114340084D01*
X135029474Y-114340086D01*
X135064795Y-114445955D01*
X135082346Y-114498562D01*
X135173884Y-114646486D01*
X135179066Y-114651659D01*
X135291816Y-114764213D01*
X135291821Y-114764217D01*
X135296997Y-114769384D01*
X135303227Y-114773224D01*
X135303228Y-114773225D01*
X135326163Y-114787362D01*
X135445080Y-114860664D01*
X135610191Y-114915429D01*
X135617027Y-114916129D01*
X135617030Y-114916130D01*
X135668526Y-114921406D01*
X135712928Y-114925955D01*
X136287072Y-114925955D01*
X136290318Y-114925618D01*
X136290322Y-114925618D01*
X136384235Y-114915874D01*
X136384239Y-114915873D01*
X136391093Y-114915162D01*
X136397629Y-114912981D01*
X136397631Y-114912981D01*
X136539681Y-114865589D01*
X136556107Y-114860109D01*
X136704031Y-114768571D01*
X136764071Y-114708426D01*
X136821758Y-114650639D01*
X136821762Y-114650634D01*
X136826929Y-114645458D01*
X136865890Y-114582252D01*
X136914369Y-114503605D01*
X136914370Y-114503603D01*
X136918209Y-114497375D01*
X136972974Y-114332264D01*
X136975266Y-114309899D01*
X136983172Y-114232726D01*
X136983500Y-114229527D01*
X136983500Y-114076955D01*
X137003502Y-114008834D01*
X137057158Y-113962341D01*
X137109500Y-113950955D01*
X137665500Y-113950955D01*
X137733621Y-113970957D01*
X137780114Y-114024613D01*
X137791500Y-114076955D01*
X137791500Y-114865589D01*
X137798255Y-114927771D01*
X137849385Y-115064160D01*
X137936739Y-115180716D01*
X138053295Y-115268070D01*
X138189684Y-115319200D01*
X138251866Y-115325955D01*
X140748134Y-115325955D01*
X140810316Y-115319200D01*
X140946705Y-115268070D01*
X141063261Y-115180716D01*
X141150615Y-115064160D01*
X141201745Y-114927771D01*
X141208500Y-114865589D01*
X141208500Y-112557049D01*
X141228502Y-112488928D01*
X141245405Y-112467954D01*
X142882954Y-110830405D01*
X142945266Y-110796379D01*
X142972049Y-110793500D01*
X143821756Y-110793500D01*
X143832939Y-110794027D01*
X143840432Y-110795702D01*
X143848358Y-110795453D01*
X143848359Y-110795453D01*
X143908509Y-110793562D01*
X143912468Y-110793500D01*
X143940379Y-110793500D01*
X143944314Y-110793003D01*
X143944379Y-110792995D01*
X143956216Y-110792062D01*
X143988474Y-110791048D01*
X143992493Y-110790922D01*
X144000412Y-110790673D01*
X144019866Y-110785021D01*
X144039223Y-110781013D01*
X144051453Y-110779468D01*
X144051454Y-110779468D01*
X144059320Y-110778474D01*
X144066691Y-110775555D01*
X144066693Y-110775555D01*
X144100435Y-110762196D01*
X144111665Y-110758351D01*
X144146506Y-110748229D01*
X144146507Y-110748229D01*
X144154116Y-110746018D01*
X144160935Y-110741985D01*
X144160940Y-110741983D01*
X144171551Y-110735707D01*
X144189299Y-110727012D01*
X144208140Y-110719552D01*
X144243910Y-110693564D01*
X144253830Y-110687048D01*
X144285058Y-110668580D01*
X144285061Y-110668578D01*
X144291885Y-110664542D01*
X144306206Y-110650221D01*
X144321240Y-110637380D01*
X144331217Y-110630131D01*
X144337630Y-110625472D01*
X144342681Y-110619367D01*
X144342686Y-110619362D01*
X144365822Y-110591396D01*
X144373810Y-110582618D01*
X145129274Y-109827154D01*
X145191586Y-109793128D01*
X145262401Y-109798193D01*
X145319237Y-109840740D01*
X145344048Y-109907260D01*
X145344369Y-109915984D01*
X145344556Y-110005079D01*
X145345542Y-110473536D01*
X145345604Y-110503083D01*
X145328724Y-110566345D01*
X145265473Y-110675899D01*
X145206458Y-110857527D01*
X145205768Y-110864088D01*
X145205768Y-110864090D01*
X145195513Y-110961661D01*
X145186496Y-111047455D01*
X145187186Y-111054020D01*
X145193016Y-111109485D01*
X145206458Y-111237383D01*
X145208498Y-111243661D01*
X145233631Y-111321013D01*
X145235658Y-111391981D01*
X145198996Y-111452778D01*
X145135284Y-111484104D01*
X145091157Y-111483898D01*
X145090013Y-111483689D01*
X145083831Y-111481893D01*
X145077417Y-111481388D01*
X145077416Y-111481388D01*
X145048958Y-111479148D01*
X145048950Y-111479148D01*
X145046502Y-111478955D01*
X144613498Y-111478955D01*
X144611050Y-111479148D01*
X144611042Y-111479148D01*
X144582579Y-111481388D01*
X144582574Y-111481389D01*
X144576169Y-111481893D01*
X144477664Y-111510511D01*
X144424012Y-111526098D01*
X144424010Y-111526099D01*
X144416399Y-111528310D01*
X144273193Y-111613002D01*
X144270511Y-111615684D01*
X144206139Y-111640957D01*
X144136516Y-111627055D01*
X144120688Y-111616883D01*
X144116807Y-111613002D01*
X143973601Y-111528310D01*
X143965990Y-111526099D01*
X143965988Y-111526098D01*
X143912336Y-111510511D01*
X143813831Y-111481893D01*
X143807426Y-111481389D01*
X143807421Y-111481388D01*
X143778958Y-111479148D01*
X143778950Y-111479148D01*
X143776502Y-111478955D01*
X143343498Y-111478955D01*
X143341050Y-111479148D01*
X143341042Y-111479148D01*
X143312579Y-111481388D01*
X143312574Y-111481389D01*
X143306169Y-111481893D01*
X143207664Y-111510511D01*
X143154012Y-111526098D01*
X143154010Y-111526099D01*
X143146399Y-111528310D01*
X143139572Y-111532347D01*
X143139573Y-111532347D01*
X143010020Y-111608964D01*
X143010017Y-111608966D01*
X143003193Y-111613002D01*
X142885547Y-111730648D01*
X142881511Y-111737472D01*
X142881509Y-111737475D01*
X142860655Y-111772738D01*
X142800855Y-111873854D01*
X142754438Y-112033624D01*
X142751500Y-112070953D01*
X142751500Y-113853957D01*
X142754438Y-113891286D01*
X142756233Y-113897463D01*
X142788589Y-114008834D01*
X142800855Y-114051056D01*
X142804892Y-114057882D01*
X142881509Y-114187435D01*
X142881511Y-114187438D01*
X142885547Y-114194262D01*
X143003193Y-114311908D01*
X143010017Y-114315944D01*
X143010020Y-114315946D01*
X143050839Y-114340086D01*
X143146399Y-114396600D01*
X143154010Y-114398811D01*
X143154012Y-114398812D01*
X143206231Y-114413983D01*
X143306169Y-114443017D01*
X143312574Y-114443521D01*
X143312579Y-114443522D01*
X143341042Y-114445762D01*
X143341050Y-114445762D01*
X143343498Y-114445955D01*
X143776502Y-114445955D01*
X143778950Y-114445762D01*
X143778958Y-114445762D01*
X143807421Y-114443522D01*
X143807426Y-114443521D01*
X143813831Y-114443017D01*
X143913769Y-114413983D01*
X143965988Y-114398812D01*
X143965990Y-114398811D01*
X143973601Y-114396600D01*
X144116807Y-114311908D01*
X144119489Y-114309226D01*
X144183861Y-114283953D01*
X144253484Y-114297855D01*
X144269312Y-114308027D01*
X144273193Y-114311908D01*
X144416399Y-114396600D01*
X144424010Y-114398811D01*
X144424012Y-114398812D01*
X144476231Y-114413983D01*
X144576169Y-114443017D01*
X144582574Y-114443521D01*
X144582579Y-114443522D01*
X144611042Y-114445762D01*
X144611050Y-114445762D01*
X144613498Y-114445955D01*
X145046502Y-114445955D01*
X145048950Y-114445762D01*
X145048958Y-114445762D01*
X145077421Y-114443522D01*
X145077426Y-114443521D01*
X145083831Y-114443017D01*
X145090007Y-114441223D01*
X145090011Y-114441222D01*
X145192923Y-114411324D01*
X145263919Y-114411527D01*
X145323535Y-114450082D01*
X145352843Y-114514747D01*
X145354074Y-114532048D01*
X145355743Y-115325586D01*
X145356624Y-115744485D01*
X145336765Y-115812648D01*
X145283207Y-115859253D01*
X145230624Y-115870750D01*
X144079307Y-115870750D01*
X144073088Y-115871065D01*
X144000920Y-115885617D01*
X143880445Y-115909909D01*
X143880440Y-115909910D01*
X143874407Y-115911127D01*
X143868723Y-115913493D01*
X143692979Y-115986647D01*
X143692976Y-115986649D01*
X143687291Y-115989015D01*
X143518867Y-116101765D01*
X143375550Y-116245082D01*
X143338067Y-116301074D01*
X143283552Y-116346553D01*
X143213102Y-116355340D01*
X143193697Y-116350573D01*
X143181577Y-116346553D01*
X143069809Y-116309481D01*
X143062973Y-116308781D01*
X143062970Y-116308780D01*
X143011474Y-116303504D01*
X142967072Y-116298955D01*
X142392928Y-116298955D01*
X142389682Y-116299292D01*
X142389678Y-116299292D01*
X142295765Y-116309036D01*
X142295761Y-116309037D01*
X142288907Y-116309748D01*
X142282371Y-116311929D01*
X142282369Y-116311929D01*
X142152251Y-116355340D01*
X142123893Y-116364801D01*
X141975969Y-116456339D01*
X141970796Y-116461521D01*
X141858242Y-116574271D01*
X141858238Y-116574276D01*
X141853071Y-116579452D01*
X141761791Y-116727535D01*
X141707026Y-116892646D01*
X141696500Y-116995383D01*
X141696500Y-117894527D01*
X141696837Y-117897773D01*
X141696837Y-117897777D01*
X141705984Y-117985929D01*
X141707293Y-117998548D01*
X141709474Y-118005084D01*
X141709474Y-118005086D01*
X141727454Y-118058979D01*
X141762346Y-118163562D01*
X141853884Y-118311486D01*
X141859066Y-118316659D01*
X141960786Y-118418202D01*
X141994865Y-118480485D01*
X141989862Y-118551305D01*
X141960941Y-118596392D01*
X141858246Y-118699267D01*
X141858242Y-118699272D01*
X141853071Y-118704452D01*
X141849231Y-118710682D01*
X141849230Y-118710683D01*
X141789499Y-118807585D01*
X141761791Y-118852535D01*
X141707026Y-119017646D01*
X141696500Y-119120383D01*
X141696500Y-120019527D01*
X141696837Y-120022773D01*
X141696837Y-120022777D01*
X141705476Y-120106035D01*
X141707293Y-120123548D01*
X141709474Y-120130084D01*
X141709474Y-120130086D01*
X141733952Y-120203455D01*
X141762346Y-120288562D01*
X141766729Y-120295645D01*
X141847846Y-120426728D01*
X141853884Y-120436486D01*
X141859066Y-120441659D01*
X141863611Y-120447393D01*
X141861169Y-120449328D01*
X141888531Y-120499333D01*
X141883528Y-120570153D01*
X141863356Y-120605517D01*
X141786906Y-120699925D01*
X141783911Y-120705802D01*
X141783909Y-120705806D01*
X141703920Y-120862795D01*
X141700206Y-120870084D01*
X141650778Y-121054551D01*
X141650325Y-121060307D01*
X141645450Y-121122254D01*
X141644535Y-121133874D01*
X141644536Y-122061035D01*
X141650778Y-122140359D01*
X141700206Y-122324826D01*
X141786906Y-122494985D01*
X141791059Y-122500114D01*
X141791062Y-122500118D01*
X141886991Y-122618580D01*
X141907090Y-122643400D01*
X141912221Y-122647555D01*
X142050372Y-122759428D01*
X142050376Y-122759431D01*
X142055505Y-122763584D01*
X142061382Y-122766579D01*
X142061386Y-122766581D01*
X142219099Y-122846939D01*
X142225664Y-122850284D01*
X142232037Y-122851992D01*
X142232038Y-122851992D01*
X142404554Y-122898218D01*
X142404558Y-122898219D01*
X142410131Y-122899712D01*
X142415887Y-122900165D01*
X142486998Y-122905762D01*
X142487005Y-122905762D01*
X142489454Y-122905955D01*
X142509665Y-122905955D01*
X145245944Y-122905954D01*
X145314065Y-122925956D01*
X145360558Y-122979612D01*
X145371944Y-123031689D01*
X145373267Y-123660430D01*
X145373821Y-123923829D01*
X145373875Y-123949689D01*
X145354016Y-124017852D01*
X145300458Y-124064457D01*
X145247875Y-124075954D01*
X136941367Y-124075954D01*
X136921982Y-124074454D01*
X136907148Y-124072144D01*
X136907145Y-124072144D01*
X136898276Y-124070763D01*
X136880967Y-124073026D01*
X136878344Y-124073369D01*
X136856190Y-124074298D01*
X136534604Y-124059431D01*
X136523016Y-124058357D01*
X136174439Y-124009732D01*
X136162999Y-124007593D01*
X135865840Y-123937701D01*
X135820399Y-123927013D01*
X135809208Y-123923829D01*
X135475494Y-123811979D01*
X135464662Y-123807783D01*
X135142681Y-123665613D01*
X135132282Y-123660435D01*
X134824790Y-123489162D01*
X134814913Y-123483045D01*
X134524549Y-123284140D01*
X134515263Y-123277128D01*
X134506711Y-123270026D01*
X134244495Y-123052283D01*
X134235894Y-123044442D01*
X133987032Y-122795577D01*
X133979192Y-122786976D01*
X133754348Y-122516204D01*
X133747334Y-122506917D01*
X133739161Y-122494985D01*
X133560987Y-122234881D01*
X133548436Y-122216558D01*
X133542309Y-122206662D01*
X133459820Y-122058564D01*
X133371048Y-121899183D01*
X133365874Y-121888793D01*
X133223700Y-121566794D01*
X133219504Y-121555959D01*
X133107659Y-121222252D01*
X133104474Y-121211058D01*
X133086902Y-121136343D01*
X133023898Y-120868456D01*
X133021761Y-120857023D01*
X133000669Y-120705806D01*
X132973140Y-120508440D01*
X132972066Y-120496857D01*
X132969276Y-120436486D01*
X132962117Y-120281614D01*
X132961680Y-120272158D01*
X134782743Y-120272158D01*
X134783302Y-120276402D01*
X134783302Y-120276406D01*
X134794951Y-120364884D01*
X134820268Y-120557189D01*
X134821401Y-120561329D01*
X134821401Y-120561331D01*
X134834970Y-120610931D01*
X134896129Y-120834491D01*
X135008923Y-121098931D01*
X135156561Y-121345616D01*
X135336313Y-121569983D01*
X135544851Y-121767878D01*
X135778317Y-121935641D01*
X135782112Y-121937650D01*
X135782113Y-121937651D01*
X135803869Y-121949170D01*
X136032392Y-122070167D01*
X136302373Y-122168966D01*
X136583264Y-122230210D01*
X136611841Y-122232459D01*
X136806282Y-122247762D01*
X136806291Y-122247762D01*
X136808739Y-122247955D01*
X136964271Y-122247955D01*
X136966407Y-122247809D01*
X136966418Y-122247809D01*
X137174548Y-122233620D01*
X137174554Y-122233619D01*
X137178825Y-122233328D01*
X137183020Y-122232459D01*
X137183022Y-122232459D01*
X137319584Y-122204178D01*
X137460342Y-122175029D01*
X137731343Y-122079062D01*
X137986812Y-121947205D01*
X137990313Y-121944744D01*
X137990317Y-121944742D01*
X138146075Y-121835273D01*
X138222023Y-121781896D01*
X138432622Y-121586195D01*
X138614713Y-121363723D01*
X138764927Y-121118597D01*
X138880483Y-120855353D01*
X138959244Y-120578861D01*
X138999751Y-120294239D01*
X138999805Y-120284100D01*
X139001235Y-120011038D01*
X139001235Y-120011031D01*
X139001257Y-120006752D01*
X138993328Y-119946521D01*
X138964292Y-119725977D01*
X138963732Y-119721721D01*
X138887871Y-119444419D01*
X138877295Y-119419625D01*
X138776763Y-119183931D01*
X138776761Y-119183927D01*
X138775077Y-119179979D01*
X138627439Y-118933294D01*
X138447687Y-118708927D01*
X138313237Y-118581339D01*
X138242258Y-118513982D01*
X138242255Y-118513980D01*
X138239149Y-118511032D01*
X138005683Y-118343269D01*
X137983843Y-118331705D01*
X137925664Y-118300901D01*
X137751608Y-118208743D01*
X137609159Y-118156614D01*
X137485658Y-118111419D01*
X137485656Y-118111418D01*
X137481627Y-118109944D01*
X137200736Y-118048700D01*
X137169685Y-118046256D01*
X136977718Y-118031148D01*
X136977709Y-118031148D01*
X136975261Y-118030955D01*
X136819729Y-118030955D01*
X136817593Y-118031101D01*
X136817582Y-118031101D01*
X136609452Y-118045290D01*
X136609446Y-118045291D01*
X136605175Y-118045582D01*
X136600980Y-118046451D01*
X136600978Y-118046451D01*
X136540483Y-118058979D01*
X136323658Y-118103881D01*
X136052657Y-118199848D01*
X135797188Y-118331705D01*
X135793687Y-118334166D01*
X135793683Y-118334168D01*
X135783594Y-118341259D01*
X135561977Y-118497014D01*
X135520894Y-118535191D01*
X135387461Y-118659185D01*
X135351378Y-118692715D01*
X135169287Y-118915187D01*
X135019073Y-119160313D01*
X134903517Y-119423557D01*
X134824756Y-119700049D01*
X134784249Y-119984671D01*
X134784227Y-119988960D01*
X134784226Y-119988967D01*
X134782765Y-120267872D01*
X134782743Y-120272158D01*
X132961680Y-120272158D01*
X132957533Y-120182445D01*
X132958899Y-120157243D01*
X132959309Y-120154610D01*
X132959309Y-120154609D01*
X132960691Y-120145735D01*
X132959527Y-120136832D01*
X132959527Y-120136825D01*
X132956564Y-120114165D01*
X132955500Y-120097829D01*
X132955500Y-101590491D01*
X135536496Y-101590491D01*
X135537186Y-101597056D01*
X135555608Y-101772327D01*
X135556458Y-101780419D01*
X135615473Y-101962047D01*
X135710960Y-102127435D01*
X135722060Y-102139762D01*
X135744270Y-102164429D01*
X135774987Y-102228437D01*
X135766222Y-102298891D01*
X135751459Y-102324304D01*
X135699385Y-102393786D01*
X135648255Y-102530175D01*
X135641500Y-102592357D01*
X135641500Y-104288625D01*
X135648255Y-104350807D01*
X135699385Y-104487196D01*
X135786739Y-104603752D01*
X135903295Y-104691106D01*
X136039684Y-104742236D01*
X136101866Y-104748991D01*
X136798134Y-104748991D01*
X136860316Y-104742236D01*
X136996705Y-104691106D01*
X137113261Y-104603752D01*
X137118643Y-104596571D01*
X137199174Y-104489119D01*
X137256033Y-104446604D01*
X137326852Y-104441578D01*
X137389145Y-104475638D01*
X137400826Y-104489119D01*
X137481357Y-104596571D01*
X137486739Y-104603752D01*
X137603295Y-104691106D01*
X137739684Y-104742236D01*
X137801866Y-104748991D01*
X138498134Y-104748991D01*
X138560316Y-104742236D01*
X138696705Y-104691106D01*
X138813261Y-104603752D01*
X138900615Y-104487196D01*
X138951745Y-104350807D01*
X138958500Y-104288625D01*
X138958500Y-103283766D01*
X140792000Y-103283766D01*
X140792337Y-103290282D01*
X140802075Y-103384132D01*
X140804968Y-103397528D01*
X140855488Y-103548953D01*
X140861653Y-103562115D01*
X140945426Y-103697492D01*
X140954460Y-103708890D01*
X141067129Y-103821363D01*
X141078540Y-103830375D01*
X141214063Y-103913912D01*
X141227241Y-103920056D01*
X141378766Y-103970315D01*
X141392132Y-103973181D01*
X141484770Y-103982672D01*
X141491185Y-103983000D01*
X141665385Y-103983000D01*
X141680624Y-103978525D01*
X141681829Y-103977135D01*
X141683500Y-103969452D01*
X141683500Y-103272115D01*
X141679025Y-103256876D01*
X141677635Y-103255671D01*
X141669952Y-103254000D01*
X140810115Y-103254000D01*
X140794876Y-103258475D01*
X140793671Y-103259865D01*
X140792000Y-103267548D01*
X140792000Y-103283766D01*
X138958500Y-103283766D01*
X138958500Y-102759500D01*
X138978502Y-102691379D01*
X139032158Y-102644886D01*
X139084500Y-102633500D01*
X140669964Y-102633500D01*
X140738085Y-102653502D01*
X140784578Y-102707158D01*
X140790860Y-102724002D01*
X140796475Y-102743124D01*
X140797865Y-102744329D01*
X140805548Y-102746000D01*
X142065500Y-102746000D01*
X142133621Y-102766002D01*
X142180114Y-102819658D01*
X142191500Y-102872000D01*
X142191500Y-103964885D01*
X142195975Y-103980124D01*
X142197365Y-103981329D01*
X142205048Y-103983000D01*
X142383766Y-103983000D01*
X142390282Y-103982663D01*
X142484132Y-103972925D01*
X142497528Y-103970032D01*
X142648953Y-103919512D01*
X142662115Y-103913347D01*
X142797492Y-103829574D01*
X142808890Y-103820540D01*
X142910393Y-103718860D01*
X142972676Y-103684781D01*
X143043496Y-103689784D01*
X143088583Y-103718704D01*
X143196997Y-103826929D01*
X143203227Y-103830769D01*
X143203228Y-103830770D01*
X143325418Y-103906089D01*
X143345080Y-103918209D01*
X143510191Y-103972974D01*
X143517027Y-103973674D01*
X143517030Y-103973675D01*
X143564370Y-103978525D01*
X143612928Y-103983500D01*
X144512072Y-103983500D01*
X144515318Y-103983163D01*
X144515322Y-103983163D01*
X144609235Y-103973419D01*
X144609239Y-103973418D01*
X144616093Y-103972707D01*
X144622629Y-103970526D01*
X144622631Y-103970526D01*
X144755395Y-103926232D01*
X144781107Y-103917654D01*
X144929031Y-103826116D01*
X144951341Y-103803767D01*
X145046758Y-103708184D01*
X145046762Y-103708179D01*
X145051929Y-103703003D01*
X145058096Y-103692999D01*
X145139369Y-103561150D01*
X145139370Y-103561148D01*
X145143209Y-103554920D01*
X145197974Y-103389809D01*
X145208500Y-103287072D01*
X145208500Y-102802094D01*
X145228502Y-102733973D01*
X145245405Y-102712999D01*
X145287999Y-102670405D01*
X145350311Y-102636379D01*
X145377094Y-102633500D01*
X146247914Y-102633500D01*
X146316035Y-102653502D01*
X146348740Y-102683935D01*
X146396682Y-102747903D01*
X146408192Y-102763261D01*
X146524748Y-102850615D01*
X146661137Y-102901745D01*
X146723319Y-102908500D01*
X148719587Y-102908500D01*
X148781769Y-102901745D01*
X148918158Y-102850615D01*
X149034714Y-102763261D01*
X149040096Y-102756080D01*
X149046445Y-102749731D01*
X149048692Y-102751978D01*
X149092997Y-102718857D01*
X149163816Y-102713838D01*
X149226106Y-102747903D01*
X149260091Y-102810238D01*
X149262953Y-102836941D01*
X149262953Y-103398134D01*
X149269708Y-103460316D01*
X149320838Y-103596705D01*
X149408192Y-103713261D01*
X149524748Y-103800615D01*
X149661137Y-103851745D01*
X149723319Y-103858500D01*
X151719587Y-103858500D01*
X151781769Y-103851745D01*
X151918158Y-103800615D01*
X152034714Y-103713261D01*
X152040095Y-103706081D01*
X152040098Y-103706078D01*
X152049903Y-103692996D01*
X152106763Y-103650482D01*
X152177581Y-103645458D01*
X152239874Y-103679519D01*
X152251550Y-103692994D01*
X152266739Y-103713261D01*
X152383295Y-103800615D01*
X152519684Y-103851745D01*
X152581866Y-103858500D01*
X153775727Y-103858500D01*
X153813412Y-103864469D01*
X153817712Y-103866383D01*
X153824164Y-103867755D01*
X153824169Y-103867756D01*
X153998056Y-103904717D01*
X153998061Y-103904717D01*
X154004513Y-103906089D01*
X154195487Y-103906089D01*
X154201939Y-103904717D01*
X154201944Y-103904717D01*
X154375831Y-103867756D01*
X154375836Y-103867755D01*
X154382288Y-103866383D01*
X154386588Y-103864469D01*
X154424273Y-103858500D01*
X154578134Y-103858500D01*
X154640316Y-103851745D01*
X154776705Y-103800615D01*
X154893261Y-103713261D01*
X154980615Y-103596705D01*
X155031745Y-103460316D01*
X155038500Y-103398134D01*
X155038500Y-102836941D01*
X155058502Y-102768820D01*
X155112158Y-102722327D01*
X155182432Y-102712223D01*
X155247012Y-102741717D01*
X155254734Y-102750005D01*
X155255008Y-102749731D01*
X155261357Y-102756080D01*
X155266739Y-102763261D01*
X155383295Y-102850615D01*
X155519684Y-102901745D01*
X155581866Y-102908500D01*
X157578134Y-102908500D01*
X157640316Y-102901745D01*
X157776705Y-102850615D01*
X157893261Y-102763261D01*
X157980615Y-102646705D01*
X158031745Y-102510316D01*
X158038500Y-102448134D01*
X158038500Y-101551866D01*
X158031745Y-101489684D01*
X157980615Y-101353295D01*
X157893261Y-101236739D01*
X157776705Y-101149385D01*
X157768296Y-101146233D01*
X157768295Y-101146232D01*
X157646820Y-101100693D01*
X157616987Y-101084646D01*
X157581576Y-101058918D01*
X157581571Y-101058915D01*
X157576232Y-101055036D01*
X157570202Y-101052351D01*
X157407799Y-100980045D01*
X157407798Y-100980045D01*
X157401768Y-100977360D01*
X157306552Y-100957121D01*
X157221424Y-100939026D01*
X157221419Y-100939026D01*
X157214967Y-100937654D01*
X157023993Y-100937654D01*
X157017541Y-100939026D01*
X157017536Y-100939026D01*
X156932408Y-100957121D01*
X156837192Y-100977360D01*
X156831162Y-100980045D01*
X156831161Y-100980045D01*
X156668758Y-101052351D01*
X156668756Y-101052352D01*
X156662728Y-101055036D01*
X156657387Y-101058916D01*
X156657386Y-101058917D01*
X156645661Y-101067436D01*
X156578794Y-101091294D01*
X156571600Y-101091500D01*
X155581866Y-101091500D01*
X155519684Y-101098255D01*
X155383295Y-101149385D01*
X155266739Y-101236739D01*
X155261358Y-101243919D01*
X155255008Y-101250269D01*
X155252761Y-101248022D01*
X155208456Y-101281143D01*
X155137637Y-101286162D01*
X155075347Y-101252097D01*
X155041362Y-101189762D01*
X155038500Y-101163059D01*
X155038500Y-100601866D01*
X155031745Y-100539684D01*
X154980615Y-100403295D01*
X154893261Y-100286739D01*
X154776705Y-100199385D01*
X154640316Y-100148255D01*
X154578134Y-100141500D01*
X152581866Y-100141500D01*
X152519684Y-100148255D01*
X152383295Y-100199385D01*
X152266739Y-100286739D01*
X152251553Y-100307002D01*
X152194695Y-100349517D01*
X152123876Y-100354543D01*
X152061583Y-100320484D01*
X152049903Y-100307004D01*
X152040098Y-100293922D01*
X152040094Y-100293918D01*
X152034714Y-100286739D01*
X151918158Y-100199385D01*
X151781769Y-100148255D01*
X151719587Y-100141500D01*
X149723319Y-100141500D01*
X149661137Y-100148255D01*
X149524748Y-100199385D01*
X149408192Y-100286739D01*
X149320838Y-100403295D01*
X149269708Y-100539684D01*
X149262953Y-100601866D01*
X149262953Y-101163059D01*
X149242951Y-101231180D01*
X149189295Y-101277673D01*
X149119021Y-101287777D01*
X149054441Y-101258283D01*
X149046719Y-101249995D01*
X149046445Y-101250269D01*
X149040095Y-101243919D01*
X149034714Y-101236739D01*
X148918158Y-101149385D01*
X148781769Y-101098255D01*
X148719587Y-101091500D01*
X146723319Y-101091500D01*
X146661137Y-101098255D01*
X146524748Y-101149385D01*
X146408192Y-101236739D01*
X146402811Y-101243919D01*
X146402810Y-101243920D01*
X146348740Y-101316065D01*
X146291880Y-101358580D01*
X146247914Y-101366500D01*
X145141268Y-101366500D01*
X145130085Y-101365973D01*
X145122592Y-101364298D01*
X145114666Y-101364547D01*
X145114665Y-101364547D01*
X145054502Y-101366438D01*
X145050544Y-101366500D01*
X138909500Y-101366500D01*
X138841379Y-101346498D01*
X138794886Y-101292842D01*
X138783500Y-101240500D01*
X138783500Y-100983904D01*
X138803502Y-100915783D01*
X138813102Y-100903871D01*
X138813261Y-100903752D01*
X138900615Y-100787196D01*
X138951745Y-100650807D01*
X138958500Y-100588625D01*
X138958500Y-98892357D01*
X138951745Y-98830175D01*
X138900615Y-98693786D01*
X138813261Y-98577230D01*
X138696705Y-98489876D01*
X138560316Y-98438746D01*
X138498134Y-98431991D01*
X137801866Y-98431991D01*
X137739684Y-98438746D01*
X137603295Y-98489876D01*
X137486739Y-98577230D01*
X137481358Y-98584410D01*
X137481357Y-98584411D01*
X137400826Y-98691863D01*
X137343967Y-98734378D01*
X137273148Y-98739404D01*
X137210855Y-98705344D01*
X137199174Y-98691863D01*
X137118643Y-98584411D01*
X137118642Y-98584410D01*
X137113261Y-98577230D01*
X136996705Y-98489876D01*
X136860316Y-98438746D01*
X136798134Y-98431991D01*
X136101866Y-98431991D01*
X136039684Y-98438746D01*
X135903295Y-98489876D01*
X135786739Y-98577230D01*
X135699385Y-98693786D01*
X135648255Y-98830175D01*
X135641500Y-98892357D01*
X135641500Y-100588625D01*
X135648255Y-100650807D01*
X135699385Y-100787196D01*
X135704771Y-100794382D01*
X135751459Y-100856678D01*
X135776307Y-100923184D01*
X135761254Y-100992567D01*
X135744272Y-101016551D01*
X135710960Y-101053547D01*
X135615473Y-101218935D01*
X135556458Y-101400563D01*
X135555768Y-101407124D01*
X135555768Y-101407126D01*
X135540196Y-101555283D01*
X135536496Y-101590491D01*
X132955500Y-101590491D01*
X132955500Y-94162158D01*
X134782743Y-94162158D01*
X134783302Y-94166402D01*
X134783302Y-94166406D01*
X134797649Y-94275378D01*
X134820268Y-94447189D01*
X134896129Y-94724491D01*
X134897813Y-94728439D01*
X135003867Y-94977077D01*
X135008923Y-94988931D01*
X135156561Y-95235616D01*
X135336313Y-95459983D01*
X135442229Y-95560493D01*
X135509867Y-95624679D01*
X135544851Y-95657878D01*
X135625092Y-95715537D01*
X135771767Y-95820934D01*
X135778317Y-95825641D01*
X135782112Y-95827650D01*
X135782113Y-95827651D01*
X135803869Y-95839170D01*
X136032392Y-95960167D01*
X136146397Y-96001887D01*
X136224346Y-96030412D01*
X136302373Y-96058966D01*
X136583264Y-96120210D01*
X136611841Y-96122459D01*
X136806282Y-96137762D01*
X136806291Y-96137762D01*
X136808739Y-96137955D01*
X136964271Y-96137955D01*
X136966407Y-96137809D01*
X136966418Y-96137809D01*
X137174548Y-96123620D01*
X137174554Y-96123619D01*
X137178825Y-96123328D01*
X137183020Y-96122459D01*
X137183022Y-96122459D01*
X137319584Y-96094178D01*
X137460342Y-96065029D01*
X137731343Y-95969062D01*
X137931945Y-95865524D01*
X137983005Y-95839170D01*
X137983006Y-95839170D01*
X137986812Y-95837205D01*
X137990313Y-95834744D01*
X137990317Y-95834742D01*
X138144759Y-95726198D01*
X138222023Y-95671896D01*
X138312177Y-95588120D01*
X138429479Y-95479116D01*
X138429481Y-95479113D01*
X138432622Y-95476195D01*
X138587417Y-95287072D01*
X140791500Y-95287072D01*
X140802293Y-95391093D01*
X140804474Y-95397629D01*
X140804474Y-95397631D01*
X140826260Y-95462930D01*
X140857346Y-95556107D01*
X140948884Y-95704031D01*
X140954066Y-95709204D01*
X141066816Y-95821758D01*
X141066821Y-95821762D01*
X141071997Y-95826929D01*
X141078227Y-95830769D01*
X141078228Y-95830770D01*
X141115567Y-95853786D01*
X141220080Y-95918209D01*
X141227027Y-95920513D01*
X141231249Y-95922482D01*
X141284535Y-95969399D01*
X141304000Y-96036677D01*
X141304000Y-96301895D01*
X141283998Y-96370016D01*
X141244303Y-96409039D01*
X141175652Y-96451522D01*
X141050695Y-96576697D01*
X141046855Y-96582927D01*
X141046854Y-96582928D01*
X141001997Y-96655700D01*
X140957885Y-96727262D01*
X140902203Y-96895139D01*
X140891500Y-96999600D01*
X140891500Y-98000400D01*
X140902474Y-98106166D01*
X140958450Y-98273946D01*
X141051522Y-98424348D01*
X141176697Y-98549305D01*
X141182927Y-98553145D01*
X141182928Y-98553146D01*
X141320288Y-98637816D01*
X141327262Y-98642115D01*
X141391016Y-98663261D01*
X141488611Y-98695632D01*
X141488613Y-98695632D01*
X141495139Y-98697797D01*
X141501975Y-98698497D01*
X141501978Y-98698498D01*
X141545031Y-98702909D01*
X141599600Y-98708500D01*
X142350400Y-98708500D01*
X142353646Y-98708163D01*
X142353650Y-98708163D01*
X142449308Y-98698238D01*
X142449312Y-98698237D01*
X142456166Y-98697526D01*
X142462702Y-98695345D01*
X142462704Y-98695345D01*
X142594806Y-98651272D01*
X142623946Y-98641550D01*
X142774348Y-98548478D01*
X142899305Y-98423303D01*
X142902102Y-98418765D01*
X142959353Y-98378176D01*
X143030276Y-98374946D01*
X143091687Y-98410572D01*
X143099062Y-98419068D01*
X143107098Y-98429207D01*
X143221829Y-98543739D01*
X143233240Y-98552751D01*
X143371243Y-98637816D01*
X143384424Y-98643963D01*
X143538710Y-98695138D01*
X143552086Y-98698005D01*
X143646438Y-98707672D01*
X143652854Y-98708000D01*
X143752885Y-98708000D01*
X143768124Y-98703525D01*
X143769329Y-98702135D01*
X143771000Y-98694452D01*
X143771000Y-96310116D01*
X143766525Y-96294877D01*
X143765135Y-96293672D01*
X143757452Y-96292001D01*
X143652905Y-96292001D01*
X143646386Y-96292338D01*
X143550794Y-96302257D01*
X143537400Y-96305149D01*
X143383216Y-96356588D01*
X143370038Y-96362761D01*
X143232193Y-96448063D01*
X143220792Y-96457099D01*
X143106262Y-96571828D01*
X143099206Y-96580762D01*
X143041288Y-96621823D01*
X142970365Y-96625053D01*
X142908954Y-96589426D01*
X142902154Y-96581593D01*
X142898478Y-96575652D01*
X142773303Y-96450695D01*
X142765863Y-96446109D01*
X142630884Y-96362906D01*
X142583390Y-96310133D01*
X142571000Y-96255646D01*
X142571000Y-96036702D01*
X142591002Y-95968581D01*
X142643547Y-95922602D01*
X142649165Y-95919970D01*
X142656107Y-95917654D01*
X142804031Y-95826116D01*
X142809204Y-95820934D01*
X142910747Y-95719214D01*
X142973030Y-95685135D01*
X143043850Y-95690138D01*
X143088937Y-95719059D01*
X143191812Y-95821754D01*
X143191817Y-95821758D01*
X143196997Y-95826929D01*
X143203227Y-95830769D01*
X143203228Y-95830770D01*
X143337926Y-95913799D01*
X143345080Y-95918209D01*
X143510191Y-95972974D01*
X143517027Y-95973674D01*
X143517030Y-95973675D01*
X143568526Y-95978951D01*
X143612928Y-95983500D01*
X144512072Y-95983500D01*
X144515318Y-95983163D01*
X144515322Y-95983163D01*
X144609235Y-95973419D01*
X144609239Y-95973418D01*
X144616093Y-95972707D01*
X144622629Y-95970526D01*
X144622631Y-95970526D01*
X144766636Y-95922482D01*
X144781107Y-95917654D01*
X144846571Y-95877144D01*
X144853085Y-95873113D01*
X144921537Y-95854276D01*
X144989306Y-95875438D01*
X145008482Y-95891163D01*
X145394595Y-96277276D01*
X145428621Y-96339588D01*
X145431500Y-96366371D01*
X145431500Y-96368133D01*
X145411498Y-96436254D01*
X145377772Y-96471345D01*
X145345700Y-96493802D01*
X145183802Y-96655700D01*
X145182676Y-96654574D01*
X145129672Y-96689834D01*
X145058684Y-96690958D01*
X144998358Y-96653524D01*
X144985120Y-96635818D01*
X144951932Y-96582187D01*
X144942901Y-96570792D01*
X144828171Y-96456261D01*
X144816760Y-96447249D01*
X144678757Y-96362184D01*
X144665576Y-96356037D01*
X144511290Y-96304862D01*
X144497914Y-96301995D01*
X144403562Y-96292328D01*
X144397145Y-96292000D01*
X144297115Y-96292000D01*
X144281876Y-96296475D01*
X144280671Y-96297865D01*
X144279000Y-96305548D01*
X144279000Y-98689884D01*
X144283475Y-98705123D01*
X144284865Y-98706328D01*
X144292548Y-98707999D01*
X144397095Y-98707999D01*
X144403614Y-98707662D01*
X144499206Y-98697743D01*
X144512600Y-98694851D01*
X144666784Y-98643412D01*
X144679962Y-98637239D01*
X144817807Y-98551937D01*
X144829208Y-98542901D01*
X144943739Y-98428171D01*
X144952753Y-98416757D01*
X144985028Y-98364397D01*
X145037800Y-98316903D01*
X145107871Y-98305479D01*
X145172995Y-98333753D01*
X145183688Y-98344414D01*
X145183802Y-98344300D01*
X145345700Y-98506198D01*
X145350208Y-98509355D01*
X145350211Y-98509357D01*
X145413812Y-98553891D01*
X145533251Y-98637523D01*
X145538233Y-98639846D01*
X145538238Y-98639849D01*
X145735775Y-98731961D01*
X145740757Y-98734284D01*
X145746065Y-98735706D01*
X145746067Y-98735707D01*
X145956598Y-98792119D01*
X145956600Y-98792119D01*
X145961913Y-98793543D01*
X146190000Y-98813498D01*
X146418087Y-98793543D01*
X146423400Y-98792119D01*
X146423402Y-98792119D01*
X146633933Y-98735707D01*
X146633935Y-98735706D01*
X146639243Y-98734284D01*
X146644225Y-98731961D01*
X146841762Y-98639849D01*
X146841767Y-98639846D01*
X146846749Y-98637523D01*
X146966188Y-98553891D01*
X147029789Y-98509357D01*
X147029792Y-98509355D01*
X147034300Y-98506198D01*
X147192364Y-98348134D01*
X152501500Y-98348134D01*
X152508255Y-98410316D01*
X152559385Y-98546705D01*
X152646739Y-98663261D01*
X152763295Y-98750615D01*
X152899684Y-98801745D01*
X152961866Y-98808500D01*
X154658134Y-98808500D01*
X154720316Y-98801745D01*
X154856705Y-98750615D01*
X154973261Y-98663261D01*
X155027264Y-98591205D01*
X155084123Y-98548690D01*
X155154942Y-98543664D01*
X155194206Y-98559510D01*
X155321243Y-98637816D01*
X155334424Y-98643963D01*
X155488710Y-98695138D01*
X155502086Y-98698005D01*
X155596438Y-98707672D01*
X155602854Y-98708000D01*
X155702885Y-98708000D01*
X155718124Y-98703525D01*
X155719329Y-98702135D01*
X155721000Y-98694452D01*
X155721000Y-96310116D01*
X155716525Y-96294877D01*
X155715135Y-96293672D01*
X155707452Y-96292001D01*
X155602905Y-96292001D01*
X155596386Y-96292338D01*
X155500794Y-96302257D01*
X155487400Y-96305149D01*
X155333216Y-96356588D01*
X155320038Y-96362762D01*
X155194464Y-96440469D01*
X155126012Y-96459307D01*
X155058242Y-96438146D01*
X155027335Y-96408890D01*
X154999856Y-96372224D01*
X154973261Y-96336739D01*
X154856705Y-96249385D01*
X154848296Y-96246233D01*
X154848295Y-96246232D01*
X154748883Y-96208964D01*
X154692118Y-96166323D01*
X154667418Y-96099761D01*
X154682625Y-96030412D01*
X154704017Y-96001887D01*
X154886384Y-95819520D01*
X154948696Y-95785494D01*
X155019511Y-95790559D01*
X155061059Y-95817235D01*
X155061071Y-95817220D01*
X155061222Y-95817340D01*
X155064497Y-95819442D01*
X155071997Y-95826929D01*
X155078227Y-95830769D01*
X155078228Y-95830770D01*
X155212926Y-95913799D01*
X155220080Y-95918209D01*
X155385191Y-95972974D01*
X155392027Y-95973674D01*
X155392030Y-95973675D01*
X155443526Y-95978951D01*
X155487928Y-95983500D01*
X156387072Y-95983500D01*
X156390318Y-95983163D01*
X156390322Y-95983163D01*
X156484235Y-95973419D01*
X156484239Y-95973418D01*
X156491093Y-95972707D01*
X156497629Y-95970526D01*
X156497631Y-95970526D01*
X156641636Y-95922482D01*
X156656107Y-95917654D01*
X156804031Y-95826116D01*
X156809204Y-95820934D01*
X156910747Y-95719214D01*
X156973030Y-95685135D01*
X157043850Y-95690138D01*
X157088937Y-95719059D01*
X157191812Y-95821754D01*
X157191817Y-95821758D01*
X157196997Y-95826929D01*
X157203227Y-95830769D01*
X157203228Y-95830770D01*
X157240567Y-95853786D01*
X157345080Y-95918209D01*
X157352027Y-95920513D01*
X157356249Y-95922482D01*
X157409535Y-95969399D01*
X157429000Y-96036677D01*
X157429000Y-96255484D01*
X157408998Y-96323605D01*
X157369304Y-96362627D01*
X157225652Y-96451522D01*
X157100695Y-96576697D01*
X157097898Y-96581235D01*
X157040647Y-96621824D01*
X156969724Y-96625054D01*
X156908313Y-96589428D01*
X156900938Y-96580932D01*
X156892902Y-96570793D01*
X156778171Y-96456261D01*
X156766760Y-96447249D01*
X156628757Y-96362184D01*
X156615576Y-96356037D01*
X156461290Y-96304862D01*
X156447914Y-96301995D01*
X156353562Y-96292328D01*
X156347145Y-96292000D01*
X156247115Y-96292000D01*
X156231876Y-96296475D01*
X156230671Y-96297865D01*
X156229000Y-96305548D01*
X156229000Y-98689884D01*
X156233475Y-98705123D01*
X156234865Y-98706328D01*
X156242548Y-98707999D01*
X156347095Y-98707999D01*
X156353614Y-98707662D01*
X156449206Y-98697743D01*
X156462600Y-98694851D01*
X156616784Y-98643412D01*
X156629962Y-98637239D01*
X156767807Y-98551937D01*
X156779208Y-98542901D01*
X156893738Y-98428172D01*
X156900794Y-98419238D01*
X156958712Y-98378177D01*
X157029635Y-98374947D01*
X157091046Y-98410574D01*
X157097846Y-98418407D01*
X157101522Y-98424348D01*
X157226697Y-98549305D01*
X157232927Y-98553145D01*
X157232928Y-98553146D01*
X157370288Y-98637816D01*
X157377262Y-98642115D01*
X157441016Y-98663261D01*
X157538611Y-98695632D01*
X157538613Y-98695632D01*
X157545139Y-98697797D01*
X157551975Y-98698497D01*
X157551978Y-98698498D01*
X157595031Y-98702909D01*
X157649600Y-98708500D01*
X158400400Y-98708500D01*
X158403646Y-98708163D01*
X158403650Y-98708163D01*
X158499308Y-98698238D01*
X158499312Y-98698237D01*
X158506166Y-98697526D01*
X158512702Y-98695345D01*
X158512704Y-98695345D01*
X158644806Y-98651272D01*
X158673946Y-98641550D01*
X158824348Y-98548478D01*
X158949305Y-98423303D01*
X158979113Y-98374946D01*
X159038275Y-98278968D01*
X159038276Y-98278966D01*
X159042115Y-98272738D01*
X159097797Y-98104861D01*
X159108500Y-98000400D01*
X159108500Y-96999600D01*
X159097526Y-96893834D01*
X159041550Y-96726054D01*
X158948478Y-96575652D01*
X158823303Y-96450695D01*
X158815863Y-96446109D01*
X158755884Y-96409137D01*
X158708390Y-96356364D01*
X158696000Y-96301877D01*
X158696000Y-96036702D01*
X158716002Y-95968581D01*
X158768547Y-95922602D01*
X158774165Y-95919970D01*
X158781107Y-95917654D01*
X158929031Y-95826116D01*
X158934204Y-95820934D01*
X159046758Y-95708184D01*
X159046762Y-95708179D01*
X159051929Y-95703003D01*
X159062943Y-95685135D01*
X159139369Y-95561150D01*
X159139370Y-95561148D01*
X159143209Y-95554920D01*
X159197974Y-95389809D01*
X159208500Y-95287072D01*
X159208500Y-94712928D01*
X159197707Y-94608907D01*
X159142654Y-94443893D01*
X159138261Y-94436793D01*
X159054970Y-94302197D01*
X159051116Y-94295969D01*
X159042128Y-94286997D01*
X158933184Y-94178242D01*
X158933179Y-94178238D01*
X158928003Y-94173071D01*
X158921772Y-94169230D01*
X158910299Y-94162158D01*
X160998743Y-94162158D01*
X160999302Y-94166402D01*
X160999302Y-94166406D01*
X161013649Y-94275378D01*
X161036268Y-94447189D01*
X161112129Y-94724491D01*
X161113813Y-94728439D01*
X161219867Y-94977077D01*
X161224923Y-94988931D01*
X161372561Y-95235616D01*
X161552313Y-95459983D01*
X161658229Y-95560493D01*
X161725867Y-95624679D01*
X161760851Y-95657878D01*
X161841092Y-95715537D01*
X161987767Y-95820934D01*
X161994317Y-95825641D01*
X161998112Y-95827650D01*
X161998113Y-95827651D01*
X162019869Y-95839170D01*
X162248392Y-95960167D01*
X162362397Y-96001887D01*
X162440346Y-96030412D01*
X162518373Y-96058966D01*
X162799264Y-96120210D01*
X162827841Y-96122459D01*
X163022282Y-96137762D01*
X163022291Y-96137762D01*
X163024739Y-96137955D01*
X163180271Y-96137955D01*
X163182407Y-96137809D01*
X163182418Y-96137809D01*
X163390548Y-96123620D01*
X163390554Y-96123619D01*
X163394825Y-96123328D01*
X163399020Y-96122459D01*
X163399022Y-96122459D01*
X163535584Y-96094178D01*
X163676342Y-96065029D01*
X163947343Y-95969062D01*
X164147945Y-95865524D01*
X164199005Y-95839170D01*
X164199006Y-95839170D01*
X164202812Y-95837205D01*
X164206313Y-95834744D01*
X164206317Y-95834742D01*
X164360759Y-95726198D01*
X164438023Y-95671896D01*
X164528177Y-95588120D01*
X164645479Y-95479116D01*
X164645481Y-95479113D01*
X164648622Y-95476195D01*
X164830713Y-95253723D01*
X164980927Y-95008597D01*
X164992055Y-94983248D01*
X165094757Y-94749285D01*
X165096483Y-94745353D01*
X165175244Y-94468861D01*
X165215751Y-94184239D01*
X165215779Y-94179066D01*
X165217235Y-93901038D01*
X165217235Y-93901031D01*
X165217257Y-93896752D01*
X165179732Y-93611721D01*
X165166543Y-93563508D01*
X165138800Y-93462098D01*
X165103871Y-93334419D01*
X164991077Y-93069979D01*
X164857930Y-92847507D01*
X164845643Y-92826976D01*
X164845640Y-92826972D01*
X164843439Y-92823294D01*
X164663687Y-92598927D01*
X164455149Y-92401032D01*
X164221683Y-92233269D01*
X164199843Y-92221705D01*
X164132819Y-92186218D01*
X163967608Y-92098743D01*
X163697627Y-91999944D01*
X163416736Y-91938700D01*
X163385685Y-91936256D01*
X163193718Y-91921148D01*
X163193709Y-91921148D01*
X163191261Y-91920955D01*
X163035729Y-91920955D01*
X163033593Y-91921101D01*
X163033582Y-91921101D01*
X162825452Y-91935290D01*
X162825446Y-91935291D01*
X162821175Y-91935582D01*
X162816980Y-91936451D01*
X162816978Y-91936451D01*
X162680417Y-91964731D01*
X162539658Y-91993881D01*
X162268657Y-92089848D01*
X162264848Y-92091814D01*
X162086109Y-92184068D01*
X162013188Y-92221705D01*
X162009687Y-92224166D01*
X162009683Y-92224168D01*
X161928756Y-92281045D01*
X161777977Y-92387014D01*
X161567378Y-92582715D01*
X161385287Y-92805187D01*
X161235073Y-93050313D01*
X161119517Y-93313557D01*
X161118342Y-93317684D01*
X161118341Y-93317685D01*
X161096231Y-93395303D01*
X161040756Y-93590049D01*
X161000249Y-93874671D01*
X161000227Y-93878960D01*
X161000226Y-93878967D01*
X160998765Y-94157872D01*
X160998743Y-94162158D01*
X158910299Y-94162158D01*
X158786150Y-94085631D01*
X158786148Y-94085630D01*
X158779920Y-94081791D01*
X158614809Y-94027026D01*
X158607973Y-94026326D01*
X158607970Y-94026325D01*
X158556474Y-94021049D01*
X158512072Y-94016500D01*
X157612928Y-94016500D01*
X157609682Y-94016837D01*
X157609678Y-94016837D01*
X157515765Y-94026581D01*
X157515761Y-94026582D01*
X157508907Y-94027293D01*
X157502371Y-94029474D01*
X157502369Y-94029474D01*
X157410581Y-94060097D01*
X157343893Y-94082346D01*
X157195969Y-94173884D01*
X157190796Y-94179066D01*
X157089253Y-94280786D01*
X157026970Y-94314865D01*
X156956150Y-94309862D01*
X156911063Y-94280941D01*
X156808188Y-94178246D01*
X156808183Y-94178242D01*
X156803003Y-94173071D01*
X156796772Y-94169230D01*
X156661150Y-94085631D01*
X156661148Y-94085630D01*
X156654920Y-94081791D01*
X156489809Y-94027026D01*
X156482973Y-94026326D01*
X156482970Y-94026325D01*
X156431474Y-94021049D01*
X156387072Y-94016500D01*
X155487928Y-94016500D01*
X155484682Y-94016837D01*
X155484678Y-94016837D01*
X155390765Y-94026581D01*
X155390761Y-94026582D01*
X155383907Y-94027293D01*
X155377371Y-94029474D01*
X155377369Y-94029474D01*
X155285581Y-94060097D01*
X155218893Y-94082346D01*
X155070969Y-94173884D01*
X155065796Y-94179066D01*
X154996382Y-94248601D01*
X154934099Y-94282680D01*
X154911169Y-94285521D01*
X154887568Y-94286263D01*
X154881999Y-94286438D01*
X154878044Y-94286500D01*
X154850144Y-94286500D01*
X154846154Y-94287004D01*
X154834320Y-94287936D01*
X154790111Y-94289326D01*
X154782495Y-94291539D01*
X154782493Y-94291539D01*
X154770652Y-94294979D01*
X154751293Y-94298988D01*
X154749983Y-94299154D01*
X154731203Y-94301526D01*
X154723837Y-94304442D01*
X154723831Y-94304444D01*
X154690098Y-94317800D01*
X154678868Y-94321645D01*
X154644017Y-94331770D01*
X154636407Y-94333981D01*
X154629584Y-94338016D01*
X154618966Y-94344295D01*
X154601213Y-94352992D01*
X154593568Y-94356019D01*
X154582383Y-94360448D01*
X154575968Y-94365109D01*
X154546612Y-94386437D01*
X154536695Y-94392951D01*
X154498638Y-94415458D01*
X154484317Y-94429779D01*
X154469284Y-94442619D01*
X154452893Y-94454528D01*
X154424702Y-94488605D01*
X154416712Y-94497384D01*
X153417747Y-95496348D01*
X153409461Y-95503888D01*
X153402982Y-95508000D01*
X153397557Y-95513777D01*
X153356357Y-95557651D01*
X153353602Y-95560493D01*
X153333865Y-95580230D01*
X153331385Y-95583427D01*
X153323682Y-95592447D01*
X153293414Y-95624679D01*
X153289595Y-95631625D01*
X153289593Y-95631628D01*
X153283652Y-95642434D01*
X153272801Y-95658953D01*
X153260386Y-95674959D01*
X153257241Y-95682228D01*
X153257238Y-95682232D01*
X153242826Y-95715537D01*
X153237609Y-95726187D01*
X153216305Y-95764940D01*
X153214334Y-95772615D01*
X153214334Y-95772616D01*
X153211267Y-95784562D01*
X153204863Y-95803266D01*
X153196819Y-95821855D01*
X153195580Y-95829678D01*
X153195577Y-95829688D01*
X153189901Y-95865524D01*
X153187495Y-95877144D01*
X153176500Y-95919970D01*
X153176500Y-95940224D01*
X153174949Y-95959934D01*
X153171780Y-95979943D01*
X153172526Y-95987835D01*
X153175941Y-96023961D01*
X153176500Y-96035819D01*
X153176500Y-96065500D01*
X153156498Y-96133621D01*
X153102842Y-96180114D01*
X153050500Y-96191500D01*
X152961866Y-96191500D01*
X152899684Y-96198255D01*
X152763295Y-96249385D01*
X152646739Y-96336739D01*
X152559385Y-96453295D01*
X152508255Y-96589684D01*
X152501500Y-96651866D01*
X152501500Y-98348134D01*
X147192364Y-98348134D01*
X147196198Y-98344300D01*
X147327523Y-98156749D01*
X147329846Y-98151767D01*
X147329849Y-98151762D01*
X147421961Y-97954225D01*
X147421961Y-97954224D01*
X147424284Y-97949243D01*
X147483543Y-97728087D01*
X147503498Y-97500000D01*
X147483543Y-97271913D01*
X147424284Y-97050757D01*
X147401952Y-97002866D01*
X147329849Y-96848238D01*
X147329846Y-96848233D01*
X147327523Y-96843251D01*
X147196198Y-96655700D01*
X147034300Y-96493802D01*
X147002229Y-96471345D01*
X146957901Y-96415890D01*
X146948500Y-96368133D01*
X146948500Y-96366371D01*
X146968502Y-96298250D01*
X146985405Y-96277276D01*
X149600375Y-93662306D01*
X149662687Y-93628280D01*
X149689470Y-93625401D01*
X157543545Y-93625401D01*
X157562495Y-93626834D01*
X157576730Y-93629000D01*
X157576734Y-93629000D01*
X157583964Y-93630100D01*
X157591256Y-93629507D01*
X157591259Y-93629507D01*
X157636633Y-93625816D01*
X157646848Y-93625401D01*
X157654908Y-93625401D01*
X157668198Y-93623852D01*
X157683122Y-93622112D01*
X157687497Y-93621679D01*
X157752954Y-93616355D01*
X157752957Y-93616354D01*
X157760252Y-93615761D01*
X157767216Y-93613505D01*
X157773175Y-93612314D01*
X157779030Y-93610930D01*
X157786296Y-93610083D01*
X157854942Y-93585166D01*
X157859070Y-93583749D01*
X157921551Y-93563508D01*
X157921553Y-93563507D01*
X157928514Y-93561252D01*
X157934769Y-93557456D01*
X157940243Y-93554950D01*
X157945673Y-93552231D01*
X157952552Y-93549734D01*
X158013591Y-93509715D01*
X158017295Y-93507378D01*
X158079722Y-93469496D01*
X158088099Y-93462098D01*
X158088123Y-93462125D01*
X158091115Y-93459472D01*
X158094348Y-93456769D01*
X158100467Y-93452757D01*
X158153743Y-93396518D01*
X158156121Y-93394076D01*
X160038911Y-91511286D01*
X160053323Y-91498900D01*
X160064918Y-91490367D01*
X160064923Y-91490362D01*
X160070818Y-91486024D01*
X160075557Y-91480446D01*
X160075560Y-91480443D01*
X160105035Y-91445748D01*
X160111965Y-91438232D01*
X160692292Y-90857905D01*
X160754604Y-90823879D01*
X160781387Y-90821000D01*
X162036830Y-90821000D01*
X162104951Y-90841002D01*
X162143974Y-90880697D01*
X162173884Y-90929031D01*
X162179066Y-90934204D01*
X162291816Y-91046758D01*
X162291821Y-91046762D01*
X162296997Y-91051929D01*
X162303227Y-91055769D01*
X162303228Y-91055770D01*
X162389799Y-91109133D01*
X162445080Y-91143209D01*
X162610191Y-91197974D01*
X162617027Y-91198674D01*
X162617030Y-91198675D01*
X162664370Y-91203525D01*
X162712928Y-91208500D01*
X163287072Y-91208500D01*
X163290318Y-91208163D01*
X163290322Y-91208163D01*
X163384235Y-91198419D01*
X163384239Y-91198418D01*
X163391093Y-91197707D01*
X163397629Y-91195526D01*
X163397631Y-91195526D01*
X163545050Y-91146343D01*
X163556107Y-91142654D01*
X163704031Y-91051116D01*
X163744570Y-91010506D01*
X163821758Y-90933184D01*
X163821762Y-90933179D01*
X163826929Y-90928003D01*
X163892994Y-90820826D01*
X163945766Y-90773333D01*
X164015838Y-90761909D01*
X164080962Y-90790183D01*
X164107399Y-90820640D01*
X164170426Y-90922492D01*
X164179460Y-90933890D01*
X164292129Y-91046363D01*
X164303540Y-91055375D01*
X164439063Y-91138912D01*
X164452241Y-91145056D01*
X164603766Y-91195315D01*
X164617132Y-91198181D01*
X164709770Y-91207672D01*
X164716185Y-91208000D01*
X164727885Y-91208000D01*
X164743124Y-91203525D01*
X164744329Y-91202135D01*
X164746000Y-91194452D01*
X164746000Y-91189885D01*
X165254000Y-91189885D01*
X165258475Y-91205124D01*
X165259865Y-91206329D01*
X165267548Y-91208000D01*
X165283766Y-91208000D01*
X165290282Y-91207663D01*
X165384132Y-91197925D01*
X165397528Y-91195032D01*
X165548953Y-91144512D01*
X165562115Y-91138347D01*
X165697492Y-91054574D01*
X165708890Y-91045540D01*
X165821363Y-90932871D01*
X165830375Y-90921460D01*
X165913912Y-90785937D01*
X165920056Y-90772759D01*
X165970315Y-90621234D01*
X165973181Y-90607868D01*
X165982672Y-90515230D01*
X165983000Y-90508815D01*
X165983000Y-90334615D01*
X165978525Y-90319376D01*
X165977135Y-90318171D01*
X165969452Y-90316500D01*
X165272115Y-90316500D01*
X165256876Y-90320975D01*
X165255671Y-90322365D01*
X165254000Y-90330048D01*
X165254000Y-91189885D01*
X164746000Y-91189885D01*
X164746000Y-89934500D01*
X164766002Y-89866379D01*
X164819658Y-89819886D01*
X164872000Y-89808500D01*
X165964885Y-89808500D01*
X165980124Y-89804025D01*
X165981329Y-89802635D01*
X165983000Y-89794952D01*
X165983000Y-89616234D01*
X165982663Y-89609718D01*
X165972925Y-89515868D01*
X165970032Y-89502472D01*
X165919512Y-89351047D01*
X165913347Y-89337885D01*
X165829574Y-89202508D01*
X165820540Y-89191110D01*
X165718860Y-89089607D01*
X165684781Y-89027324D01*
X165689784Y-88956504D01*
X165718705Y-88911416D01*
X165719022Y-88911099D01*
X165826929Y-88803003D01*
X165892700Y-88696303D01*
X165914369Y-88661150D01*
X165914370Y-88661148D01*
X165918209Y-88654920D01*
X165972974Y-88489809D01*
X165983500Y-88387072D01*
X165983500Y-87487928D01*
X165982882Y-87481970D01*
X165973419Y-87390765D01*
X165973418Y-87390761D01*
X165972707Y-87383907D01*
X165917654Y-87218893D01*
X165826116Y-87070969D01*
X165796965Y-87041869D01*
X165708184Y-86953242D01*
X165708179Y-86953238D01*
X165703003Y-86948071D01*
X165693672Y-86942319D01*
X165693386Y-86942143D01*
X165691559Y-86940114D01*
X165691027Y-86939693D01*
X165691099Y-86939602D01*
X165645892Y-86889372D01*
X165633500Y-86834882D01*
X165633500Y-84598767D01*
X165634027Y-84587584D01*
X165635702Y-84580091D01*
X165633562Y-84512014D01*
X165633500Y-84508055D01*
X165633500Y-84480144D01*
X165632995Y-84476144D01*
X165632062Y-84464301D01*
X165631516Y-84446911D01*
X165630673Y-84420110D01*
X165625022Y-84400658D01*
X165621014Y-84381306D01*
X165619467Y-84369063D01*
X165618474Y-84361203D01*
X165615556Y-84353832D01*
X165602200Y-84320097D01*
X165598355Y-84308870D01*
X165596634Y-84302947D01*
X165586018Y-84266407D01*
X165575707Y-84248972D01*
X165567012Y-84231224D01*
X165559552Y-84212383D01*
X165533564Y-84176613D01*
X165527048Y-84166693D01*
X165508580Y-84135465D01*
X165508578Y-84135462D01*
X165504542Y-84128638D01*
X165490221Y-84114317D01*
X165477380Y-84099283D01*
X165470131Y-84089306D01*
X165465472Y-84082893D01*
X165431395Y-84054702D01*
X165422616Y-84046712D01*
X161906698Y-80530793D01*
X161899158Y-80522507D01*
X161895046Y-80516028D01*
X161845394Y-80469402D01*
X161842553Y-80466648D01*
X161822816Y-80446911D01*
X161819619Y-80444431D01*
X161810597Y-80436726D01*
X161784146Y-80411887D01*
X161778367Y-80406460D01*
X161771421Y-80402641D01*
X161771418Y-80402639D01*
X161760612Y-80396698D01*
X161744093Y-80385847D01*
X161743629Y-80385487D01*
X161728087Y-80373432D01*
X161720818Y-80370287D01*
X161720814Y-80370284D01*
X161687509Y-80355872D01*
X161676859Y-80350655D01*
X161638106Y-80329351D01*
X161618483Y-80324313D01*
X161599780Y-80317909D01*
X161588466Y-80313013D01*
X161588465Y-80313013D01*
X161581191Y-80309865D01*
X161573368Y-80308626D01*
X161573358Y-80308623D01*
X161537522Y-80302947D01*
X161525902Y-80300541D01*
X161490757Y-80291518D01*
X161490756Y-80291518D01*
X161483076Y-80289546D01*
X161462822Y-80289546D01*
X161443111Y-80287995D01*
X161430932Y-80286066D01*
X161423103Y-80284826D01*
X161415211Y-80285572D01*
X161379085Y-80288987D01*
X161367227Y-80289546D01*
X161058433Y-80289546D01*
X160990312Y-80269544D01*
X160951000Y-80227368D01*
X160950615Y-80226341D01*
X160863261Y-80109785D01*
X160793584Y-80057565D01*
X160748628Y-80023872D01*
X160706113Y-79967013D01*
X160701087Y-79896194D01*
X160735147Y-79833901D01*
X160748628Y-79822220D01*
X160856080Y-79741689D01*
X160856081Y-79741688D01*
X160863261Y-79736307D01*
X160950615Y-79619751D01*
X161001745Y-79483362D01*
X161008500Y-79421180D01*
X161008500Y-78424912D01*
X161001745Y-78362730D01*
X160950615Y-78226341D01*
X160863261Y-78109785D01*
X160856080Y-78104403D01*
X160748628Y-78023872D01*
X160706113Y-77967013D01*
X160701087Y-77896194D01*
X160735147Y-77833901D01*
X160748628Y-77822220D01*
X160856080Y-77741689D01*
X160856081Y-77741688D01*
X160863261Y-77736307D01*
X160950615Y-77619751D01*
X161001745Y-77483362D01*
X161008500Y-77421180D01*
X161008500Y-76424912D01*
X161001745Y-76362730D01*
X160950615Y-76226341D01*
X160863261Y-76109785D01*
X160793584Y-76057565D01*
X160748628Y-76023872D01*
X160706113Y-75967013D01*
X160701087Y-75896194D01*
X160735147Y-75833901D01*
X160748628Y-75822220D01*
X160856080Y-75741689D01*
X160856081Y-75741688D01*
X160863261Y-75736307D01*
X160950615Y-75619751D01*
X161001745Y-75483362D01*
X161008500Y-75421180D01*
X161008500Y-74424912D01*
X161001745Y-74362730D01*
X160950615Y-74226341D01*
X160863261Y-74109785D01*
X160793584Y-74057565D01*
X160748628Y-74023872D01*
X160706113Y-73967013D01*
X160701087Y-73896194D01*
X160735147Y-73833901D01*
X160748628Y-73822220D01*
X160856080Y-73741689D01*
X160856081Y-73741688D01*
X160863261Y-73736307D01*
X160950615Y-73619751D01*
X161001745Y-73483362D01*
X161008500Y-73421180D01*
X161008500Y-72424912D01*
X161001745Y-72362730D01*
X160950615Y-72226341D01*
X160863261Y-72109785D01*
X160746705Y-72022431D01*
X160610316Y-71971301D01*
X160548134Y-71964546D01*
X159151866Y-71964546D01*
X159089684Y-71971301D01*
X158983189Y-72011224D01*
X158912384Y-72016407D01*
X158888920Y-72008879D01*
X158829774Y-71983284D01*
X158829775Y-71983284D01*
X158823914Y-71980748D01*
X158628334Y-71939890D01*
X158623478Y-71939635D01*
X158623439Y-71939633D01*
X158623423Y-71939633D01*
X158621771Y-71939546D01*
X157425066Y-71939546D01*
X157411933Y-71940880D01*
X157282566Y-71954020D01*
X157282562Y-71954021D01*
X157276220Y-71954665D01*
X157184898Y-71983284D01*
X157091651Y-72012506D01*
X157091650Y-72012507D01*
X157085560Y-72014415D01*
X157079978Y-72017509D01*
X157079976Y-72017510D01*
X157061382Y-72027817D01*
X156910809Y-72111281D01*
X156759104Y-72241307D01*
X156755197Y-72246344D01*
X156755195Y-72246346D01*
X156640555Y-72394139D01*
X156640553Y-72394142D01*
X156636643Y-72399183D01*
X156633825Y-72404909D01*
X156633823Y-72404913D01*
X156622301Y-72428329D01*
X156548429Y-72578457D01*
X156498065Y-72771808D01*
X156487608Y-72971338D01*
X156517486Y-73168894D01*
X156586477Y-73356407D01*
X156691765Y-73526218D01*
X156829047Y-73671390D01*
X156992716Y-73785992D01*
X157028563Y-73801504D01*
X157041271Y-73807004D01*
X157095845Y-73852416D01*
X157117205Y-73920123D01*
X157098568Y-73988630D01*
X157052317Y-74032842D01*
X156910809Y-74111281D01*
X156759104Y-74241307D01*
X156755197Y-74246344D01*
X156755195Y-74246346D01*
X156640555Y-74394139D01*
X156640553Y-74394142D01*
X156636643Y-74399183D01*
X156633825Y-74404909D01*
X156633823Y-74404913D01*
X156622301Y-74428329D01*
X156548429Y-74578457D01*
X156498065Y-74771808D01*
X156487608Y-74971338D01*
X156517486Y-75168894D01*
X156586477Y-75356407D01*
X156691765Y-75526218D01*
X156829047Y-75671390D01*
X156992716Y-75785992D01*
X157028563Y-75801504D01*
X157041271Y-75807004D01*
X157095845Y-75852416D01*
X157117205Y-75920123D01*
X157098568Y-75988630D01*
X157052317Y-76032842D01*
X156910809Y-76111281D01*
X156905960Y-76115437D01*
X156784944Y-76219160D01*
X156759104Y-76241307D01*
X156755197Y-76246344D01*
X156755195Y-76246346D01*
X156640555Y-76394139D01*
X156640553Y-76394142D01*
X156636643Y-76399183D01*
X156633825Y-76404909D01*
X156633823Y-76404913D01*
X156607911Y-76457574D01*
X156548429Y-76578457D01*
X156498065Y-76771808D01*
X156487608Y-76971338D01*
X156517486Y-77168894D01*
X156586477Y-77356407D01*
X156691765Y-77526218D01*
X156829047Y-77671390D01*
X156992716Y-77785992D01*
X157028563Y-77801504D01*
X157041271Y-77807004D01*
X157095845Y-77852416D01*
X157117205Y-77920123D01*
X157098568Y-77988630D01*
X157052317Y-78032842D01*
X156910809Y-78111281D01*
X156905960Y-78115437D01*
X156795000Y-78210541D01*
X156759104Y-78241307D01*
X156755197Y-78246344D01*
X156755195Y-78246346D01*
X156640555Y-78394139D01*
X156640553Y-78394142D01*
X156636643Y-78399183D01*
X156633825Y-78404909D01*
X156633823Y-78404913D01*
X156582974Y-78508252D01*
X156548429Y-78578457D01*
X156546820Y-78584635D01*
X156502754Y-78753808D01*
X156498065Y-78771808D01*
X156487608Y-78971338D01*
X156517486Y-79168894D01*
X156586477Y-79356407D01*
X156691765Y-79526218D01*
X156829047Y-79671390D01*
X156992716Y-79785992D01*
X157028563Y-79801504D01*
X157041271Y-79807004D01*
X157095845Y-79852416D01*
X157117205Y-79920123D01*
X157098568Y-79988630D01*
X157052317Y-80032842D01*
X156910809Y-80111281D01*
X156905960Y-80115437D01*
X156784944Y-80219160D01*
X156759104Y-80241307D01*
X156755197Y-80246344D01*
X156755195Y-80246346D01*
X156640555Y-80394139D01*
X156640553Y-80394142D01*
X156636643Y-80399183D01*
X156633825Y-80404909D01*
X156633823Y-80404913D01*
X156571883Y-80530793D01*
X156548429Y-80578457D01*
X156498065Y-80771808D01*
X156487608Y-80971338D01*
X156517486Y-81168894D01*
X156586477Y-81356407D01*
X156691765Y-81526218D01*
X156829047Y-81671390D01*
X156992716Y-81785992D01*
X157028563Y-81801504D01*
X157041271Y-81807004D01*
X157095845Y-81852416D01*
X157117205Y-81920123D01*
X157098568Y-81988630D01*
X157052317Y-82032842D01*
X156910809Y-82111281D01*
X156759104Y-82241307D01*
X156755197Y-82246344D01*
X156755195Y-82246346D01*
X156640555Y-82394139D01*
X156640553Y-82394142D01*
X156636643Y-82399183D01*
X156633825Y-82404909D01*
X156633823Y-82404913D01*
X156622301Y-82428329D01*
X156548429Y-82578457D01*
X156498065Y-82771808D01*
X156487608Y-82971338D01*
X156517486Y-83168894D01*
X156586477Y-83356407D01*
X156691765Y-83526218D01*
X156829047Y-83671390D01*
X156992716Y-83785992D01*
X157028563Y-83801504D01*
X157041271Y-83807004D01*
X157095845Y-83852416D01*
X157117205Y-83920123D01*
X157098568Y-83988630D01*
X157052317Y-84032842D01*
X156910809Y-84111281D01*
X156905960Y-84115437D01*
X156784944Y-84219160D01*
X156759104Y-84241307D01*
X156755197Y-84246344D01*
X156755195Y-84246346D01*
X156640555Y-84394139D01*
X156640553Y-84394142D01*
X156636643Y-84399183D01*
X156633825Y-84404909D01*
X156633823Y-84404913D01*
X156571883Y-84530793D01*
X156548429Y-84578457D01*
X156543139Y-84598767D01*
X156504918Y-84745500D01*
X156498065Y-84771808D01*
X156487608Y-84971338D01*
X156517486Y-85168894D01*
X156586477Y-85356407D01*
X156691765Y-85526218D01*
X156829047Y-85671390D01*
X156992716Y-85785992D01*
X157028563Y-85801504D01*
X157041271Y-85807004D01*
X157095845Y-85852416D01*
X157117205Y-85920123D01*
X157098568Y-85988630D01*
X157052317Y-86032842D01*
X156910809Y-86111281D01*
X156905960Y-86115437D01*
X156815567Y-86192913D01*
X156759104Y-86241307D01*
X156755197Y-86246344D01*
X156755195Y-86246346D01*
X156640555Y-86394139D01*
X156640553Y-86394142D01*
X156636643Y-86399183D01*
X156633825Y-86404909D01*
X156633823Y-86404913D01*
X156551248Y-86572728D01*
X156548429Y-86578457D01*
X156546820Y-86584635D01*
X156511912Y-86718650D01*
X156498065Y-86771808D01*
X156494751Y-86835036D01*
X156488785Y-86948884D01*
X156487608Y-86971338D01*
X156517486Y-87168894D01*
X156519689Y-87174881D01*
X156519689Y-87174882D01*
X156574715Y-87324439D01*
X156586477Y-87356407D01*
X156650932Y-87460362D01*
X156677922Y-87503891D01*
X156691765Y-87526218D01*
X156829047Y-87671390D01*
X156992716Y-87785992D01*
X157176086Y-87865344D01*
X157371666Y-87906202D01*
X157376522Y-87906457D01*
X157376561Y-87906459D01*
X157376577Y-87906459D01*
X157378229Y-87906546D01*
X158574934Y-87906546D01*
X158652767Y-87898640D01*
X158722560Y-87911656D01*
X158774237Y-87960338D01*
X158791500Y-88023995D01*
X158791500Y-90561145D01*
X158771498Y-90629266D01*
X158754595Y-90650240D01*
X157333339Y-92071496D01*
X157271027Y-92105522D01*
X157244244Y-92108401D01*
X149390169Y-92108401D01*
X149371219Y-92106968D01*
X149356984Y-92104802D01*
X149356980Y-92104802D01*
X149349750Y-92103702D01*
X149342458Y-92104295D01*
X149342455Y-92104295D01*
X149297081Y-92107986D01*
X149286866Y-92108401D01*
X149278806Y-92108401D01*
X149265516Y-92109950D01*
X149250592Y-92111690D01*
X149246217Y-92112123D01*
X149180760Y-92117447D01*
X149180757Y-92117448D01*
X149173462Y-92118041D01*
X149166498Y-92120297D01*
X149160539Y-92121488D01*
X149154684Y-92122872D01*
X149147418Y-92123719D01*
X149078772Y-92148636D01*
X149074644Y-92150053D01*
X149012163Y-92170294D01*
X149012161Y-92170295D01*
X149005200Y-92172550D01*
X148998945Y-92176346D01*
X148993471Y-92178852D01*
X148988041Y-92181571D01*
X148981162Y-92184068D01*
X148975042Y-92188081D01*
X148975041Y-92188081D01*
X148920123Y-92224087D01*
X148916419Y-92226424D01*
X148853992Y-92264306D01*
X148845615Y-92271704D01*
X148845591Y-92271677D01*
X148842599Y-92274330D01*
X148839366Y-92277033D01*
X148833247Y-92281045D01*
X148828215Y-92286357D01*
X148779971Y-92337284D01*
X148777593Y-92339726D01*
X146279095Y-94838224D01*
X146216783Y-94872250D01*
X146145968Y-94867185D01*
X146100905Y-94838224D01*
X145773770Y-94511089D01*
X145761384Y-94496677D01*
X145752851Y-94485082D01*
X145752846Y-94485077D01*
X145748508Y-94479182D01*
X145742930Y-94474443D01*
X145742927Y-94474440D01*
X145708232Y-94444965D01*
X145700716Y-94438035D01*
X145695021Y-94432340D01*
X145680772Y-94421067D01*
X145672749Y-94414719D01*
X145669345Y-94411928D01*
X145619297Y-94369409D01*
X145619295Y-94369408D01*
X145613715Y-94364667D01*
X145607199Y-94361339D01*
X145602150Y-94357972D01*
X145597021Y-94354805D01*
X145591284Y-94350266D01*
X145525125Y-94319345D01*
X145521225Y-94317439D01*
X145516184Y-94314865D01*
X145456192Y-94284231D01*
X145449084Y-94282492D01*
X145443441Y-94280393D01*
X145437678Y-94278476D01*
X145431050Y-94275378D01*
X145359583Y-94260513D01*
X145355299Y-94259543D01*
X145284390Y-94242192D01*
X145278788Y-94241844D01*
X145278785Y-94241844D01*
X145273236Y-94241500D01*
X145273238Y-94241464D01*
X145269245Y-94241225D01*
X145265053Y-94240851D01*
X145257885Y-94239360D01*
X145191675Y-94241151D01*
X145180479Y-94241454D01*
X145177072Y-94241500D01*
X145048677Y-94241500D01*
X144980556Y-94221498D01*
X144959666Y-94204679D01*
X144928003Y-94173071D01*
X144779920Y-94081791D01*
X144614809Y-94027026D01*
X144607973Y-94026326D01*
X144607970Y-94026325D01*
X144556474Y-94021049D01*
X144512072Y-94016500D01*
X143612928Y-94016500D01*
X143609682Y-94016837D01*
X143609678Y-94016837D01*
X143515765Y-94026581D01*
X143515761Y-94026582D01*
X143508907Y-94027293D01*
X143502371Y-94029474D01*
X143502369Y-94029474D01*
X143410581Y-94060097D01*
X143343893Y-94082346D01*
X143195969Y-94173884D01*
X143190796Y-94179066D01*
X143089253Y-94280786D01*
X143026970Y-94314865D01*
X142956150Y-94309862D01*
X142911063Y-94280941D01*
X142808188Y-94178246D01*
X142808183Y-94178242D01*
X142803003Y-94173071D01*
X142796772Y-94169230D01*
X142661150Y-94085631D01*
X142661148Y-94085630D01*
X142654920Y-94081791D01*
X142489809Y-94027026D01*
X142482973Y-94026326D01*
X142482970Y-94026325D01*
X142431474Y-94021049D01*
X142387072Y-94016500D01*
X141487928Y-94016500D01*
X141484682Y-94016837D01*
X141484678Y-94016837D01*
X141390765Y-94026581D01*
X141390761Y-94026582D01*
X141383907Y-94027293D01*
X141377371Y-94029474D01*
X141377369Y-94029474D01*
X141285581Y-94060097D01*
X141218893Y-94082346D01*
X141070969Y-94173884D01*
X141065796Y-94179066D01*
X140953242Y-94291816D01*
X140953238Y-94291821D01*
X140948071Y-94296997D01*
X140944231Y-94303227D01*
X140944230Y-94303228D01*
X140861134Y-94438035D01*
X140856791Y-94445080D01*
X140802026Y-94610191D01*
X140791500Y-94712928D01*
X140791500Y-95287072D01*
X138587417Y-95287072D01*
X138614713Y-95253723D01*
X138764927Y-95008597D01*
X138776055Y-94983248D01*
X138878757Y-94749285D01*
X138880483Y-94745353D01*
X138959244Y-94468861D01*
X138999751Y-94184239D01*
X138999779Y-94179066D01*
X139001235Y-93901038D01*
X139001235Y-93901031D01*
X139001257Y-93896752D01*
X138963732Y-93611721D01*
X138950543Y-93563508D01*
X138922800Y-93462098D01*
X138887871Y-93334419D01*
X138775077Y-93069979D01*
X138641930Y-92847507D01*
X138629643Y-92826976D01*
X138629640Y-92826972D01*
X138627439Y-92823294D01*
X138447687Y-92598927D01*
X138239149Y-92401032D01*
X138005683Y-92233269D01*
X137983843Y-92221705D01*
X137916819Y-92186218D01*
X137751608Y-92098743D01*
X137481627Y-91999944D01*
X137200736Y-91938700D01*
X137169685Y-91936256D01*
X136977718Y-91921148D01*
X136977709Y-91921148D01*
X136975261Y-91920955D01*
X136819729Y-91920955D01*
X136817593Y-91921101D01*
X136817582Y-91921101D01*
X136609452Y-91935290D01*
X136609446Y-91935291D01*
X136605175Y-91935582D01*
X136600980Y-91936451D01*
X136600978Y-91936451D01*
X136464417Y-91964731D01*
X136323658Y-91993881D01*
X136052657Y-92089848D01*
X136048848Y-92091814D01*
X135870109Y-92184068D01*
X135797188Y-92221705D01*
X135793687Y-92224166D01*
X135793683Y-92224168D01*
X135712756Y-92281045D01*
X135561977Y-92387014D01*
X135351378Y-92582715D01*
X135169287Y-92805187D01*
X135019073Y-93050313D01*
X134903517Y-93313557D01*
X134902342Y-93317684D01*
X134902341Y-93317685D01*
X134880231Y-93395303D01*
X134824756Y-93590049D01*
X134784249Y-93874671D01*
X134784227Y-93878960D01*
X134784226Y-93878967D01*
X134782765Y-94157872D01*
X134782743Y-94162158D01*
X132955500Y-94162158D01*
X132955500Y-90508766D01*
X136017000Y-90508766D01*
X136017337Y-90515282D01*
X136027075Y-90609132D01*
X136029968Y-90622528D01*
X136080488Y-90773953D01*
X136086653Y-90787115D01*
X136170426Y-90922492D01*
X136179460Y-90933890D01*
X136292129Y-91046363D01*
X136303540Y-91055375D01*
X136439063Y-91138912D01*
X136452241Y-91145056D01*
X136603766Y-91195315D01*
X136617132Y-91198181D01*
X136709770Y-91207672D01*
X136716185Y-91208000D01*
X136727885Y-91208000D01*
X136743124Y-91203525D01*
X136744329Y-91202135D01*
X136746000Y-91194452D01*
X136746000Y-91189885D01*
X137254000Y-91189885D01*
X137258475Y-91205124D01*
X137259865Y-91206329D01*
X137267548Y-91208000D01*
X137283766Y-91208000D01*
X137290282Y-91207663D01*
X137384132Y-91197925D01*
X137397528Y-91195032D01*
X137548953Y-91144512D01*
X137562115Y-91138347D01*
X137697492Y-91054574D01*
X137708890Y-91045540D01*
X137821363Y-90932871D01*
X137830375Y-90921460D01*
X137913912Y-90785937D01*
X137920056Y-90772759D01*
X137970315Y-90621234D01*
X137973181Y-90607868D01*
X137982672Y-90515230D01*
X137983000Y-90508815D01*
X137983000Y-90334615D01*
X137978525Y-90319376D01*
X137977135Y-90318171D01*
X137969452Y-90316500D01*
X137272115Y-90316500D01*
X137256876Y-90320975D01*
X137255671Y-90322365D01*
X137254000Y-90330048D01*
X137254000Y-91189885D01*
X136746000Y-91189885D01*
X136746000Y-90334615D01*
X136741525Y-90319376D01*
X136740135Y-90318171D01*
X136732452Y-90316500D01*
X136035115Y-90316500D01*
X136019876Y-90320975D01*
X136018671Y-90322365D01*
X136017000Y-90330048D01*
X136017000Y-90508766D01*
X132955500Y-90508766D01*
X132955500Y-88387072D01*
X136016500Y-88387072D01*
X136027293Y-88491093D01*
X136082346Y-88656107D01*
X136173884Y-88804031D01*
X136281141Y-88911101D01*
X136315220Y-88973382D01*
X136310217Y-89044202D01*
X136281296Y-89089291D01*
X136178637Y-89192129D01*
X136169625Y-89203540D01*
X136086088Y-89339063D01*
X136079944Y-89352241D01*
X136029685Y-89503766D01*
X136026819Y-89517132D01*
X136017328Y-89609770D01*
X136017000Y-89616185D01*
X136017000Y-89790385D01*
X136021475Y-89805624D01*
X136022865Y-89806829D01*
X136030548Y-89808500D01*
X137964885Y-89808500D01*
X137980124Y-89804025D01*
X137981329Y-89802635D01*
X137983000Y-89794952D01*
X137983000Y-89616234D01*
X137982663Y-89609718D01*
X137972925Y-89515868D01*
X137970032Y-89502472D01*
X137919512Y-89351047D01*
X137913347Y-89337885D01*
X137829574Y-89202508D01*
X137820540Y-89191110D01*
X137718860Y-89089607D01*
X137684781Y-89027324D01*
X137687914Y-88982980D01*
X144016500Y-88982980D01*
X144016823Y-88986159D01*
X144027331Y-89089607D01*
X144031619Y-89131826D01*
X144033526Y-89137911D01*
X144033527Y-89137916D01*
X144088695Y-89313955D01*
X144089979Y-89384940D01*
X144086444Y-89395862D01*
X144048255Y-89497730D01*
X144041500Y-89559912D01*
X144041500Y-90956180D01*
X144048255Y-91018362D01*
X144099385Y-91154751D01*
X144186739Y-91271307D01*
X144303295Y-91358661D01*
X144439684Y-91409791D01*
X144501866Y-91416546D01*
X145498134Y-91416546D01*
X145560316Y-91409791D01*
X145696705Y-91358661D01*
X145813261Y-91271307D01*
X145860960Y-91207663D01*
X145899174Y-91156674D01*
X145956033Y-91114159D01*
X146026852Y-91109133D01*
X146089145Y-91143193D01*
X146100826Y-91156674D01*
X146139040Y-91207663D01*
X146186739Y-91271307D01*
X146303295Y-91358661D01*
X146439684Y-91409791D01*
X146501866Y-91416546D01*
X147498134Y-91416546D01*
X147560316Y-91409791D01*
X147696705Y-91358661D01*
X147813261Y-91271307D01*
X147860960Y-91207663D01*
X147899174Y-91156674D01*
X147956033Y-91114159D01*
X148026852Y-91109133D01*
X148089145Y-91143193D01*
X148100826Y-91156674D01*
X148139040Y-91207663D01*
X148186739Y-91271307D01*
X148303295Y-91358661D01*
X148439684Y-91409791D01*
X148501866Y-91416546D01*
X149498134Y-91416546D01*
X149560316Y-91409791D01*
X149696705Y-91358661D01*
X149813261Y-91271307D01*
X149860960Y-91207663D01*
X149899174Y-91156674D01*
X149956033Y-91114159D01*
X150026852Y-91109133D01*
X150089145Y-91143193D01*
X150100826Y-91156674D01*
X150139040Y-91207663D01*
X150186739Y-91271307D01*
X150303295Y-91358661D01*
X150439684Y-91409791D01*
X150501866Y-91416546D01*
X151498134Y-91416546D01*
X151560316Y-91409791D01*
X151696705Y-91358661D01*
X151813261Y-91271307D01*
X151860960Y-91207663D01*
X151899174Y-91156674D01*
X151956033Y-91114159D01*
X152026852Y-91109133D01*
X152089145Y-91143193D01*
X152100826Y-91156674D01*
X152139040Y-91207663D01*
X152186739Y-91271307D01*
X152303295Y-91358661D01*
X152439684Y-91409791D01*
X152501866Y-91416546D01*
X153498134Y-91416546D01*
X153560316Y-91409791D01*
X153696705Y-91358661D01*
X153813261Y-91271307D01*
X153860960Y-91207663D01*
X153899174Y-91156674D01*
X153956033Y-91114159D01*
X154026852Y-91109133D01*
X154089145Y-91143193D01*
X154100826Y-91156674D01*
X154139040Y-91207663D01*
X154186739Y-91271307D01*
X154303295Y-91358661D01*
X154439684Y-91409791D01*
X154501866Y-91416546D01*
X155498134Y-91416546D01*
X155560316Y-91409791D01*
X155696705Y-91358661D01*
X155813261Y-91271307D01*
X155900615Y-91154751D01*
X155951745Y-91018362D01*
X155958500Y-90956180D01*
X155958500Y-89559912D01*
X155951745Y-89497730D01*
X155911822Y-89391235D01*
X155906639Y-89320430D01*
X155914167Y-89296966D01*
X155939762Y-89237820D01*
X155942298Y-89231960D01*
X155983156Y-89036380D01*
X155983500Y-89029817D01*
X155983500Y-87833112D01*
X155974214Y-87741688D01*
X155969026Y-87690612D01*
X155969025Y-87690608D01*
X155968381Y-87684266D01*
X155911854Y-87503891D01*
X155910540Y-87499697D01*
X155910539Y-87499696D01*
X155908631Y-87493606D01*
X155903711Y-87484729D01*
X155854268Y-87395532D01*
X155811765Y-87318855D01*
X155726088Y-87218893D01*
X155685891Y-87171994D01*
X155685890Y-87171993D01*
X155681739Y-87167150D01*
X155675854Y-87162585D01*
X155528907Y-87048601D01*
X155528904Y-87048599D01*
X155523863Y-87044689D01*
X155518137Y-87041871D01*
X155518133Y-87041869D01*
X155350318Y-86959294D01*
X155344589Y-86956475D01*
X155225797Y-86925532D01*
X155157420Y-86907721D01*
X155157417Y-86907721D01*
X155151238Y-86906111D01*
X155057744Y-86901211D01*
X154958089Y-86895988D01*
X154958085Y-86895988D01*
X154951708Y-86895654D01*
X154754152Y-86925532D01*
X154748165Y-86927735D01*
X154748164Y-86927735D01*
X154678838Y-86953242D01*
X154566639Y-86994523D01*
X154485730Y-87044689D01*
X154431638Y-87078228D01*
X154396828Y-87099811D01*
X154251656Y-87237093D01*
X154137054Y-87400762D01*
X154134519Y-87406621D01*
X154116042Y-87449317D01*
X154070630Y-87503891D01*
X154002923Y-87525251D01*
X153934416Y-87506614D01*
X153890204Y-87460363D01*
X153811765Y-87318855D01*
X153726088Y-87218893D01*
X153685891Y-87171994D01*
X153685890Y-87171993D01*
X153681739Y-87167150D01*
X153675854Y-87162585D01*
X153528907Y-87048601D01*
X153528904Y-87048599D01*
X153523863Y-87044689D01*
X153518137Y-87041871D01*
X153518133Y-87041869D01*
X153350318Y-86959294D01*
X153344589Y-86956475D01*
X153225797Y-86925532D01*
X153157420Y-86907721D01*
X153157417Y-86907721D01*
X153151238Y-86906111D01*
X153057744Y-86901211D01*
X152958089Y-86895988D01*
X152958085Y-86895988D01*
X152951708Y-86895654D01*
X152754152Y-86925532D01*
X152748165Y-86927735D01*
X152748164Y-86927735D01*
X152678838Y-86953242D01*
X152566639Y-86994523D01*
X152485730Y-87044689D01*
X152431638Y-87078228D01*
X152396828Y-87099811D01*
X152251656Y-87237093D01*
X152137054Y-87400762D01*
X152134519Y-87406621D01*
X152116042Y-87449317D01*
X152070630Y-87503891D01*
X152002923Y-87525251D01*
X151934416Y-87506614D01*
X151890204Y-87460363D01*
X151811765Y-87318855D01*
X151726088Y-87218893D01*
X151685891Y-87171994D01*
X151685890Y-87171993D01*
X151681739Y-87167150D01*
X151675854Y-87162585D01*
X151528907Y-87048601D01*
X151528904Y-87048599D01*
X151523863Y-87044689D01*
X151518137Y-87041871D01*
X151518133Y-87041869D01*
X151350318Y-86959294D01*
X151344589Y-86956475D01*
X151225797Y-86925532D01*
X151157420Y-86907721D01*
X151157417Y-86907721D01*
X151151238Y-86906111D01*
X151057744Y-86901211D01*
X150958089Y-86895988D01*
X150958085Y-86895988D01*
X150951708Y-86895654D01*
X150754152Y-86925532D01*
X150748165Y-86927735D01*
X150748164Y-86927735D01*
X150678838Y-86953242D01*
X150566639Y-86994523D01*
X150485730Y-87044689D01*
X150431638Y-87078228D01*
X150396828Y-87099811D01*
X150251656Y-87237093D01*
X150137054Y-87400762D01*
X150128219Y-87421180D01*
X150128193Y-87421239D01*
X150082781Y-87475813D01*
X150015074Y-87497172D01*
X149946567Y-87478535D01*
X149902355Y-87432284D01*
X149811765Y-87268855D01*
X149789021Y-87242319D01*
X149685891Y-87121994D01*
X149685890Y-87121993D01*
X149681739Y-87117150D01*
X149659386Y-87099811D01*
X149528907Y-86998601D01*
X149528904Y-86998599D01*
X149523863Y-86994689D01*
X149518137Y-86991871D01*
X149518133Y-86991869D01*
X149350318Y-86909294D01*
X149344589Y-86906475D01*
X149225797Y-86875532D01*
X149157420Y-86857721D01*
X149157417Y-86857721D01*
X149151238Y-86856111D01*
X149057744Y-86851211D01*
X148958089Y-86845988D01*
X148958085Y-86845988D01*
X148951708Y-86845654D01*
X148754152Y-86875532D01*
X148748165Y-86877735D01*
X148748164Y-86877735D01*
X148572629Y-86942319D01*
X148566639Y-86944523D01*
X148396828Y-87049811D01*
X148392195Y-87054192D01*
X148392194Y-87054193D01*
X148329752Y-87113241D01*
X148251656Y-87187093D01*
X148199711Y-87261279D01*
X148155486Y-87324439D01*
X148137054Y-87350762D01*
X148125540Y-87377369D01*
X148103891Y-87427396D01*
X148058480Y-87481970D01*
X147990772Y-87503330D01*
X147922265Y-87484693D01*
X147878053Y-87438442D01*
X147811765Y-87318855D01*
X147726088Y-87218893D01*
X147685891Y-87171994D01*
X147685890Y-87171993D01*
X147681739Y-87167150D01*
X147675854Y-87162585D01*
X147528907Y-87048601D01*
X147528904Y-87048599D01*
X147523863Y-87044689D01*
X147518137Y-87041871D01*
X147518133Y-87041869D01*
X147350318Y-86959294D01*
X147344589Y-86956475D01*
X147225797Y-86925532D01*
X147157420Y-86907721D01*
X147157417Y-86907721D01*
X147151238Y-86906111D01*
X147057744Y-86901211D01*
X146958089Y-86895988D01*
X146958085Y-86895988D01*
X146951708Y-86895654D01*
X146754152Y-86925532D01*
X146748165Y-86927735D01*
X146748164Y-86927735D01*
X146678838Y-86953242D01*
X146566639Y-86994523D01*
X146485730Y-87044689D01*
X146431638Y-87078228D01*
X146396828Y-87099811D01*
X146251656Y-87237093D01*
X146137054Y-87400762D01*
X146134519Y-87406621D01*
X146116042Y-87449317D01*
X146070630Y-87503891D01*
X146002923Y-87525251D01*
X145934416Y-87506614D01*
X145890204Y-87460363D01*
X145811765Y-87318855D01*
X145726088Y-87218893D01*
X145685891Y-87171994D01*
X145685890Y-87171993D01*
X145681739Y-87167150D01*
X145675854Y-87162585D01*
X145528907Y-87048601D01*
X145528904Y-87048599D01*
X145523863Y-87044689D01*
X145518137Y-87041871D01*
X145518133Y-87041869D01*
X145350318Y-86959294D01*
X145344589Y-86956475D01*
X145225797Y-86925532D01*
X145157420Y-86907721D01*
X145157417Y-86907721D01*
X145151238Y-86906111D01*
X145057744Y-86901211D01*
X144958089Y-86895988D01*
X144958085Y-86895988D01*
X144951708Y-86895654D01*
X144754152Y-86925532D01*
X144748165Y-86927735D01*
X144748164Y-86927735D01*
X144678838Y-86953242D01*
X144566639Y-86994523D01*
X144485730Y-87044689D01*
X144431638Y-87078228D01*
X144396828Y-87099811D01*
X144251656Y-87237093D01*
X144137054Y-87400762D01*
X144057702Y-87584132D01*
X144016844Y-87779712D01*
X144016500Y-87786275D01*
X144016500Y-88982980D01*
X137687914Y-88982980D01*
X137689784Y-88956504D01*
X137718705Y-88911416D01*
X137719022Y-88911099D01*
X137826929Y-88803003D01*
X137892700Y-88696303D01*
X137914369Y-88661150D01*
X137914370Y-88661148D01*
X137918209Y-88654920D01*
X137972974Y-88489809D01*
X137983500Y-88387072D01*
X137983500Y-87487928D01*
X137982882Y-87481970D01*
X137976215Y-87417715D01*
X138992001Y-87417715D01*
X138992371Y-87424536D01*
X138997895Y-87475398D01*
X139001521Y-87490650D01*
X139046676Y-87611100D01*
X139055214Y-87626695D01*
X139131715Y-87728770D01*
X139144276Y-87741331D01*
X139246351Y-87817832D01*
X139261946Y-87826370D01*
X139382394Y-87871524D01*
X139397649Y-87875151D01*
X139448514Y-87880677D01*
X139455328Y-87881046D01*
X139877885Y-87881046D01*
X139893124Y-87876571D01*
X139894329Y-87875181D01*
X139896000Y-87867498D01*
X139896000Y-87862930D01*
X140404000Y-87862930D01*
X140408475Y-87878169D01*
X140409865Y-87879374D01*
X140417548Y-87881045D01*
X140844669Y-87881045D01*
X140851490Y-87880675D01*
X140902352Y-87875151D01*
X140917604Y-87871525D01*
X141016824Y-87834329D01*
X141087632Y-87829146D01*
X141111095Y-87836674D01*
X141170378Y-87862328D01*
X141182490Y-87866170D01*
X141366971Y-87904710D01*
X141376563Y-87905956D01*
X141376613Y-87905958D01*
X141379949Y-87906046D01*
X141727885Y-87906046D01*
X141743124Y-87901571D01*
X141744329Y-87900181D01*
X141746000Y-87892498D01*
X141746000Y-87887931D01*
X142254000Y-87887931D01*
X142258475Y-87903170D01*
X142259865Y-87904375D01*
X142267548Y-87906046D01*
X142571708Y-87906046D01*
X142578083Y-87905723D01*
X142717330Y-87891579D01*
X142729770Y-87889025D01*
X142908143Y-87833126D01*
X142919831Y-87828117D01*
X143083320Y-87737493D01*
X143093753Y-87730242D01*
X143235688Y-87608590D01*
X143244441Y-87599399D01*
X143359021Y-87451682D01*
X143365745Y-87440922D01*
X143448281Y-87273186D01*
X143452709Y-87261279D01*
X143470083Y-87194577D01*
X143469649Y-87180482D01*
X143461468Y-87177046D01*
X142272115Y-87177046D01*
X142256876Y-87181521D01*
X142255671Y-87182911D01*
X142254000Y-87190594D01*
X142254000Y-87887931D01*
X141746000Y-87887931D01*
X141746000Y-87195161D01*
X141741525Y-87179922D01*
X141740135Y-87178717D01*
X141732452Y-87177046D01*
X140422115Y-87177046D01*
X140406876Y-87181521D01*
X140405671Y-87182911D01*
X140404000Y-87190594D01*
X140404000Y-87862930D01*
X139896000Y-87862930D01*
X139896000Y-87195161D01*
X139891525Y-87179922D01*
X139890135Y-87178717D01*
X139882452Y-87177046D01*
X139010116Y-87177046D01*
X138994877Y-87181521D01*
X138993672Y-87182911D01*
X138992001Y-87190594D01*
X138992001Y-87417715D01*
X137976215Y-87417715D01*
X137973419Y-87390765D01*
X137973418Y-87390761D01*
X137972707Y-87383907D01*
X137917654Y-87218893D01*
X137826116Y-87070969D01*
X137796965Y-87041869D01*
X137708184Y-86953242D01*
X137708179Y-86953238D01*
X137703003Y-86948071D01*
X137693672Y-86942319D01*
X137693386Y-86942143D01*
X137691559Y-86940114D01*
X137691027Y-86939693D01*
X137691099Y-86939602D01*
X137645892Y-86889372D01*
X137633500Y-86834882D01*
X137633500Y-78842903D01*
X137653502Y-78774782D01*
X137670405Y-78753808D01*
X138830762Y-77593451D01*
X138893074Y-77559425D01*
X138919857Y-77556546D01*
X138941567Y-77556546D01*
X139009688Y-77576548D01*
X139049000Y-77618724D01*
X139049385Y-77619751D01*
X139136739Y-77736307D01*
X139143919Y-77741688D01*
X139143920Y-77741689D01*
X139251372Y-77822220D01*
X139293887Y-77879079D01*
X139298913Y-77949898D01*
X139264853Y-78012191D01*
X139251372Y-78023872D01*
X139143920Y-78104403D01*
X139136739Y-78109785D01*
X139049385Y-78226341D01*
X138998255Y-78362730D01*
X138991500Y-78424912D01*
X138991500Y-79421180D01*
X138998255Y-79483362D01*
X139049385Y-79619751D01*
X139136739Y-79736307D01*
X139143919Y-79741688D01*
X139143920Y-79741689D01*
X139251372Y-79822220D01*
X139293887Y-79879079D01*
X139298913Y-79949898D01*
X139264853Y-80012191D01*
X139251372Y-80023872D01*
X139206416Y-80057565D01*
X139136739Y-80109785D01*
X139049385Y-80226341D01*
X138998255Y-80362730D01*
X138991500Y-80424912D01*
X138991500Y-81421180D01*
X138998255Y-81483362D01*
X139049385Y-81619751D01*
X139136739Y-81736307D01*
X139143919Y-81741688D01*
X139143920Y-81741689D01*
X139251372Y-81822220D01*
X139293887Y-81879079D01*
X139298913Y-81949898D01*
X139264853Y-82012191D01*
X139251372Y-82023872D01*
X139206416Y-82057565D01*
X139136739Y-82109785D01*
X139049385Y-82226341D01*
X138998255Y-82362730D01*
X138991500Y-82424912D01*
X138991500Y-83421180D01*
X138998255Y-83483362D01*
X139049385Y-83619751D01*
X139136739Y-83736307D01*
X139143919Y-83741688D01*
X139143920Y-83741689D01*
X139251372Y-83822220D01*
X139293887Y-83879079D01*
X139298913Y-83949898D01*
X139264853Y-84012191D01*
X139251372Y-84023872D01*
X139220897Y-84046712D01*
X139136739Y-84109785D01*
X139049385Y-84226341D01*
X138998255Y-84362730D01*
X138991500Y-84424912D01*
X138991500Y-85421180D01*
X138998255Y-85483362D01*
X139049385Y-85619751D01*
X139136739Y-85736307D01*
X139206416Y-85788527D01*
X139251790Y-85822533D01*
X139294304Y-85879393D01*
X139299329Y-85950211D01*
X139265270Y-86012504D01*
X139251789Y-86024185D01*
X139144276Y-86104761D01*
X139131715Y-86117322D01*
X139055214Y-86219397D01*
X139046676Y-86234992D01*
X139001522Y-86355440D01*
X138997895Y-86370695D01*
X138992369Y-86421560D01*
X138992000Y-86428374D01*
X138992000Y-86650931D01*
X138996475Y-86666170D01*
X138997865Y-86667375D01*
X139005548Y-86669046D01*
X143460867Y-86669046D01*
X143474398Y-86665073D01*
X143475275Y-86658971D01*
X143415277Y-86495901D01*
X143409703Y-86484473D01*
X143311201Y-86325606D01*
X143303451Y-86315542D01*
X143175014Y-86179724D01*
X143165394Y-86171421D01*
X143012269Y-86064201D01*
X143001177Y-86058002D01*
X142958178Y-86039395D01*
X142903604Y-85993985D01*
X142882243Y-85926278D01*
X142900879Y-85857771D01*
X142947132Y-85813556D01*
X143034356Y-85765207D01*
X143089191Y-85734811D01*
X143215051Y-85626937D01*
X143236052Y-85608937D01*
X143236053Y-85608936D01*
X143240896Y-85604785D01*
X143278314Y-85556546D01*
X143359445Y-85451953D01*
X143359447Y-85451950D01*
X143363357Y-85446909D01*
X143376018Y-85421180D01*
X143448752Y-85273364D01*
X143451571Y-85267635D01*
X143501935Y-85074284D01*
X143512392Y-84874754D01*
X143482514Y-84677198D01*
X143421739Y-84512014D01*
X143415727Y-84495675D01*
X143415727Y-84495674D01*
X143413523Y-84489685D01*
X143308235Y-84319874D01*
X143297596Y-84308623D01*
X143219785Y-84226341D01*
X143170953Y-84174702D01*
X143007284Y-84060100D01*
X142958729Y-84039088D01*
X142904155Y-83993676D01*
X142882795Y-83925969D01*
X142901432Y-83857462D01*
X142947683Y-83813250D01*
X143089191Y-83734811D01*
X143240896Y-83604785D01*
X143244805Y-83599746D01*
X143359445Y-83451953D01*
X143359447Y-83451950D01*
X143363357Y-83446909D01*
X143376018Y-83421180D01*
X143448752Y-83273364D01*
X143451571Y-83267635D01*
X143501935Y-83074284D01*
X143512392Y-82874754D01*
X143482514Y-82677198D01*
X143413523Y-82489685D01*
X143308235Y-82319874D01*
X143170953Y-82174702D01*
X143007284Y-82060100D01*
X142958729Y-82039088D01*
X142904155Y-81993676D01*
X142882795Y-81925969D01*
X142901432Y-81857462D01*
X142947683Y-81813250D01*
X143089191Y-81734811D01*
X143215051Y-81626937D01*
X143236052Y-81608937D01*
X143236053Y-81608936D01*
X143240896Y-81604785D01*
X143278314Y-81556546D01*
X143359445Y-81451953D01*
X143359447Y-81451950D01*
X143363357Y-81446909D01*
X143376018Y-81421180D01*
X143448752Y-81273364D01*
X143451571Y-81267635D01*
X143501935Y-81074284D01*
X143512392Y-80874754D01*
X143482514Y-80677198D01*
X143413523Y-80489685D01*
X143308235Y-80319874D01*
X143297596Y-80308623D01*
X143219785Y-80226341D01*
X143170953Y-80174702D01*
X143007284Y-80060100D01*
X142958729Y-80039088D01*
X142904155Y-79993676D01*
X142882795Y-79925969D01*
X142901432Y-79857462D01*
X142947683Y-79813250D01*
X143089191Y-79734811D01*
X143240896Y-79604785D01*
X143244805Y-79599746D01*
X143359445Y-79451953D01*
X143359447Y-79451950D01*
X143363357Y-79446909D01*
X143376018Y-79421180D01*
X143448752Y-79273364D01*
X143451571Y-79267635D01*
X143501935Y-79074284D01*
X143512392Y-78874754D01*
X143482514Y-78677198D01*
X143413523Y-78489685D01*
X143308235Y-78319874D01*
X143170953Y-78174702D01*
X143007284Y-78060100D01*
X142971437Y-78044588D01*
X142958729Y-78039088D01*
X142904155Y-77993676D01*
X142882795Y-77925969D01*
X142901432Y-77857462D01*
X142947683Y-77813250D01*
X143089191Y-77734811D01*
X143215051Y-77626937D01*
X143236052Y-77608937D01*
X143236053Y-77608936D01*
X143240896Y-77604785D01*
X143278314Y-77556546D01*
X143359445Y-77451953D01*
X143359447Y-77451950D01*
X143363357Y-77446909D01*
X143376018Y-77421180D01*
X143448752Y-77273364D01*
X143451571Y-77267635D01*
X143501935Y-77074284D01*
X143512392Y-76874754D01*
X143482514Y-76677198D01*
X143413523Y-76489685D01*
X143318871Y-76337028D01*
X143311597Y-76325296D01*
X143311596Y-76325295D01*
X143308235Y-76319874D01*
X143284321Y-76294585D01*
X143219785Y-76226341D01*
X143170953Y-76174702D01*
X143007284Y-76060100D01*
X142958729Y-76039088D01*
X142904155Y-75993676D01*
X142882795Y-75925969D01*
X142901432Y-75857462D01*
X142947683Y-75813250D01*
X143089191Y-75734811D01*
X143240896Y-75604785D01*
X143244805Y-75599746D01*
X143359445Y-75451953D01*
X143359447Y-75451950D01*
X143363357Y-75446909D01*
X143376018Y-75421180D01*
X143448752Y-75273364D01*
X143451571Y-75267635D01*
X143501935Y-75074284D01*
X143512392Y-74874754D01*
X143482514Y-74677198D01*
X143413523Y-74489685D01*
X143308235Y-74319874D01*
X143170953Y-74174702D01*
X143007284Y-74060100D01*
X142958729Y-74039088D01*
X142904155Y-73993676D01*
X142882795Y-73925969D01*
X142901432Y-73857462D01*
X142947683Y-73813250D01*
X143089191Y-73734811D01*
X143240896Y-73604785D01*
X143244805Y-73599746D01*
X143359445Y-73451953D01*
X143359447Y-73451950D01*
X143363357Y-73446909D01*
X143376018Y-73421180D01*
X143448752Y-73273364D01*
X143451571Y-73267635D01*
X143501935Y-73074284D01*
X143512392Y-72874754D01*
X143482514Y-72677198D01*
X143413523Y-72489685D01*
X143308235Y-72319874D01*
X143170953Y-72174702D01*
X143007284Y-72060100D01*
X142823914Y-71980748D01*
X142628334Y-71939890D01*
X142623478Y-71939635D01*
X142623439Y-71939633D01*
X142623423Y-71939633D01*
X142621771Y-71939546D01*
X141425066Y-71939546D01*
X141411933Y-71940880D01*
X141282566Y-71954020D01*
X141282562Y-71954021D01*
X141276220Y-71954665D01*
X141270135Y-71956572D01*
X141270130Y-71956573D01*
X141094091Y-72011741D01*
X141023106Y-72013025D01*
X141012182Y-72009489D01*
X141010555Y-72008879D01*
X140910316Y-71971301D01*
X140848134Y-71964546D01*
X139451866Y-71964546D01*
X139389684Y-71971301D01*
X139253295Y-72022431D01*
X139136739Y-72109785D01*
X139049385Y-72226341D01*
X138998255Y-72362730D01*
X138991500Y-72424912D01*
X138991500Y-73421180D01*
X138998255Y-73483362D01*
X139049385Y-73619751D01*
X139136739Y-73736307D01*
X139143919Y-73741688D01*
X139143920Y-73741689D01*
X139251372Y-73822220D01*
X139293887Y-73879079D01*
X139298913Y-73949898D01*
X139264853Y-74012191D01*
X139251372Y-74023872D01*
X139206416Y-74057565D01*
X139136739Y-74109785D01*
X139049385Y-74226341D01*
X138998255Y-74362730D01*
X138991500Y-74424912D01*
X138991500Y-75421180D01*
X138998255Y-75483362D01*
X139049385Y-75619751D01*
X139136739Y-75736307D01*
X139143919Y-75741688D01*
X139143920Y-75741689D01*
X139251372Y-75822220D01*
X139293887Y-75879079D01*
X139298913Y-75949898D01*
X139264853Y-76012191D01*
X139251372Y-76023872D01*
X139206416Y-76057565D01*
X139136739Y-76109785D01*
X139049385Y-76226341D01*
X139049139Y-76226997D01*
X139001825Y-76274203D01*
X138941567Y-76289546D01*
X138684031Y-76289546D01*
X138672848Y-76289019D01*
X138665355Y-76287344D01*
X138657429Y-76287593D01*
X138657428Y-76287593D01*
X138597265Y-76289484D01*
X138593307Y-76289546D01*
X138565407Y-76289546D01*
X138561417Y-76290050D01*
X138549583Y-76290982D01*
X138505374Y-76292372D01*
X138497760Y-76294584D01*
X138497755Y-76294585D01*
X138485922Y-76298023D01*
X138466559Y-76302034D01*
X138446466Y-76304572D01*
X138439099Y-76307489D01*
X138439094Y-76307490D01*
X138405355Y-76320848D01*
X138394128Y-76324692D01*
X138386824Y-76326814D01*
X138351670Y-76337028D01*
X138344844Y-76341065D01*
X138334235Y-76347339D01*
X138316487Y-76356034D01*
X138297646Y-76363494D01*
X138291230Y-76368156D01*
X138291229Y-76368156D01*
X138261876Y-76389482D01*
X138251956Y-76395998D01*
X138220728Y-76414466D01*
X138220725Y-76414468D01*
X138213901Y-76418504D01*
X138199580Y-76432825D01*
X138184547Y-76445665D01*
X138168156Y-76457574D01*
X138163105Y-76463680D01*
X138139965Y-76491651D01*
X138131975Y-76500430D01*
X136607747Y-78024657D01*
X136599461Y-78032197D01*
X136592982Y-78036309D01*
X136587557Y-78042086D01*
X136546357Y-78085960D01*
X136543602Y-78088802D01*
X136523865Y-78108539D01*
X136521385Y-78111736D01*
X136513682Y-78120756D01*
X136483414Y-78152988D01*
X136479595Y-78159934D01*
X136479593Y-78159937D01*
X136473652Y-78170743D01*
X136462801Y-78187262D01*
X136450386Y-78203268D01*
X136447241Y-78210537D01*
X136447238Y-78210541D01*
X136432826Y-78243846D01*
X136427609Y-78254496D01*
X136406305Y-78293249D01*
X136404334Y-78300924D01*
X136404334Y-78300925D01*
X136401267Y-78312871D01*
X136394863Y-78331575D01*
X136386819Y-78350164D01*
X136385580Y-78357987D01*
X136385577Y-78357997D01*
X136379901Y-78393833D01*
X136377495Y-78405453D01*
X136372499Y-78424912D01*
X136366500Y-78448279D01*
X136366500Y-78468533D01*
X136364949Y-78488243D01*
X136361780Y-78508252D01*
X136362526Y-78516144D01*
X136365941Y-78552270D01*
X136366500Y-78564128D01*
X136366500Y-86835036D01*
X136346498Y-86903157D01*
X136306804Y-86942179D01*
X136295969Y-86948884D01*
X136290796Y-86954066D01*
X136178242Y-87066816D01*
X136178238Y-87066821D01*
X136173071Y-87071997D01*
X136169231Y-87078227D01*
X136169230Y-87078228D01*
X136086364Y-87212662D01*
X136081791Y-87220080D01*
X136027026Y-87385191D01*
X136026326Y-87392027D01*
X136026325Y-87392030D01*
X136024830Y-87406621D01*
X136016500Y-87487928D01*
X136016500Y-88387072D01*
X132955500Y-88387072D01*
X132955500Y-71151383D01*
X132975502Y-71083262D01*
X133029158Y-71036769D01*
X133081500Y-71025383D01*
X166918500Y-71025383D01*
X166986621Y-71045385D01*
G37*
%TD.AperFunction*%
%TD*%
%TA.AperFunction,Conductor*%
%TO.N,GND*%
G36*
X157185437Y-106526994D02*
G01*
X157191485Y-108534534D01*
X157191854Y-108657247D01*
X157191855Y-108657250D01*
X157196341Y-110146332D01*
X157189543Y-110169485D01*
X157135887Y-110215978D01*
X157083545Y-110227364D01*
X155465660Y-110227364D01*
X155458930Y-110229340D01*
X155387934Y-110229340D01*
X155328208Y-110190956D01*
X155309331Y-110161893D01*
X155300862Y-110143814D01*
X155217092Y-110008441D01*
X155208058Y-109997043D01*
X155095389Y-109884570D01*
X155083978Y-109875558D01*
X154948455Y-109792021D01*
X154935277Y-109785877D01*
X154783752Y-109735618D01*
X154770386Y-109732752D01*
X154677748Y-109723261D01*
X154671333Y-109722933D01*
X154659633Y-109722933D01*
X154644394Y-109727408D01*
X154643189Y-109728798D01*
X154641518Y-109736481D01*
X154641518Y-110996433D01*
X154621516Y-111064554D01*
X154567860Y-111111047D01*
X154515518Y-111122433D01*
X153422635Y-111122433D01*
X153416804Y-111124145D01*
X153381830Y-111129247D01*
X152058374Y-111134744D01*
X151990171Y-111115025D01*
X151943456Y-111061563D01*
X151931851Y-111008671D01*
X151932086Y-110608568D01*
X151932093Y-110596318D01*
X153404518Y-110596318D01*
X153408993Y-110611557D01*
X153410383Y-110612762D01*
X153418066Y-110614433D01*
X154115403Y-110614433D01*
X154130642Y-110609958D01*
X154131847Y-110608568D01*
X154133518Y-110600885D01*
X154133518Y-109741048D01*
X154129043Y-109725809D01*
X154127653Y-109724604D01*
X154119970Y-109722933D01*
X154103752Y-109722933D01*
X154097236Y-109723270D01*
X154003386Y-109733008D01*
X153989990Y-109735901D01*
X153838565Y-109786421D01*
X153825403Y-109792586D01*
X153690026Y-109876359D01*
X153678628Y-109885393D01*
X153566155Y-109998062D01*
X153557143Y-110009473D01*
X153473606Y-110144996D01*
X153467462Y-110158174D01*
X153417203Y-110309699D01*
X153414337Y-110323065D01*
X153404846Y-110415703D01*
X153404518Y-110422118D01*
X153404518Y-110596318D01*
X151932093Y-110596318D01*
X151932383Y-110101364D01*
X151932617Y-109701249D01*
X155447545Y-109701249D01*
X155452020Y-109716488D01*
X155453410Y-109717693D01*
X155461093Y-109719364D01*
X156683430Y-109719364D01*
X156698669Y-109714889D01*
X156699874Y-109713499D01*
X156701545Y-109705816D01*
X156701545Y-108733479D01*
X156697070Y-108718240D01*
X156695680Y-108717035D01*
X156687997Y-108715364D01*
X155910876Y-108715365D01*
X155904055Y-108715735D01*
X155853193Y-108721259D01*
X155837941Y-108724885D01*
X155717491Y-108770040D01*
X155701896Y-108778578D01*
X155599821Y-108855079D01*
X155587260Y-108867640D01*
X155510759Y-108969715D01*
X155502221Y-108985310D01*
X155457067Y-109105758D01*
X155453440Y-109121013D01*
X155447914Y-109171878D01*
X155447545Y-109178692D01*
X155447545Y-109701249D01*
X151932617Y-109701249D01*
X151932686Y-109583690D01*
X151952728Y-109515581D01*
X152006411Y-109469120D01*
X152076691Y-109459057D01*
X152093840Y-109462767D01*
X152178605Y-109487394D01*
X152192706Y-109487354D01*
X152196000Y-109480085D01*
X152196000Y-109474333D01*
X152704000Y-109474333D01*
X152707973Y-109487864D01*
X152715871Y-109488999D01*
X152855790Y-109448348D01*
X152870221Y-109442103D01*
X152999678Y-109365544D01*
X153012104Y-109355904D01*
X153118449Y-109249559D01*
X153128089Y-109237133D01*
X153204648Y-109107676D01*
X153210893Y-109093245D01*
X153253269Y-108947390D01*
X153255570Y-108934788D01*
X153257807Y-108906371D01*
X153258000Y-108901441D01*
X153258000Y-108284570D01*
X153253525Y-108269331D01*
X153252135Y-108268126D01*
X153244452Y-108266455D01*
X152722115Y-108266455D01*
X152706876Y-108270930D01*
X152705671Y-108272320D01*
X152704000Y-108280003D01*
X152704000Y-109474333D01*
X152196000Y-109474333D01*
X152196000Y-107884455D01*
X152216002Y-107816334D01*
X152269658Y-107769841D01*
X152322000Y-107758455D01*
X153239884Y-107758455D01*
X153255123Y-107753980D01*
X153256328Y-107752590D01*
X153257999Y-107744907D01*
X153257999Y-107123472D01*
X153257805Y-107118535D01*
X153255570Y-107090119D01*
X153253270Y-107077524D01*
X153227716Y-106989567D01*
X155322545Y-106989567D01*
X155322546Y-107694114D01*
X155322883Y-107700633D01*
X155332802Y-107796225D01*
X155335694Y-107809619D01*
X155387133Y-107963803D01*
X155393306Y-107976981D01*
X155478608Y-108114826D01*
X155487644Y-108126227D01*
X155602374Y-108240758D01*
X155613785Y-108249770D01*
X155751788Y-108334835D01*
X155764969Y-108340982D01*
X155919255Y-108392157D01*
X155932631Y-108395024D01*
X156026983Y-108404691D01*
X156033399Y-108405019D01*
X156683430Y-108405018D01*
X156698669Y-108400543D01*
X156699874Y-108399153D01*
X156701545Y-108391470D01*
X156701545Y-106994134D01*
X156697070Y-106978895D01*
X156695680Y-106977690D01*
X156687997Y-106976019D01*
X155340660Y-106976019D01*
X155325421Y-106980494D01*
X155324216Y-106981884D01*
X155322545Y-106989567D01*
X153227716Y-106989567D01*
X153210893Y-106931665D01*
X153204648Y-106917234D01*
X153128089Y-106787777D01*
X153118449Y-106775351D01*
X153057920Y-106714822D01*
X153023894Y-106652510D01*
X153028959Y-106581695D01*
X153071506Y-106524859D01*
X153138026Y-106500048D01*
X153146970Y-106499727D01*
X155264429Y-106498967D01*
X155264430Y-106498967D01*
X157160561Y-106498286D01*
X157185437Y-106526994D01*
G37*
%TD.AperFunction*%
%TD*%
M02*
