%TF.GenerationSoftware,KiCad,Pcbnew,6.0.11+dfsg-1~bpo11+1*%
%TF.CreationDate,2023-06-28T15:38:28-04:00*%
%TF.ProjectId,ESP12,45535031-322e-46b6-9963-61645f706362,rev?*%
%TF.SameCoordinates,Original*%
%TF.FileFunction,Soldermask,Top*%
%TF.FilePolarity,Negative*%
%FSLAX46Y46*%
G04 Gerber Fmt 4.6, Leading zero omitted, Abs format (unit mm)*
G04 Created by KiCad (PCBNEW 6.0.11+dfsg-1~bpo11+1) date 2023-06-28 15:38:28*
%MOMM*%
%LPD*%
G01*
G04 APERTURE LIST*
G04 Aperture macros list*
%AMRoundRect*
0 Rectangle with rounded corners*
0 $1 Rounding radius*
0 $2 $3 $4 $5 $6 $7 $8 $9 X,Y pos of 4 corners*
0 Add a 4 corners polygon primitive as box body*
4,1,4,$2,$3,$4,$5,$6,$7,$8,$9,$2,$3,0*
0 Add four circle primitives for the rounded corners*
1,1,$1+$1,$2,$3*
1,1,$1+$1,$4,$5*
1,1,$1+$1,$6,$7*
1,1,$1+$1,$8,$9*
0 Add four rect primitives between the rounded corners*
20,1,$1+$1,$2,$3,$4,$5,0*
20,1,$1+$1,$4,$5,$6,$7,0*
20,1,$1+$1,$6,$7,$8,$9,0*
20,1,$1+$1,$8,$9,$2,$3,0*%
G04 Aperture macros list end*
%ADD10R,1.300000X0.900000*%
%ADD11O,2.000000X0.950000*%
%ADD12O,0.950000X2.000000*%
%ADD13R,0.900000X1.300000*%
%ADD14C,3.200000*%
%ADD15RoundRect,0.237500X-0.237500X0.400000X-0.237500X-0.400000X0.237500X-0.400000X0.237500X0.400000X0*%
%ADD16RoundRect,0.250000X0.875000X0.925000X-0.875000X0.925000X-0.875000X-0.925000X0.875000X-0.925000X0*%
%ADD17C,0.650000*%
%ADD18R,0.600000X1.450000*%
%ADD19R,0.300000X1.450000*%
%ADD20O,1.000000X2.100000*%
%ADD21RoundRect,0.525000X-0.725000X-0.525000X0.725000X-0.525000X0.725000X0.525000X-0.725000X0.525000X0*%
%ADD22RoundRect,0.400000X-1.600000X-0.400000X1.600000X-0.400000X1.600000X0.400000X-1.600000X0.400000X0*%
%ADD23O,1.000000X1.600000*%
%ADD24RoundRect,1.000000X2.000000X1.000000X-2.000000X1.000000X-2.000000X-1.000000X2.000000X-1.000000X0*%
%ADD25RoundRect,0.237500X-0.400000X-0.237500X0.400000X-0.237500X0.400000X0.237500X-0.400000X0.237500X0*%
%ADD26R,2.400000X3.000000*%
%ADD27R,1.900000X0.800000*%
%ADD28RoundRect,0.237500X0.237500X-0.400000X0.237500X0.400000X-0.237500X0.400000X-0.237500X-0.400000X0*%
%ADD29R,1.600000X1.600000*%
%ADD30O,1.600000X1.600000*%
%ADD31RoundRect,0.150000X-0.150000X0.825000X-0.150000X-0.825000X0.150000X-0.825000X0.150000X0.825000X0*%
%ADD32R,0.600000X1.600000*%
%ADD33RoundRect,0.237500X0.400000X0.237500X-0.400000X0.237500X-0.400000X-0.237500X0.400000X-0.237500X0*%
%ADD34RoundRect,0.250000X0.450000X-0.325000X0.450000X0.325000X-0.450000X0.325000X-0.450000X-0.325000X0*%
%ADD35R,2.000000X1.500000*%
%ADD36R,2.000000X3.800000*%
G04 APERTURE END LIST*
D10*
%TO.C,Um1*%
X140150000Y-72923046D03*
D11*
X142000000Y-72923046D03*
X142000000Y-74923046D03*
D10*
X140150000Y-74923046D03*
D11*
X142000000Y-76923046D03*
D10*
X140150000Y-76923046D03*
X140150000Y-78923046D03*
D11*
X142000000Y-78923046D03*
D10*
X140150000Y-80923046D03*
D11*
X142000000Y-80923046D03*
X142000000Y-82923046D03*
D10*
X140150000Y-82923046D03*
X140150000Y-84923046D03*
D11*
X142000000Y-84923046D03*
D10*
X140150000Y-86923046D03*
D11*
X142000000Y-86923046D03*
X158000000Y-86923046D03*
D10*
X159850000Y-86923046D03*
D11*
X158000000Y-84923046D03*
D10*
X159850000Y-84923046D03*
D11*
X158000000Y-82923046D03*
D10*
X159850000Y-82923046D03*
X159850000Y-80923046D03*
D11*
X158000000Y-80923046D03*
D10*
X159850000Y-78923046D03*
D11*
X158000000Y-78923046D03*
X158000000Y-76923046D03*
D10*
X159850000Y-76923046D03*
X159850000Y-74923046D03*
D11*
X158000000Y-74923046D03*
X158000000Y-72923046D03*
D10*
X159850000Y-72923046D03*
D12*
X145000000Y-88408046D03*
D13*
X145000000Y-90258046D03*
X147000000Y-90258046D03*
D12*
X147000000Y-88408046D03*
D13*
X149000000Y-90258046D03*
D12*
X149000000Y-88358046D03*
D13*
X151000000Y-90258046D03*
D12*
X151000000Y-88408046D03*
X153000000Y-88408046D03*
D13*
X153000000Y-90258046D03*
X155000000Y-90258046D03*
D12*
X155000000Y-88408046D03*
%TD*%
D14*
%TO.C,REF\u002A\u002A*%
X163108000Y-67919546D03*
%TD*%
D15*
%TO.C,C2*%
X137510000Y-108154955D03*
X137510000Y-110279955D03*
%TD*%
D16*
%TO.C,C5*%
X162055545Y-106722019D03*
X156955545Y-106722019D03*
%TD*%
D14*
%TO.C,REF\u002A\u002A*%
X136892000Y-120139455D03*
%TD*%
D17*
%TO.C,J1*%
X147110000Y-117947455D03*
X152890000Y-117947455D03*
D18*
X146750000Y-116502455D03*
X147550000Y-116502455D03*
D19*
X148750000Y-116502455D03*
X149750000Y-116502455D03*
X150250000Y-116502455D03*
X151250000Y-116502455D03*
D18*
X152450000Y-116502455D03*
X153250000Y-116502455D03*
X153250000Y-116502455D03*
X152450000Y-116502455D03*
D19*
X151750000Y-116502455D03*
X150750000Y-116502455D03*
X149250000Y-116502455D03*
X148250000Y-116502455D03*
D18*
X147550000Y-116502455D03*
X146750000Y-116502455D03*
D20*
X154320000Y-117417455D03*
D21*
X155096965Y-117429250D03*
D22*
X144153035Y-121597455D03*
D23*
X154320000Y-121597455D03*
X145680000Y-121597455D03*
D20*
X145680000Y-117417455D03*
D22*
X155846965Y-121597455D03*
D24*
X150000000Y-121817455D03*
D21*
X144903035Y-117429250D03*
%TD*%
D14*
%TO.C,REF\u002A\u002A*%
X199288000Y-94029455D03*
%TD*%
D25*
%TO.C,R2*%
X147091741Y-97233483D03*
X149216741Y-97233483D03*
%TD*%
D14*
%TO.C,REF\u002A\u002A*%
X163108000Y-120139455D03*
%TD*%
D26*
%TO.C,Y1*%
X140706663Y-113317455D03*
X140706663Y-108617455D03*
%TD*%
D14*
%TO.C,REF\u002A\u002A*%
X173072000Y-120139455D03*
%TD*%
D27*
%TO.C,Q1*%
X150721453Y-102940491D03*
X150721453Y-101040491D03*
X147721453Y-101990491D03*
%TD*%
D28*
%TO.C,R3*%
X142680000Y-119569955D03*
X142680000Y-117444955D03*
%TD*%
%TO.C,R4*%
X157320000Y-119569955D03*
X157320000Y-117444955D03*
%TD*%
D14*
%TO.C,REF\u002A\u002A*%
X136892000Y-94029455D03*
%TD*%
D29*
%TO.C,SW2*%
X143433000Y-97780491D03*
D30*
X143433000Y-105400491D03*
%TD*%
D28*
%TO.C,C4*%
X154387518Y-112993433D03*
X154387518Y-110868433D03*
%TD*%
D31*
%TO.C,U1*%
X152450000Y-108012455D03*
X151180000Y-108012455D03*
X149910000Y-108012455D03*
X148640000Y-108012455D03*
X147370000Y-108012455D03*
X146100000Y-108012455D03*
X144830000Y-108012455D03*
X143560000Y-108012455D03*
X143560000Y-112962455D03*
X144830000Y-112962455D03*
X146100000Y-112962455D03*
X147370000Y-112962455D03*
X148640000Y-112962455D03*
X149910000Y-112962455D03*
X151180000Y-112962455D03*
X152450000Y-112962455D03*
%TD*%
D25*
%TO.C,R5*%
X159537500Y-97862287D03*
X161662500Y-97862287D03*
%TD*%
D14*
%TO.C,REF\u002A\u002A*%
X173072000Y-67919546D03*
%TD*%
%TO.C,REF\u002A\u002A*%
X173072000Y-94029455D03*
%TD*%
D32*
%TO.C,SW1*%
X138150000Y-99740491D03*
X138150000Y-103440491D03*
X136450000Y-99740491D03*
X136450000Y-103440491D03*
%TD*%
D14*
%TO.C,REF\u002A\u002A*%
X136892000Y-67919546D03*
%TD*%
D27*
%TO.C,Q2*%
X153580000Y-101044172D03*
X153580000Y-102944172D03*
X156580000Y-101994172D03*
%TD*%
D33*
%TO.C,R6*%
X140462500Y-97862287D03*
X138337500Y-97862287D03*
%TD*%
D14*
%TO.C,REF\u002A\u002A*%
X199288000Y-67919546D03*
%TD*%
D34*
%TO.C,D1*%
X159000000Y-96050000D03*
X159000000Y-94000000D03*
%TD*%
D28*
%TO.C,C1*%
X137510000Y-113779955D03*
X137510000Y-111654955D03*
%TD*%
D34*
%TO.C,D2*%
X141000000Y-96050000D03*
X141000000Y-94000000D03*
%TD*%
D14*
%TO.C,REF\u002A\u002A*%
X199288000Y-120139455D03*
%TD*%
D35*
%TO.C,U2*%
X156955545Y-109973364D03*
X156955545Y-112273364D03*
D36*
X163255545Y-112273364D03*
D35*
X156955545Y-114573364D03*
%TD*%
D33*
%TO.C,C3*%
X148636090Y-105773720D03*
X146511090Y-105773720D03*
%TD*%
D25*
%TO.C,R1*%
X147091741Y-99262498D03*
X149216741Y-99262498D03*
%TD*%
D14*
%TO.C,REF\u002A\u002A*%
X163108000Y-94029455D03*
%TD*%
M02*
