%TF.GenerationSoftware,KiCad,Pcbnew,6.0.11+dfsg-1~bpo11+1*%
%TF.CreationDate,2023-06-28T15:38:28-04:00*%
%TF.ProjectId,ESP12,45535031-322e-46b6-9963-61645f706362,rev?*%
%TF.SameCoordinates,Original*%
%TF.FileFunction,Soldermask,Bot*%
%TF.FilePolarity,Negative*%
%FSLAX46Y46*%
G04 Gerber Fmt 4.6, Leading zero omitted, Abs format (unit mm)*
G04 Created by KiCad (PCBNEW 6.0.11+dfsg-1~bpo11+1) date 2023-06-28 15:38:28*
%MOMM*%
%LPD*%
G01*
G04 APERTURE LIST*
G04 Aperture macros list*
%AMRoundRect*
0 Rectangle with rounded corners*
0 $1 Rounding radius*
0 $2 $3 $4 $5 $6 $7 $8 $9 X,Y pos of 4 corners*
0 Add a 4 corners polygon primitive as box body*
4,1,4,$2,$3,$4,$5,$6,$7,$8,$9,$2,$3,0*
0 Add four circle primitives for the rounded corners*
1,1,$1+$1,$2,$3*
1,1,$1+$1,$4,$5*
1,1,$1+$1,$6,$7*
1,1,$1+$1,$8,$9*
0 Add four rect primitives between the rounded corners*
20,1,$1+$1,$2,$3,$4,$5,0*
20,1,$1+$1,$4,$5,$6,$7,0*
20,1,$1+$1,$6,$7,$8,$9,0*
20,1,$1+$1,$8,$9,$2,$3,0*%
G04 Aperture macros list end*
%ADD10R,1.300000X0.900000*%
%ADD11O,2.000000X0.950000*%
%ADD12O,0.950000X2.000000*%
%ADD13R,0.900000X1.300000*%
%ADD14C,3.200000*%
%ADD15C,0.650000*%
%ADD16RoundRect,0.525000X-1.475000X-0.525000X1.475000X-0.525000X1.475000X0.525000X-1.475000X0.525000X0*%
%ADD17O,1.000000X2.100000*%
%ADD18RoundRect,0.400000X-1.600000X-0.400000X1.600000X-0.400000X1.600000X0.400000X-1.600000X0.400000X0*%
%ADD19O,1.000000X1.600000*%
%ADD20RoundRect,1.000000X2.000000X1.000000X-2.000000X1.000000X-2.000000X-1.000000X2.000000X-1.000000X0*%
%ADD21R,1.600000X1.600000*%
%ADD22O,1.600000X1.600000*%
G04 APERTURE END LIST*
D10*
%TO.C,Um1*%
X140150000Y-72923046D03*
D11*
X142000000Y-72923046D03*
X142000000Y-74923046D03*
D10*
X140150000Y-74923046D03*
D11*
X142000000Y-76923046D03*
D10*
X140150000Y-76923046D03*
X140150000Y-78923046D03*
D11*
X142000000Y-78923046D03*
D10*
X140150000Y-80923046D03*
D11*
X142000000Y-80923046D03*
X142000000Y-82923046D03*
D10*
X140150000Y-82923046D03*
X140150000Y-84923046D03*
D11*
X142000000Y-84923046D03*
D10*
X140150000Y-86923046D03*
D11*
X142000000Y-86923046D03*
X158000000Y-86923046D03*
D10*
X159850000Y-86923046D03*
D11*
X158000000Y-84923046D03*
D10*
X159850000Y-84923046D03*
D11*
X158000000Y-82923046D03*
D10*
X159850000Y-82923046D03*
X159850000Y-80923046D03*
D11*
X158000000Y-80923046D03*
D10*
X159850000Y-78923046D03*
D11*
X158000000Y-78923046D03*
X158000000Y-76923046D03*
D10*
X159850000Y-76923046D03*
X159850000Y-74923046D03*
D11*
X158000000Y-74923046D03*
X158000000Y-72923046D03*
D10*
X159850000Y-72923046D03*
D12*
X145000000Y-88408046D03*
D13*
X145000000Y-90258046D03*
X147000000Y-90258046D03*
D12*
X147000000Y-88408046D03*
D13*
X149000000Y-90258046D03*
D12*
X149000000Y-88358046D03*
D13*
X151000000Y-90258046D03*
D12*
X151000000Y-88408046D03*
X153000000Y-88408046D03*
D13*
X153000000Y-90258046D03*
X155000000Y-90258046D03*
D12*
X155000000Y-88408046D03*
%TD*%
D14*
%TO.C,REF\u002A\u002A*%
X163108000Y-67919546D03*
%TD*%
%TO.C,REF\u002A\u002A*%
X136892000Y-120139455D03*
%TD*%
D15*
%TO.C,J1*%
X147110000Y-117947455D03*
X152890000Y-117947455D03*
D16*
X144153035Y-117429250D03*
D17*
X154320000Y-117417455D03*
D18*
X144153035Y-121597455D03*
D19*
X154320000Y-121597455D03*
X145680000Y-121597455D03*
D17*
X145680000Y-117417455D03*
D18*
X155846965Y-121597455D03*
D20*
X150000000Y-121817455D03*
D16*
X155846965Y-117429250D03*
%TD*%
D14*
%TO.C,REF\u002A\u002A*%
X199288000Y-94029455D03*
%TD*%
%TO.C,REF\u002A\u002A*%
X163108000Y-120139455D03*
%TD*%
%TO.C,REF\u002A\u002A*%
X173072000Y-120139455D03*
%TD*%
%TO.C,REF\u002A\u002A*%
X136892000Y-94029455D03*
%TD*%
D21*
%TO.C,SW2*%
X143433000Y-97780491D03*
D22*
X143433000Y-105400491D03*
%TD*%
D14*
%TO.C,REF\u002A\u002A*%
X173072000Y-67919546D03*
%TD*%
%TO.C,REF\u002A\u002A*%
X173072000Y-94029455D03*
%TD*%
%TO.C,REF\u002A\u002A*%
X136892000Y-67919546D03*
%TD*%
%TO.C,REF\u002A\u002A*%
X199288000Y-67919546D03*
%TD*%
%TO.C,REF\u002A\u002A*%
X199288000Y-120139455D03*
%TD*%
%TO.C,REF\u002A\u002A*%
X163108000Y-94029455D03*
%TD*%
M02*
