%TF.GenerationSoftware,KiCad,Pcbnew,6.0.11+dfsg-1~bpo11+1*%
%TF.CreationDate,2023-07-14T01:26:02-04:00*%
%TF.ProjectId,ESP12,45535031-322e-46b6-9963-61645f706362,1.0.0*%
%TF.SameCoordinates,Original*%
%TF.FileFunction,Copper,L2,Bot*%
%TF.FilePolarity,Positive*%
%FSLAX46Y46*%
G04 Gerber Fmt 4.6, Leading zero omitted, Abs format (unit mm)*
G04 Created by KiCad (PCBNEW 6.0.11+dfsg-1~bpo11+1) date 2023-07-14 01:26:02*
%MOMM*%
%LPD*%
G01*
G04 APERTURE LIST*
G04 Aperture macros list*
%AMRoundRect*
0 Rectangle with rounded corners*
0 $1 Rounding radius*
0 $2 $3 $4 $5 $6 $7 $8 $9 X,Y pos of 4 corners*
0 Add a 4 corners polygon primitive as box body*
4,1,4,$2,$3,$4,$5,$6,$7,$8,$9,$2,$3,0*
0 Add four circle primitives for the rounded corners*
1,1,$1+$1,$2,$3*
1,1,$1+$1,$4,$5*
1,1,$1+$1,$6,$7*
1,1,$1+$1,$8,$9*
0 Add four rect primitives between the rounded corners*
20,1,$1+$1,$2,$3,$4,$5,0*
20,1,$1+$1,$4,$5,$6,$7,0*
20,1,$1+$1,$6,$7,$8,$9,0*
20,1,$1+$1,$8,$9,$2,$3,0*%
G04 Aperture macros list end*
%TA.AperFunction,SMDPad,CuDef*%
%ADD10RoundRect,0.525000X-1.475000X-0.525000X1.475000X-0.525000X1.475000X0.525000X-1.475000X0.525000X0*%
%TD*%
%TA.AperFunction,ComponentPad*%
%ADD11O,1.000000X2.100000*%
%TD*%
%TA.AperFunction,SMDPad,CuDef*%
%ADD12RoundRect,0.400000X-1.600000X-0.400000X1.600000X-0.400000X1.600000X0.400000X-1.600000X0.400000X0*%
%TD*%
%TA.AperFunction,ComponentPad*%
%ADD13O,1.000000X1.600000*%
%TD*%
%TA.AperFunction,ComponentPad*%
%ADD14RoundRect,1.000000X2.000000X1.000000X-2.000000X1.000000X-2.000000X-1.000000X2.000000X-1.000000X0*%
%TD*%
%TA.AperFunction,ComponentPad*%
%ADD15R,1.600000X1.600000*%
%TD*%
%TA.AperFunction,ComponentPad*%
%ADD16O,1.600000X1.600000*%
%TD*%
%TA.AperFunction,ComponentPad*%
%ADD17O,2.000000X0.950000*%
%TD*%
%TA.AperFunction,ComponentPad*%
%ADD18R,1.300000X0.900000*%
%TD*%
%TA.AperFunction,ComponentPad*%
%ADD19R,0.900000X1.300000*%
%TD*%
%TA.AperFunction,ComponentPad*%
%ADD20O,0.950000X2.000000*%
%TD*%
%TA.AperFunction,ViaPad*%
%ADD21C,0.800000*%
%TD*%
%TA.AperFunction,ViaPad*%
%ADD22C,0.400000*%
%TD*%
%TA.AperFunction,Conductor*%
%ADD23C,0.250000*%
%TD*%
%TA.AperFunction,Conductor*%
%ADD24C,0.200000*%
%TD*%
G04 APERTURE END LIST*
D10*
%TO.P,J1,S1,SHIELD*%
%TO.N,GND*%
X144153035Y-117429250D03*
D11*
X154320000Y-117417455D03*
D12*
X144153035Y-121597455D03*
D13*
X154320000Y-121597455D03*
X145680000Y-121597455D03*
D11*
X145680000Y-117417455D03*
D12*
X155846965Y-121597455D03*
D14*
X150000000Y-121817455D03*
D10*
X155846965Y-117429250D03*
%TD*%
D15*
%TO.P,SW2,1*%
%TO.N,GND*%
X153810000Y-97500000D03*
D16*
%TO.P,SW2,2*%
%TO.N,mGND*%
X146190000Y-97500000D03*
%TD*%
D17*
%TO.P,Um1,1,~{RST}_(EXT_RSTB)*%
%TO.N,RST*%
X142000000Y-72923046D03*
D18*
X140150000Y-72923046D03*
D17*
%TO.P,Um1,2,ADC_(TOUT)*%
%TO.N,unconnected-(Um1-Pad2)*%
X142000000Y-74923046D03*
D18*
X140150000Y-74923046D03*
%TO.P,Um1,3,EN_(CHIP_PU)*%
%TO.N,EN*%
X140150000Y-76923046D03*
D17*
X142000000Y-76923046D03*
D18*
%TO.P,Um1,4,(XPD_DCDC)_GPIO16*%
%TO.N,unconnected-(Um1-Pad4)*%
X140150000Y-78923046D03*
D17*
X142000000Y-78923046D03*
D18*
%TO.P,Um1,5,(MTMS)_GPIO14*%
%TO.N,unconnected-(Um1-Pad5)*%
X140150000Y-80923046D03*
D17*
X142000000Y-80923046D03*
%TO.P,Um1,6,(MTDI)_GPIO12*%
%TO.N,unconnected-(Um1-Pad6)*%
X142000000Y-82923046D03*
D18*
X140150000Y-82923046D03*
%TO.P,Um1,7,(MTCK)_GPIO13*%
%TO.N,unconnected-(Um1-Pad7)*%
X140150000Y-84923046D03*
D17*
X142000000Y-84923046D03*
%TO.P,Um1,8,Vcc*%
%TO.N,+3.3V*%
X142000000Y-86923046D03*
D18*
X140150000Y-86923046D03*
D17*
%TO.P,Um1,9,GND*%
%TO.N,mGND*%
X158000000Y-86923046D03*
D18*
X159850000Y-86923046D03*
%TO.P,Um1,10,(MTDO)_GPIO15*%
%TO.N,io15*%
X159850000Y-84923046D03*
D17*
X158000000Y-84923046D03*
D18*
%TO.P,Um1,11,GPIO2*%
%TO.N,unconnected-(Um1-Pad11)*%
X159850000Y-82923046D03*
D17*
X158000000Y-82923046D03*
D18*
%TO.P,Um1,12,GPIO0*%
%TO.N,io0*%
X159850000Y-80923046D03*
D17*
X158000000Y-80923046D03*
%TO.P,Um1,13,GPIO4*%
%TO.N,unconnected-(Um1-Pad13)*%
X158000000Y-78923046D03*
D18*
X159850000Y-78923046D03*
%TO.P,Um1,14,GPIO5*%
%TO.N,unconnected-(Um1-Pad14)*%
X159850000Y-76923046D03*
D17*
X158000000Y-76923046D03*
%TO.P,Um1,15,(U0RXD)_GPIO3*%
%TO.N,RxD*%
X158000000Y-74923046D03*
D18*
X159850000Y-74923046D03*
%TO.P,Um1,16,(U0TXD)_GPIO1*%
%TO.N,TxD*%
X159850000Y-72923046D03*
D17*
X158000000Y-72923046D03*
D19*
%TO.P,Um1,17,?_(SDIO_CMD)_GPIO11*%
%TO.N,unconnected-(Um1-Pad17)*%
X145000000Y-90258046D03*
D20*
X145000000Y-88408046D03*
%TO.P,Um1,18,?_(SDIO_DATA_0)_GPIO7*%
%TO.N,unconnected-(Um1-Pad18)*%
X147000000Y-88408046D03*
D19*
X147000000Y-90258046D03*
%TO.P,Um1,19,(SDIO_DATA_2)_GPIO9*%
%TO.N,unconnected-(Um1-Pad19)*%
X149000000Y-90258046D03*
D20*
X149000000Y-88358046D03*
%TO.P,Um1,20,(SDIO_DATA_3)_GPIO10*%
%TO.N,unconnected-(Um1-Pad20)*%
X151000000Y-88408046D03*
D19*
X151000000Y-90258046D03*
D20*
%TO.P,Um1,21,?_(SDIO_DATA_1)_GPIO8*%
%TO.N,unconnected-(Um1-Pad21)*%
X153000000Y-88408046D03*
D19*
X153000000Y-90258046D03*
%TO.P,Um1,22,?_(SDIO_CLK)_GPIO6*%
%TO.N,unconnected-(Um1-Pad22)*%
X155000000Y-90258046D03*
D20*
X155000000Y-88408046D03*
%TD*%
D21*
%TO.N,GND*%
X146557590Y-105773720D03*
X142680000Y-117637455D03*
X136000000Y-110967455D03*
X156300000Y-106015601D03*
X156300000Y-107402273D03*
X157320000Y-117637455D03*
X136450000Y-101590491D03*
%TO.N,RxD*%
X151163498Y-107247455D03*
%TO.N,TxD*%
X149910000Y-107147455D03*
%TO.N,RST*%
X138150000Y-102000000D03*
%TO.N,io0*%
X157119480Y-101846154D03*
%TO.N,DTR*%
X148640000Y-112047455D03*
X154100000Y-102997589D03*
%TO.N,RTS*%
X154100000Y-101050536D03*
X149910000Y-112047455D03*
D22*
%TO.N,UD+*%
X149850000Y-115441595D03*
D21*
X147370000Y-111047455D03*
D22*
%TO.N,UD-*%
X149150000Y-115441595D03*
D21*
X146100000Y-111047455D03*
%TD*%
D23*
%TO.N,RxD*%
X158000000Y-74923046D02*
X156642803Y-76280243D01*
X156642803Y-91453593D02*
X155190416Y-92905980D01*
X155190416Y-92905980D02*
X152650416Y-92905980D01*
X152650416Y-92905980D02*
X151163498Y-94392898D01*
X151163498Y-94392898D02*
X151163498Y-107247455D01*
X156642803Y-76280243D02*
X156642803Y-91453593D01*
%TO.N,TxD*%
X149910000Y-95010000D02*
X149910000Y-107147455D01*
X155080000Y-92380000D02*
X152540000Y-92380000D01*
X158000000Y-72923046D02*
X156192803Y-74730243D01*
X156192803Y-91267197D02*
X155080000Y-92380000D01*
X156192803Y-74730243D02*
X156192803Y-91267197D01*
X152540000Y-92380000D02*
X149910000Y-95010000D01*
%TO.N,RST*%
X143826992Y-77002367D02*
X143776534Y-77052825D01*
X143335724Y-72932662D02*
X143826992Y-73423930D01*
X143776534Y-88443466D02*
X143776534Y-96373466D01*
X143826992Y-73423930D02*
X143826992Y-77002367D01*
X143776534Y-77052825D02*
X143776534Y-88443466D01*
X143776534Y-96373466D02*
X138150000Y-102000000D01*
X142000000Y-72932662D02*
X143335724Y-72932662D01*
%TO.N,io0*%
X161446373Y-81576023D02*
X161446373Y-87812987D01*
X161446373Y-87812987D02*
X157119480Y-92139880D01*
X157119480Y-92139880D02*
X157119480Y-101846154D01*
X160793396Y-80923046D02*
X161446373Y-81576023D01*
X159550000Y-80923046D02*
X160793396Y-80923046D01*
%TO.N,DTR*%
X155080000Y-110487455D02*
X155080000Y-103977589D01*
X154245000Y-111322455D02*
X155080000Y-110487455D01*
X148640000Y-111764455D02*
X149082000Y-111322455D01*
X155080000Y-103977589D02*
X154100000Y-102997589D01*
X149082000Y-111322455D02*
X154245000Y-111322455D01*
X148640000Y-112047455D02*
X148640000Y-111764455D01*
%TO.N,RTS*%
X154100000Y-101050536D02*
X155530000Y-102480536D01*
X154156396Y-112047455D02*
X149910000Y-112047455D01*
X155530000Y-102480536D02*
X155530000Y-110673851D01*
X155530000Y-110673851D02*
X154156396Y-112047455D01*
D24*
%TO.N,UD+*%
X149850000Y-114851769D02*
X149850000Y-115491595D01*
X147370000Y-112371769D02*
X149850000Y-114851769D01*
X147370000Y-111047455D02*
X147370000Y-112371769D01*
%TO.N,UD-*%
X146100000Y-111983382D02*
X146100000Y-111047455D01*
X149150000Y-115033382D02*
X146100000Y-111983382D01*
X149150000Y-115491595D02*
X149150000Y-115033382D01*
%TD*%
%TA.AperFunction,Conductor*%
%TO.N,GND*%
G36*
X199258018Y-64079635D02*
G01*
X199272852Y-64081945D01*
X199272855Y-64081945D01*
X199281724Y-64083326D01*
X199299033Y-64081063D01*
X199301656Y-64080720D01*
X199323810Y-64079791D01*
X199423131Y-64084383D01*
X199645400Y-64094658D01*
X199656988Y-64095732D01*
X200005571Y-64144357D01*
X200017010Y-64146496D01*
X200209843Y-64191849D01*
X200359616Y-64227075D01*
X200370798Y-64230256D01*
X200537661Y-64286183D01*
X200704515Y-64342107D01*
X200715366Y-64346311D01*
X201037329Y-64488469D01*
X201047743Y-64493654D01*
X201074673Y-64508653D01*
X201355231Y-64664921D01*
X201365126Y-64671048D01*
X201655486Y-64869947D01*
X201664773Y-64876960D01*
X201935547Y-65101805D01*
X201944148Y-65109646D01*
X202193018Y-65358513D01*
X202200857Y-65367111D01*
X202340714Y-65535532D01*
X202425706Y-65637882D01*
X202432720Y-65647170D01*
X202631623Y-65937527D01*
X202637750Y-65947422D01*
X202809015Y-66254894D01*
X202814201Y-66265307D01*
X202911680Y-66486071D01*
X202956370Y-66587281D01*
X202960573Y-66598130D01*
X203005229Y-66731360D01*
X203072425Y-66931841D01*
X203075610Y-66943035D01*
X203078750Y-66956383D01*
X203156195Y-67285639D01*
X203156196Y-67285645D01*
X203158333Y-67297079D01*
X203198150Y-67582490D01*
X203206962Y-67645656D01*
X203208036Y-67657244D01*
X203222552Y-67971107D01*
X203221187Y-67996311D01*
X203219310Y-68008367D01*
X203222321Y-68031389D01*
X203223437Y-68039924D01*
X203224501Y-68056263D01*
X203224500Y-120090092D01*
X203223000Y-120109476D01*
X203220789Y-120123680D01*
X203219309Y-120133183D01*
X203220473Y-120142084D01*
X203220473Y-120142089D01*
X203221915Y-120153112D01*
X203222845Y-120175268D01*
X203207980Y-120496855D01*
X203206906Y-120508442D01*
X203198098Y-120571589D01*
X203158284Y-120857023D01*
X203156145Y-120868463D01*
X203094294Y-121131445D01*
X203075569Y-121211060D01*
X203072386Y-121222245D01*
X203012363Y-121401334D01*
X202960540Y-121555954D01*
X202956337Y-121566803D01*
X202885255Y-121727792D01*
X202814173Y-121888777D01*
X202808985Y-121899195D01*
X202782244Y-121947205D01*
X202714875Y-122068156D01*
X202637729Y-122206659D01*
X202631603Y-122216553D01*
X202610192Y-122247809D01*
X202432700Y-122506914D01*
X202425689Y-122516199D01*
X202425678Y-122516212D01*
X202200842Y-122786969D01*
X202193001Y-122795570D01*
X201944136Y-123044432D01*
X201935535Y-123052273D01*
X201664759Y-123277119D01*
X201655471Y-123284132D01*
X201365120Y-123483023D01*
X201355228Y-123489148D01*
X201074605Y-123645450D01*
X201047753Y-123660406D01*
X201037340Y-123665591D01*
X200715364Y-123807753D01*
X200704511Y-123811957D01*
X200370810Y-123923796D01*
X200359616Y-123926981D01*
X200017006Y-124007556D01*
X200005565Y-124009694D01*
X199799442Y-124038443D01*
X199656992Y-124058311D01*
X199645418Y-124059383D01*
X199330954Y-124073916D01*
X199305751Y-124072548D01*
X199294288Y-124070763D01*
X199285385Y-124071927D01*
X199285384Y-124071927D01*
X199262713Y-124074891D01*
X199246379Y-124075954D01*
X173121367Y-124075954D01*
X173101982Y-124074454D01*
X173087148Y-124072144D01*
X173087145Y-124072144D01*
X173078276Y-124070763D01*
X173064624Y-124072548D01*
X173058344Y-124073369D01*
X173036190Y-124074298D01*
X173016095Y-124073369D01*
X172936869Y-124069706D01*
X172714600Y-124059431D01*
X172703012Y-124058357D01*
X172354430Y-124009732D01*
X172342991Y-124007593D01*
X172045825Y-123937701D01*
X172000386Y-123927014D01*
X171989204Y-123923833D01*
X171822341Y-123867906D01*
X171655487Y-123811982D01*
X171644636Y-123807778D01*
X171322673Y-123665620D01*
X171312259Y-123660436D01*
X171182958Y-123588416D01*
X171004773Y-123489168D01*
X170994878Y-123483041D01*
X170704519Y-123284143D01*
X170695232Y-123277130D01*
X170692146Y-123274567D01*
X170424456Y-123052283D01*
X170415856Y-123044443D01*
X170166983Y-122795572D01*
X170159143Y-122786971D01*
X169934304Y-122516212D01*
X169927290Y-122506925D01*
X169927283Y-122506914D01*
X169728384Y-122216562D01*
X169722257Y-122206667D01*
X169642492Y-122063465D01*
X169550990Y-121899190D01*
X169545804Y-121888777D01*
X169531301Y-121855930D01*
X169403637Y-121566805D01*
X169399434Y-121555956D01*
X169287583Y-121222249D01*
X169284398Y-121211055D01*
X169203816Y-120868455D01*
X169201678Y-120857015D01*
X169153047Y-120508423D01*
X169151973Y-120496834D01*
X169149156Y-120435903D01*
X169141584Y-120272158D01*
X170962743Y-120272158D01*
X170963302Y-120276402D01*
X170963302Y-120276406D01*
X170967790Y-120310497D01*
X171000268Y-120557189D01*
X171001401Y-120561329D01*
X171001401Y-120561331D01*
X171004207Y-120571589D01*
X171076129Y-120834491D01*
X171077813Y-120838439D01*
X171167648Y-121049052D01*
X171188923Y-121098931D01*
X171259424Y-121216730D01*
X171334268Y-121341784D01*
X171336561Y-121345616D01*
X171516313Y-121569983D01*
X171724851Y-121767878D01*
X171958317Y-121935641D01*
X171962112Y-121937650D01*
X171962113Y-121937651D01*
X171983869Y-121949170D01*
X172212392Y-122070167D01*
X172482373Y-122168966D01*
X172763264Y-122230210D01*
X172791841Y-122232459D01*
X172986282Y-122247762D01*
X172986291Y-122247762D01*
X172988739Y-122247955D01*
X173144271Y-122247955D01*
X173146407Y-122247809D01*
X173146418Y-122247809D01*
X173354548Y-122233620D01*
X173354554Y-122233619D01*
X173358825Y-122233328D01*
X173363020Y-122232459D01*
X173363022Y-122232459D01*
X173499584Y-122204178D01*
X173640342Y-122175029D01*
X173911343Y-122079062D01*
X174166812Y-121947205D01*
X174170313Y-121944744D01*
X174170317Y-121944742D01*
X174300673Y-121853126D01*
X174402023Y-121781896D01*
X174612622Y-121586195D01*
X174794713Y-121363723D01*
X174944927Y-121118597D01*
X175060483Y-120855353D01*
X175139244Y-120578861D01*
X175172087Y-120348090D01*
X175179146Y-120298491D01*
X175179146Y-120298489D01*
X175179751Y-120294239D01*
X175179776Y-120289648D01*
X175179868Y-120272158D01*
X197178743Y-120272158D01*
X197179302Y-120276402D01*
X197179302Y-120276406D01*
X197183790Y-120310497D01*
X197216268Y-120557189D01*
X197217401Y-120561329D01*
X197217401Y-120561331D01*
X197220207Y-120571589D01*
X197292129Y-120834491D01*
X197293813Y-120838439D01*
X197383648Y-121049052D01*
X197404923Y-121098931D01*
X197475424Y-121216730D01*
X197550268Y-121341784D01*
X197552561Y-121345616D01*
X197732313Y-121569983D01*
X197940851Y-121767878D01*
X198174317Y-121935641D01*
X198178112Y-121937650D01*
X198178113Y-121937651D01*
X198199869Y-121949170D01*
X198428392Y-122070167D01*
X198698373Y-122168966D01*
X198979264Y-122230210D01*
X199007841Y-122232459D01*
X199202282Y-122247762D01*
X199202291Y-122247762D01*
X199204739Y-122247955D01*
X199360271Y-122247955D01*
X199362407Y-122247809D01*
X199362418Y-122247809D01*
X199570548Y-122233620D01*
X199570554Y-122233619D01*
X199574825Y-122233328D01*
X199579020Y-122232459D01*
X199579022Y-122232459D01*
X199715584Y-122204178D01*
X199856342Y-122175029D01*
X200127343Y-122079062D01*
X200382812Y-121947205D01*
X200386313Y-121944744D01*
X200386317Y-121944742D01*
X200516673Y-121853126D01*
X200618023Y-121781896D01*
X200828622Y-121586195D01*
X201010713Y-121363723D01*
X201160927Y-121118597D01*
X201276483Y-120855353D01*
X201355244Y-120578861D01*
X201388087Y-120348090D01*
X201395146Y-120298491D01*
X201395146Y-120298489D01*
X201395751Y-120294239D01*
X201395776Y-120289648D01*
X201397235Y-120011038D01*
X201397235Y-120011031D01*
X201397257Y-120006752D01*
X201390091Y-119952316D01*
X201380190Y-119877115D01*
X201359732Y-119721721D01*
X201283871Y-119444419D01*
X201226304Y-119309455D01*
X201172763Y-119183931D01*
X201172761Y-119183927D01*
X201171077Y-119179979D01*
X201055683Y-118987170D01*
X201025643Y-118936976D01*
X201025640Y-118936972D01*
X201023439Y-118933294D01*
X200843687Y-118708927D01*
X200681073Y-118554612D01*
X200638258Y-118513982D01*
X200638255Y-118513980D01*
X200635149Y-118511032D01*
X200401683Y-118343269D01*
X200379843Y-118331705D01*
X200356654Y-118319427D01*
X200147608Y-118208743D01*
X199877627Y-118109944D01*
X199596736Y-118048700D01*
X199565685Y-118046256D01*
X199373718Y-118031148D01*
X199373709Y-118031148D01*
X199371261Y-118030955D01*
X199215729Y-118030955D01*
X199213593Y-118031101D01*
X199213582Y-118031101D01*
X199005452Y-118045290D01*
X199005446Y-118045291D01*
X199001175Y-118045582D01*
X198996980Y-118046451D01*
X198996978Y-118046451D01*
X198860622Y-118074689D01*
X198719658Y-118103881D01*
X198448657Y-118199848D01*
X198444848Y-118201814D01*
X198246930Y-118303967D01*
X198193188Y-118331705D01*
X198189687Y-118334166D01*
X198189683Y-118334168D01*
X198179867Y-118341067D01*
X197957977Y-118497014D01*
X197942892Y-118511032D01*
X197774527Y-118667487D01*
X197747378Y-118692715D01*
X197565287Y-118915187D01*
X197415073Y-119160313D01*
X197413347Y-119164246D01*
X197413346Y-119164247D01*
X197354419Y-119298487D01*
X197299517Y-119423557D01*
X197220756Y-119700049D01*
X197190485Y-119912751D01*
X197187062Y-119936803D01*
X197180249Y-119984671D01*
X197180227Y-119988960D01*
X197180226Y-119988967D01*
X197178765Y-120267872D01*
X197178743Y-120272158D01*
X175179868Y-120272158D01*
X175181235Y-120011038D01*
X175181235Y-120011031D01*
X175181257Y-120006752D01*
X175174091Y-119952316D01*
X175164190Y-119877115D01*
X175143732Y-119721721D01*
X175067871Y-119444419D01*
X175010304Y-119309455D01*
X174956763Y-119183931D01*
X174956761Y-119183927D01*
X174955077Y-119179979D01*
X174839683Y-118987170D01*
X174809643Y-118936976D01*
X174809640Y-118936972D01*
X174807439Y-118933294D01*
X174627687Y-118708927D01*
X174465073Y-118554612D01*
X174422258Y-118513982D01*
X174422255Y-118513980D01*
X174419149Y-118511032D01*
X174185683Y-118343269D01*
X174163843Y-118331705D01*
X174140654Y-118319427D01*
X173931608Y-118208743D01*
X173661627Y-118109944D01*
X173380736Y-118048700D01*
X173349685Y-118046256D01*
X173157718Y-118031148D01*
X173157709Y-118031148D01*
X173155261Y-118030955D01*
X172999729Y-118030955D01*
X172997593Y-118031101D01*
X172997582Y-118031101D01*
X172789452Y-118045290D01*
X172789446Y-118045291D01*
X172785175Y-118045582D01*
X172780980Y-118046451D01*
X172780978Y-118046451D01*
X172644622Y-118074689D01*
X172503658Y-118103881D01*
X172232657Y-118199848D01*
X172228848Y-118201814D01*
X172030930Y-118303967D01*
X171977188Y-118331705D01*
X171973687Y-118334166D01*
X171973683Y-118334168D01*
X171963867Y-118341067D01*
X171741977Y-118497014D01*
X171726892Y-118511032D01*
X171558527Y-118667487D01*
X171531378Y-118692715D01*
X171349287Y-118915187D01*
X171199073Y-119160313D01*
X171197347Y-119164246D01*
X171197346Y-119164247D01*
X171138419Y-119298487D01*
X171083517Y-119423557D01*
X171004756Y-119700049D01*
X170974485Y-119912751D01*
X170971062Y-119936803D01*
X170964249Y-119984671D01*
X170964227Y-119988960D01*
X170964226Y-119988967D01*
X170962765Y-120267872D01*
X170962743Y-120272158D01*
X169141584Y-120272158D01*
X169137630Y-120186664D01*
X169139241Y-120159942D01*
X169139767Y-120156815D01*
X169140576Y-120152006D01*
X169140649Y-120145992D01*
X169140691Y-120145724D01*
X169140656Y-120145455D01*
X169140729Y-120139454D01*
X169139048Y-120127720D01*
X169138317Y-120121506D01*
X169122640Y-119952326D01*
X169122638Y-119952314D01*
X169122101Y-119946521D01*
X169117006Y-119928612D01*
X169070669Y-119765758D01*
X169069076Y-119760158D01*
X168982710Y-119586711D01*
X168865944Y-119432088D01*
X168722754Y-119301553D01*
X168717806Y-119298490D01*
X168717803Y-119298487D01*
X168631249Y-119244895D01*
X168558016Y-119199551D01*
X168447291Y-119156656D01*
X168382767Y-119131659D01*
X168382763Y-119131658D01*
X168377340Y-119129557D01*
X168186880Y-119093954D01*
X167993120Y-119093954D01*
X167802660Y-119129557D01*
X167797237Y-119131658D01*
X167797233Y-119131659D01*
X167732709Y-119156656D01*
X167621984Y-119199551D01*
X167548751Y-119244895D01*
X167462197Y-119298487D01*
X167462194Y-119298490D01*
X167457246Y-119301553D01*
X167314056Y-119432088D01*
X167197290Y-119586711D01*
X167110924Y-119760158D01*
X167109331Y-119765758D01*
X167062995Y-119928612D01*
X167057899Y-119946521D01*
X167043879Y-120097829D01*
X167042865Y-120108768D01*
X167041901Y-120116531D01*
X167039309Y-120133178D01*
X167039309Y-120133183D01*
X167040066Y-120138968D01*
X167040021Y-120139454D01*
X167040129Y-120139454D01*
X167041676Y-120151283D01*
X167041915Y-120153112D01*
X167042845Y-120175269D01*
X167027980Y-120496859D01*
X167026906Y-120508444D01*
X167021430Y-120547710D01*
X166978284Y-120857032D01*
X166976146Y-120868469D01*
X166895573Y-121211060D01*
X166895572Y-121211063D01*
X166892387Y-121222257D01*
X166780535Y-121555985D01*
X166776331Y-121566837D01*
X166634184Y-121888777D01*
X166634178Y-121888790D01*
X166628993Y-121899203D01*
X166544193Y-122051453D01*
X166457730Y-122206686D01*
X166451603Y-122216582D01*
X166430212Y-122247809D01*
X166257566Y-122499845D01*
X166252702Y-122506945D01*
X166245689Y-122516232D01*
X166020843Y-122787007D01*
X166013002Y-122795608D01*
X165764137Y-123044476D01*
X165755536Y-123052317D01*
X165484767Y-123277163D01*
X165475479Y-123284177D01*
X165185116Y-123483081D01*
X165175222Y-123489207D01*
X164867739Y-123660476D01*
X164857340Y-123665654D01*
X164535355Y-123807825D01*
X164524523Y-123812021D01*
X164190938Y-123923829D01*
X164190804Y-123923874D01*
X164179614Y-123927058D01*
X164134363Y-123937701D01*
X163837011Y-124007638D01*
X163825570Y-124009777D01*
X163477311Y-124058357D01*
X163476988Y-124058402D01*
X163465399Y-124059476D01*
X163151441Y-124073991D01*
X163126241Y-124072625D01*
X163123155Y-124072145D01*
X163123152Y-124072145D01*
X163114276Y-124070763D01*
X163105374Y-124071927D01*
X163105372Y-124071927D01*
X163094347Y-124073369D01*
X163082714Y-124074890D01*
X163066379Y-124075954D01*
X153181868Y-124075954D01*
X153113747Y-124055952D01*
X153067254Y-124002296D01*
X153057150Y-123932022D01*
X153085914Y-123868291D01*
X153223780Y-123706298D01*
X153229688Y-123698107D01*
X153350148Y-123499204D01*
X153354668Y-123490178D01*
X153441781Y-123274567D01*
X153444797Y-123264943D01*
X153496378Y-123037903D01*
X153497780Y-123028471D01*
X153507839Y-122888145D01*
X153507868Y-122887340D01*
X154574000Y-122887340D01*
X154578475Y-122902579D01*
X154579865Y-122903784D01*
X154587548Y-122905455D01*
X155574850Y-122905455D01*
X155590089Y-122900980D01*
X155591294Y-122899590D01*
X155592965Y-122891907D01*
X155592965Y-122887340D01*
X156100965Y-122887340D01*
X156105440Y-122902579D01*
X156106830Y-122903784D01*
X156114513Y-122905455D01*
X157508050Y-122905455D01*
X157512975Y-122905262D01*
X157584034Y-122899669D01*
X157595368Y-122897722D01*
X157767782Y-122851524D01*
X157780035Y-122846820D01*
X157938340Y-122766160D01*
X157949355Y-122759007D01*
X158087424Y-122647200D01*
X158096710Y-122637914D01*
X158208517Y-122499845D01*
X158215670Y-122488830D01*
X158296330Y-122330525D01*
X158301034Y-122318272D01*
X158347232Y-122145858D01*
X158349179Y-122134524D01*
X158354772Y-122063465D01*
X158354965Y-122058540D01*
X158354965Y-121869570D01*
X158350490Y-121854331D01*
X158349100Y-121853126D01*
X158341417Y-121851455D01*
X156119080Y-121851455D01*
X156103841Y-121855930D01*
X156102636Y-121857320D01*
X156100965Y-121865003D01*
X156100965Y-122887340D01*
X155592965Y-122887340D01*
X155592965Y-121869570D01*
X155588490Y-121854331D01*
X155587100Y-121853126D01*
X155579417Y-121851455D01*
X154592115Y-121851455D01*
X154576876Y-121855930D01*
X154575671Y-121857320D01*
X154574000Y-121865003D01*
X154574000Y-122887340D01*
X153507868Y-122887340D01*
X153508000Y-122883632D01*
X153508000Y-122831595D01*
X153528002Y-122763474D01*
X153581658Y-122716981D01*
X153651932Y-122706877D01*
X153713295Y-122733675D01*
X153744581Y-122759010D01*
X153755590Y-122766160D01*
X153913895Y-122846820D01*
X153926148Y-122851524D01*
X154048503Y-122884309D01*
X154062599Y-122883973D01*
X154066000Y-122876031D01*
X154066000Y-121869570D01*
X154061525Y-121854331D01*
X154060135Y-121853126D01*
X154052452Y-121851455D01*
X153566115Y-121851455D01*
X153550876Y-121855930D01*
X153549671Y-121857320D01*
X153548000Y-121865003D01*
X153548000Y-121945455D01*
X153527998Y-122013576D01*
X153474342Y-122060069D01*
X153422000Y-122071455D01*
X146578000Y-122071455D01*
X146509879Y-122051453D01*
X146463386Y-121997797D01*
X146452000Y-121945455D01*
X146452000Y-121869570D01*
X146447525Y-121854331D01*
X146446135Y-121853126D01*
X146438452Y-121851455D01*
X145952115Y-121851455D01*
X145936876Y-121855930D01*
X145935671Y-121857320D01*
X145934000Y-121865003D01*
X145934000Y-122870882D01*
X145937973Y-122884413D01*
X145946522Y-122885642D01*
X146073852Y-122851524D01*
X146086105Y-122846820D01*
X146244410Y-122766160D01*
X146255419Y-122759010D01*
X146286705Y-122733675D01*
X146352232Y-122706349D01*
X146422130Y-122718788D01*
X146474208Y-122767042D01*
X146492000Y-122831595D01*
X146492000Y-122883632D01*
X146492161Y-122888145D01*
X146502220Y-123028471D01*
X146503622Y-123037903D01*
X146555203Y-123264943D01*
X146558219Y-123274567D01*
X146645332Y-123490178D01*
X146649852Y-123499204D01*
X146770312Y-123698107D01*
X146776220Y-123706298D01*
X146914086Y-123868291D01*
X146943004Y-123933131D01*
X146932276Y-124003313D01*
X146885308Y-124056553D01*
X146818132Y-124075954D01*
X136941367Y-124075954D01*
X136921982Y-124074454D01*
X136907148Y-124072144D01*
X136907145Y-124072144D01*
X136898276Y-124070763D01*
X136884624Y-124072548D01*
X136878344Y-124073369D01*
X136856190Y-124074298D01*
X136534604Y-124059431D01*
X136523016Y-124058357D01*
X136174439Y-124009732D01*
X136162999Y-124007593D01*
X135865840Y-123937701D01*
X135820399Y-123927013D01*
X135809208Y-123923829D01*
X135809110Y-123923796D01*
X135475494Y-123811979D01*
X135464662Y-123807783D01*
X135142681Y-123665613D01*
X135132278Y-123660433D01*
X134824790Y-123489162D01*
X134814906Y-123483041D01*
X134524549Y-123284140D01*
X134515263Y-123277128D01*
X134500590Y-123264943D01*
X134244495Y-123052283D01*
X134235894Y-123044442D01*
X133987032Y-122795577D01*
X133979192Y-122786976D01*
X133754348Y-122516204D01*
X133747334Y-122506917D01*
X133548436Y-122216558D01*
X133542309Y-122206662D01*
X133425974Y-121997797D01*
X133371048Y-121899183D01*
X133365872Y-121888790D01*
X133223700Y-121566794D01*
X133219504Y-121555959D01*
X133107659Y-121222252D01*
X133104474Y-121211058D01*
X133054941Y-121000448D01*
X133023898Y-120868455D01*
X133021761Y-120857023D01*
X133000707Y-120706080D01*
X132973140Y-120508440D01*
X132972066Y-120496857D01*
X132970822Y-120469932D01*
X132963395Y-120309268D01*
X132961680Y-120272158D01*
X134782743Y-120272158D01*
X134783302Y-120276402D01*
X134783302Y-120276406D01*
X134787790Y-120310497D01*
X134820268Y-120557189D01*
X134821401Y-120561329D01*
X134821401Y-120561331D01*
X134824207Y-120571589D01*
X134896129Y-120834491D01*
X134897813Y-120838439D01*
X134987648Y-121049052D01*
X135008923Y-121098931D01*
X135079424Y-121216730D01*
X135154268Y-121341784D01*
X135156561Y-121345616D01*
X135336313Y-121569983D01*
X135544851Y-121767878D01*
X135778317Y-121935641D01*
X135782112Y-121937650D01*
X135782113Y-121937651D01*
X135803869Y-121949170D01*
X136032392Y-122070167D01*
X136302373Y-122168966D01*
X136583264Y-122230210D01*
X136611841Y-122232459D01*
X136806282Y-122247762D01*
X136806291Y-122247762D01*
X136808739Y-122247955D01*
X136964271Y-122247955D01*
X136966407Y-122247809D01*
X136966418Y-122247809D01*
X137174548Y-122233620D01*
X137174554Y-122233619D01*
X137178825Y-122233328D01*
X137183020Y-122232459D01*
X137183022Y-122232459D01*
X137319584Y-122204178D01*
X137460342Y-122175029D01*
X137731343Y-122079062D01*
X137771104Y-122058540D01*
X141645035Y-122058540D01*
X141645228Y-122063465D01*
X141650821Y-122134524D01*
X141652768Y-122145858D01*
X141698966Y-122318272D01*
X141703670Y-122330525D01*
X141784330Y-122488830D01*
X141791483Y-122499845D01*
X141903290Y-122637914D01*
X141912576Y-122647200D01*
X142050645Y-122759007D01*
X142061660Y-122766160D01*
X142219965Y-122846820D01*
X142232218Y-122851524D01*
X142404632Y-122897722D01*
X142415966Y-122899669D01*
X142487025Y-122905262D01*
X142491950Y-122905455D01*
X143880920Y-122905455D01*
X143896159Y-122900980D01*
X143897364Y-122899590D01*
X143899035Y-122891907D01*
X143899035Y-122887340D01*
X144407035Y-122887340D01*
X144411510Y-122902579D01*
X144412900Y-122903784D01*
X144420583Y-122905455D01*
X145407885Y-122905455D01*
X145423124Y-122900980D01*
X145424329Y-122899590D01*
X145426000Y-122891907D01*
X145426000Y-121869570D01*
X145421525Y-121854331D01*
X145420135Y-121853126D01*
X145412452Y-121851455D01*
X144425150Y-121851455D01*
X144409911Y-121855930D01*
X144408706Y-121857320D01*
X144407035Y-121865003D01*
X144407035Y-122887340D01*
X143899035Y-122887340D01*
X143899035Y-121869570D01*
X143894560Y-121854331D01*
X143893170Y-121853126D01*
X143885487Y-121851455D01*
X141663150Y-121851455D01*
X141647911Y-121855930D01*
X141646706Y-121857320D01*
X141645035Y-121865003D01*
X141645035Y-122058540D01*
X137771104Y-122058540D01*
X137986812Y-121947205D01*
X137990313Y-121944744D01*
X137990317Y-121944742D01*
X138120673Y-121853126D01*
X138222023Y-121781896D01*
X138432622Y-121586195D01*
X138614713Y-121363723D01*
X138638234Y-121325340D01*
X141645035Y-121325340D01*
X141649510Y-121340579D01*
X141650900Y-121341784D01*
X141658583Y-121343455D01*
X143880920Y-121343455D01*
X143896159Y-121338980D01*
X143897364Y-121337590D01*
X143899035Y-121329907D01*
X143899035Y-121325340D01*
X144407035Y-121325340D01*
X144411510Y-121340579D01*
X144412900Y-121341784D01*
X144420583Y-121343455D01*
X145407885Y-121343455D01*
X145423124Y-121338980D01*
X145424329Y-121337590D01*
X145426000Y-121329907D01*
X145426000Y-121325340D01*
X145934000Y-121325340D01*
X145938475Y-121340579D01*
X145939865Y-121341784D01*
X145947548Y-121343455D01*
X146602000Y-121343455D01*
X146670121Y-121363457D01*
X146716614Y-121417113D01*
X146728000Y-121469455D01*
X146728000Y-121545340D01*
X146732475Y-121560579D01*
X146733865Y-121561784D01*
X146741548Y-121563455D01*
X149727885Y-121563455D01*
X149743124Y-121558980D01*
X149744329Y-121557590D01*
X149746000Y-121549907D01*
X149746000Y-121545340D01*
X150254000Y-121545340D01*
X150258475Y-121560579D01*
X150259865Y-121561784D01*
X150267548Y-121563455D01*
X153253885Y-121563455D01*
X153269124Y-121558980D01*
X153270329Y-121557590D01*
X153272000Y-121549907D01*
X153272000Y-121469455D01*
X153292002Y-121401334D01*
X153345658Y-121354841D01*
X153398000Y-121343455D01*
X154047885Y-121343455D01*
X154063124Y-121338980D01*
X154064329Y-121337590D01*
X154066000Y-121329907D01*
X154066000Y-121325340D01*
X154574000Y-121325340D01*
X154578475Y-121340579D01*
X154579865Y-121341784D01*
X154587548Y-121343455D01*
X155574850Y-121343455D01*
X155590089Y-121338980D01*
X155591294Y-121337590D01*
X155592965Y-121329907D01*
X155592965Y-121325340D01*
X156100965Y-121325340D01*
X156105440Y-121340579D01*
X156106830Y-121341784D01*
X156114513Y-121343455D01*
X158336850Y-121343455D01*
X158352089Y-121338980D01*
X158353294Y-121337590D01*
X158354965Y-121329907D01*
X158354965Y-121136371D01*
X158354772Y-121131445D01*
X158349179Y-121060386D01*
X158347232Y-121049052D01*
X158301034Y-120876638D01*
X158296330Y-120864385D01*
X158215670Y-120706080D01*
X158208517Y-120695065D01*
X158096710Y-120556996D01*
X158087424Y-120547710D01*
X157949355Y-120435903D01*
X157938340Y-120428750D01*
X157780035Y-120348090D01*
X157767782Y-120343386D01*
X157595368Y-120297188D01*
X157584034Y-120295241D01*
X157512975Y-120289648D01*
X157508049Y-120289455D01*
X156119080Y-120289455D01*
X156103841Y-120293930D01*
X156102636Y-120295320D01*
X156100965Y-120303003D01*
X156100965Y-121325340D01*
X155592965Y-121325340D01*
X155592965Y-120307570D01*
X155588490Y-120292331D01*
X155587100Y-120291126D01*
X155579417Y-120289455D01*
X154592115Y-120289455D01*
X154576876Y-120293930D01*
X154575671Y-120295320D01*
X154574000Y-120303003D01*
X154574000Y-121325340D01*
X154066000Y-121325340D01*
X154066000Y-120324028D01*
X154062027Y-120310497D01*
X154053478Y-120309268D01*
X153926148Y-120343386D01*
X153913895Y-120348090D01*
X153755590Y-120428750D01*
X153744581Y-120435900D01*
X153661347Y-120503301D01*
X153595820Y-120530626D01*
X153525921Y-120518186D01*
X153473844Y-120469932D01*
X153459184Y-120433294D01*
X153444798Y-120369970D01*
X153441781Y-120360343D01*
X153406152Y-120272158D01*
X160998743Y-120272158D01*
X160999302Y-120276402D01*
X160999302Y-120276406D01*
X161003790Y-120310497D01*
X161036268Y-120557189D01*
X161037401Y-120561329D01*
X161037401Y-120561331D01*
X161040207Y-120571589D01*
X161112129Y-120834491D01*
X161113813Y-120838439D01*
X161203648Y-121049052D01*
X161224923Y-121098931D01*
X161295424Y-121216730D01*
X161370268Y-121341784D01*
X161372561Y-121345616D01*
X161552313Y-121569983D01*
X161760851Y-121767878D01*
X161994317Y-121935641D01*
X161998112Y-121937650D01*
X161998113Y-121937651D01*
X162019869Y-121949170D01*
X162248392Y-122070167D01*
X162518373Y-122168966D01*
X162799264Y-122230210D01*
X162827841Y-122232459D01*
X163022282Y-122247762D01*
X163022291Y-122247762D01*
X163024739Y-122247955D01*
X163180271Y-122247955D01*
X163182407Y-122247809D01*
X163182418Y-122247809D01*
X163390548Y-122233620D01*
X163390554Y-122233619D01*
X163394825Y-122233328D01*
X163399020Y-122232459D01*
X163399022Y-122232459D01*
X163535584Y-122204178D01*
X163676342Y-122175029D01*
X163947343Y-122079062D01*
X164202812Y-121947205D01*
X164206313Y-121944744D01*
X164206317Y-121944742D01*
X164336673Y-121853126D01*
X164438023Y-121781896D01*
X164648622Y-121586195D01*
X164830713Y-121363723D01*
X164980927Y-121118597D01*
X165096483Y-120855353D01*
X165175244Y-120578861D01*
X165208087Y-120348090D01*
X165215146Y-120298491D01*
X165215146Y-120298489D01*
X165215751Y-120294239D01*
X165215776Y-120289648D01*
X165217235Y-120011038D01*
X165217235Y-120011031D01*
X165217257Y-120006752D01*
X165210091Y-119952316D01*
X165200190Y-119877115D01*
X165179732Y-119721721D01*
X165103871Y-119444419D01*
X165046304Y-119309455D01*
X164992763Y-119183931D01*
X164992761Y-119183927D01*
X164991077Y-119179979D01*
X164875683Y-118987170D01*
X164845643Y-118936976D01*
X164845640Y-118936972D01*
X164843439Y-118933294D01*
X164663687Y-118708927D01*
X164501073Y-118554612D01*
X164458258Y-118513982D01*
X164458255Y-118513980D01*
X164455149Y-118511032D01*
X164221683Y-118343269D01*
X164199843Y-118331705D01*
X164176654Y-118319427D01*
X163967608Y-118208743D01*
X163697627Y-118109944D01*
X163416736Y-118048700D01*
X163385685Y-118046256D01*
X163193718Y-118031148D01*
X163193709Y-118031148D01*
X163191261Y-118030955D01*
X163035729Y-118030955D01*
X163033593Y-118031101D01*
X163033582Y-118031101D01*
X162825452Y-118045290D01*
X162825446Y-118045291D01*
X162821175Y-118045582D01*
X162816980Y-118046451D01*
X162816978Y-118046451D01*
X162680622Y-118074689D01*
X162539658Y-118103881D01*
X162268657Y-118199848D01*
X162264848Y-118201814D01*
X162066930Y-118303967D01*
X162013188Y-118331705D01*
X162009687Y-118334166D01*
X162009683Y-118334168D01*
X161999867Y-118341067D01*
X161777977Y-118497014D01*
X161762892Y-118511032D01*
X161594527Y-118667487D01*
X161567378Y-118692715D01*
X161385287Y-118915187D01*
X161235073Y-119160313D01*
X161233347Y-119164246D01*
X161233346Y-119164247D01*
X161174419Y-119298487D01*
X161119517Y-119423557D01*
X161040756Y-119700049D01*
X161010485Y-119912751D01*
X161007062Y-119936803D01*
X161000249Y-119984671D01*
X161000227Y-119988960D01*
X161000226Y-119988967D01*
X160998765Y-120267872D01*
X160998743Y-120272158D01*
X153406152Y-120272158D01*
X153354668Y-120144732D01*
X153350148Y-120135706D01*
X153229688Y-119936803D01*
X153223780Y-119928612D01*
X153073060Y-119751516D01*
X153065939Y-119744395D01*
X152888843Y-119593675D01*
X152880652Y-119587767D01*
X152681749Y-119467307D01*
X152672723Y-119462787D01*
X152457112Y-119375674D01*
X152447488Y-119372658D01*
X152220448Y-119321077D01*
X152211016Y-119319675D01*
X152070690Y-119309616D01*
X152066177Y-119309455D01*
X150272115Y-119309455D01*
X150256876Y-119313930D01*
X150255671Y-119315320D01*
X150254000Y-119323003D01*
X150254000Y-121545340D01*
X149746000Y-121545340D01*
X149746000Y-119327570D01*
X149741525Y-119312331D01*
X149740135Y-119311126D01*
X149732452Y-119309455D01*
X147933823Y-119309455D01*
X147929310Y-119309616D01*
X147788984Y-119319675D01*
X147779552Y-119321077D01*
X147552512Y-119372658D01*
X147542888Y-119375674D01*
X147327277Y-119462787D01*
X147318251Y-119467307D01*
X147119348Y-119587767D01*
X147111157Y-119593675D01*
X146934061Y-119744395D01*
X146926940Y-119751516D01*
X146776220Y-119928612D01*
X146770312Y-119936803D01*
X146649852Y-120135706D01*
X146645332Y-120144732D01*
X146558219Y-120360343D01*
X146555202Y-120369970D01*
X146540816Y-120433294D01*
X146506219Y-120495291D01*
X146443597Y-120528742D01*
X146372831Y-120523026D01*
X146338653Y-120503301D01*
X146255419Y-120435900D01*
X146244410Y-120428750D01*
X146086105Y-120348090D01*
X146073852Y-120343386D01*
X145951497Y-120310601D01*
X145937401Y-120310937D01*
X145934000Y-120318879D01*
X145934000Y-121325340D01*
X145426000Y-121325340D01*
X145426000Y-120307570D01*
X145421525Y-120292331D01*
X145420135Y-120291126D01*
X145412452Y-120289455D01*
X144425150Y-120289455D01*
X144409911Y-120293930D01*
X144408706Y-120295320D01*
X144407035Y-120303003D01*
X144407035Y-121325340D01*
X143899035Y-121325340D01*
X143899035Y-120307570D01*
X143894560Y-120292331D01*
X143893170Y-120291126D01*
X143885487Y-120289455D01*
X142491951Y-120289455D01*
X142487025Y-120289648D01*
X142415966Y-120295241D01*
X142404632Y-120297188D01*
X142232218Y-120343386D01*
X142219965Y-120348090D01*
X142061660Y-120428750D01*
X142050645Y-120435903D01*
X141912576Y-120547710D01*
X141903290Y-120556996D01*
X141791483Y-120695065D01*
X141784330Y-120706080D01*
X141703670Y-120864385D01*
X141698966Y-120876638D01*
X141652768Y-121049052D01*
X141650821Y-121060386D01*
X141645228Y-121131445D01*
X141645035Y-121136371D01*
X141645035Y-121325340D01*
X138638234Y-121325340D01*
X138764927Y-121118597D01*
X138880483Y-120855353D01*
X138959244Y-120578861D01*
X138992087Y-120348090D01*
X138999146Y-120298491D01*
X138999146Y-120298489D01*
X138999751Y-120294239D01*
X138999776Y-120289648D01*
X139001235Y-120011038D01*
X139001235Y-120011031D01*
X139001257Y-120006752D01*
X138994091Y-119952316D01*
X138984190Y-119877115D01*
X138963732Y-119721721D01*
X138887871Y-119444419D01*
X138830304Y-119309455D01*
X138776763Y-119183931D01*
X138776761Y-119183927D01*
X138775077Y-119179979D01*
X138659683Y-118987170D01*
X138629643Y-118936976D01*
X138629640Y-118936972D01*
X138627439Y-118933294D01*
X138447687Y-118708927D01*
X138285073Y-118554612D01*
X138242258Y-118513982D01*
X138242255Y-118513980D01*
X138239149Y-118511032D01*
X138005683Y-118343269D01*
X137983843Y-118331705D01*
X137960654Y-118319427D01*
X137751608Y-118208743D01*
X137481627Y-118109944D01*
X137212711Y-118051311D01*
X141645035Y-118051311D01*
X141645115Y-118054481D01*
X141646276Y-118063733D01*
X141684175Y-118251693D01*
X141687759Y-118263415D01*
X141760876Y-118439069D01*
X141766673Y-118449879D01*
X141872508Y-118607974D01*
X141880301Y-118617461D01*
X142014824Y-118751984D01*
X142024311Y-118759777D01*
X142182406Y-118865612D01*
X142193216Y-118871409D01*
X142368870Y-118944526D01*
X142380592Y-118948110D01*
X142568552Y-118986009D01*
X142577804Y-118987170D01*
X142580974Y-118987250D01*
X143880920Y-118987250D01*
X143896159Y-118982775D01*
X143897364Y-118981385D01*
X143899035Y-118973702D01*
X143899035Y-118969135D01*
X144407035Y-118969135D01*
X144411510Y-118984374D01*
X144412900Y-118985579D01*
X144420583Y-118987250D01*
X145407885Y-118987250D01*
X145423124Y-118982775D01*
X145424329Y-118981385D01*
X145426000Y-118973702D01*
X145426000Y-118969135D01*
X154574000Y-118969135D01*
X154578475Y-118984374D01*
X154579865Y-118985579D01*
X154587548Y-118987250D01*
X155574850Y-118987250D01*
X155590089Y-118982775D01*
X155591294Y-118981385D01*
X155592965Y-118973702D01*
X155592965Y-118969135D01*
X156100965Y-118969135D01*
X156105440Y-118984374D01*
X156106830Y-118985579D01*
X156114513Y-118987250D01*
X157419026Y-118987250D01*
X157422196Y-118987170D01*
X157431448Y-118986009D01*
X157619408Y-118948110D01*
X157631130Y-118944526D01*
X157806784Y-118871409D01*
X157817594Y-118865612D01*
X157975689Y-118759777D01*
X157985176Y-118751984D01*
X158119699Y-118617461D01*
X158127492Y-118607974D01*
X158233327Y-118449879D01*
X158239124Y-118439069D01*
X158312241Y-118263415D01*
X158315825Y-118251693D01*
X158353724Y-118063733D01*
X158354885Y-118054481D01*
X158354965Y-118051311D01*
X158354965Y-117701365D01*
X158350490Y-117686126D01*
X158349100Y-117684921D01*
X158341417Y-117683250D01*
X156119080Y-117683250D01*
X156103841Y-117687725D01*
X156102636Y-117689115D01*
X156100965Y-117696798D01*
X156100965Y-118969135D01*
X155592965Y-118969135D01*
X155592965Y-117701365D01*
X155588490Y-117686126D01*
X155587100Y-117684921D01*
X155579417Y-117683250D01*
X154592115Y-117683250D01*
X154576876Y-117687725D01*
X154575671Y-117689115D01*
X154574000Y-117696798D01*
X154574000Y-118969135D01*
X145426000Y-118969135D01*
X145426000Y-118927743D01*
X145934000Y-118927743D01*
X145937973Y-118941274D01*
X145943206Y-118942026D01*
X145947094Y-118940408D01*
X145959934Y-118935862D01*
X146053515Y-118908319D01*
X146064892Y-118903722D01*
X146229154Y-118817848D01*
X146239415Y-118811134D01*
X146383873Y-118694987D01*
X146392632Y-118686409D01*
X146437000Y-118633534D01*
X146496110Y-118594207D01*
X146567098Y-118593081D01*
X146610048Y-118614427D01*
X146675678Y-118664605D01*
X146743078Y-118696034D01*
X146833631Y-118738260D01*
X146833634Y-118738261D01*
X146839808Y-118741140D01*
X146846456Y-118742626D01*
X146846459Y-118742627D01*
X146952421Y-118766312D01*
X147016543Y-118780645D01*
X147022088Y-118780955D01*
X147155244Y-118780955D01*
X147290037Y-118766312D01*
X147408190Y-118726549D01*
X147455204Y-118710727D01*
X147455206Y-118710726D01*
X147461675Y-118708549D01*
X147616905Y-118615278D01*
X147621862Y-118610590D01*
X147621865Y-118610588D01*
X147743527Y-118495537D01*
X147743529Y-118495535D01*
X147748485Y-118490848D01*
X147752317Y-118485210D01*
X147752320Y-118485206D01*
X147846442Y-118346710D01*
X147850277Y-118341067D01*
X147917530Y-118172921D01*
X147918644Y-118166193D01*
X147918645Y-118166189D01*
X147945993Y-118000994D01*
X147945993Y-118000991D01*
X147947108Y-117994257D01*
X147942203Y-117900653D01*
X152052892Y-117900653D01*
X152053249Y-117907470D01*
X152053249Y-117907474D01*
X152059731Y-118031148D01*
X152062370Y-118081502D01*
X152064181Y-118088075D01*
X152064181Y-118088078D01*
X152097418Y-118208743D01*
X152110461Y-118256096D01*
X152194922Y-118416291D01*
X152199327Y-118421504D01*
X152199330Y-118421508D01*
X152307406Y-118549398D01*
X152307410Y-118549402D01*
X152311813Y-118554612D01*
X152317237Y-118558759D01*
X152317238Y-118558760D01*
X152450257Y-118660461D01*
X152450261Y-118660464D01*
X152455678Y-118664605D01*
X152523078Y-118696034D01*
X152613631Y-118738260D01*
X152613634Y-118738261D01*
X152619808Y-118741140D01*
X152626456Y-118742626D01*
X152626459Y-118742627D01*
X152732421Y-118766312D01*
X152796543Y-118780645D01*
X152802088Y-118780955D01*
X152935244Y-118780955D01*
X153070037Y-118766312D01*
X153188190Y-118726549D01*
X153235204Y-118710727D01*
X153235206Y-118710726D01*
X153241675Y-118708549D01*
X153393651Y-118617233D01*
X153393654Y-118617232D01*
X153396905Y-118615278D01*
X153397255Y-118615861D01*
X153458917Y-118592390D01*
X153528391Y-118607016D01*
X153566391Y-118638370D01*
X153597397Y-118676388D01*
X153606041Y-118685092D01*
X153748856Y-118803239D01*
X153759027Y-118810099D01*
X153922076Y-118898259D01*
X153933378Y-118903010D01*
X154043509Y-118937102D01*
X154048117Y-118938770D01*
X154063294Y-118940428D01*
X154066000Y-118935884D01*
X154066000Y-117701365D01*
X154061525Y-117686126D01*
X154060135Y-117684921D01*
X154052452Y-117683250D01*
X153768975Y-117683250D01*
X153700854Y-117663248D01*
X153657518Y-117616014D01*
X153588266Y-117484664D01*
X153588262Y-117484658D01*
X153585078Y-117478619D01*
X153580673Y-117473406D01*
X153580670Y-117473402D01*
X153566576Y-117456724D01*
X167039309Y-117456724D01*
X167040130Y-117463000D01*
X167040021Y-117463000D01*
X167040449Y-117467619D01*
X167040449Y-117467621D01*
X167056923Y-117645396D01*
X167057899Y-117655933D01*
X167059493Y-117661534D01*
X167059493Y-117661536D01*
X167074891Y-117715652D01*
X167110924Y-117842296D01*
X167197290Y-118015743D01*
X167314056Y-118170366D01*
X167457246Y-118300901D01*
X167462194Y-118303964D01*
X167462197Y-118303967D01*
X167511881Y-118334730D01*
X167621984Y-118402903D01*
X167627418Y-118405008D01*
X167797233Y-118470795D01*
X167797237Y-118470796D01*
X167802660Y-118472897D01*
X167993120Y-118508500D01*
X168186880Y-118508500D01*
X168377340Y-118472897D01*
X168382763Y-118470796D01*
X168382767Y-118470795D01*
X168552582Y-118405008D01*
X168558016Y-118402903D01*
X168668119Y-118334730D01*
X168717803Y-118303967D01*
X168717806Y-118303964D01*
X168722754Y-118300901D01*
X168865944Y-118170366D01*
X168982710Y-118015743D01*
X169069076Y-117842296D01*
X169105109Y-117715652D01*
X169120507Y-117661536D01*
X169120507Y-117661534D01*
X169122101Y-117655933D01*
X169136228Y-117503478D01*
X169137433Y-117494232D01*
X169138128Y-117490105D01*
X169140576Y-117475552D01*
X169140729Y-117463000D01*
X169136773Y-117435376D01*
X169135500Y-117417514D01*
X169135500Y-95053250D01*
X169137246Y-95032345D01*
X169139770Y-95017344D01*
X169139770Y-95017341D01*
X169140576Y-95012552D01*
X169140729Y-95000000D01*
X169139048Y-94988266D01*
X169138317Y-94982052D01*
X169122640Y-94812872D01*
X169122638Y-94812860D01*
X169122101Y-94807067D01*
X169069076Y-94620704D01*
X168982710Y-94447257D01*
X168865944Y-94292634D01*
X168722819Y-94162158D01*
X170962743Y-94162158D01*
X171000268Y-94447189D01*
X171076129Y-94724491D01*
X171083267Y-94741225D01*
X171183867Y-94977077D01*
X171188923Y-94988931D01*
X171336561Y-95235616D01*
X171516313Y-95459983D01*
X171724851Y-95657878D01*
X171958317Y-95825641D01*
X171962112Y-95827650D01*
X171962113Y-95827651D01*
X171983869Y-95839170D01*
X172212392Y-95960167D01*
X172482373Y-96058966D01*
X172763264Y-96120210D01*
X172791841Y-96122459D01*
X172986282Y-96137762D01*
X172986291Y-96137762D01*
X172988739Y-96137955D01*
X173144271Y-96137955D01*
X173146407Y-96137809D01*
X173146418Y-96137809D01*
X173354548Y-96123620D01*
X173354554Y-96123619D01*
X173358825Y-96123328D01*
X173363020Y-96122459D01*
X173363022Y-96122459D01*
X173499584Y-96094178D01*
X173640342Y-96065029D01*
X173911343Y-95969062D01*
X174166812Y-95837205D01*
X174170313Y-95834744D01*
X174170317Y-95834742D01*
X174284418Y-95754550D01*
X174402023Y-95671896D01*
X174612622Y-95476195D01*
X174794713Y-95253723D01*
X174944927Y-95008597D01*
X174953843Y-94988287D01*
X175058757Y-94749285D01*
X175060483Y-94745353D01*
X175139244Y-94468861D01*
X175179751Y-94184239D01*
X175179845Y-94166406D01*
X175179867Y-94162158D01*
X197178743Y-94162158D01*
X197216268Y-94447189D01*
X197292129Y-94724491D01*
X197299267Y-94741225D01*
X197399867Y-94977077D01*
X197404923Y-94988931D01*
X197552561Y-95235616D01*
X197732313Y-95459983D01*
X197940851Y-95657878D01*
X198174317Y-95825641D01*
X198178112Y-95827650D01*
X198178113Y-95827651D01*
X198199869Y-95839170D01*
X198428392Y-95960167D01*
X198698373Y-96058966D01*
X198979264Y-96120210D01*
X199007841Y-96122459D01*
X199202282Y-96137762D01*
X199202291Y-96137762D01*
X199204739Y-96137955D01*
X199360271Y-96137955D01*
X199362407Y-96137809D01*
X199362418Y-96137809D01*
X199570548Y-96123620D01*
X199570554Y-96123619D01*
X199574825Y-96123328D01*
X199579020Y-96122459D01*
X199579022Y-96122459D01*
X199715584Y-96094178D01*
X199856342Y-96065029D01*
X200127343Y-95969062D01*
X200382812Y-95837205D01*
X200386313Y-95834744D01*
X200386317Y-95834742D01*
X200500418Y-95754550D01*
X200618023Y-95671896D01*
X200828622Y-95476195D01*
X201010713Y-95253723D01*
X201160927Y-95008597D01*
X201169843Y-94988287D01*
X201274757Y-94749285D01*
X201276483Y-94745353D01*
X201355244Y-94468861D01*
X201395751Y-94184239D01*
X201395845Y-94166406D01*
X201397235Y-93901038D01*
X201397235Y-93901031D01*
X201397257Y-93896752D01*
X201359732Y-93611721D01*
X201283871Y-93334419D01*
X201171077Y-93069979D01*
X201037930Y-92847507D01*
X201025643Y-92826976D01*
X201025640Y-92826972D01*
X201023439Y-92823294D01*
X200843687Y-92598927D01*
X200658705Y-92423386D01*
X200638258Y-92403982D01*
X200638255Y-92403980D01*
X200635149Y-92401032D01*
X200401683Y-92233269D01*
X200379843Y-92221705D01*
X200356654Y-92209427D01*
X200147608Y-92098743D01*
X199877627Y-91999944D01*
X199596736Y-91938700D01*
X199565685Y-91936256D01*
X199373718Y-91921148D01*
X199373709Y-91921148D01*
X199371261Y-91920955D01*
X199215729Y-91920955D01*
X199213593Y-91921101D01*
X199213582Y-91921101D01*
X199005452Y-91935290D01*
X199005446Y-91935291D01*
X199001175Y-91935582D01*
X198996980Y-91936451D01*
X198996978Y-91936451D01*
X198895896Y-91957384D01*
X198719658Y-91993881D01*
X198448657Y-92089848D01*
X198193188Y-92221705D01*
X198189687Y-92224166D01*
X198189683Y-92224168D01*
X198179594Y-92231259D01*
X197957977Y-92387014D01*
X197942892Y-92401032D01*
X197832612Y-92503511D01*
X197747378Y-92582715D01*
X197565287Y-92805187D01*
X197415073Y-93050313D01*
X197299517Y-93313557D01*
X197220756Y-93590049D01*
X197180249Y-93874671D01*
X197180227Y-93878960D01*
X197180226Y-93878967D01*
X197178765Y-94157872D01*
X197178743Y-94162158D01*
X175179867Y-94162158D01*
X175181235Y-93901038D01*
X175181235Y-93901031D01*
X175181257Y-93896752D01*
X175143732Y-93611721D01*
X175067871Y-93334419D01*
X174955077Y-93069979D01*
X174821930Y-92847507D01*
X174809643Y-92826976D01*
X174809640Y-92826972D01*
X174807439Y-92823294D01*
X174627687Y-92598927D01*
X174442705Y-92423386D01*
X174422258Y-92403982D01*
X174422255Y-92403980D01*
X174419149Y-92401032D01*
X174185683Y-92233269D01*
X174163843Y-92221705D01*
X174140654Y-92209427D01*
X173931608Y-92098743D01*
X173661627Y-91999944D01*
X173380736Y-91938700D01*
X173349685Y-91936256D01*
X173157718Y-91921148D01*
X173157709Y-91921148D01*
X173155261Y-91920955D01*
X172999729Y-91920955D01*
X172997593Y-91921101D01*
X172997582Y-91921101D01*
X172789452Y-91935290D01*
X172789446Y-91935291D01*
X172785175Y-91935582D01*
X172780980Y-91936451D01*
X172780978Y-91936451D01*
X172679896Y-91957384D01*
X172503658Y-91993881D01*
X172232657Y-92089848D01*
X171977188Y-92221705D01*
X171973687Y-92224166D01*
X171973683Y-92224168D01*
X171963594Y-92231259D01*
X171741977Y-92387014D01*
X171726892Y-92401032D01*
X171616612Y-92503511D01*
X171531378Y-92582715D01*
X171349287Y-92805187D01*
X171199073Y-93050313D01*
X171083517Y-93313557D01*
X171004756Y-93590049D01*
X170964249Y-93874671D01*
X170964227Y-93878960D01*
X170964226Y-93878967D01*
X170962765Y-94157872D01*
X170962743Y-94162158D01*
X168722819Y-94162158D01*
X168722754Y-94162099D01*
X168717806Y-94159036D01*
X168717803Y-94159033D01*
X168631249Y-94105441D01*
X168558016Y-94060097D01*
X168511491Y-94042073D01*
X168382767Y-93992205D01*
X168382763Y-93992204D01*
X168377340Y-93990103D01*
X168186880Y-93954500D01*
X167993120Y-93954500D01*
X167802660Y-93990103D01*
X167797237Y-93992204D01*
X167797233Y-93992205D01*
X167668509Y-94042073D01*
X167621984Y-94060097D01*
X167548751Y-94105441D01*
X167462197Y-94159033D01*
X167462194Y-94159036D01*
X167457246Y-94162099D01*
X167314056Y-94292634D01*
X167197290Y-94447257D01*
X167110924Y-94620704D01*
X167057899Y-94807067D01*
X167043715Y-94960142D01*
X167042865Y-94969314D01*
X167041901Y-94977077D01*
X167039309Y-94993724D01*
X167040066Y-94999514D01*
X167040021Y-95000000D01*
X167040130Y-95000000D01*
X167041675Y-95011815D01*
X167043436Y-95025283D01*
X167044500Y-95041620D01*
X167044500Y-117413633D01*
X167043000Y-117433018D01*
X167040690Y-117447851D01*
X167040690Y-117447855D01*
X167039309Y-117456724D01*
X153566576Y-117456724D01*
X153503917Y-117382578D01*
X153475225Y-117317637D01*
X153486198Y-117247493D01*
X153533351Y-117194417D01*
X153600155Y-117175250D01*
X154047885Y-117175250D01*
X154063124Y-117170775D01*
X154064329Y-117169385D01*
X154066000Y-117161702D01*
X154066000Y-117145340D01*
X154574000Y-117145340D01*
X154578475Y-117160579D01*
X154579865Y-117161784D01*
X154587548Y-117163455D01*
X155315186Y-117163455D01*
X155341477Y-117171175D01*
X155342441Y-117166743D01*
X155381548Y-117175250D01*
X155574850Y-117175250D01*
X155590089Y-117170775D01*
X155591294Y-117169385D01*
X155592965Y-117161702D01*
X155592965Y-117157135D01*
X156100965Y-117157135D01*
X156105440Y-117172374D01*
X156106830Y-117173579D01*
X156114513Y-117175250D01*
X158336850Y-117175250D01*
X158352089Y-117170775D01*
X158353294Y-117169385D01*
X158354965Y-117161702D01*
X158354965Y-116807189D01*
X158354885Y-116804019D01*
X158353724Y-116794767D01*
X158315825Y-116606807D01*
X158312241Y-116595085D01*
X158239124Y-116419431D01*
X158233327Y-116408621D01*
X158127492Y-116250526D01*
X158119699Y-116241039D01*
X157985176Y-116106516D01*
X157975689Y-116098723D01*
X157817594Y-115992888D01*
X157806784Y-115987091D01*
X157631130Y-115913974D01*
X157619408Y-115910390D01*
X157431448Y-115872491D01*
X157422196Y-115871330D01*
X157419026Y-115871250D01*
X156119080Y-115871250D01*
X156103841Y-115875725D01*
X156102636Y-115877115D01*
X156100965Y-115884798D01*
X156100965Y-117157135D01*
X155592965Y-117157135D01*
X155592965Y-115889365D01*
X155588490Y-115874126D01*
X155587100Y-115872921D01*
X155579417Y-115871250D01*
X154592115Y-115871250D01*
X154576876Y-115875725D01*
X154575671Y-115877115D01*
X154574000Y-115884798D01*
X154574000Y-117145340D01*
X154066000Y-117145340D01*
X154066000Y-115909531D01*
X154062027Y-115896000D01*
X154054232Y-115894880D01*
X153946479Y-115926593D01*
X153935111Y-115931186D01*
X153770846Y-116017062D01*
X153760585Y-116023776D01*
X153616127Y-116139923D01*
X153607368Y-116148501D01*
X153488222Y-116290494D01*
X153481292Y-116300614D01*
X153391998Y-116463040D01*
X153387166Y-116474313D01*
X153331120Y-116650993D01*
X153328570Y-116662987D01*
X153312393Y-116807216D01*
X153312000Y-116814240D01*
X153312000Y-117030429D01*
X153291998Y-117098550D01*
X153238342Y-117145043D01*
X153168068Y-117155147D01*
X153158514Y-117153394D01*
X152988506Y-117115393D01*
X152988499Y-117115392D01*
X152983457Y-117114265D01*
X152977912Y-117113955D01*
X152844756Y-117113955D01*
X152709963Y-117128598D01*
X152596618Y-117166743D01*
X152544796Y-117184183D01*
X152544794Y-117184184D01*
X152538325Y-117186361D01*
X152383095Y-117279632D01*
X152378138Y-117284320D01*
X152378135Y-117284322D01*
X152272981Y-117383762D01*
X152251515Y-117404062D01*
X152247683Y-117409700D01*
X152247680Y-117409704D01*
X152183929Y-117503511D01*
X152149723Y-117553843D01*
X152082470Y-117721989D01*
X152081356Y-117728717D01*
X152081355Y-117728721D01*
X152063480Y-117836696D01*
X152052892Y-117900653D01*
X147942203Y-117900653D01*
X147937987Y-117820221D01*
X147937630Y-117813408D01*
X147914304Y-117728721D01*
X147891352Y-117645396D01*
X147889539Y-117638814D01*
X147805078Y-117478619D01*
X147800673Y-117473406D01*
X147800670Y-117473402D01*
X147692594Y-117345512D01*
X147692590Y-117345508D01*
X147688187Y-117340298D01*
X147682762Y-117336150D01*
X147549743Y-117234449D01*
X147549739Y-117234446D01*
X147544322Y-117230305D01*
X147422673Y-117173579D01*
X147386369Y-117156650D01*
X147386366Y-117156649D01*
X147380192Y-117153770D01*
X147373544Y-117152284D01*
X147373541Y-117152283D01*
X147208494Y-117115391D01*
X147208495Y-117115391D01*
X147203457Y-117114265D01*
X147197912Y-117113955D01*
X147064756Y-117113955D01*
X146929963Y-117128598D01*
X146923499Y-117130773D01*
X146923496Y-117130774D01*
X146866645Y-117149907D01*
X146855167Y-117153770D01*
X146854189Y-117154099D01*
X146783247Y-117156869D01*
X146722068Y-117120846D01*
X146690077Y-117057465D01*
X146688000Y-117034680D01*
X146688000Y-116820798D01*
X146687699Y-116814650D01*
X146674188Y-116676852D01*
X146671805Y-116664817D01*
X146618233Y-116487379D01*
X146613559Y-116476039D01*
X146526540Y-116312378D01*
X146519751Y-116302161D01*
X146402603Y-116158522D01*
X146393959Y-116149818D01*
X146251144Y-116031671D01*
X146240973Y-116024811D01*
X146077924Y-115936651D01*
X146066619Y-115931899D01*
X145951308Y-115896205D01*
X145937205Y-115895999D01*
X145934000Y-115902754D01*
X145934000Y-117157135D01*
X145938475Y-117172374D01*
X145939865Y-117173579D01*
X145947548Y-117175250D01*
X146396853Y-117175250D01*
X146464974Y-117195252D01*
X146511467Y-117248908D01*
X146521571Y-117319182D01*
X146492077Y-117383762D01*
X146483427Y-117392797D01*
X146471515Y-117404062D01*
X146467683Y-117409700D01*
X146467680Y-117409704D01*
X146403929Y-117503511D01*
X146369723Y-117553843D01*
X146349995Y-117603167D01*
X146349645Y-117604042D01*
X146305776Y-117659863D01*
X146232656Y-117683250D01*
X145952115Y-117683250D01*
X145936876Y-117687725D01*
X145935671Y-117689115D01*
X145934000Y-117696798D01*
X145934000Y-118927743D01*
X145426000Y-118927743D01*
X145426000Y-117701365D01*
X145421525Y-117686126D01*
X145420135Y-117684921D01*
X145412452Y-117683250D01*
X144425150Y-117683250D01*
X144409911Y-117687725D01*
X144408706Y-117689115D01*
X144407035Y-117696798D01*
X144407035Y-118969135D01*
X143899035Y-118969135D01*
X143899035Y-117701365D01*
X143894560Y-117686126D01*
X143893170Y-117684921D01*
X143885487Y-117683250D01*
X141663150Y-117683250D01*
X141647911Y-117687725D01*
X141646706Y-117689115D01*
X141645035Y-117696798D01*
X141645035Y-118051311D01*
X137212711Y-118051311D01*
X137200736Y-118048700D01*
X137169685Y-118046256D01*
X136977718Y-118031148D01*
X136977709Y-118031148D01*
X136975261Y-118030955D01*
X136819729Y-118030955D01*
X136817593Y-118031101D01*
X136817582Y-118031101D01*
X136609452Y-118045290D01*
X136609446Y-118045291D01*
X136605175Y-118045582D01*
X136600980Y-118046451D01*
X136600978Y-118046451D01*
X136464622Y-118074689D01*
X136323658Y-118103881D01*
X136052657Y-118199848D01*
X136048848Y-118201814D01*
X135850930Y-118303967D01*
X135797188Y-118331705D01*
X135793687Y-118334166D01*
X135793683Y-118334168D01*
X135783867Y-118341067D01*
X135561977Y-118497014D01*
X135546892Y-118511032D01*
X135378527Y-118667487D01*
X135351378Y-118692715D01*
X135169287Y-118915187D01*
X135019073Y-119160313D01*
X135017347Y-119164246D01*
X135017346Y-119164247D01*
X134958419Y-119298487D01*
X134903517Y-119423557D01*
X134824756Y-119700049D01*
X134794485Y-119912751D01*
X134791062Y-119936803D01*
X134784249Y-119984671D01*
X134784227Y-119988960D01*
X134784226Y-119988967D01*
X134782765Y-120267872D01*
X134782743Y-120272158D01*
X132961680Y-120272158D01*
X132957533Y-120182445D01*
X132958899Y-120157243D01*
X132959309Y-120154610D01*
X132959309Y-120154609D01*
X132960691Y-120145735D01*
X132959527Y-120136832D01*
X132959527Y-120136825D01*
X132956564Y-120114165D01*
X132955500Y-120097829D01*
X132955500Y-117157135D01*
X141645035Y-117157135D01*
X141649510Y-117172374D01*
X141650900Y-117173579D01*
X141658583Y-117175250D01*
X143880920Y-117175250D01*
X143896159Y-117170775D01*
X143897364Y-117169385D01*
X143899035Y-117161702D01*
X143899035Y-117157135D01*
X144407035Y-117157135D01*
X144411510Y-117172374D01*
X144412900Y-117173579D01*
X144420583Y-117175250D01*
X144613885Y-117175250D01*
X144636672Y-117168559D01*
X144672170Y-117163455D01*
X145407885Y-117163455D01*
X145423124Y-117158980D01*
X145424329Y-117157590D01*
X145426000Y-117149907D01*
X145426000Y-115889365D01*
X145421525Y-115874126D01*
X145420135Y-115872921D01*
X145412452Y-115871250D01*
X144425150Y-115871250D01*
X144409911Y-115875725D01*
X144408706Y-115877115D01*
X144407035Y-115884798D01*
X144407035Y-117157135D01*
X143899035Y-117157135D01*
X143899035Y-115889365D01*
X143894560Y-115874126D01*
X143893170Y-115872921D01*
X143885487Y-115871250D01*
X142580974Y-115871250D01*
X142577804Y-115871330D01*
X142568552Y-115872491D01*
X142380592Y-115910390D01*
X142368870Y-115913974D01*
X142193216Y-115987091D01*
X142182406Y-115992888D01*
X142024311Y-116098723D01*
X142014824Y-116106516D01*
X141880301Y-116241039D01*
X141872508Y-116250526D01*
X141766673Y-116408621D01*
X141760876Y-116419431D01*
X141687759Y-116595085D01*
X141684175Y-116606807D01*
X141646276Y-116794767D01*
X141645115Y-116804019D01*
X141645035Y-116807189D01*
X141645035Y-117157135D01*
X132955500Y-117157135D01*
X132955500Y-102000000D01*
X137236496Y-102000000D01*
X137237186Y-102006565D01*
X137247198Y-102101820D01*
X137256458Y-102189928D01*
X137315473Y-102371556D01*
X137410960Y-102536944D01*
X137415378Y-102541851D01*
X137415379Y-102541852D01*
X137503713Y-102639957D01*
X137538747Y-102678866D01*
X137693248Y-102791118D01*
X137699276Y-102793802D01*
X137699278Y-102793803D01*
X137730404Y-102807661D01*
X137867712Y-102868794D01*
X137961112Y-102888647D01*
X138048056Y-102907128D01*
X138048061Y-102907128D01*
X138054513Y-102908500D01*
X138245487Y-102908500D01*
X138251939Y-102907128D01*
X138251944Y-102907128D01*
X138338887Y-102888647D01*
X138432288Y-102868794D01*
X138569596Y-102807661D01*
X138600722Y-102793803D01*
X138600724Y-102793802D01*
X138606752Y-102791118D01*
X138761253Y-102678866D01*
X138796287Y-102639957D01*
X138884621Y-102541852D01*
X138884622Y-102541851D01*
X138889040Y-102536944D01*
X138984527Y-102371556D01*
X139043542Y-102189928D01*
X139060907Y-102024706D01*
X139087920Y-101959050D01*
X139097122Y-101948782D01*
X143545904Y-97500000D01*
X144876502Y-97500000D01*
X144896457Y-97728087D01*
X144897881Y-97733400D01*
X144897881Y-97733402D01*
X144907031Y-97767548D01*
X144955716Y-97949243D01*
X144958039Y-97954224D01*
X144958039Y-97954225D01*
X145050151Y-98151762D01*
X145050154Y-98151767D01*
X145052477Y-98156749D01*
X145183802Y-98344300D01*
X145345700Y-98506198D01*
X145350208Y-98509355D01*
X145350211Y-98509357D01*
X145391195Y-98538054D01*
X145533251Y-98637523D01*
X145538233Y-98639846D01*
X145538238Y-98639849D01*
X145735775Y-98731961D01*
X145740757Y-98734284D01*
X145746065Y-98735706D01*
X145746067Y-98735707D01*
X145956598Y-98792119D01*
X145956600Y-98792119D01*
X145961913Y-98793543D01*
X146190000Y-98813498D01*
X146418087Y-98793543D01*
X146423400Y-98792119D01*
X146423402Y-98792119D01*
X146633933Y-98735707D01*
X146633935Y-98735706D01*
X146639243Y-98734284D01*
X146644225Y-98731961D01*
X146841762Y-98639849D01*
X146841767Y-98639846D01*
X146846749Y-98637523D01*
X146988805Y-98538054D01*
X147029789Y-98509357D01*
X147029792Y-98509355D01*
X147034300Y-98506198D01*
X147196198Y-98344300D01*
X147327523Y-98156749D01*
X147329846Y-98151767D01*
X147329849Y-98151762D01*
X147421961Y-97954225D01*
X147421961Y-97954224D01*
X147424284Y-97949243D01*
X147472970Y-97767548D01*
X147482119Y-97733402D01*
X147482119Y-97733400D01*
X147483543Y-97728087D01*
X147503498Y-97500000D01*
X147483543Y-97271913D01*
X147475028Y-97240135D01*
X147425707Y-97056067D01*
X147425706Y-97056065D01*
X147424284Y-97050757D01*
X147343318Y-96877123D01*
X147329849Y-96848238D01*
X147329846Y-96848233D01*
X147327523Y-96843251D01*
X147196198Y-96655700D01*
X147034300Y-96493802D01*
X147029792Y-96490645D01*
X147029789Y-96490643D01*
X146879816Y-96385631D01*
X146846749Y-96362477D01*
X146841767Y-96360154D01*
X146841762Y-96360151D01*
X146644225Y-96268039D01*
X146644224Y-96268039D01*
X146639243Y-96265716D01*
X146633935Y-96264294D01*
X146633933Y-96264293D01*
X146423402Y-96207881D01*
X146423400Y-96207881D01*
X146418087Y-96206457D01*
X146190000Y-96186502D01*
X145961913Y-96206457D01*
X145956600Y-96207881D01*
X145956598Y-96207881D01*
X145746067Y-96264293D01*
X145746065Y-96264294D01*
X145740757Y-96265716D01*
X145735776Y-96268039D01*
X145735775Y-96268039D01*
X145538238Y-96360151D01*
X145538233Y-96360154D01*
X145533251Y-96362477D01*
X145500184Y-96385631D01*
X145350211Y-96490643D01*
X145350208Y-96490645D01*
X145345700Y-96493802D01*
X145183802Y-96655700D01*
X145052477Y-96843251D01*
X145050154Y-96848233D01*
X145050151Y-96848238D01*
X145036682Y-96877123D01*
X144955716Y-97050757D01*
X144954294Y-97056065D01*
X144954293Y-97056067D01*
X144904972Y-97240135D01*
X144896457Y-97271913D01*
X144876502Y-97500000D01*
X143545904Y-97500000D01*
X144168781Y-96877123D01*
X144177071Y-96869579D01*
X144183552Y-96865466D01*
X144230193Y-96815798D01*
X144232947Y-96812957D01*
X144252669Y-96793235D01*
X144255153Y-96790033D01*
X144262851Y-96781021D01*
X144287695Y-96754564D01*
X144293120Y-96748787D01*
X144302881Y-96731032D01*
X144313732Y-96714513D01*
X144326148Y-96698507D01*
X144343708Y-96657929D01*
X144348925Y-96647279D01*
X144370229Y-96608526D01*
X144375267Y-96588903D01*
X144381671Y-96570200D01*
X144386567Y-96558886D01*
X144386567Y-96558885D01*
X144389715Y-96551611D01*
X144390954Y-96543788D01*
X144390957Y-96543778D01*
X144396633Y-96507942D01*
X144399039Y-96496322D01*
X144408062Y-96461177D01*
X144408062Y-96461176D01*
X144410034Y-96453496D01*
X144410034Y-96433242D01*
X144411585Y-96413531D01*
X144413514Y-96401352D01*
X144414754Y-96393523D01*
X144410593Y-96349504D01*
X144410034Y-96337647D01*
X144410034Y-91542546D01*
X144430036Y-91474425D01*
X144483692Y-91427932D01*
X144536034Y-91416546D01*
X145498134Y-91416546D01*
X145560316Y-91409791D01*
X145696705Y-91358661D01*
X145813261Y-91271307D01*
X145899174Y-91156674D01*
X145956033Y-91114159D01*
X146026852Y-91109133D01*
X146089145Y-91143193D01*
X146100826Y-91156674D01*
X146186739Y-91271307D01*
X146303295Y-91358661D01*
X146439684Y-91409791D01*
X146501866Y-91416546D01*
X147498134Y-91416546D01*
X147560316Y-91409791D01*
X147696705Y-91358661D01*
X147813261Y-91271307D01*
X147899174Y-91156674D01*
X147956033Y-91114159D01*
X148026852Y-91109133D01*
X148089145Y-91143193D01*
X148100826Y-91156674D01*
X148186739Y-91271307D01*
X148303295Y-91358661D01*
X148439684Y-91409791D01*
X148501866Y-91416546D01*
X149498134Y-91416546D01*
X149560316Y-91409791D01*
X149696705Y-91358661D01*
X149813261Y-91271307D01*
X149899174Y-91156674D01*
X149956033Y-91114159D01*
X150026852Y-91109133D01*
X150089145Y-91143193D01*
X150100826Y-91156674D01*
X150186739Y-91271307D01*
X150303295Y-91358661D01*
X150439684Y-91409791D01*
X150501866Y-91416546D01*
X151498134Y-91416546D01*
X151560316Y-91409791D01*
X151696705Y-91358661D01*
X151813261Y-91271307D01*
X151899174Y-91156674D01*
X151956033Y-91114159D01*
X152026852Y-91109133D01*
X152089145Y-91143193D01*
X152100826Y-91156674D01*
X152186739Y-91271307D01*
X152303295Y-91358661D01*
X152439684Y-91409791D01*
X152501866Y-91416546D01*
X153498134Y-91416546D01*
X153560316Y-91409791D01*
X153696705Y-91358661D01*
X153813261Y-91271307D01*
X153899174Y-91156674D01*
X153956033Y-91114159D01*
X154026852Y-91109133D01*
X154089145Y-91143193D01*
X154100826Y-91156674D01*
X154186739Y-91271307D01*
X154303295Y-91358661D01*
X154439684Y-91409791D01*
X154501866Y-91416546D01*
X154843359Y-91416546D01*
X154911480Y-91436548D01*
X154957973Y-91490204D01*
X154968077Y-91560478D01*
X154938583Y-91625058D01*
X154932454Y-91631641D01*
X154854500Y-91709595D01*
X154792188Y-91743621D01*
X154765405Y-91746500D01*
X152618768Y-91746500D01*
X152607585Y-91745973D01*
X152600092Y-91744298D01*
X152592166Y-91744547D01*
X152592165Y-91744547D01*
X152532002Y-91746438D01*
X152528044Y-91746500D01*
X152500144Y-91746500D01*
X152496154Y-91747004D01*
X152484320Y-91747936D01*
X152440111Y-91749326D01*
X152432495Y-91751539D01*
X152432493Y-91751539D01*
X152420652Y-91754979D01*
X152401293Y-91758988D01*
X152399983Y-91759154D01*
X152381203Y-91761526D01*
X152373837Y-91764442D01*
X152373831Y-91764444D01*
X152340098Y-91777800D01*
X152328868Y-91781645D01*
X152294017Y-91791770D01*
X152286407Y-91793981D01*
X152279584Y-91798016D01*
X152268966Y-91804295D01*
X152251213Y-91812992D01*
X152243568Y-91816019D01*
X152232383Y-91820448D01*
X152225968Y-91825109D01*
X152196612Y-91846437D01*
X152186695Y-91852951D01*
X152148638Y-91875458D01*
X152134317Y-91889779D01*
X152119284Y-91902619D01*
X152102893Y-91914528D01*
X152085717Y-91935290D01*
X152074702Y-91948605D01*
X152066712Y-91957384D01*
X149517747Y-94506348D01*
X149509461Y-94513888D01*
X149502982Y-94518000D01*
X149497557Y-94523777D01*
X149456357Y-94567651D01*
X149453602Y-94570493D01*
X149433865Y-94590230D01*
X149431385Y-94593427D01*
X149423682Y-94602447D01*
X149393414Y-94634679D01*
X149389595Y-94641625D01*
X149389593Y-94641628D01*
X149383652Y-94652434D01*
X149372801Y-94668953D01*
X149360386Y-94684959D01*
X149357241Y-94692228D01*
X149357238Y-94692232D01*
X149342826Y-94725537D01*
X149337609Y-94736187D01*
X149316305Y-94774940D01*
X149314334Y-94782615D01*
X149314334Y-94782616D01*
X149311267Y-94794562D01*
X149304863Y-94813266D01*
X149296819Y-94831855D01*
X149295580Y-94839678D01*
X149295577Y-94839688D01*
X149289901Y-94875524D01*
X149287495Y-94887144D01*
X149276500Y-94929970D01*
X149276500Y-94950224D01*
X149274949Y-94969934D01*
X149271780Y-94989943D01*
X149272526Y-94997835D01*
X149275941Y-95033961D01*
X149276500Y-95045819D01*
X149276500Y-106444931D01*
X149256498Y-106513052D01*
X149244142Y-106529234D01*
X149170960Y-106610511D01*
X149075473Y-106775899D01*
X149016458Y-106957527D01*
X149015768Y-106964088D01*
X149015768Y-106964090D01*
X149005948Y-107057527D01*
X148996496Y-107147455D01*
X149016458Y-107337383D01*
X149075473Y-107519011D01*
X149170960Y-107684399D01*
X149298747Y-107826321D01*
X149392197Y-107894217D01*
X149436385Y-107926321D01*
X149453248Y-107938573D01*
X149459276Y-107941257D01*
X149459278Y-107941258D01*
X149621681Y-108013564D01*
X149627712Y-108016249D01*
X149714479Y-108034692D01*
X149808056Y-108054583D01*
X149808061Y-108054583D01*
X149814513Y-108055955D01*
X150005487Y-108055955D01*
X150011939Y-108054583D01*
X150011944Y-108054583D01*
X150105521Y-108034692D01*
X150192288Y-108016249D01*
X150198319Y-108013564D01*
X150360722Y-107941258D01*
X150360724Y-107941257D01*
X150366752Y-107938573D01*
X150383616Y-107926321D01*
X150394965Y-107918075D01*
X150461833Y-107894217D01*
X150530984Y-107910297D01*
X150550376Y-107924245D01*
X150552245Y-107926321D01*
X150706746Y-108038573D01*
X150712774Y-108041257D01*
X150712776Y-108041258D01*
X150875179Y-108113564D01*
X150881210Y-108116249D01*
X150974611Y-108136102D01*
X151061554Y-108154583D01*
X151061559Y-108154583D01*
X151068011Y-108155955D01*
X151258985Y-108155955D01*
X151265437Y-108154583D01*
X151265442Y-108154583D01*
X151352386Y-108136102D01*
X151445786Y-108116249D01*
X151451817Y-108113564D01*
X151614220Y-108041258D01*
X151614222Y-108041257D01*
X151620250Y-108038573D01*
X151774751Y-107926321D01*
X151803658Y-107894217D01*
X151898119Y-107789307D01*
X151898120Y-107789306D01*
X151902538Y-107784399D01*
X151998025Y-107619011D01*
X152057040Y-107437383D01*
X152066891Y-107343661D01*
X152076312Y-107254020D01*
X152077002Y-107247455D01*
X152057040Y-107057527D01*
X151998025Y-106875899D01*
X151902538Y-106710511D01*
X151829361Y-106629240D01*
X151798645Y-106565234D01*
X151796998Y-106544931D01*
X151796998Y-98344669D01*
X152502001Y-98344669D01*
X152502371Y-98351490D01*
X152507895Y-98402352D01*
X152511521Y-98417604D01*
X152556676Y-98538054D01*
X152565214Y-98553649D01*
X152641715Y-98655724D01*
X152654276Y-98668285D01*
X152756351Y-98744786D01*
X152771946Y-98753324D01*
X152892394Y-98798478D01*
X152907649Y-98802105D01*
X152958514Y-98807631D01*
X152965328Y-98808000D01*
X153537885Y-98808000D01*
X153553124Y-98803525D01*
X153554329Y-98802135D01*
X153556000Y-98794452D01*
X153556000Y-98789884D01*
X154064000Y-98789884D01*
X154068475Y-98805123D01*
X154069865Y-98806328D01*
X154077548Y-98807999D01*
X154654669Y-98807999D01*
X154661490Y-98807629D01*
X154712352Y-98802105D01*
X154727604Y-98798479D01*
X154848054Y-98753324D01*
X154863649Y-98744786D01*
X154965724Y-98668285D01*
X154978285Y-98655724D01*
X155054786Y-98553649D01*
X155063324Y-98538054D01*
X155108478Y-98417606D01*
X155112105Y-98402351D01*
X155117631Y-98351486D01*
X155118000Y-98344672D01*
X155118000Y-97772115D01*
X155113525Y-97756876D01*
X155112135Y-97755671D01*
X155104452Y-97754000D01*
X154082115Y-97754000D01*
X154066876Y-97758475D01*
X154065671Y-97759865D01*
X154064000Y-97767548D01*
X154064000Y-98789884D01*
X153556000Y-98789884D01*
X153556000Y-97772115D01*
X153551525Y-97756876D01*
X153550135Y-97755671D01*
X153542452Y-97754000D01*
X152520116Y-97754000D01*
X152504877Y-97758475D01*
X152503672Y-97759865D01*
X152502001Y-97767548D01*
X152502001Y-98344669D01*
X151796998Y-98344669D01*
X151796998Y-97227885D01*
X152502000Y-97227885D01*
X152506475Y-97243124D01*
X152507865Y-97244329D01*
X152515548Y-97246000D01*
X153537885Y-97246000D01*
X153553124Y-97241525D01*
X153554329Y-97240135D01*
X153556000Y-97232452D01*
X153556000Y-97227885D01*
X154064000Y-97227885D01*
X154068475Y-97243124D01*
X154069865Y-97244329D01*
X154077548Y-97246000D01*
X155099884Y-97246000D01*
X155115123Y-97241525D01*
X155116328Y-97240135D01*
X155117999Y-97232452D01*
X155117999Y-96655331D01*
X155117629Y-96648510D01*
X155112105Y-96597648D01*
X155108479Y-96582396D01*
X155063324Y-96461946D01*
X155054786Y-96446351D01*
X154978285Y-96344276D01*
X154965724Y-96331715D01*
X154863649Y-96255214D01*
X154848054Y-96246676D01*
X154727606Y-96201522D01*
X154712351Y-96197895D01*
X154661486Y-96192369D01*
X154654672Y-96192000D01*
X154082115Y-96192000D01*
X154066876Y-96196475D01*
X154065671Y-96197865D01*
X154064000Y-96205548D01*
X154064000Y-97227885D01*
X153556000Y-97227885D01*
X153556000Y-96210116D01*
X153551525Y-96194877D01*
X153550135Y-96193672D01*
X153542452Y-96192001D01*
X152965331Y-96192001D01*
X152958510Y-96192371D01*
X152907648Y-96197895D01*
X152892396Y-96201521D01*
X152771946Y-96246676D01*
X152756351Y-96255214D01*
X152654276Y-96331715D01*
X152641715Y-96344276D01*
X152565214Y-96446351D01*
X152556676Y-96461946D01*
X152511522Y-96582394D01*
X152507895Y-96597649D01*
X152502369Y-96648514D01*
X152502000Y-96655328D01*
X152502000Y-97227885D01*
X151796998Y-97227885D01*
X151796998Y-94707492D01*
X151817000Y-94639371D01*
X151833903Y-94618397D01*
X152875915Y-93576385D01*
X152938227Y-93542359D01*
X152965010Y-93539480D01*
X155111649Y-93539480D01*
X155122832Y-93540007D01*
X155130325Y-93541682D01*
X155138251Y-93541433D01*
X155138252Y-93541433D01*
X155198402Y-93539542D01*
X155202361Y-93539480D01*
X155230272Y-93539480D01*
X155234207Y-93538983D01*
X155234272Y-93538975D01*
X155246109Y-93538042D01*
X155278367Y-93537028D01*
X155282386Y-93536902D01*
X155290305Y-93536653D01*
X155309759Y-93531001D01*
X155329116Y-93526993D01*
X155341346Y-93525448D01*
X155341347Y-93525448D01*
X155349213Y-93524454D01*
X155356584Y-93521535D01*
X155356586Y-93521535D01*
X155390328Y-93508176D01*
X155401558Y-93504331D01*
X155436399Y-93494209D01*
X155436400Y-93494209D01*
X155444009Y-93491998D01*
X155450828Y-93487965D01*
X155450833Y-93487963D01*
X155461444Y-93481687D01*
X155479192Y-93472992D01*
X155498033Y-93465532D01*
X155533803Y-93439544D01*
X155543723Y-93433028D01*
X155574951Y-93414560D01*
X155574954Y-93414558D01*
X155581778Y-93410522D01*
X155596099Y-93396201D01*
X155611133Y-93383360D01*
X155621110Y-93376111D01*
X155627523Y-93371452D01*
X155655714Y-93337375D01*
X155663704Y-93328596D01*
X156270885Y-92721415D01*
X156333197Y-92687389D01*
X156404012Y-92692454D01*
X156460848Y-92735001D01*
X156485659Y-92801521D01*
X156485980Y-92810510D01*
X156485980Y-101143630D01*
X156465978Y-101211751D01*
X156453622Y-101227933D01*
X156380440Y-101309210D01*
X156284953Y-101474598D01*
X156225938Y-101656226D01*
X156205976Y-101846154D01*
X156216890Y-101949992D01*
X156204118Y-102019828D01*
X156155616Y-102071675D01*
X156086783Y-102089070D01*
X156019474Y-102066489D01*
X155999974Y-102049625D01*
X155995472Y-102043429D01*
X155961406Y-102015247D01*
X155952627Y-102007258D01*
X155047122Y-101101753D01*
X155013096Y-101039441D01*
X155010907Y-101025828D01*
X154994232Y-100867171D01*
X154994232Y-100867169D01*
X154993542Y-100860608D01*
X154934527Y-100678980D01*
X154839040Y-100513592D01*
X154711253Y-100371670D01*
X154556752Y-100259418D01*
X154550724Y-100256734D01*
X154550722Y-100256733D01*
X154388319Y-100184427D01*
X154388318Y-100184427D01*
X154382288Y-100181742D01*
X154288887Y-100161889D01*
X154201944Y-100143408D01*
X154201939Y-100143408D01*
X154195487Y-100142036D01*
X154004513Y-100142036D01*
X153998061Y-100143408D01*
X153998056Y-100143408D01*
X153911113Y-100161889D01*
X153817712Y-100181742D01*
X153811682Y-100184427D01*
X153811681Y-100184427D01*
X153649278Y-100256733D01*
X153649276Y-100256734D01*
X153643248Y-100259418D01*
X153488747Y-100371670D01*
X153360960Y-100513592D01*
X153265473Y-100678980D01*
X153206458Y-100860608D01*
X153186496Y-101050536D01*
X153187186Y-101057101D01*
X153203547Y-101212763D01*
X153206458Y-101240464D01*
X153265473Y-101422092D01*
X153360960Y-101587480D01*
X153488747Y-101729402D01*
X153643248Y-101841654D01*
X153649276Y-101844338D01*
X153649278Y-101844339D01*
X153794410Y-101908956D01*
X153848506Y-101954936D01*
X153869155Y-102022864D01*
X153849803Y-102091172D01*
X153794409Y-102139170D01*
X153649281Y-102203784D01*
X153649274Y-102203788D01*
X153643248Y-102206471D01*
X153488747Y-102318723D01*
X153484326Y-102323633D01*
X153484325Y-102323634D01*
X153378937Y-102440680D01*
X153360960Y-102460645D01*
X153265473Y-102626033D01*
X153206458Y-102807661D01*
X153205768Y-102814222D01*
X153205768Y-102814224D01*
X153187186Y-102991024D01*
X153186496Y-102997589D01*
X153206458Y-103187517D01*
X153265473Y-103369145D01*
X153360960Y-103534533D01*
X153488747Y-103676455D01*
X153643248Y-103788707D01*
X153649276Y-103791391D01*
X153649278Y-103791392D01*
X153811681Y-103863698D01*
X153817712Y-103866383D01*
X153911112Y-103886236D01*
X153998056Y-103904717D01*
X153998061Y-103904717D01*
X154004513Y-103906089D01*
X154060406Y-103906089D01*
X154128527Y-103926091D01*
X154149501Y-103942994D01*
X154409595Y-104203088D01*
X154443621Y-104265400D01*
X154446500Y-104292183D01*
X154446500Y-110172860D01*
X154426498Y-110240981D01*
X154409595Y-110261955D01*
X154019500Y-110652050D01*
X153957188Y-110686076D01*
X153930405Y-110688955D01*
X149160763Y-110688955D01*
X149149579Y-110688428D01*
X149142091Y-110686754D01*
X149134168Y-110687003D01*
X149074033Y-110688893D01*
X149070075Y-110688955D01*
X149042144Y-110688955D01*
X149038229Y-110689450D01*
X149038225Y-110689450D01*
X149038167Y-110689458D01*
X149038138Y-110689461D01*
X149026296Y-110690394D01*
X148982110Y-110691782D01*
X148964744Y-110696827D01*
X148962658Y-110697433D01*
X148943306Y-110701441D01*
X148931068Y-110702987D01*
X148931066Y-110702988D01*
X148923203Y-110703981D01*
X148882086Y-110720261D01*
X148870885Y-110724096D01*
X148828406Y-110736437D01*
X148821587Y-110740470D01*
X148821582Y-110740472D01*
X148810971Y-110746748D01*
X148793221Y-110755445D01*
X148774383Y-110762903D01*
X148767967Y-110767564D01*
X148767966Y-110767565D01*
X148738625Y-110788883D01*
X148728701Y-110795402D01*
X148697460Y-110813877D01*
X148697455Y-110813881D01*
X148690637Y-110817913D01*
X148676313Y-110832237D01*
X148661281Y-110845076D01*
X148644893Y-110856983D01*
X148639014Y-110864090D01*
X148616712Y-110891048D01*
X148608722Y-110899828D01*
X148487187Y-111021363D01*
X148424875Y-111055389D01*
X148354060Y-111050324D01*
X148297224Y-111007777D01*
X148272782Y-110945439D01*
X148264232Y-110864090D01*
X148264232Y-110864088D01*
X148263542Y-110857527D01*
X148204527Y-110675899D01*
X148109040Y-110510511D01*
X147981253Y-110368589D01*
X147882157Y-110296591D01*
X147832094Y-110260218D01*
X147832093Y-110260217D01*
X147826752Y-110256337D01*
X147820724Y-110253653D01*
X147820722Y-110253652D01*
X147658319Y-110181346D01*
X147658318Y-110181346D01*
X147652288Y-110178661D01*
X147558888Y-110158808D01*
X147471944Y-110140327D01*
X147471939Y-110140327D01*
X147465487Y-110138955D01*
X147274513Y-110138955D01*
X147268061Y-110140327D01*
X147268056Y-110140327D01*
X147181112Y-110158808D01*
X147087712Y-110178661D01*
X147081682Y-110181346D01*
X147081681Y-110181346D01*
X146919278Y-110253652D01*
X146919276Y-110253653D01*
X146913248Y-110256337D01*
X146907907Y-110260217D01*
X146907906Y-110260218D01*
X146874773Y-110284291D01*
X146809060Y-110332034D01*
X146742194Y-110355892D01*
X146673042Y-110339812D01*
X146660944Y-110332037D01*
X146595227Y-110284291D01*
X146562094Y-110260218D01*
X146562093Y-110260217D01*
X146556752Y-110256337D01*
X146550724Y-110253653D01*
X146550722Y-110253652D01*
X146388319Y-110181346D01*
X146388318Y-110181346D01*
X146382288Y-110178661D01*
X146288888Y-110158808D01*
X146201944Y-110140327D01*
X146201939Y-110140327D01*
X146195487Y-110138955D01*
X146004513Y-110138955D01*
X145998061Y-110140327D01*
X145998056Y-110140327D01*
X145911112Y-110158808D01*
X145817712Y-110178661D01*
X145811682Y-110181346D01*
X145811681Y-110181346D01*
X145649278Y-110253652D01*
X145649276Y-110253653D01*
X145643248Y-110256337D01*
X145637907Y-110260217D01*
X145637906Y-110260218D01*
X145587843Y-110296591D01*
X145488747Y-110368589D01*
X145360960Y-110510511D01*
X145265473Y-110675899D01*
X145206458Y-110857527D01*
X145186496Y-111047455D01*
X145187186Y-111054020D01*
X145198333Y-111160074D01*
X145206458Y-111237383D01*
X145265473Y-111419011D01*
X145360960Y-111584399D01*
X145365378Y-111589306D01*
X145365379Y-111589307D01*
X145459136Y-111693435D01*
X145489854Y-111757442D01*
X145491500Y-111777745D01*
X145491500Y-111935246D01*
X145490422Y-111951689D01*
X145486250Y-111983382D01*
X145491500Y-112023262D01*
X145491500Y-112023267D01*
X145499932Y-112087311D01*
X145507162Y-112142233D01*
X145568476Y-112290258D01*
X145573503Y-112296809D01*
X145573504Y-112296811D01*
X145641520Y-112385451D01*
X145641526Y-112385457D01*
X145666013Y-112417369D01*
X145672568Y-112422399D01*
X145691379Y-112436834D01*
X145703770Y-112447701D01*
X148421930Y-115165861D01*
X148455956Y-115228173D01*
X148457757Y-115271402D01*
X148436335Y-115434121D01*
X148455153Y-115604570D01*
X148457762Y-115611701D01*
X148457763Y-115611703D01*
X148465688Y-115633359D01*
X148514085Y-115765610D01*
X148609730Y-115907944D01*
X148736565Y-116023355D01*
X148887268Y-116105180D01*
X149053139Y-116148696D01*
X149140586Y-116150069D01*
X149217003Y-116151270D01*
X149217006Y-116151270D01*
X149224602Y-116151389D01*
X149232006Y-116149693D01*
X149232008Y-116149693D01*
X149294846Y-116135301D01*
X149391759Y-116113105D01*
X149441983Y-116087845D01*
X149511827Y-116075107D01*
X149558718Y-116089679D01*
X149587268Y-116105180D01*
X149753139Y-116148696D01*
X149840586Y-116150069D01*
X149917003Y-116151270D01*
X149917006Y-116151270D01*
X149924602Y-116151389D01*
X149932006Y-116149693D01*
X149932008Y-116149693D01*
X149994846Y-116135301D01*
X150091759Y-116113105D01*
X150244958Y-116036054D01*
X150250729Y-116031125D01*
X150250732Y-116031123D01*
X150369578Y-115929618D01*
X150375355Y-115924684D01*
X150475424Y-115785425D01*
X150539385Y-115626315D01*
X150563547Y-115456542D01*
X150563704Y-115441595D01*
X150543102Y-115271353D01*
X150482487Y-115110939D01*
X150478187Y-115104682D01*
X150474665Y-115097945D01*
X150477063Y-115096691D01*
X150458500Y-115036913D01*
X150458500Y-114899913D01*
X150459578Y-114883467D01*
X150462673Y-114859957D01*
X150463751Y-114851769D01*
X150442838Y-114692918D01*
X150381524Y-114544893D01*
X150308478Y-114449698D01*
X150308474Y-114449694D01*
X150308471Y-114449690D01*
X150289016Y-114424335D01*
X150289013Y-114424332D01*
X150283987Y-114417782D01*
X150277432Y-114412752D01*
X150258621Y-114398317D01*
X150246230Y-114387450D01*
X148950030Y-113091250D01*
X148916004Y-113028938D01*
X148921069Y-112958123D01*
X148963616Y-112901287D01*
X148987876Y-112887048D01*
X149090722Y-112841258D01*
X149090724Y-112841257D01*
X149096752Y-112838573D01*
X149200940Y-112762876D01*
X149267806Y-112739018D01*
X149336958Y-112755098D01*
X149349056Y-112762873D01*
X149453248Y-112838573D01*
X149459276Y-112841257D01*
X149459278Y-112841258D01*
X149621681Y-112913564D01*
X149627712Y-112916249D01*
X149721113Y-112936102D01*
X149808056Y-112954583D01*
X149808061Y-112954583D01*
X149814513Y-112955955D01*
X150005487Y-112955955D01*
X150011939Y-112954583D01*
X150011944Y-112954583D01*
X150098888Y-112936102D01*
X150192288Y-112916249D01*
X150198319Y-112913564D01*
X150360722Y-112841258D01*
X150360724Y-112841257D01*
X150366752Y-112838573D01*
X150521253Y-112726321D01*
X150525668Y-112721418D01*
X150530580Y-112716995D01*
X150531705Y-112718244D01*
X150585014Y-112685404D01*
X150618200Y-112680955D01*
X154077629Y-112680955D01*
X154088812Y-112681482D01*
X154096305Y-112683157D01*
X154104231Y-112682908D01*
X154104232Y-112682908D01*
X154164382Y-112681017D01*
X154168341Y-112680955D01*
X154196252Y-112680955D01*
X154200187Y-112680458D01*
X154200252Y-112680450D01*
X154212089Y-112679517D01*
X154244347Y-112678503D01*
X154248366Y-112678377D01*
X154256285Y-112678128D01*
X154275739Y-112672476D01*
X154295096Y-112668468D01*
X154307326Y-112666923D01*
X154307327Y-112666923D01*
X154315193Y-112665929D01*
X154322564Y-112663010D01*
X154322566Y-112663010D01*
X154356308Y-112649651D01*
X154367538Y-112645806D01*
X154402379Y-112635684D01*
X154402380Y-112635684D01*
X154409989Y-112633473D01*
X154416808Y-112629440D01*
X154416813Y-112629438D01*
X154427424Y-112623162D01*
X154445172Y-112614467D01*
X154464013Y-112607007D01*
X154499783Y-112581019D01*
X154509703Y-112574503D01*
X154540931Y-112556035D01*
X154540934Y-112556033D01*
X154547758Y-112551997D01*
X154562079Y-112537676D01*
X154577113Y-112524835D01*
X154587090Y-112517586D01*
X154593503Y-112512927D01*
X154621694Y-112478850D01*
X154629684Y-112470071D01*
X155922247Y-111177508D01*
X155930537Y-111169964D01*
X155937018Y-111165851D01*
X155983659Y-111116183D01*
X155986413Y-111113342D01*
X156006134Y-111093621D01*
X156008612Y-111090426D01*
X156016318Y-111081404D01*
X156041158Y-111054952D01*
X156046586Y-111049172D01*
X156056346Y-111031419D01*
X156067199Y-111014896D01*
X156074753Y-111005157D01*
X156079613Y-110998892D01*
X156097176Y-110958308D01*
X156102383Y-110947678D01*
X156123695Y-110908911D01*
X156125666Y-110901234D01*
X156125668Y-110901229D01*
X156128732Y-110889293D01*
X156135138Y-110870581D01*
X156140034Y-110859268D01*
X156143181Y-110851996D01*
X156147692Y-110823519D01*
X156150097Y-110808332D01*
X156152504Y-110796711D01*
X156161528Y-110761562D01*
X156161528Y-110761561D01*
X156163500Y-110753881D01*
X156163500Y-110733620D01*
X156165051Y-110713909D01*
X156166624Y-110703981D01*
X156168219Y-110693908D01*
X156164059Y-110649897D01*
X156163500Y-110638040D01*
X156163500Y-102559299D01*
X156164027Y-102548115D01*
X156165701Y-102540627D01*
X156163620Y-102474425D01*
X156181472Y-102405710D01*
X156233641Y-102357554D01*
X156303562Y-102345248D01*
X156369038Y-102372697D01*
X156383190Y-102386152D01*
X156508227Y-102525020D01*
X156662728Y-102637272D01*
X156668756Y-102639956D01*
X156668758Y-102639957D01*
X156831161Y-102712263D01*
X156837192Y-102714948D01*
X156930593Y-102734801D01*
X157017536Y-102753282D01*
X157017541Y-102753282D01*
X157023993Y-102754654D01*
X157214967Y-102754654D01*
X157221419Y-102753282D01*
X157221424Y-102753282D01*
X157308367Y-102734801D01*
X157401768Y-102714948D01*
X157407799Y-102712263D01*
X157570202Y-102639957D01*
X157570204Y-102639956D01*
X157576232Y-102637272D01*
X157730733Y-102525020D01*
X157783548Y-102466363D01*
X157854101Y-102388006D01*
X157854102Y-102388005D01*
X157858520Y-102383098D01*
X157954007Y-102217710D01*
X158013022Y-102036082D01*
X158014731Y-102019828D01*
X158032294Y-101852719D01*
X158032294Y-101852718D01*
X158032984Y-101846154D01*
X158013022Y-101656226D01*
X157954007Y-101474598D01*
X157858520Y-101309210D01*
X157785343Y-101227939D01*
X157754627Y-101163933D01*
X157752980Y-101143630D01*
X157752980Y-94162158D01*
X160998743Y-94162158D01*
X161036268Y-94447189D01*
X161112129Y-94724491D01*
X161119267Y-94741225D01*
X161219867Y-94977077D01*
X161224923Y-94988931D01*
X161372561Y-95235616D01*
X161552313Y-95459983D01*
X161760851Y-95657878D01*
X161994317Y-95825641D01*
X161998112Y-95827650D01*
X161998113Y-95827651D01*
X162019869Y-95839170D01*
X162248392Y-95960167D01*
X162518373Y-96058966D01*
X162799264Y-96120210D01*
X162827841Y-96122459D01*
X163022282Y-96137762D01*
X163022291Y-96137762D01*
X163024739Y-96137955D01*
X163180271Y-96137955D01*
X163182407Y-96137809D01*
X163182418Y-96137809D01*
X163390548Y-96123620D01*
X163390554Y-96123619D01*
X163394825Y-96123328D01*
X163399020Y-96122459D01*
X163399022Y-96122459D01*
X163535584Y-96094178D01*
X163676342Y-96065029D01*
X163947343Y-95969062D01*
X164202812Y-95837205D01*
X164206313Y-95834744D01*
X164206317Y-95834742D01*
X164320418Y-95754550D01*
X164438023Y-95671896D01*
X164648622Y-95476195D01*
X164830713Y-95253723D01*
X164980927Y-95008597D01*
X164989843Y-94988287D01*
X165094757Y-94749285D01*
X165096483Y-94745353D01*
X165175244Y-94468861D01*
X165215751Y-94184239D01*
X165215845Y-94166406D01*
X165217235Y-93901038D01*
X165217235Y-93901031D01*
X165217257Y-93896752D01*
X165179732Y-93611721D01*
X165103871Y-93334419D01*
X164991077Y-93069979D01*
X164857930Y-92847507D01*
X164845643Y-92826976D01*
X164845640Y-92826972D01*
X164843439Y-92823294D01*
X164663687Y-92598927D01*
X164478705Y-92423386D01*
X164458258Y-92403982D01*
X164458255Y-92403980D01*
X164455149Y-92401032D01*
X164221683Y-92233269D01*
X164199843Y-92221705D01*
X164176654Y-92209427D01*
X163967608Y-92098743D01*
X163697627Y-91999944D01*
X163416736Y-91938700D01*
X163385685Y-91936256D01*
X163193718Y-91921148D01*
X163193709Y-91921148D01*
X163191261Y-91920955D01*
X163035729Y-91920955D01*
X163033593Y-91921101D01*
X163033582Y-91921101D01*
X162825452Y-91935290D01*
X162825446Y-91935291D01*
X162821175Y-91935582D01*
X162816980Y-91936451D01*
X162816978Y-91936451D01*
X162715896Y-91957384D01*
X162539658Y-91993881D01*
X162268657Y-92089848D01*
X162013188Y-92221705D01*
X162009687Y-92224166D01*
X162009683Y-92224168D01*
X161999594Y-92231259D01*
X161777977Y-92387014D01*
X161762892Y-92401032D01*
X161652612Y-92503511D01*
X161567378Y-92582715D01*
X161385287Y-92805187D01*
X161235073Y-93050313D01*
X161119517Y-93313557D01*
X161040756Y-93590049D01*
X161000249Y-93874671D01*
X161000227Y-93878960D01*
X161000226Y-93878967D01*
X160998765Y-94157872D01*
X160998743Y-94162158D01*
X157752980Y-94162158D01*
X157752980Y-92454474D01*
X157772982Y-92386353D01*
X157789885Y-92365379D01*
X161838626Y-88316639D01*
X161846912Y-88309099D01*
X161853391Y-88304987D01*
X161900017Y-88255335D01*
X161902771Y-88252494D01*
X161922508Y-88232757D01*
X161924988Y-88229560D01*
X161932693Y-88220538D01*
X161957532Y-88194087D01*
X161962959Y-88188308D01*
X161966778Y-88181362D01*
X161966780Y-88181359D01*
X161972721Y-88170553D01*
X161983572Y-88154034D01*
X161991131Y-88144288D01*
X161995987Y-88138028D01*
X161999132Y-88130759D01*
X161999135Y-88130755D01*
X162013547Y-88097450D01*
X162018764Y-88086800D01*
X162040068Y-88048047D01*
X162045106Y-88028424D01*
X162051510Y-88009721D01*
X162056406Y-87998407D01*
X162056406Y-87998406D01*
X162059554Y-87991132D01*
X162060793Y-87983309D01*
X162060796Y-87983299D01*
X162066472Y-87947463D01*
X162068878Y-87935843D01*
X162077901Y-87900698D01*
X162077901Y-87900697D01*
X162079873Y-87893017D01*
X162079873Y-87872763D01*
X162081424Y-87853052D01*
X162083353Y-87840873D01*
X162084593Y-87833044D01*
X162080432Y-87789025D01*
X162079873Y-87777168D01*
X162079873Y-81654790D01*
X162080400Y-81643607D01*
X162082075Y-81636114D01*
X162081297Y-81611343D01*
X162079935Y-81568024D01*
X162079873Y-81564066D01*
X162079873Y-81536167D01*
X162079369Y-81532176D01*
X162078436Y-81520334D01*
X162077296Y-81484059D01*
X162077047Y-81476134D01*
X162074835Y-81468520D01*
X162074834Y-81468515D01*
X162071396Y-81456682D01*
X162067385Y-81437318D01*
X162065840Y-81425087D01*
X162064847Y-81417226D01*
X162061930Y-81409859D01*
X162061929Y-81409854D01*
X162048571Y-81376115D01*
X162044727Y-81364888D01*
X162034603Y-81330045D01*
X162032391Y-81322430D01*
X162022080Y-81304995D01*
X162013385Y-81287247D01*
X162005925Y-81268406D01*
X161979937Y-81232636D01*
X161973421Y-81222716D01*
X161954953Y-81191488D01*
X161954951Y-81191485D01*
X161950915Y-81184661D01*
X161936594Y-81170340D01*
X161923753Y-81155306D01*
X161916505Y-81145330D01*
X161911845Y-81138916D01*
X161877780Y-81110735D01*
X161868999Y-81102745D01*
X161297043Y-80530788D01*
X161289509Y-80522509D01*
X161285396Y-80516028D01*
X161235744Y-80469402D01*
X161232903Y-80466648D01*
X161213166Y-80446911D01*
X161209969Y-80444431D01*
X161200947Y-80436726D01*
X161174496Y-80411887D01*
X161168717Y-80406460D01*
X161161771Y-80402641D01*
X161161768Y-80402639D01*
X161150962Y-80396698D01*
X161134443Y-80385847D01*
X161133979Y-80385487D01*
X161118437Y-80373432D01*
X161111168Y-80370287D01*
X161111164Y-80370284D01*
X161077859Y-80355872D01*
X161067209Y-80350655D01*
X161028456Y-80329351D01*
X161028455Y-80329351D01*
X161028989Y-80328380D01*
X160978871Y-80289279D01*
X160963245Y-80260031D01*
X160950615Y-80226341D01*
X160945235Y-80219162D01*
X160945233Y-80219159D01*
X160868642Y-80116965D01*
X160863261Y-80109785D01*
X160758806Y-80031500D01*
X160748628Y-80023872D01*
X160706113Y-79967013D01*
X160701087Y-79896194D01*
X160735147Y-79833901D01*
X160748628Y-79822220D01*
X160856080Y-79741689D01*
X160856081Y-79741688D01*
X160863261Y-79736307D01*
X160950615Y-79619751D01*
X161001745Y-79483362D01*
X161008500Y-79421180D01*
X161008500Y-78424912D01*
X161001745Y-78362730D01*
X160950615Y-78226341D01*
X160863261Y-78109785D01*
X160758806Y-78031500D01*
X160748628Y-78023872D01*
X160706113Y-77967013D01*
X160701087Y-77896194D01*
X160735147Y-77833901D01*
X160748628Y-77822220D01*
X160856080Y-77741689D01*
X160856081Y-77741688D01*
X160863261Y-77736307D01*
X160950615Y-77619751D01*
X161001745Y-77483362D01*
X161008500Y-77421180D01*
X161008500Y-76424912D01*
X161001745Y-76362730D01*
X160950615Y-76226341D01*
X160863261Y-76109785D01*
X160758806Y-76031500D01*
X160748628Y-76023872D01*
X160706113Y-75967013D01*
X160701087Y-75896194D01*
X160735147Y-75833901D01*
X160748628Y-75822220D01*
X160856080Y-75741689D01*
X160856081Y-75741688D01*
X160863261Y-75736307D01*
X160950615Y-75619751D01*
X161001745Y-75483362D01*
X161008500Y-75421180D01*
X161008500Y-74424912D01*
X161001745Y-74362730D01*
X160950615Y-74226341D01*
X160863261Y-74109785D01*
X160758806Y-74031500D01*
X160748628Y-74023872D01*
X160706113Y-73967013D01*
X160701087Y-73896194D01*
X160735147Y-73833901D01*
X160748628Y-73822220D01*
X160856080Y-73741689D01*
X160856081Y-73741688D01*
X160863261Y-73736307D01*
X160950615Y-73619751D01*
X161001745Y-73483362D01*
X161008500Y-73421180D01*
X161008500Y-72424912D01*
X161001745Y-72362730D01*
X160950615Y-72226341D01*
X160863261Y-72109785D01*
X160746705Y-72022431D01*
X160610316Y-71971301D01*
X160548134Y-71964546D01*
X159151866Y-71964546D01*
X159089684Y-71971301D01*
X158983189Y-72011224D01*
X158912384Y-72016407D01*
X158888920Y-72008879D01*
X158829774Y-71983284D01*
X158829775Y-71983284D01*
X158823914Y-71980748D01*
X158628334Y-71939890D01*
X158623478Y-71939635D01*
X158623439Y-71939633D01*
X158623423Y-71939633D01*
X158621771Y-71939546D01*
X157425066Y-71939546D01*
X157411933Y-71940880D01*
X157282566Y-71954020D01*
X157282562Y-71954021D01*
X157276220Y-71954665D01*
X157184898Y-71983284D01*
X157091651Y-72012506D01*
X157091650Y-72012507D01*
X157085560Y-72014415D01*
X157079978Y-72017509D01*
X157079976Y-72017510D01*
X157061382Y-72027817D01*
X156910809Y-72111281D01*
X156759104Y-72241307D01*
X156755197Y-72246344D01*
X156755195Y-72246346D01*
X156640555Y-72394139D01*
X156640553Y-72394142D01*
X156636643Y-72399183D01*
X156633825Y-72404909D01*
X156633823Y-72404913D01*
X156577087Y-72520216D01*
X156548429Y-72578457D01*
X156498065Y-72771808D01*
X156487608Y-72971338D01*
X156517486Y-73168894D01*
X156581316Y-73342380D01*
X156586066Y-73413215D01*
X156552161Y-73474981D01*
X156161797Y-73865344D01*
X155800545Y-74226596D01*
X155792266Y-74234130D01*
X155785785Y-74238243D01*
X155739160Y-74287894D01*
X155736405Y-74290736D01*
X155716668Y-74310473D01*
X155714188Y-74313670D01*
X155706485Y-74322690D01*
X155676217Y-74354922D01*
X155672398Y-74361868D01*
X155672396Y-74361871D01*
X155666455Y-74372677D01*
X155655604Y-74389196D01*
X155643189Y-74405202D01*
X155640044Y-74412471D01*
X155640041Y-74412475D01*
X155625629Y-74445780D01*
X155620412Y-74456430D01*
X155599108Y-74495183D01*
X155597137Y-74502858D01*
X155597137Y-74502859D01*
X155594070Y-74514805D01*
X155587666Y-74533509D01*
X155579622Y-74552098D01*
X155578383Y-74559921D01*
X155578380Y-74559931D01*
X155572704Y-74595767D01*
X155570298Y-74607387D01*
X155559303Y-74650213D01*
X155559303Y-74670467D01*
X155557752Y-74690177D01*
X155554583Y-74710186D01*
X155555329Y-74718078D01*
X155558744Y-74754204D01*
X155559303Y-74766062D01*
X155559303Y-86859700D01*
X155539301Y-86927821D01*
X155485645Y-86974314D01*
X155415371Y-86984418D01*
X155377674Y-86972755D01*
X155344589Y-86956475D01*
X155225797Y-86925532D01*
X155157420Y-86907721D01*
X155157417Y-86907721D01*
X155151238Y-86906111D01*
X155057744Y-86901211D01*
X154958089Y-86895988D01*
X154958085Y-86895988D01*
X154951708Y-86895654D01*
X154754152Y-86925532D01*
X154748165Y-86927735D01*
X154748164Y-86927735D01*
X154579541Y-86989776D01*
X154566639Y-86994523D01*
X154396828Y-87099811D01*
X154251656Y-87237093D01*
X154137054Y-87400762D01*
X154134519Y-87406621D01*
X154116042Y-87449317D01*
X154070630Y-87503891D01*
X154002923Y-87525251D01*
X153934416Y-87506614D01*
X153890204Y-87460363D01*
X153811765Y-87318855D01*
X153698832Y-87187093D01*
X153685891Y-87171994D01*
X153685890Y-87171993D01*
X153681739Y-87167150D01*
X153676700Y-87163241D01*
X153528907Y-87048601D01*
X153528904Y-87048599D01*
X153523863Y-87044689D01*
X153518137Y-87041871D01*
X153518133Y-87041869D01*
X153350318Y-86959294D01*
X153344589Y-86956475D01*
X153225797Y-86925532D01*
X153157420Y-86907721D01*
X153157417Y-86907721D01*
X153151238Y-86906111D01*
X153057744Y-86901211D01*
X152958089Y-86895988D01*
X152958085Y-86895988D01*
X152951708Y-86895654D01*
X152754152Y-86925532D01*
X152748165Y-86927735D01*
X152748164Y-86927735D01*
X152579541Y-86989776D01*
X152566639Y-86994523D01*
X152396828Y-87099811D01*
X152251656Y-87237093D01*
X152137054Y-87400762D01*
X152134519Y-87406621D01*
X152116042Y-87449317D01*
X152070630Y-87503891D01*
X152002923Y-87525251D01*
X151934416Y-87506614D01*
X151890204Y-87460363D01*
X151811765Y-87318855D01*
X151698832Y-87187093D01*
X151685891Y-87171994D01*
X151685890Y-87171993D01*
X151681739Y-87167150D01*
X151676700Y-87163241D01*
X151528907Y-87048601D01*
X151528904Y-87048599D01*
X151523863Y-87044689D01*
X151518137Y-87041871D01*
X151518133Y-87041869D01*
X151350318Y-86959294D01*
X151344589Y-86956475D01*
X151225797Y-86925532D01*
X151157420Y-86907721D01*
X151157417Y-86907721D01*
X151151238Y-86906111D01*
X151057744Y-86901211D01*
X150958089Y-86895988D01*
X150958085Y-86895988D01*
X150951708Y-86895654D01*
X150754152Y-86925532D01*
X150748165Y-86927735D01*
X150748164Y-86927735D01*
X150579541Y-86989776D01*
X150566639Y-86994523D01*
X150396828Y-87099811D01*
X150251656Y-87237093D01*
X150137054Y-87400762D01*
X150128219Y-87421180D01*
X150128193Y-87421239D01*
X150082781Y-87475813D01*
X150015074Y-87497172D01*
X149946567Y-87478535D01*
X149902355Y-87432284D01*
X149811765Y-87268855D01*
X149724594Y-87167150D01*
X149685891Y-87121994D01*
X149685890Y-87121993D01*
X149681739Y-87117150D01*
X149659386Y-87099811D01*
X149528907Y-86998601D01*
X149528904Y-86998599D01*
X149523863Y-86994689D01*
X149518137Y-86991871D01*
X149518133Y-86991869D01*
X149350318Y-86909294D01*
X149344589Y-86906475D01*
X149225797Y-86875532D01*
X149157420Y-86857721D01*
X149157417Y-86857721D01*
X149151238Y-86856111D01*
X149057744Y-86851211D01*
X148958089Y-86845988D01*
X148958085Y-86845988D01*
X148951708Y-86845654D01*
X148754152Y-86875532D01*
X148748165Y-86877735D01*
X148748164Y-86877735D01*
X148612034Y-86927821D01*
X148566639Y-86944523D01*
X148396828Y-87049811D01*
X148392195Y-87054192D01*
X148392194Y-87054193D01*
X148329752Y-87113241D01*
X148251656Y-87187093D01*
X148197801Y-87264006D01*
X148155486Y-87324439D01*
X148137054Y-87350762D01*
X148134519Y-87356621D01*
X148103891Y-87427396D01*
X148058480Y-87481970D01*
X147990772Y-87503330D01*
X147922265Y-87484693D01*
X147878053Y-87438442D01*
X147811765Y-87318855D01*
X147698832Y-87187093D01*
X147685891Y-87171994D01*
X147685890Y-87171993D01*
X147681739Y-87167150D01*
X147676700Y-87163241D01*
X147528907Y-87048601D01*
X147528904Y-87048599D01*
X147523863Y-87044689D01*
X147518137Y-87041871D01*
X147518133Y-87041869D01*
X147350318Y-86959294D01*
X147344589Y-86956475D01*
X147225797Y-86925532D01*
X147157420Y-86907721D01*
X147157417Y-86907721D01*
X147151238Y-86906111D01*
X147057744Y-86901211D01*
X146958089Y-86895988D01*
X146958085Y-86895988D01*
X146951708Y-86895654D01*
X146754152Y-86925532D01*
X146748165Y-86927735D01*
X146748164Y-86927735D01*
X146579541Y-86989776D01*
X146566639Y-86994523D01*
X146396828Y-87099811D01*
X146251656Y-87237093D01*
X146137054Y-87400762D01*
X146134519Y-87406621D01*
X146116042Y-87449317D01*
X146070630Y-87503891D01*
X146002923Y-87525251D01*
X145934416Y-87506614D01*
X145890204Y-87460363D01*
X145811765Y-87318855D01*
X145698832Y-87187093D01*
X145685891Y-87171994D01*
X145685890Y-87171993D01*
X145681739Y-87167150D01*
X145676700Y-87163241D01*
X145528907Y-87048601D01*
X145528904Y-87048599D01*
X145523863Y-87044689D01*
X145518137Y-87041871D01*
X145518133Y-87041869D01*
X145350318Y-86959294D01*
X145344589Y-86956475D01*
X145225797Y-86925532D01*
X145157420Y-86907721D01*
X145157417Y-86907721D01*
X145151238Y-86906111D01*
X145057744Y-86901211D01*
X144958089Y-86895988D01*
X144958085Y-86895988D01*
X144951708Y-86895654D01*
X144754152Y-86925532D01*
X144748165Y-86927735D01*
X144748164Y-86927735D01*
X144579541Y-86989776D01*
X144508704Y-86994526D01*
X144446543Y-86960225D01*
X144412796Y-86897762D01*
X144410034Y-86871526D01*
X144410034Y-77285670D01*
X144418467Y-77241465D01*
X144420687Y-77237427D01*
X144422657Y-77229754D01*
X144422659Y-77229749D01*
X144425724Y-77217809D01*
X144432130Y-77199097D01*
X144437026Y-77187784D01*
X144440173Y-77180512D01*
X144447089Y-77136848D01*
X144449496Y-77125227D01*
X144458520Y-77090078D01*
X144458520Y-77090077D01*
X144460492Y-77082397D01*
X144460492Y-77062136D01*
X144462043Y-77042425D01*
X144463971Y-77030252D01*
X144465211Y-77022424D01*
X144461051Y-76978413D01*
X144460492Y-76966556D01*
X144460492Y-73502697D01*
X144461019Y-73491514D01*
X144462694Y-73484021D01*
X144462427Y-73475506D01*
X144460554Y-73415931D01*
X144460492Y-73411973D01*
X144460492Y-73384074D01*
X144459988Y-73380083D01*
X144459055Y-73368241D01*
X144457915Y-73331966D01*
X144457666Y-73324041D01*
X144455454Y-73316427D01*
X144455453Y-73316422D01*
X144452015Y-73304589D01*
X144448004Y-73285225D01*
X144446459Y-73272994D01*
X144445466Y-73265133D01*
X144442549Y-73257766D01*
X144442548Y-73257761D01*
X144429190Y-73224022D01*
X144425346Y-73212795D01*
X144415222Y-73177952D01*
X144413010Y-73170337D01*
X144402699Y-73152902D01*
X144394004Y-73135154D01*
X144386544Y-73116313D01*
X144360556Y-73080543D01*
X144354040Y-73070623D01*
X144335572Y-73039395D01*
X144335570Y-73039392D01*
X144331534Y-73032568D01*
X144317213Y-73018247D01*
X144304372Y-73003213D01*
X144297124Y-72993237D01*
X144292464Y-72986823D01*
X144258399Y-72958642D01*
X144249618Y-72950652D01*
X143839371Y-72540404D01*
X143831837Y-72532125D01*
X143827724Y-72525644D01*
X143778072Y-72479018D01*
X143775231Y-72476264D01*
X143755494Y-72456527D01*
X143752297Y-72454047D01*
X143743275Y-72446342D01*
X143716824Y-72421503D01*
X143711045Y-72416076D01*
X143704099Y-72412257D01*
X143704096Y-72412255D01*
X143693290Y-72406314D01*
X143676771Y-72395463D01*
X143675064Y-72394139D01*
X143660765Y-72383048D01*
X143653496Y-72379903D01*
X143653492Y-72379900D01*
X143620187Y-72365488D01*
X143609537Y-72360271D01*
X143570784Y-72338967D01*
X143551161Y-72333929D01*
X143532458Y-72327525D01*
X143521144Y-72322629D01*
X143521143Y-72322629D01*
X143513869Y-72319481D01*
X143506046Y-72318242D01*
X143506036Y-72318239D01*
X143470200Y-72312563D01*
X143458580Y-72310157D01*
X143423435Y-72301134D01*
X143423434Y-72301134D01*
X143415754Y-72299162D01*
X143395500Y-72299162D01*
X143375789Y-72297611D01*
X143363610Y-72295682D01*
X143355781Y-72294442D01*
X143347889Y-72295188D01*
X143339966Y-72294939D01*
X143340036Y-72292700D01*
X143281539Y-72281367D01*
X143247836Y-72256003D01*
X143175342Y-72179343D01*
X143175341Y-72179342D01*
X143170953Y-72174702D01*
X143007284Y-72060100D01*
X142823914Y-71980748D01*
X142628334Y-71939890D01*
X142623478Y-71939635D01*
X142623439Y-71939633D01*
X142623423Y-71939633D01*
X142621771Y-71939546D01*
X141425066Y-71939546D01*
X141411933Y-71940880D01*
X141282566Y-71954020D01*
X141282562Y-71954021D01*
X141276220Y-71954665D01*
X141270135Y-71956572D01*
X141270130Y-71956573D01*
X141094091Y-72011741D01*
X141023106Y-72013025D01*
X141012182Y-72009489D01*
X141010555Y-72008879D01*
X140910316Y-71971301D01*
X140848134Y-71964546D01*
X139451866Y-71964546D01*
X139389684Y-71971301D01*
X139253295Y-72022431D01*
X139136739Y-72109785D01*
X139049385Y-72226341D01*
X138998255Y-72362730D01*
X138991500Y-72424912D01*
X138991500Y-73421180D01*
X138998255Y-73483362D01*
X139049385Y-73619751D01*
X139136739Y-73736307D01*
X139143919Y-73741688D01*
X139143920Y-73741689D01*
X139251372Y-73822220D01*
X139293887Y-73879079D01*
X139298913Y-73949898D01*
X139264853Y-74012191D01*
X139251372Y-74023872D01*
X139241194Y-74031500D01*
X139136739Y-74109785D01*
X139049385Y-74226341D01*
X138998255Y-74362730D01*
X138991500Y-74424912D01*
X138991500Y-75421180D01*
X138998255Y-75483362D01*
X139049385Y-75619751D01*
X139136739Y-75736307D01*
X139143919Y-75741688D01*
X139143920Y-75741689D01*
X139251372Y-75822220D01*
X139293887Y-75879079D01*
X139298913Y-75949898D01*
X139264853Y-76012191D01*
X139251372Y-76023872D01*
X139241194Y-76031500D01*
X139136739Y-76109785D01*
X139049385Y-76226341D01*
X138998255Y-76362730D01*
X138991500Y-76424912D01*
X138991500Y-77421180D01*
X138998255Y-77483362D01*
X139049385Y-77619751D01*
X139136739Y-77736307D01*
X139143919Y-77741688D01*
X139143920Y-77741689D01*
X139251372Y-77822220D01*
X139293887Y-77879079D01*
X139298913Y-77949898D01*
X139264853Y-78012191D01*
X139251372Y-78023872D01*
X139241194Y-78031500D01*
X139136739Y-78109785D01*
X139049385Y-78226341D01*
X138998255Y-78362730D01*
X138991500Y-78424912D01*
X138991500Y-79421180D01*
X138998255Y-79483362D01*
X139049385Y-79619751D01*
X139136739Y-79736307D01*
X139143919Y-79741688D01*
X139143920Y-79741689D01*
X139251372Y-79822220D01*
X139293887Y-79879079D01*
X139298913Y-79949898D01*
X139264853Y-80012191D01*
X139251372Y-80023872D01*
X139241194Y-80031500D01*
X139136739Y-80109785D01*
X139049385Y-80226341D01*
X138998255Y-80362730D01*
X138991500Y-80424912D01*
X138991500Y-81421180D01*
X138998255Y-81483362D01*
X139049385Y-81619751D01*
X139136739Y-81736307D01*
X139143919Y-81741688D01*
X139143920Y-81741689D01*
X139251372Y-81822220D01*
X139293887Y-81879079D01*
X139298913Y-81949898D01*
X139264853Y-82012191D01*
X139251372Y-82023872D01*
X139241194Y-82031500D01*
X139136739Y-82109785D01*
X139049385Y-82226341D01*
X138998255Y-82362730D01*
X138991500Y-82424912D01*
X138991500Y-83421180D01*
X138998255Y-83483362D01*
X139049385Y-83619751D01*
X139136739Y-83736307D01*
X139143919Y-83741688D01*
X139143920Y-83741689D01*
X139251372Y-83822220D01*
X139293887Y-83879079D01*
X139298913Y-83949898D01*
X139264853Y-84012191D01*
X139251372Y-84023872D01*
X139241194Y-84031500D01*
X139136739Y-84109785D01*
X139049385Y-84226341D01*
X138998255Y-84362730D01*
X138991500Y-84424912D01*
X138991500Y-85421180D01*
X138998255Y-85483362D01*
X139049385Y-85619751D01*
X139136739Y-85736307D01*
X139143919Y-85741688D01*
X139143920Y-85741689D01*
X139251372Y-85822220D01*
X139293887Y-85879079D01*
X139298913Y-85949898D01*
X139264853Y-86012191D01*
X139251372Y-86023872D01*
X139241194Y-86031500D01*
X139136739Y-86109785D01*
X139049385Y-86226341D01*
X138998255Y-86362730D01*
X138991500Y-86424912D01*
X138991500Y-87421180D01*
X138998255Y-87483362D01*
X139049385Y-87619751D01*
X139136739Y-87736307D01*
X139253295Y-87823661D01*
X139389684Y-87874791D01*
X139451866Y-87881546D01*
X140848134Y-87881546D01*
X140910316Y-87874791D01*
X141016811Y-87834868D01*
X141087616Y-87829685D01*
X141111079Y-87837213D01*
X141176086Y-87865344D01*
X141371666Y-87906202D01*
X141376522Y-87906457D01*
X141376561Y-87906459D01*
X141376577Y-87906459D01*
X141378229Y-87906546D01*
X142574934Y-87906546D01*
X142604230Y-87903570D01*
X142717434Y-87892072D01*
X142717438Y-87892071D01*
X142723780Y-87891427D01*
X142896775Y-87837213D01*
X142908349Y-87833586D01*
X142908350Y-87833585D01*
X142914440Y-87831677D01*
X142920024Y-87828582D01*
X142920028Y-87828580D01*
X142955949Y-87808669D01*
X143025226Y-87793138D01*
X143091902Y-87817526D01*
X143134808Y-87874091D01*
X143143034Y-87918871D01*
X143143034Y-96058872D01*
X143123032Y-96126993D01*
X143106129Y-96147967D01*
X138199500Y-101054595D01*
X138137188Y-101088621D01*
X138110405Y-101091500D01*
X138054513Y-101091500D01*
X138048061Y-101092872D01*
X138048056Y-101092872D01*
X137961112Y-101111353D01*
X137867712Y-101131206D01*
X137861682Y-101133891D01*
X137861681Y-101133891D01*
X137699278Y-101206197D01*
X137699276Y-101206198D01*
X137693248Y-101208882D01*
X137687907Y-101212762D01*
X137687906Y-101212763D01*
X137658812Y-101233901D01*
X137538747Y-101321134D01*
X137410960Y-101463056D01*
X137315473Y-101628444D01*
X137256458Y-101810072D01*
X137255768Y-101816633D01*
X137255768Y-101816635D01*
X137251976Y-101852718D01*
X137236496Y-102000000D01*
X132955500Y-102000000D01*
X132955500Y-94162158D01*
X134782743Y-94162158D01*
X134820268Y-94447189D01*
X134896129Y-94724491D01*
X134903267Y-94741225D01*
X135003867Y-94977077D01*
X135008923Y-94988931D01*
X135156561Y-95235616D01*
X135336313Y-95459983D01*
X135544851Y-95657878D01*
X135778317Y-95825641D01*
X135782112Y-95827650D01*
X135782113Y-95827651D01*
X135803869Y-95839170D01*
X136032392Y-95960167D01*
X136302373Y-96058966D01*
X136583264Y-96120210D01*
X136611841Y-96122459D01*
X136806282Y-96137762D01*
X136806291Y-96137762D01*
X136808739Y-96137955D01*
X136964271Y-96137955D01*
X136966407Y-96137809D01*
X136966418Y-96137809D01*
X137174548Y-96123620D01*
X137174554Y-96123619D01*
X137178825Y-96123328D01*
X137183020Y-96122459D01*
X137183022Y-96122459D01*
X137319584Y-96094178D01*
X137460342Y-96065029D01*
X137731343Y-95969062D01*
X137986812Y-95837205D01*
X137990313Y-95834744D01*
X137990317Y-95834742D01*
X138104418Y-95754550D01*
X138222023Y-95671896D01*
X138432622Y-95476195D01*
X138614713Y-95253723D01*
X138764927Y-95008597D01*
X138773843Y-94988287D01*
X138878757Y-94749285D01*
X138880483Y-94745353D01*
X138959244Y-94468861D01*
X138999751Y-94184239D01*
X138999845Y-94166406D01*
X139001235Y-93901038D01*
X139001235Y-93901031D01*
X139001257Y-93896752D01*
X138963732Y-93611721D01*
X138887871Y-93334419D01*
X138775077Y-93069979D01*
X138641930Y-92847507D01*
X138629643Y-92826976D01*
X138629640Y-92826972D01*
X138627439Y-92823294D01*
X138447687Y-92598927D01*
X138262705Y-92423386D01*
X138242258Y-92403982D01*
X138242255Y-92403980D01*
X138239149Y-92401032D01*
X138005683Y-92233269D01*
X137983843Y-92221705D01*
X137960654Y-92209427D01*
X137751608Y-92098743D01*
X137481627Y-91999944D01*
X137200736Y-91938700D01*
X137169685Y-91936256D01*
X136977718Y-91921148D01*
X136977709Y-91921148D01*
X136975261Y-91920955D01*
X136819729Y-91920955D01*
X136817593Y-91921101D01*
X136817582Y-91921101D01*
X136609452Y-91935290D01*
X136609446Y-91935291D01*
X136605175Y-91935582D01*
X136600980Y-91936451D01*
X136600978Y-91936451D01*
X136499896Y-91957384D01*
X136323658Y-91993881D01*
X136052657Y-92089848D01*
X135797188Y-92221705D01*
X135793687Y-92224166D01*
X135793683Y-92224168D01*
X135783594Y-92231259D01*
X135561977Y-92387014D01*
X135546892Y-92401032D01*
X135436612Y-92503511D01*
X135351378Y-92582715D01*
X135169287Y-92805187D01*
X135019073Y-93050313D01*
X134903517Y-93313557D01*
X134824756Y-93590049D01*
X134784249Y-93874671D01*
X134784227Y-93878960D01*
X134784226Y-93878967D01*
X134782765Y-94157872D01*
X134782743Y-94162158D01*
X132955500Y-94162158D01*
X132955500Y-71151383D01*
X132975502Y-71083262D01*
X133029158Y-71036769D01*
X133081500Y-71025383D01*
X166918500Y-71025383D01*
X166986621Y-71045385D01*
X167033114Y-71099041D01*
X167044500Y-71151383D01*
X167044500Y-92413633D01*
X167043000Y-92433018D01*
X167040690Y-92447851D01*
X167040690Y-92447855D01*
X167039309Y-92456724D01*
X167040130Y-92463000D01*
X167040021Y-92463000D01*
X167040449Y-92467619D01*
X167040449Y-92467621D01*
X167052617Y-92598927D01*
X167057899Y-92655933D01*
X167110924Y-92842296D01*
X167197290Y-93015743D01*
X167314056Y-93170366D01*
X167457246Y-93300901D01*
X167462194Y-93303964D01*
X167462197Y-93303967D01*
X167511379Y-93334419D01*
X167621984Y-93402903D01*
X167627418Y-93405008D01*
X167797233Y-93470795D01*
X167797237Y-93470796D01*
X167802660Y-93472897D01*
X167993120Y-93508500D01*
X168186880Y-93508500D01*
X168377340Y-93472897D01*
X168382763Y-93470796D01*
X168382767Y-93470795D01*
X168552582Y-93405008D01*
X168558016Y-93402903D01*
X168668621Y-93334419D01*
X168717803Y-93303967D01*
X168717806Y-93303964D01*
X168722754Y-93300901D01*
X168865944Y-93170366D01*
X168982710Y-93015743D01*
X169069076Y-92842296D01*
X169122101Y-92655933D01*
X169136228Y-92503478D01*
X169137433Y-92494232D01*
X169138128Y-92490105D01*
X169140576Y-92475552D01*
X169140729Y-92463000D01*
X169136773Y-92435376D01*
X169135500Y-92417514D01*
X169135500Y-70053250D01*
X169137246Y-70032345D01*
X169139770Y-70017344D01*
X169139770Y-70017341D01*
X169140576Y-70012552D01*
X169140729Y-70000000D01*
X169139048Y-69988266D01*
X169138317Y-69982052D01*
X169122640Y-69812872D01*
X169122638Y-69812860D01*
X169122101Y-69807067D01*
X169069076Y-69620704D01*
X168982710Y-69447257D01*
X168865944Y-69292634D01*
X168722754Y-69162099D01*
X168645790Y-69114445D01*
X168598404Y-69061580D01*
X168587121Y-68991486D01*
X168615524Y-68926418D01*
X168645791Y-68900192D01*
X168717803Y-68855604D01*
X168717806Y-68855601D01*
X168722754Y-68852538D01*
X168865944Y-68722003D01*
X168982710Y-68567380D01*
X169069076Y-68393933D01*
X169122101Y-68207570D01*
X169136228Y-68055115D01*
X169136602Y-68052249D01*
X170962743Y-68052249D01*
X171000268Y-68337280D01*
X171076129Y-68614582D01*
X171077813Y-68618530D01*
X171177627Y-68852538D01*
X171188923Y-68879022D01*
X171336561Y-69125707D01*
X171516313Y-69350074D01*
X171724851Y-69547969D01*
X171958317Y-69715732D01*
X171962112Y-69717741D01*
X171962113Y-69717742D01*
X171983869Y-69729261D01*
X172212392Y-69850258D01*
X172482373Y-69949057D01*
X172763264Y-70010301D01*
X172791841Y-70012550D01*
X172986282Y-70027853D01*
X172986291Y-70027853D01*
X172988739Y-70028046D01*
X173144271Y-70028046D01*
X173146407Y-70027900D01*
X173146418Y-70027900D01*
X173354548Y-70013711D01*
X173354554Y-70013710D01*
X173358825Y-70013419D01*
X173363020Y-70012550D01*
X173363022Y-70012550D01*
X173554509Y-69972895D01*
X173640342Y-69955120D01*
X173911343Y-69859153D01*
X174166812Y-69727296D01*
X174170313Y-69724835D01*
X174170317Y-69724833D01*
X174318477Y-69620704D01*
X174402023Y-69561987D01*
X174612622Y-69366286D01*
X174794713Y-69143814D01*
X174944927Y-68898688D01*
X174965186Y-68852538D01*
X175058757Y-68639376D01*
X175060483Y-68635444D01*
X175139244Y-68358952D01*
X175179751Y-68074330D01*
X175179845Y-68056497D01*
X175179867Y-68052249D01*
X197178743Y-68052249D01*
X197216268Y-68337280D01*
X197292129Y-68614582D01*
X197293813Y-68618530D01*
X197393627Y-68852538D01*
X197404923Y-68879022D01*
X197552561Y-69125707D01*
X197732313Y-69350074D01*
X197940851Y-69547969D01*
X198174317Y-69715732D01*
X198178112Y-69717741D01*
X198178113Y-69717742D01*
X198199869Y-69729261D01*
X198428392Y-69850258D01*
X198698373Y-69949057D01*
X198979264Y-70010301D01*
X199007841Y-70012550D01*
X199202282Y-70027853D01*
X199202291Y-70027853D01*
X199204739Y-70028046D01*
X199360271Y-70028046D01*
X199362407Y-70027900D01*
X199362418Y-70027900D01*
X199570548Y-70013711D01*
X199570554Y-70013710D01*
X199574825Y-70013419D01*
X199579020Y-70012550D01*
X199579022Y-70012550D01*
X199770509Y-69972895D01*
X199856342Y-69955120D01*
X200127343Y-69859153D01*
X200382812Y-69727296D01*
X200386313Y-69724835D01*
X200386317Y-69724833D01*
X200534477Y-69620704D01*
X200618023Y-69561987D01*
X200828622Y-69366286D01*
X201010713Y-69143814D01*
X201160927Y-68898688D01*
X201181186Y-68852538D01*
X201274757Y-68639376D01*
X201276483Y-68635444D01*
X201355244Y-68358952D01*
X201395751Y-68074330D01*
X201395845Y-68056497D01*
X201397235Y-67791129D01*
X201397235Y-67791122D01*
X201397257Y-67786843D01*
X201359732Y-67501812D01*
X201283871Y-67224510D01*
X201171077Y-66960070D01*
X201034197Y-66731360D01*
X201025643Y-66717067D01*
X201025640Y-66717063D01*
X201023439Y-66713385D01*
X200843687Y-66489018D01*
X200664343Y-66318827D01*
X200638258Y-66294073D01*
X200638255Y-66294071D01*
X200635149Y-66291123D01*
X200401683Y-66123360D01*
X200379843Y-66111796D01*
X200356654Y-66099518D01*
X200147608Y-65988834D01*
X199877627Y-65890035D01*
X199596736Y-65828791D01*
X199565685Y-65826347D01*
X199373718Y-65811239D01*
X199373709Y-65811239D01*
X199371261Y-65811046D01*
X199215729Y-65811046D01*
X199213593Y-65811192D01*
X199213582Y-65811192D01*
X199005452Y-65825381D01*
X199005446Y-65825382D01*
X199001175Y-65825673D01*
X198996980Y-65826542D01*
X198996978Y-65826542D01*
X198860416Y-65854823D01*
X198719658Y-65883972D01*
X198448657Y-65979939D01*
X198193188Y-66111796D01*
X198189687Y-66114257D01*
X198189683Y-66114259D01*
X198179594Y-66121350D01*
X197957977Y-66277105D01*
X197747378Y-66472806D01*
X197565287Y-66695278D01*
X197415073Y-66940404D01*
X197413347Y-66944337D01*
X197413346Y-66944338D01*
X197321465Y-67153648D01*
X197299517Y-67203648D01*
X197220756Y-67480140D01*
X197180249Y-67764762D01*
X197180227Y-67769051D01*
X197180226Y-67769058D01*
X197178798Y-68041742D01*
X197178743Y-68052249D01*
X175179867Y-68052249D01*
X175181235Y-67791129D01*
X175181235Y-67791122D01*
X175181257Y-67786843D01*
X175143732Y-67501812D01*
X175067871Y-67224510D01*
X174955077Y-66960070D01*
X174818197Y-66731360D01*
X174809643Y-66717067D01*
X174809640Y-66717063D01*
X174807439Y-66713385D01*
X174627687Y-66489018D01*
X174448343Y-66318827D01*
X174422258Y-66294073D01*
X174422255Y-66294071D01*
X174419149Y-66291123D01*
X174185683Y-66123360D01*
X174163843Y-66111796D01*
X174140654Y-66099518D01*
X173931608Y-65988834D01*
X173661627Y-65890035D01*
X173380736Y-65828791D01*
X173349685Y-65826347D01*
X173157718Y-65811239D01*
X173157709Y-65811239D01*
X173155261Y-65811046D01*
X172999729Y-65811046D01*
X172997593Y-65811192D01*
X172997582Y-65811192D01*
X172789452Y-65825381D01*
X172789446Y-65825382D01*
X172785175Y-65825673D01*
X172780980Y-65826542D01*
X172780978Y-65826542D01*
X172644416Y-65854823D01*
X172503658Y-65883972D01*
X172232657Y-65979939D01*
X171977188Y-66111796D01*
X171973687Y-66114257D01*
X171973683Y-66114259D01*
X171963594Y-66121350D01*
X171741977Y-66277105D01*
X171531378Y-66472806D01*
X171349287Y-66695278D01*
X171199073Y-66940404D01*
X171197347Y-66944337D01*
X171197346Y-66944338D01*
X171105465Y-67153648D01*
X171083517Y-67203648D01*
X171004756Y-67480140D01*
X170964249Y-67764762D01*
X170964227Y-67769051D01*
X170964226Y-67769058D01*
X170962798Y-68041742D01*
X170962743Y-68052249D01*
X169136602Y-68052249D01*
X169137433Y-68045869D01*
X169138128Y-68041742D01*
X169140576Y-68027189D01*
X169140649Y-68021189D01*
X169140691Y-68020920D01*
X169140656Y-68020650D01*
X169140729Y-68014637D01*
X169140040Y-68009824D01*
X169140039Y-68009812D01*
X169138465Y-67998824D01*
X169137327Y-67975141D01*
X169137514Y-67971107D01*
X169152028Y-67657244D01*
X169153101Y-67645670D01*
X169201732Y-67297079D01*
X169203870Y-67285639D01*
X169284453Y-66943037D01*
X169287638Y-66931844D01*
X169366928Y-66695278D01*
X169399489Y-66598133D01*
X169403690Y-66587289D01*
X169403694Y-66587281D01*
X169545858Y-66265312D01*
X169551035Y-66254915D01*
X169722303Y-65947433D01*
X169728429Y-65937539D01*
X169927331Y-65647177D01*
X169934345Y-65637889D01*
X170159189Y-65367119D01*
X170167029Y-65358519D01*
X170291447Y-65234100D01*
X170415900Y-65109646D01*
X170424496Y-65101810D01*
X170695267Y-64876963D01*
X170704554Y-64869950D01*
X170994905Y-64671051D01*
X171004799Y-64664924D01*
X171255837Y-64525093D01*
X171312288Y-64493648D01*
X171322696Y-64488467D01*
X171644663Y-64346299D01*
X171655499Y-64342101D01*
X171989217Y-64230245D01*
X172000410Y-64227060D01*
X172343019Y-64146473D01*
X172354459Y-64144335D01*
X172703028Y-64095705D01*
X172714616Y-64094631D01*
X172860776Y-64087870D01*
X173028619Y-64080107D01*
X173053820Y-64081472D01*
X173056159Y-64081836D01*
X173056865Y-64081946D01*
X173056866Y-64081946D01*
X173065736Y-64083327D01*
X173097291Y-64079200D01*
X173113632Y-64078136D01*
X185050130Y-64078136D01*
X199238633Y-64078135D01*
X199258018Y-64079635D01*
G37*
%TD.AperFunction*%
%TD*%
M02*
