M48
; DRILL file {KiCad 6.0.11+dfsg-1~bpo11+1} date Fri 14 Jul 2023 01:23:48 AM
; FORMAT={-:-/ absolute / inch / decimal}
; #@! TF.CreationDate,2023-07-14T01:23:48-04:00
; #@! TF.GenerationSoftware,Kicad,Pcbnew,6.0.11+dfsg-1~bpo11+1
; #@! TF.FileFunction,Plated,1,2,PTH
FMAT,2
INCH
; #@! TA.AperFunction,Plated,PTH,ViaDrill
T1C0.0118
; #@! TA.AperFunction,Plated,PTH,ViaDrill
T2C0.0157
; #@! TA.AperFunction,Plated,PTH,ComponentDrill
T3C0.0236
; #@! TA.AperFunction,Plated,PTH,ComponentDrill
T4C0.0256
; #@! TA.AperFunction,Plated,PTH,ComponentDrill
T5C0.0315
; #@! TA.AperFunction,Plated,PTH,ComponentDrill
T6C0.1181
%
G90
G05
T1
X5.872Y-4.5449
X5.8996Y-4.5449
T2
X5.3543Y-4.3688
X5.372Y-3.9996
X5.439Y-4.0157
X5.6173Y-4.6314
X5.752Y-4.3719
X5.77Y-4.1643
X5.802Y-4.3719
X5.852Y-4.4113
X5.902Y-4.2184
X5.902Y-4.4113
X5.9513Y-4.2223
X6.0669Y-3.9784
X6.0669Y-4.055
X6.1535Y-4.1738
X6.1535Y-4.2284
X6.1858Y-4.0097
X6.1937Y-4.6314
T3
X5.5295Y-2.871
X5.5295Y-2.9497
X5.5295Y-3.0285
X5.5295Y-3.1072
X5.5295Y-3.1859
X5.5295Y-3.2647
X5.5295Y-3.3434
X5.5295Y-3.4222
X5.7087Y-3.5417
X5.7874Y-3.5417
X5.8661Y-3.5417
X5.9449Y-3.5417
X6.0236Y-3.5417
X6.1024Y-3.5417
X6.2815Y-2.871
X6.2815Y-2.9497
X6.2815Y-3.0285
X6.2815Y-3.1072
X6.2815Y-3.1859
X6.2815Y-3.2647
X6.2815Y-3.3434
X6.2815Y-3.4222
T5
X5.7555Y-3.8386
X6.0555Y-3.8386
T3
G00X5.7354Y-4.6011
M15
G01X5.7354Y-4.6444
M16
G05
G00X5.7354Y-4.7755
M15
G01X5.7354Y-4.7991
M16
G05
G00X6.0756Y-4.6011
M15
G01X6.0756Y-4.6444
M16
G05
G00X6.0756Y-4.7755
M15
G01X6.0756Y-4.7991
M16
G05
T4
G00X5.5699Y-2.871
M15
G01X5.6112Y-2.871
M16
G05
G00X5.5699Y-2.9497
M15
G01X5.6112Y-2.9497
M16
G05
G00X5.5699Y-3.0285
M15
G01X5.6112Y-3.0285
M16
G05
G00X5.5699Y-3.1072
M15
G01X5.6112Y-3.1072
M16
G05
G00X5.5699Y-3.1859
M15
G01X5.6112Y-3.1859
M16
G05
G00X5.5699Y-3.2647
M15
G01X5.6112Y-3.2647
M16
G05
G00X5.5699Y-3.3434
M15
G01X5.6112Y-3.3434
M16
G05
G00X5.5699Y-3.4222
M15
G01X5.6112Y-3.4222
M16
G05
G00X5.7087Y-3.5013
M15
G01X5.7087Y-3.46
M16
G05
G00X5.7874Y-3.5013
M15
G01X5.7874Y-3.46
M16
G05
G00X5.8661Y-3.4993
M15
G01X5.8661Y-3.458
M16
G05
G00X5.9449Y-3.5013
M15
G01X5.9449Y-3.46
M16
G05
G00X6.0236Y-3.5013
M15
G01X6.0236Y-3.46
M16
G05
G00X6.1024Y-3.5013
M15
G01X6.1024Y-3.46
M16
G05
G00X6.2411Y-2.871
M15
G01X6.1998Y-2.871
M16
G05
G00X6.2411Y-2.9497
M15
G01X6.1998Y-2.9497
M16
G05
G00X6.2411Y-3.0285
M15
G01X6.1998Y-3.0285
M16
G05
G00X6.2411Y-3.1072
M15
G01X6.1998Y-3.1072
M16
G05
G00X6.2411Y-3.1859
M15
G01X6.1998Y-3.1859
M16
G05
G00X6.2411Y-3.2647
M15
G01X6.1998Y-3.2647
M16
G05
G00X6.2411Y-3.3434
M15
G01X6.1998Y-3.3434
M16
G05
G00X6.2411Y-3.4222
M15
G01X6.1998Y-3.4222
M16
G05
T6
G00X5.9154Y-4.796
M15
G01X5.8957Y-4.796
M16
G05
T0
M30
