%TF.GenerationSoftware,KiCad,Pcbnew,6.0.11+dfsg-1~bpo11+1*%
%TF.CreationDate,2023-07-13T21:31:00-04:00*%
%TF.ProjectId,ESP12,45535031-322e-46b6-9963-61645f706362,rev?*%
%TF.SameCoordinates,Original*%
%TF.FileFunction,Paste,Top*%
%TF.FilePolarity,Positive*%
%FSLAX46Y46*%
G04 Gerber Fmt 4.6, Leading zero omitted, Abs format (unit mm)*
G04 Created by KiCad (PCBNEW 6.0.11+dfsg-1~bpo11+1) date 2023-07-13 21:31:00*
%MOMM*%
%LPD*%
G01*
G04 APERTURE LIST*
G04 Aperture macros list*
%AMRoundRect*
0 Rectangle with rounded corners*
0 $1 Rounding radius*
0 $2 $3 $4 $5 $6 $7 $8 $9 X,Y pos of 4 corners*
0 Add a 4 corners polygon primitive as box body*
4,1,4,$2,$3,$4,$5,$6,$7,$8,$9,$2,$3,0*
0 Add four circle primitives for the rounded corners*
1,1,$1+$1,$2,$3*
1,1,$1+$1,$4,$5*
1,1,$1+$1,$6,$7*
1,1,$1+$1,$8,$9*
0 Add four rect primitives between the rounded corners*
20,1,$1+$1,$2,$3,$4,$5,0*
20,1,$1+$1,$4,$5,$6,$7,0*
20,1,$1+$1,$6,$7,$8,$9,0*
20,1,$1+$1,$8,$9,$2,$3,0*%
G04 Aperture macros list end*
%ADD10RoundRect,0.237500X-0.237500X0.400000X-0.237500X-0.400000X0.237500X-0.400000X0.237500X0.400000X0*%
%ADD11RoundRect,0.250000X0.875000X0.925000X-0.875000X0.925000X-0.875000X-0.925000X0.875000X-0.925000X0*%
%ADD12R,0.600000X1.450000*%
%ADD13R,0.300000X1.450000*%
%ADD14RoundRect,0.525000X-0.725000X-0.525000X0.725000X-0.525000X0.725000X0.525000X-0.725000X0.525000X0*%
%ADD15RoundRect,0.400000X-1.600000X-0.400000X1.600000X-0.400000X1.600000X0.400000X-1.600000X0.400000X0*%
%ADD16RoundRect,0.237500X0.237500X-0.400000X0.237500X0.400000X-0.237500X0.400000X-0.237500X-0.400000X0*%
%ADD17R,2.400000X3.000000*%
%ADD18R,1.900000X0.800000*%
%ADD19RoundRect,0.150000X-0.150000X0.825000X-0.150000X-0.825000X0.150000X-0.825000X0.150000X0.825000X0*%
%ADD20RoundRect,0.237500X0.400000X0.237500X-0.400000X0.237500X-0.400000X-0.237500X0.400000X-0.237500X0*%
%ADD21R,0.600000X1.600000*%
%ADD22RoundRect,0.237500X-0.400000X-0.237500X0.400000X-0.237500X0.400000X0.237500X-0.400000X0.237500X0*%
%ADD23RoundRect,0.250000X0.325000X0.450000X-0.325000X0.450000X-0.325000X-0.450000X0.325000X-0.450000X0*%
%ADD24RoundRect,0.250000X-0.325000X-0.450000X0.325000X-0.450000X0.325000X0.450000X-0.325000X0.450000X0*%
%ADD25R,2.000000X1.500000*%
%ADD26R,2.000000X3.800000*%
G04 APERTURE END LIST*
D10*
%TO.C,C2*%
X136000000Y-108154955D03*
X136000000Y-110279955D03*
%TD*%
D11*
%TO.C,C5*%
X162055545Y-106722019D03*
X156955545Y-106722019D03*
%TD*%
D12*
%TO.C,J1*%
X146750000Y-116502455D03*
X147550000Y-116502455D03*
D13*
X148750000Y-116502455D03*
X149750000Y-116502455D03*
X150250000Y-116502455D03*
X151250000Y-116502455D03*
D12*
X152450000Y-116502455D03*
X153250000Y-116502455D03*
X153250000Y-116502455D03*
X152450000Y-116502455D03*
D13*
X151750000Y-116502455D03*
X150750000Y-116502455D03*
X149250000Y-116502455D03*
X148250000Y-116502455D03*
D12*
X147550000Y-116502455D03*
X146750000Y-116502455D03*
D14*
X155096965Y-117429250D03*
D15*
X144153035Y-121597455D03*
X155846965Y-121597455D03*
D14*
X144903035Y-117429250D03*
%TD*%
D16*
%TO.C,R2*%
X137000000Y-90062500D03*
X137000000Y-87937500D03*
%TD*%
D17*
%TO.C,Y1*%
X139500000Y-113317455D03*
X139500000Y-108617455D03*
%TD*%
D18*
%TO.C,Q1*%
X150721453Y-102950000D03*
X150721453Y-101050000D03*
X147721453Y-102000000D03*
%TD*%
D16*
%TO.C,R3*%
X142680000Y-119569955D03*
X142680000Y-117444955D03*
%TD*%
%TO.C,R4*%
X157320000Y-119569955D03*
X157320000Y-117444955D03*
%TD*%
D10*
%TO.C,R7*%
X163000000Y-87937500D03*
X163000000Y-90062500D03*
%TD*%
D16*
%TO.C,C4*%
X154387518Y-112993433D03*
X154387518Y-110868433D03*
%TD*%
D19*
%TO.C,U1*%
X152450000Y-108012455D03*
X151180000Y-108012455D03*
X149910000Y-108012455D03*
X148640000Y-108012455D03*
X147370000Y-108012455D03*
X146100000Y-108012455D03*
X144830000Y-108012455D03*
X143560000Y-108012455D03*
X143560000Y-112962455D03*
X144830000Y-112962455D03*
X146100000Y-112962455D03*
X147370000Y-112962455D03*
X148640000Y-112962455D03*
X149910000Y-112962455D03*
X151180000Y-112962455D03*
X152450000Y-112962455D03*
%TD*%
D20*
%TO.C,R5*%
X158062500Y-95000000D03*
X155937500Y-95000000D03*
%TD*%
D21*
%TO.C,SW1*%
X138150000Y-99740491D03*
X138150000Y-103440491D03*
X136450000Y-99740491D03*
X136450000Y-103440491D03*
%TD*%
D18*
%TO.C,Q2*%
X153580000Y-101050000D03*
X153580000Y-102950000D03*
X156580000Y-102000000D03*
%TD*%
D22*
%TO.C,R6*%
X141937500Y-95000000D03*
X144062500Y-95000000D03*
%TD*%
D23*
%TO.C,D1*%
X158025000Y-97500000D03*
X155975000Y-97500000D03*
%TD*%
D16*
%TO.C,C1*%
X136000000Y-113779955D03*
X136000000Y-111654955D03*
%TD*%
D24*
%TO.C,D2*%
X141975000Y-97500000D03*
X144025000Y-97500000D03*
%TD*%
D25*
%TO.C,U2*%
X156955545Y-109973364D03*
X156955545Y-112273364D03*
D26*
X163255545Y-112273364D03*
D25*
X156955545Y-114573364D03*
%TD*%
D20*
%TO.C,C3*%
X148636090Y-105773720D03*
X146511090Y-105773720D03*
%TD*%
D16*
%TO.C,R8*%
X165000000Y-90062500D03*
X165000000Y-87937500D03*
%TD*%
D22*
%TO.C,R1*%
X141937500Y-103000000D03*
X144062500Y-103000000D03*
%TD*%
M02*
